<svg width="49" height="16" viewBox="0 0 49 16" fill="none" xmlns="http://www.w3.org/2000/svg">
<path d="M8.31543 8.12012C8.31543 9.02572 8.15885 9.82129 7.8457 10.5068C7.53255 11.1882 7.08398 11.7129 6.5 12.0811C5.92025 12.445 5.25163 12.627 4.49414 12.627C3.74512 12.627 3.0765 12.445 2.48828 12.0811C1.9043 11.7129 1.4515 11.1903 1.12988 10.5132C0.8125 9.8361 0.651693 9.05534 0.647461 8.1709V7.65039C0.647461 6.74902 0.806152 5.95345 1.12354 5.26367C1.44515 4.57389 1.89583 4.04704 2.47559 3.68311C3.05957 3.31494 3.72819 3.13086 4.48145 3.13086C5.2347 3.13086 5.9012 3.31283 6.48096 3.67676C7.06494 4.03646 7.51562 4.55697 7.83301 5.23828C8.15039 5.91536 8.3112 6.70459 8.31543 7.60596V8.12012ZM6.70947 7.6377C6.70947 6.61361 6.51481 5.82861 6.12549 5.28271C5.7404 4.73682 5.19238 4.46387 4.48145 4.46387C3.78743 4.46387 3.24365 4.73682 2.8501 5.28271C2.46077 5.82438 2.26188 6.59245 2.25342 7.58691V8.12012C2.25342 9.13574 2.4502 9.92074 2.84375 10.4751C3.24154 11.0295 3.79167 11.3066 4.49414 11.3066C5.20508 11.3066 5.75098 11.0358 6.13184 10.4941C6.51693 9.95247 6.70947 9.16113 6.70947 8.12012V7.6377ZM15.793 9.13574C15.793 10.2021 15.5539 11.0506 15.0757 11.6812C14.6017 12.3117 13.9479 12.627 13.1143 12.627C12.3102 12.627 11.6839 12.3371 11.2354 11.7573L11.1592 12.5H9.7627V2.75H11.3052V6.29199C11.7495 5.76725 12.3483 5.50488 13.1016 5.50488C13.9395 5.50488 14.5975 5.81592 15.0757 6.43799C15.5539 7.06006 15.793 7.92969 15.793 9.04688V9.13574ZM14.2505 9.00244C14.2505 8.25765 14.1193 7.69906 13.8569 7.32666C13.5946 6.95426 13.2137 6.76807 12.7144 6.76807C12.0457 6.76807 11.576 7.06006 11.3052 7.64404V10.4751C11.5802 11.0718 12.0542 11.3701 12.7271 11.3701C13.2095 11.3701 13.5819 11.1903 13.8442 10.8306C14.1066 10.4709 14.242 9.92708 14.2505 9.19922V9.00244ZM20.9409 10.6338C20.9409 10.3587 20.8267 10.1493 20.5981 10.0054C20.3739 9.86149 19.9993 9.73454 19.4746 9.62451C18.9499 9.51449 18.5119 9.37484 18.1606 9.20557C17.3905 8.83317 17.0054 8.29362 17.0054 7.58691C17.0054 6.99447 17.255 6.49935 17.7544 6.10156C18.2537 5.70378 18.8885 5.50488 19.6587 5.50488C20.4797 5.50488 21.1419 5.70801 21.6455 6.11426C22.1533 6.52051 22.4072 7.04736 22.4072 7.69482H20.8647C20.8647 7.3986 20.7547 7.15316 20.5347 6.9585C20.3146 6.7596 20.0226 6.66016 19.6587 6.66016C19.3201 6.66016 19.043 6.73844 18.8271 6.89502C18.6156 7.0516 18.5098 7.26107 18.5098 7.52344C18.5098 7.76042 18.6092 7.9445 18.8081 8.07568C19.007 8.20687 19.409 8.34017 20.0142 8.47559C20.6193 8.60677 21.0933 8.76546 21.436 8.95166C21.783 9.13363 22.0391 9.35368 22.2041 9.61182C22.3734 9.86995 22.458 10.1831 22.458 10.5513C22.458 11.1691 22.202 11.6706 21.6899 12.0557C21.1779 12.4365 20.5072 12.627 19.6777 12.627C19.1149 12.627 18.6134 12.5254 18.1733 12.3223C17.7332 12.1191 17.3905 11.8398 17.145 11.4844C16.8996 11.1289 16.7769 10.7459 16.7769 10.3354H18.2749C18.2961 10.6994 18.4336 10.9808 18.6875 11.1797C18.9414 11.3743 19.2778 11.4717 19.6968 11.4717C20.103 11.4717 20.4119 11.3955 20.6235 11.2432C20.8351 11.0866 20.9409 10.8835 20.9409 10.6338ZM26.8315 12.627C25.854 12.627 25.0605 12.3201 24.4512 11.7065C23.846 11.0887 23.5435 10.2677 23.5435 9.24365V9.05322C23.5435 8.36768 23.6746 7.75618 23.937 7.21875C24.2036 6.67708 24.576 6.25602 25.0542 5.95557C25.5324 5.65511 26.0656 5.50488 26.6538 5.50488C27.589 5.50488 28.3105 5.80322 28.8184 6.3999C29.3304 6.99658 29.5864 7.84082 29.5864 8.93262V9.55469H25.0986C25.1452 10.1217 25.3335 10.5703 25.6636 10.9004C25.9979 11.2305 26.4168 11.3955 26.9204 11.3955C27.6271 11.3955 28.2026 11.1099 28.647 10.5386L29.4785 11.332C29.2035 11.7425 28.8353 12.062 28.374 12.2905C27.917 12.5148 27.4028 12.627 26.8315 12.627ZM26.6475 6.74268C26.2243 6.74268 25.8815 6.89079 25.6191 7.18701C25.361 7.48324 25.196 7.89583 25.124 8.4248H28.063V8.31055C28.0291 7.79427 27.8916 7.40495 27.6504 7.14258C27.4092 6.87598 27.0749 6.74268 26.6475 6.74268ZM34.3853 7.04102C34.1821 7.00716 33.9727 6.99023 33.7568 6.99023C33.0501 6.99023 32.5741 7.26107 32.3286 7.80273V12.5H30.7861V5.63184H32.2588L32.2969 6.3999C32.6693 5.80322 33.1855 5.50488 33.8457 5.50488C34.0658 5.50488 34.2477 5.53451 34.3916 5.59375L34.3853 7.04102ZM37.8955 10.5449L39.3491 5.63184H40.9424L38.562 12.5H37.2227L34.8232 5.63184H36.4229L37.8955 10.5449ZM44.8462 12.627C43.8687 12.627 43.0752 12.3201 42.4658 11.7065C41.8607 11.0887 41.5581 10.2677 41.5581 9.24365V9.05322C41.5581 8.36768 41.6893 7.75618 41.9517 7.21875C42.2183 6.67708 42.5907 6.25602 43.0688 5.95557C43.547 5.65511 44.0802 5.50488 44.6685 5.50488C45.6037 5.50488 46.3252 5.80322 46.833 6.3999C47.3451 6.99658 47.6011 7.84082 47.6011 8.93262V9.55469H43.1133C43.1598 10.1217 43.3481 10.5703 43.6782 10.9004C44.0125 11.2305 44.4315 11.3955 44.9351 11.3955C45.6418 11.3955 46.2173 11.1099 46.6616 10.5386L47.4932 11.332C47.2181 11.7425 46.8499 12.062 46.3887 12.2905C45.9316 12.5148 45.4175 12.627 44.8462 12.627ZM44.6621 6.74268C44.2389 6.74268 43.8962 6.89079 43.6338 7.18701C43.3757 7.48324 43.2106 7.89583 43.1387 8.4248H46.0776V8.31055C46.0438 7.79427 45.9062 7.40495 45.665 7.14258C45.4238 6.87598 45.0895 6.74268 44.6621 6.74268Z" fill="#CBADFF"/>
</svg>
