<svg width="466" height="18" viewBox="0 0 466 18" fill="none" xmlns="http://www.w3.org/2000/svg">
<path d="M8.18213 9.17725C8.18213 10.0828 8.02979 10.8742 7.7251 11.5513C7.42041 12.2241 6.98877 12.7383 6.43018 13.0938C5.87158 13.4492 5.21989 13.627 4.4751 13.627C3.74723 13.627 3.10189 13.4492 2.53906 13.0938C1.97624 12.734 1.53825 12.2241 1.2251 11.564C0.916178 10.8996 0.757487 10.1315 0.749023 9.25977V8.59326C0.749023 7.70459 0.903483 6.9196 1.2124 6.23828C1.52132 5.55697 1.95719 5.03646 2.52002 4.67676C3.08708 4.31283 3.73454 4.13086 4.4624 4.13086C5.20296 4.13086 5.85465 4.31071 6.41748 4.67041C6.98454 5.02588 7.42041 5.54427 7.7251 6.22559C8.02979 6.90267 8.18213 7.69189 8.18213 8.59326V9.17725ZM6.96973 8.58057C6.96973 7.48454 6.74967 6.64453 6.30957 6.06055C5.86947 5.47233 5.25374 5.17822 4.4624 5.17822C3.69222 5.17822 3.08496 5.47233 2.64062 6.06055C2.20052 6.64453 1.97412 7.45703 1.96143 8.49805V9.17725C1.96143 10.2394 2.18359 11.0752 2.62793 11.6846C3.0765 12.2897 3.69222 12.5923 4.4751 12.5923C5.26221 12.5923 5.87158 12.3066 6.30322 11.7354C6.73486 11.1598 6.95703 10.3368 6.96973 9.26611V8.58057ZM15.6406 10.1421C15.6406 11.1916 15.3994 12.0358 14.917 12.6748C14.4346 13.3096 13.7871 13.627 12.9746 13.627C12.1071 13.627 11.4364 13.3201 10.9624 12.7065L10.9053 13.5H9.82617V3.75H11.0005V7.38721C11.4744 6.79899 12.1283 6.50488 12.9619 6.50488C13.7956 6.50488 14.4494 6.82015 14.9233 7.45068C15.4015 8.08122 15.6406 8.9445 15.6406 10.0405V10.1421ZM14.4663 10.0088C14.4663 9.20898 14.3118 8.59115 14.0029 8.15527C13.694 7.7194 13.2497 7.50146 12.6699 7.50146C11.8955 7.50146 11.339 7.86117 11.0005 8.58057V11.5513C11.3602 12.2707 11.9209 12.6304 12.6826 12.6304C13.2454 12.6304 13.6834 12.4124 13.9966 11.9766C14.3097 11.5407 14.4663 10.8848 14.4663 10.0088ZM21.125 11.6782C21.125 11.3608 21.0044 11.1154 20.7632 10.9419C20.5262 10.7642 20.1094 10.6118 19.5127 10.4849C18.9202 10.3579 18.4484 10.2056 18.0972 10.0278C17.7502 9.8501 17.492 9.63851 17.3228 9.39307C17.1577 9.14762 17.0752 8.85563 17.0752 8.51709C17.0752 7.95426 17.3122 7.47819 17.7861 7.08887C18.2643 6.69954 18.8737 6.50488 19.6143 6.50488C20.3929 6.50488 21.0234 6.70589 21.5059 7.10791C21.9925 7.50993 22.2358 8.02409 22.2358 8.65039H21.0552C21.0552 8.32878 20.9176 8.0516 20.6426 7.81885C20.3717 7.5861 20.029 7.46973 19.6143 7.46973C19.1868 7.46973 18.8525 7.56283 18.6113 7.74902C18.3701 7.93522 18.2495 8.17855 18.2495 8.479C18.2495 8.76253 18.3617 8.97624 18.5859 9.12012C18.8102 9.264 19.2144 9.40153 19.7983 9.53271C20.3866 9.6639 20.8626 9.82048 21.2266 10.0024C21.5905 10.1844 21.8592 10.4045 22.0327 10.6626C22.2104 10.9165 22.2993 11.2275 22.2993 11.5957C22.2993 12.2093 22.0539 12.7023 21.563 13.0747C21.0721 13.4429 20.4352 13.627 19.6523 13.627C19.1022 13.627 18.6156 13.5296 18.1924 13.335C17.7692 13.1403 17.437 12.8695 17.1958 12.5225C16.9588 12.1712 16.8403 11.7925 16.8403 11.3862H18.0146C18.0358 11.7798 18.1924 12.0929 18.4844 12.3257C18.7806 12.5542 19.1699 12.6685 19.6523 12.6685C20.0967 12.6685 20.4521 12.5796 20.7188 12.4019C20.9896 12.2199 21.125 11.9787 21.125 11.6782ZM26.6792 13.627C25.7482 13.627 24.9907 13.3223 24.4067 12.7129C23.8228 12.0993 23.5308 11.2804 23.5308 10.2563V10.0405C23.5308 9.35921 23.6598 8.75195 23.918 8.21875C24.1803 7.68132 24.5443 7.26237 25.0098 6.96191C25.4795 6.65723 25.9873 6.50488 26.5332 6.50488C27.4261 6.50488 28.1201 6.79899 28.6152 7.38721C29.1104 7.97542 29.3579 8.81755 29.3579 9.91357V10.4023H24.7051C24.722 11.0794 24.9188 11.6274 25.2954 12.0464C25.6763 12.4611 26.1587 12.6685 26.7427 12.6685C27.1574 12.6685 27.5086 12.5838 27.7964 12.4146C28.0841 12.2453 28.3359 12.021 28.5518 11.7417L29.269 12.3003C28.6935 13.1847 27.8302 13.627 26.6792 13.627ZM26.5332 7.46973C26.0592 7.46973 25.6615 7.64323 25.3398 7.99023C25.0182 8.33301 24.8193 8.81543 24.7432 9.4375H28.1836V9.34863C28.1497 8.75195 27.9889 8.29069 27.7012 7.96484C27.4134 7.63477 27.0241 7.46973 26.5332 7.46973ZM34.0425 7.68555C33.8647 7.65592 33.6722 7.64111 33.4648 7.64111C32.6947 7.64111 32.172 7.96908 31.897 8.625V13.5H30.7227V6.63184H31.8652L31.8843 7.42529C32.2694 6.81169 32.8153 6.50488 33.522 6.50488C33.7505 6.50488 33.924 6.53451 34.0425 6.59375V7.68555ZM37.5083 11.9067L39.2095 6.63184H40.4092L37.9463 13.5H37.0513L34.563 6.63184H35.7627L37.5083 11.9067ZM44.3003 13.627C43.3693 13.627 42.6118 13.3223 42.0278 12.7129C41.4438 12.0993 41.1519 11.2804 41.1519 10.2563V10.0405C41.1519 9.35921 41.2809 8.75195 41.5391 8.21875C41.8014 7.68132 42.1654 7.26237 42.6309 6.96191C43.1006 6.65723 43.6084 6.50488 44.1543 6.50488C45.0472 6.50488 45.7412 6.79899 46.2363 7.38721C46.7314 7.97542 46.979 8.81755 46.979 9.91357V10.4023H42.3262C42.3431 11.0794 42.5399 11.6274 42.9165 12.0464C43.2974 12.4611 43.7798 12.6685 44.3638 12.6685C44.7785 12.6685 45.1297 12.5838 45.4175 12.4146C45.7052 12.2453 45.957 12.021 46.1729 11.7417L46.8901 12.3003C46.3146 13.1847 45.4513 13.627 44.3003 13.627ZM44.1543 7.46973C43.6803 7.46973 43.2826 7.64323 42.9609 7.99023C42.6393 8.33301 42.4404 8.81543 42.3643 9.4375H45.8047V9.34863C45.7708 8.75195 45.61 8.29069 45.3223 7.96484C45.0345 7.63477 44.6452 7.46973 44.1543 7.46973Z" fill="white" fill-opacity="0.64"/>
<path d="M58.9876 12.9712C58.7072 12.6791 58.7069 12.2056 58.9871 11.9131L61.7776 8.99996L58.9871 6.08678C58.7069 5.79435 58.7072 5.32082 58.9876 5.02871C59.268 4.73669 59.7225 4.73669 60.0028 5.02871L63.3061 8.46963C63.5873 8.76252 63.5873 9.23739 63.3061 9.53029L60.0028 12.9712C59.7225 13.2632 59.268 13.2632 58.9876 12.9712Z" fill="white" fill-opacity="0.64"/>
<path d="M75.0728 13.5V4.25781H78.0942C79.0972 4.25781 79.8504 4.46517 80.354 4.87988C80.8618 5.2946 81.1157 5.9082 81.1157 6.7207C81.1157 7.15234 80.993 7.53532 80.7476 7.86963C80.5021 8.19971 80.1678 8.45573 79.7446 8.6377C80.244 8.77734 80.6375 9.04395 80.9253 9.4375C81.2173 9.82682 81.3633 10.2923 81.3633 10.834C81.3633 11.6634 81.0946 12.3151 80.5571 12.7891C80.0197 13.263 79.2601 13.5 78.2783 13.5H75.0728ZM76.2915 9.17725V12.5034H78.3037C78.8708 12.5034 79.3172 12.3574 79.6431 12.0654C79.9731 11.7692 80.1382 11.363 80.1382 10.8467C80.1382 9.73372 79.533 9.17725 78.3228 9.17725H76.2915ZM76.2915 8.19971H78.1323C78.6655 8.19971 79.0908 8.06641 79.4082 7.7998C79.7298 7.5332 79.8906 7.17139 79.8906 6.71436C79.8906 6.20654 79.7425 5.83838 79.4463 5.60986C79.1501 5.37712 78.6994 5.26074 78.0942 5.26074H76.2915V8.19971ZM82.6772 10.0024C82.6772 9.32959 82.8084 8.72445 83.0708 8.18701C83.3374 7.64958 83.7056 7.23486 84.1753 6.94287C84.6493 6.65088 85.1888 6.50488 85.7939 6.50488C86.7292 6.50488 87.4845 6.82861 88.0601 7.47607C88.6398 8.12354 88.9297 8.9847 88.9297 10.0596V10.1421C88.9297 10.8107 88.8006 11.4116 88.5425 11.9448C88.2886 12.4738 87.9225 12.8864 87.4443 13.1826C86.9704 13.4788 86.4245 13.627 85.8066 13.627C84.8757 13.627 84.1203 13.3032 83.5405 12.6558C82.965 12.0083 82.6772 11.1514 82.6772 10.085V10.0024ZM83.8579 10.1421C83.8579 10.9038 84.0335 11.5153 84.3848 11.9766C84.7402 12.4378 85.2142 12.6685 85.8066 12.6685C86.4033 12.6685 86.8773 12.4357 87.2285 11.9702C87.5798 11.5005 87.7554 10.8446 87.7554 10.0024C87.7554 9.24919 87.5755 8.63981 87.2158 8.17432C86.8604 7.70459 86.3864 7.46973 85.7939 7.46973C85.2142 7.46973 84.7466 7.70036 84.3911 8.16162C84.0356 8.62288 83.8579 9.28304 83.8579 10.1421ZM90.0913 10.0024C90.0913 9.32959 90.2225 8.72445 90.4849 8.18701C90.7515 7.64958 91.1196 7.23486 91.5894 6.94287C92.0633 6.65088 92.6029 6.50488 93.208 6.50488C94.1432 6.50488 94.8986 6.82861 95.4741 7.47607C96.0539 8.12354 96.3438 8.9847 96.3438 10.0596V10.1421C96.3438 10.8107 96.2147 11.4116 95.9565 11.9448C95.7026 12.4738 95.3366 12.8864 94.8584 13.1826C94.3844 13.4788 93.8385 13.627 93.2207 13.627C92.2897 13.627 91.5343 13.3032 90.9546 12.6558C90.3791 12.0083 90.0913 11.1514 90.0913 10.085V10.0024ZM91.272 10.1421C91.272 10.9038 91.4476 11.5153 91.7988 11.9766C92.1543 12.4378 92.6283 12.6685 93.2207 12.6685C93.8174 12.6685 94.2913 12.4357 94.6426 11.9702C94.9938 11.5005 95.1694 10.8446 95.1694 10.0024C95.1694 9.24919 94.9896 8.63981 94.6299 8.17432C94.2744 7.70459 93.8005 7.46973 93.208 7.46973C92.6283 7.46973 92.1606 7.70036 91.8052 8.16162C91.4497 8.62288 91.272 9.28304 91.272 10.1421ZM99.7334 10.3198L98.9971 11.0879V13.5H97.8228V3.75H98.9971V9.64697L99.6255 8.8916L101.765 6.63184H103.193L100.521 9.50098L103.504 13.5H102.126L99.7334 10.3198ZM110.537 9.38037C109.492 9.07992 108.73 8.71175 108.252 8.27588C107.778 7.83577 107.541 7.29411 107.541 6.65088C107.541 5.92301 107.831 5.3221 108.411 4.84814C108.995 4.36995 109.752 4.13086 110.683 4.13086C111.318 4.13086 111.883 4.25358 112.378 4.49902C112.877 4.74447 113.262 5.08301 113.533 5.51465C113.808 5.94629 113.946 6.41813 113.946 6.93018H112.721C112.721 6.37158 112.543 5.93359 112.188 5.61621C111.832 5.2946 111.331 5.13379 110.683 5.13379C110.082 5.13379 109.612 5.26709 109.274 5.53369C108.94 5.79606 108.772 6.16211 108.772 6.63184C108.772 7.00846 108.931 7.32796 109.249 7.59033C109.57 7.84847 110.114 8.08545 110.88 8.30127C111.65 8.51709 112.251 8.75618 112.683 9.01855C113.118 9.27669 113.44 9.57926 113.647 9.92627C113.859 10.2733 113.965 10.6816 113.965 11.1514C113.965 11.9004 113.673 12.5013 113.089 12.9541C112.505 13.4027 111.724 13.627 110.747 13.627C110.112 13.627 109.519 13.5063 108.969 13.2651C108.419 13.0197 107.994 12.6854 107.693 12.2622C107.397 11.839 107.249 11.3587 107.249 10.8213H108.474C108.474 11.3799 108.679 11.8221 109.09 12.1479C109.505 12.4696 110.057 12.6304 110.747 12.6304C111.39 12.6304 111.883 12.4992 112.226 12.2368C112.568 11.9744 112.74 11.6169 112.74 11.1641C112.74 10.7113 112.581 10.3621 112.264 10.1167C111.946 9.86702 111.371 9.62158 110.537 9.38037ZM116.942 4.96875V6.63184H118.224V7.53955H116.942V11.7988C116.942 12.0739 116.999 12.2812 117.113 12.4209C117.228 12.5563 117.422 12.624 117.697 12.624C117.833 12.624 118.019 12.5986 118.256 12.5479V13.5C117.947 13.5846 117.646 13.627 117.354 13.627C116.83 13.627 116.434 13.4683 116.167 13.1509C115.901 12.8335 115.768 12.3828 115.768 11.7988V7.53955H114.517V6.63184H115.768V4.96875H116.942ZM119.164 10.0024C119.164 9.32959 119.295 8.72445 119.557 8.18701C119.824 7.64958 120.192 7.23486 120.662 6.94287C121.136 6.65088 121.675 6.50488 122.28 6.50488C123.215 6.50488 123.971 6.82861 124.546 7.47607C125.126 8.12354 125.416 8.9847 125.416 10.0596V10.1421C125.416 10.8107 125.287 11.4116 125.029 11.9448C124.775 12.4738 124.409 12.8864 123.931 13.1826C123.457 13.4788 122.911 13.627 122.293 13.627C121.362 13.627 120.607 13.3032 120.027 12.6558C119.451 12.0083 119.164 11.1514 119.164 10.085V10.0024ZM120.344 10.1421C120.344 10.9038 120.52 11.5153 120.871 11.9766C121.227 12.4378 121.701 12.6685 122.293 12.6685C122.89 12.6685 123.364 12.4357 123.715 11.9702C124.066 11.5005 124.242 10.8446 124.242 10.0024C124.242 9.24919 124.062 8.63981 123.702 8.17432C123.347 7.70459 122.873 7.46973 122.28 7.46973C121.701 7.46973 121.233 7.70036 120.877 8.16162C120.522 8.62288 120.344 9.28304 120.344 10.1421ZM130.208 7.68555C130.031 7.65592 129.838 7.64111 129.631 7.64111C128.861 7.64111 128.338 7.96908 128.063 8.625V13.5H126.889V6.63184H128.031L128.05 7.42529C128.435 6.81169 128.981 6.50488 129.688 6.50488C129.917 6.50488 130.09 6.53451 130.208 6.59375V7.68555ZM134.017 13.627C133.086 13.627 132.329 13.3223 131.745 12.7129C131.161 12.0993 130.869 11.2804 130.869 10.2563V10.0405C130.869 9.35921 130.998 8.75195 131.256 8.21875C131.518 7.68132 131.882 7.26237 132.348 6.96191C132.817 6.65723 133.325 6.50488 133.871 6.50488C134.764 6.50488 135.458 6.79899 135.953 7.38721C136.448 7.97542 136.696 8.81755 136.696 9.91357V10.4023H132.043C132.06 11.0794 132.257 11.6274 132.633 12.0464C133.014 12.4611 133.497 12.6685 134.081 12.6685C134.495 12.6685 134.847 12.5838 135.134 12.4146C135.422 12.2453 135.674 12.021 135.89 11.7417L136.607 12.3003C136.031 13.1847 135.168 13.627 134.017 13.627ZM133.871 7.46973C133.397 7.46973 132.999 7.64323 132.678 7.99023C132.356 8.33301 132.157 8.81543 132.081 9.4375H135.521V9.34863C135.488 8.75195 135.327 8.29069 135.039 7.96484C134.751 7.63477 134.362 7.46973 133.871 7.46973ZM146.573 11.0879H142.701L141.831 13.5H140.574L144.104 4.25781H145.17L148.706 13.5H147.455L146.573 11.0879ZM143.069 10.085H146.211L144.637 5.76221L143.069 10.085ZM155.567 10.1421C155.567 11.1873 155.328 12.0295 154.85 12.6685C154.372 13.3075 153.724 13.627 152.908 13.627C152.074 13.627 151.418 13.3625 150.94 12.8335V16.1406H149.766V6.63184H150.838L150.896 7.39355C151.374 6.80111 152.038 6.50488 152.889 6.50488C153.714 6.50488 154.366 6.81592 154.844 7.43799C155.326 8.06006 155.567 8.92546 155.567 10.0342V10.1421ZM154.393 10.0088C154.393 9.23438 154.228 8.62288 153.898 8.17432C153.568 7.72575 153.115 7.50146 152.54 7.50146C151.829 7.50146 151.295 7.81673 150.94 8.44727V11.729C151.291 12.3553 151.829 12.6685 152.552 12.6685C153.115 12.6685 153.562 12.4463 153.892 12.002C154.226 11.5534 154.393 10.889 154.393 10.0088ZM162.867 10.1421C162.867 11.1873 162.628 12.0295 162.15 12.6685C161.672 13.3075 161.024 13.627 160.208 13.627C159.374 13.627 158.718 13.3625 158.24 12.8335V16.1406H157.065V6.63184H158.138L158.195 7.39355C158.674 6.80111 159.338 6.50488 160.188 6.50488C161.014 6.50488 161.665 6.81592 162.144 7.43799C162.626 8.06006 162.867 8.92546 162.867 10.0342V10.1421ZM161.693 10.0088C161.693 9.23438 161.528 8.62288 161.198 8.17432C160.868 7.72575 160.415 7.50146 159.839 7.50146C159.128 7.50146 158.595 7.81673 158.24 8.44727V11.729C158.591 12.3553 159.128 12.6685 159.852 12.6685C160.415 12.6685 160.861 12.4463 161.191 12.002C161.526 11.5534 161.693 10.889 161.693 10.0088Z" fill="white" fill-opacity="0.64"/>
<path d="M174.988 12.9712C174.707 12.6791 174.707 12.2056 174.987 11.9131L177.778 8.99996L174.987 6.08678C174.707 5.79435 174.707 5.32082 174.988 5.02871C175.268 4.73669 175.722 4.73669 176.003 5.02871L179.306 8.46963C179.587 8.76252 179.587 9.23739 179.306 9.53029L176.003 12.9712C175.722 13.2632 175.268 13.2632 174.988 12.9712Z" fill="white" fill-opacity="0.64"/>
<path d="M193.796 9.38037C192.751 9.07992 191.989 8.71175 191.511 8.27588C191.037 7.83577 190.8 7.29411 190.8 6.65088C190.8 5.92301 191.09 5.3221 191.669 4.84814C192.253 4.36995 193.011 4.13086 193.942 4.13086C194.577 4.13086 195.142 4.25358 195.637 4.49902C196.136 4.74447 196.521 5.08301 196.792 5.51465C197.067 5.94629 197.205 6.41813 197.205 6.93018H195.979C195.979 6.37158 195.802 5.93359 195.446 5.61621C195.091 5.2946 194.589 5.13379 193.942 5.13379C193.341 5.13379 192.871 5.26709 192.533 5.53369C192.198 5.79606 192.031 6.16211 192.031 6.63184C192.031 7.00846 192.19 7.32796 192.507 7.59033C192.829 7.84847 193.373 8.08545 194.139 8.30127C194.909 8.51709 195.51 8.75618 195.941 9.01855C196.377 9.27669 196.699 9.57926 196.906 9.92627C197.118 10.2733 197.224 10.6816 197.224 11.1514C197.224 11.9004 196.932 12.5013 196.348 12.9541C195.764 13.4027 194.983 13.627 194.005 13.627C193.371 13.627 192.778 13.5063 192.228 13.2651C191.678 13.0197 191.253 12.6854 190.952 12.2622C190.656 11.839 190.508 11.3587 190.508 10.8213H191.733C191.733 11.3799 191.938 11.8221 192.349 12.1479C192.763 12.4696 193.316 12.6304 194.005 12.6304C194.649 12.6304 195.142 12.4992 195.484 12.2368C195.827 11.9744 195.999 11.6169 195.999 11.1641C195.999 10.7113 195.84 10.3621 195.522 10.1167C195.205 9.86702 194.63 9.62158 193.796 9.38037ZM201.458 13.627C200.527 13.627 199.769 13.3223 199.185 12.7129C198.601 12.0993 198.309 11.2804 198.309 10.2563V10.0405C198.309 9.35921 198.438 8.75195 198.696 8.21875C198.959 7.68132 199.323 7.26237 199.788 6.96191C200.258 6.65723 200.766 6.50488 201.312 6.50488C202.204 6.50488 202.898 6.79899 203.394 7.38721C203.889 7.97542 204.136 8.81755 204.136 9.91357V10.4023H199.483C199.5 11.0794 199.697 11.6274 200.074 12.0464C200.455 12.4611 200.937 12.6685 201.521 12.6685C201.936 12.6685 202.287 12.5838 202.575 12.4146C202.862 12.2453 203.114 12.021 203.33 11.7417L204.047 12.3003C203.472 13.1847 202.609 13.627 201.458 13.627ZM201.312 7.46973C200.838 7.46973 200.44 7.64323 200.118 7.99023C199.797 8.33301 199.598 8.81543 199.521 9.4375H202.962V9.34863C202.928 8.75195 202.767 8.29069 202.479 7.96484C202.192 7.63477 201.802 7.46973 201.312 7.46973ZM208.821 7.68555C208.643 7.65592 208.451 7.64111 208.243 7.64111C207.473 7.64111 206.95 7.96908 206.675 8.625V13.5H205.501V6.63184H206.644L206.663 7.42529C207.048 6.81169 207.594 6.50488 208.3 6.50488C208.529 6.50488 208.702 6.53451 208.821 6.59375V7.68555ZM212.287 11.9067L213.988 6.63184H215.188L212.725 13.5H211.83L209.341 6.63184H210.541L212.287 11.9067ZM217.593 13.5H216.419V6.63184H217.593V13.5ZM216.324 4.81006C216.324 4.61963 216.381 4.45882 216.495 4.32764C216.614 4.19645 216.787 4.13086 217.016 4.13086C217.244 4.13086 217.418 4.19645 217.536 4.32764C217.655 4.45882 217.714 4.61963 217.714 4.81006C217.714 5.00049 217.655 5.15918 217.536 5.28613C217.418 5.41309 217.244 5.47656 217.016 5.47656C216.787 5.47656 216.614 5.41309 216.495 5.28613C216.381 5.15918 216.324 5.00049 216.324 4.81006ZM222.233 12.6685C222.652 12.6685 223.018 12.5415 223.332 12.2876C223.645 12.0337 223.818 11.7163 223.852 11.3354H224.963C224.942 11.729 224.806 12.1035 224.557 12.459C224.307 12.8145 223.973 13.098 223.554 13.3096C223.139 13.5212 222.699 13.627 222.233 13.627C221.298 13.627 220.553 13.3159 219.999 12.6938C219.449 12.0675 219.174 11.2127 219.174 10.1294V9.93262C219.174 9.264 219.297 8.66943 219.542 8.14893C219.787 7.62842 220.139 7.22428 220.596 6.93652C221.057 6.64876 221.601 6.50488 222.227 6.50488C222.997 6.50488 223.636 6.73551 224.144 7.19678C224.656 7.65804 224.929 8.25684 224.963 8.99316H223.852C223.818 8.54883 223.649 8.1849 223.344 7.90137C223.044 7.61361 222.671 7.46973 222.227 7.46973C221.63 7.46973 221.167 7.68555 220.837 8.11719C220.511 8.5446 220.348 9.16455 220.348 9.97705V10.1992C220.348 10.9906 220.511 11.5999 220.837 12.0273C221.163 12.4548 221.628 12.6685 222.233 12.6685ZM229.133 13.627C228.202 13.627 227.445 13.3223 226.861 12.7129C226.277 12.0993 225.985 11.2804 225.985 10.2563V10.0405C225.985 9.35921 226.114 8.75195 226.372 8.21875C226.634 7.68132 226.998 7.26237 227.464 6.96191C227.934 6.65723 228.441 6.50488 228.987 6.50488C229.88 6.50488 230.574 6.79899 231.069 7.38721C231.564 7.97542 231.812 8.81755 231.812 9.91357V10.4023H227.159C227.176 11.0794 227.373 11.6274 227.75 12.0464C228.13 12.4611 228.613 12.6685 229.197 12.6685C229.611 12.6685 229.963 12.5838 230.25 12.4146C230.538 12.2453 230.79 12.021 231.006 11.7417L231.723 12.3003C231.148 13.1847 230.284 13.627 229.133 13.627ZM228.987 7.46973C228.513 7.46973 228.116 7.64323 227.794 7.99023C227.472 8.33301 227.273 8.81543 227.197 9.4375H230.638V9.34863C230.604 8.75195 230.443 8.29069 230.155 7.96484C229.868 7.63477 229.478 7.46973 228.987 7.46973ZM237.176 11.6782C237.176 11.3608 237.055 11.1154 236.814 10.9419C236.577 10.7642 236.16 10.6118 235.563 10.4849C234.971 10.3579 234.499 10.2056 234.148 10.0278C233.801 9.8501 233.543 9.63851 233.374 9.39307C233.208 9.14762 233.126 8.85563 233.126 8.51709C233.126 7.95426 233.363 7.47819 233.837 7.08887C234.315 6.69954 234.924 6.50488 235.665 6.50488C236.444 6.50488 237.074 6.70589 237.557 7.10791C238.043 7.50993 238.287 8.02409 238.287 8.65039H237.106C237.106 8.32878 236.968 8.0516 236.693 7.81885C236.423 7.5861 236.08 7.46973 235.665 7.46973C235.238 7.46973 234.903 7.56283 234.662 7.74902C234.421 7.93522 234.3 8.17855 234.3 8.479C234.3 8.76253 234.412 8.97624 234.637 9.12012C234.861 9.264 235.265 9.40153 235.849 9.53271C236.437 9.6639 236.913 9.82048 237.277 10.0024C237.641 10.1844 237.91 10.4045 238.083 10.6626C238.261 10.9165 238.35 11.2275 238.35 11.5957C238.35 12.2093 238.105 12.7023 237.614 13.0747C237.123 13.4429 236.486 13.627 235.703 13.627C235.153 13.627 234.666 13.5296 234.243 13.335C233.82 13.1403 233.488 12.8695 233.247 12.5225C233.01 12.1712 232.891 11.7925 232.891 11.3862H234.065C234.087 11.7798 234.243 12.0929 234.535 12.3257C234.831 12.5542 235.221 12.6685 235.703 12.6685C236.147 12.6685 236.503 12.5796 236.77 12.4019C237.04 12.2199 237.176 11.9787 237.176 11.6782Z" fill="white" fill-opacity="0.64"/>
<path d="M249.988 12.9712C249.707 12.6791 249.707 12.2056 249.987 11.9131L252.778 8.99996L249.987 6.08678C249.707 5.79435 249.707 5.32082 249.988 5.02871C250.268 4.73669 250.722 4.73669 251.003 5.02871L254.306 8.46963C254.587 8.76252 254.587 9.23739 254.306 9.53029L251.003 12.9712C250.722 13.2632 250.268 13.2632 249.988 12.9712Z" fill="white" fill-opacity="0.64"/>
<path d="M273.182 9.17725C273.182 10.0828 273.03 10.8742 272.725 11.5513C272.42 12.2241 271.989 12.7383 271.43 13.0938C270.872 13.4492 270.22 13.627 269.475 13.627C268.747 13.627 268.102 13.4492 267.539 13.0938C266.976 12.734 266.538 12.2241 266.225 11.564C265.916 10.8996 265.757 10.1315 265.749 9.25977V8.59326C265.749 7.70459 265.903 6.9196 266.212 6.23828C266.521 5.55697 266.957 5.03646 267.52 4.67676C268.087 4.31283 268.735 4.13086 269.462 4.13086C270.203 4.13086 270.855 4.31071 271.417 4.67041C271.985 5.02588 272.42 5.54427 272.725 6.22559C273.03 6.90267 273.182 7.69189 273.182 8.59326V9.17725ZM271.97 8.58057C271.97 7.48454 271.75 6.64453 271.31 6.06055C270.869 5.47233 270.254 5.17822 269.462 5.17822C268.692 5.17822 268.085 5.47233 267.641 6.06055C267.201 6.64453 266.974 7.45703 266.961 8.49805V9.17725C266.961 10.2394 267.184 11.0752 267.628 11.6846C268.076 12.2897 268.692 12.5923 269.475 12.5923C270.262 12.5923 270.872 12.3066 271.303 11.7354C271.735 11.1598 271.957 10.3368 271.97 9.26611V8.58057ZM278.146 7.68555C277.968 7.65592 277.776 7.64111 277.568 7.64111C276.798 7.64111 276.276 7.96908 276 8.625V13.5H274.826V6.63184H275.969L275.988 7.42529C276.373 6.81169 276.919 6.50488 277.625 6.50488C277.854 6.50488 278.028 6.53451 278.146 6.59375V7.68555ZM278.819 10.0088C278.819 8.95508 279.069 8.10872 279.568 7.46973C280.067 6.8265 280.721 6.50488 281.529 6.50488C282.333 6.50488 282.97 6.77995 283.44 7.33008V3.75H284.614V13.5H283.535L283.478 12.7637C283.008 13.3392 282.354 13.627 281.517 13.627C280.721 13.627 280.071 13.3011 279.568 12.6494C279.069 11.9977 278.819 11.1471 278.819 10.0977V10.0088ZM279.993 10.1421C279.993 10.9207 280.154 11.5301 280.476 11.9702C280.797 12.4103 281.242 12.6304 281.809 12.6304C282.553 12.6304 283.097 12.2961 283.44 11.6274V8.47266C283.089 7.8252 282.549 7.50146 281.821 7.50146C281.246 7.50146 280.797 7.72363 280.476 8.16797C280.154 8.6123 279.993 9.27035 279.993 10.1421ZM289.292 13.627C288.361 13.627 287.604 13.3223 287.02 12.7129C286.436 12.0993 286.144 11.2804 286.144 10.2563V10.0405C286.144 9.35921 286.273 8.75195 286.531 8.21875C286.794 7.68132 287.158 7.26237 287.623 6.96191C288.093 6.65723 288.601 6.50488 289.146 6.50488C290.039 6.50488 290.733 6.79899 291.229 7.38721C291.724 7.97542 291.971 8.81755 291.971 9.91357V10.4023H287.318C287.335 11.0794 287.532 11.6274 287.909 12.0464C288.29 12.4611 288.772 12.6685 289.356 12.6685C289.771 12.6685 290.122 12.5838 290.41 12.4146C290.697 12.2453 290.949 12.021 291.165 11.7417L291.882 12.3003C291.307 13.1847 290.444 13.627 289.292 13.627ZM289.146 7.46973C288.673 7.46973 288.275 7.64323 287.953 7.99023C287.632 8.33301 287.433 8.81543 287.356 9.4375H290.797V9.34863C290.763 8.75195 290.602 8.29069 290.314 7.96484C290.027 7.63477 289.637 7.46973 289.146 7.46973ZM296.656 7.68555C296.478 7.65592 296.285 7.64111 296.078 7.64111C295.308 7.64111 294.785 7.96908 294.51 8.625V13.5H293.336V6.63184H294.479L294.498 7.42529C294.883 6.81169 295.429 6.50488 296.135 6.50488C296.364 6.50488 296.537 6.53451 296.656 6.59375V7.68555ZM302.369 9.88184V13.5H301.15V4.25781H304.559C305.57 4.25781 306.361 4.51595 306.933 5.03223C307.508 5.5485 307.796 6.23193 307.796 7.08252C307.796 7.97965 307.514 8.67155 306.952 9.1582C306.393 9.64062 305.591 9.88184 304.546 9.88184H302.369ZM302.369 8.88525H304.559C305.21 8.88525 305.71 8.73291 306.057 8.42822C306.404 8.1193 306.577 7.67497 306.577 7.09521C306.577 6.54508 306.404 6.10498 306.057 5.7749C305.71 5.44482 305.234 5.27344 304.628 5.26074H302.369V8.88525ZM312.487 7.68555C312.309 7.65592 312.117 7.64111 311.909 7.64111C311.139 7.64111 310.616 7.96908 310.341 8.625V13.5H309.167V6.63184H310.31L310.329 7.42529C310.714 6.81169 311.26 6.50488 311.966 6.50488C312.195 6.50488 312.368 6.53451 312.487 6.59375V7.68555ZM313.134 10.0024C313.134 9.32959 313.265 8.72445 313.528 8.18701C313.794 7.64958 314.163 7.23486 314.632 6.94287C315.106 6.65088 315.646 6.50488 316.251 6.50488C317.186 6.50488 317.942 6.82861 318.517 7.47607C319.097 8.12354 319.387 8.9847 319.387 10.0596V10.1421C319.387 10.8107 319.258 11.4116 319 11.9448C318.746 12.4738 318.38 12.8864 317.901 13.1826C317.427 13.4788 316.882 13.627 316.264 13.627C315.333 13.627 314.577 13.3032 313.998 12.6558C313.422 12.0083 313.134 11.1514 313.134 10.085V10.0024ZM314.315 10.1421C314.315 10.9038 314.491 11.5153 314.842 11.9766C315.197 12.4378 315.671 12.6685 316.264 12.6685C316.86 12.6685 317.334 12.4357 317.686 11.9702C318.037 11.5005 318.212 10.8446 318.212 10.0024C318.212 9.24919 318.033 8.63981 317.673 8.17432C317.317 7.70459 316.843 7.46973 316.251 7.46973C315.671 7.46973 315.204 7.70036 314.848 8.16162C314.493 8.62288 314.315 9.28304 314.315 10.1421ZM323.614 12.6685C324.033 12.6685 324.399 12.5415 324.712 12.2876C325.026 12.0337 325.199 11.7163 325.233 11.3354H326.344C326.323 11.729 326.187 12.1035 325.938 12.459C325.688 12.8145 325.354 13.098 324.935 13.3096C324.52 13.5212 324.08 13.627 323.614 13.627C322.679 13.627 321.934 13.3159 321.38 12.6938C320.83 12.0675 320.555 11.2127 320.555 10.1294V9.93262C320.555 9.264 320.677 8.66943 320.923 8.14893C321.168 7.62842 321.52 7.22428 321.977 6.93652C322.438 6.64876 322.982 6.50488 323.608 6.50488C324.378 6.50488 325.017 6.73551 325.525 7.19678C326.037 7.65804 326.31 8.25684 326.344 8.99316H325.233C325.199 8.54883 325.03 8.1849 324.725 7.90137C324.425 7.61361 324.052 7.46973 323.608 7.46973C323.011 7.46973 322.548 7.68555 322.218 8.11719C321.892 8.5446 321.729 9.16455 321.729 9.97705V10.1992C321.729 10.9906 321.892 11.5999 322.218 12.0273C322.544 12.4548 323.009 12.6685 323.614 12.6685ZM330.514 13.627C329.583 13.627 328.826 13.3223 328.242 12.7129C327.658 12.0993 327.366 11.2804 327.366 10.2563V10.0405C327.366 9.35921 327.495 8.75195 327.753 8.21875C328.015 7.68132 328.379 7.26237 328.845 6.96191C329.314 6.65723 329.822 6.50488 330.368 6.50488C331.261 6.50488 331.955 6.79899 332.45 7.38721C332.945 7.97542 333.193 8.81755 333.193 9.91357V10.4023H328.54C328.557 11.0794 328.754 11.6274 329.13 12.0464C329.511 12.4611 329.994 12.6685 330.578 12.6685C330.992 12.6685 331.344 12.5838 331.631 12.4146C331.919 12.2453 332.171 12.021 332.387 11.7417L333.104 12.3003C332.528 13.1847 331.665 13.627 330.514 13.627ZM330.368 7.46973C329.894 7.46973 329.496 7.64323 329.175 7.99023C328.853 8.33301 328.654 8.81543 328.578 9.4375H332.019V9.34863C331.985 8.75195 331.824 8.29069 331.536 7.96484C331.248 7.63477 330.859 7.46973 330.368 7.46973ZM338.557 11.6782C338.557 11.3608 338.436 11.1154 338.195 10.9419C337.958 10.7642 337.541 10.6118 336.944 10.4849C336.352 10.3579 335.88 10.2056 335.529 10.0278C335.182 9.8501 334.924 9.63851 334.754 9.39307C334.589 9.14762 334.507 8.85563 334.507 8.51709C334.507 7.95426 334.744 7.47819 335.218 7.08887C335.696 6.69954 336.305 6.50488 337.046 6.50488C337.825 6.50488 338.455 6.70589 338.938 7.10791C339.424 7.50993 339.667 8.02409 339.667 8.65039H338.487C338.487 8.32878 338.349 8.0516 338.074 7.81885C337.803 7.5861 337.461 7.46973 337.046 7.46973C336.618 7.46973 336.284 7.56283 336.043 7.74902C335.802 7.93522 335.681 8.17855 335.681 8.479C335.681 8.76253 335.793 8.97624 336.018 9.12012C336.242 9.264 336.646 9.40153 337.23 9.53271C337.818 9.6639 338.294 9.82048 338.658 10.0024C339.022 10.1844 339.291 10.4045 339.464 10.6626C339.642 10.9165 339.731 11.2275 339.731 11.5957C339.731 12.2093 339.486 12.7023 338.995 13.0747C338.504 13.4429 337.867 13.627 337.084 13.627C336.534 13.627 336.047 13.5296 335.624 13.335C335.201 13.1403 334.869 12.8695 334.627 12.5225C334.39 12.1712 334.272 11.7925 334.272 11.3862H335.446C335.467 11.7798 335.624 12.0929 335.916 12.3257C336.212 12.5542 336.602 12.6685 337.084 12.6685C337.528 12.6685 337.884 12.5796 338.15 12.4019C338.421 12.2199 338.557 11.9787 338.557 11.6782ZM345.26 11.6782C345.26 11.3608 345.139 11.1154 344.898 10.9419C344.661 10.7642 344.244 10.6118 343.647 10.4849C343.055 10.3579 342.583 10.2056 342.232 10.0278C341.885 9.8501 341.627 9.63851 341.458 9.39307C341.292 9.14762 341.21 8.85563 341.21 8.51709C341.21 7.95426 341.447 7.47819 341.921 7.08887C342.399 6.69954 343.008 6.50488 343.749 6.50488C344.528 6.50488 345.158 6.70589 345.641 7.10791C346.127 7.50993 346.371 8.02409 346.371 8.65039H345.19C345.19 8.32878 345.052 8.0516 344.777 7.81885C344.507 7.5861 344.164 7.46973 343.749 7.46973C343.322 7.46973 342.987 7.56283 342.746 7.74902C342.505 7.93522 342.384 8.17855 342.384 8.479C342.384 8.76253 342.496 8.97624 342.721 9.12012C342.945 9.264 343.349 9.40153 343.933 9.53271C344.521 9.6639 344.997 9.82048 345.361 10.0024C345.725 10.1844 345.994 10.4045 346.167 10.6626C346.345 10.9165 346.434 11.2275 346.434 11.5957C346.434 12.2093 346.189 12.7023 345.698 13.0747C345.207 13.4429 344.57 13.627 343.787 13.627C343.237 13.627 342.75 13.5296 342.327 13.335C341.904 13.1403 341.572 12.8695 341.331 12.5225C341.094 12.1712 340.975 11.7925 340.975 11.3862H342.149C342.171 11.7798 342.327 12.0929 342.619 12.3257C342.915 12.5542 343.305 12.6685 343.787 12.6685C344.231 12.6685 344.587 12.5796 344.854 12.4019C345.124 12.2199 345.26 11.9787 345.26 11.6782ZM349.24 13.5H348.065V6.63184H349.24V13.5ZM347.97 4.81006C347.97 4.61963 348.027 4.45882 348.142 4.32764C348.26 4.19645 348.434 4.13086 348.662 4.13086C348.891 4.13086 349.064 4.19645 349.183 4.32764C349.301 4.45882 349.36 4.61963 349.36 4.81006C349.36 5.00049 349.301 5.15918 349.183 5.28613C349.064 5.41309 348.891 5.47656 348.662 5.47656C348.434 5.47656 348.26 5.41309 348.142 5.28613C348.027 5.15918 347.97 5.00049 347.97 4.81006ZM352.236 6.63184L352.274 7.49512C352.799 6.83496 353.484 6.50488 354.331 6.50488C355.782 6.50488 356.514 7.32373 356.527 8.96143V13.5H355.353V8.95508C355.348 8.45996 355.234 8.09391 355.01 7.85693C354.79 7.61995 354.445 7.50146 353.975 7.50146C353.594 7.50146 353.26 7.60303 352.972 7.80615C352.684 8.00928 352.46 8.27588 352.299 8.60596V13.5H351.125V6.63184H352.236ZM358.019 10.0088C358.019 8.93815 358.266 8.08757 358.761 7.45703C359.256 6.82227 359.912 6.50488 360.729 6.50488C361.567 6.50488 362.221 6.80111 362.69 7.39355L362.748 6.63184H363.82V13.335C363.82 14.2236 363.556 14.924 363.027 15.436C362.502 15.9481 361.795 16.2041 360.907 16.2041C360.412 16.2041 359.927 16.0983 359.453 15.8867C358.979 15.6751 358.617 15.3853 358.368 15.0171L358.977 14.3125C359.481 14.9346 360.096 15.2456 360.824 15.2456C361.396 15.2456 361.84 15.0848 362.157 14.7632C362.479 14.4416 362.64 13.9888 362.64 13.4048V12.8145C362.17 13.3561 361.529 13.627 360.716 13.627C359.912 13.627 359.261 13.3032 358.761 12.6558C358.266 12.0083 358.019 11.126 358.019 10.0088ZM359.199 10.1421C359.199 10.9165 359.358 11.5259 359.675 11.9702C359.993 12.4103 360.437 12.6304 361.008 12.6304C361.749 12.6304 362.293 12.2939 362.64 11.6211V8.48535C362.28 7.82943 361.74 7.50146 361.021 7.50146C360.45 7.50146 360.003 7.72363 359.682 8.16797C359.36 8.6123 359.199 9.27035 359.199 10.1421ZM371.729 9.38037C370.684 9.07992 369.923 8.71175 369.444 8.27588C368.97 7.83577 368.733 7.29411 368.733 6.65088C368.733 5.92301 369.023 5.3221 369.603 4.84814C370.187 4.36995 370.944 4.13086 371.875 4.13086C372.51 4.13086 373.075 4.25358 373.57 4.49902C374.07 4.74447 374.455 5.08301 374.726 5.51465C375.001 5.94629 375.138 6.41813 375.138 6.93018H373.913C373.913 6.37158 373.735 5.93359 373.38 5.61621C373.024 5.2946 372.523 5.13379 371.875 5.13379C371.275 5.13379 370.805 5.26709 370.466 5.53369C370.132 5.79606 369.965 6.16211 369.965 6.63184C369.965 7.00846 370.124 7.32796 370.441 7.59033C370.763 7.84847 371.306 8.08545 372.072 8.30127C372.842 8.51709 373.443 8.75618 373.875 9.01855C374.311 9.27669 374.632 9.57926 374.84 9.92627C375.051 10.2733 375.157 10.6816 375.157 11.1514C375.157 11.9004 374.865 12.5013 374.281 12.9541C373.697 13.4027 372.917 13.627 371.939 13.627C371.304 13.627 370.712 13.5063 370.162 13.2651C369.611 13.0197 369.186 12.6854 368.886 12.2622C368.59 11.839 368.441 11.3587 368.441 10.8213H369.667C369.667 11.3799 369.872 11.8221 370.282 12.1479C370.697 12.4696 371.249 12.6304 371.939 12.6304C372.582 12.6304 373.075 12.4992 373.418 12.2368C373.761 11.9744 373.932 11.6169 373.932 11.1641C373.932 10.7113 373.773 10.3621 373.456 10.1167C373.139 9.86702 372.563 9.62158 371.729 9.38037ZM379.391 13.627C378.46 13.627 377.703 13.3223 377.119 12.7129C376.535 12.0993 376.243 11.2804 376.243 10.2563V10.0405C376.243 9.35921 376.372 8.75195 376.63 8.21875C376.892 7.68132 377.256 7.26237 377.722 6.96191C378.191 6.65723 378.699 6.50488 379.245 6.50488C380.138 6.50488 380.832 6.79899 381.327 7.38721C381.822 7.97542 382.07 8.81755 382.07 9.91357V10.4023H377.417C377.434 11.0794 377.631 11.6274 378.007 12.0464C378.388 12.4611 378.871 12.6685 379.455 12.6685C379.869 12.6685 380.221 12.5838 380.508 12.4146C380.796 12.2453 381.048 12.021 381.264 11.7417L381.981 12.3003C381.405 13.1847 380.542 13.627 379.391 13.627ZM379.245 7.46973C378.771 7.46973 378.373 7.64323 378.052 7.99023C377.73 8.33301 377.531 8.81543 377.455 9.4375H380.896V9.34863C380.862 8.75195 380.701 8.29069 380.413 7.96484C380.125 7.63477 379.736 7.46973 379.245 7.46973ZM386.754 7.68555C386.577 7.65592 386.384 7.64111 386.177 7.64111C385.407 7.64111 384.884 7.96908 384.609 8.625V13.5H383.435V6.63184H384.577L384.596 7.42529C384.981 6.81169 385.527 6.50488 386.234 6.50488C386.462 6.50488 386.636 6.53451 386.754 6.59375V7.68555ZM390.22 11.9067L391.921 6.63184H393.121L390.658 13.5H389.763L387.275 6.63184H388.475L390.22 11.9067ZM395.527 13.5H394.353V6.63184H395.527V13.5ZM394.257 4.81006C394.257 4.61963 394.314 4.45882 394.429 4.32764C394.547 4.19645 394.721 4.13086 394.949 4.13086C395.178 4.13086 395.351 4.19645 395.47 4.32764C395.588 4.45882 395.647 4.61963 395.647 4.81006C395.647 5.00049 395.588 5.15918 395.47 5.28613C395.351 5.41309 395.178 5.47656 394.949 5.47656C394.721 5.47656 394.547 5.41309 394.429 5.28613C394.314 5.15918 394.257 5.00049 394.257 4.81006ZM400.167 12.6685C400.586 12.6685 400.952 12.5415 401.265 12.2876C401.578 12.0337 401.752 11.7163 401.786 11.3354H402.896C402.875 11.729 402.74 12.1035 402.49 12.459C402.241 12.8145 401.906 13.098 401.487 13.3096C401.073 13.5212 400.632 13.627 400.167 13.627C399.232 13.627 398.487 13.3159 397.933 12.6938C397.382 12.0675 397.107 11.2127 397.107 10.1294V9.93262C397.107 9.264 397.23 8.66943 397.476 8.14893C397.721 7.62842 398.072 7.22428 398.529 6.93652C398.991 6.64876 399.534 6.50488 400.161 6.50488C400.931 6.50488 401.57 6.73551 402.078 7.19678C402.59 7.65804 402.863 8.25684 402.896 8.99316H401.786C401.752 8.54883 401.583 8.1849 401.278 7.90137C400.977 7.61361 400.605 7.46973 400.161 7.46973C399.564 7.46973 399.101 7.68555 398.771 8.11719C398.445 8.5446 398.282 9.16455 398.282 9.97705V10.1992C398.282 10.9906 398.445 11.5999 398.771 12.0273C399.096 12.4548 399.562 12.6685 400.167 12.6685ZM407.067 13.627C406.136 13.627 405.378 13.3223 404.794 12.7129C404.21 12.0993 403.918 11.2804 403.918 10.2563V10.0405C403.918 9.35921 404.048 8.75195 404.306 8.21875C404.568 7.68132 404.932 7.26237 405.397 6.96191C405.867 6.65723 406.375 6.50488 406.921 6.50488C407.814 6.50488 408.508 6.79899 409.003 7.38721C409.498 7.97542 409.746 8.81755 409.746 9.91357V10.4023H405.093C405.11 11.0794 405.306 11.6274 405.683 12.0464C406.064 12.4611 406.546 12.6685 407.13 12.6685C407.545 12.6685 407.896 12.5838 408.184 12.4146C408.472 12.2453 408.724 12.021 408.939 11.7417L409.657 12.3003C409.081 13.1847 408.218 13.627 407.067 13.627ZM406.921 7.46973C406.447 7.46973 406.049 7.64323 405.728 7.99023C405.406 8.33301 405.207 8.81543 405.131 9.4375H408.571V9.34863C408.537 8.75195 408.377 8.29069 408.089 7.96484C407.801 7.63477 407.412 7.46973 406.921 7.46973Z" fill="white" fill-opacity="0.64"/>
<path d="M421.988 12.9712C421.707 12.6791 421.707 12.2056 421.987 11.9131L424.778 8.99996L421.987 6.08678C421.707 5.79435 421.707 5.32082 421.988 5.02871C422.268 4.73669 422.722 4.73669 423.003 5.02871L426.306 8.46963C426.587 8.76252 426.587 9.23739 426.306 9.53029L423.003 12.9712C422.722 13.2632 422.268 13.2632 421.988 12.9712Z" fill="white" fill-opacity="0.64"/>
<path d="M439.545 12.2178H443.741V13.5H437.939V4.25781H439.545V12.2178ZM444.535 10.0024C444.535 9.32959 444.668 8.72445 444.935 8.18701C445.201 7.64535 445.576 7.23063 446.058 6.94287C446.541 6.65088 447.095 6.50488 447.721 6.50488C448.648 6.50488 449.399 6.80322 449.975 7.3999C450.554 7.99658 450.868 8.78792 450.914 9.77393L450.92 10.1357C450.92 10.8128 450.789 11.418 450.527 11.9512C450.269 12.4844 449.896 12.897 449.41 13.189C448.927 13.481 448.369 13.627 447.734 13.627C446.765 13.627 445.988 13.3053 445.404 12.6621C444.825 12.0146 444.535 11.1535 444.535 10.0786V10.0024ZM446.077 10.1357C446.077 10.8424 446.223 11.3968 446.515 11.7988C446.807 12.1966 447.213 12.3955 447.734 12.3955C448.254 12.3955 448.659 12.1924 448.946 11.7861C449.238 11.3799 449.384 10.7853 449.384 10.0024C449.384 9.30843 449.234 8.7583 448.934 8.35205C448.637 7.9458 448.233 7.74268 447.721 7.74268C447.218 7.74268 446.818 7.94368 446.521 8.3457C446.225 8.74349 446.077 9.34017 446.077 10.1357ZM451.955 10.0151C451.955 8.94873 452.205 8.09814 452.704 7.46338C453.208 6.82438 453.874 6.50488 454.704 6.50488C455.486 6.50488 456.102 6.77783 456.551 7.32373L456.621 6.63184H458.011V13.2905C458.011 14.1919 457.729 14.9028 457.167 15.4233C456.608 15.9438 455.853 16.2041 454.9 16.2041C454.397 16.2041 453.904 16.0983 453.421 15.8867C452.943 15.6794 452.579 15.4064 452.33 15.0679L453.06 14.1411C453.534 14.7039 454.118 14.9854 454.812 14.9854C455.324 14.9854 455.728 14.8457 456.024 14.5664C456.32 14.2913 456.468 13.8851 456.468 13.3477V12.8843C456.024 13.3794 455.431 13.627 454.691 13.627C453.887 13.627 453.229 13.3075 452.717 12.6685C452.209 12.0295 451.955 11.145 451.955 10.0151ZM453.491 10.1484C453.491 10.8382 453.631 11.382 453.91 11.7798C454.194 12.1733 454.585 12.3701 455.084 12.3701C455.707 12.3701 456.168 12.1035 456.468 11.5703V8.54883C456.176 8.02832 455.719 7.76807 455.097 7.76807C454.589 7.76807 454.194 7.96908 453.91 8.37109C453.631 8.77311 453.491 9.36556 453.491 10.1484ZM463.451 11.6338C463.451 11.3587 463.336 11.1493 463.108 11.0054C462.884 10.8615 462.509 10.7345 461.984 10.6245C461.46 10.5145 461.022 10.3748 460.67 10.2056C459.9 9.83317 459.515 9.29362 459.515 8.58691C459.515 7.99447 459.765 7.49935 460.264 7.10156C460.764 6.70378 461.398 6.50488 462.168 6.50488C462.989 6.50488 463.652 6.70801 464.155 7.11426C464.663 7.52051 464.917 8.04736 464.917 8.69482H463.375C463.375 8.3986 463.264 8.15316 463.044 7.9585C462.824 7.7596 462.532 7.66016 462.168 7.66016C461.83 7.66016 461.553 7.73844 461.337 7.89502C461.125 8.0516 461.02 8.26107 461.02 8.52344C461.02 8.76042 461.119 8.9445 461.318 9.07568C461.517 9.20687 461.919 9.34017 462.524 9.47559C463.129 9.60677 463.603 9.76546 463.946 9.95166C464.293 10.1336 464.549 10.3537 464.714 10.6118C464.883 10.87 464.968 11.1831 464.968 11.5513C464.968 12.1691 464.712 12.6706 464.2 13.0557C463.688 13.4365 463.017 13.627 462.188 13.627C461.625 13.627 461.123 13.5254 460.683 13.3223C460.243 13.1191 459.9 12.8398 459.655 12.4844C459.409 12.1289 459.287 11.7459 459.287 11.3354H460.785C460.806 11.6994 460.943 11.9808 461.197 12.1797C461.451 12.3743 461.788 12.4717 462.207 12.4717C462.613 12.4717 462.922 12.3955 463.133 12.2432C463.345 12.0866 463.451 11.8835 463.451 11.6338Z" fill="#CBADFF"/>
</svg>
