<svg width="272" height="18" viewBox="0 0 272 18" fill="none" xmlns="http://www.w3.org/2000/svg">
<path d="M8.18213 9.17725C8.18213 10.0828 8.02979 10.8742 7.7251 11.5513C7.42041 12.2241 6.98877 12.7383 6.43018 13.0938C5.87158 13.4492 5.21989 13.627 4.4751 13.627C3.74723 13.627 3.10189 13.4492 2.53906 13.0938C1.97624 12.734 1.53825 12.2241 1.2251 11.564C0.916178 10.8996 0.757487 10.1315 0.749023 9.25977V8.59326C0.749023 7.70459 0.903483 6.9196 1.2124 6.23828C1.52132 5.55697 1.95719 5.03646 2.52002 4.67676C3.08708 4.31283 3.73454 4.13086 4.4624 4.13086C5.20296 4.13086 5.85465 4.31071 6.41748 4.67041C6.98454 5.02588 7.42041 5.54427 7.7251 6.22559C8.02979 6.90267 8.18213 7.69189 8.18213 8.59326V9.17725ZM6.96973 8.58057C6.96973 7.48454 6.74967 6.64453 6.30957 6.06055C5.86947 5.47233 5.25374 5.17822 4.4624 5.17822C3.69222 5.17822 3.08496 5.47233 2.64062 6.06055C2.20052 6.64453 1.97412 7.45703 1.96143 8.49805V9.17725C1.96143 10.2394 2.18359 11.0752 2.62793 11.6846C3.0765 12.2897 3.69222 12.5923 4.4751 12.5923C5.26221 12.5923 5.87158 12.3066 6.30322 11.7354C6.73486 11.1598 6.95703 10.3368 6.96973 9.26611V8.58057ZM15.6406 10.1421C15.6406 11.1916 15.3994 12.0358 14.917 12.6748C14.4346 13.3096 13.7871 13.627 12.9746 13.627C12.1071 13.627 11.4364 13.3201 10.9624 12.7065L10.9053 13.5H9.82617V3.75H11.0005V7.38721C11.4744 6.79899 12.1283 6.50488 12.9619 6.50488C13.7956 6.50488 14.4494 6.82015 14.9233 7.45068C15.4015 8.08122 15.6406 8.9445 15.6406 10.0405V10.1421ZM14.4663 10.0088C14.4663 9.20898 14.3118 8.59115 14.0029 8.15527C13.694 7.7194 13.2497 7.50146 12.6699 7.50146C11.8955 7.50146 11.339 7.86117 11.0005 8.58057V11.5513C11.3602 12.2707 11.9209 12.6304 12.6826 12.6304C13.2454 12.6304 13.6834 12.4124 13.9966 11.9766C14.3097 11.5407 14.4663 10.8848 14.4663 10.0088ZM21.125 11.6782C21.125 11.3608 21.0044 11.1154 20.7632 10.9419C20.5262 10.7642 20.1094 10.6118 19.5127 10.4849C18.9202 10.3579 18.4484 10.2056 18.0972 10.0278C17.7502 9.8501 17.492 9.63851 17.3228 9.39307C17.1577 9.14762 17.0752 8.85563 17.0752 8.51709C17.0752 7.95426 17.3122 7.47819 17.7861 7.08887C18.2643 6.69954 18.8737 6.50488 19.6143 6.50488C20.3929 6.50488 21.0234 6.70589 21.5059 7.10791C21.9925 7.50993 22.2358 8.02409 22.2358 8.65039H21.0552C21.0552 8.32878 20.9176 8.0516 20.6426 7.81885C20.3717 7.5861 20.029 7.46973 19.6143 7.46973C19.1868 7.46973 18.8525 7.56283 18.6113 7.74902C18.3701 7.93522 18.2495 8.17855 18.2495 8.479C18.2495 8.76253 18.3617 8.97624 18.5859 9.12012C18.8102 9.264 19.2144 9.40153 19.7983 9.53271C20.3866 9.6639 20.8626 9.82048 21.2266 10.0024C21.5905 10.1844 21.8592 10.4045 22.0327 10.6626C22.2104 10.9165 22.2993 11.2275 22.2993 11.5957C22.2993 12.2093 22.0539 12.7023 21.563 13.0747C21.0721 13.4429 20.4352 13.627 19.6523 13.627C19.1022 13.627 18.6156 13.5296 18.1924 13.335C17.7692 13.1403 17.437 12.8695 17.1958 12.5225C16.9588 12.1712 16.8403 11.7925 16.8403 11.3862H18.0146C18.0358 11.7798 18.1924 12.0929 18.4844 12.3257C18.7806 12.5542 19.1699 12.6685 19.6523 12.6685C20.0967 12.6685 20.4521 12.5796 20.7188 12.4019C20.9896 12.2199 21.125 11.9787 21.125 11.6782ZM26.6792 13.627C25.7482 13.627 24.9907 13.3223 24.4067 12.7129C23.8228 12.0993 23.5308 11.2804 23.5308 10.2563V10.0405C23.5308 9.35921 23.6598 8.75195 23.918 8.21875C24.1803 7.68132 24.5443 7.26237 25.0098 6.96191C25.4795 6.65723 25.9873 6.50488 26.5332 6.50488C27.4261 6.50488 28.1201 6.79899 28.6152 7.38721C29.1104 7.97542 29.3579 8.81755 29.3579 9.91357V10.4023H24.7051C24.722 11.0794 24.9188 11.6274 25.2954 12.0464C25.6763 12.4611 26.1587 12.6685 26.7427 12.6685C27.1574 12.6685 27.5086 12.5838 27.7964 12.4146C28.0841 12.2453 28.3359 12.021 28.5518 11.7417L29.269 12.3003C28.6935 13.1847 27.8302 13.627 26.6792 13.627ZM26.5332 7.46973C26.0592 7.46973 25.6615 7.64323 25.3398 7.99023C25.0182 8.33301 24.8193 8.81543 24.7432 9.4375H28.1836V9.34863C28.1497 8.75195 27.9889 8.29069 27.7012 7.96484C27.4134 7.63477 27.0241 7.46973 26.5332 7.46973ZM34.0425 7.68555C33.8647 7.65592 33.6722 7.64111 33.4648 7.64111C32.6947 7.64111 32.172 7.96908 31.897 8.625V13.5H30.7227V6.63184H31.8652L31.8843 7.42529C32.2694 6.81169 32.8153 6.50488 33.522 6.50488C33.7505 6.50488 33.924 6.53451 34.0425 6.59375V7.68555ZM37.5083 11.9067L39.2095 6.63184H40.4092L37.9463 13.5H37.0513L34.563 6.63184H35.7627L37.5083 11.9067ZM44.3003 13.627C43.3693 13.627 42.6118 13.3223 42.0278 12.7129C41.4438 12.0993 41.1519 11.2804 41.1519 10.2563V10.0405C41.1519 9.35921 41.2809 8.75195 41.5391 8.21875C41.8014 7.68132 42.1654 7.26237 42.6309 6.96191C43.1006 6.65723 43.6084 6.50488 44.1543 6.50488C45.0472 6.50488 45.7412 6.79899 46.2363 7.38721C46.7314 7.97542 46.979 8.81755 46.979 9.91357V10.4023H42.3262C42.3431 11.0794 42.5399 11.6274 42.9165 12.0464C43.2974 12.4611 43.7798 12.6685 44.3638 12.6685C44.7785 12.6685 45.1297 12.5838 45.4175 12.4146C45.7052 12.2453 45.957 12.021 46.1729 11.7417L46.8901 12.3003C46.3146 13.1847 45.4513 13.627 44.3003 13.627ZM44.1543 7.46973C43.6803 7.46973 43.2826 7.64323 42.9609 7.99023C42.6393 8.33301 42.4404 8.81543 42.3643 9.4375H45.8047V9.34863C45.7708 8.75195 45.61 8.29069 45.3223 7.96484C45.0345 7.63477 44.6452 7.46973 44.1543 7.46973Z" fill="white" fill-opacity="0.64"/>
<path d="M58.3589 16.4985H58.3589C57.7958 16.4985 57.4087 15.9326 57.6128 15.4078L62.8112 2.04272C62.9309 1.73504 63.2272 1.53238 63.5573 1.53238H63.5573C64.1204 1.53238 64.5075 2.09832 64.3034 2.62311L59.105 15.9882C58.9853 16.2959 58.6891 16.4985 58.3589 16.4985Z" fill="white" fill-opacity="0.25"/>
<path d="M76.2915 9.88184V13.5H75.0728V4.25781H78.4814C79.4928 4.25781 80.2842 4.51595 80.8555 5.03223C81.431 5.5485 81.7188 6.23193 81.7188 7.08252C81.7188 7.97965 81.4373 8.67155 80.8745 9.1582C80.3159 9.64062 79.514 9.88184 78.4688 9.88184H76.2915ZM76.2915 8.88525H78.4814C79.1331 8.88525 79.6325 8.73291 79.9795 8.42822C80.3265 8.1193 80.5 7.67497 80.5 7.09521C80.5 6.54508 80.3265 6.10498 79.9795 5.7749C79.6325 5.44482 79.1564 5.27344 78.5513 5.26074H76.2915V8.88525ZM82.6899 10.0024C82.6899 9.32959 82.8211 8.72445 83.0835 8.18701C83.3501 7.64958 83.7183 7.23486 84.188 6.94287C84.6619 6.65088 85.2015 6.50488 85.8066 6.50488C86.7419 6.50488 87.4972 6.82861 88.0728 7.47607C88.6525 8.12354 88.9424 8.9847 88.9424 10.0596V10.1421C88.9424 10.8107 88.8133 11.4116 88.5552 11.9448C88.3013 12.4738 87.9352 12.8864 87.457 13.1826C86.9831 13.4788 86.4372 13.627 85.8193 13.627C84.8883 13.627 84.133 13.3032 83.5532 12.6558C82.9777 12.0083 82.6899 11.1514 82.6899 10.085V10.0024ZM83.8706 10.1421C83.8706 10.9038 84.0462 11.5153 84.3975 11.9766C84.7529 12.4378 85.2269 12.6685 85.8193 12.6685C86.416 12.6685 86.89 12.4357 87.2412 11.9702C87.5924 11.5005 87.7681 10.8446 87.7681 10.0024C87.7681 9.24919 87.5882 8.63981 87.2285 8.17432C86.873 7.70459 86.3991 7.46973 85.8066 7.46973C85.2269 7.46973 84.7593 7.70036 84.4038 8.16162C84.0483 8.62288 83.8706 9.28304 83.8706 10.1421ZM90.1294 10.0088C90.1294 8.95508 90.3791 8.10872 90.8784 7.46973C91.3778 6.8265 92.0316 6.50488 92.8398 6.50488C93.6439 6.50488 94.2808 6.77995 94.7505 7.33008V3.75H95.9248V13.5H94.8457L94.7886 12.7637C94.3188 13.3392 93.665 13.627 92.8271 13.627C92.0316 13.627 91.382 13.3011 90.8784 12.6494C90.3791 11.9977 90.1294 11.1471 90.1294 10.0977V10.0088ZM91.3037 10.1421C91.3037 10.9207 91.4645 11.5301 91.7861 11.9702C92.1077 12.4103 92.5521 12.6304 93.1191 12.6304C93.8639 12.6304 94.4077 12.2961 94.7505 11.6274V8.47266C94.3993 7.8252 93.8597 7.50146 93.1318 7.50146C92.5563 7.50146 92.1077 7.72363 91.7861 8.16797C91.4645 8.6123 91.3037 9.27035 91.3037 10.1421ZM101.752 11.6782C101.752 11.3608 101.631 11.1154 101.39 10.9419C101.153 10.7642 100.736 10.6118 100.14 10.4849C99.5472 10.3579 99.0754 10.2056 98.7241 10.0278C98.3771 9.8501 98.119 9.63851 97.9497 9.39307C97.7847 9.14762 97.7021 8.85563 97.7021 8.51709C97.7021 7.95426 97.9391 7.47819 98.4131 7.08887C98.8913 6.69954 99.5007 6.50488 100.241 6.50488C101.02 6.50488 101.65 6.70589 102.133 7.10791C102.619 7.50993 102.863 8.02409 102.863 8.65039H101.682C101.682 8.32878 101.545 8.0516 101.27 7.81885C100.999 7.5861 100.656 7.46973 100.241 7.46973C99.8138 7.46973 99.4795 7.56283 99.2383 7.74902C98.9971 7.93522 98.8765 8.17855 98.8765 8.479C98.8765 8.76253 98.9886 8.97624 99.2129 9.12012C99.4372 9.264 99.8413 9.40153 100.425 9.53271C101.014 9.6639 101.49 9.82048 101.854 10.0024C102.217 10.1844 102.486 10.4045 102.66 10.6626C102.837 10.9165 102.926 11.2275 102.926 11.5957C102.926 12.2093 102.681 12.7023 102.19 13.0747C101.699 13.4429 101.062 13.627 100.279 13.627C99.7292 13.627 99.2425 13.5296 98.8193 13.335C98.3962 13.1403 98.064 12.8695 97.8228 12.5225C97.5858 12.1712 97.4673 11.7925 97.4673 11.3862H98.6416C98.6628 11.7798 98.8193 12.0929 99.1113 12.3257C99.4076 12.5542 99.7969 12.6685 100.279 12.6685C100.724 12.6685 101.079 12.5796 101.346 12.4019C101.617 12.2199 101.752 11.9787 101.752 11.6782ZM107.636 9.74854C107.636 8.79215 107.763 7.87386 108.017 6.99365C108.275 6.11344 108.658 5.31364 109.166 4.59424C109.674 3.87484 110.201 3.36702 110.747 3.0708L110.988 3.84521C110.37 4.31917 109.862 5.04281 109.464 6.01611C109.071 6.98942 108.855 8.0791 108.817 9.28516L108.811 9.82471C108.811 11.4582 109.109 12.8758 109.706 14.0776C110.065 14.797 110.493 15.3599 110.988 15.7661L110.747 16.4834C110.184 16.1702 109.646 15.6455 109.134 14.9092C108.136 13.4704 107.636 11.7502 107.636 9.74854ZM114.879 12.6685C115.298 12.6685 115.664 12.5415 115.977 12.2876C116.29 12.0337 116.464 11.7163 116.498 11.3354H117.608C117.587 11.729 117.452 12.1035 117.202 12.459C116.952 12.8145 116.618 13.098 116.199 13.3096C115.785 13.5212 115.344 13.627 114.879 13.627C113.944 13.627 113.199 13.3159 112.645 12.6938C112.094 12.0675 111.819 11.2127 111.819 10.1294V9.93262C111.819 9.264 111.942 8.66943 112.188 8.14893C112.433 7.62842 112.784 7.22428 113.241 6.93652C113.702 6.64876 114.246 6.50488 114.873 6.50488C115.643 6.50488 116.282 6.73551 116.79 7.19678C117.302 7.65804 117.575 8.25684 117.608 8.99316H116.498C116.464 8.54883 116.294 8.1849 115.99 7.90137C115.689 7.61361 115.317 7.46973 114.873 7.46973C114.276 7.46973 113.812 7.68555 113.482 8.11719C113.157 8.5446 112.994 9.16455 112.994 9.97705V10.1992C112.994 10.9906 113.157 11.5999 113.482 12.0273C113.808 12.4548 114.274 12.6685 114.879 12.6685ZM122.249 7.68555C122.071 7.65592 121.878 7.64111 121.671 7.64111C120.901 7.64111 120.378 7.96908 120.103 8.625V13.5H118.929V6.63184H120.071L120.09 7.42529C120.475 6.81169 121.021 6.50488 121.728 6.50488C121.957 6.50488 122.13 6.53451 122.249 6.59375V7.68555ZM124.61 13.5H123.436V6.63184H124.61V13.5ZM123.34 4.81006C123.34 4.61963 123.397 4.45882 123.512 4.32764C123.63 4.19645 123.804 4.13086 124.032 4.13086C124.261 4.13086 124.434 4.19645 124.553 4.32764C124.671 4.45882 124.73 4.61963 124.73 4.81006C124.73 5.00049 124.671 5.15918 124.553 5.28613C124.434 5.41309 124.261 5.47656 124.032 5.47656C123.804 5.47656 123.63 5.41309 123.512 5.28613C123.397 5.15918 123.34 5.00049 123.34 4.81006ZM128.088 4.96875V6.63184H129.371V7.53955H128.088V11.7988C128.088 12.0739 128.146 12.2812 128.26 12.4209C128.374 12.5563 128.569 12.624 128.844 12.624C128.979 12.624 129.165 12.5986 129.402 12.5479V13.5C129.093 13.5846 128.793 13.627 128.501 13.627C127.976 13.627 127.581 13.4683 127.314 13.1509C127.047 12.8335 126.914 12.3828 126.914 11.7988V7.53955H125.664V6.63184H126.914V4.96875H128.088ZM132.024 13.5H130.85V6.63184H132.024V13.5ZM130.754 4.81006C130.754 4.61963 130.812 4.45882 130.926 4.32764C131.044 4.19645 131.218 4.13086 131.446 4.13086C131.675 4.13086 131.848 4.19645 131.967 4.32764C132.085 4.45882 132.145 4.61963 132.145 4.81006C132.145 5.00049 132.085 5.15918 131.967 5.28613C131.848 5.41309 131.675 5.47656 131.446 5.47656C131.218 5.47656 131.044 5.41309 130.926 5.28613C130.812 5.15918 130.754 5.00049 130.754 4.81006ZM136.664 12.6685C137.083 12.6685 137.449 12.5415 137.762 12.2876C138.075 12.0337 138.249 11.7163 138.283 11.3354H139.394C139.372 11.729 139.237 12.1035 138.987 12.459C138.738 12.8145 138.403 13.098 137.984 13.3096C137.57 13.5212 137.13 13.627 136.664 13.627C135.729 13.627 134.984 13.3159 134.43 12.6938C133.88 12.0675 133.604 11.2127 133.604 10.1294V9.93262C133.604 9.264 133.727 8.66943 133.973 8.14893C134.218 7.62842 134.569 7.22428 135.026 6.93652C135.488 6.64876 136.031 6.50488 136.658 6.50488C137.428 6.50488 138.067 6.73551 138.575 7.19678C139.087 7.65804 139.36 8.25684 139.394 8.99316H138.283C138.249 8.54883 138.08 8.1849 137.775 7.90137C137.474 7.61361 137.102 7.46973 136.658 7.46973C136.061 7.46973 135.598 7.68555 135.268 8.11719C134.942 8.5446 134.779 9.16455 134.779 9.97705V10.1992C134.779 10.9906 134.942 11.5999 135.268 12.0273C135.593 12.4548 136.059 12.6685 136.664 12.6685ZM144.954 13.5C144.886 13.3646 144.831 13.1234 144.789 12.7764C144.243 13.3434 143.591 13.627 142.834 13.627C142.157 13.627 141.6 13.4365 141.165 13.0557C140.733 12.6706 140.517 12.1839 140.517 11.5957C140.517 10.8805 140.788 10.3262 141.33 9.93262C141.875 9.53483 142.641 9.33594 143.627 9.33594H144.77V8.79639C144.77 8.3859 144.647 8.06006 144.402 7.81885C144.156 7.5734 143.795 7.45068 143.316 7.45068C142.897 7.45068 142.546 7.55648 142.263 7.76807C141.979 7.97965 141.837 8.23568 141.837 8.53613H140.657C140.657 8.19336 140.777 7.86328 141.019 7.5459C141.264 7.22428 141.594 6.97038 142.009 6.78418C142.428 6.59798 142.887 6.50488 143.386 6.50488C144.178 6.50488 144.798 6.70378 145.246 7.10156C145.695 7.49512 145.927 8.0389 145.944 8.73291V11.894C145.944 12.5246 146.025 13.026 146.186 13.3984V13.5H144.954ZM143.005 12.605C143.374 12.605 143.723 12.5098 144.053 12.3193C144.383 12.1289 144.622 11.8813 144.77 11.5767V10.1675H143.85C142.411 10.1675 141.691 10.5885 141.691 11.4307C141.691 11.7988 141.814 12.0866 142.06 12.2939C142.305 12.5013 142.62 12.605 143.005 12.605ZM149.061 13.5H147.887V3.75H149.061V13.5ZM153.657 9.81201C153.657 10.7557 153.532 11.6613 153.282 12.5288C153.037 13.3921 152.658 14.1898 152.146 14.9219C151.638 15.654 151.105 16.1745 150.546 16.4834L150.299 15.7661C150.951 15.2668 151.473 14.4924 151.867 13.4429C152.264 12.3892 152.468 11.2212 152.476 9.93896V9.73584C152.476 8.84717 152.383 8.02197 152.197 7.26025C152.011 6.4943 151.75 5.80876 151.416 5.20361C151.086 4.59847 150.714 4.12663 150.299 3.78809L150.546 3.0708C151.105 3.37972 151.636 3.896 152.14 4.61963C152.647 5.34326 153.026 6.14095 153.276 7.0127C153.53 7.88444 153.657 8.81755 153.657 9.81201Z" fill="white" fill-opacity="0.64"/>
<path d="M165.359 16.4985H165.359C164.796 16.4985 164.409 15.9326 164.613 15.4078L169.811 2.04272C169.931 1.73504 170.227 1.53238 170.557 1.53238H170.557C171.12 1.53238 171.508 2.09832 171.303 2.62311L166.105 15.9882C165.985 16.2959 165.689 16.4985 165.359 16.4985Z" fill="white" fill-opacity="0.25"/>
<path d="M188.896 12.2876C188.583 12.7362 188.145 13.0726 187.583 13.2969C187.024 13.5169 186.372 13.627 185.627 13.627C184.874 13.627 184.206 13.4513 183.622 13.1001C183.038 12.7446 182.585 12.241 182.263 11.5894C181.946 10.9377 181.783 10.1823 181.774 9.32324V8.51709C181.774 7.12484 182.098 6.04574 182.746 5.27979C183.397 4.51383 184.311 4.13086 185.488 4.13086C186.453 4.13086 187.229 4.37842 187.817 4.87354C188.406 5.36442 188.765 6.06266 188.896 6.96826H187.678C187.449 5.74528 186.721 5.13379 185.494 5.13379C184.677 5.13379 184.057 5.42155 183.634 5.99707C183.215 6.56836 183.004 7.39779 183 8.48535V9.24072C183 10.2775 183.236 11.1027 183.71 11.7163C184.184 12.3257 184.826 12.6304 185.634 12.6304C186.091 12.6304 186.491 12.5796 186.833 12.478C187.176 12.3765 187.46 12.2051 187.684 11.9639V9.88818H185.545V8.89795H188.896V12.2876ZM193.6 13.627C192.669 13.627 191.912 13.3223 191.328 12.7129C190.744 12.0993 190.452 11.2804 190.452 10.2563V10.0405C190.452 9.35921 190.581 8.75195 190.839 8.21875C191.101 7.68132 191.465 7.26237 191.931 6.96191C192.4 6.65723 192.908 6.50488 193.454 6.50488C194.347 6.50488 195.041 6.79899 195.536 7.38721C196.031 7.97542 196.279 8.81755 196.279 9.91357V10.4023H191.626C191.643 11.0794 191.84 11.6274 192.216 12.0464C192.597 12.4611 193.08 12.6685 193.664 12.6685C194.078 12.6685 194.43 12.5838 194.717 12.4146C195.005 12.2453 195.257 12.021 195.473 11.7417L196.19 12.3003C195.614 13.1847 194.751 13.627 193.6 13.627ZM193.454 7.46973C192.98 7.46973 192.582 7.64323 192.261 7.99023C191.939 8.33301 191.74 8.81543 191.664 9.4375H195.104V9.34863C195.071 8.75195 194.91 8.29069 194.622 7.96484C194.334 7.63477 193.945 7.46973 193.454 7.46973ZM198.754 6.63184L198.792 7.49512C199.317 6.83496 200.003 6.50488 200.849 6.50488C202.301 6.50488 203.033 7.32373 203.045 8.96143V13.5H201.871V8.95508C201.867 8.45996 201.753 8.09391 201.528 7.85693C201.308 7.61995 200.963 7.50146 200.494 7.50146C200.113 7.50146 199.778 7.60303 199.491 7.80615C199.203 8.00928 198.979 8.27588 198.818 8.60596V13.5H197.644V6.63184H198.754ZM207.667 13.627C206.736 13.627 205.978 13.3223 205.394 12.7129C204.81 12.0993 204.518 11.2804 204.518 10.2563V10.0405C204.518 9.35921 204.647 8.75195 204.905 8.21875C205.168 7.68132 205.532 7.26237 205.997 6.96191C206.467 6.65723 206.975 6.50488 207.521 6.50488C208.413 6.50488 209.107 6.79899 209.603 7.38721C210.098 7.97542 210.345 8.81755 210.345 9.91357V10.4023H205.692C205.709 11.0794 205.906 11.6274 206.283 12.0464C206.664 12.4611 207.146 12.6685 207.73 12.6685C208.145 12.6685 208.496 12.5838 208.784 12.4146C209.071 12.2453 209.323 12.021 209.539 11.7417L210.256 12.3003C209.681 13.1847 208.818 13.627 207.667 13.627ZM207.521 7.46973C207.047 7.46973 206.649 7.64323 206.327 7.99023C206.006 8.33301 205.807 8.81543 205.73 9.4375H209.171V9.34863C209.137 8.75195 208.976 8.29069 208.688 7.96484C208.401 7.63477 208.011 7.46973 207.521 7.46973ZM215.03 7.68555C214.852 7.65592 214.66 7.64111 214.452 7.64111C213.682 7.64111 213.159 7.96908 212.884 8.625V13.5H211.71V6.63184H212.853L212.872 7.42529C213.257 6.81169 213.803 6.50488 214.509 6.50488C214.738 6.50488 214.911 6.53451 215.03 6.59375V7.68555ZM220.102 13.5C220.034 13.3646 219.979 13.1234 219.937 12.7764C219.391 13.3434 218.739 13.627 217.981 13.627C217.304 13.627 216.748 13.4365 216.312 13.0557C215.88 12.6706 215.665 12.1839 215.665 11.5957C215.665 10.8805 215.935 10.3262 216.477 9.93262C217.023 9.53483 217.789 9.33594 218.775 9.33594H219.917V8.79639C219.917 8.3859 219.795 8.06006 219.549 7.81885C219.304 7.5734 218.942 7.45068 218.464 7.45068C218.045 7.45068 217.694 7.55648 217.41 7.76807C217.127 7.97965 216.985 8.23568 216.985 8.53613H215.804C215.804 8.19336 215.925 7.86328 216.166 7.5459C216.411 7.22428 216.742 6.97038 217.156 6.78418C217.575 6.59798 218.034 6.50488 218.534 6.50488C219.325 6.50488 219.945 6.70378 220.394 7.10156C220.842 7.49512 221.075 8.0389 221.092 8.73291V11.894C221.092 12.5246 221.172 13.026 221.333 13.3984V13.5H220.102ZM218.153 12.605C218.521 12.605 218.87 12.5098 219.2 12.3193C219.53 12.1289 219.769 11.8813 219.917 11.5767V10.1675H218.997C217.558 10.1675 216.839 10.5885 216.839 11.4307C216.839 11.7988 216.962 12.0866 217.207 12.2939C217.452 12.5013 217.768 12.605 218.153 12.605ZM224.526 4.96875V6.63184H225.808V7.53955H224.526V11.7988C224.526 12.0739 224.583 12.2812 224.697 12.4209C224.812 12.5563 225.006 12.624 225.281 12.624C225.417 12.624 225.603 12.5986 225.84 12.5479V13.5C225.531 13.5846 225.23 13.627 224.938 13.627C224.414 13.627 224.018 13.4683 223.751 13.1509C223.485 12.8335 223.352 12.3828 223.352 11.7988V7.53955H222.101V6.63184H223.352V4.96875H224.526ZM230.036 13.627C229.105 13.627 228.347 13.3223 227.763 12.7129C227.179 12.0993 226.887 11.2804 226.887 10.2563V10.0405C226.887 9.35921 227.016 8.75195 227.274 8.21875C227.537 7.68132 227.901 7.26237 228.366 6.96191C228.836 6.65723 229.344 6.50488 229.89 6.50488C230.783 6.50488 231.477 6.79899 231.972 7.38721C232.467 7.97542 232.714 8.81755 232.714 9.91357V10.4023H228.062C228.078 11.0794 228.275 11.6274 228.652 12.0464C229.033 12.4611 229.515 12.6685 230.099 12.6685C230.514 12.6685 230.865 12.5838 231.153 12.4146C231.441 12.2453 231.692 12.021 231.908 11.7417L232.625 12.3003C232.05 13.1847 231.187 13.627 230.036 13.627ZM229.89 7.46973C229.416 7.46973 229.018 7.64323 228.696 7.99023C228.375 8.33301 228.176 8.81543 228.1 9.4375H231.54V9.34863C231.506 8.75195 231.345 8.29069 231.058 7.96484C230.77 7.63477 230.381 7.46973 229.89 7.46973ZM238.707 9.88184V13.5H237.488V4.25781H240.896C241.908 4.25781 242.699 4.51595 243.271 5.03223C243.846 5.5485 244.134 6.23193 244.134 7.08252C244.134 7.97965 243.852 8.67155 243.29 9.1582C242.731 9.64062 241.929 9.88184 240.884 9.88184H238.707ZM238.707 8.88525H240.896C241.548 8.88525 242.048 8.73291 242.395 8.42822C242.742 8.1193 242.915 7.67497 242.915 7.09521C242.915 6.54508 242.742 6.10498 242.395 5.7749C242.048 5.44482 241.571 5.27344 240.966 5.26074H238.707V8.88525ZM245.105 10.0024C245.105 9.32959 245.236 8.72445 245.499 8.18701C245.765 7.64958 246.133 7.23486 246.603 6.94287C247.077 6.65088 247.617 6.50488 248.222 6.50488C249.157 6.50488 249.912 6.82861 250.488 7.47607C251.068 8.12354 251.357 8.9847 251.357 10.0596V10.1421C251.357 10.8107 251.228 11.4116 250.97 11.9448C250.716 12.4738 250.35 12.8864 249.872 13.1826C249.398 13.4788 248.852 13.627 248.234 13.627C247.303 13.627 246.548 13.3032 245.968 12.6558C245.393 12.0083 245.105 11.1514 245.105 10.085V10.0024ZM246.286 10.1421C246.286 10.9038 246.461 11.5153 246.812 11.9766C247.168 12.4378 247.642 12.6685 248.234 12.6685C248.831 12.6685 249.305 12.4357 249.656 11.9702C250.007 11.5005 250.183 10.8446 250.183 10.0024C250.183 9.24919 250.003 8.63981 249.644 8.17432C249.288 7.70459 248.814 7.46973 248.222 7.46973C247.642 7.46973 247.174 7.70036 246.819 8.16162C246.463 8.62288 246.286 9.28304 246.286 10.1421ZM254.106 13.5H252.932V3.75H254.106V13.5ZM257.267 13.5H256.093V6.63184H257.267V13.5ZM255.998 4.81006C255.998 4.61963 256.055 4.45882 256.169 4.32764C256.287 4.19645 256.461 4.13086 256.689 4.13086C256.918 4.13086 257.091 4.19645 257.21 4.32764C257.328 4.45882 257.388 4.61963 257.388 4.81006C257.388 5.00049 257.328 5.15918 257.21 5.28613C257.091 5.41309 256.918 5.47656 256.689 5.47656C256.461 5.47656 256.287 5.41309 256.169 5.28613C256.055 5.15918 255.998 5.00049 255.998 4.81006ZM261.907 12.6685C262.326 12.6685 262.692 12.5415 263.005 12.2876C263.319 12.0337 263.492 11.7163 263.526 11.3354H264.637C264.616 11.729 264.48 12.1035 264.23 12.459C263.981 12.8145 263.646 13.098 263.228 13.3096C262.813 13.5212 262.373 13.627 261.907 13.627C260.972 13.627 260.227 13.3159 259.673 12.6938C259.123 12.0675 258.848 11.2127 258.848 10.1294V9.93262C258.848 9.264 258.97 8.66943 259.216 8.14893C259.461 7.62842 259.812 7.22428 260.27 6.93652C260.731 6.64876 261.275 6.50488 261.901 6.50488C262.671 6.50488 263.31 6.73551 263.818 7.19678C264.33 7.65804 264.603 8.25684 264.637 8.99316H263.526C263.492 8.54883 263.323 8.1849 263.018 7.90137C262.718 7.61361 262.345 7.46973 261.901 7.46973C261.304 7.46973 260.841 7.68555 260.511 8.11719C260.185 8.5446 260.022 9.16455 260.022 9.97705V10.1992C260.022 10.9906 260.185 11.5999 260.511 12.0273C260.837 12.4548 261.302 12.6685 261.907 12.6685ZM268.204 11.7798L269.804 6.63184H271.061L268.299 14.5601C267.872 15.7026 267.193 16.2739 266.262 16.2739L266.04 16.2549L265.602 16.1724V15.2202L265.919 15.2456C266.317 15.2456 266.626 15.1652 266.846 15.0044C267.07 14.8436 267.254 14.5495 267.398 14.1221L267.658 13.4238L265.208 6.63184H266.49L268.204 11.7798Z" fill="#BCA3FF"/>
</svg>
