<svg width="391" height="30" viewBox="0 0 391 30" fill="none" xmlns="http://www.w3.org/2000/svg">
<path d="M0 3C0 1.34315 1.34315 0 3 0H388C389.657 0 391 1.34315 391 3V27C391 28.6569 389.657 30 388 30H2.99999C1.34314 30 0 28.6569 0 27V3Z" fill="white" fill-opacity="0.06"/>
<path d="M18.1699 15.9185H14.2915V20H13.0728V10.7578H18.7983V11.7607H14.2915V14.9219H18.1699V15.9185ZM21.3501 20H20.1758V13.1318H21.3501V20ZM20.0806 11.3101C20.0806 11.1196 20.1377 10.9588 20.252 10.8276C20.3704 10.6965 20.5439 10.6309 20.7725 10.6309C21.001 10.6309 21.1745 10.6965 21.293 10.8276C21.4115 10.9588 21.4707 11.1196 21.4707 11.3101C21.4707 11.5005 21.4115 11.6592 21.293 11.7861C21.1745 11.9131 21.001 11.9766 20.7725 11.9766C20.5439 11.9766 20.3704 11.9131 20.252 11.7861C20.1377 11.6592 20.0806 11.5005 20.0806 11.3101ZM24.3462 13.1318L24.3843 13.9951C24.909 13.335 25.5946 13.0049 26.4409 13.0049C27.8924 13.0049 28.6245 13.8237 28.6372 15.4614V20H27.4629V15.4551C27.4587 14.96 27.3444 14.5939 27.1201 14.3569C26.9001 14.12 26.5552 14.0015 26.0854 14.0015C25.7046 14.0015 25.3703 14.103 25.0825 14.3062C24.7948 14.5093 24.5705 14.7759 24.4097 15.106V20H23.2354V13.1318H24.3462ZM30.1226 16.5088C30.1226 15.4551 30.3722 14.6087 30.8716 13.9697C31.3709 13.3265 32.0247 13.0049 32.833 13.0049C33.637 13.0049 34.2739 13.2799 34.7437 13.8301V10.25H35.918V20H34.8389L34.7817 19.2637C34.312 19.8392 33.6582 20.127 32.8203 20.127C32.0247 20.127 31.3752 19.8011 30.8716 19.1494C30.3722 18.4977 30.1226 17.6471 30.1226 16.5977V16.5088ZM31.2969 16.6421C31.2969 17.4207 31.4577 18.0301 31.7793 18.4702C32.1009 18.9103 32.5452 19.1304 33.1123 19.1304C33.8571 19.1304 34.4009 18.7961 34.7437 18.1274V14.9727C34.3924 14.3252 33.8529 14.0015 33.125 14.0015C32.5495 14.0015 32.1009 14.2236 31.7793 14.668C31.4577 15.1123 31.2969 15.7703 31.2969 16.6421ZM42.3799 19.0034H46.7598V20H41.1548V10.7578H42.3799V19.0034ZM47.6548 16.5024C47.6548 15.8296 47.786 15.2244 48.0483 14.687C48.3149 14.1496 48.6831 13.7349 49.1528 13.4429C49.6268 13.1509 50.1663 13.0049 50.7715 13.0049C51.7067 13.0049 52.4621 13.3286 53.0376 13.9761C53.6174 14.6235 53.9072 15.4847 53.9072 16.5596V16.6421C53.9072 17.3107 53.7782 17.9116 53.52 18.4448C53.2661 18.9738 52.9001 19.3864 52.4219 19.6826C51.9479 19.9788 51.402 20.127 50.7842 20.127C49.8532 20.127 49.0978 19.8032 48.5181 19.1558C47.9425 18.5083 47.6548 17.6514 47.6548 16.585V16.5024ZM48.8354 16.6421C48.8354 17.4038 49.0111 18.0153 49.3623 18.4766C49.7178 18.9378 50.1917 19.1685 50.7842 19.1685C51.3809 19.1685 51.8548 18.9357 52.2061 18.4702C52.5573 18.0005 52.7329 17.3446 52.7329 16.5024C52.7329 15.7492 52.5531 15.1398 52.1934 14.6743C51.8379 14.2046 51.3639 13.9697 50.7715 13.9697C50.1917 13.9697 49.7241 14.2004 49.3687 14.6616C49.0132 15.1229 48.8354 15.783 48.8354 16.6421ZM55.1006 16.5088C55.1006 15.4382 55.3481 14.5876 55.8433 13.957C56.3384 13.3223 56.9943 13.0049 57.811 13.0049C58.6489 13.0049 59.3027 13.3011 59.7725 13.8936L59.8296 13.1318H60.9023V19.835C60.9023 20.7236 60.6379 21.424 60.1089 21.936C59.5841 22.4481 58.8774 22.7041 57.9888 22.7041C57.4937 22.7041 57.0091 22.5983 56.5352 22.3867C56.0612 22.1751 55.6994 21.8853 55.4497 21.5171L56.0591 20.8125C56.5627 21.4346 57.1784 21.7456 57.9062 21.7456C58.4775 21.7456 58.9219 21.5848 59.2393 21.2632C59.5609 20.9416 59.7217 20.4888 59.7217 19.9048V19.3145C59.252 19.8561 58.6108 20.127 57.7983 20.127C56.9943 20.127 56.3426 19.8032 55.8433 19.1558C55.3481 18.5083 55.1006 17.626 55.1006 16.5088ZM56.2812 16.6421C56.2812 17.4165 56.4399 18.0259 56.7573 18.4702C57.0747 18.9103 57.519 19.1304 58.0903 19.1304C58.8309 19.1304 59.3747 18.7939 59.7217 18.1211V14.9854C59.362 14.3294 58.8224 14.0015 58.103 14.0015C57.5317 14.0015 57.0853 14.2236 56.7637 14.668C56.4421 15.1123 56.2812 15.7703 56.2812 16.6421ZM66.6787 18.1782C66.6787 17.8608 66.5581 17.6154 66.3169 17.4419C66.0799 17.2642 65.6631 17.1118 65.0664 16.9849C64.474 16.8579 64.0021 16.7056 63.6509 16.5278C63.3039 16.3501 63.0457 16.1385 62.8765 15.8931C62.7114 15.6476 62.6289 15.3556 62.6289 15.0171C62.6289 14.4543 62.8659 13.9782 63.3398 13.5889C63.818 13.1995 64.4274 13.0049 65.168 13.0049C65.9466 13.0049 66.5771 13.2059 67.0596 13.6079C67.5462 14.0099 67.7896 14.5241 67.7896 15.1504H66.6089C66.6089 14.8288 66.4714 14.5516 66.1963 14.3188C65.9255 14.0861 65.5827 13.9697 65.168 13.9697C64.7406 13.9697 64.4062 14.0628 64.165 14.249C63.9238 14.4352 63.8032 14.6785 63.8032 14.979C63.8032 15.2625 63.9154 15.4762 64.1396 15.6201C64.3639 15.764 64.7681 15.9015 65.3521 16.0327C65.9403 16.1639 66.4163 16.3205 66.7803 16.5024C67.1442 16.6844 67.4129 16.9045 67.5864 17.1626C67.7642 17.4165 67.853 17.7275 67.853 18.0957C67.853 18.7093 67.6076 19.2023 67.1167 19.5747C66.6258 19.9429 65.9889 20.127 65.2061 20.127C64.6559 20.127 64.1693 20.0296 63.7461 19.835C63.3229 19.6403 62.9907 19.3695 62.7495 19.0225C62.5125 18.6712 62.394 18.2925 62.394 17.8862H63.5684C63.5895 18.2798 63.7461 18.5929 64.0381 18.8257C64.3343 19.0542 64.7236 19.1685 65.2061 19.1685C65.6504 19.1685 66.0059 19.0796 66.2725 18.9019C66.5433 18.7199 66.6787 18.4787 66.6787 18.1782ZM73.8833 20H72.709V13.1318H73.8833V20ZM72.6138 11.3101C72.6138 11.1196 72.6709 10.9588 72.7852 10.8276C72.9036 10.6965 73.0771 10.6309 73.3057 10.6309C73.5342 10.6309 73.7077 10.6965 73.8262 10.8276C73.9447 10.9588 74.0039 11.1196 74.0039 11.3101C74.0039 11.5005 73.9447 11.6592 73.8262 11.7861C73.7077 11.9131 73.5342 11.9766 73.3057 11.9766C73.0771 11.9766 72.9036 11.9131 72.7852 11.7861C72.6709 11.6592 72.6138 11.5005 72.6138 11.3101ZM76.8794 13.1318L76.9175 13.9951C77.4422 13.335 78.1278 13.0049 78.9741 13.0049C80.4256 13.0049 81.1577 13.8237 81.1704 15.4614V20H79.9961V15.4551C79.9919 14.96 79.8776 14.5939 79.6533 14.3569C79.4333 14.12 79.0884 14.0015 78.6187 14.0015C78.2378 14.0015 77.9035 14.103 77.6157 14.3062C77.328 14.5093 77.1037 14.7759 76.9429 15.106V20H75.7686V13.1318H76.8794ZM87.5688 16.3818V20H86.3501V10.7578H89.7588C90.7702 10.7578 91.5615 11.016 92.1328 11.5322C92.7083 12.0485 92.9961 12.7319 92.9961 13.5825C92.9961 14.4797 92.7147 15.1715 92.1519 15.6582C91.5933 16.1406 90.7913 16.3818 89.7461 16.3818H87.5688ZM87.5688 15.3853H89.7588C90.4105 15.3853 90.9098 15.2329 91.2568 14.9282C91.6038 14.6193 91.7773 14.175 91.7773 13.5952C91.7773 13.0451 91.6038 12.605 91.2568 12.2749C90.9098 11.9448 90.4338 11.7734 89.8286 11.7607H87.5688V15.3853ZM98.5312 20C98.4635 19.8646 98.4085 19.6234 98.3662 19.2764C97.8203 19.8434 97.1686 20.127 96.4111 20.127C95.734 20.127 95.1776 19.9365 94.7417 19.5557C94.3101 19.1706 94.0942 18.6839 94.0942 18.0957C94.0942 17.3805 94.3651 16.8262 94.9067 16.4326C95.4526 16.0348 96.2186 15.8359 97.2046 15.8359H98.3472V15.2964C98.3472 14.8859 98.2244 14.5601 97.979 14.3188C97.7336 14.0734 97.3717 13.9507 96.8936 13.9507C96.4746 13.9507 96.1234 14.0565 95.8398 14.2681C95.5563 14.4797 95.4146 14.7357 95.4146 15.0361H94.2339C94.2339 14.6934 94.3545 14.3633 94.5957 14.0459C94.8411 13.7243 95.1712 13.4704 95.5859 13.2842C96.0049 13.098 96.464 13.0049 96.9634 13.0049C97.7547 13.0049 98.3747 13.2038 98.8232 13.6016C99.2718 13.9951 99.5046 14.5389 99.5215 15.2329V18.394C99.5215 19.0246 99.6019 19.526 99.7627 19.8984V20H98.5312ZM96.5825 19.105C96.9507 19.105 97.2998 19.0098 97.6299 18.8193C97.96 18.6289 98.1991 18.3813 98.3472 18.0767V16.6675H97.4268C95.988 16.6675 95.2686 17.0885 95.2686 17.9307C95.2686 18.2988 95.3913 18.5866 95.6367 18.7939C95.8822 19.0013 96.1974 19.105 96.5825 19.105ZM102.956 11.4688V13.1318H104.238V14.0396H102.956V18.2988C102.956 18.5739 103.013 18.7812 103.127 18.9209C103.241 19.0563 103.436 19.124 103.711 19.124C103.846 19.124 104.033 19.0986 104.27 19.0479V20C103.961 20.0846 103.66 20.127 103.368 20.127C102.843 20.127 102.448 19.9683 102.181 19.6509C101.915 19.3335 101.781 18.8828 101.781 18.2988V14.0396H100.531V13.1318H101.781V11.4688H102.956ZM107.208 11.4688V13.1318H108.491V14.0396H107.208V18.2988C107.208 18.5739 107.266 18.7812 107.38 18.9209C107.494 19.0563 107.689 19.124 107.964 19.124C108.099 19.124 108.285 19.0986 108.522 19.0479V20C108.214 20.0846 107.913 20.127 107.621 20.127C107.096 20.127 106.701 19.9683 106.434 19.6509C106.167 19.3335 106.034 18.8828 106.034 18.2988V14.0396H104.784V13.1318H106.034V11.4688H107.208ZM112.718 20.127C111.787 20.127 111.03 19.8223 110.446 19.2129C109.862 18.5993 109.57 17.7804 109.57 16.7563V16.5405C109.57 15.8592 109.699 15.252 109.957 14.7188C110.219 14.1813 110.583 13.7624 111.049 13.4619C111.519 13.1572 112.026 13.0049 112.572 13.0049C113.465 13.0049 114.159 13.299 114.654 13.8872C115.149 14.4754 115.397 15.3175 115.397 16.4136V16.9023H110.744C110.761 17.5794 110.958 18.1274 111.334 18.5464C111.715 18.9611 112.198 19.1685 112.782 19.1685C113.196 19.1685 113.548 19.0838 113.835 18.9146C114.123 18.7453 114.375 18.521 114.591 18.2417L115.308 18.8003C114.733 19.6847 113.869 20.127 112.718 20.127ZM112.572 13.9697C112.098 13.9697 111.701 14.1432 111.379 14.4902C111.057 14.833 110.858 15.3154 110.782 15.9375H114.223V15.8486C114.189 15.252 114.028 14.7907 113.74 14.4648C113.452 14.1348 113.063 13.9697 112.572 13.9697ZM120.082 14.1855C119.904 14.1559 119.711 14.1411 119.504 14.1411C118.734 14.1411 118.211 14.4691 117.936 15.125V20H116.762V13.1318H117.904L117.923 13.9253C118.308 13.3117 118.854 13.0049 119.561 13.0049C119.79 13.0049 119.963 13.0345 120.082 13.0938V14.1855ZM122.278 13.1318L122.316 13.9951C122.841 13.335 123.526 13.0049 124.373 13.0049C125.824 13.0049 126.556 13.8237 126.569 15.4614V20H125.395V15.4551C125.39 14.96 125.276 14.5939 125.052 14.3569C124.832 14.12 124.487 14.0015 124.017 14.0015C123.636 14.0015 123.302 14.103 123.014 14.3062C122.726 14.5093 122.502 14.7759 122.341 15.106V20H121.167V13.1318H122.278ZM128.365 19.3843C128.365 19.1812 128.424 19.0119 128.543 18.8765C128.666 18.741 128.848 18.6733 129.089 18.6733C129.33 18.6733 129.512 18.741 129.635 18.8765C129.762 19.0119 129.825 19.1812 129.825 19.3843C129.825 19.5789 129.762 19.7419 129.635 19.873C129.512 20.0042 129.33 20.0698 129.089 20.0698C128.848 20.0698 128.666 20.0042 128.543 19.873C128.424 19.7419 128.365 19.5789 128.365 19.3843ZM131.793 19.3843C131.793 19.1812 131.852 19.0119 131.971 18.8765C132.093 18.741 132.275 18.6733 132.517 18.6733C132.758 18.6733 132.94 18.741 133.062 18.8765C133.189 19.0119 133.253 19.1812 133.253 19.3843C133.253 19.5789 133.189 19.7419 133.062 19.873C132.94 20.0042 132.758 20.0698 132.517 20.0698C132.275 20.0698 132.093 20.0042 131.971 19.873C131.852 19.7419 131.793 19.5789 131.793 19.3843ZM135.221 19.3843C135.221 19.1812 135.28 19.0119 135.398 18.8765C135.521 18.741 135.703 18.6733 135.944 18.6733C136.186 18.6733 136.368 18.741 136.49 18.8765C136.617 19.0119 136.681 19.1812 136.681 19.3843C136.681 19.5789 136.617 19.7419 136.49 19.873C136.368 20.0042 136.186 20.0698 135.944 20.0698C135.703 20.0698 135.521 20.0042 135.398 19.873C135.28 19.7419 135.221 19.5789 135.221 19.3843Z" fill="white" fill-opacity="0.64"/>
<path fill-rule="evenodd" clip-rule="evenodd" d="M382.085 17.8307L384.058 19.7814C384.367 20.0877 384.367 20.5847 384.058 20.891C383.747 21.1973 383.245 21.1973 382.935 20.891L380.827 18.8053L379.499 17.4925L378.95 16.9503C377.791 17.7729 376.279 18.1341 374.666 17.6468C372.998 17.1417 371.698 15.7413 371.353 14.0502C370.651 10.6072 373.659 7.63227 377.14 8.32651C378.85 8.66769 380.266 9.9538 380.777 11.6034C381.27 13.1988 380.905 14.694 380.072 15.84L380.625 16.3836L382.085 17.8307ZM376.125 9.7083C374.257 9.7083 372.75 11.1991 372.75 13.046C372.75 14.8928 374.257 16.3836 376.125 16.3836C377.992 16.3836 379.5 14.8928 379.5 13.046C379.5 11.1991 377.992 9.7083 376.125 9.7083Z" fill="white" fill-opacity="0.84"/>
</svg>
