<svg width="18" height="18" viewBox="0 0 18 18" fill="none" xmlns="http://www.w3.org/2000/svg">
<path d="M4.69503 4.275C4.53591 4.15566 4.33588 4.10441 4.13897 4.13254C3.94206 4.16067 3.76438 4.26587 3.64503 4.425L0.195035 8.55C-0.0303437 8.83593 -0.0303437 9.23908 0.195035 9.525L3.64503 13.65C3.8003 13.8218 4.01447 13.9288 4.24503 13.95C4.40672 13.9465 4.56358 13.8942 4.69503 13.8C5.00271 13.5293 5.03611 13.0617 4.77003 12.75L1.69504 9L4.77003 5.325C5.03611 5.0133 5.00271 4.54573 4.69503 4.275Z" fill="white" fill-opacity="0.94"/>
<path d="M4.50003 9C4.50003 8.50295 4.90298 8.1 5.40003 8.1C5.89709 8.1 6.30003 8.50295 6.30003 9C6.30003 9.49706 5.89709 9.9 5.40003 9.9C4.90298 9.9 4.50003 9.49706 4.50003 9Z" fill="white" fill-opacity="0.94"/>
<path d="M14.2725 13.65C14.024 13.9814 13.5539 14.0485 13.2225 13.8C12.9149 13.5293 12.8815 13.0617 13.1475 12.75L16.2 9.075L13.125 5.325C12.859 5.0133 12.8924 4.54573 13.2 4.275C13.3315 4.1808 13.4883 4.12852 13.65 4.125C13.8806 4.14617 14.0948 4.25325 14.25 4.425L17.7225 8.55C17.9479 8.83593 17.9479 9.23908 17.7225 9.525L14.2725 13.65Z" fill="white" fill-opacity="0.94"/>
<path d="M11.7 9C11.7 8.50295 12.103 8.1 12.6 8.1C13.0971 8.1 13.5 8.50295 13.5 9C13.5 9.49706 13.0971 9.9 12.6 9.9C12.103 9.9 11.7 9.49706 11.7 9Z" fill="white" fill-opacity="0.94"/>
<path d="M9.00003 8.1C8.50298 8.1 8.10003 8.50295 8.10003 9C8.10003 9.49706 8.50298 9.9 9.00003 9.9C9.49709 9.9 9.90003 9.49706 9.90003 9C9.90003 8.50295 9.49709 8.1 9.00003 8.1Z" fill="white" fill-opacity="0.94"/>
</svg>
