<svg width="18" height="18" viewBox="0 0 18 18" fill="none" xmlns="http://www.w3.org/2000/svg">
<path fill-rule="evenodd" clip-rule="evenodd" d="M3.75 14.25C3.75 14.664 3.41473 15 3 15C2.58526 15 2.25 14.664 2.25 14.25V3.75C2.25 3.336 2.58526 3 3 3C3.41473 3 3.75 3.336 3.75 3.75V14.25ZM12.75 15.375C12.75 15.9938 12.2438 16.5 11.625 16.5H6.375C5.75624 16.5 5.25 15.9938 5.25 15.375V2.625C5.25 2.00624 5.75624 1.5 6.375 1.5H11.625C12.2438 1.5 12.75 2.00624 12.75 2.625V15.375ZM15.75 14.25C15.75 14.664 15.4147 15 15 15C14.5853 15 14.25 14.664 14.25 14.25V3.75C14.25 3.336 14.5853 3 15 3C15.4147 3 15.75 3.336 15.75 3.75V14.25ZM11.25 15V3H6.75V15H11.25ZM7.875 5.8125C7.5645 5.8125 7.3125 5.5605 7.3125 5.25C7.3125 4.9395 7.5645 4.6875 7.875 4.6875H10.125C10.4355 4.6875 10.6875 4.9395 10.6875 5.25C10.6875 5.5605 10.4355 5.8125 10.125 5.8125H7.875ZM7.875 8.0625C7.5645 8.0625 7.3125 7.8105 7.3125 7.5C7.3125 7.1895 7.5645 6.9375 7.875 6.9375H10.125C10.4355 6.9375 10.6875 7.1895 10.6875 7.5C10.6875 7.8105 10.4355 8.0625 10.125 8.0625H7.875ZM9 13.5C8.58579 13.5 8.25 13.1642 8.25 12.75C8.25 12.3358 8.58579 12 9 12C9.41421 12 9.75 12.3358 9.75 12.75C9.75 13.1642 9.41421 13.5 9 13.5Z" fill="white" fill-opacity="0.94"/>
</svg>
