<svg width="18" height="18" viewBox="0 0 18 18" fill="none" xmlns="http://www.w3.org/2000/svg">
<path fill-rule="evenodd" clip-rule="evenodd" d="M15.7552 9.97783C15.7559 10.0312 15.7306 10.0822 15.6882 10.1112L14.0747 11.0918C14.0353 11.1043 13.9944 11.1043 13.9557 11.0918L12.3422 10.0955C12.3422 10.0955 12.2976 10.0484 12.2976 10.0171V8.00099C12.3013 7.95706 12.3236 7.91783 12.3571 7.89116L13.9632 6.91058H14.0368L15.6957 7.86763C15.7381 7.89744 15.7633 7.94764 15.7626 8.00099L15.7552 9.97783Z" fill="white" fill-opacity="0.94"/>
<path fill-rule="evenodd" clip-rule="evenodd" d="M13.2717 14.5199C13.2709 14.5732 13.2464 14.6234 13.2047 14.6532L11.5912 15.6338C11.5466 15.666 11.4878 15.666 11.4425 15.6338L9.82151 14.6532C9.77467 14.6273 9.74641 14.5756 9.74716 14.5199V12.5438C9.75013 12.4818 9.78433 12.4277 9.83638 12.4018L11.4425 11.4299H11.5094L11.5763 11.484L13.1824 12.4646H13.227C13.2546 12.4905 13.2709 12.5273 13.2717 12.5666V14.5199Z" fill="white" fill-opacity="0.94"/>
<path fill-rule="evenodd" clip-rule="evenodd" d="M8.26002 14.5199C8.26225 14.574 8.23697 14.625 8.1931 14.6532L6.57956 15.6338C6.53495 15.666 6.47621 15.666 6.43085 15.6338L4.82475 14.6532C4.7779 14.6273 4.74965 14.5756 4.75039 14.5199V12.5352C4.74667 12.5116 4.74667 12.4881 4.75039 12.4646H4.80988L6.41598 11.484L6.49034 11.4299C6.50893 11.4212 6.53049 11.4212 6.54982 11.4299L8.1708 12.4254C8.21392 12.4536 8.23995 12.5054 8.23772 12.5587V14.5199H8.26002Z" fill="white" fill-opacity="0.94"/>
<path fill-rule="evenodd" clip-rule="evenodd" d="M2.31149 10.1033C2.26688 10.0751 2.23937 10.0249 2.23714 9.96999V8.00099C2.23937 7.94686 2.26688 7.89665 2.31149 7.86763L3.93247 6.88705H4.05144L5.67985 7.89116C5.71108 7.91156 5.73041 7.94686 5.7319 7.9853V9.95508C5.73859 9.98019 5.73859 10.0069 5.7319 10.0327H5.68728L4.05887 11.0525H3.96965L2.31149 10.1033Z" fill="white" fill-opacity="0.94"/>
<path fill-rule="evenodd" clip-rule="evenodd" d="M4.75783 3.4511C4.75634 3.39933 4.78236 3.35148 4.82475 3.32559L6.42341 2.34501C6.44721 2.33716 6.47398 2.33716 6.49777 2.34501C6.52231 2.33795 6.54759 2.33795 6.57213 2.34501L8.1931 3.31774C8.23697 3.34598 8.26225 3.39697 8.26002 3.4511V5.41226C8.26225 5.47266 8.22954 5.52836 8.17823 5.55346L6.57213 6.53404C6.53569 6.54581 6.49703 6.54581 6.46059 6.53404L4.82475 5.52993C4.79501 5.50483 4.77642 5.46796 4.7727 5.42795L4.75783 3.4511Z" fill="white" fill-opacity="0.94"/>
<path fill-rule="evenodd" clip-rule="evenodd" d="M9.85126 3.32559L11.4574 2.34501H11.5243C11.5488 2.33716 11.5741 2.33716 11.5986 2.34501L13.2047 3.31774C13.2479 3.34363 13.2754 3.39148 13.2791 3.44326V5.41226C13.2724 5.4554 13.2516 5.49463 13.2196 5.52208L11.5763 6.51051C11.5377 6.5262 11.4953 6.5262 11.4574 6.51051L9.82151 5.54562C9.77467 5.51973 9.74641 5.46796 9.74716 5.41226V3.49817C9.73154 3.42521 9.76946 3.35148 9.83638 3.32559H9.85126Z" fill="white" fill-opacity="0.94"/>
<path fill-rule="evenodd" clip-rule="evenodd" d="M9.10769 11.0376L9.01102 11.1153L8.9441 11.069L7.31569 10.0641H7.24134V7.95392H7.31569L8.91436 6.98118L9.00359 6.84783L9.08538 6.90274L10.6989 7.88332H10.7733C10.7696 7.91234 10.7696 7.94137 10.7733 7.96961V10.0014H10.7064L9.10769 11.0376Z" fill="white" fill-opacity="0.94"/>
</svg>
