<svg width="18" height="18" viewBox="0 0 18 18" fill="none" xmlns="http://www.w3.org/2000/svg">
<path fill-rule="evenodd" clip-rule="evenodd" d="M13.085 11.8307L15.0575 13.7814C15.3673 14.0877 15.3673 14.5847 15.0575 14.891C14.747 15.1973 14.2453 15.1973 13.9348 14.891L11.8265 12.8053L10.499 11.4925L9.95004 10.9503C8.79054 11.7729 7.27929 12.1341 5.66604 11.6468C3.99804 11.1417 2.69754 9.74132 2.35254 8.05024C1.65054 4.60725 4.65879 1.63227 8.14029 2.32651C9.85029 2.66769 11.2663 3.9538 11.777 5.60336C12.2698 7.19876 11.9045 8.69404 11.072 9.83997L11.6248 10.3836L13.085 11.8307ZM7.12479 3.7083C5.25729 3.7083 3.74979 5.19913 3.74979 7.04597C3.74979 8.89282 5.25729 10.3836 7.12479 10.3836C8.99229 10.3836 10.4998 8.89282 10.4998 7.04597C10.4998 5.19913 8.99229 3.7083 7.12479 3.7083Z" fill="white" fill-opacity="0.84"/>
</svg>
