<svg width="128" height="24" viewBox="0 0 128 24" fill="none" xmlns="http://www.w3.org/2000/svg">
<path d="M8.18213 12.1772C8.18213 13.0828 8.02979 13.8742 7.7251 14.5513C7.42041 15.2241 6.98877 15.7383 6.43018 16.0938C5.87158 16.4492 5.21989 16.627 4.4751 16.627C3.74723 16.627 3.10189 16.4492 2.53906 16.0938C1.97624 15.734 1.53825 15.2241 1.2251 14.564C0.916178 13.8996 0.757487 13.1315 0.749023 12.2598V11.5933C0.749023 10.7046 0.903483 9.9196 1.2124 9.23828C1.52132 8.55697 1.95719 8.03646 2.52002 7.67676C3.08708 7.31283 3.73454 7.13086 4.4624 7.13086C5.20296 7.13086 5.85465 7.31071 6.41748 7.67041C6.98454 8.02588 7.42041 8.54427 7.7251 9.22559C8.02979 9.90267 8.18213 10.6919 8.18213 11.5933V12.1772ZM6.96973 11.5806C6.96973 10.4845 6.74967 9.64453 6.30957 9.06055C5.86947 8.47233 5.25374 8.17822 4.4624 8.17822C3.69222 8.17822 3.08496 8.47233 2.64062 9.06055C2.20052 9.64453 1.97412 10.457 1.96143 11.498V12.1772C1.96143 13.2394 2.18359 14.0752 2.62793 14.6846C3.0765 15.2897 3.69222 15.5923 4.4751 15.5923C5.26221 15.5923 5.87158 15.3066 6.30322 14.7354C6.73486 14.1598 6.95703 13.3368 6.96973 12.2661V11.5806ZM15.6406 13.1421C15.6406 14.1916 15.3994 15.0358 14.917 15.6748C14.4346 16.3096 13.7871 16.627 12.9746 16.627C12.1071 16.627 11.4364 16.3201 10.9624 15.7065L10.9053 16.5H9.82617V6.75H11.0005V10.3872C11.4744 9.79899 12.1283 9.50488 12.9619 9.50488C13.7956 9.50488 14.4494 9.82015 14.9233 10.4507C15.4015 11.0812 15.6406 11.9445 15.6406 13.0405V13.1421ZM14.4663 13.0088C14.4663 12.209 14.3118 11.5911 14.0029 11.1553C13.694 10.7194 13.2497 10.5015 12.6699 10.5015C11.8955 10.5015 11.339 10.8612 11.0005 11.5806V14.5513C11.3602 15.2707 11.9209 15.6304 12.6826 15.6304C13.2454 15.6304 13.6834 15.4124 13.9966 14.9766C14.3097 14.5407 14.4663 13.8848 14.4663 13.0088ZM21.125 14.6782C21.125 14.3608 21.0044 14.1154 20.7632 13.9419C20.5262 13.7642 20.1094 13.6118 19.5127 13.4849C18.9202 13.3579 18.4484 13.2056 18.0972 13.0278C17.7502 12.8501 17.492 12.6385 17.3228 12.3931C17.1577 12.1476 17.0752 11.8556 17.0752 11.5171C17.0752 10.9543 17.3122 10.4782 17.7861 10.0889C18.2643 9.69954 18.8737 9.50488 19.6143 9.50488C20.3929 9.50488 21.0234 9.70589 21.5059 10.1079C21.9925 10.5099 22.2358 11.0241 22.2358 11.6504H21.0552C21.0552 11.3288 20.9176 11.0516 20.6426 10.8188C20.3717 10.5861 20.029 10.4697 19.6143 10.4697C19.1868 10.4697 18.8525 10.5628 18.6113 10.749C18.3701 10.9352 18.2495 11.1785 18.2495 11.479C18.2495 11.7625 18.3617 11.9762 18.5859 12.1201C18.8102 12.264 19.2144 12.4015 19.7983 12.5327C20.3866 12.6639 20.8626 12.8205 21.2266 13.0024C21.5905 13.1844 21.8592 13.4045 22.0327 13.6626C22.2104 13.9165 22.2993 14.2275 22.2993 14.5957C22.2993 15.2093 22.0539 15.7023 21.563 16.0747C21.0721 16.4429 20.4352 16.627 19.6523 16.627C19.1022 16.627 18.6156 16.5296 18.1924 16.335C17.7692 16.1403 17.437 15.8695 17.1958 15.5225C16.9588 15.1712 16.8403 14.7925 16.8403 14.3862H18.0146C18.0358 14.7798 18.1924 15.0929 18.4844 15.3257C18.7806 15.5542 19.1699 15.6685 19.6523 15.6685C20.0967 15.6685 20.4521 15.5796 20.7188 15.4019C20.9896 15.2199 21.125 14.9787 21.125 14.6782ZM26.6792 16.627C25.7482 16.627 24.9907 16.3223 24.4067 15.7129C23.8228 15.0993 23.5308 14.2804 23.5308 13.2563V13.0405C23.5308 12.3592 23.6598 11.752 23.918 11.2188C24.1803 10.6813 24.5443 10.2624 25.0098 9.96191C25.4795 9.65723 25.9873 9.50488 26.5332 9.50488C27.4261 9.50488 28.1201 9.79899 28.6152 10.3872C29.1104 10.9754 29.3579 11.8175 29.3579 12.9136V13.4023H24.7051C24.722 14.0794 24.9188 14.6274 25.2954 15.0464C25.6763 15.4611 26.1587 15.6685 26.7427 15.6685C27.1574 15.6685 27.5086 15.5838 27.7964 15.4146C28.0841 15.2453 28.3359 15.021 28.5518 14.7417L29.269 15.3003C28.6935 16.1847 27.8302 16.627 26.6792 16.627ZM26.5332 10.4697C26.0592 10.4697 25.6615 10.6432 25.3398 10.9902C25.0182 11.333 24.8193 11.8154 24.7432 12.4375H28.1836V12.3486C28.1497 11.752 27.9889 11.2907 27.7012 10.9648C27.4134 10.6348 27.0241 10.4697 26.5332 10.4697ZM34.0425 10.6855C33.8647 10.6559 33.6722 10.6411 33.4648 10.6411C32.6947 10.6411 32.172 10.9691 31.897 11.625V16.5H30.7227V9.63184H31.8652L31.8843 10.4253C32.2694 9.81169 32.8153 9.50488 33.522 9.50488C33.7505 9.50488 33.924 9.53451 34.0425 9.59375V10.6855ZM37.5083 14.9067L39.2095 9.63184H40.4092L37.9463 16.5H37.0513L34.563 9.63184H35.7627L37.5083 14.9067ZM44.3003 16.627C43.3693 16.627 42.6118 16.3223 42.0278 15.7129C41.4438 15.0993 41.1519 14.2804 41.1519 13.2563V13.0405C41.1519 12.3592 41.2809 11.752 41.5391 11.2188C41.8014 10.6813 42.1654 10.2624 42.6309 9.96191C43.1006 9.65723 43.6084 9.50488 44.1543 9.50488C45.0472 9.50488 45.7412 9.79899 46.2363 10.3872C46.7314 10.9754 46.979 11.8175 46.979 12.9136V13.4023H42.3262C42.3431 14.0794 42.5399 14.6274 42.9165 15.0464C43.2974 15.4611 43.7798 15.6685 44.3638 15.6685C44.7785 15.6685 45.1297 15.5838 45.4175 15.4146C45.7052 15.2453 45.957 15.021 46.1729 14.7417L46.8901 15.3003C46.3146 16.1847 45.4513 16.627 44.3003 16.627ZM44.1543 10.4697C43.6803 10.4697 43.2826 10.6432 42.9609 10.9902C42.6393 11.333 42.4404 11.8154 42.3643 12.4375H45.8047V12.3486C45.7708 11.752 45.61 11.2907 45.3223 10.9648C45.0345 10.6348 44.6452 10.4697 44.1543 10.4697Z" fill="white" fill-opacity="0.7"/>
<path d="M59.0185 17.6231H59.0185C58.5961 17.6231 58.3058 17.1986 58.4589 16.805L62.3577 6.7812C62.4474 6.55043 62.6697 6.39844 62.9173 6.39844H62.9173C63.3396 6.39844 63.6299 6.8229 63.4768 7.21649L59.578 17.2403C59.4883 17.4711 59.2661 17.6231 59.0185 17.6231Z" fill="white" fill-opacity="0.38"/>
<path d="M83.77 14.1196C83.77 13.7134 83.6261 13.4002 83.3384 13.1802C83.0549 12.9601 82.5407 12.738 81.7959 12.5137C81.0511 12.2894 80.4587 12.0397 80.0186 11.7646C79.1764 11.2357 78.7554 10.5459 78.7554 9.69531C78.7554 8.95052 79.0579 8.33691 79.6631 7.85449C80.2725 7.37207 81.0617 7.13086 82.0308 7.13086C82.674 7.13086 83.2474 7.24935 83.751 7.48633C84.2546 7.72331 84.6502 8.06185 84.938 8.50195C85.2257 8.93783 85.3696 9.42236 85.3696 9.95557H83.77C83.77 9.47314 83.6177 9.09652 83.313 8.82568C83.0125 8.55062 82.5809 8.41309 82.0181 8.41309C81.4933 8.41309 81.085 8.52523 80.793 8.74951C80.5052 8.9738 80.3613 9.28695 80.3613 9.68896C80.3613 10.0275 80.5179 10.311 80.8311 10.5396C81.1442 10.7638 81.6605 10.9839 82.3799 11.1997C83.0993 11.4113 83.6769 11.6546 84.1128 11.9297C84.5487 12.2005 84.8682 12.5137 85.0713 12.8691C85.2744 13.2204 85.376 13.633 85.376 14.1069C85.376 14.8771 85.0798 15.4907 84.4873 15.9478C83.8991 16.4006 83.0993 16.627 82.0879 16.627C81.4193 16.627 80.8035 16.5042 80.2407 16.2588C79.6821 16.0091 79.2463 15.6663 78.9331 15.2305C78.6242 14.7946 78.4697 14.2868 78.4697 13.707H80.0757C80.0757 14.2318 80.2492 14.638 80.5962 14.9258C80.9432 15.2135 81.4404 15.3574 82.0879 15.3574C82.6465 15.3574 83.0654 15.2453 83.3447 15.021C83.6283 14.7925 83.77 14.492 83.77 14.1196ZM89.6606 16.627C88.6831 16.627 87.8896 16.3201 87.2803 15.7065C86.6751 15.0887 86.3726 14.2677 86.3726 13.2437V13.0532C86.3726 12.3677 86.5037 11.7562 86.7661 11.2188C87.0327 10.6771 87.4051 10.256 87.8833 9.95557C88.3615 9.65511 88.8947 9.50488 89.4829 9.50488C90.4181 9.50488 91.1396 9.80322 91.6475 10.3999C92.1595 10.9966 92.4155 11.8408 92.4155 12.9326V13.5547H87.9277C87.9743 14.1217 88.1626 14.5703 88.4927 14.9004C88.827 15.2305 89.2459 15.3955 89.7495 15.3955C90.4562 15.3955 91.0317 15.1099 91.4761 14.5386L92.3076 15.332C92.0326 15.7425 91.6644 16.062 91.2031 16.2905C90.7461 16.5148 90.2319 16.627 89.6606 16.627ZM89.4766 10.7427C89.0534 10.7427 88.7106 10.8908 88.4482 11.187C88.1901 11.4832 88.0251 11.8958 87.9531 12.4248H90.8921V12.3105C90.8582 11.7943 90.7207 11.4049 90.4795 11.1426C90.2383 10.876 89.904 10.7427 89.4766 10.7427ZM97.2144 11.041C97.0112 11.0072 96.8018 10.9902 96.5859 10.9902C95.8792 10.9902 95.4032 11.2611 95.1577 11.8027V16.5H93.6152V9.63184H95.0879L95.126 10.3999C95.4984 9.80322 96.0146 9.50488 96.6748 9.50488C96.8949 9.50488 97.0768 9.53451 97.2207 9.59375L97.2144 11.041ZM100.725 14.5449L102.178 9.63184H103.771L101.391 16.5H100.052L97.6523 9.63184H99.252L100.725 14.5449ZM106.38 16.5H104.838V9.63184H106.38V16.5ZM104.743 7.84814C104.743 7.61117 104.817 7.41439 104.965 7.25781C105.117 7.10124 105.333 7.02295 105.612 7.02295C105.892 7.02295 106.107 7.10124 106.26 7.25781C106.412 7.41439 106.488 7.61117 106.488 7.84814C106.488 8.08089 106.412 8.27555 106.26 8.43213C106.107 8.58447 105.892 8.66064 105.612 8.66064C105.333 8.66064 105.117 8.58447 104.965 8.43213C104.817 8.27555 104.743 8.08089 104.743 7.84814ZM110.887 15.3955C111.272 15.3955 111.592 15.2834 111.846 15.0591C112.1 14.8348 112.235 14.5576 112.252 14.2275H113.706C113.689 14.6549 113.555 15.0549 113.306 15.4272C113.056 15.7954 112.717 16.0874 112.29 16.3032C111.863 16.519 111.401 16.627 110.906 16.627C109.946 16.627 109.184 16.3159 108.621 15.6938C108.058 15.0718 107.777 14.2127 107.777 13.1167V12.958C107.777 11.9128 108.056 11.077 108.615 10.4507C109.173 9.82015 109.935 9.50488 110.9 9.50488C111.717 9.50488 112.381 9.74398 112.893 10.2222C113.409 10.6961 113.68 11.3203 113.706 12.0947H112.252C112.235 11.7012 112.1 11.3774 111.846 11.1235C111.596 10.8696 111.277 10.7427 110.887 10.7427C110.388 10.7427 110.003 10.9246 109.732 11.2886C109.461 11.6483 109.324 12.1963 109.319 12.9326V13.1802C109.319 13.925 109.453 14.4814 109.719 14.8496C109.99 15.2135 110.379 15.3955 110.887 15.3955ZM117.895 16.627C116.917 16.627 116.124 16.3201 115.515 15.7065C114.91 15.0887 114.607 14.2677 114.607 13.2437V13.0532C114.607 12.3677 114.738 11.7562 115 11.2188C115.267 10.6771 115.639 10.256 116.118 9.95557C116.596 9.65511 117.129 9.50488 117.717 9.50488C118.653 9.50488 119.374 9.80322 119.882 10.3999C120.394 10.9966 120.65 11.8408 120.65 12.9326V13.5547H116.162C116.209 14.1217 116.397 14.5703 116.727 14.9004C117.061 15.2305 117.48 15.3955 117.984 15.3955C118.691 15.3955 119.266 15.1099 119.71 14.5386L120.542 15.332C120.267 15.7425 119.899 16.062 119.438 16.2905C118.98 16.5148 118.466 16.627 117.895 16.627ZM117.711 10.7427C117.288 10.7427 116.945 10.8908 116.683 11.187C116.424 11.4832 116.259 11.8958 116.188 12.4248H119.126V12.3105C119.093 11.7943 118.955 11.4049 118.714 11.1426C118.473 10.876 118.138 10.7427 117.711 10.7427ZM125.703 14.6338C125.703 14.3587 125.588 14.1493 125.36 14.0054C125.136 13.8615 124.761 13.7345 124.236 13.6245C123.712 13.5145 123.274 13.3748 122.922 13.2056C122.152 12.8332 121.767 12.2936 121.767 11.5869C121.767 10.9945 122.017 10.4993 122.516 10.1016C123.015 9.70378 123.65 9.50488 124.42 9.50488C125.241 9.50488 125.904 9.70801 126.407 10.1143C126.915 10.5205 127.169 11.0474 127.169 11.6948H125.626C125.626 11.3986 125.516 11.1532 125.296 10.9585C125.076 10.7596 124.784 10.6602 124.42 10.6602C124.082 10.6602 123.805 10.7384 123.589 10.895C123.377 11.0516 123.271 11.2611 123.271 11.5234C123.271 11.7604 123.371 11.9445 123.57 12.0757C123.769 12.2069 124.171 12.3402 124.776 12.4756C125.381 12.6068 125.855 12.7655 126.198 12.9517C126.545 13.1336 126.801 13.3537 126.966 13.6118C127.135 13.87 127.22 14.1831 127.22 14.5513C127.22 15.1691 126.964 15.6706 126.452 16.0557C125.94 16.4365 125.269 16.627 124.439 16.627C123.877 16.627 123.375 16.5254 122.935 16.3223C122.495 16.1191 122.152 15.8398 121.907 15.4844C121.661 15.1289 121.539 14.7459 121.539 14.3354H123.037C123.058 14.6994 123.195 14.9808 123.449 15.1797C123.703 15.3743 124.04 15.4717 124.458 15.4717C124.865 15.4717 125.174 15.3955 125.385 15.2432C125.597 15.0866 125.703 14.8835 125.703 14.6338Z" fill="#BCA3FF"/>
</svg>
