<svg width="155" height="24" viewBox="0 0 155 24" fill="none" xmlns="http://www.w3.org/2000/svg">
<path d="M8.18213 12.1772C8.18213 13.0828 8.02979 13.8742 7.7251 14.5513C7.42041 15.2241 6.98877 15.7383 6.43018 16.0938C5.87158 16.4492 5.21989 16.627 4.4751 16.627C3.74723 16.627 3.10189 16.4492 2.53906 16.0938C1.97624 15.734 1.53825 15.2241 1.2251 14.564C0.916178 13.8996 0.757487 13.1315 0.749023 12.2598V11.5933C0.749023 10.7046 0.903483 9.9196 1.2124 9.23828C1.52132 8.55697 1.95719 8.03646 2.52002 7.67676C3.08708 7.31283 3.73454 7.13086 4.4624 7.13086C5.20296 7.13086 5.85465 7.31071 6.41748 7.67041C6.98454 8.02588 7.42041 8.54427 7.7251 9.22559C8.02979 9.90267 8.18213 10.6919 8.18213 11.5933V12.1772ZM6.96973 11.5806C6.96973 10.4845 6.74967 9.64453 6.30957 9.06055C5.86947 8.47233 5.25374 8.17822 4.4624 8.17822C3.69222 8.17822 3.08496 8.47233 2.64062 9.06055C2.20052 9.64453 1.97412 10.457 1.96143 11.498V12.1772C1.96143 13.2394 2.18359 14.0752 2.62793 14.6846C3.0765 15.2897 3.69222 15.5923 4.4751 15.5923C5.26221 15.5923 5.87158 15.3066 6.30322 14.7354C6.73486 14.1598 6.95703 13.3368 6.96973 12.2661V11.5806ZM15.6406 13.1421C15.6406 14.1916 15.3994 15.0358 14.917 15.6748C14.4346 16.3096 13.7871 16.627 12.9746 16.627C12.1071 16.627 11.4364 16.3201 10.9624 15.7065L10.9053 16.5H9.82617V6.75H11.0005V10.3872C11.4744 9.79899 12.1283 9.50488 12.9619 9.50488C13.7956 9.50488 14.4494 9.82015 14.9233 10.4507C15.4015 11.0812 15.6406 11.9445 15.6406 13.0405V13.1421ZM14.4663 13.0088C14.4663 12.209 14.3118 11.5911 14.0029 11.1553C13.694 10.7194 13.2497 10.5015 12.6699 10.5015C11.8955 10.5015 11.339 10.8612 11.0005 11.5806V14.5513C11.3602 15.2707 11.9209 15.6304 12.6826 15.6304C13.2454 15.6304 13.6834 15.4124 13.9966 14.9766C14.3097 14.5407 14.4663 13.8848 14.4663 13.0088ZM21.125 14.6782C21.125 14.3608 21.0044 14.1154 20.7632 13.9419C20.5262 13.7642 20.1094 13.6118 19.5127 13.4849C18.9202 13.3579 18.4484 13.2056 18.0972 13.0278C17.7502 12.8501 17.492 12.6385 17.3228 12.3931C17.1577 12.1476 17.0752 11.8556 17.0752 11.5171C17.0752 10.9543 17.3122 10.4782 17.7861 10.0889C18.2643 9.69954 18.8737 9.50488 19.6143 9.50488C20.3929 9.50488 21.0234 9.70589 21.5059 10.1079C21.9925 10.5099 22.2358 11.0241 22.2358 11.6504H21.0552C21.0552 11.3288 20.9176 11.0516 20.6426 10.8188C20.3717 10.5861 20.029 10.4697 19.6143 10.4697C19.1868 10.4697 18.8525 10.5628 18.6113 10.749C18.3701 10.9352 18.2495 11.1785 18.2495 11.479C18.2495 11.7625 18.3617 11.9762 18.5859 12.1201C18.8102 12.264 19.2144 12.4015 19.7983 12.5327C20.3866 12.6639 20.8626 12.8205 21.2266 13.0024C21.5905 13.1844 21.8592 13.4045 22.0327 13.6626C22.2104 13.9165 22.2993 14.2275 22.2993 14.5957C22.2993 15.2093 22.0539 15.7023 21.563 16.0747C21.0721 16.4429 20.4352 16.627 19.6523 16.627C19.1022 16.627 18.6156 16.5296 18.1924 16.335C17.7692 16.1403 17.437 15.8695 17.1958 15.5225C16.9588 15.1712 16.8403 14.7925 16.8403 14.3862H18.0146C18.0358 14.7798 18.1924 15.0929 18.4844 15.3257C18.7806 15.5542 19.1699 15.6685 19.6523 15.6685C20.0967 15.6685 20.4521 15.5796 20.7188 15.4019C20.9896 15.2199 21.125 14.9787 21.125 14.6782ZM26.6792 16.627C25.7482 16.627 24.9907 16.3223 24.4067 15.7129C23.8228 15.0993 23.5308 14.2804 23.5308 13.2563V13.0405C23.5308 12.3592 23.6598 11.752 23.918 11.2188C24.1803 10.6813 24.5443 10.2624 25.0098 9.96191C25.4795 9.65723 25.9873 9.50488 26.5332 9.50488C27.4261 9.50488 28.1201 9.79899 28.6152 10.3872C29.1104 10.9754 29.3579 11.8175 29.3579 12.9136V13.4023H24.7051C24.722 14.0794 24.9188 14.6274 25.2954 15.0464C25.6763 15.4611 26.1587 15.6685 26.7427 15.6685C27.1574 15.6685 27.5086 15.5838 27.7964 15.4146C28.0841 15.2453 28.3359 15.021 28.5518 14.7417L29.269 15.3003C28.6935 16.1847 27.8302 16.627 26.6792 16.627ZM26.5332 10.4697C26.0592 10.4697 25.6615 10.6432 25.3398 10.9902C25.0182 11.333 24.8193 11.8154 24.7432 12.4375H28.1836V12.3486C28.1497 11.752 27.9889 11.2907 27.7012 10.9648C27.4134 10.6348 27.0241 10.4697 26.5332 10.4697ZM34.0425 10.6855C33.8647 10.6559 33.6722 10.6411 33.4648 10.6411C32.6947 10.6411 32.172 10.9691 31.897 11.625V16.5H30.7227V9.63184H31.8652L31.8843 10.4253C32.2694 9.81169 32.8153 9.50488 33.522 9.50488C33.7505 9.50488 33.924 9.53451 34.0425 9.59375V10.6855ZM37.5083 14.9067L39.2095 9.63184H40.4092L37.9463 16.5H37.0513L34.563 9.63184H35.7627L37.5083 14.9067ZM44.3003 16.627C43.3693 16.627 42.6118 16.3223 42.0278 15.7129C41.4438 15.0993 41.1519 14.2804 41.1519 13.2563V13.0405C41.1519 12.3592 41.2809 11.752 41.5391 11.2188C41.8014 10.6813 42.1654 10.2624 42.6309 9.96191C43.1006 9.65723 43.6084 9.50488 44.1543 9.50488C45.0472 9.50488 45.7412 9.79899 46.2363 10.3872C46.7314 10.9754 46.979 11.8175 46.979 12.9136V13.4023H42.3262C42.3431 14.0794 42.5399 14.6274 42.9165 15.0464C43.2974 15.4611 43.7798 15.6685 44.3638 15.6685C44.7785 15.6685 45.1297 15.5838 45.4175 15.4146C45.7052 15.2453 45.957 15.021 46.1729 14.7417L46.8901 15.3003C46.3146 16.1847 45.4513 16.627 44.3003 16.627ZM44.1543 10.4697C43.6803 10.4697 43.2826 10.6432 42.9609 10.9902C42.6393 11.333 42.4404 11.8154 42.3643 12.4375H45.8047V12.3486C45.7708 11.752 45.61 11.2907 45.3223 10.9648C45.0345 10.6348 44.6452 10.4697 44.1543 10.4697Z" fill="white" fill-opacity="0.7"/>
<path d="M59.0185 17.6231H59.0185C58.5961 17.6231 58.3058 17.1986 58.4589 16.805L62.3577 6.7812C62.4474 6.55043 62.6697 6.39844 62.9173 6.39844H62.9173C63.3396 6.39844 63.6299 6.8229 63.4768 7.21649L59.578 17.2403C59.4883 17.4711 59.2661 17.6231 59.0185 17.6231Z" fill="white" fill-opacity="0.38"/>
<path d="M86.271 16.5H84.665L80.5454 9.94287V16.5H78.9395V7.25781H80.5454L84.6777 13.8403V7.25781H86.271V16.5ZM92.1235 16.5C92.0558 16.3688 91.9966 16.1551 91.9458 15.8589C91.4549 16.3709 90.854 16.627 90.1431 16.627C89.4533 16.627 88.8905 16.4302 88.4546 16.0366C88.0187 15.6431 87.8008 15.1564 87.8008 14.5767C87.8008 13.8446 88.0716 13.2839 88.6133 12.8945C89.1592 12.501 89.9378 12.3042 90.9492 12.3042H91.895V11.8535C91.895 11.498 91.7956 11.2145 91.5967 11.0029C91.3978 10.7871 91.0952 10.6792 90.689 10.6792C90.3377 10.6792 90.05 10.7681 89.8257 10.9458C89.6014 11.1193 89.4893 11.3415 89.4893 11.6123H87.9468C87.9468 11.2357 88.0716 10.8844 88.3213 10.5586C88.571 10.2285 88.9095 9.97038 89.3369 9.78418C89.7686 9.59798 90.2489 9.50488 90.7778 9.50488C91.5819 9.50488 92.223 9.70801 92.7012 10.1143C93.1794 10.5163 93.4248 11.0833 93.4375 11.8154V14.9131C93.4375 15.5309 93.5243 16.0239 93.6978 16.3921V16.5H92.1235ZM90.4287 15.3892C90.7334 15.3892 91.019 15.3151 91.2856 15.167C91.5565 15.0189 91.7596 14.82 91.895 14.5703V13.2754H91.0635C90.4922 13.2754 90.0627 13.3748 89.7749 13.5737C89.4871 13.7726 89.3433 14.054 89.3433 14.418C89.3433 14.7142 89.4406 14.9512 89.6353 15.1289C89.8341 15.3024 90.0986 15.3892 90.4287 15.3892ZM96.5034 9.63184L96.5479 10.3491C97.0303 9.7863 97.6904 9.50488 98.5283 9.50488C99.4466 9.50488 100.075 9.85612 100.414 10.5586C100.913 9.85612 101.615 9.50488 102.521 9.50488C103.278 9.50488 103.841 9.71436 104.209 10.1333C104.582 10.5522 104.772 11.1701 104.781 11.9868V16.5H103.238V12.0312C103.238 11.5954 103.143 11.2759 102.953 11.0728C102.762 10.8696 102.447 10.7681 102.007 10.7681C101.656 10.7681 101.368 10.8633 101.144 11.0537C100.924 11.2399 100.769 11.4854 100.68 11.79L100.687 16.5H99.144V11.9805C99.1229 11.1722 98.7103 10.7681 97.9062 10.7681C97.2884 10.7681 96.8504 11.0199 96.5923 11.5234V16.5H95.0498V9.63184H96.5034ZM109.389 16.627C108.412 16.627 107.618 16.3201 107.009 15.7065C106.404 15.0887 106.101 14.2677 106.101 13.2437V13.0532C106.101 12.3677 106.232 11.7562 106.495 11.2188C106.761 10.6771 107.134 10.256 107.612 9.95557C108.09 9.65511 108.623 9.50488 109.211 9.50488C110.147 9.50488 110.868 9.80322 111.376 10.3999C111.888 10.9966 112.144 11.8408 112.144 12.9326V13.5547H107.656C107.703 14.1217 107.891 14.5703 108.221 14.9004C108.556 15.2305 108.974 15.3955 109.478 15.3955C110.185 15.3955 110.76 15.1099 111.205 14.5386L112.036 15.332C111.761 15.7425 111.393 16.062 110.932 16.2905C110.475 16.5148 109.96 16.627 109.389 16.627ZM109.205 10.7427C108.782 10.7427 108.439 10.8908 108.177 11.187C107.919 11.4832 107.754 11.8958 107.682 12.4248H110.621V12.3105C110.587 11.7943 110.449 11.4049 110.208 11.1426C109.967 10.876 109.632 10.7427 109.205 10.7427ZM117.197 14.6338C117.197 14.3587 117.083 14.1493 116.854 14.0054C116.63 13.8615 116.255 13.7345 115.73 13.6245C115.206 13.5145 114.768 13.3748 114.417 13.2056C113.646 12.8332 113.261 12.2936 113.261 11.5869C113.261 10.9945 113.511 10.4993 114.01 10.1016C114.51 9.70378 115.144 9.50488 115.915 9.50488C116.736 9.50488 117.398 9.70801 117.901 10.1143C118.409 10.5205 118.663 11.0474 118.663 11.6948H117.121C117.121 11.3986 117.011 11.1532 116.791 10.9585C116.57 10.7596 116.278 10.6602 115.915 10.6602C115.576 10.6602 115.299 10.7384 115.083 10.895C114.871 11.0516 114.766 11.2611 114.766 11.5234C114.766 11.7604 114.865 11.9445 115.064 12.0757C115.263 12.2069 115.665 12.3402 116.27 12.4756C116.875 12.6068 117.349 12.7655 117.692 12.9517C118.039 13.1336 118.295 13.3537 118.46 13.6118C118.629 13.87 118.714 14.1831 118.714 14.5513C118.714 15.1691 118.458 15.6706 117.946 16.0557C117.434 16.4365 116.763 16.627 115.934 16.627C115.371 16.627 114.869 16.5254 114.429 16.3223C113.989 16.1191 113.646 15.8398 113.401 15.4844C113.155 15.1289 113.033 14.7459 113.033 14.3354H114.531C114.552 14.6994 114.689 14.9808 114.943 15.1797C115.197 15.3743 115.534 15.4717 115.953 15.4717C116.359 15.4717 116.668 15.3955 116.879 15.2432C117.091 15.0866 117.197 14.8835 117.197 14.6338ZM126.077 13.1357C126.077 14.1979 125.836 15.0464 125.354 15.6812C124.871 16.3117 124.224 16.627 123.411 16.627C122.658 16.627 122.055 16.3794 121.602 15.8843V19.1406H120.06V9.63184H121.481L121.545 10.3301C121.998 9.77995 122.613 9.50488 123.392 9.50488C124.23 9.50488 124.886 9.81803 125.36 10.4443C125.838 11.0664 126.077 11.9318 126.077 13.0405V13.1357ZM124.541 13.0024C124.541 12.3169 124.403 11.7731 124.128 11.3711C123.858 10.9691 123.468 10.7681 122.96 10.7681C122.33 10.7681 121.877 11.0283 121.602 11.5488V14.5957C121.881 15.1289 122.338 15.3955 122.973 15.3955C123.464 15.3955 123.847 15.1987 124.122 14.8052C124.401 14.4074 124.541 13.8065 124.541 13.0024ZM131.492 16.5C131.424 16.3688 131.365 16.1551 131.314 15.8589C130.823 16.3709 130.222 16.627 129.511 16.627C128.821 16.627 128.259 16.4302 127.823 16.0366C127.387 15.6431 127.169 15.1564 127.169 14.5767C127.169 13.8446 127.44 13.2839 127.981 12.8945C128.527 12.501 129.306 12.3042 130.317 12.3042H131.263V11.8535C131.263 11.498 131.164 11.2145 130.965 11.0029C130.766 10.7871 130.463 10.6792 130.057 10.6792C129.706 10.6792 129.418 10.7681 129.194 10.9458C128.97 11.1193 128.857 11.3415 128.857 11.6123H127.315C127.315 11.2357 127.44 10.8844 127.689 10.5586C127.939 10.2285 128.278 9.97038 128.705 9.78418C129.137 9.59798 129.617 9.50488 130.146 9.50488C130.95 9.50488 131.591 9.70801 132.069 10.1143C132.548 10.5163 132.793 11.0833 132.806 11.8154V14.9131C132.806 15.5309 132.892 16.0239 133.066 16.3921V16.5H131.492ZM129.797 15.3892C130.102 15.3892 130.387 15.3151 130.654 15.167C130.925 15.0189 131.128 14.82 131.263 14.5703V13.2754H130.432C129.86 13.2754 129.431 13.3748 129.143 13.5737C128.855 13.7726 128.711 14.054 128.711 14.418C128.711 14.7142 128.809 14.9512 129.003 15.1289C129.202 15.3024 129.467 15.3892 129.797 15.3892ZM137.243 15.3955C137.628 15.3955 137.947 15.2834 138.201 15.0591C138.455 14.8348 138.59 14.5576 138.607 14.2275H140.061C140.044 14.6549 139.911 15.0549 139.661 15.4272C139.411 15.7954 139.073 16.0874 138.646 16.3032C138.218 16.519 137.757 16.627 137.262 16.627C136.301 16.627 135.539 16.3159 134.977 15.6938C134.414 15.0718 134.132 14.2127 134.132 13.1167V12.958C134.132 11.9128 134.412 11.077 134.97 10.4507C135.529 9.82015 136.291 9.50488 137.255 9.50488C138.072 9.50488 138.736 9.74398 139.249 10.2222C139.765 10.6961 140.036 11.3203 140.061 12.0947H138.607C138.59 11.7012 138.455 11.3774 138.201 11.1235C137.951 10.8696 137.632 10.7427 137.243 10.7427C136.743 10.7427 136.358 10.9246 136.087 11.2886C135.817 11.6483 135.679 12.1963 135.675 12.9326V13.1802C135.675 13.925 135.808 14.4814 136.075 14.8496C136.346 15.2135 136.735 15.3955 137.243 15.3955ZM144.25 16.627C143.273 16.627 142.479 16.3201 141.87 15.7065C141.265 15.0887 140.962 14.2677 140.962 13.2437V13.0532C140.962 12.3677 141.094 11.7562 141.356 11.2188C141.623 10.6771 141.995 10.256 142.473 9.95557C142.951 9.65511 143.485 9.50488 144.073 9.50488C145.008 9.50488 145.729 9.80322 146.237 10.3999C146.749 10.9966 147.005 11.8408 147.005 12.9326V13.5547H142.518C142.564 14.1217 142.752 14.5703 143.083 14.9004C143.417 15.2305 143.836 15.3955 144.339 15.3955C145.046 15.3955 145.622 15.1099 146.066 14.5386L146.897 15.332C146.622 15.7425 146.254 16.062 145.793 16.2905C145.336 16.5148 144.822 16.627 144.25 16.627ZM144.066 10.7427C143.643 10.7427 143.3 10.8908 143.038 11.187C142.78 11.4832 142.615 11.8958 142.543 12.4248H145.482V12.3105C145.448 11.7943 145.311 11.4049 145.069 11.1426C144.828 10.876 144.494 10.7427 144.066 10.7427ZM152.058 14.6338C152.058 14.3587 151.944 14.1493 151.715 14.0054C151.491 13.8615 151.117 13.7345 150.592 13.6245C150.067 13.5145 149.629 13.3748 149.278 13.2056C148.508 12.8332 148.123 12.2936 148.123 11.5869C148.123 10.9945 148.372 10.4993 148.872 10.1016C149.371 9.70378 150.006 9.50488 150.776 9.50488C151.597 9.50488 152.259 9.70801 152.763 10.1143C153.271 10.5205 153.524 11.0474 153.524 11.6948H151.982C151.982 11.3986 151.872 11.1532 151.652 10.9585C151.432 10.7596 151.14 10.6602 150.776 10.6602C150.437 10.6602 150.16 10.7384 149.944 10.895C149.733 11.0516 149.627 11.2611 149.627 11.5234C149.627 11.7604 149.726 11.9445 149.925 12.0757C150.124 12.2069 150.526 12.3402 151.131 12.4756C151.736 12.6068 152.21 12.7655 152.553 12.9517C152.9 13.1336 153.156 13.3537 153.321 13.6118C153.491 13.87 153.575 14.1831 153.575 14.5513C153.575 15.1691 153.319 15.6706 152.807 16.0557C152.295 16.4365 151.624 16.627 150.795 16.627C150.232 16.627 149.731 16.5254 149.291 16.3223C148.85 16.1191 148.508 15.8398 148.262 15.4844C148.017 15.1289 147.894 14.7459 147.894 14.3354H149.392C149.413 14.6994 149.551 14.9808 149.805 15.1797C150.059 15.3743 150.395 15.4717 150.814 15.4717C151.22 15.4717 151.529 15.3955 151.741 15.2432C151.952 15.0866 152.058 14.8835 152.058 14.6338Z" fill="#BCA3FF"/>
</svg>
