<?xml version="1.0" encoding="utf-8"?>
<!-- Generator: Adobe Illustrator 26.0.1, SVG Export Plug-In . SVG Version: 6.00 Build 0)  -->
<svg version="1.1" id="Layer_1" xmlns="http://www.w3.org/2000/svg" xmlns:xlink="http://www.w3.org/1999/xlink" x="0px" y="0px"
	 viewBox="0 0 24 24" style="enable-background:new 0 0 24 24;" xml:space="preserve">
<style type="text/css">
	.st0{display:none;}
	.st1{display:inline;fill:#FFFFFF;}
	.st2{display:inline;}
	.st3{fill-rule:evenodd;clip-rule:evenodd;fill:#EB9E41;}
	.st4{fill:#F2F2F3;}
</style>
<g class="st0">
	<path class="st1" d="M7.1101785,10.5322008c0,0.2757826,0.0298147,0.4993906,0.0819898,0.6633701
		c0.059629,0.1639795,0.1341648,0.3428659,0.2385149,0.5366592c0.0372682,0.0596294,0.052175,0.1192579,0.052175,0.1714334
		c0,0.0745354-0.0447216,0.1490717-0.1416187,0.223608l-0.4695768,0.3130503
		c-0.0670829,0.0447216-0.1341653,0.0670834-0.1937938,0.0670834c-0.0745358,0-0.1490717-0.0372686-0.223608-0.104351
		c-0.1043501-0.111804-0.1937928-0.2310619-0.2683291-0.3503189c-0.0745358-0.1267109-0.1490717-0.2683296-0.2310615-0.4397631
		c-0.5813808,0.6857319-1.3118339,1.0285978-2.191359,1.0285978c-0.6261027,0-1.1254938-0.1788864-1.4907203-0.5366592
		s-0.5515666-0.8348036-0.5515666-1.4310923c0-0.6335554,0.2236081-1.1478548,0.678278-1.5354414
		C2.854172,8.7507896,3.4579136,8.5569963,4.2256346,8.5569963c0.2534227,0,0.5142989,0.0223608,0.790082,0.0596285
		c0.2757835,0.0372677,0.55902,0.0968971,0.8571644,0.1639795V8.2364912c0-0.5664735-0.1192575-0.9615145-0.3503189-1.1925764
		C5.2840466,6.8128533,4.8815522,6.7010493,4.3076248,6.7010493c-0.2608762,0-0.5292058,0.0298142-0.8049891,0.0968966
		S2.9585228,6.9470181,2.6976469,7.0513682C2.5783892,7.1035438,2.488946,7.133358,2.4367707,7.1482654
		C2.3845954,7.1631722,2.3473275,7.1706262,2.317513,7.1706262c-0.1043503,0-0.1565256-0.0745363-0.1565256-0.2310619V6.574338
		c0-0.1192579,0.0149074-0.2087011,0.0521753-0.2608762S2.317513,6.2091112,2.4218636,6.1569362
		c0.2608759-0.1341648,0.5739274-0.2459688,0.9391537-0.335412C3.7262437,5.724627,4.113831,5.6799054,4.5237789,5.6799054
		c0.8869786,0,1.5354419,0.2012472,1.9528441,0.6037421c0.4099483,0.4024944,0.618649,1.0136895,0.618649,1.8335857v2.4149675
		H7.1101785z M4.0840163,11.6651478c0.2459688,0,0.4993911-0.0447216,0.7677207-0.1341648s0.506845-0.2534227,0.7080922-0.4770308
		c0.1192575-0.1416187,0.2087011-0.2981443,0.2534227-0.4770308C5.8579731,10.398035,5.8877878,10.18188,5.8877878,9.9284582
		V9.615406c-0.2161546-0.0521746-0.447216-0.0968962-0.6857314-0.1267109S4.7324796,9.4439735,4.5014181,9.4439735
		c-0.4993916,0-0.8646178,0.0968971-1.1105869,0.2981443s-0.3652265,0.4844837-0.3652265,0.8571634
		c0,0.3503199,0.0894432,0.6111956,0.2757831,0.790082C3.4802744,11.5757046,3.7411506,11.6651478,4.0840163,11.6651478z
		 M10.0692587,12.4701366c-0.1341658,0-0.223608-0.0223608-0.2832375-0.0745354
		c-0.0596285-0.0447216-0.111804-0.1490726-0.1565256-0.2906914L7.8778992,6.343276
		C7.833178,6.1942039,7.8108168,6.0973072,7.8108168,6.0451317c0-0.1192575,0.059629-0.1863399,0.1788864-0.1863399h0.7304535
		c0.1416187,0,0.2385149,0.0223608,0.2906904,0.0745358c0.0596294,0.0447216,0.104351,0.1490722,0.1490717,0.2906904
		l1.2522049,4.9342842l1.1627626-4.9342842c0.0372677-0.1490722,0.0819902-0.2459688,0.1416178-0.2906904
		c0.0596294-0.0447216,0.1639795-0.0745358,0.2981443-0.0745358h0.5962877c0.1416187,0,0.2385159,0.0223608,0.2981443,0.0745358
		c0.0596294,0.0447216,0.111804,0.1490722,0.1416178,0.2906904l1.1776695,4.9939137l1.2894735-4.9939137
		c0.0447226-0.1490722,0.0968971-0.2459688,0.1490717-0.2906904c0.0596294-0.0447216,0.1565266-0.0745358,0.2906904-0.0745358
		h0.6931858c0.119257,0,0.1863403,0.0596285,0.1863403,0.1863399c0,0.0372682-0.0074558,0.0745358-0.0149078,0.1192575
		c-0.0074539,0.0447221-0.0223618,0.1043506-0.0521755,0.1863403l-1.7963181,5.7616343
		c-0.0447216,0.1490717-0.0968971,0.2459688-0.1565256,0.2906904c-0.0596294,0.0447216-0.1565266,0.0745363-0.2832375,0.0745363
		h-0.6410103c-0.1416178,0-0.2385149-0.0223608-0.2981443-0.0745363c-0.0596285-0.0521746-0.111804-0.1490717-0.1416178-0.2981443
		l-1.1553068-4.8075728l-1.1478548,4.8001199c-0.0372677,0.1490717-0.0819902,0.2459688-0.1416178,0.2981443
		c-0.0596294,0.0521746-0.1639786,0.0745354-0.2981443,0.0745354H10.0692587z M19.6471367,12.6713839
		c-0.3875866,0-0.7751732-0.0447216-1.1478539-0.1341648c-0.3726788-0.0894432-0.6633701-0.1863403-0.8571644-0.2981443
		c-0.119257-0.0670824-0.2012463-0.1416187-0.2310619-0.2087011c-0.0298138-0.0670824-0.0447216-0.1416187-0.0447216-0.2087011
		v-0.3801336c0-0.1565256,0.0596294-0.231061,0.1714325-0.231061c0.0447235,0,0.0894432,0.007453,0.1341648,0.0223608
		c0.0447235,0.0149069,0.111805,0.0447216,0.1863403,0.0745363c0.2534218,0.111804,0.5292072,0.2012463,0.8198967,0.2608757
		c0.2981434,0.0596285,0.5888348,0.0894432,0.8869781,0.0894432c0.4695759,0,0.8348045-0.0819902,1.0882263-0.2459698
		c0.2534218-0.1639786,0.3875885-0.4024944,0.3875885-0.7080917c0-0.2087011-0.0670815-0.3801336-0.2012482-0.5217524
		c-0.1341648-0.1416187-0.3875885-0.2683296-0.7528152-0.3875875l-1.0807724-0.3354111
		c-0.5441132-0.1714325-0.9466057-0.4248552-1.1925755-0.7602673c-0.2459698-0.3279591-0.3726807-0.6931849-0.3726807-1.0807724
		c0-0.3130512,0.0670834-0.5888343,0.2012482-0.8273497s0.3130512-0.447216,0.5366592-0.6111956
		c0.223608-0.171433,0.4770298-0.2981439,0.7751732-0.3875871c0.2981453-0.0894432,0.6111946-0.1267114,0.9391537-0.1267114
		c0.1639805,0,0.335413,0.0074534,0.4993935,0.0298142c0.1714325,0.0223608,0.3279572,0.0521755,0.4844837,0.0819898
		c0.1490726,0.0372682,0.2906895,0.0745358,0.4248562,0.1192575c0.1341648,0.0447216,0.2385159,0.0894437,0.3130531,0.1341648
		c0.1043491,0.059629,0.1788845,0.1192579,0.223608,0.1863403c0.0447216,0.059629,0.0670815,0.1416183,0.0670815,0.2459688
		v0.3503194c0,0.1565256-0.0596275,0.2385154-0.1714325,0.2385154c-0.0596275,0-0.1565266-0.0298142-0.2832355-0.0894432
		c-0.4248562-0.1937938-0.901886-0.2906904-1.4310932-0.2906904c-0.4248543,0-0.7602673,0.0670824-0.9913292,0.2087007
		s-0.3503189,0.3577728-0.3503189,0.6633706c0,0.2087007,0.0745373,0.3875871,0.223608,0.5292058
		c0.1490726,0.1416187,0.4248562,0.2832365,0.8198967,0.4099474l1.0584126,0.335413
		c0.5366592,0.1714325,0.9242458,0.4099474,1.1553078,0.7155457c0.2310619,0.3055973,0.3428669,0.6559172,0.3428669,1.0435038
		c0,0.3205051-0.0670815,0.6111956-0.1937943,0.8646183c-0.1341648,0.2534227-0.3130531,0.4770308-0.5441132,0.6559172
		c-0.2310619,0.1863403-0.5068436,0.3205051-0.8273487,0.4174013
		C20.3775902,12.6192093,20.0272713,12.6713839,19.6471367,12.6713839z"/>
	<g class="st2">
		<path class="st3" d="M21.0558681,16.2938347c-2.4522343,1.8112259-6.0150566,2.7727394-9.0784874,2.7727394
			c-4.2932749,0-8.1616945-1.5876179-11.0835066-4.2261925c-0.2310616-0.2087011-0.0223608-0.4919376,0.2534225-0.3279581
			c3.1603274,1.8335867,7.0585613,2.9441729,11.0909595,2.9441729c2.7205648,0,5.7094593-0.5664749,8.4598389-1.7292366
			C21.1080437,15.5410213,21.4583626,15.9956903,21.0558681,16.2938347z"/>
		<path class="st3" d="M22.077013,15.131073c-0.3130531-0.4024944-2.0721016-0.1937933-2.8696384-0.0968971
			c-0.2385139,0.0298147-0.2757816-0.1788864-0.0596275-0.335412c1.4012775-0.9838753,3.7044392-0.7006388,3.9727688-0.3726797
			c0.2683315,0.335412-0.0745354,2.6385746-1.3863697,3.7417068c-0.2012482,0.1714344-0.3950405,0.0819912-0.3055973-0.1416168
			C21.7266922,17.1882668,22.3900623,15.5261135,22.077013,15.131073z"/>
	</g>
</g>
<path class="st4" d="M10.1791487,2.5827899C9.3475599,2.5817211,8.5189161,2.6816273,7.711411,2.8803153L9.2302332,6.292778
	C9.54461,6.2485871,9.861681,6.2263393,10.1791487,6.2261953c3.6800718,0.0001788,6.6632128,2.9836111,6.6630335,6.663682
	c-0.0000935,1.976162-0.8773432,3.850338-2.3947783,5.1162758l1.5188227,3.4110661
	c2.8288269-1.9161339,4.5220776-5.1114311,4.5192184-8.5281305C20.485445,7.1974597,15.8707762,2.5827899,10.1791487,2.5827899z
	 M8.5029497,13.5972824L5.9094958,7.7734208c-2.82582,2.35747-3.2054915,6.5593581-0.8480206,9.3851776
	c1.266252,1.5178127,3.1410222,2.3950977,5.1176734,2.3947811c0.3163834-0.0001812,0.632369-0.0224285,0.9456558-0.0665836
	l-2.5860033-5.8089628C8.5266962,13.650362,8.5145893,13.624753,8.5029497,13.5972824z"/>
</svg>
