<svg width="146" height="18" viewBox="0 0 146 18" fill="none" xmlns="http://www.w3.org/2000/svg">
<path d="M8.18213 9.17725C8.18213 10.0828 8.02979 10.8742 7.7251 11.5513C7.42041 12.2241 6.98877 12.7383 6.43018 13.0938C5.87158 13.4492 5.21989 13.627 4.4751 13.627C3.74723 13.627 3.10189 13.4492 2.53906 13.0938C1.97624 12.734 1.53825 12.2241 1.2251 11.564C0.916178 10.8996 0.757487 10.1315 0.749023 9.25977V8.59326C0.749023 7.70459 0.903483 6.9196 1.2124 6.23828C1.52132 5.55697 1.95719 5.03646 2.52002 4.67676C3.08708 4.31283 3.73454 4.13086 4.4624 4.13086C5.20296 4.13086 5.85465 4.31071 6.41748 4.67041C6.98454 5.02588 7.42041 5.54427 7.7251 6.22559C8.02979 6.90267 8.18213 7.69189 8.18213 8.59326V9.17725ZM6.96973 8.58057C6.96973 7.48454 6.74967 6.64453 6.30957 6.06055C5.86947 5.47233 5.25374 5.17822 4.4624 5.17822C3.69222 5.17822 3.08496 5.47233 2.64062 6.06055C2.20052 6.64453 1.97412 7.45703 1.96143 8.49805V9.17725C1.96143 10.2394 2.18359 11.0752 2.62793 11.6846C3.0765 12.2897 3.69222 12.5923 4.4751 12.5923C5.26221 12.5923 5.87158 12.3066 6.30322 11.7354C6.73486 11.1598 6.95703 10.3368 6.96973 9.26611V8.58057ZM15.6406 10.1421C15.6406 11.1916 15.3994 12.0358 14.917 12.6748C14.4346 13.3096 13.7871 13.627 12.9746 13.627C12.1071 13.627 11.4364 13.3201 10.9624 12.7065L10.9053 13.5H9.82617V3.75H11.0005V7.38721C11.4744 6.79899 12.1283 6.50488 12.9619 6.50488C13.7956 6.50488 14.4494 6.82015 14.9233 7.45068C15.4015 8.08122 15.6406 8.9445 15.6406 10.0405V10.1421ZM14.4663 10.0088C14.4663 9.20898 14.3118 8.59115 14.0029 8.15527C13.694 7.7194 13.2497 7.50146 12.6699 7.50146C11.8955 7.50146 11.339 7.86117 11.0005 8.58057V11.5513C11.3602 12.2707 11.9209 12.6304 12.6826 12.6304C13.2454 12.6304 13.6834 12.4124 13.9966 11.9766C14.3097 11.5407 14.4663 10.8848 14.4663 10.0088ZM21.125 11.6782C21.125 11.3608 21.0044 11.1154 20.7632 10.9419C20.5262 10.7642 20.1094 10.6118 19.5127 10.4849C18.9202 10.3579 18.4484 10.2056 18.0972 10.0278C17.7502 9.8501 17.492 9.63851 17.3228 9.39307C17.1577 9.14762 17.0752 8.85563 17.0752 8.51709C17.0752 7.95426 17.3122 7.47819 17.7861 7.08887C18.2643 6.69954 18.8737 6.50488 19.6143 6.50488C20.3929 6.50488 21.0234 6.70589 21.5059 7.10791C21.9925 7.50993 22.2358 8.02409 22.2358 8.65039H21.0552C21.0552 8.32878 20.9176 8.0516 20.6426 7.81885C20.3717 7.5861 20.029 7.46973 19.6143 7.46973C19.1868 7.46973 18.8525 7.56283 18.6113 7.74902C18.3701 7.93522 18.2495 8.17855 18.2495 8.479C18.2495 8.76253 18.3617 8.97624 18.5859 9.12012C18.8102 9.264 19.2144 9.40153 19.7983 9.53271C20.3866 9.6639 20.8626 9.82048 21.2266 10.0024C21.5905 10.1844 21.8592 10.4045 22.0327 10.6626C22.2104 10.9165 22.2993 11.2275 22.2993 11.5957C22.2993 12.2093 22.0539 12.7023 21.563 13.0747C21.0721 13.4429 20.4352 13.627 19.6523 13.627C19.1022 13.627 18.6156 13.5296 18.1924 13.335C17.7692 13.1403 17.437 12.8695 17.1958 12.5225C16.9588 12.1712 16.8403 11.7925 16.8403 11.3862H18.0146C18.0358 11.7798 18.1924 12.0929 18.4844 12.3257C18.7806 12.5542 19.1699 12.6685 19.6523 12.6685C20.0967 12.6685 20.4521 12.5796 20.7188 12.4019C20.9896 12.2199 21.125 11.9787 21.125 11.6782ZM26.6792 13.627C25.7482 13.627 24.9907 13.3223 24.4067 12.7129C23.8228 12.0993 23.5308 11.2804 23.5308 10.2563V10.0405C23.5308 9.35921 23.6598 8.75195 23.918 8.21875C24.1803 7.68132 24.5443 7.26237 25.0098 6.96191C25.4795 6.65723 25.9873 6.50488 26.5332 6.50488C27.4261 6.50488 28.1201 6.79899 28.6152 7.38721C29.1104 7.97542 29.3579 8.81755 29.3579 9.91357V10.4023H24.7051C24.722 11.0794 24.9188 11.6274 25.2954 12.0464C25.6763 12.4611 26.1587 12.6685 26.7427 12.6685C27.1574 12.6685 27.5086 12.5838 27.7964 12.4146C28.0841 12.2453 28.3359 12.021 28.5518 11.7417L29.269 12.3003C28.6935 13.1847 27.8302 13.627 26.6792 13.627ZM26.5332 7.46973C26.0592 7.46973 25.6615 7.64323 25.3398 7.99023C25.0182 8.33301 24.8193 8.81543 24.7432 9.4375H28.1836V9.34863C28.1497 8.75195 27.9889 8.29069 27.7012 7.96484C27.4134 7.63477 27.0241 7.46973 26.5332 7.46973ZM34.0425 7.68555C33.8647 7.65592 33.6722 7.64111 33.4648 7.64111C32.6947 7.64111 32.172 7.96908 31.897 8.625V13.5H30.7227V6.63184H31.8652L31.8843 7.42529C32.2694 6.81169 32.8153 6.50488 33.522 6.50488C33.7505 6.50488 33.924 6.53451 34.0425 6.59375V7.68555ZM37.5083 11.9067L39.2095 6.63184H40.4092L37.9463 13.5H37.0513L34.563 6.63184H35.7627L37.5083 11.9067ZM44.3003 13.627C43.3693 13.627 42.6118 13.3223 42.0278 12.7129C41.4438 12.0993 41.1519 11.2804 41.1519 10.2563V10.0405C41.1519 9.35921 41.2809 8.75195 41.5391 8.21875C41.8014 7.68132 42.1654 7.26237 42.6309 6.96191C43.1006 6.65723 43.6084 6.50488 44.1543 6.50488C45.0472 6.50488 45.7412 6.79899 46.2363 7.38721C46.7314 7.97542 46.979 8.81755 46.979 9.91357V10.4023H42.3262C42.3431 11.0794 42.5399 11.6274 42.9165 12.0464C43.2974 12.4611 43.7798 12.6685 44.3638 12.6685C44.7785 12.6685 45.1297 12.5838 45.4175 12.4146C45.7052 12.2453 45.957 12.021 46.1729 11.7417L46.8901 12.3003C46.3146 13.1847 45.4513 13.627 44.3003 13.627ZM44.1543 7.46973C43.6803 7.46973 43.2826 7.64323 42.9609 7.99023C42.6393 8.33301 42.4404 8.81543 42.3643 9.4375H45.8047V9.34863C45.7708 8.75195 45.61 8.29069 45.3223 7.96484C45.0345 7.63477 44.6452 7.46973 44.1543 7.46973Z" fill="white" fill-opacity="0.64"/>
<path d="M58.9876 12.9712C58.7072 12.6791 58.7069 12.2056 58.9871 11.9131L61.7776 8.99996L58.9871 6.08678C58.7069 5.79435 58.7072 5.32082 58.9876 5.02871C59.268 4.73669 59.7225 4.73669 60.0028 5.02871L63.3061 8.46963C63.5873 8.76252 63.5873 9.23739 63.3061 9.53029L60.0028 12.9712C59.7225 13.2632 59.268 13.2632 58.9876 12.9712Z" fill="white" fill-opacity="0.64"/>
<path d="M82.2837 9.12012C82.2837 9.99609 82.144 10.7557 81.8647 11.3989C81.5897 12.0379 81.2025 12.5457 80.7031 12.9224L82.29 14.1602L81.249 15.0996L79.2812 13.5444C79.0231 13.5994 78.7459 13.627 78.4497 13.627C77.7049 13.627 77.0384 13.445 76.4502 13.0811C75.8662 12.7129 75.4134 12.1903 75.0918 11.5132C74.7744 10.8361 74.6136 10.0553 74.6094 9.1709V8.65039C74.6094 7.74902 74.7681 6.95345 75.0854 6.26367C75.4071 5.57389 75.8577 5.04704 76.4375 4.68311C77.0215 4.31494 77.688 4.13086 78.437 4.13086C79.1987 4.13086 79.8695 4.31283 80.4492 4.67676C81.0332 5.03646 81.4839 5.55697 81.8013 6.23828C82.1187 6.91536 82.2795 7.70459 82.2837 8.60596V9.12012ZM80.6714 8.6377C80.6714 7.59668 80.4767 6.80745 80.0874 6.27002C79.6981 5.73258 79.1479 5.46387 78.437 5.46387C77.7472 5.46387 77.2056 5.73682 76.812 6.28271C76.4227 6.82438 76.2238 7.59033 76.2153 8.58057V9.12012C76.2153 10.1188 76.41 10.8996 76.7993 11.4624C77.1929 12.0252 77.743 12.3066 78.4497 12.3066C79.1649 12.3066 79.7129 12.0358 80.0938 11.4941C80.4788 10.9525 80.6714 10.1611 80.6714 9.12012V8.6377ZM87.9268 12.8271C87.474 13.3604 86.8307 13.627 85.9971 13.627C85.2523 13.627 84.6873 13.409 84.3022 12.9731C83.9214 12.5373 83.731 11.9067 83.731 11.0815V6.63184H85.2734V11.0625C85.2734 11.9342 85.6353 12.3701 86.3589 12.3701C87.1079 12.3701 87.6136 12.1014 87.876 11.564V6.63184H89.4185V13.5H87.9648L87.9268 12.8271ZM90.7007 10.0024C90.7007 9.32959 90.834 8.72445 91.1006 8.18701C91.3672 7.64535 91.7417 7.23063 92.2241 6.94287C92.7065 6.65088 93.2609 6.50488 93.8872 6.50488C94.814 6.50488 95.5651 6.80322 96.1406 7.3999C96.7204 7.99658 97.0335 8.78792 97.0801 9.77393L97.0864 10.1357C97.0864 10.8128 96.9552 11.418 96.6929 11.9512C96.4347 12.4844 96.0623 12.897 95.5757 13.189C95.0933 13.481 94.5347 13.627 93.8999 13.627C92.9308 13.627 92.1543 13.3053 91.5703 12.6621C90.9906 12.0146 90.7007 11.1535 90.7007 10.0786V10.0024ZM92.2432 10.1357C92.2432 10.8424 92.3892 11.3968 92.6812 11.7988C92.9731 12.1966 93.3794 12.3955 93.8999 12.3955C94.4204 12.3955 94.8245 12.1924 95.1123 11.7861C95.4043 11.3799 95.5503 10.7853 95.5503 10.0024C95.5503 9.30843 95.4001 8.7583 95.0996 8.35205C94.8034 7.9458 94.3993 7.74268 93.8872 7.74268C93.3836 7.74268 92.9837 7.94368 92.6875 8.3457C92.3913 8.74349 92.2432 9.34017 92.2432 10.1357ZM100.324 4.9624V6.63184H101.536V7.77441H100.324V11.6084C100.324 11.8708 100.375 12.0612 100.476 12.1797C100.582 12.2939 100.768 12.3511 101.035 12.3511C101.212 12.3511 101.392 12.3299 101.574 12.2876V13.481C101.223 13.5783 100.884 13.627 100.559 13.627C99.3737 13.627 98.7812 12.9731 98.7812 11.6655V7.77441H97.6514V6.63184H98.7812V4.9624H100.324ZM104.361 13.5H102.818V6.63184H104.361V13.5ZM102.723 4.84814C102.723 4.61117 102.797 4.41439 102.945 4.25781C103.098 4.10124 103.313 4.02295 103.593 4.02295C103.872 4.02295 104.088 4.10124 104.24 4.25781C104.393 4.41439 104.469 4.61117 104.469 4.84814C104.469 5.08089 104.393 5.27555 104.24 5.43213C104.088 5.58447 103.872 5.66064 103.593 5.66064C103.313 5.66064 103.098 5.58447 102.945 5.43213C102.797 5.27555 102.723 5.08089 102.723 4.84814ZM107.478 6.63184L107.522 7.42529C108.03 6.81169 108.696 6.50488 109.521 6.50488C110.952 6.50488 111.68 7.32373 111.705 8.96143V13.5H110.163V9.05029C110.163 8.61442 110.067 8.29281 109.877 8.08545C109.691 7.87386 109.384 7.76807 108.957 7.76807C108.334 7.76807 107.871 8.04948 107.566 8.6123V13.5H106.024V6.63184H107.478ZM113.013 10.0151C113.013 8.94873 113.262 8.09814 113.762 7.46338C114.265 6.82438 114.932 6.50488 115.761 6.50488C116.544 6.50488 117.16 6.77783 117.608 7.32373L117.678 6.63184H119.068V13.2905C119.068 14.1919 118.787 14.9028 118.224 15.4233C117.666 15.9438 116.91 16.2041 115.958 16.2041C115.454 16.2041 114.961 16.0983 114.479 15.8867C114.001 15.6794 113.637 15.4064 113.387 15.0679L114.117 14.1411C114.591 14.7039 115.175 14.9854 115.869 14.9854C116.381 14.9854 116.785 14.8457 117.082 14.5664C117.378 14.2913 117.526 13.8851 117.526 13.3477V12.8843C117.082 13.3794 116.489 13.627 115.749 13.627C114.944 13.627 114.286 13.3075 113.774 12.6685C113.267 12.0295 113.013 11.145 113.013 10.0151ZM114.549 10.1484C114.549 10.8382 114.688 11.382 114.968 11.7798C115.251 12.1733 115.643 12.3701 116.142 12.3701C116.764 12.3701 117.225 12.1035 117.526 11.5703V8.54883C117.234 8.02832 116.777 7.76807 116.155 7.76807C115.647 7.76807 115.251 7.96908 114.968 8.37109C114.688 8.77311 114.549 9.36556 114.549 10.1484ZM120.808 13.5V4.25781H123.975C125.02 4.25781 125.816 4.46729 126.362 4.88623C126.908 5.30518 127.181 5.92936 127.181 6.75879C127.181 7.18197 127.066 7.56283 126.838 7.90137C126.609 8.23991 126.275 8.50228 125.835 8.68848C126.334 8.82389 126.719 9.07992 126.99 9.45654C127.265 9.82894 127.403 10.2775 127.403 10.8022C127.403 11.6698 127.124 12.3363 126.565 12.8018C126.011 13.2673 125.215 13.5 124.178 13.5H120.808ZM122.414 9.32959V12.2178H124.197C124.701 12.2178 125.094 12.0929 125.378 11.8433C125.661 11.5936 125.803 11.2466 125.803 10.8022C125.803 9.84163 125.312 9.35075 124.331 9.32959H122.414ZM122.414 8.14893H123.988C124.487 8.14893 124.876 8.03678 125.156 7.8125C125.439 7.58398 125.581 7.26237 125.581 6.84766C125.581 6.39062 125.45 6.06055 125.188 5.85742C124.929 5.6543 124.525 5.55273 123.975 5.55273H122.414V8.14893ZM130.5 13.5H128.958V6.63184H130.5V13.5ZM128.863 4.84814C128.863 4.61117 128.937 4.41439 129.085 4.25781C129.237 4.10124 129.453 4.02295 129.732 4.02295C130.012 4.02295 130.228 4.10124 130.38 4.25781C130.532 4.41439 130.608 4.61117 130.608 4.84814C130.608 5.08089 130.532 5.27555 130.38 5.43213C130.228 5.58447 130.012 5.66064 129.732 5.66064C129.453 5.66064 129.237 5.58447 129.085 5.43213C128.937 5.27555 128.863 5.08089 128.863 4.84814ZM133.617 6.63184L133.662 7.42529C134.169 6.81169 134.836 6.50488 135.661 6.50488C137.091 6.50488 137.819 7.32373 137.845 8.96143V13.5H136.302V9.05029C136.302 8.61442 136.207 8.29281 136.017 8.08545C135.83 7.87386 135.524 7.76807 135.096 7.76807C134.474 7.76807 134.011 8.04948 133.706 8.6123V13.5H132.164V6.63184H133.617ZM139.133 10.0151C139.133 8.95719 139.379 8.10872 139.87 7.46973C140.361 6.8265 141.019 6.50488 141.844 6.50488C142.572 6.50488 143.16 6.75879 143.608 7.2666V3.75H145.151V13.5H143.754L143.678 12.7891C143.217 13.3477 142.601 13.627 141.831 13.627C141.027 13.627 140.375 13.3032 139.876 12.6558C139.381 12.0083 139.133 11.1281 139.133 10.0151ZM140.676 10.1484C140.676 10.8467 140.809 11.3926 141.076 11.7861C141.347 12.1755 141.729 12.3701 142.225 12.3701C142.855 12.3701 143.316 12.0887 143.608 11.5259V8.59326C143.325 8.04313 142.868 7.76807 142.237 7.76807C141.738 7.76807 141.353 7.96696 141.082 8.36475C140.811 8.7583 140.676 9.35286 140.676 10.1484Z" fill="#CBADFF"/>
</svg>
