<svg width="470" height="522" viewBox="0 0 470 522" fill="none" xmlns="http://www.w3.org/2000/svg">
<path d="M20 3C20 1.34315 21.3431 0 23 0H408C409.657 0 411 1.34315 411 3V27C411 28.6569 409.657 30 408 30H23C21.3431 30 20 28.6569 20 27V3Z" fill="white" fill-opacity="0.06"/>
<path d="M35.7959 15.8804C34.7507 15.5799 33.9889 15.2118 33.5107 14.7759C33.0368 14.3358 32.7998 13.7941 32.7998 13.1509C32.7998 12.423 33.0897 11.8221 33.6694 11.3481C34.2534 10.87 35.0109 10.6309 35.9419 10.6309C36.5767 10.6309 37.1416 10.7536 37.6367 10.999C38.1361 11.2445 38.5212 11.583 38.792 12.0146C39.0671 12.4463 39.2046 12.9181 39.2046 13.4302H37.9795C37.9795 12.8716 37.8018 12.4336 37.4463 12.1162C37.0908 11.7946 36.5894 11.6338 35.9419 11.6338C35.341 11.6338 34.8713 11.7671 34.5327 12.0337C34.1984 12.2961 34.0312 12.6621 34.0312 13.1318C34.0312 13.5085 34.1899 13.828 34.5073 14.0903C34.8289 14.3485 35.3727 14.5854 36.1387 14.8013C36.9089 15.0171 37.5098 15.2562 37.9414 15.5186C38.3773 15.7767 38.6989 16.0793 38.9062 16.4263C39.1178 16.7733 39.2236 17.1816 39.2236 17.6514C39.2236 18.4004 38.9316 19.0013 38.3477 19.4541C37.7637 19.9027 36.9829 20.127 36.0054 20.127C35.3706 20.127 34.7782 20.0063 34.228 19.7651C33.6779 19.5197 33.2526 19.1854 32.9521 18.7622C32.6559 18.339 32.5078 17.8587 32.5078 17.3213H33.7329C33.7329 17.8799 33.9382 18.3221 34.3486 18.6479C34.7633 18.9696 35.3156 19.1304 36.0054 19.1304C36.6486 19.1304 37.1416 18.9992 37.4844 18.7368C37.8271 18.4744 37.9985 18.1169 37.9985 17.6641C37.9985 17.2113 37.8398 16.8621 37.5225 16.6167C37.2051 16.367 36.6296 16.1216 35.7959 15.8804ZM43.4575 20.127C42.5265 20.127 41.769 19.8223 41.1851 19.2129C40.6011 18.5993 40.3091 17.7804 40.3091 16.7563V16.5405C40.3091 15.8592 40.4382 15.252 40.6963 14.7188C40.9587 14.1813 41.3226 13.7624 41.7881 13.4619C42.2578 13.1572 42.7656 13.0049 43.3115 13.0049C44.2044 13.0049 44.8984 13.299 45.3936 13.8872C45.8887 14.4754 46.1362 15.3175 46.1362 16.4136V16.9023H41.4834C41.5003 17.5794 41.6971 18.1274 42.0737 18.5464C42.4546 18.9611 42.937 19.1685 43.521 19.1685C43.9357 19.1685 44.2869 19.0838 44.5747 18.9146C44.8625 18.7453 45.1143 18.521 45.3301 18.2417L46.0474 18.8003C45.4718 19.6847 44.6086 20.127 43.4575 20.127ZM43.3115 13.9697C42.8376 13.9697 42.4398 14.1432 42.1182 14.4902C41.7965 14.833 41.5977 15.3154 41.5215 15.9375H44.9619V15.8486C44.9281 15.252 44.7673 14.7907 44.4795 14.4648C44.1917 14.1348 43.8024 13.9697 43.3115 13.9697ZM51.7412 20C51.6735 19.8646 51.6185 19.6234 51.5762 19.2764C51.0303 19.8434 50.3786 20.127 49.6211 20.127C48.944 20.127 48.3875 19.9365 47.9517 19.5557C47.52 19.1706 47.3042 18.6839 47.3042 18.0957C47.3042 17.3805 47.575 16.8262 48.1167 16.4326C48.6626 16.0348 49.4285 15.8359 50.4146 15.8359H51.5571V15.2964C51.5571 14.8859 51.4344 14.5601 51.189 14.3188C50.9435 14.0734 50.5817 13.9507 50.1035 13.9507C49.6846 13.9507 49.3333 14.0565 49.0498 14.2681C48.7663 14.4797 48.6245 14.7357 48.6245 15.0361H47.4438C47.4438 14.6934 47.5645 14.3633 47.8057 14.0459C48.0511 13.7243 48.3812 13.4704 48.7959 13.2842C49.2148 13.098 49.674 13.0049 50.1733 13.0049C50.9647 13.0049 51.5846 13.2038 52.0332 13.6016C52.4818 13.9951 52.7145 14.5389 52.7314 15.2329V18.394C52.7314 19.0246 52.8118 19.526 52.9727 19.8984V20H51.7412ZM49.7925 19.105C50.1606 19.105 50.5098 19.0098 50.8398 18.8193C51.1699 18.6289 51.409 18.3813 51.5571 18.0767V16.6675H50.6367C49.1979 16.6675 48.4785 17.0885 48.4785 17.9307C48.4785 18.2988 48.6012 18.5866 48.8467 18.7939C49.0921 19.0013 49.4074 19.105 49.7925 19.105ZM57.8921 14.1855C57.7144 14.1559 57.5218 14.1411 57.3145 14.1411C56.5443 14.1411 56.0216 14.4691 55.7466 15.125V20H54.5723V13.1318H55.7148L55.7339 13.9253C56.119 13.3117 56.6649 13.0049 57.3716 13.0049C57.6001 13.0049 57.7736 13.0345 57.8921 13.0938V14.1855ZM61.6055 19.1685C62.0244 19.1685 62.3905 19.0415 62.7036 18.7876C63.0168 18.5337 63.1903 18.2163 63.2241 17.8354H64.335C64.3138 18.229 64.1784 18.6035 63.9287 18.959C63.679 19.3145 63.3447 19.598 62.9258 19.8096C62.5111 20.0212 62.071 20.127 61.6055 20.127C60.6702 20.127 59.9255 19.8159 59.3711 19.1938C58.821 18.5675 58.5459 17.7127 58.5459 16.6294V16.4326C58.5459 15.764 58.6686 15.1694 58.9141 14.6489C59.1595 14.1284 59.5107 13.7243 59.9678 13.4365C60.429 13.1488 60.9728 13.0049 61.5991 13.0049C62.3693 13.0049 63.0083 13.2355 63.5161 13.6968C64.0282 14.158 64.3011 14.7568 64.335 15.4932H63.2241C63.1903 15.0488 63.021 14.6849 62.7163 14.4014C62.4159 14.1136 62.0435 13.9697 61.5991 13.9697C61.0024 13.9697 60.5391 14.1855 60.209 14.6172C59.8831 15.0446 59.7202 15.6646 59.7202 16.4771V16.6992C59.7202 17.4906 59.8831 18.0999 60.209 18.5273C60.5348 18.9548 61.0003 19.1685 61.6055 19.1685ZM66.8296 13.9634C67.3501 13.3244 68.0272 13.0049 68.8608 13.0049C70.3123 13.0049 71.0444 13.8237 71.0571 15.4614V20H69.8828V15.4551C69.8786 14.96 69.7643 14.5939 69.54 14.3569C69.32 14.12 68.9751 14.0015 68.5054 14.0015C68.1245 14.0015 67.7902 14.103 67.5024 14.3062C67.2147 14.5093 66.9904 14.7759 66.8296 15.106V20H65.6553V10.25H66.8296V13.9634ZM72.8408 19.3843C72.8408 19.1812 72.9001 19.0119 73.0186 18.8765C73.1413 18.741 73.3232 18.6733 73.5645 18.6733C73.8057 18.6733 73.9876 18.741 74.1104 18.8765C74.2373 19.0119 74.3008 19.1812 74.3008 19.3843C74.3008 19.5789 74.2373 19.7419 74.1104 19.873C73.9876 20.0042 73.8057 20.0698 73.5645 20.0698C73.3232 20.0698 73.1413 20.0042 73.0186 19.873C72.9001 19.7419 72.8408 19.5789 72.8408 19.3843ZM76.2686 19.3843C76.2686 19.1812 76.3278 19.0119 76.4463 18.8765C76.569 18.741 76.751 18.6733 76.9922 18.6733C77.2334 18.6733 77.4154 18.741 77.5381 18.8765C77.665 19.0119 77.7285 19.1812 77.7285 19.3843C77.7285 19.5789 77.665 19.7419 77.5381 19.873C77.4154 20.0042 77.2334 20.0698 76.9922 20.0698C76.751 20.0698 76.569 20.0042 76.4463 19.873C76.3278 19.7419 76.2686 19.5789 76.2686 19.3843ZM79.6963 19.3843C79.6963 19.1812 79.7555 19.0119 79.874 18.8765C79.9967 18.741 80.1787 18.6733 80.4199 18.6733C80.6611 18.6733 80.8431 18.741 80.9658 18.8765C81.0928 19.0119 81.1562 19.1812 81.1562 19.3843C81.1562 19.5789 81.0928 19.7419 80.9658 19.873C80.8431 20.0042 80.6611 20.0698 80.4199 20.0698C80.1787 20.0698 79.9967 20.0042 79.874 19.873C79.7555 19.7419 79.6963 19.5789 79.6963 19.3843Z" fill="white" fill-opacity="0.64"/>
<path fill-rule="evenodd" clip-rule="evenodd" d="M402.085 17.8307L404.058 19.7814C404.367 20.0877 404.367 20.5847 404.058 20.891C403.747 21.1973 403.245 21.1973 402.935 20.891L400.827 18.8053L399.499 17.4925L398.95 16.9503C397.791 17.7729 396.279 18.1341 394.666 17.6468C392.998 17.1417 391.698 15.7413 391.353 14.0502C390.651 10.6072 393.659 7.63227 397.14 8.32651C398.85 8.66769 400.266 9.9538 400.777 11.6034C401.27 13.1988 400.905 14.694 400.072 15.84L400.625 16.3836L402.085 17.8307ZM396.125 9.7083C394.257 9.7083 392.75 11.1991 392.75 13.046C392.75 14.8928 394.257 16.3836 396.125 16.3836C397.992 16.3836 399.5 14.8928 399.5 13.046C399.5 11.1991 397.992 9.7083 396.125 9.7083Z" fill="white" fill-opacity="0.64"/>
<path d="M441 14H435V8H433V14H427V16H433V22H435V16H441V14Z" fill="white" fill-opacity="0.64"/>
<path d="M20 81.5L127.5 81.5" stroke="white" stroke-opacity="0.15"/>
<path d="M40.2773 66.5H38.6777V62.3931H34.5454V66.5H32.9395V57.2578H34.5454V61.1045H38.6777V57.2578H40.2773V66.5ZM45.0571 66.627C44.0796 66.627 43.2861 66.3201 42.6768 65.7065C42.0716 65.0887 41.769 64.2677 41.769 63.2437V63.0532C41.769 62.3677 41.9002 61.7562 42.1626 61.2188C42.4292 60.6771 42.8016 60.256 43.2798 59.9556C43.758 59.6551 44.2912 59.5049 44.8794 59.5049C45.8146 59.5049 46.5361 59.8032 47.0439 60.3999C47.556 60.9966 47.812 61.8408 47.812 62.9326V63.5547H43.3242C43.3708 64.1217 43.5591 64.5703 43.8892 64.9004C44.2235 65.2305 44.6424 65.3955 45.146 65.3955C45.8527 65.3955 46.4282 65.1099 46.8726 64.5386L47.7041 65.332C47.429 65.7425 47.0609 66.062 46.5996 66.2905C46.1426 66.5148 45.6284 66.627 45.0571 66.627ZM44.873 60.7427C44.4499 60.7427 44.1071 60.8908 43.8447 61.187C43.5866 61.4832 43.4215 61.8958 43.3496 62.4248H46.2886V62.3105C46.2547 61.7943 46.1172 61.4049 45.876 61.1426C45.6348 60.876 45.3005 60.7427 44.873 60.7427ZM53.1187 66.5C53.0509 66.3688 52.9917 66.1551 52.9409 65.8589C52.45 66.3709 51.8491 66.627 51.1382 66.627C50.4484 66.627 49.8856 66.4302 49.4497 66.0366C49.0138 65.6431 48.7959 65.1564 48.7959 64.5767C48.7959 63.8446 49.0667 63.2839 49.6084 62.8945C50.1543 62.501 50.9329 62.3042 51.9443 62.3042H52.8901V61.8535C52.8901 61.498 52.7907 61.2145 52.5918 61.0029C52.3929 60.7871 52.0903 60.6792 51.6841 60.6792C51.3328 60.6792 51.0451 60.7681 50.8208 60.9458C50.5965 61.1193 50.4844 61.3415 50.4844 61.6123H48.9419C48.9419 61.2357 49.0667 60.8844 49.3164 60.5586C49.5661 60.2285 49.9046 59.9704 50.332 59.7842C50.7637 59.598 51.244 59.5049 51.7729 59.5049C52.577 59.5049 53.2181 59.708 53.6963 60.1143C54.1745 60.5163 54.4199 61.0833 54.4326 61.8154V64.9131C54.4326 65.5309 54.5194 66.0239 54.6929 66.3921V66.5H53.1187ZM51.4238 65.3892C51.7285 65.3892 52.0142 65.3151 52.2808 65.167C52.5516 65.0189 52.7547 64.82 52.8901 64.5703V63.2754H52.0586C51.4873 63.2754 51.0578 63.3748 50.77 63.5737C50.4823 63.7726 50.3384 64.054 50.3384 64.418C50.3384 64.7142 50.4357 64.9512 50.6304 65.1289C50.8293 65.3024 51.0938 65.3892 51.4238 65.3892ZM57.689 66.5H56.1465V56.75H57.689V66.5ZM61.3071 57.9624V59.6318H62.5195V60.7744H61.3071V64.6084C61.3071 64.8708 61.3579 65.0612 61.4595 65.1797C61.5653 65.2939 61.7515 65.3511 62.0181 65.3511C62.1958 65.3511 62.3757 65.3299 62.5576 65.2876V66.481C62.2064 66.5783 61.8678 66.627 61.542 66.627C60.3571 66.627 59.7646 65.9731 59.7646 64.6655V60.7744H58.6348V59.6318H59.7646V57.9624H61.3071ZM65.2236 60.3809C65.7272 59.7969 66.3641 59.5049 67.1343 59.5049C68.5985 59.5049 69.3411 60.3407 69.3623 62.0122V66.5H67.8198V62.0693C67.8198 61.5954 67.7161 61.2611 67.5088 61.0664C67.3057 60.8675 67.0052 60.7681 66.6074 60.7681C65.9896 60.7681 65.5283 61.0431 65.2236 61.5933V66.5H63.6812V56.75H65.2236V60.3809Z" fill="white" fill-opacity="0.64"/>
<line x1="127.221" y1="42" x2="127.221" y2="81" stroke="white" stroke-opacity="0.15"/>
<path d="M127.5 81.5L235 81.5" stroke="white" stroke-opacity="0.15"/>
<path d="M140.439 66.5V57.2578H143.169C143.986 57.2578 144.709 57.4398 145.34 57.8037C145.975 58.1676 146.465 58.6839 146.812 59.3525C147.16 60.0212 147.333 60.7871 147.333 61.6504V62.1138C147.333 62.9897 147.157 63.7599 146.806 64.4243C146.459 65.0887 145.962 65.6007 145.314 65.9604C144.671 66.3201 143.933 66.5 143.099 66.5H140.439ZM142.045 58.5527V65.2178H143.093C143.935 65.2178 144.58 64.9554 145.029 64.4307C145.482 63.9017 145.712 63.1442 145.721 62.1582V61.644C145.721 60.6411 145.503 59.8752 145.067 59.3462C144.631 58.8172 143.998 58.5527 143.169 58.5527H142.045ZM151.808 66.627C150.831 66.627 150.037 66.3201 149.428 65.7065C148.823 65.0887 148.52 64.2677 148.52 63.2437V63.0532C148.52 62.3677 148.651 61.7562 148.914 61.2188C149.18 60.6771 149.553 60.256 150.031 59.9556C150.509 59.6551 151.042 59.5049 151.63 59.5049C152.566 59.5049 153.287 59.8032 153.795 60.3999C154.307 60.9966 154.563 61.8408 154.563 62.9326V63.5547H150.075C150.122 64.1217 150.31 64.5703 150.64 64.9004C150.974 65.2305 151.393 65.3955 151.897 65.3955C152.604 65.3955 153.179 65.1099 153.624 64.5386L154.455 65.332C154.18 65.7425 153.812 66.062 153.351 66.2905C152.894 66.5148 152.379 66.627 151.808 66.627ZM151.624 60.7427C151.201 60.7427 150.858 60.8908 150.596 61.187C150.338 61.4832 150.173 61.8958 150.101 62.4248H153.04V62.3105C153.006 61.7943 152.868 61.4049 152.627 61.1426C152.386 60.876 152.051 60.7427 151.624 60.7427ZM159.616 64.6338C159.616 64.3587 159.501 64.1493 159.273 64.0054C159.049 63.8615 158.674 63.7345 158.149 63.6245C157.625 63.5145 157.187 63.3748 156.835 63.2056C156.065 62.8332 155.68 62.2936 155.68 61.5869C155.68 60.9945 155.93 60.4993 156.429 60.1016C156.929 59.7038 157.563 59.5049 158.333 59.5049C159.154 59.5049 159.817 59.708 160.32 60.1143C160.828 60.5205 161.082 61.0474 161.082 61.6948H159.54C159.54 61.3986 159.43 61.1532 159.209 60.9585C158.989 60.7596 158.697 60.6602 158.333 60.6602C157.995 60.6602 157.718 60.7384 157.502 60.895C157.29 61.0516 157.185 61.2611 157.185 61.5234C157.185 61.7604 157.284 61.9445 157.483 62.0757C157.682 62.2069 158.084 62.3402 158.689 62.4756C159.294 62.6068 159.768 62.7655 160.111 62.9517C160.458 63.1336 160.714 63.3537 160.879 63.6118C161.048 63.87 161.133 64.1831 161.133 64.5513C161.133 65.1691 160.877 65.6706 160.365 66.0557C159.853 66.4365 159.182 66.627 158.353 66.627C157.79 66.627 157.288 66.5254 156.848 66.3223C156.408 66.1191 156.065 65.8398 155.82 65.4844C155.574 65.1289 155.452 64.7459 155.452 64.3354H156.95C156.971 64.6994 157.108 64.9808 157.362 65.1797C157.616 65.3743 157.953 65.4717 158.372 65.4717C158.778 65.4717 159.087 65.3955 159.298 65.2432C159.51 65.0866 159.616 64.8835 159.616 64.6338ZM165.303 65.3955C165.688 65.3955 166.008 65.2834 166.262 65.0591C166.516 64.8348 166.651 64.5576 166.668 64.2275H168.122C168.105 64.6549 167.971 65.0549 167.722 65.4272C167.472 65.7954 167.133 66.0874 166.706 66.3032C166.279 66.519 165.817 66.627 165.322 66.627C164.362 66.627 163.6 66.3159 163.037 65.6938C162.474 65.0718 162.193 64.2127 162.193 63.1167V62.958C162.193 61.9128 162.472 61.077 163.031 60.4507C163.589 59.8201 164.351 59.5049 165.316 59.5049C166.133 59.5049 166.797 59.744 167.309 60.2222C167.825 60.6961 168.096 61.3203 168.122 62.0947H166.668C166.651 61.7012 166.516 61.3774 166.262 61.1235C166.012 60.8696 165.693 60.7427 165.303 60.7427C164.804 60.7427 164.419 60.9246 164.148 61.2886C163.877 61.6483 163.74 62.1963 163.735 62.9326V63.1802C163.735 63.925 163.869 64.4814 164.135 64.8496C164.406 65.2135 164.795 65.3955 165.303 65.3955ZM172.882 61.041C172.679 61.0072 172.47 60.9902 172.254 60.9902C171.547 60.9902 171.071 61.2611 170.826 61.8027V66.5H169.283V59.6318H170.756L170.794 60.3999C171.166 59.8032 171.683 59.5049 172.343 59.5049C172.563 59.5049 172.745 59.5345 172.889 59.5938L172.882 61.041ZM175.498 66.5H173.955V59.6318H175.498V66.5ZM173.86 57.8481C173.86 57.6112 173.934 57.4144 174.082 57.2578C174.234 57.1012 174.45 57.0229 174.729 57.0229C175.009 57.0229 175.225 57.1012 175.377 57.2578C175.529 57.4144 175.605 57.6112 175.605 57.8481C175.605 58.0809 175.529 58.2756 175.377 58.4321C175.225 58.5845 175.009 58.6606 174.729 58.6606C174.45 58.6606 174.234 58.5845 174.082 58.4321C173.934 58.2756 173.86 58.0809 173.86 57.8481ZM183.197 63.1357C183.197 64.1979 182.956 65.0464 182.474 65.6812C181.991 66.3117 181.344 66.627 180.531 66.627C179.778 66.627 179.175 66.3794 178.722 65.8843V69.1406H177.18V59.6318H178.602L178.665 60.3301C179.118 59.7799 179.734 59.5049 180.512 59.5049C181.35 59.5049 182.006 59.818 182.48 60.4443C182.958 61.0664 183.197 61.9318 183.197 63.0405V63.1357ZM181.661 63.0024C181.661 62.3169 181.524 61.7731 181.249 61.3711C180.978 60.9691 180.588 60.7681 180.081 60.7681C179.45 60.7681 178.997 61.0283 178.722 61.5488V64.5957C179.001 65.1289 179.458 65.3955 180.093 65.3955C180.584 65.3955 180.967 65.1987 181.242 64.8052C181.521 64.4074 181.661 63.8065 181.661 63.0024ZM186.441 57.9624V59.6318H187.653V60.7744H186.441V64.6084C186.441 64.8708 186.492 65.0612 186.593 65.1797C186.699 65.2939 186.885 65.3511 187.152 65.3511C187.33 65.3511 187.509 65.3299 187.691 65.2876V66.481C187.34 66.5783 187.002 66.627 186.676 66.627C185.491 66.627 184.898 65.9731 184.898 64.6655V60.7744H183.769V59.6318H184.898V57.9624H186.441ZM190.478 66.5H188.936V59.6318H190.478V66.5ZM188.84 57.8481C188.84 57.6112 188.914 57.4144 189.062 57.2578C189.215 57.1012 189.431 57.0229 189.71 57.0229C189.989 57.0229 190.205 57.1012 190.357 57.2578C190.51 57.4144 190.586 57.6112 190.586 57.8481C190.586 58.0809 190.51 58.2756 190.357 58.4321C190.205 58.5845 189.989 58.6606 189.71 58.6606C189.431 58.6606 189.215 58.5845 189.062 58.4321C188.914 58.2756 188.84 58.0809 188.84 57.8481ZM191.875 63.0024C191.875 62.3296 192.008 61.7244 192.274 61.187C192.541 60.6453 192.916 60.2306 193.398 59.9429C193.88 59.6509 194.435 59.5049 195.061 59.5049C195.988 59.5049 196.739 59.8032 197.314 60.3999C197.894 60.9966 198.207 61.7879 198.254 62.7739L198.26 63.1357C198.26 63.8128 198.129 64.418 197.867 64.9512C197.609 65.4844 197.236 65.897 196.75 66.189C196.267 66.481 195.708 66.627 195.074 66.627C194.105 66.627 193.328 66.3053 192.744 65.6621C192.164 65.0146 191.875 64.1535 191.875 63.0786V63.0024ZM193.417 63.1357C193.417 63.8424 193.563 64.3968 193.855 64.7988C194.147 65.1966 194.553 65.3955 195.074 65.3955C195.594 65.3955 195.998 65.1924 196.286 64.7861C196.578 64.3799 196.724 63.7853 196.724 63.0024C196.724 62.3084 196.574 61.7583 196.273 61.3521C195.977 60.9458 195.573 60.7427 195.061 60.7427C194.557 60.7427 194.158 60.9437 193.861 61.3457C193.565 61.7435 193.417 62.3402 193.417 63.1357ZM200.996 59.6318L201.041 60.4253C201.548 59.8117 202.215 59.5049 203.04 59.5049C204.47 59.5049 205.198 60.3237 205.224 61.9614V66.5H203.681V62.0503C203.681 61.6144 203.586 61.2928 203.396 61.0854C203.209 60.8739 202.903 60.7681 202.475 60.7681C201.853 60.7681 201.39 61.0495 201.085 61.6123V66.5H199.542V59.6318H200.996Z" fill="white" fill-opacity="0.64"/>
<line x1="234.721" y1="42" x2="234.721" y2="81" stroke="white" stroke-opacity="0.15"/>
<path d="M235 81.5L342.5 81.5" stroke="white" stroke-opacity="0.15"/>
<path d="M247.939 66.5V57.2578H250.669C251.486 57.2578 252.209 57.4398 252.84 57.8037C253.475 58.1676 253.965 58.6839 254.312 59.3525C254.66 60.0212 254.833 60.7871 254.833 61.6504V62.1138C254.833 62.9897 254.657 63.7599 254.306 64.4243C253.959 65.0887 253.462 65.6007 252.814 65.9604C252.171 66.3201 251.433 66.5 250.599 66.5H247.939ZM249.545 58.5527V65.2178H250.593C251.435 65.2178 252.08 64.9554 252.529 64.4307C252.982 63.9017 253.212 63.1442 253.221 62.1582V61.644C253.221 60.6411 253.003 59.8752 252.567 59.3462C252.131 58.8172 251.498 58.5527 250.669 58.5527H249.545ZM260.444 65.8271C259.992 66.3604 259.348 66.627 258.515 66.627C257.77 66.627 257.205 66.409 256.82 65.9731C256.439 65.5373 256.249 64.9067 256.249 64.0815V59.6318H257.791V64.0625C257.791 64.9342 258.153 65.3701 258.876 65.3701C259.625 65.3701 260.131 65.1014 260.394 64.564V59.6318H261.936V66.5H260.482L260.444 65.8271ZM267.103 61.041C266.9 61.0072 266.69 60.9902 266.475 60.9902C265.768 60.9902 265.292 61.2611 265.046 61.8027V66.5H263.504V59.6318H264.977L265.015 60.3999C265.387 59.8032 265.903 59.5049 266.563 59.5049C266.784 59.5049 266.965 59.5345 267.109 59.5938L267.103 61.041ZM271.991 66.5C271.923 66.3688 271.864 66.1551 271.813 65.8589C271.322 66.3709 270.721 66.627 270.01 66.627C269.32 66.627 268.758 66.4302 268.322 66.0366C267.886 65.6431 267.668 65.1564 267.668 64.5767C267.668 63.8446 267.939 63.2839 268.48 62.8945C269.026 62.501 269.805 62.3042 270.816 62.3042H271.762V61.8535C271.762 61.498 271.663 61.2145 271.464 61.0029C271.265 60.7871 270.962 60.6792 270.556 60.6792C270.205 60.6792 269.917 60.7681 269.693 60.9458C269.469 61.1193 269.356 61.3415 269.356 61.6123H267.814C267.814 61.2357 267.939 60.8844 268.188 60.5586C268.438 60.2285 268.777 59.9704 269.204 59.7842C269.636 59.598 270.116 59.5049 270.645 59.5049C271.449 59.5049 272.09 59.708 272.568 60.1143C273.047 60.5163 273.292 61.0833 273.305 61.8154V64.9131C273.305 65.5309 273.391 66.0239 273.565 66.3921V66.5H271.991ZM270.296 65.3892C270.601 65.3892 270.886 65.3151 271.153 65.167C271.424 65.0189 271.627 64.82 271.762 64.5703V63.2754H270.931C270.359 63.2754 269.93 63.3748 269.642 63.5737C269.354 63.7726 269.21 64.054 269.21 64.418C269.21 64.7142 269.308 64.9512 269.502 65.1289C269.701 65.3024 269.966 65.3892 270.296 65.3892ZM276.853 57.9624V59.6318H278.065V60.7744H276.853V64.6084C276.853 64.8708 276.904 65.0612 277.005 65.1797C277.111 65.2939 277.297 65.3511 277.564 65.3511C277.742 65.3511 277.922 65.3299 278.104 65.2876V66.481C277.752 66.5783 277.414 66.627 277.088 66.627C275.903 66.627 275.311 65.9731 275.311 64.6655V60.7744H274.181V59.6318H275.311V57.9624H276.853ZM280.89 66.5H279.348V59.6318H280.89V66.5ZM279.252 57.8481C279.252 57.6112 279.326 57.4144 279.475 57.2578C279.627 57.1012 279.843 57.0229 280.122 57.0229C280.401 57.0229 280.617 57.1012 280.77 57.2578C280.922 57.4144 280.998 57.6112 280.998 57.8481C280.998 58.0809 280.922 58.2756 280.77 58.4321C280.617 58.5845 280.401 58.6606 280.122 58.6606C279.843 58.6606 279.627 58.5845 279.475 58.4321C279.326 58.2756 279.252 58.0809 279.252 57.8481ZM282.287 63.0024C282.287 62.3296 282.42 61.7244 282.687 61.187C282.953 60.6453 283.328 60.2306 283.81 59.9429C284.292 59.6509 284.847 59.5049 285.473 59.5049C286.4 59.5049 287.151 59.8032 287.727 60.3999C288.306 60.9966 288.619 61.7879 288.666 62.7739L288.672 63.1357C288.672 63.8128 288.541 64.418 288.279 64.9512C288.021 65.4844 287.648 65.897 287.162 66.189C286.679 66.481 286.121 66.627 285.486 66.627C284.517 66.627 283.74 66.3053 283.156 65.6621C282.576 65.0146 282.287 64.1535 282.287 63.0786V63.0024ZM283.829 63.1357C283.829 63.8424 283.975 64.3968 284.267 64.7988C284.559 65.1966 284.965 65.3955 285.486 65.3955C286.006 65.3955 286.41 65.1924 286.698 64.7861C286.99 64.3799 287.136 63.7853 287.136 63.0024C287.136 62.3084 286.986 61.7583 286.686 61.3521C286.389 60.9458 285.985 60.7427 285.473 60.7427C284.97 60.7427 284.57 60.9437 284.273 61.3457C283.977 61.7435 283.829 62.3402 283.829 63.1357ZM291.408 59.6318L291.453 60.4253C291.96 59.8117 292.627 59.5049 293.452 59.5049C294.882 59.5049 295.61 60.3237 295.636 61.9614V66.5H294.093V62.0503C294.093 61.6144 293.998 61.2928 293.808 61.0854C293.621 60.8739 293.315 60.7681 292.887 60.7681C292.265 60.7681 291.802 61.0495 291.497 61.6123V66.5H289.955V59.6318H291.408Z" fill="white" fill-opacity="0.64"/>
<line x1="342.221" y1="42" x2="342.221" y2="81" stroke="white" stroke-opacity="0.15"/>
<path d="M342.5 81.5L450 81.5" stroke="white" stroke-opacity="0.15"/>
<path d="M362.777 66.5H361.178V62.3931H357.045V66.5H355.439V57.2578H357.045V61.1045H361.178V57.2578H362.777V66.5ZM367.557 66.627C366.58 66.627 365.786 66.3201 365.177 65.7065C364.572 65.0887 364.269 64.2677 364.269 63.2437V63.0532C364.269 62.3677 364.4 61.7562 364.663 61.2188C364.929 60.6771 365.302 60.256 365.78 59.9556C366.258 59.6551 366.791 59.5049 367.379 59.5049C368.315 59.5049 369.036 59.8032 369.544 60.3999C370.056 60.9966 370.312 61.8408 370.312 62.9326V63.5547H365.824C365.871 64.1217 366.059 64.5703 366.389 64.9004C366.723 65.2305 367.142 65.3955 367.646 65.3955C368.353 65.3955 368.928 65.1099 369.373 64.5386L370.204 65.332C369.929 65.7425 369.561 66.062 369.1 66.2905C368.643 66.5148 368.128 66.627 367.557 66.627ZM367.373 60.7427C366.95 60.7427 366.607 60.8908 366.345 61.187C366.087 61.4832 365.922 61.8958 365.85 62.4248H368.789V62.3105C368.755 61.7943 368.617 61.4049 368.376 61.1426C368.135 60.876 367.8 60.7427 367.373 60.7427ZM375.619 66.5C375.551 66.3688 375.492 66.1551 375.441 65.8589C374.95 66.3709 374.349 66.627 373.638 66.627C372.948 66.627 372.386 66.4302 371.95 66.0366C371.514 65.6431 371.296 65.1564 371.296 64.5767C371.296 63.8446 371.567 63.2839 372.108 62.8945C372.654 62.501 373.433 62.3042 374.444 62.3042H375.39V61.8535C375.39 61.498 375.291 61.2145 375.092 61.0029C374.893 60.7871 374.59 60.6792 374.184 60.6792C373.833 60.6792 373.545 60.7681 373.321 60.9458C373.097 61.1193 372.984 61.3415 372.984 61.6123H371.442C371.442 61.2357 371.567 60.8844 371.816 60.5586C372.066 60.2285 372.405 59.9704 372.832 59.7842C373.264 59.598 373.744 59.5049 374.273 59.5049C375.077 59.5049 375.718 59.708 376.196 60.1143C376.674 60.5163 376.92 61.0833 376.933 61.8154V64.9131C376.933 65.5309 377.019 66.0239 377.193 66.3921V66.5H375.619ZM373.924 65.3892C374.229 65.3892 374.514 65.3151 374.781 65.167C375.052 65.0189 375.255 64.82 375.39 64.5703V63.2754H374.559C373.987 63.2754 373.558 63.3748 373.27 63.5737C372.982 63.7726 372.838 64.054 372.838 64.418C372.838 64.7142 372.936 64.9512 373.13 65.1289C373.329 65.3024 373.594 65.3892 373.924 65.3892ZM378.259 63.0151C378.259 61.9572 378.505 61.1087 378.996 60.4697C379.486 59.8265 380.145 59.5049 380.97 59.5049C381.698 59.5049 382.286 59.7588 382.734 60.2666V56.75H384.277V66.5H382.88L382.804 65.7891C382.343 66.3477 381.727 66.627 380.957 66.627C380.153 66.627 379.501 66.3032 379.002 65.6558C378.507 65.0083 378.259 64.1281 378.259 63.0151ZM379.802 63.1484C379.802 63.8467 379.935 64.3926 380.202 64.7861C380.472 65.1755 380.855 65.3701 381.351 65.3701C381.981 65.3701 382.442 65.0887 382.734 64.5259V61.5933C382.451 61.0431 381.994 60.7681 381.363 60.7681C380.864 60.7681 380.479 60.967 380.208 61.3647C379.937 61.7583 379.802 62.3529 379.802 63.1484ZM388.911 66.627C387.933 66.627 387.14 66.3201 386.53 65.7065C385.925 65.0887 385.623 64.2677 385.623 63.2437V63.0532C385.623 62.3677 385.754 61.7562 386.016 61.2188C386.283 60.6771 386.655 60.256 387.133 59.9556C387.611 59.6551 388.145 59.5049 388.733 59.5049C389.668 59.5049 390.39 59.8032 390.897 60.3999C391.41 60.9966 391.666 61.8408 391.666 62.9326V63.5547H387.178C387.224 64.1217 387.413 64.5703 387.743 64.9004C388.077 65.2305 388.496 65.3955 389 65.3955C389.706 65.3955 390.282 65.1099 390.726 64.5386L391.558 65.332C391.283 65.7425 390.914 66.062 390.453 66.2905C389.996 66.5148 389.482 66.627 388.911 66.627ZM388.727 60.7427C388.303 60.7427 387.961 60.8908 387.698 61.187C387.44 61.4832 387.275 61.8958 387.203 62.4248H390.142V62.3105C390.108 61.7943 389.971 61.4049 389.729 61.1426C389.488 60.876 389.154 60.7427 388.727 60.7427ZM396.464 61.041C396.261 61.0072 396.052 60.9902 395.836 60.9902C395.129 60.9902 394.653 61.2611 394.408 61.8027V66.5H392.865V59.6318H394.338L394.376 60.3999C394.748 59.8032 395.265 59.5049 395.925 59.5049C396.145 59.5049 396.327 59.5345 396.471 59.5938L396.464 61.041ZM402.317 66.5H400.774V56.75H402.317V66.5ZM407.027 66.627C406.049 66.627 405.256 66.3201 404.646 65.7065C404.041 65.0887 403.739 64.2677 403.739 63.2437V63.0532C403.739 62.3677 403.87 61.7562 404.132 61.2188C404.399 60.6771 404.771 60.256 405.25 59.9556C405.728 59.6551 406.261 59.5049 406.849 59.5049C407.784 59.5049 408.506 59.8032 409.014 60.3999C409.526 60.9966 409.782 61.8408 409.782 62.9326V63.5547H405.294C405.34 64.1217 405.529 64.5703 405.859 64.9004C406.193 65.2305 406.612 65.3955 407.116 65.3955C407.822 65.3955 408.398 65.1099 408.842 64.5386L409.674 65.332C409.399 65.7425 409.031 66.062 408.569 66.2905C408.112 66.5148 407.598 66.627 407.027 66.627ZM406.843 60.7427C406.42 60.7427 406.077 60.8908 405.814 61.187C405.556 61.4832 405.391 61.8958 405.319 62.4248H408.258V62.3105C408.224 61.7943 408.087 61.4049 407.846 61.1426C407.604 60.876 407.27 60.7427 406.843 60.7427ZM411.527 66.5V60.7744H410.48V59.6318H411.527V59.0034C411.527 58.2417 411.739 57.6535 412.162 57.2388C412.585 56.8241 413.178 56.6167 413.939 56.6167C414.21 56.6167 414.498 56.6548 414.803 56.731L414.765 57.937C414.595 57.9032 414.399 57.8862 414.174 57.8862C413.438 57.8862 413.07 58.265 413.07 59.0225V59.6318H414.466V60.7744H413.07V66.5H411.527ZM417.526 57.9624V59.6318H418.738V60.7744H417.526V64.6084C417.526 64.8708 417.577 65.0612 417.678 65.1797C417.784 65.2939 417.97 65.3511 418.237 65.3511C418.415 65.3511 418.594 65.3299 418.776 65.2876V66.481C418.425 66.5783 418.087 66.627 417.761 66.627C416.576 66.627 415.983 65.9731 415.983 64.6655V60.7744H414.854V59.6318H415.983V57.9624H417.526Z" fill="white" fill-opacity="0.64"/>
<line x1="449.721" y1="42" x2="449.721" y2="81" stroke="white" stroke-opacity="0.15"/>
<line x1="20" y1="121.5" x2="127" y2="121.5" stroke="white" stroke-opacity="0.15"/>
<line x1="127" y1="121.5" x2="235" y2="121.5" stroke="white" stroke-opacity="0.15"/>
<line x1="235" y1="121.5" x2="342" y2="121.5" stroke="white" stroke-opacity="0.15"/>
<line x1="342" y1="121.5" x2="450" y2="121.5" stroke="white" stroke-opacity="0.15"/>
<line x1="20" y1="161.5" x2="127" y2="161.5" stroke="white" stroke-opacity="0.15"/>
<line x1="127" y1="161.5" x2="235" y2="161.5" stroke="white" stroke-opacity="0.15"/>
<line x1="235" y1="161.5" x2="342" y2="161.5" stroke="white" stroke-opacity="0.15"/>
<line x1="342" y1="161.5" x2="450" y2="161.5" stroke="white" stroke-opacity="0.15"/>
<line x1="20" y1="201.5" x2="127" y2="201.5" stroke="white" stroke-opacity="0.15"/>
<line x1="127" y1="201.5" x2="235" y2="201.5" stroke="white" stroke-opacity="0.15"/>
<line x1="235" y1="201.5" x2="342" y2="201.5" stroke="white" stroke-opacity="0.15"/>
<line x1="342" y1="201.5" x2="450" y2="201.5" stroke="white" stroke-opacity="0.15"/>
<line x1="20" y1="241.5" x2="127" y2="241.5" stroke="white" stroke-opacity="0.15"/>
<line x1="127" y1="241.5" x2="235" y2="241.5" stroke="white" stroke-opacity="0.15"/>
<line x1="235" y1="241.5" x2="342" y2="241.5" stroke="white" stroke-opacity="0.15"/>
<line x1="342" y1="241.5" x2="450" y2="241.5" stroke="white" stroke-opacity="0.15"/>
<line x1="20" y1="281.5" x2="127" y2="281.5" stroke="white" stroke-opacity="0.15"/>
<line x1="127" y1="281.5" x2="235" y2="281.5" stroke="white" stroke-opacity="0.15"/>
<line x1="235" y1="281.5" x2="342" y2="281.5" stroke="white" stroke-opacity="0.15"/>
<line x1="342" y1="281.5" x2="450" y2="281.5" stroke="white" stroke-opacity="0.15"/>
<line x1="20" y1="321.5" x2="127" y2="321.5" stroke="white" stroke-opacity="0.15"/>
<line x1="127" y1="321.5" x2="235" y2="321.5" stroke="white" stroke-opacity="0.15"/>
<line x1="235" y1="321.5" x2="342" y2="321.5" stroke="white" stroke-opacity="0.15"/>
<line x1="342" y1="321.5" x2="450" y2="321.5" stroke="white" stroke-opacity="0.15"/>
<line x1="20" y1="361.5" x2="127" y2="361.5" stroke="white" stroke-opacity="0.15"/>
<line x1="127" y1="361.5" x2="235" y2="361.5" stroke="white" stroke-opacity="0.15"/>
<line x1="235" y1="361.5" x2="342" y2="361.5" stroke="white" stroke-opacity="0.15"/>
<line x1="342" y1="361.5" x2="450" y2="361.5" stroke="white" stroke-opacity="0.15"/>
<line x1="20" y1="401.5" x2="127" y2="401.5" stroke="white" stroke-opacity="0.15"/>
<line x1="127" y1="401.5" x2="235" y2="401.5" stroke="white" stroke-opacity="0.15"/>
<line x1="235" y1="401.5" x2="342" y2="401.5" stroke="white" stroke-opacity="0.15"/>
<line x1="342" y1="401.5" x2="450" y2="401.5" stroke="white" stroke-opacity="0.15"/>
<line x1="20" y1="441.5" x2="127" y2="441.5" stroke="white" stroke-opacity="0.15"/>
<line x1="127" y1="441.5" x2="235" y2="441.5" stroke="white" stroke-opacity="0.15"/>
<line x1="235" y1="441.5" x2="342" y2="441.5" stroke="white" stroke-opacity="0.15"/>
<line x1="342" y1="441.5" x2="450" y2="441.5" stroke="white" stroke-opacity="0.15"/>
<line x1="20" y1="481.5" x2="127" y2="481.5" stroke="white" stroke-opacity="0.15"/>
<line x1="127" y1="481.5" x2="235" y2="481.5" stroke="white" stroke-opacity="0.15"/>
<line x1="235" y1="481.5" x2="342" y2="481.5" stroke="white" stroke-opacity="0.15"/>
<line x1="342" y1="481.5" x2="450" y2="481.5" stroke="white" stroke-opacity="0.15"/>
<line x1="20" y1="521.5" x2="127" y2="521.5" stroke="white" stroke-opacity="0.15"/>
<line x1="127" y1="521.5" x2="235" y2="521.5" stroke="white" stroke-opacity="0.15"/>
<line x1="235" y1="521.5" x2="342" y2="521.5" stroke="white" stroke-opacity="0.15"/>
<line x1="342" y1="521.5" x2="450" y2="521.5" stroke="white" stroke-opacity="0.15"/>
</svg>
