<svg width="173" height="30" viewBox="0 0 173 30" fill="none" xmlns="http://www.w3.org/2000/svg">
<rect width="173" height="30" rx="15" fill="white" fill-opacity="0.1"/>
<path d="M22.7134 15.228H18.708V18.5034H23.3608V19.5H17.4893V10.2578H23.2974V11.2607H18.708V14.2314H22.7134V15.228ZM25.8047 12.6318L25.8428 13.4951C26.3675 12.835 27.0531 12.5049 27.8994 12.5049C29.3509 12.5049 30.083 13.3237 30.0957 14.9614V19.5H28.9214V14.9551C28.9172 14.46 28.8029 14.0939 28.5786 13.8569C28.3586 13.62 28.0137 13.5015 27.5439 13.5015C27.1631 13.5015 26.8288 13.603 26.541 13.8062C26.2533 14.0093 26.029 14.2759 25.8682 14.606V19.5H24.6938V12.6318H25.8047ZM33.46 10.9688V12.6318H34.7422V13.5396H33.46V17.7988C33.46 18.0739 33.5171 18.2812 33.6313 18.4209C33.7456 18.5563 33.9403 18.624 34.2153 18.624C34.3507 18.624 34.5369 18.5986 34.7739 18.5479V19.5C34.465 19.5846 34.1646 19.627 33.8726 19.627C33.3478 19.627 32.9521 19.4683 32.6855 19.1509C32.4189 18.8335 32.2856 18.3828 32.2856 17.7988V13.5396H31.0352V12.6318H32.2856V10.9688H33.46ZM37.3955 19.5H36.2212V12.6318H37.3955V19.5ZM36.126 10.8101C36.126 10.6196 36.1831 10.4588 36.2974 10.3276C36.4159 10.1965 36.5894 10.1309 36.8179 10.1309C37.0464 10.1309 37.2199 10.1965 37.3384 10.3276C37.4569 10.4588 37.5161 10.6196 37.5161 10.8101C37.5161 11.0005 37.4569 11.1592 37.3384 11.2861C37.2199 11.4131 37.0464 11.4766 36.8179 11.4766C36.5894 11.4766 36.4159 11.4131 36.2974 11.2861C36.1831 11.1592 36.126 11.0005 36.126 10.8101ZM40.874 10.9688V12.6318H42.1562V13.5396H40.874V17.7988C40.874 18.0739 40.9312 18.2812 41.0454 18.4209C41.1597 18.5563 41.3543 18.624 41.6294 18.624C41.7648 18.624 41.951 18.5986 42.188 18.5479V19.5C41.8791 19.5846 41.5786 19.627 41.2866 19.627C40.7619 19.627 40.3662 19.4683 40.0996 19.1509C39.833 18.8335 39.6997 18.3828 39.6997 17.7988V13.5396H38.4492V12.6318H39.6997V10.9688H40.874ZM45.7808 17.7798L47.3804 12.6318H48.6372L45.876 20.5601C45.4486 21.7026 44.7694 22.2739 43.8384 22.2739L43.6162 22.2549L43.1782 22.1724V21.2202L43.4956 21.2456C43.8934 21.2456 44.2023 21.1652 44.4224 21.0044C44.6466 20.8436 44.8307 20.5495 44.9746 20.1221L45.2349 19.4238L42.7847 12.6318H44.0669L45.7808 17.7798ZM55.8228 15.3804C54.7775 15.0799 54.0158 14.7118 53.5376 14.2759C53.0636 13.8358 52.8267 13.2941 52.8267 12.6509C52.8267 11.923 53.1165 11.3221 53.6963 10.8481C54.2803 10.37 55.0378 10.1309 55.9688 10.1309C56.6035 10.1309 57.1685 10.2536 57.6636 10.499C58.1629 10.7445 58.548 11.083 58.8188 11.5146C59.0939 11.9463 59.2314 12.4181 59.2314 12.9302H58.0063C58.0063 12.3716 57.8286 11.9336 57.4731 11.6162C57.1177 11.2946 56.6162 11.1338 55.9688 11.1338C55.3678 11.1338 54.8981 11.2671 54.5596 11.5337C54.2253 11.7961 54.0581 12.1621 54.0581 12.6318C54.0581 13.0085 54.2168 13.328 54.5342 13.5903C54.8558 13.8485 55.3996 14.0854 56.1655 14.3013C56.9357 14.5171 57.5366 14.7562 57.9683 15.0186C58.4041 15.2767 58.7257 15.5793 58.9331 15.9263C59.1447 16.2733 59.2505 16.6816 59.2505 17.1514C59.2505 17.9004 58.9585 18.5013 58.3745 18.9541C57.7905 19.4027 57.0098 19.627 56.0322 19.627C55.3975 19.627 54.805 19.5063 54.2549 19.2651C53.7048 19.0197 53.2795 18.6854 52.979 18.2622C52.6828 17.839 52.5347 17.3587 52.5347 16.8213H53.7598C53.7598 17.3799 53.965 17.8221 54.3755 18.1479C54.7902 18.4696 55.3424 18.6304 56.0322 18.6304C56.6755 18.6304 57.1685 18.4992 57.5112 18.2368C57.854 17.9744 58.0254 17.6169 58.0254 17.1641C58.0254 16.7113 57.8667 16.3621 57.5493 16.1167C57.2319 15.867 56.6564 15.6216 55.8228 15.3804ZM62.2275 10.9688V12.6318H63.5098V13.5396H62.2275V17.7988C62.2275 18.0739 62.2847 18.2812 62.3989 18.4209C62.5132 18.5563 62.7078 18.624 62.9829 18.624C63.1183 18.624 63.3045 18.5986 63.5415 18.5479V19.5C63.2326 19.5846 62.9321 19.627 62.6401 19.627C62.1154 19.627 61.7197 19.4683 61.4531 19.1509C61.1865 18.8335 61.0532 18.3828 61.0532 17.7988V13.5396H59.8027V12.6318H61.0532V10.9688H62.2275ZM69.1274 19.5C69.0597 19.3646 69.0047 19.1234 68.9624 18.7764C68.4165 19.3434 67.7648 19.627 67.0073 19.627C66.3302 19.627 65.7738 19.4365 65.3379 19.0557C64.9062 18.6706 64.6904 18.1839 64.6904 17.5957C64.6904 16.8805 64.9613 16.3262 65.5029 15.9326C66.0488 15.5348 66.8148 15.3359 67.8008 15.3359H68.9434V14.7964C68.9434 14.3859 68.8206 14.0601 68.5752 13.8188C68.3298 13.5734 67.9679 13.4507 67.4897 13.4507C67.0708 13.4507 66.7196 13.5565 66.436 13.7681C66.1525 13.9797 66.0107 14.2357 66.0107 14.5361H64.8301C64.8301 14.1934 64.9507 13.8633 65.1919 13.5459C65.4373 13.2243 65.7674 12.9704 66.1821 12.7842C66.6011 12.598 67.0602 12.5049 67.5596 12.5049C68.3509 12.5049 68.9709 12.7038 69.4194 13.1016C69.868 13.4951 70.1007 14.0389 70.1177 14.7329V17.894C70.1177 18.5246 70.1981 19.026 70.3589 19.3984V19.5H69.1274ZM67.1787 18.605C67.5469 18.605 67.896 18.5098 68.2261 18.3193C68.5562 18.1289 68.7952 17.8813 68.9434 17.5767V16.1675H68.0229C66.5841 16.1675 65.8647 16.5885 65.8647 17.4307C65.8647 17.7988 65.9875 18.0866 66.2329 18.2939C66.4784 18.5013 66.7936 18.605 67.1787 18.605ZM73.5518 10.9688V12.6318H74.834V13.5396H73.5518V17.7988C73.5518 18.0739 73.6089 18.2812 73.7231 18.4209C73.8374 18.5563 74.0321 18.624 74.3071 18.624C74.4425 18.624 74.6287 18.5986 74.8657 18.5479V19.5C74.5568 19.5846 74.2563 19.627 73.9644 19.627C73.4396 19.627 73.0439 19.4683 72.7773 19.1509C72.5107 18.8335 72.3774 18.3828 72.3774 17.7988V13.5396H71.127V12.6318H72.3774V10.9688H73.5518ZM80.4517 18.8208C79.9946 19.3582 79.3239 19.627 78.4395 19.627C77.7074 19.627 77.1488 19.4154 76.7637 18.9922C76.3828 18.5648 76.1903 17.9342 76.186 17.1006V12.6318H77.3604V17.0688C77.3604 18.1099 77.7835 18.6304 78.6299 18.6304C79.527 18.6304 80.1237 18.2961 80.4199 17.6274V12.6318H81.5942V19.5H80.4771L80.4517 18.8208ZM87.3833 17.6782C87.3833 17.3608 87.2627 17.1154 87.0215 16.9419C86.7845 16.7642 86.3677 16.6118 85.771 16.4849C85.1785 16.3579 84.7067 16.2056 84.3555 16.0278C84.0085 15.8501 83.7503 15.6385 83.5811 15.3931C83.416 15.1476 83.3335 14.8556 83.3335 14.5171C83.3335 13.9543 83.5705 13.4782 84.0444 13.0889C84.5226 12.6995 85.132 12.5049 85.8726 12.5049C86.6512 12.5049 87.2817 12.7059 87.7642 13.1079C88.2508 13.5099 88.4941 14.0241 88.4941 14.6504H87.3135C87.3135 14.3288 87.1759 14.0516 86.9009 13.8188C86.63 13.5861 86.2873 13.4697 85.8726 13.4697C85.4451 13.4697 85.1108 13.5628 84.8696 13.749C84.6284 13.9352 84.5078 14.1785 84.5078 14.479C84.5078 14.7625 84.62 14.9762 84.8442 15.1201C85.0685 15.264 85.4727 15.4015 86.0566 15.5327C86.6449 15.6639 87.1209 15.8205 87.4849 16.0024C87.8488 16.1844 88.1175 16.4045 88.291 16.6626C88.4688 16.9165 88.5576 17.2275 88.5576 17.5957C88.5576 18.2093 88.3122 18.7023 87.8213 19.0747C87.3304 19.4429 86.6935 19.627 85.9106 19.627C85.3605 19.627 84.8739 19.5296 84.4507 19.335C84.0275 19.1403 83.6953 18.8695 83.4541 18.5225C83.2171 18.1712 83.0986 17.7925 83.0986 17.3862H84.2729C84.2941 17.7798 84.4507 18.0929 84.7427 18.3257C85.0389 18.5542 85.4282 18.6685 85.9106 18.6685C86.355 18.6685 86.7104 18.5796 86.9771 18.4019C87.2479 18.2199 87.3833 17.9787 87.3833 17.6782ZM98.6821 14.333H93.3882V13.311H98.6821V14.333ZM98.6821 16.9673H93.3882V15.9517H98.6821V16.9673ZM108.959 17.0879H105.087L104.217 19.5H102.96L106.49 10.2578H107.556L111.092 19.5H109.841L108.959 17.0879ZM105.455 16.085H108.597L107.023 11.7622L105.455 16.085ZM114.907 18.6685C115.326 18.6685 115.692 18.5415 116.005 18.2876C116.318 18.0337 116.492 17.7163 116.525 17.3354H117.636C117.615 17.729 117.48 18.1035 117.23 18.459C116.98 18.8145 116.646 19.098 116.227 19.3096C115.812 19.5212 115.372 19.627 114.907 19.627C113.972 19.627 113.227 19.3159 112.672 18.6938C112.122 18.0675 111.847 17.2127 111.847 16.1294V15.9326C111.847 15.264 111.97 14.6694 112.215 14.1489C112.461 13.6284 112.812 13.2243 113.269 12.9365C113.73 12.6488 114.274 12.5049 114.9 12.5049C115.671 12.5049 116.31 12.7355 116.817 13.1968C117.329 13.658 117.602 14.2568 117.636 14.9932H116.525C116.492 14.5488 116.322 14.1849 116.018 13.9014C115.717 13.6136 115.345 13.4697 114.9 13.4697C114.304 13.4697 113.84 13.6855 113.51 14.1172C113.184 14.5446 113.021 15.1646 113.021 15.9771V16.1992C113.021 16.9906 113.184 17.5999 113.51 18.0273C113.836 18.4548 114.302 18.6685 114.907 18.6685ZM120.55 10.9688V12.6318H121.832V13.5396H120.55V17.7988C120.55 18.0739 120.607 18.2812 120.721 18.4209C120.835 18.5563 121.03 18.624 121.305 18.624C121.441 18.624 121.627 18.5986 121.864 18.5479V19.5C121.555 19.5846 121.254 19.627 120.962 19.627C120.438 19.627 120.042 19.4683 119.775 19.1509C119.509 18.8335 119.375 18.3828 119.375 17.7988V13.5396H118.125V12.6318H119.375V10.9688H120.55ZM124.485 19.5H123.311V12.6318H124.485V19.5ZM123.216 10.8101C123.216 10.6196 123.273 10.4588 123.387 10.3276C123.506 10.1965 123.679 10.1309 123.908 10.1309C124.136 10.1309 124.31 10.1965 124.428 10.3276C124.547 10.4588 124.606 10.6196 124.606 10.8101C124.606 11.0005 124.547 11.1592 124.428 11.2861C124.31 11.4131 124.136 11.4766 123.908 11.4766C123.679 11.4766 123.506 11.4131 123.387 11.2861C123.273 11.1592 123.216 11.0005 123.216 10.8101ZM128.637 17.9067L130.338 12.6318H131.538L129.075 19.5H128.18L125.691 12.6318H126.891L128.637 17.9067ZM135.429 19.627C134.498 19.627 133.74 19.3223 133.156 18.7129C132.572 18.0993 132.28 17.2804 132.28 16.2563V16.0405C132.28 15.3592 132.409 14.752 132.667 14.2188C132.93 13.6813 133.294 13.2624 133.759 12.9619C134.229 12.6572 134.737 12.5049 135.283 12.5049C136.176 12.5049 136.87 12.799 137.365 13.3872C137.86 13.9754 138.107 14.8175 138.107 15.9136V16.4023H133.455C133.472 17.0794 133.668 17.6274 134.045 18.0464C134.426 18.4611 134.908 18.6685 135.492 18.6685C135.907 18.6685 136.258 18.5838 136.546 18.4146C136.834 18.2453 137.085 18.021 137.301 17.7417L138.019 18.3003C137.443 19.1847 136.58 19.627 135.429 19.627ZM135.283 13.4697C134.809 13.4697 134.411 13.6432 134.089 13.9902C133.768 14.333 133.569 14.8154 133.493 15.4375H136.933V15.3486C136.899 14.752 136.738 14.2907 136.451 13.9648C136.163 13.6348 135.774 13.4697 135.283 13.4697Z" fill="white" fill-opacity="0.94"/>
<path fill-rule="evenodd" clip-rule="evenodd" d="M148.5 14.9405C148.5 10.8482 151.848 7.5 155.94 7.5C160.033 7.5 163.381 10.8482 163.381 14.9405C163.381 19.0327 160.033 22.381 155.94 22.381C151.848 22.381 148.5 19.0327 148.5 14.9405ZM158.619 18.6607L159.661 17.6191L156.982 14.9405L159.661 12.2619L158.619 11.2203L155.94 13.8988L153.262 11.2203L152.22 12.2619L154.899 14.9405L152.22 17.6191L153.262 18.6607L155.94 15.9822L158.619 18.6607Z" fill="white" fill-opacity="0.64"/>
</svg>
