<svg width="607" height="236" viewBox="0 0 607 236" fill="none" xmlns="http://www.w3.org/2000/svg">
<path d="M292 17L287 14.1132V19.8868L292 17ZM60 80.5H117.541V79.5H60V80.5ZM180.541 17.5H287.5V16.5H180.541V17.5ZM149.541 48.5C149.541 31.3792 163.42 17.5 180.541 17.5V16.5C162.867 16.5 148.541 30.8269 148.541 48.5H149.541ZM117.541 80.5C135.214 80.5 149.541 66.1731 149.541 48.5H148.541C148.541 65.6208 134.661 79.5 117.541 79.5V80.5Z" fill="white" fill-opacity="0.38"/>
<path d="M546 81L541 78.1132V83.8868L546 81ZM314 144.5H371.541V143.5H314V144.5ZM434.541 81.5H541.5V80.5H434.541V81.5ZM403.541 112.5C403.541 95.3792 417.42 81.5 434.541 81.5V80.5C416.867 80.5 402.541 94.8269 402.541 112.5H403.541ZM371.541 144.5C389.214 144.5 403.541 130.173 403.541 112.5H402.541C402.541 129.621 388.661 143.5 371.541 143.5V144.5Z" fill="white" fill-opacity="0.38"/>
<path d="M292 144L287 146.887V141.113L292 144ZM60 79.5H117.041V80.5H60V79.5ZM181.041 143.5H287.5V144.5H181.041V143.5ZM149.541 112C149.541 129.397 163.644 143.5 181.041 143.5V144.5C163.091 144.5 148.541 129.949 148.541 112H149.541ZM117.041 79.5C134.99 79.5 149.541 94.0507 149.541 112H148.541C148.541 94.603 134.437 80.5 117.041 80.5V79.5Z" fill="white" fill-opacity="0.38"/>
<path d="M546 208L541 210.887V205.113L546 208ZM314 143.5H371.041V144.5H314V143.5ZM435.041 207.5H541.5V208.5H435.041V207.5ZM403.541 176C403.541 193.397 417.644 207.5 435.041 207.5V208.5C417.091 208.5 402.541 193.949 402.541 176H403.541ZM371.041 143.5C388.99 143.5 403.541 158.051 403.541 176H402.541C402.541 158.603 388.437 144.5 371.041 144.5V143.5Z" fill="white" fill-opacity="0.38"/>
<path d="M545 17L540 14.1132V19.8868L545 17ZM313 17.5H540.5V16.5H313V17.5Z" fill="white" fill-opacity="0.38"/>
<circle cx="557.5" cy="17" r="6" fill="#40BF73"/>
<path fill-rule="evenodd" clip-rule="evenodd" d="M522.625 29.25C523.244 29.25 523.75 29.7562 523.75 30.375V32.625C523.75 33.2438 523.244 33.75 522.625 33.75H511.375C510.756 33.75 510.25 33.2438 510.25 32.625V30.375C510.25 29.7562 510.756 29.25 511.375 29.25H522.625ZM523.75 36.375C523.75 35.7562 523.244 35.25 522.625 35.25H511.375C510.756 35.25 510.25 35.7562 510.25 36.375V38.625C510.25 39.2438 510.756 39.75 511.375 39.75H516.25V41.2493H511C510.586 41.2493 510.25 41.5847 510.25 41.9993C510.25 42.4138 510.586 42.7493 511 42.7493H523C523.415 42.7493 523.75 42.4138 523.75 41.9993C523.75 41.5847 523.415 41.2493 523 41.2493H517.75V39.75H522.625C523.244 39.75 523.75 39.2438 523.75 38.625V36.375ZM522.25 36.75V38.25H511.75V36.75H522.25ZM522.25 30.75V32.25H511.75V30.75H522.25Z" fill="white" fill-opacity="0.94"/>
<path d="M532.744 36.8818V40.5H531.525V31.2578H534.934C535.945 31.2578 536.736 31.516 537.308 32.0322C537.883 32.5485 538.171 33.2319 538.171 34.0825C538.171 34.9797 537.889 35.6715 537.327 36.1582C536.768 36.6406 535.966 36.8818 534.921 36.8818H532.744ZM532.744 35.8853H534.934C535.585 35.8853 536.085 35.7329 536.432 35.4282C536.779 35.1193 536.952 34.675 536.952 34.0952C536.952 33.5451 536.779 33.105 536.432 32.7749C536.085 32.4448 535.609 32.2734 535.003 32.2607H532.744V35.8853ZM542.862 34.6855C542.684 34.6559 542.492 34.6411 542.284 34.6411C541.514 34.6411 540.991 34.9691 540.716 35.625V40.5H539.542V33.6318H540.685L540.704 34.4253C541.089 33.8117 541.635 33.5049 542.341 33.5049C542.57 33.5049 542.743 33.5345 542.862 33.5938V34.6855ZM545.223 40.5H544.049V33.6318H545.223V40.5ZM543.954 31.8101C543.954 31.6196 544.011 31.4588 544.125 31.3276C544.243 31.1965 544.417 31.1309 544.646 31.1309C544.874 31.1309 545.048 31.1965 545.166 31.3276C545.285 31.4588 545.344 31.6196 545.344 31.8101C545.344 32.0005 545.285 32.1592 545.166 32.2861C545.048 32.4131 544.874 32.4766 544.646 32.4766C544.417 32.4766 544.243 32.4131 544.125 32.2861C544.011 32.1592 543.954 32.0005 543.954 31.8101ZM548.213 33.6318L548.245 34.3936C548.748 33.8011 549.427 33.5049 550.282 33.5049C551.243 33.5049 551.897 33.873 552.244 34.6094C552.472 34.2793 552.768 34.0127 553.132 33.8096C553.5 33.6064 553.934 33.5049 554.434 33.5049C555.94 33.5049 556.706 34.3026 556.731 35.8979V40.5H555.557V35.9678C555.557 35.4769 555.445 35.1108 555.221 34.8696C554.996 34.6242 554.62 34.5015 554.091 34.5015C553.655 34.5015 553.293 34.6326 553.005 34.895C552.718 35.1532 552.55 35.5023 552.504 35.9424V40.5H551.323V35.9995C551.323 35.0008 550.834 34.5015 549.857 34.5015C549.087 34.5015 548.56 34.8294 548.276 35.4854V40.5H547.102V33.6318H548.213ZM562.749 40.5C562.681 40.3646 562.626 40.1234 562.584 39.7764C562.038 40.3434 561.386 40.627 560.629 40.627C559.952 40.627 559.395 40.4365 558.959 40.0557C558.528 39.6706 558.312 39.1839 558.312 38.5957C558.312 37.8805 558.583 37.3262 559.125 36.9326C559.67 36.5348 560.436 36.3359 561.422 36.3359H562.565V35.7964C562.565 35.3859 562.442 35.0601 562.197 34.8188C561.951 34.5734 561.59 34.4507 561.111 34.4507C560.692 34.4507 560.341 34.5565 560.058 34.7681C559.774 34.9797 559.632 35.2357 559.632 35.5361H558.452C558.452 35.1934 558.572 34.8633 558.813 34.5459C559.059 34.2243 559.389 33.9704 559.804 33.7842C560.223 33.598 560.682 33.5049 561.181 33.5049C561.972 33.5049 562.592 33.7038 563.041 34.1016C563.49 34.4951 563.722 35.0389 563.739 35.7329V38.894C563.739 39.5246 563.82 40.026 563.98 40.3984V40.5H562.749ZM560.8 39.605C561.168 39.605 561.518 39.5098 561.848 39.3193C562.178 39.1289 562.417 38.8813 562.565 38.5767V37.1675H561.645C560.206 37.1675 559.486 37.5885 559.486 38.4307C559.486 38.7988 559.609 39.0866 559.854 39.2939C560.1 39.5013 560.415 39.605 560.8 39.605ZM568.9 34.6855C568.722 34.6559 568.53 34.6411 568.322 34.6411C567.552 34.6411 567.029 34.9691 566.754 35.625V40.5H565.58V33.6318H566.723L566.742 34.4253C567.127 33.8117 567.673 33.5049 568.379 33.5049C568.608 33.5049 568.781 33.5345 568.9 33.5938V34.6855ZM572.347 38.7798L573.946 33.6318H575.203L572.442 41.5601C572.014 42.7026 571.335 43.2739 570.404 43.2739L570.182 43.2549L569.744 43.1724V42.2202L570.062 42.2456C570.459 42.2456 570.768 42.1652 570.988 42.0044C571.213 41.8436 571.397 41.5495 571.541 41.1221L571.801 40.4238L569.351 33.6318H570.633L572.347 38.7798ZM578.701 37.0532H575.603V36.0947H578.701V37.0532ZM581.125 40.5H579.951V30.75H581.125V40.5ZM587.251 40.5C587.183 40.3646 587.128 40.1234 587.086 39.7764C586.54 40.3434 585.888 40.627 585.131 40.627C584.454 40.627 583.897 40.4365 583.461 40.0557C583.03 39.6706 582.814 39.1839 582.814 38.5957C582.814 37.8805 583.085 37.3262 583.626 36.9326C584.172 36.5348 584.938 36.3359 585.924 36.3359H587.067V35.7964C587.067 35.3859 586.944 35.0601 586.699 34.8188C586.453 34.5734 586.091 34.4507 585.613 34.4507C585.194 34.4507 584.843 34.5565 584.56 34.7681C584.276 34.9797 584.134 35.2357 584.134 35.5361H582.954C582.954 35.1934 583.074 34.8633 583.315 34.5459C583.561 34.2243 583.891 33.9704 584.306 33.7842C584.725 33.598 585.184 33.5049 585.683 33.5049C586.474 33.5049 587.094 33.7038 587.543 34.1016C587.992 34.4951 588.224 35.0389 588.241 35.7329V38.894C588.241 39.5246 588.322 40.026 588.482 40.3984V40.5H587.251ZM585.302 39.605C585.67 39.605 586.02 39.5098 586.35 39.3193C586.68 39.1289 586.919 38.8813 587.067 38.5767V37.1675H586.146C584.708 37.1675 583.988 37.5885 583.988 38.4307C583.988 38.7988 584.111 39.0866 584.356 39.2939C584.602 39.5013 584.917 39.605 585.302 39.605ZM595.896 37.1421C595.896 38.1916 595.655 39.0358 595.173 39.6748C594.69 40.3096 594.043 40.627 593.23 40.627C592.363 40.627 591.692 40.3201 591.218 39.7065L591.161 40.5H590.082V30.75H591.256V34.3872C591.73 33.799 592.384 33.5049 593.218 33.5049C594.051 33.5049 594.705 33.8201 595.179 34.4507C595.657 35.0812 595.896 35.9445 595.896 37.0405V37.1421ZM594.722 37.0088C594.722 36.209 594.568 35.5911 594.259 35.1553C593.95 34.7194 593.506 34.5015 592.926 34.5015C592.151 34.5015 591.595 34.8612 591.256 35.5806V38.5513C591.616 39.2707 592.177 39.6304 592.938 39.6304C593.501 39.6304 593.939 39.4124 594.252 38.9766C594.566 38.5407 594.722 37.8848 594.722 37.0088ZM600.232 40.627C599.301 40.627 598.543 40.3223 597.959 39.7129C597.375 39.0993 597.083 38.2804 597.083 37.2563V37.0405C597.083 36.3592 597.213 35.752 597.471 35.2188C597.733 34.6813 598.097 34.2624 598.562 33.9619C599.032 33.6572 599.54 33.5049 600.086 33.5049C600.979 33.5049 601.673 33.799 602.168 34.3872C602.663 34.9754 602.911 35.8175 602.911 36.9136V37.4023H598.258C598.275 38.0794 598.472 38.6274 598.848 39.0464C599.229 39.4611 599.711 39.6685 600.295 39.6685C600.71 39.6685 601.061 39.5838 601.349 39.4146C601.637 39.2453 601.889 39.021 602.104 38.7417L602.822 39.3003C602.246 40.1847 601.383 40.627 600.232 40.627ZM600.086 34.4697C599.612 34.4697 599.214 34.6432 598.893 34.9902C598.571 35.333 598.372 35.8154 598.296 36.4375H601.736V36.3486C601.702 35.752 601.542 35.2907 601.254 34.9648C600.966 34.6348 600.577 34.4697 600.086 34.4697ZM605.551 40.5H604.377V30.75H605.551V40.5Z" fill="white" fill-opacity="0.94"/>
<circle cx="557.5" cy="80" r="6" fill="#40BF73"/>
<path fill-rule="evenodd" clip-rule="evenodd" d="M522.625 92.25C523.244 92.25 523.75 92.7562 523.75 93.375V95.625C523.75 96.2438 523.244 96.75 522.625 96.75H511.375C510.756 96.75 510.25 96.2438 510.25 95.625V93.375C510.25 92.7562 510.756 92.25 511.375 92.25H522.625ZM523.75 99.375C523.75 98.7562 523.244 98.25 522.625 98.25H511.375C510.756 98.25 510.25 98.7562 510.25 99.375V101.625C510.25 102.244 510.756 102.75 511.375 102.75H516.25V104.249H511C510.586 104.249 510.25 104.585 510.25 104.999C510.25 105.414 510.586 105.749 511 105.749H523C523.415 105.749 523.75 105.414 523.75 104.999C523.75 104.585 523.415 104.249 523 104.249H517.75V102.75H522.625C523.244 102.75 523.75 102.244 523.75 101.625V99.375ZM522.25 99.75V101.25H511.75V99.75H522.25ZM522.25 93.75V95.25H511.75V93.75H522.25Z" fill="white" fill-opacity="0.94"/>
<path d="M532.744 99.8818V103.5H531.525V94.2578H534.934C535.945 94.2578 536.736 94.516 537.308 95.0322C537.883 95.5485 538.171 96.2319 538.171 97.0825C538.171 97.9797 537.889 98.6715 537.327 99.1582C536.768 99.6406 535.966 99.8818 534.921 99.8818H532.744ZM532.744 98.8853H534.934C535.585 98.8853 536.085 98.7329 536.432 98.4282C536.779 98.1193 536.952 97.675 536.952 97.0952C536.952 96.5451 536.779 96.105 536.432 95.7749C536.085 95.4448 535.609 95.2734 535.003 95.2607H532.744V98.8853ZM542.862 97.6855C542.684 97.6559 542.492 97.6411 542.284 97.6411C541.514 97.6411 540.991 97.9691 540.716 98.625V103.5H539.542V96.6318H540.685L540.704 97.4253C541.089 96.8117 541.635 96.5049 542.341 96.5049C542.57 96.5049 542.743 96.5345 542.862 96.5938V97.6855ZM545.223 103.5H544.049V96.6318H545.223V103.5ZM543.954 94.8101C543.954 94.6196 544.011 94.4588 544.125 94.3276C544.243 94.1965 544.417 94.1309 544.646 94.1309C544.874 94.1309 545.048 94.1965 545.166 94.3276C545.285 94.4588 545.344 94.6196 545.344 94.8101C545.344 95.0005 545.285 95.1592 545.166 95.2861C545.048 95.4131 544.874 95.4766 544.646 95.4766C544.417 95.4766 544.243 95.4131 544.125 95.2861C544.011 95.1592 543.954 95.0005 543.954 94.8101ZM548.213 96.6318L548.245 97.3936C548.748 96.8011 549.427 96.5049 550.282 96.5049C551.243 96.5049 551.897 96.873 552.244 97.6094C552.472 97.2793 552.768 97.0127 553.132 96.8096C553.5 96.6064 553.934 96.5049 554.434 96.5049C555.94 96.5049 556.706 97.3026 556.731 98.8979V103.5H555.557V98.9678C555.557 98.4769 555.445 98.1108 555.221 97.8696C554.996 97.6242 554.62 97.5015 554.091 97.5015C553.655 97.5015 553.293 97.6326 553.005 97.895C552.718 98.1532 552.55 98.5023 552.504 98.9424V103.5H551.323V98.9995C551.323 98.0008 550.834 97.5015 549.857 97.5015C549.087 97.5015 548.56 97.8294 548.276 98.4854V103.5H547.102V96.6318H548.213ZM562.749 103.5C562.681 103.365 562.626 103.123 562.584 102.776C562.038 103.343 561.386 103.627 560.629 103.627C559.952 103.627 559.395 103.437 558.959 103.056C558.528 102.671 558.312 102.184 558.312 101.596C558.312 100.881 558.583 100.326 559.125 99.9326C559.67 99.5348 560.436 99.3359 561.422 99.3359H562.565V98.7964C562.565 98.3859 562.442 98.0601 562.197 97.8188C561.951 97.5734 561.59 97.4507 561.111 97.4507C560.692 97.4507 560.341 97.5565 560.058 97.7681C559.774 97.9797 559.632 98.2357 559.632 98.5361H558.452C558.452 98.1934 558.572 97.8633 558.813 97.5459C559.059 97.2243 559.389 96.9704 559.804 96.7842C560.223 96.598 560.682 96.5049 561.181 96.5049C561.972 96.5049 562.592 96.7038 563.041 97.1016C563.49 97.4951 563.722 98.0389 563.739 98.7329V101.894C563.739 102.525 563.82 103.026 563.98 103.398V103.5H562.749ZM560.8 102.605C561.168 102.605 561.518 102.51 561.848 102.319C562.178 102.129 562.417 101.881 562.565 101.577V100.167H561.645C560.206 100.167 559.486 100.589 559.486 101.431C559.486 101.799 559.609 102.087 559.854 102.294C560.1 102.501 560.415 102.605 560.8 102.605ZM568.9 97.6855C568.722 97.6559 568.53 97.6411 568.322 97.6411C567.552 97.6411 567.029 97.9691 566.754 98.625V103.5H565.58V96.6318H566.723L566.742 97.4253C567.127 96.8117 567.673 96.5049 568.379 96.5049C568.608 96.5049 568.781 96.5345 568.9 96.5938V97.6855ZM572.347 101.78L573.946 96.6318H575.203L572.442 104.56C572.014 105.703 571.335 106.274 570.404 106.274L570.182 106.255L569.744 106.172V105.22L570.062 105.246C570.459 105.246 570.768 105.165 570.988 105.004C571.213 104.844 571.397 104.549 571.541 104.122L571.801 103.424L569.351 96.6318H570.633L572.347 101.78ZM578.701 100.053H575.603V99.0947H578.701V100.053ZM581.125 103.5H579.951V93.75H581.125V103.5ZM587.251 103.5C587.183 103.365 587.128 103.123 587.086 102.776C586.54 103.343 585.888 103.627 585.131 103.627C584.454 103.627 583.897 103.437 583.461 103.056C583.03 102.671 582.814 102.184 582.814 101.596C582.814 100.881 583.085 100.326 583.626 99.9326C584.172 99.5348 584.938 99.3359 585.924 99.3359H587.067V98.7964C587.067 98.3859 586.944 98.0601 586.699 97.8188C586.453 97.5734 586.091 97.4507 585.613 97.4507C585.194 97.4507 584.843 97.5565 584.56 97.7681C584.276 97.9797 584.134 98.2357 584.134 98.5361H582.954C582.954 98.1934 583.074 97.8633 583.315 97.5459C583.561 97.2243 583.891 96.9704 584.306 96.7842C584.725 96.598 585.184 96.5049 585.683 96.5049C586.474 96.5049 587.094 96.7038 587.543 97.1016C587.992 97.4951 588.224 98.0389 588.241 98.7329V101.894C588.241 102.525 588.322 103.026 588.482 103.398V103.5H587.251ZM585.302 102.605C585.67 102.605 586.02 102.51 586.35 102.319C586.68 102.129 586.919 101.881 587.067 101.577V100.167H586.146C584.708 100.167 583.988 100.589 583.988 101.431C583.988 101.799 584.111 102.087 584.356 102.294C584.602 102.501 584.917 102.605 585.302 102.605ZM595.896 100.142C595.896 101.192 595.655 102.036 595.173 102.675C594.69 103.31 594.043 103.627 593.23 103.627C592.363 103.627 591.692 103.32 591.218 102.707L591.161 103.5H590.082V93.75H591.256V97.3872C591.73 96.799 592.384 96.5049 593.218 96.5049C594.051 96.5049 594.705 96.8201 595.179 97.4507C595.657 98.0812 595.896 98.9445 595.896 100.041V100.142ZM594.722 100.009C594.722 99.209 594.568 98.5911 594.259 98.1553C593.95 97.7194 593.506 97.5015 592.926 97.5015C592.151 97.5015 591.595 97.8612 591.256 98.5806V101.551C591.616 102.271 592.177 102.63 592.938 102.63C593.501 102.63 593.939 102.412 594.252 101.977C594.566 101.541 594.722 100.885 594.722 100.009ZM600.232 103.627C599.301 103.627 598.543 103.322 597.959 102.713C597.375 102.099 597.083 101.28 597.083 100.256V100.041C597.083 99.3592 597.213 98.752 597.471 98.2188C597.733 97.6813 598.097 97.2624 598.562 96.9619C599.032 96.6572 599.54 96.5049 600.086 96.5049C600.979 96.5049 601.673 96.799 602.168 97.3872C602.663 97.9754 602.911 98.8175 602.911 99.9136V100.402H598.258C598.275 101.079 598.472 101.627 598.848 102.046C599.229 102.461 599.711 102.668 600.295 102.668C600.71 102.668 601.061 102.584 601.349 102.415C601.637 102.245 601.889 102.021 602.104 101.742L602.822 102.3C602.246 103.185 601.383 103.627 600.232 103.627ZM600.086 97.4697C599.612 97.4697 599.214 97.6432 598.893 97.9902C598.571 98.333 598.372 98.8154 598.296 99.4375H601.736V99.3486C601.702 98.752 601.542 98.2907 601.254 97.9648C600.966 97.6348 600.577 97.4697 600.086 97.4697ZM605.551 103.5H604.377V93.75H605.551V103.5Z" fill="white" fill-opacity="0.94"/>
<circle cx="557.5" cy="208" r="6" fill="#40BF73"/>
<path fill-rule="evenodd" clip-rule="evenodd" d="M522.625 220.25C523.244 220.25 523.75 220.756 523.75 221.375V223.625C523.75 224.244 523.244 224.75 522.625 224.75H511.375C510.756 224.75 510.25 224.244 510.25 223.625V221.375C510.25 220.756 510.756 220.25 511.375 220.25H522.625ZM523.75 227.375C523.75 226.756 523.244 226.25 522.625 226.25H511.375C510.756 226.25 510.25 226.756 510.25 227.375V229.625C510.25 230.244 510.756 230.75 511.375 230.75H516.25V232.249H511C510.586 232.249 510.25 232.585 510.25 232.999C510.25 233.414 510.586 233.749 511 233.749H523C523.415 233.749 523.75 233.414 523.75 232.999C523.75 232.585 523.415 232.249 523 232.249H517.75V230.75H522.625C523.244 230.75 523.75 230.244 523.75 229.625V227.375ZM522.25 227.75V229.25H511.75V227.75H522.25ZM522.25 221.75V223.25H511.75V221.75H522.25Z" fill="white" fill-opacity="0.94"/>
<path d="M532.744 227.882V231.5H531.525V222.258H534.934C535.945 222.258 536.736 222.516 537.308 223.032C537.883 223.549 538.171 224.232 538.171 225.083C538.171 225.98 537.889 226.672 537.327 227.158C536.768 227.641 535.966 227.882 534.921 227.882H532.744ZM532.744 226.885H534.934C535.585 226.885 536.085 226.733 536.432 226.428C536.779 226.119 536.952 225.675 536.952 225.095C536.952 224.545 536.779 224.105 536.432 223.775C536.085 223.445 535.609 223.273 535.003 223.261H532.744V226.885ZM542.862 225.686C542.684 225.656 542.492 225.641 542.284 225.641C541.514 225.641 540.991 225.969 540.716 226.625V231.5H539.542V224.632H540.685L540.704 225.425C541.089 224.812 541.635 224.505 542.341 224.505C542.57 224.505 542.743 224.535 542.862 224.594V225.686ZM545.223 231.5H544.049V224.632H545.223V231.5ZM543.954 222.81C543.954 222.62 544.011 222.459 544.125 222.328C544.243 222.196 544.417 222.131 544.646 222.131C544.874 222.131 545.048 222.196 545.166 222.328C545.285 222.459 545.344 222.62 545.344 222.81C545.344 223 545.285 223.159 545.166 223.286C545.048 223.413 544.874 223.477 544.646 223.477C544.417 223.477 544.243 223.413 544.125 223.286C544.011 223.159 543.954 223 543.954 222.81ZM548.213 224.632L548.245 225.394C548.748 224.801 549.427 224.505 550.282 224.505C551.243 224.505 551.897 224.873 552.244 225.609C552.472 225.279 552.768 225.013 553.132 224.81C553.5 224.606 553.934 224.505 554.434 224.505C555.94 224.505 556.706 225.303 556.731 226.898V231.5H555.557V226.968C555.557 226.477 555.445 226.111 555.221 225.87C554.996 225.624 554.62 225.501 554.091 225.501C553.655 225.501 553.293 225.633 553.005 225.895C552.718 226.153 552.55 226.502 552.504 226.942V231.5H551.323V227C551.323 226.001 550.834 225.501 549.857 225.501C549.087 225.501 548.56 225.829 548.276 226.485V231.5H547.102V224.632H548.213ZM562.749 231.5C562.681 231.365 562.626 231.123 562.584 230.776C562.038 231.343 561.386 231.627 560.629 231.627C559.952 231.627 559.395 231.437 558.959 231.056C558.528 230.671 558.312 230.184 558.312 229.596C558.312 228.881 558.583 228.326 559.125 227.933C559.67 227.535 560.436 227.336 561.422 227.336H562.565V226.796C562.565 226.386 562.442 226.06 562.197 225.819C561.951 225.573 561.59 225.451 561.111 225.451C560.692 225.451 560.341 225.556 560.058 225.768C559.774 225.98 559.632 226.236 559.632 226.536H558.452C558.452 226.193 558.572 225.863 558.813 225.546C559.059 225.224 559.389 224.97 559.804 224.784C560.223 224.598 560.682 224.505 561.181 224.505C561.972 224.505 562.592 224.704 563.041 225.102C563.49 225.495 563.722 226.039 563.739 226.733V229.894C563.739 230.525 563.82 231.026 563.98 231.398V231.5H562.749ZM560.8 230.605C561.168 230.605 561.518 230.51 561.848 230.319C562.178 230.129 562.417 229.881 562.565 229.577V228.167H561.645C560.206 228.167 559.486 228.589 559.486 229.431C559.486 229.799 559.609 230.087 559.854 230.294C560.1 230.501 560.415 230.605 560.8 230.605ZM568.9 225.686C568.722 225.656 568.53 225.641 568.322 225.641C567.552 225.641 567.029 225.969 566.754 226.625V231.5H565.58V224.632H566.723L566.742 225.425C567.127 224.812 567.673 224.505 568.379 224.505C568.608 224.505 568.781 224.535 568.9 224.594V225.686ZM572.347 229.78L573.946 224.632H575.203L572.442 232.56C572.014 233.703 571.335 234.274 570.404 234.274L570.182 234.255L569.744 234.172V233.22L570.062 233.246C570.459 233.246 570.768 233.165 570.988 233.004C571.213 232.844 571.397 232.549 571.541 232.122L571.801 231.424L569.351 224.632H570.633L572.347 229.78ZM578.701 228.053H575.603V227.095H578.701V228.053ZM581.125 231.5H579.951V221.75H581.125V231.5ZM587.251 231.5C587.183 231.365 587.128 231.123 587.086 230.776C586.54 231.343 585.888 231.627 585.131 231.627C584.454 231.627 583.897 231.437 583.461 231.056C583.03 230.671 582.814 230.184 582.814 229.596C582.814 228.881 583.085 228.326 583.626 227.933C584.172 227.535 584.938 227.336 585.924 227.336H587.067V226.796C587.067 226.386 586.944 226.06 586.699 225.819C586.453 225.573 586.091 225.451 585.613 225.451C585.194 225.451 584.843 225.556 584.56 225.768C584.276 225.98 584.134 226.236 584.134 226.536H582.954C582.954 226.193 583.074 225.863 583.315 225.546C583.561 225.224 583.891 224.97 584.306 224.784C584.725 224.598 585.184 224.505 585.683 224.505C586.474 224.505 587.094 224.704 587.543 225.102C587.992 225.495 588.224 226.039 588.241 226.733V229.894C588.241 230.525 588.322 231.026 588.482 231.398V231.5H587.251ZM585.302 230.605C585.67 230.605 586.02 230.51 586.35 230.319C586.68 230.129 586.919 229.881 587.067 229.577V228.167H586.146C584.708 228.167 583.988 228.589 583.988 229.431C583.988 229.799 584.111 230.087 584.356 230.294C584.602 230.501 584.917 230.605 585.302 230.605ZM595.896 228.142C595.896 229.192 595.655 230.036 595.173 230.675C594.69 231.31 594.043 231.627 593.23 231.627C592.363 231.627 591.692 231.32 591.218 230.707L591.161 231.5H590.082V221.75H591.256V225.387C591.73 224.799 592.384 224.505 593.218 224.505C594.051 224.505 594.705 224.82 595.179 225.451C595.657 226.081 595.896 226.944 595.896 228.041V228.142ZM594.722 228.009C594.722 227.209 594.568 226.591 594.259 226.155C593.95 225.719 593.506 225.501 592.926 225.501C592.151 225.501 591.595 225.861 591.256 226.581V229.551C591.616 230.271 592.177 230.63 592.938 230.63C593.501 230.63 593.939 230.412 594.252 229.977C594.566 229.541 594.722 228.885 594.722 228.009ZM600.232 231.627C599.301 231.627 598.543 231.322 597.959 230.713C597.375 230.099 597.083 229.28 597.083 228.256V228.041C597.083 227.359 597.213 226.752 597.471 226.219C597.733 225.681 598.097 225.262 598.562 224.962C599.032 224.657 599.54 224.505 600.086 224.505C600.979 224.505 601.673 224.799 602.168 225.387C602.663 225.975 602.911 226.818 602.911 227.914V228.402H598.258C598.275 229.079 598.472 229.627 598.848 230.046C599.229 230.461 599.711 230.668 600.295 230.668C600.71 230.668 601.061 230.584 601.349 230.415C601.637 230.245 601.889 230.021 602.104 229.742L602.822 230.3C602.246 231.185 601.383 231.627 600.232 231.627ZM600.086 225.47C599.612 225.47 599.214 225.643 598.893 225.99C598.571 226.333 598.372 226.815 598.296 227.438H601.736V227.349C601.702 226.752 601.542 226.291 601.254 225.965C600.966 225.635 600.577 225.47 600.086 225.47ZM605.551 231.5H604.377V221.75H605.551V231.5Z" fill="white" fill-opacity="0.94"/>
<circle cx="302.5" cy="145" r="6" fill="#40BF73"/>
<path fill-rule="evenodd" clip-rule="evenodd" d="M267.625 157.25C268.244 157.25 268.75 157.756 268.75 158.375V160.625C268.75 161.244 268.244 161.75 267.625 161.75H256.375C255.756 161.75 255.25 161.244 255.25 160.625V158.375C255.25 157.756 255.756 157.25 256.375 157.25H267.625ZM268.75 164.375C268.75 163.756 268.244 163.25 267.625 163.25H256.375C255.756 163.25 255.25 163.756 255.25 164.375V166.625C255.25 167.244 255.756 167.75 256.375 167.75H261.25V169.249H256C255.586 169.249 255.25 169.585 255.25 169.999C255.25 170.414 255.586 170.749 256 170.749H268C268.415 170.749 268.75 170.414 268.75 169.999C268.75 169.585 268.415 169.249 268 169.249H262.75V167.75H267.625C268.244 167.75 268.75 167.244 268.75 166.625V164.375ZM267.25 164.75V166.25H256.75V164.75H267.25ZM267.25 158.75V160.25H256.75V158.75H267.25Z" fill="white" fill-opacity="0.94"/>
<path d="M277.744 164.882V168.5H276.525V159.258H279.934C280.945 159.258 281.736 159.516 282.308 160.032C282.883 160.549 283.171 161.232 283.171 162.083C283.171 162.98 282.889 163.672 282.327 164.158C281.768 164.641 280.966 164.882 279.921 164.882H277.744ZM277.744 163.885H279.934C280.585 163.885 281.085 163.733 281.432 163.428C281.779 163.119 281.952 162.675 281.952 162.095C281.952 161.545 281.779 161.105 281.432 160.775C281.085 160.445 280.609 160.273 280.003 160.261H277.744V163.885ZM287.862 162.686C287.684 162.656 287.492 162.641 287.284 162.641C286.514 162.641 285.991 162.969 285.716 163.625V168.5H284.542V161.632H285.685L285.704 162.425C286.089 161.812 286.635 161.505 287.341 161.505C287.57 161.505 287.743 161.535 287.862 161.594V162.686ZM290.223 168.5H289.049V161.632H290.223V168.5ZM288.954 159.81C288.954 159.62 289.011 159.459 289.125 159.328C289.243 159.196 289.417 159.131 289.646 159.131C289.874 159.131 290.048 159.196 290.166 159.328C290.285 159.459 290.344 159.62 290.344 159.81C290.344 160 290.285 160.159 290.166 160.286C290.048 160.413 289.874 160.477 289.646 160.477C289.417 160.477 289.243 160.413 289.125 160.286C289.011 160.159 288.954 160 288.954 159.81ZM293.213 161.632L293.245 162.394C293.748 161.801 294.427 161.505 295.282 161.505C296.243 161.505 296.897 161.873 297.244 162.609C297.472 162.279 297.768 162.013 298.132 161.81C298.5 161.606 298.934 161.505 299.434 161.505C300.94 161.505 301.706 162.303 301.731 163.898V168.5H300.557V163.968C300.557 163.477 300.445 163.111 300.221 162.87C299.996 162.624 299.62 162.501 299.091 162.501C298.655 162.501 298.293 162.633 298.005 162.895C297.718 163.153 297.55 163.502 297.504 163.942V168.5H296.323V164C296.323 163.001 295.834 162.501 294.857 162.501C294.087 162.501 293.56 162.829 293.276 163.485V168.5H292.102V161.632H293.213ZM307.749 168.5C307.681 168.365 307.626 168.123 307.584 167.776C307.038 168.343 306.386 168.627 305.629 168.627C304.952 168.627 304.395 168.437 303.959 168.056C303.528 167.671 303.312 167.184 303.312 166.596C303.312 165.881 303.583 165.326 304.125 164.933C304.67 164.535 305.436 164.336 306.422 164.336H307.565V163.796C307.565 163.386 307.442 163.06 307.197 162.819C306.951 162.573 306.59 162.451 306.111 162.451C305.692 162.451 305.341 162.556 305.058 162.768C304.774 162.98 304.632 163.236 304.632 163.536H303.452C303.452 163.193 303.572 162.863 303.813 162.546C304.059 162.224 304.389 161.97 304.804 161.784C305.223 161.598 305.682 161.505 306.181 161.505C306.972 161.505 307.592 161.704 308.041 162.102C308.49 162.495 308.722 163.039 308.739 163.733V166.894C308.739 167.525 308.82 168.026 308.98 168.398V168.5H307.749ZM305.8 167.605C306.168 167.605 306.518 167.51 306.848 167.319C307.178 167.129 307.417 166.881 307.565 166.577V165.167H306.645C305.206 165.167 304.486 165.589 304.486 166.431C304.486 166.799 304.609 167.087 304.854 167.294C305.1 167.501 305.415 167.605 305.8 167.605ZM313.9 162.686C313.722 162.656 313.53 162.641 313.322 162.641C312.552 162.641 312.029 162.969 311.754 163.625V168.5H310.58V161.632H311.723L311.742 162.425C312.127 161.812 312.673 161.505 313.379 161.505C313.608 161.505 313.781 161.535 313.9 161.594V162.686ZM317.347 166.78L318.946 161.632H320.203L317.442 169.56C317.014 170.703 316.335 171.274 315.404 171.274L315.182 171.255L314.744 171.172V170.22L315.062 170.246C315.459 170.246 315.768 170.165 315.988 170.004C316.213 169.844 316.397 169.549 316.541 169.122L316.801 168.424L314.351 161.632H315.633L317.347 166.78ZM323.701 165.053H320.603V164.095H323.701V165.053ZM326.125 168.5H324.951V158.75H326.125V168.5ZM332.251 168.5C332.183 168.365 332.128 168.123 332.086 167.776C331.54 168.343 330.888 168.627 330.131 168.627C329.454 168.627 328.897 168.437 328.461 168.056C328.03 167.671 327.814 167.184 327.814 166.596C327.814 165.881 328.085 165.326 328.626 164.933C329.172 164.535 329.938 164.336 330.924 164.336H332.067V163.796C332.067 163.386 331.944 163.06 331.699 162.819C331.453 162.573 331.091 162.451 330.613 162.451C330.194 162.451 329.843 162.556 329.56 162.768C329.276 162.98 329.134 163.236 329.134 163.536H327.954C327.954 163.193 328.074 162.863 328.315 162.546C328.561 162.224 328.891 161.97 329.306 161.784C329.725 161.598 330.184 161.505 330.683 161.505C331.474 161.505 332.094 161.704 332.543 162.102C332.992 162.495 333.224 163.039 333.241 163.733V166.894C333.241 167.525 333.322 168.026 333.482 168.398V168.5H332.251ZM330.302 167.605C330.67 167.605 331.02 167.51 331.35 167.319C331.68 167.129 331.919 166.881 332.067 166.577V165.167H331.146C329.708 165.167 328.988 165.589 328.988 166.431C328.988 166.799 329.111 167.087 329.356 167.294C329.602 167.501 329.917 167.605 330.302 167.605ZM340.896 165.142C340.896 166.192 340.655 167.036 340.173 167.675C339.69 168.31 339.043 168.627 338.23 168.627C337.363 168.627 336.692 168.32 336.218 167.707L336.161 168.5H335.082V158.75H336.256V162.387C336.73 161.799 337.384 161.505 338.218 161.505C339.051 161.505 339.705 161.82 340.179 162.451C340.657 163.081 340.896 163.944 340.896 165.041V165.142ZM339.722 165.009C339.722 164.209 339.568 163.591 339.259 163.155C338.95 162.719 338.506 162.501 337.926 162.501C337.151 162.501 336.595 162.861 336.256 163.581V166.551C336.616 167.271 337.177 167.63 337.938 167.63C338.501 167.63 338.939 167.412 339.252 166.977C339.566 166.541 339.722 165.885 339.722 165.009ZM345.232 168.627C344.301 168.627 343.543 168.322 342.959 167.713C342.375 167.099 342.083 166.28 342.083 165.256V165.041C342.083 164.359 342.213 163.752 342.471 163.219C342.733 162.681 343.097 162.262 343.562 161.962C344.032 161.657 344.54 161.505 345.086 161.505C345.979 161.505 346.673 161.799 347.168 162.387C347.663 162.975 347.911 163.818 347.911 164.914V165.402H343.258C343.275 166.079 343.472 166.627 343.848 167.046C344.229 167.461 344.711 167.668 345.295 167.668C345.71 167.668 346.061 167.584 346.349 167.415C346.637 167.245 346.889 167.021 347.104 166.742L347.822 167.3C347.246 168.185 346.383 168.627 345.232 168.627ZM345.086 162.47C344.612 162.47 344.214 162.643 343.893 162.99C343.571 163.333 343.372 163.815 343.296 164.438H346.736V164.349C346.702 163.752 346.542 163.291 346.254 162.965C345.966 162.635 345.577 162.47 345.086 162.47ZM350.551 168.5H349.377V158.75H350.551V168.5Z" fill="white" fill-opacity="0.94"/>
<circle cx="49.5" cy="80" r="6" fill="#40BF73"/>
<path fill-rule="evenodd" clip-rule="evenodd" d="M14.625 92.25C15.2438 92.25 15.75 92.7562 15.75 93.375V95.625C15.75 96.2438 15.2438 96.75 14.625 96.75H3.375C2.75624 96.75 2.25 96.2438 2.25 95.625V93.375C2.25 92.7562 2.75624 92.25 3.375 92.25H14.625ZM15.75 99.375C15.75 98.7562 15.2438 98.25 14.625 98.25H3.375C2.75624 98.25 2.25 98.7562 2.25 99.375V101.625C2.25 102.244 2.75624 102.75 3.375 102.75H8.25V104.249H3C2.58581 104.249 2.25 104.585 2.25 104.999C2.25 105.414 2.58581 105.749 3 105.749H15C15.4145 105.749 15.75 105.414 15.75 104.999C15.75 104.585 15.4145 104.249 15 104.249H9.75V102.75H14.625C15.2438 102.75 15.75 102.244 15.75 101.625V99.375ZM14.25 99.75V101.25H3.75V99.75H14.25ZM14.25 93.75V95.25H3.75V93.75H14.25Z" fill="white" fill-opacity="0.94"/>
<path d="M24.7437 99.8818V103.5H23.5249V94.2578H26.9336C27.945 94.2578 28.7363 94.516 29.3076 95.0322C29.8831 95.5485 30.1709 96.2319 30.1709 97.0825C30.1709 97.9797 29.8895 98.6715 29.3267 99.1582C28.7681 99.6406 27.9661 99.8818 26.9209 99.8818H24.7437ZM24.7437 98.8853H26.9336C27.5853 98.8853 28.0846 98.7329 28.4316 98.4282C28.7786 98.1193 28.9521 97.675 28.9521 97.0952C28.9521 96.5451 28.7786 96.105 28.4316 95.7749C28.0846 95.4448 27.6086 95.2734 27.0034 95.2607H24.7437V98.8853ZM34.8618 97.6855C34.6841 97.6559 34.4915 97.6411 34.2842 97.6411C33.514 97.6411 32.9914 97.9691 32.7163 98.625V103.5H31.542V96.6318H32.6846L32.7036 97.4253C33.0887 96.8117 33.6346 96.5049 34.3413 96.5049C34.5698 96.5049 34.7433 96.5345 34.8618 96.5938V97.6855ZM37.2231 103.5H36.0488V96.6318H37.2231V103.5ZM35.9536 94.8101C35.9536 94.6196 36.0107 94.4588 36.125 94.3276C36.2435 94.1965 36.417 94.1309 36.6455 94.1309C36.874 94.1309 37.0475 94.1965 37.166 94.3276C37.2845 94.4588 37.3438 94.6196 37.3438 94.8101C37.3438 95.0005 37.2845 95.1592 37.166 95.2861C37.0475 95.4131 36.874 95.4766 36.6455 95.4766C36.417 95.4766 36.2435 95.4131 36.125 95.2861C36.0107 95.1592 35.9536 95.0005 35.9536 94.8101ZM40.2129 96.6318L40.2446 97.3936C40.7482 96.8011 41.4274 96.5049 42.2822 96.5049C43.2428 96.5049 43.8966 96.873 44.2437 97.6094C44.4722 97.2793 44.7684 97.0127 45.1323 96.8096C45.5005 96.6064 45.9342 96.5049 46.4336 96.5049C47.9401 96.5049 48.7061 97.3026 48.7314 98.8979V103.5H47.5571V98.9678C47.5571 98.4769 47.445 98.1108 47.2207 97.8696C46.9964 97.6242 46.6198 97.5015 46.0908 97.5015C45.6549 97.5015 45.2931 97.6326 45.0054 97.895C44.7176 98.1532 44.5505 98.5023 44.5039 98.9424V103.5H43.3232V98.9995C43.3232 98.0008 42.8345 97.5015 41.8569 97.5015C41.0868 97.5015 40.5599 97.8294 40.2764 98.4854V103.5H39.1021V96.6318H40.2129ZM54.749 103.5C54.6813 103.365 54.6263 103.123 54.584 102.776C54.0381 103.343 53.3864 103.627 52.6289 103.627C51.9518 103.627 51.3953 103.437 50.9595 103.056C50.5278 102.671 50.312 102.184 50.312 101.596C50.312 100.881 50.5828 100.326 51.1245 99.9326C51.6704 99.5348 52.4364 99.3359 53.4224 99.3359H54.5649V98.7964C54.5649 98.3859 54.4422 98.0601 54.1968 97.8188C53.9513 97.5734 53.5895 97.4507 53.1113 97.4507C52.6924 97.4507 52.3411 97.5565 52.0576 97.7681C51.7741 97.9797 51.6323 98.2357 51.6323 98.5361H50.4517C50.4517 98.1934 50.5723 97.8633 50.8135 97.5459C51.0589 97.2243 51.389 96.9704 51.8037 96.7842C52.2227 96.598 52.6818 96.5049 53.1812 96.5049C53.9725 96.5049 54.5924 96.7038 55.041 97.1016C55.4896 97.4951 55.7223 98.0389 55.7393 98.7329V101.894C55.7393 102.525 55.8197 103.026 55.9805 103.398V103.5H54.749ZM52.8003 102.605C53.1685 102.605 53.5176 102.51 53.8477 102.319C54.1777 102.129 54.4168 101.881 54.5649 101.577V100.167H53.6445C52.2057 100.167 51.4863 100.589 51.4863 101.431C51.4863 101.799 51.609 102.087 51.8545 102.294C52.0999 102.501 52.4152 102.605 52.8003 102.605ZM60.8999 97.6855C60.7222 97.6559 60.5296 97.6411 60.3223 97.6411C59.5521 97.6411 59.0295 97.9691 58.7544 98.625V103.5H57.5801V96.6318H58.7227L58.7417 97.4253C59.1268 96.8117 59.6727 96.5049 60.3794 96.5049C60.6079 96.5049 60.7814 96.5345 60.8999 96.5938V97.6855ZM64.3467 101.78L65.9463 96.6318H67.2031L64.4419 104.56C64.0145 105.703 63.3353 106.274 62.4043 106.274L62.1821 106.255L61.7441 106.172V105.22L62.0615 105.246C62.4593 105.246 62.7682 105.165 62.9883 105.004C63.2126 104.844 63.3966 104.549 63.5405 104.122L63.8008 103.424L61.3506 96.6318H62.6328L64.3467 101.78ZM70.7007 100.053H67.603V99.0947H70.7007V100.053ZM73.1255 103.5H71.9512V93.75H73.1255V103.5ZM79.251 103.5C79.1833 103.365 79.1283 103.123 79.0859 102.776C78.54 103.343 77.8883 103.627 77.1309 103.627C76.4538 103.627 75.8973 103.437 75.4614 103.056C75.0298 102.671 74.814 102.184 74.814 101.596C74.814 100.881 75.0848 100.326 75.6265 99.9326C76.1724 99.5348 76.9383 99.3359 77.9243 99.3359H79.0669V98.7964C79.0669 98.3859 78.9442 98.0601 78.6987 97.8188C78.4533 97.5734 78.0915 97.4507 77.6133 97.4507C77.1943 97.4507 76.8431 97.5565 76.5596 97.7681C76.276 97.9797 76.1343 98.2357 76.1343 98.5361H74.9536C74.9536 98.1934 75.0742 97.8633 75.3154 97.5459C75.5609 97.2243 75.891 96.9704 76.3057 96.7842C76.7246 96.598 77.1838 96.5049 77.6831 96.5049C78.4744 96.5049 79.0944 96.7038 79.543 97.1016C79.9915 97.4951 80.2243 98.0389 80.2412 98.7329V101.894C80.2412 102.525 80.3216 103.026 80.4824 103.398V103.5H79.251ZM77.3022 102.605C77.6704 102.605 78.0195 102.51 78.3496 102.319C78.6797 102.129 78.9188 101.881 79.0669 101.577V100.167H78.1465C76.7077 100.167 75.9883 100.589 75.9883 101.431C75.9883 101.799 76.111 102.087 76.3564 102.294C76.6019 102.501 76.9172 102.605 77.3022 102.605ZM87.8965 100.142C87.8965 101.192 87.6553 102.036 87.1729 102.675C86.6904 103.31 86.043 103.627 85.2305 103.627C84.363 103.627 83.6922 103.32 83.2183 102.707L83.1611 103.5H82.082V93.75H83.2563V97.3872C83.7303 96.799 84.3841 96.5049 85.2178 96.5049C86.0514 96.5049 86.7052 96.8201 87.1792 97.4507C87.6574 98.0812 87.8965 98.9445 87.8965 100.041V100.142ZM86.7222 100.009C86.7222 99.209 86.5677 98.5911 86.2588 98.1553C85.9499 97.7194 85.5055 97.5015 84.9258 97.5015C84.1514 97.5015 83.5949 97.8612 83.2563 98.5806V101.551C83.616 102.271 84.1768 102.63 84.9385 102.63C85.5013 102.63 85.9393 102.412 86.2524 101.977C86.5656 101.541 86.7222 100.885 86.7222 100.009ZM92.2319 103.627C91.3009 103.627 90.5435 103.322 89.9595 102.713C89.3755 102.099 89.0835 101.28 89.0835 100.256V100.041C89.0835 99.3592 89.2126 98.752 89.4707 98.2188C89.7331 97.6813 90.097 97.2624 90.5625 96.9619C91.0322 96.6572 91.54 96.5049 92.0859 96.5049C92.9788 96.5049 93.6729 96.799 94.168 97.3872C94.6631 97.9754 94.9106 98.8175 94.9106 99.9136V100.402H90.2578C90.2747 101.079 90.4715 101.627 90.8481 102.046C91.229 102.461 91.7114 102.668 92.2954 102.668C92.7101 102.668 93.0614 102.584 93.3491 102.415C93.6369 102.245 93.8887 102.021 94.1045 101.742L94.8218 102.3C94.2463 103.185 93.383 103.627 92.2319 103.627ZM92.0859 97.4697C91.612 97.4697 91.2142 97.6432 90.8926 97.9902C90.571 98.333 90.3721 98.8154 90.2959 99.4375H93.7363V99.3486C93.7025 98.752 93.5417 98.2907 93.2539 97.9648C92.9661 97.6348 92.5768 97.4697 92.0859 97.4697ZM97.5513 103.5H96.377V93.75H97.5513V103.5Z" fill="white" fill-opacity="0.94"/>
<circle cx="302.5" cy="17" r="6" fill="#40BF73"/>
<path fill-rule="evenodd" clip-rule="evenodd" d="M267.625 29.25C268.244 29.25 268.75 29.7562 268.75 30.375V32.625C268.75 33.2438 268.244 33.75 267.625 33.75H256.375C255.756 33.75 255.25 33.2438 255.25 32.625V30.375C255.25 29.7562 255.756 29.25 256.375 29.25H267.625ZM268.75 36.375C268.75 35.7562 268.244 35.25 267.625 35.25H256.375C255.756 35.25 255.25 35.7562 255.25 36.375V38.625C255.25 39.2438 255.756 39.75 256.375 39.75H261.25V41.2493H256C255.586 41.2493 255.25 41.5847 255.25 41.9993C255.25 42.4138 255.586 42.7493 256 42.7493H268C268.415 42.7493 268.75 42.4138 268.75 41.9993C268.75 41.5847 268.415 41.2493 268 41.2493H262.75V39.75H267.625C268.244 39.75 268.75 39.2438 268.75 38.625V36.375ZM267.25 36.75V38.25H256.75V36.75H267.25ZM267.25 30.75V32.25H256.75V30.75H267.25Z" fill="white" fill-opacity="0.94"/>
<path d="M277.744 36.8818V40.5H276.525V31.2578H279.934C280.945 31.2578 281.736 31.516 282.308 32.0322C282.883 32.5485 283.171 33.2319 283.171 34.0825C283.171 34.9797 282.889 35.6715 282.327 36.1582C281.768 36.6406 280.966 36.8818 279.921 36.8818H277.744ZM277.744 35.8853H279.934C280.585 35.8853 281.085 35.7329 281.432 35.4282C281.779 35.1193 281.952 34.675 281.952 34.0952C281.952 33.5451 281.779 33.105 281.432 32.7749C281.085 32.4448 280.609 32.2734 280.003 32.2607H277.744V35.8853ZM287.862 34.6855C287.684 34.6559 287.492 34.6411 287.284 34.6411C286.514 34.6411 285.991 34.9691 285.716 35.625V40.5H284.542V33.6318H285.685L285.704 34.4253C286.089 33.8117 286.635 33.5049 287.341 33.5049C287.57 33.5049 287.743 33.5345 287.862 33.5938V34.6855ZM290.223 40.5H289.049V33.6318H290.223V40.5ZM288.954 31.8101C288.954 31.6196 289.011 31.4588 289.125 31.3276C289.243 31.1965 289.417 31.1309 289.646 31.1309C289.874 31.1309 290.048 31.1965 290.166 31.3276C290.285 31.4588 290.344 31.6196 290.344 31.8101C290.344 32.0005 290.285 32.1592 290.166 32.2861C290.048 32.4131 289.874 32.4766 289.646 32.4766C289.417 32.4766 289.243 32.4131 289.125 32.2861C289.011 32.1592 288.954 32.0005 288.954 31.8101ZM293.213 33.6318L293.245 34.3936C293.748 33.8011 294.427 33.5049 295.282 33.5049C296.243 33.5049 296.897 33.873 297.244 34.6094C297.472 34.2793 297.768 34.0127 298.132 33.8096C298.5 33.6064 298.934 33.5049 299.434 33.5049C300.94 33.5049 301.706 34.3026 301.731 35.8979V40.5H300.557V35.9678C300.557 35.4769 300.445 35.1108 300.221 34.8696C299.996 34.6242 299.62 34.5015 299.091 34.5015C298.655 34.5015 298.293 34.6326 298.005 34.895C297.718 35.1532 297.55 35.5023 297.504 35.9424V40.5H296.323V35.9995C296.323 35.0008 295.834 34.5015 294.857 34.5015C294.087 34.5015 293.56 34.8294 293.276 35.4854V40.5H292.102V33.6318H293.213ZM307.749 40.5C307.681 40.3646 307.626 40.1234 307.584 39.7764C307.038 40.3434 306.386 40.627 305.629 40.627C304.952 40.627 304.395 40.4365 303.959 40.0557C303.528 39.6706 303.312 39.1839 303.312 38.5957C303.312 37.8805 303.583 37.3262 304.125 36.9326C304.67 36.5348 305.436 36.3359 306.422 36.3359H307.565V35.7964C307.565 35.3859 307.442 35.0601 307.197 34.8188C306.951 34.5734 306.59 34.4507 306.111 34.4507C305.692 34.4507 305.341 34.5565 305.058 34.7681C304.774 34.9797 304.632 35.2357 304.632 35.5361H303.452C303.452 35.1934 303.572 34.8633 303.813 34.5459C304.059 34.2243 304.389 33.9704 304.804 33.7842C305.223 33.598 305.682 33.5049 306.181 33.5049C306.972 33.5049 307.592 33.7038 308.041 34.1016C308.49 34.4951 308.722 35.0389 308.739 35.7329V38.894C308.739 39.5246 308.82 40.026 308.98 40.3984V40.5H307.749ZM305.8 39.605C306.168 39.605 306.518 39.5098 306.848 39.3193C307.178 39.1289 307.417 38.8813 307.565 38.5767V37.1675H306.645C305.206 37.1675 304.486 37.5885 304.486 38.4307C304.486 38.7988 304.609 39.0866 304.854 39.2939C305.1 39.5013 305.415 39.605 305.8 39.605ZM313.9 34.6855C313.722 34.6559 313.53 34.6411 313.322 34.6411C312.552 34.6411 312.029 34.9691 311.754 35.625V40.5H310.58V33.6318H311.723L311.742 34.4253C312.127 33.8117 312.673 33.5049 313.379 33.5049C313.608 33.5049 313.781 33.5345 313.9 33.5938V34.6855ZM317.347 38.7798L318.946 33.6318H320.203L317.442 41.5601C317.014 42.7026 316.335 43.2739 315.404 43.2739L315.182 43.2549L314.744 43.1724V42.2202L315.062 42.2456C315.459 42.2456 315.768 42.1652 315.988 42.0044C316.213 41.8436 316.397 41.5495 316.541 41.1221L316.801 40.4238L314.351 33.6318H315.633L317.347 38.7798ZM323.701 37.0532H320.603V36.0947H323.701V37.0532ZM326.125 40.5H324.951V30.75H326.125V40.5ZM332.251 40.5C332.183 40.3646 332.128 40.1234 332.086 39.7764C331.54 40.3434 330.888 40.627 330.131 40.627C329.454 40.627 328.897 40.4365 328.461 40.0557C328.03 39.6706 327.814 39.1839 327.814 38.5957C327.814 37.8805 328.085 37.3262 328.626 36.9326C329.172 36.5348 329.938 36.3359 330.924 36.3359H332.067V35.7964C332.067 35.3859 331.944 35.0601 331.699 34.8188C331.453 34.5734 331.091 34.4507 330.613 34.4507C330.194 34.4507 329.843 34.5565 329.56 34.7681C329.276 34.9797 329.134 35.2357 329.134 35.5361H327.954C327.954 35.1934 328.074 34.8633 328.315 34.5459C328.561 34.2243 328.891 33.9704 329.306 33.7842C329.725 33.598 330.184 33.5049 330.683 33.5049C331.474 33.5049 332.094 33.7038 332.543 34.1016C332.992 34.4951 333.224 35.0389 333.241 35.7329V38.894C333.241 39.5246 333.322 40.026 333.482 40.3984V40.5H332.251ZM330.302 39.605C330.67 39.605 331.02 39.5098 331.35 39.3193C331.68 39.1289 331.919 38.8813 332.067 38.5767V37.1675H331.146C329.708 37.1675 328.988 37.5885 328.988 38.4307C328.988 38.7988 329.111 39.0866 329.356 39.2939C329.602 39.5013 329.917 39.605 330.302 39.605ZM340.896 37.1421C340.896 38.1916 340.655 39.0358 340.173 39.6748C339.69 40.3096 339.043 40.627 338.23 40.627C337.363 40.627 336.692 40.3201 336.218 39.7065L336.161 40.5H335.082V30.75H336.256V34.3872C336.73 33.799 337.384 33.5049 338.218 33.5049C339.051 33.5049 339.705 33.8201 340.179 34.4507C340.657 35.0812 340.896 35.9445 340.896 37.0405V37.1421ZM339.722 37.0088C339.722 36.209 339.568 35.5911 339.259 35.1553C338.95 34.7194 338.506 34.5015 337.926 34.5015C337.151 34.5015 336.595 34.8612 336.256 35.5806V38.5513C336.616 39.2707 337.177 39.6304 337.938 39.6304C338.501 39.6304 338.939 39.4124 339.252 38.9766C339.566 38.5407 339.722 37.8848 339.722 37.0088ZM345.232 40.627C344.301 40.627 343.543 40.3223 342.959 39.7129C342.375 39.0993 342.083 38.2804 342.083 37.2563V37.0405C342.083 36.3592 342.213 35.752 342.471 35.2188C342.733 34.6813 343.097 34.2624 343.562 33.9619C344.032 33.6572 344.54 33.5049 345.086 33.5049C345.979 33.5049 346.673 33.799 347.168 34.3872C347.663 34.9754 347.911 35.8175 347.911 36.9136V37.4023H343.258C343.275 38.0794 343.472 38.6274 343.848 39.0464C344.229 39.4611 344.711 39.6685 345.295 39.6685C345.71 39.6685 346.061 39.5838 346.349 39.4146C346.637 39.2453 346.889 39.021 347.104 38.7417L347.822 39.3003C347.246 40.1847 346.383 40.627 345.232 40.627ZM345.086 34.4697C344.612 34.4697 344.214 34.6432 343.893 34.9902C343.571 35.333 343.372 35.8154 343.296 36.4375H346.736V36.3486C346.702 35.752 346.542 35.2907 346.254 34.9648C345.966 34.6348 345.577 34.4697 345.086 34.4697ZM350.551 40.5H349.377V30.75H350.551V40.5Z" fill="white" fill-opacity="0.94"/>
</svg>
