<svg width="869" height="177" viewBox="0 0 869 177" fill="none" xmlns="http://www.w3.org/2000/svg">
<path d="M10.7178 136.213V132.018H12V137.819H2.75781V136.213H10.7178ZM12.127 127.911C12.127 128.888 11.8201 129.682 11.2065 130.291C10.5887 130.896 9.76774 131.199 8.74365 131.199H8.55322C7.86768 131.199 7.25618 131.068 6.71875 130.805C6.17708 130.539 5.75602 130.166 5.45557 129.688C5.15511 129.21 5.00488 128.677 5.00488 128.088C5.00488 127.153 5.30322 126.432 5.8999 125.924C6.49658 125.412 7.34082 125.156 8.43262 125.156H9.05469V129.644C9.62174 129.597 10.0703 129.409 10.4004 129.079C10.7305 128.744 10.8955 128.325 10.8955 127.822C10.8955 127.115 10.6099 126.54 10.0386 126.095L10.832 125.264C11.2425 125.539 11.562 125.907 11.7905 126.368C12.0148 126.825 12.127 127.339 12.127 127.911ZM6.24268 128.095C6.24268 128.518 6.39079 128.861 6.68701 129.123C6.98324 129.381 7.39583 129.546 7.9248 129.618V126.679H7.81055C7.29427 126.713 6.90495 126.851 6.64258 127.092C6.37598 127.333 6.24268 127.667 6.24268 128.095ZM12 123.41H6.27441V124.458H5.13184V123.41H4.50342C3.7417 123.41 3.15348 123.199 2.73877 122.775C2.32406 122.352 2.1167 121.76 2.1167 120.998C2.1167 120.727 2.15479 120.439 2.23096 120.135L3.43701 120.173C3.40316 120.342 3.38623 120.539 3.38623 120.763C3.38623 121.5 3.76497 121.868 4.52246 121.868H5.13184V120.471H6.27441V121.868H12L12 123.41ZM3.4624 117.412H5.13184V116.199H6.27441V117.412H10.1084C10.3708 117.412 10.5612 117.361 10.6797 117.259C10.7939 117.153 10.8511 116.967 10.8511 116.701C10.8511 116.523 10.8299 116.343 10.7876 116.161H11.981C12.0783 116.512 12.127 116.851 12.127 117.177C12.127 118.362 11.4731 118.954 10.1655 118.954H6.27441V120.084H5.13184V118.954H3.4624L3.4624 117.412ZM12 107.674C11.8688 107.742 11.6551 107.801 11.3589 107.852C11.8709 108.343 12.127 108.944 12.127 109.655C12.127 110.345 11.9302 110.907 11.5366 111.343C11.1431 111.779 10.6564 111.997 10.0767 111.997C9.34456 111.997 8.78385 111.726 8.39453 111.185C8.00098 110.639 7.8042 109.86 7.8042 108.849V107.903H7.35352C6.99805 107.903 6.71452 108.002 6.50293 108.201C6.28711 108.4 6.1792 108.703 6.1792 109.109C6.1792 109.46 6.26807 109.748 6.4458 109.972C6.6193 110.196 6.84147 110.309 7.1123 110.309V111.851C6.73568 111.851 6.38444 111.726 6.05859 111.477C5.72852 111.227 5.47038 110.888 5.28418 110.461C5.09798 110.029 5.00488 109.549 5.00488 109.02C5.00488 108.216 5.20801 107.575 5.61426 107.097C6.01628 106.618 6.58333 106.373 7.31543 106.36H10.4131C11.0309 106.36 11.5239 106.274 11.8921 106.1H12V107.674ZM10.8892 109.369C10.8892 109.064 10.8151 108.779 10.667 108.512C10.5189 108.241 10.32 108.038 10.0703 107.903H8.77539V108.734C8.77539 109.306 8.87484 109.735 9.07373 110.023C9.27262 110.311 9.55404 110.455 9.91797 110.455C10.2142 110.455 10.4512 110.357 10.6289 110.163C10.8024 109.964 10.8892 109.699 10.8892 109.369ZM7.3916 102.279L5.13184 100.971V99.2573L8.51514 101.358L12 99.1875V100.889L9.65137 102.26L12 103.625V105.338L8.51514 103.167L5.13184 105.262V103.561L7.3916 102.279ZM12 96.5659V98.1084H5.13184L5.13184 96.5659H12ZM3.34814 98.2036C3.11117 98.2036 2.91439 98.1296 2.75781 97.9814C2.60124 97.8291 2.52295 97.6133 2.52295 97.334C2.52295 97.0547 2.60124 96.8389 2.75781 96.6865C2.91439 96.5342 3.11117 96.458 3.34814 96.458C3.58089 96.458 3.77555 96.5342 3.93213 96.6865C4.08447 96.8389 4.16064 97.0547 4.16064 97.334C4.16064 97.6133 4.08447 97.8291 3.93213 97.9814C3.77555 98.1296 3.58089 98.2036 3.34814 98.2036ZM10.1338 91.0308C9.85872 91.0308 9.64925 91.145 9.50537 91.3735C9.36149 91.5978 9.23454 91.9723 9.12451 92.4971C9.01449 93.0218 8.87484 93.4598 8.70557 93.811C8.33317 94.5812 7.79362 94.9663 7.08691 94.9663C6.49447 94.9663 5.99935 94.7166 5.60156 94.2173C5.20378 93.7179 5.00488 93.0832 5.00488 92.313C5.00488 91.492 5.20801 90.8298 5.61426 90.3262C6.02051 89.8184 6.54736 89.5645 7.19482 89.5645V91.1069C6.8986 91.1069 6.65316 91.217 6.4585 91.437C6.2596 91.6571 6.16016 91.9491 6.16016 92.313C6.16016 92.6515 6.23844 92.9287 6.39502 93.1445C6.5516 93.3561 6.76107 93.4619 7.02344 93.4619C7.26042 93.4619 7.4445 93.3625 7.57568 93.1636C7.70687 92.9647 7.84017 92.5627 7.97559 91.9575C8.10677 91.3524 8.26546 90.8784 8.45166 90.5356C8.63363 90.1886 8.85368 89.9326 9.11182 89.7676C9.36995 89.5983 9.68311 89.5137 10.0513 89.5137C10.6691 89.5137 11.1706 89.7697 11.5557 90.2817C11.9365 90.7938 12.127 91.4645 12.127 92.2939C12.127 92.8568 12.0254 93.3582 11.8223 93.7983C11.6191 94.2384 11.3398 94.5812 10.9844 94.8267C10.6289 95.0721 10.2459 95.1948 9.83545 95.1948V93.6968C10.1994 93.6756 10.4808 93.5381 10.6797 93.2842C10.8743 93.0303 10.9717 92.6938 10.9717 92.2749C10.9717 91.8687 10.8955 91.5597 10.7432 91.3481C10.5866 91.1366 10.3835 91.0308 10.1338 91.0308ZM3.4624 82.9946H5.13184V81.7822H6.27441V82.9946H10.1084C10.3708 82.9946 10.5612 82.9438 10.6797 82.8423C10.7939 82.7365 10.8511 82.5503 10.8511 82.2837C10.8511 82.106 10.8299 81.9261 10.7876 81.7441H11.981C12.0783 82.0954 12.127 82.4339 12.127 82.7598C12.127 83.9447 11.4731 84.5371 10.1655 84.5371H6.27441V85.667H5.13184V84.5371H3.4624V82.9946ZM12 78.9575V80.5H5.13184L5.13184 78.9575H12ZM3.34814 80.5952C3.11117 80.5952 2.91439 80.5212 2.75781 80.373C2.60124 80.2207 2.52295 80.0049 2.52295 79.7256C2.52295 79.4463 2.60124 79.2305 2.75781 79.0781C2.91439 78.9258 3.11117 78.8496 3.34814 78.8496C3.58089 78.8496 3.77555 78.9258 3.93213 79.0781C4.08447 79.2305 4.16064 79.4463 4.16064 79.7256C4.16064 80.0049 4.08447 80.2207 3.93213 80.373C3.77555 80.5212 3.58089 80.5952 3.34814 80.5952ZM3.4624 75.3394H5.13184V74.127H6.27441V75.3394H10.1084C10.3708 75.3394 10.5612 75.2886 10.6797 75.187C10.7939 75.0812 10.8511 74.895 10.8511 74.6284C10.8511 74.4507 10.8299 74.2708 10.7876 74.0889H11.981C12.0783 74.4401 12.127 74.7786 12.127 75.1045C12.127 76.2894 11.4731 76.8818 10.1655 76.8818H6.27441V78.0117H5.13184V76.8818H3.4624L3.4624 75.3394ZM12 71.3022V72.8447H2.25V71.3022H12ZM12.127 66.5923C12.127 67.5698 11.8201 68.3633 11.2065 68.9727C10.5887 69.5778 9.76774 69.8804 8.74365 69.8804H8.55322C7.86768 69.8804 7.25618 69.7492 6.71875 69.4868C6.17708 69.2202 5.75602 68.8478 5.45557 68.3696C5.15511 67.8914 5.00488 67.3582 5.00488 66.77C5.00488 65.8348 5.30322 65.1133 5.8999 64.6055C6.49658 64.0934 7.34082 63.8374 8.43262 63.8374H9.05469V68.3252C9.62174 68.2786 10.0703 68.0903 10.4004 67.7603C10.7305 67.4259 10.8955 67.007 10.8955 66.5034C10.8955 65.7967 10.6099 65.2212 10.0386 64.7769L10.832 63.9453C11.2425 64.2204 11.562 64.5885 11.7905 65.0498C12.0148 65.5068 12.127 66.021 12.127 66.5923ZM6.24268 66.7764C6.24268 67.1995 6.39079 67.5423 6.68701 67.8047C6.98324 68.0628 7.39583 68.2279 7.9248 68.2998V65.3608H7.81055C7.29427 65.3947 6.90495 65.5322 6.64258 65.7734C6.37598 66.0146 6.24268 66.349 6.24268 66.7764ZM8.24219 59.375C7.26465 59.375 6.33789 59.2438 5.46191 58.9814C4.58171 58.7191 3.79671 58.334 3.10693 57.8262C2.41292 57.3184 1.92627 56.7809 1.64697 56.2139L2.54834 55.9092C3.00114 56.5059 3.69303 56.9904 4.62402 57.3628C5.55078 57.731 6.61296 57.932 7.81055 57.9658L8.35645 57.9722C9.63867 57.9722 10.7834 57.7923 11.7905 57.4326C12.7935 57.0687 13.5573 56.5609 14.082 55.9092L14.939 56.2139C14.6597 56.7809 14.1709 57.3205 13.4727 57.8325C12.7786 58.3403 11.9958 58.7254 11.124 58.9878C10.248 59.2459 9.28743 59.375 8.24219 59.375ZM11.3271 50.7041C11.8604 51.1569 12.127 51.8001 12.127 52.6338C12.127 53.3786 11.909 53.9435 11.4731 54.3286C11.0373 54.7095 10.4067 54.8999 9.58154 54.8999H5.13184V53.3574H9.5625C10.4342 53.3574 10.8701 52.9956 10.8701 52.272C10.8701 51.5229 10.6014 51.0173 10.064 50.7549H5.13184V49.2124H12V50.666L11.3271 50.7041ZM5.13184 46.21L5.92529 46.1655C5.31169 45.6577 5.00488 44.9912 5.00488 44.166C5.00488 42.7357 5.82373 42.0078 7.46143 41.9824H12V43.5249H7.55029C7.11442 43.5249 6.79281 43.6201 6.58545 43.8105C6.37386 43.9967 6.26807 44.3035 6.26807 44.731C6.26807 45.353 6.54948 45.8164 7.1123 46.1211H12V47.6636H5.13184L5.13184 46.21ZM12 38.7642V40.3066H5.13184V38.7642H12ZM3.34814 40.4019C3.11117 40.4019 2.91439 40.3278 2.75781 40.1797C2.60124 40.0273 2.52295 39.8115 2.52295 39.5322C2.52295 39.2529 2.60124 39.0371 2.75781 38.8848C2.91439 38.7324 3.11117 38.6562 3.34814 38.6562C3.58089 38.6562 3.77555 38.7324 3.93213 38.8848C4.08447 39.0371 4.16064 39.2529 4.16064 39.5322C4.16064 39.8115 4.08447 40.0273 3.93213 40.1797C3.77555 40.3278 3.58089 40.4019 3.34814 40.4019ZM3.4624 35.146H5.13184V33.9336H6.27441V35.146H10.1084C10.3708 35.146 10.5612 35.0952 10.6797 34.9937C10.7939 34.8879 10.8511 34.7017 10.8511 34.4351C10.8511 34.2573 10.8299 34.0775 10.7876 33.8955H11.981C12.0783 34.2467 12.127 34.5853 12.127 34.9111C12.127 36.096 11.4731 36.6885 10.1655 36.6885H6.27441V37.8184H5.13184V36.6885H3.4624V35.146ZM10.1338 28.8999C9.85872 28.8999 9.64925 29.0142 9.50537 29.2427C9.36149 29.467 9.23454 29.8415 9.12451 30.3662C9.01449 30.891 8.87484 31.3289 8.70557 31.6802C8.33317 32.4504 7.79362 32.8354 7.08691 32.8354C6.49447 32.8354 5.99935 32.5858 5.60156 32.0864C5.20378 31.5871 5.00488 30.9523 5.00488 30.1821C5.00488 29.3612 5.20801 28.6989 5.61426 28.1953C6.02051 27.6875 6.54736 27.4336 7.19482 27.4336V28.9761C6.8986 28.9761 6.65316 29.0861 6.4585 29.3062C6.2596 29.5262 6.16016 29.8182 6.16016 30.1821C6.16016 30.5207 6.23844 30.7979 6.39502 31.0137C6.5516 31.2253 6.76107 31.3311 7.02344 31.3311C7.26042 31.3311 7.4445 31.2316 7.57568 31.0327C7.70687 30.8338 7.84017 30.4318 7.97559 29.8267C8.10677 29.2215 8.26546 28.7476 8.45166 28.4048C8.63363 28.0578 8.85368 27.8018 9.11182 27.6367C9.36995 27.4674 9.68311 27.3828 10.0513 27.3828C10.6691 27.3828 11.1706 27.6388 11.5557 28.1509C11.9365 28.6629 12.127 29.3337 12.127 30.1631C12.127 30.7259 12.0254 31.2274 11.8223 31.6675C11.6191 32.1076 11.3398 32.4504 10.9844 32.6958C10.6289 32.9412 10.2459 33.064 9.83545 33.064V31.5659C10.1994 31.5448 10.4808 31.4072 10.6797 31.1533C10.8743 30.8994 10.9717 30.563 10.9717 30.144C10.9717 29.7378 10.8955 29.4289 10.7432 29.2173C10.5866 29.0057 10.3835 28.8999 10.1338 28.8999ZM8.34375 23.0601C9.2832 23.0601 10.1909 23.1891 11.0669 23.4473C11.9386 23.7054 12.7321 24.0968 13.4473 24.6216C14.1667 25.1463 14.6639 25.6943 14.939 26.2656L14.082 26.5703C13.5911 25.9355 12.8421 25.4341 11.835 25.0659C10.8236 24.6935 9.67041 24.5073 8.37549 24.5073H8.22949C7.05306 24.5073 5.98242 24.6681 5.01758 24.9897C4.0485 25.3114 3.27197 25.7726 2.68799 26.3735L2.51025 26.5703L1.64697 26.2656C1.90934 25.724 2.37484 25.1992 3.04346 24.6914C3.71208 24.1836 4.4611 23.7943 5.29053 23.5234C6.11572 23.2526 6.96842 23.1003 7.84863 23.0664L8.34375 23.0601Z" fill="white" fill-opacity="0.64"/>
<path d="M27.728 12H26.5474V4.17334L24.1797 5.04297V3.97656L27.5439 2.71338H27.728V12ZM36.9639 8.05811C36.9639 9.43343 36.729 10.4554 36.2593 11.124C35.7896 11.7926 35.0553 12.127 34.0566 12.127C33.0706 12.127 32.3407 11.8011 31.8667 11.1494C31.3927 10.4935 31.1473 9.51595 31.1304 8.2168V6.64893C31.1304 5.29053 31.3652 4.28125 31.835 3.62109C32.3047 2.96094 33.041 2.63086 34.0439 2.63086C35.0384 2.63086 35.7705 2.95036 36.2402 3.58936C36.71 4.22412 36.9512 5.20589 36.9639 6.53467V8.05811ZM35.7896 6.45215C35.7896 5.45768 35.6499 4.73405 35.3706 4.28125C35.0913 3.82422 34.6491 3.5957 34.0439 3.5957C33.443 3.5957 33.005 3.8221 32.73 4.2749C32.4549 4.7277 32.3132 5.42383 32.3047 6.36328V8.24219C32.3047 9.24089 32.4486 9.97933 32.7363 10.4575C33.0283 10.9315 33.4684 11.1685 34.0566 11.1685C34.6364 11.1685 35.0659 10.9442 35.3452 10.4956C35.6287 10.047 35.7769 9.34033 35.7896 8.37549V6.45215ZM44.2637 8.05811C44.2637 9.43343 44.0288 10.4554 43.5591 11.124C43.0894 11.7926 42.3551 12.127 41.3564 12.127C40.3704 12.127 39.6405 11.8011 39.1665 11.1494C38.6925 10.4935 38.4471 9.51595 38.4302 8.2168V6.64893C38.4302 5.29053 38.665 4.28125 39.1348 3.62109C39.6045 2.96094 40.3408 2.63086 41.3438 2.63086C42.3382 2.63086 43.0703 2.95036 43.54 3.58936C44.0098 4.22412 44.251 5.20589 44.2637 6.53467V8.05811ZM43.0894 6.45215C43.0894 5.45768 42.9497 4.73405 42.6704 4.28125C42.3911 3.82422 41.9489 3.5957 41.3438 3.5957C40.7428 3.5957 40.3049 3.8221 40.0298 4.2749C39.7547 4.7277 39.613 5.42383 39.6045 6.36328V8.24219C39.6045 9.24089 39.7484 9.97933 40.0361 10.4575C40.3281 10.9315 40.7682 11.1685 41.3564 11.1685C41.9362 11.1685 42.3657 10.9442 42.645 10.4956C42.9285 10.047 43.0767 9.34033 43.0894 8.37549V6.45215Z" fill="white" fill-opacity="0.64"/>
<path d="M37.1353 40.168L33.3076 48.75H32.0762L35.8911 40.4727H30.8892V39.5078H37.1353V40.168ZM39.0078 44.1162L39.4775 39.5078H44.2129V40.5933H40.4741L40.1948 43.1133C40.6476 42.8467 41.1618 42.7134 41.7373 42.7134C42.5794 42.7134 43.248 42.9927 43.7432 43.5513C44.2383 44.1056 44.4858 44.8568 44.4858 45.8047C44.4858 46.7568 44.2277 47.508 43.7114 48.0581C43.1994 48.604 42.4821 48.877 41.5596 48.877C40.7428 48.877 40.0763 48.6506 39.5601 48.1978C39.0438 47.745 38.7497 47.1187 38.6777 46.3188H39.7886C39.8605 46.8478 40.0488 47.2477 40.3535 47.5186C40.6582 47.7852 41.0602 47.9185 41.5596 47.9185C42.1055 47.9185 42.5329 47.7323 42.8418 47.3599C43.1549 46.9875 43.3115 46.4733 43.3115 45.8174C43.3115 45.1995 43.1423 44.7044 42.8037 44.332C42.4694 43.9554 42.0229 43.7671 41.4644 43.7671C40.9523 43.7671 40.5503 43.8792 40.2583 44.1035L39.9473 44.3574L39.0078 44.1162Z" fill="white" fill-opacity="0.64"/>
<path d="M31.708 80.8662L32.1777 76.2578H36.9131V77.3433H33.1743L32.895 79.8633C33.3478 79.5967 33.862 79.4634 34.4375 79.4634C35.2796 79.4634 35.9482 79.7427 36.4434 80.3013C36.9385 80.8556 37.186 81.6068 37.186 82.5547C37.186 83.5068 36.9279 84.258 36.4116 84.8081C35.8996 85.354 35.1823 85.627 34.2598 85.627C33.443 85.627 32.7765 85.4006 32.2603 84.9478C31.744 84.495 31.4499 83.8687 31.3779 83.0688H32.4888C32.5607 83.5978 32.749 83.9977 33.0537 84.2686C33.3584 84.5352 33.7604 84.6685 34.2598 84.6685C34.8057 84.6685 35.2331 84.4823 35.542 84.1099C35.8551 83.7375 36.0117 83.2233 36.0117 82.5674C36.0117 81.9495 35.8424 81.4544 35.5039 81.082C35.1696 80.7054 34.7231 80.5171 34.1646 80.5171C33.6525 80.5171 33.2505 80.6292 32.9585 80.8535L32.6475 81.1074L31.708 80.8662ZM44.2637 81.5581C44.2637 82.9334 44.0288 83.9554 43.5591 84.624C43.0894 85.2926 42.3551 85.627 41.3564 85.627C40.3704 85.627 39.6405 85.3011 39.1665 84.6494C38.6925 83.9935 38.4471 83.016 38.4302 81.7168V80.1489C38.4302 78.7905 38.665 77.7812 39.1348 77.1211C39.6045 76.4609 40.3408 76.1309 41.3438 76.1309C42.3382 76.1309 43.0703 76.4504 43.54 77.0894C44.0098 77.7241 44.251 78.7059 44.2637 80.0347V81.5581ZM43.0894 79.9521C43.0894 78.9577 42.9497 78.234 42.6704 77.7812C42.3911 77.3242 41.9489 77.0957 41.3438 77.0957C40.7428 77.0957 40.3049 77.3221 40.0298 77.7749C39.7547 78.2277 39.613 78.9238 39.6045 79.8633V81.7422C39.6045 82.7409 39.7484 83.4793 40.0361 83.9575C40.3281 84.4315 40.7682 84.6685 41.3564 84.6685C41.9362 84.6685 42.3657 84.4442 42.645 83.9956C42.9285 83.547 43.0767 82.8403 43.0894 81.8755V79.9521Z" fill="white" fill-opacity="0.64"/>
<path d="M37.2241 122.25H31.1685V121.406L34.3677 117.851C34.8416 117.314 35.1675 116.878 35.3452 116.543C35.5272 116.205 35.6182 115.856 35.6182 115.496C35.6182 115.014 35.4722 114.618 35.1802 114.309C34.8882 114 34.4989 113.846 34.0122 113.846C33.4282 113.846 32.9733 114.013 32.6475 114.347C32.3258 114.677 32.165 115.139 32.165 115.731H30.9907C30.9907 114.88 31.2637 114.193 31.8096 113.668C32.3597 113.143 33.0939 112.881 34.0122 112.881C34.8713 112.881 35.5505 113.107 36.0498 113.56C36.5492 114.009 36.7988 114.607 36.7988 115.356C36.7988 116.266 36.2191 117.35 35.0596 118.606L32.584 121.292H37.2241V122.25ZM39.0078 117.616L39.4775 113.008H44.2129V114.093H40.4741L40.1948 116.613C40.6476 116.347 41.1618 116.213 41.7373 116.213C42.5794 116.213 43.248 116.493 43.7432 117.051C44.2383 117.606 44.4858 118.357 44.4858 119.305C44.4858 120.257 44.2277 121.008 43.7114 121.558C43.1994 122.104 42.4821 122.377 41.5596 122.377C40.7428 122.377 40.0763 122.151 39.5601 121.698C39.0438 121.245 38.7497 120.619 38.6777 119.819H39.7886C39.8605 120.348 40.0488 120.748 40.3535 121.019C40.6582 121.285 41.0602 121.418 41.5596 121.418C42.1055 121.418 42.5329 121.232 42.8418 120.86C43.1549 120.487 43.3115 119.973 43.3115 119.317C43.3115 118.7 43.1423 118.204 42.8037 117.832C42.4694 117.455 42.0229 117.267 41.4644 117.267C40.9523 117.267 40.5503 117.379 40.2583 117.604L39.9473 117.857L39.0078 117.616Z" fill="white" fill-opacity="0.64"/>
<path d="M44.2637 155.058C44.2637 156.433 44.0288 157.455 43.5591 158.124C43.0894 158.793 42.3551 159.127 41.3564 159.127C40.3704 159.127 39.6405 158.801 39.1665 158.149C38.6925 157.493 38.4471 156.516 38.4302 155.217V153.649C38.4302 152.291 38.665 151.281 39.1348 150.621C39.6045 149.961 40.3408 149.631 41.3438 149.631C42.3382 149.631 43.0703 149.95 43.54 150.589C44.0098 151.224 44.251 152.206 44.2637 153.535V155.058ZM43.0894 153.452C43.0894 152.458 42.9497 151.734 42.6704 151.281C42.3911 150.824 41.9489 150.596 41.3438 150.596C40.7428 150.596 40.3049 150.822 40.0298 151.275C39.7547 151.728 39.613 152.424 39.6045 153.363V155.242C39.6045 156.241 39.7484 156.979 40.0361 157.458C40.3281 157.931 40.7682 158.168 41.3564 158.168C41.9362 158.168 42.3657 157.944 42.645 157.496C42.9285 157.047 43.0767 156.34 43.0894 155.375V153.452Z" fill="white" fill-opacity="0.64"/>
<rect x="53" y="153" width="816" height="1" fill="white" fill-opacity="0.38"/>
<rect x="77" y="154" width="1" height="8" fill="white" fill-opacity="0.38"/>
<path d="M58.8252 164.751V165.748H58.6094C57.6953 165.765 56.9674 166.036 56.4258 166.561C55.8841 167.085 55.571 167.824 55.4863 168.776C55.973 168.217 56.6374 167.938 57.4795 167.938C58.2835 167.938 58.9246 168.222 59.4028 168.789C59.8853 169.356 60.1265 170.088 60.1265 170.985C60.1265 171.937 59.8662 172.699 59.3457 173.27C58.8294 173.841 58.1354 174.127 57.2637 174.127C56.3792 174.127 55.6619 173.788 55.1118 173.111C54.5617 172.43 54.2866 171.554 54.2866 170.483V170.033C54.2866 168.332 54.6484 167.032 55.3721 166.135C56.0999 165.234 57.1812 164.773 58.6157 164.751H58.8252ZM57.2827 168.916C56.8807 168.916 56.5104 169.036 56.1719 169.277C55.8333 169.519 55.5985 169.821 55.4673 170.185V170.617C55.4673 171.378 55.6387 171.992 55.9814 172.458C56.3242 172.923 56.7516 173.156 57.2637 173.156C57.7926 173.156 58.2074 172.961 58.5078 172.572C58.8125 172.182 58.9648 171.673 58.9648 171.042C58.9648 170.407 58.8104 169.895 58.5015 169.506C58.1968 169.112 57.7905 168.916 57.2827 168.916ZM61.5991 173.384C61.5991 173.181 61.6584 173.012 61.7769 172.876C61.8996 172.741 62.0815 172.673 62.3228 172.673C62.564 172.673 62.7459 172.741 62.8687 172.876C62.9956 173.012 63.0591 173.181 63.0591 173.384C63.0591 173.579 62.9956 173.742 62.8687 173.873C62.7459 174.004 62.564 174.07 62.3228 174.07C62.0815 174.07 61.8996 174.004 61.7769 173.873C61.6584 173.742 61.5991 173.579 61.5991 173.384ZM61.6055 167.779C61.6055 167.576 61.6647 167.407 61.7832 167.271C61.9059 167.136 62.0879 167.068 62.3291 167.068C62.5703 167.068 62.7523 167.136 62.875 167.271C63.002 167.407 63.0654 167.576 63.0654 167.779C63.0654 167.974 63.002 168.137 62.875 168.268C62.7523 168.399 62.5703 168.465 62.3291 168.465C62.0879 168.465 61.9059 168.399 61.7832 168.268C61.6647 168.137 61.6055 167.974 61.6055 167.779ZM70.4604 170.058C70.4604 171.433 70.2256 172.455 69.7559 173.124C69.2861 173.793 68.5519 174.127 67.5532 174.127C66.5672 174.127 65.8372 173.801 65.3633 173.149C64.8893 172.493 64.6439 171.516 64.627 170.217V168.649C64.627 167.291 64.8618 166.281 65.3315 165.621C65.8013 164.961 66.5376 164.631 67.5405 164.631C68.535 164.631 69.2671 164.95 69.7368 165.589C70.2065 166.224 70.4478 167.206 70.4604 168.535V170.058ZM69.2861 168.452C69.2861 167.458 69.1465 166.734 68.8672 166.281C68.5879 165.824 68.1457 165.596 67.5405 165.596C66.9396 165.596 66.5016 165.822 66.2266 166.275C65.9515 166.728 65.8097 167.424 65.8013 168.363V170.242C65.8013 171.241 65.9451 171.979 66.2329 172.458C66.5249 172.931 66.965 173.168 67.5532 173.168C68.133 173.168 68.5625 172.944 68.8418 172.496C69.1253 172.047 69.2734 171.34 69.2861 170.375V168.452ZM77.7603 170.058C77.7603 171.433 77.5254 172.455 77.0557 173.124C76.5859 173.793 75.8517 174.127 74.853 174.127C73.867 174.127 73.137 173.801 72.6631 173.149C72.1891 172.493 71.9437 171.516 71.9268 170.217V168.649C71.9268 167.291 72.1616 166.281 72.6313 165.621C73.1011 164.961 73.8374 164.631 74.8403 164.631C75.8348 164.631 76.5669 164.95 77.0366 165.589C77.5063 166.224 77.7476 167.206 77.7603 168.535V170.058ZM76.5859 168.452C76.5859 167.458 76.4463 166.734 76.167 166.281C75.8877 165.824 75.4455 165.596 74.8403 165.596C74.2394 165.596 73.8014 165.822 73.5264 166.275C73.2513 166.728 73.1095 167.424 73.1011 168.363V170.242C73.1011 171.241 73.245 171.979 73.5327 172.458C73.8247 172.931 74.2648 173.168 74.853 173.168C75.4328 173.168 75.8623 172.944 76.1416 172.496C76.4251 172.047 76.5732 171.34 76.5859 170.375V168.452ZM87.8975 171.588H84.0254L83.1558 174H81.8989L85.4282 164.758H86.4946L90.0303 174H88.7798L87.8975 171.588ZM84.3936 170.585H87.5356L85.9614 166.262L84.3936 170.585ZM92.8486 164.758L95.8701 172.299L98.8916 164.758H100.472V174H99.2534V170.401L99.3677 166.516L96.3335 174H95.4004L92.3726 166.535L92.4932 170.401V174H91.2744V164.758H92.8486Z" fill="white" fill-opacity="0.64"/>
<rect x="285.338" y="154" width="1" height="8" fill="white" fill-opacity="0.38"/>
<path d="M267.056 169.938C266.81 170.229 266.516 170.464 266.173 170.642C265.835 170.82 265.462 170.909 265.056 170.909C264.523 170.909 264.057 170.778 263.66 170.515C263.266 170.253 262.961 169.885 262.745 169.411C262.53 168.932 262.422 168.406 262.422 167.83C262.422 167.212 262.538 166.656 262.771 166.161C263.008 165.666 263.342 165.287 263.774 165.024C264.205 164.762 264.709 164.631 265.285 164.631C266.199 164.631 266.918 164.974 267.443 165.659C267.972 166.34 268.236 167.271 268.236 168.452V168.795C268.236 170.593 267.881 171.907 267.17 172.737C266.459 173.562 265.386 173.985 263.952 174.006H263.723V173.016H263.971C264.94 172.999 265.684 172.747 266.205 172.261C266.725 171.77 267.009 170.995 267.056 169.938ZM265.246 169.938C265.64 169.938 266.002 169.817 266.332 169.576C266.666 169.334 266.91 169.036 267.062 168.681V168.211C267.062 167.441 266.895 166.814 266.56 166.332C266.226 165.85 265.803 165.608 265.291 165.608C264.775 165.608 264.36 165.807 264.047 166.205C263.734 166.599 263.577 167.119 263.577 167.767C263.577 168.397 263.727 168.918 264.028 169.328C264.332 169.734 264.739 169.938 265.246 169.938ZM269.937 173.384C269.937 173.181 269.997 173.012 270.115 172.876C270.238 172.741 270.42 172.673 270.661 172.673C270.902 172.673 271.084 172.741 271.207 172.876C271.334 173.012 271.397 173.181 271.397 173.384C271.397 173.579 271.334 173.742 271.207 173.873C271.084 174.004 270.902 174.07 270.661 174.07C270.42 174.07 270.238 174.004 270.115 173.873C269.997 173.742 269.937 173.579 269.937 173.384ZM269.944 167.779C269.944 167.576 270.003 167.407 270.121 167.271C270.244 167.136 270.426 167.068 270.667 167.068C270.909 167.068 271.091 167.136 271.213 167.271C271.34 167.407 271.404 167.576 271.404 167.779C271.404 167.974 271.34 168.137 271.213 168.268C271.091 168.399 270.909 168.465 270.667 168.465C270.426 168.465 270.244 168.399 270.121 168.268C270.003 168.137 269.944 167.974 269.944 167.779ZM278.799 170.058C278.799 171.433 278.564 172.455 278.094 173.124C277.624 173.793 276.89 174.127 275.891 174.127C274.905 174.127 274.175 173.801 273.702 173.149C273.228 172.493 272.982 171.516 272.965 170.217V168.649C272.965 167.291 273.2 166.281 273.67 165.621C274.14 164.961 274.876 164.631 275.879 164.631C276.873 164.631 277.605 164.95 278.075 165.589C278.545 166.224 278.786 167.206 278.799 168.535V170.058ZM277.624 168.452C277.624 167.458 277.485 166.734 277.205 166.281C276.926 165.824 276.484 165.596 275.879 165.596C275.278 165.596 274.84 165.822 274.565 166.275C274.29 166.728 274.148 167.424 274.14 168.363V170.242C274.14 171.241 274.283 171.979 274.571 172.458C274.863 172.931 275.303 173.168 275.891 173.168C276.471 173.168 276.901 172.944 277.18 172.496C277.464 172.047 277.612 171.34 277.624 170.375V168.452ZM286.099 170.058C286.099 171.433 285.864 172.455 285.394 173.124C284.924 173.793 284.19 174.127 283.191 174.127C282.205 174.127 281.475 173.801 281.001 173.149C280.527 172.493 280.282 171.516 280.265 170.217V168.649C280.265 167.291 280.5 166.281 280.97 165.621C281.439 164.961 282.176 164.631 283.179 164.631C284.173 164.631 284.905 164.95 285.375 165.589C285.845 166.224 286.086 167.206 286.099 168.535V170.058ZM284.924 168.452C284.924 167.458 284.785 166.734 284.505 166.281C284.226 165.824 283.784 165.596 283.179 165.596C282.578 165.596 282.14 165.822 281.865 166.275C281.59 166.728 281.448 167.424 281.439 168.363V170.242C281.439 171.241 281.583 171.979 281.871 172.458C282.163 172.931 282.603 173.168 283.191 173.168C283.771 173.168 284.201 172.944 284.48 172.496C284.763 172.047 284.911 171.34 284.924 170.375V168.452ZM296.236 171.588H292.364L291.494 174H290.237L293.766 164.758H294.833L298.369 174H297.118L296.236 171.588ZM292.732 170.585H295.874L294.3 166.262L292.732 170.585ZM301.187 164.758L304.208 172.299L307.23 164.758H308.81V174H307.592V170.401L307.706 166.516L304.672 174H303.739L300.711 166.535L300.831 170.401V174H299.613V164.758H301.187Z" fill="white" fill-opacity="0.64"/>
<rect x="459.677" y="154" width="1" height="8" fill="white" fill-opacity="0.38"/>
<path d="M436.603 174H435.422V166.173L433.055 167.043V165.977L436.419 164.713H436.603V174ZM446.099 174H440.043V173.156L443.242 169.601C443.716 169.064 444.042 168.628 444.22 168.293C444.402 167.955 444.493 167.606 444.493 167.246C444.493 166.764 444.347 166.368 444.055 166.059C443.763 165.75 443.374 165.596 442.887 165.596C442.303 165.596 441.848 165.763 441.522 166.097C441.201 166.427 441.04 166.889 441.04 167.481H439.866C439.866 166.63 440.138 165.943 440.684 165.418C441.235 164.893 441.969 164.631 442.887 164.631C443.746 164.631 444.425 164.857 444.925 165.31C445.424 165.759 445.674 166.357 445.674 167.106C445.674 168.016 445.094 169.1 443.934 170.356L441.459 173.042H446.099V174ZM447.426 173.384C447.426 173.181 447.485 173.012 447.603 172.876C447.726 172.741 447.908 172.673 448.149 172.673C448.39 172.673 448.572 172.741 448.695 172.876C448.822 173.012 448.886 173.181 448.886 173.384C448.886 173.579 448.822 173.742 448.695 173.873C448.572 174.004 448.39 174.07 448.149 174.07C447.908 174.07 447.726 174.004 447.603 173.873C447.485 173.742 447.426 173.579 447.426 173.384ZM447.432 167.779C447.432 167.576 447.491 167.407 447.61 167.271C447.732 167.136 447.914 167.068 448.156 167.068C448.397 167.068 448.579 167.136 448.701 167.271C448.828 167.407 448.892 167.576 448.892 167.779C448.892 167.974 448.828 168.137 448.701 168.268C448.579 168.399 448.397 168.465 448.156 168.465C447.914 168.465 447.732 168.399 447.61 168.268C447.491 168.137 447.432 167.974 447.432 167.779ZM456.287 170.058C456.287 171.433 456.052 172.455 455.582 173.124C455.113 173.793 454.378 174.127 453.38 174.127C452.394 174.127 451.664 173.801 451.19 173.149C450.716 172.493 450.47 171.516 450.453 170.217V168.649C450.453 167.291 450.688 166.281 451.158 165.621C451.628 164.961 452.364 164.631 453.367 164.631C454.361 164.631 455.094 164.95 455.563 165.589C456.033 166.224 456.274 167.206 456.287 168.535V170.058ZM455.113 168.452C455.113 167.458 454.973 166.734 454.694 166.281C454.414 165.824 453.972 165.596 453.367 165.596C452.766 165.596 452.328 165.822 452.053 166.275C451.778 166.728 451.636 167.424 451.628 168.363V170.242C451.628 171.241 451.772 171.979 452.059 172.458C452.351 172.931 452.791 173.168 453.38 173.168C453.959 173.168 454.389 172.944 454.668 172.496C454.952 172.047 455.1 171.34 455.113 170.375V168.452ZM463.587 170.058C463.587 171.433 463.352 172.455 462.882 173.124C462.412 173.793 461.678 174.127 460.68 174.127C459.694 174.127 458.964 173.801 458.49 173.149C458.016 172.493 457.77 171.516 457.753 170.217V168.649C457.753 167.291 457.988 166.281 458.458 165.621C458.928 164.961 459.664 164.631 460.667 164.631C461.661 164.631 462.393 164.95 462.863 165.589C463.333 166.224 463.574 167.206 463.587 168.535V170.058ZM462.412 168.452C462.412 167.458 462.273 166.734 461.993 166.281C461.714 165.824 461.272 165.596 460.667 165.596C460.066 165.596 459.628 165.822 459.353 166.275C459.078 166.728 458.936 167.424 458.928 168.363V170.242C458.928 171.241 459.071 171.979 459.359 172.458C459.651 172.931 460.091 173.168 460.68 173.168C461.259 173.168 461.689 172.944 461.968 172.496C462.252 172.047 462.4 171.34 462.412 170.375V168.452ZM473.724 171.588H469.852L468.982 174H467.725L471.255 164.758H472.321L475.857 174H474.606L473.724 171.588ZM470.22 170.585H473.362L471.788 166.262L470.22 170.585ZM478.675 164.758L481.697 172.299L484.718 164.758H486.299V174H485.08V170.401L485.194 166.516L482.16 174H481.227L478.199 166.535L478.32 170.401V174H477.101V164.758H478.675Z" fill="white" fill-opacity="0.64"/>
<rect x="634.015" y="154" width="1" height="8" fill="white" fill-opacity="0.38"/>
<path d="M612.579 168.808H613.461C614.015 168.799 614.451 168.653 614.769 168.37C615.086 168.086 615.245 167.703 615.245 167.221C615.245 166.137 614.705 165.596 613.626 165.596C613.118 165.596 612.712 165.742 612.407 166.034C612.107 166.321 611.957 166.704 611.957 167.183H610.782C610.782 166.451 611.049 165.843 611.582 165.361C612.12 164.874 612.801 164.631 613.626 164.631C614.498 164.631 615.181 164.861 615.676 165.323C616.172 165.784 616.419 166.425 616.419 167.246C616.419 167.648 616.288 168.037 616.026 168.414C615.767 168.791 615.414 169.072 614.966 169.258C615.473 169.419 615.865 169.686 616.14 170.058C616.419 170.431 616.559 170.885 616.559 171.423C616.559 172.252 616.288 172.91 615.746 173.397C615.205 173.884 614.5 174.127 613.633 174.127C612.765 174.127 612.058 173.892 611.512 173.422C610.971 172.953 610.7 172.333 610.7 171.562H611.881C611.881 172.049 612.039 172.438 612.357 172.73C612.674 173.022 613.099 173.168 613.633 173.168C614.2 173.168 614.633 173.02 614.934 172.724C615.234 172.428 615.384 172.003 615.384 171.448C615.384 170.911 615.219 170.498 614.889 170.21C614.559 169.923 614.083 169.775 613.461 169.766H612.579V168.808ZM618.254 173.384C618.254 173.181 618.313 173.012 618.431 172.876C618.554 172.741 618.736 172.673 618.977 172.673C619.218 172.673 619.4 172.741 619.523 172.876C619.65 173.012 619.714 173.181 619.714 173.384C619.714 173.579 619.65 173.742 619.523 173.873C619.4 174.004 619.218 174.07 618.977 174.07C618.736 174.07 618.554 174.004 618.431 173.873C618.313 173.742 618.254 173.579 618.254 173.384ZM618.26 167.779C618.26 167.576 618.319 167.407 618.438 167.271C618.56 167.136 618.742 167.068 618.984 167.068C619.225 167.068 619.407 167.136 619.529 167.271C619.656 167.407 619.72 167.576 619.72 167.779C619.72 167.974 619.656 168.137 619.529 168.268C619.407 168.399 619.225 168.465 618.984 168.465C618.742 168.465 618.56 168.399 618.438 168.268C618.319 168.137 618.26 167.974 618.26 167.779ZM627.115 170.058C627.115 171.433 626.88 172.455 626.41 173.124C625.941 173.793 625.206 174.127 624.208 174.127C623.222 174.127 622.492 173.801 622.018 173.149C621.544 172.493 621.298 171.516 621.281 170.217V168.649C621.281 167.291 621.516 166.281 621.986 165.621C622.456 164.961 623.192 164.631 624.195 164.631C625.189 164.631 625.922 164.95 626.391 165.589C626.861 166.224 627.102 167.206 627.115 168.535V170.058ZM625.941 168.452C625.941 167.458 625.801 166.734 625.522 166.281C625.242 165.824 624.8 165.596 624.195 165.596C623.594 165.596 623.156 165.822 622.881 166.275C622.606 166.728 622.464 167.424 622.456 168.363V170.242C622.456 171.241 622.6 171.979 622.887 172.458C623.179 172.931 623.619 173.168 624.208 173.168C624.787 173.168 625.217 172.944 625.496 172.496C625.78 172.047 625.928 171.34 625.941 170.375V168.452ZM634.415 170.058C634.415 171.433 634.18 172.455 633.71 173.124C633.24 173.793 632.506 174.127 631.508 174.127C630.522 174.127 629.792 173.801 629.318 173.149C628.844 172.493 628.598 171.516 628.581 170.217V168.649C628.581 167.291 628.816 166.281 629.286 165.621C629.756 164.961 630.492 164.631 631.495 164.631C632.489 164.631 633.221 164.95 633.691 165.589C634.161 166.224 634.402 167.206 634.415 168.535V170.058ZM633.24 168.452C633.24 167.458 633.101 166.734 632.821 166.281C632.542 165.824 632.1 165.596 631.495 165.596C630.894 165.596 630.456 165.822 630.181 166.275C629.906 166.728 629.764 167.424 629.756 168.363V170.242C629.756 171.241 629.899 171.979 630.187 172.458C630.479 172.931 630.919 173.168 631.508 173.168C632.087 173.168 632.517 172.944 632.796 172.496C633.08 172.047 633.228 171.34 633.24 170.375V168.452ZM640.667 170.382V174H639.448V164.758H642.857C643.869 164.758 644.66 165.016 645.231 165.532C645.807 166.049 646.094 166.732 646.094 167.583C646.094 168.48 645.813 169.172 645.25 169.658C644.692 170.141 643.89 170.382 642.844 170.382H640.667ZM640.667 169.385H642.857C643.509 169.385 644.008 169.233 644.355 168.928C644.702 168.619 644.876 168.175 644.876 167.595C644.876 167.045 644.702 166.605 644.355 166.275C644.008 165.945 643.532 165.773 642.927 165.761H640.667V169.385ZM649.224 164.758L652.245 172.299L655.267 164.758H656.847V174H655.629V170.401L655.743 166.516L652.709 174H651.776L648.748 166.535L648.868 170.401V174H647.65V164.758H649.224Z" fill="white" fill-opacity="0.64"/>
<rect x="844" y="154" width="1" height="8" fill="white" fill-opacity="0.38"/>
<path d="M825.465 164.751V165.748H825.249C824.335 165.765 823.607 166.036 823.065 166.561C822.524 167.085 822.211 167.824 822.126 168.776C822.613 168.217 823.277 167.938 824.119 167.938C824.923 167.938 825.564 168.222 826.042 168.789C826.525 169.356 826.766 170.088 826.766 170.985C826.766 171.937 826.506 172.699 825.985 173.27C825.469 173.841 824.775 174.127 823.903 174.127C823.019 174.127 822.302 173.788 821.751 173.111C821.201 172.43 820.926 171.554 820.926 170.483V170.033C820.926 168.332 821.288 167.032 822.012 166.135C822.74 165.234 823.821 164.773 825.255 164.751H825.465ZM823.922 168.916C823.52 168.916 823.15 169.036 822.812 169.277C822.473 169.519 822.238 169.821 822.107 170.185V170.617C822.107 171.378 822.278 171.992 822.621 172.458C822.964 172.923 823.391 173.156 823.903 173.156C824.432 173.156 824.847 172.961 825.147 172.572C825.452 172.182 825.604 171.673 825.604 171.042C825.604 170.407 825.45 169.895 825.141 169.506C824.836 169.112 824.43 168.916 823.922 168.916ZM828.239 173.384C828.239 173.181 828.298 173.012 828.417 172.876C828.539 172.741 828.721 172.673 828.962 172.673C829.204 172.673 829.386 172.741 829.508 172.876C829.635 173.012 829.699 173.181 829.699 173.384C829.699 173.579 829.635 173.742 829.508 173.873C829.386 174.004 829.204 174.07 828.962 174.07C828.721 174.07 828.539 174.004 828.417 173.873C828.298 173.742 828.239 173.579 828.239 173.384ZM828.245 167.779C828.245 167.576 828.304 167.407 828.423 167.271C828.546 167.136 828.728 167.068 828.969 167.068C829.21 167.068 829.392 167.136 829.515 167.271C829.642 167.407 829.705 167.576 829.705 167.779C829.705 167.974 829.642 168.137 829.515 168.268C829.392 168.399 829.21 168.465 828.969 168.465C828.728 168.465 828.546 168.399 828.423 168.268C828.304 168.137 828.245 167.974 828.245 167.779ZM837.1 170.058C837.1 171.433 836.865 172.455 836.396 173.124C835.926 173.793 835.192 174.127 834.193 174.127C833.207 174.127 832.477 173.801 832.003 173.149C831.529 172.493 831.284 171.516 831.267 170.217V168.649C831.267 167.291 831.501 166.281 831.971 165.621C832.441 164.961 833.177 164.631 834.18 164.631C835.175 164.631 835.907 164.95 836.376 165.589C836.846 166.224 837.087 167.206 837.1 168.535V170.058ZM835.926 168.452C835.926 167.458 835.786 166.734 835.507 166.281C835.228 165.824 834.785 165.596 834.18 165.596C833.579 165.596 833.141 165.822 832.866 166.275C832.591 166.728 832.449 167.424 832.441 168.363V170.242C832.441 171.241 832.585 171.979 832.873 172.458C833.165 172.931 833.605 173.168 834.193 173.168C834.773 173.168 835.202 172.944 835.481 172.496C835.765 172.047 835.913 171.34 835.926 170.375V168.452ZM844.4 170.058C844.4 171.433 844.165 172.455 843.695 173.124C843.226 173.793 842.491 174.127 841.493 174.127C840.507 174.127 839.777 173.801 839.303 173.149C838.829 172.493 838.583 171.516 838.566 170.217V168.649C838.566 167.291 838.801 166.281 839.271 165.621C839.741 164.961 840.477 164.631 841.48 164.631C842.474 164.631 843.207 164.95 843.676 165.589C844.146 166.224 844.387 167.206 844.4 168.535V170.058ZM843.226 168.452C843.226 167.458 843.086 166.734 842.807 166.281C842.527 165.824 842.085 165.596 841.48 165.596C840.879 165.596 840.441 165.822 840.166 166.275C839.891 166.728 839.749 167.424 839.741 168.363V170.242C839.741 171.241 839.885 171.979 840.172 172.458C840.464 172.931 840.904 173.168 841.493 173.168C842.072 173.168 842.502 172.944 842.781 172.496C843.065 172.047 843.213 171.34 843.226 170.375V168.452ZM850.652 170.382V174H849.434V164.758H852.842C853.854 164.758 854.645 165.016 855.216 165.532C855.792 166.049 856.08 166.732 856.08 167.583C856.08 168.48 855.798 169.172 855.235 169.658C854.677 170.141 853.875 170.382 852.83 170.382H850.652ZM850.652 169.385H852.842C853.494 169.385 853.993 169.233 854.34 168.928C854.687 168.619 854.861 168.175 854.861 167.595C854.861 167.045 854.687 166.605 854.34 166.275C853.993 165.945 853.517 165.773 852.912 165.761H850.652V169.385ZM859.209 164.758L862.23 172.299L865.252 164.758H866.833V174H865.614V170.401L865.728 166.516L862.694 174H861.761L858.733 166.535L858.854 170.401V174H857.635V164.758H859.209Z" fill="white" fill-opacity="0.64"/>
<rect x="53" y="7" width="816" height="1" fill="white" fill-opacity="0.38"/>
<rect x="53" y="47" width="816" height="1" fill="white" fill-opacity="0.38"/>
<rect x="53" y="87" width="816" height="1" fill="white" fill-opacity="0.38"/>
<rect x="53" y="127" width="816" height="1" fill="white" fill-opacity="0.38"/>
<path d="M53 42.3596L115.769 106.393L251.768 56.4157L302.581 122.011L313.042 136.848L366.844 147L465.481 122.011L484.909 92.3371L499.854 61.882L534.228 42.3596L589.524 29.0843H641.831L653.787 56.4157L676.205 106.393L701.611 122.011L721.039 72.8146L788.292 56.4157L816.687 79.8427L867.5 8" stroke="#DEC6FC" stroke-width="1.5"/>
</svg>
