<svg width="48" height="1024" viewBox="0 0 48 1024" fill="none" xmlns="http://www.w3.org/2000/svg">
<rect width="48" height="1024" fill="#16192A"/>
<path d="M9 61C9 58.7909 10.7909 57 13 57H35C37.2091 57 39 58.7909 39 61V83C39 85.2091 37.2091 87 35 87H13C10.7909 87 9 85.2091 9 83V61Z" fill="#5D40AC"/>
<path d="M24 67.5C25.3791 67.4954 26.7314 67.8801 27.9016 68.6098C29.0718 69.3395 30.0123 70.3846 30.615 71.625C30.009 72.863 29.0678 73.906 27.8984 74.6356C26.729 75.3652 25.3783 75.7519 24 75.7519C22.6217 75.7519 21.271 75.3652 20.1016 74.6356C18.9322 73.906 17.991 72.863 17.385 71.625C17.9877 70.3846 18.9282 69.3395 20.0984 68.6098C21.2686 67.8801 22.6209 67.4954 24 67.5ZM24 66C22.2192 66.0014 20.48 66.5386 19.0086 67.5418C17.5372 68.545 16.4018 69.9678 15.75 71.625C16.4016 73.282 17.5371 74.7044 19.0086 75.707C20.4802 76.7095 22.2194 77.2457 24 77.2457C25.7806 77.2457 27.5198 76.7095 28.9914 75.707C30.4629 74.7044 31.5984 73.282 32.25 71.625C31.5982 69.9678 30.4628 68.545 28.9914 67.5418C27.52 66.5386 25.7808 66.0014 24 66ZM24 69.75C24.3708 69.75 24.7334 69.86 25.0417 70.066C25.35 70.272 25.5904 70.5649 25.7323 70.9075C25.8742 71.2501 25.9113 71.6271 25.839 71.9908C25.7666 72.3545 25.588 72.6886 25.3258 72.9508C25.0636 73.213 24.7295 73.3916 24.3658 73.464C24.0021 73.5363 23.6251 73.4992 23.2825 73.3573C22.9399 73.2154 22.647 72.975 22.441 72.6667C22.235 72.3584 22.125 71.9958 22.125 71.625C22.125 71.1277 22.3225 70.6508 22.6742 70.2992C23.0258 69.9475 23.5027 69.75 24 69.75ZM24 68.25C23.3325 68.25 22.68 68.4479 22.125 68.8188C21.5699 69.1896 21.1374 69.7167 20.8819 70.3334C20.6265 70.9501 20.5596 71.6287 20.6898 72.2834C20.8201 72.9381 21.1415 73.5395 21.6135 74.0115C22.0855 74.4835 22.6869 74.8049 23.3416 74.9352C23.9963 75.0654 24.6749 74.9985 25.2916 74.7431C25.9083 74.4876 26.4354 74.0551 26.8062 73.5C27.1771 72.945 27.375 72.2925 27.375 71.625C27.373 70.7305 27.0168 69.8732 26.3843 69.2407C25.7518 68.6082 24.8945 68.252 24 68.25Z" fill="white"/>
<path fill-rule="evenodd" clip-rule="evenodd" d="M24 98.4792C23.733 98.4792 23.466 98.6112 23.3132 98.8752L15.9599 111.576C15.6535 112.106 16.0353 112.768 16.6467 112.768H31.3534C31.9647 112.768 32.3465 112.106 32.0402 111.576L24.6868 98.8752C24.534 98.6112 24.267 98.4792 24 98.4792ZM24 100.683L30.1282 111.268H17.8719L24 100.683ZM23.25 104.322H24.75V107.08H23.25V104.322ZM23.25 108.58H24.75V110.08H23.25V108.58Z" fill="white" fill-opacity="0.7"/>
<path fill-rule="evenodd" clip-rule="evenodd" d="M30.9579 142.533C31.2083 142.055 31.1044 141.475 30.7047 141.146L29.6772 140.309C29.6835 140.205 29.6867 140.103 29.6867 140C29.6867 139.897 29.6835 139.795 29.6772 139.691L30.7021 138.856C31.1044 138.525 31.2083 137.946 30.9666 137.484L29.6914 135.185C29.4512 134.726 28.9059 134.533 28.4357 134.711L27.2015 135.227C27.0361 135.114 26.8663 135.011 26.6918 134.918L26.5068 133.574C26.4439 133.049 26.0008 132.654 25.4838 132.654H22.9508C22.4338 132.654 21.9907 133.049 21.9261 133.588L21.7427 134.92C21.5712 135.011 21.4026 135.114 21.2358 135.228L20.0212 134.72C19.5328 134.521 18.9846 134.724 18.7345 135.202L17.4767 137.468C17.2144 137.93 17.3269 138.523 17.7299 138.854L18.7576 139.691C18.7512 139.797 18.7479 139.899 18.7479 140C18.7479 140.102 18.7512 140.204 18.7576 140.309L17.7325 141.144C17.3302 141.475 17.2263 142.055 17.468 142.516L18.7432 144.815C18.9834 145.274 19.5287 145.468 19.9989 145.29L21.2331 144.774C21.3985 144.887 21.5683 144.99 21.7428 145.082L21.9278 146.426C21.9907 146.951 22.4338 147.347 22.9508 147.347H25.4838C26.0008 147.347 26.4439 146.951 26.5085 146.413L26.6919 145.081C26.8634 144.989 27.032 144.886 27.1988 144.773L28.4134 145.281C28.9018 145.48 29.45 145.276 29.7001 144.799L30.9579 142.533ZM28.1573 140.976L29.5358 142.098L28.6189 143.75L27.3732 143.229L26.9972 143.072L26.6729 143.325C26.3679 143.563 26.0673 143.747 25.7617 143.877L25.3805 144.04L25.1318 145.847H23.3027L23.1126 144.465L23.0541 144.04L22.6729 143.877C22.3543 143.742 22.0547 143.56 21.7687 143.331L21.4428 143.069L19.8155 143.75L18.899 142.098L19.9558 141.237L20.2773 140.976L20.2267 140.554C20.2008 140.338 20.1879 140.162 20.1879 140C20.1879 139.839 20.2008 139.662 20.2267 139.447L20.2773 139.025L18.899 137.902L19.8157 136.25L21.0613 136.771L21.4374 136.929L21.7617 136.675C22.0667 136.437 22.3673 136.253 22.6729 136.123L23.0541 135.96L23.3028 134.154H25.1319L25.322 135.535L25.3805 135.96L25.7617 136.123C26.0802 136.259 26.3799 136.441 26.6659 136.67L26.9918 136.931L28.6191 136.25L29.5356 137.902L28.4788 138.763L28.1573 139.025L28.2079 139.447C28.2343 139.666 28.2467 139.834 28.2467 140C28.2467 140.166 28.2343 140.334 28.2079 140.554L28.1573 140.976ZM24.2173 140.955C24.7222 140.955 25.1341 140.526 25.1341 140C25.1341 139.474 24.7222 139.045 24.2173 139.045C23.7124 139.045 23.3005 139.474 23.3005 140C23.3005 140.526 23.7124 140.955 24.2173 140.955ZM21.8605 140C21.8605 141.355 22.9171 142.455 24.2173 142.455C25.5175 142.455 26.5741 141.355 26.5741 140C26.5741 138.646 25.5175 137.545 24.2173 137.545C22.9171 137.545 21.8605 138.646 21.8605 140Z" fill="white" fill-opacity="0.7"/>
<path fill-rule="evenodd" clip-rule="evenodd" d="M25.275 1004.64C24.975 1004.94 24.525 1004.94 24.225 1004.64C23.925 1004.34 23.925 1003.82 24.225 1003.59L27.15 1000.67L24.225 997.741C24 997.516 24 997.066 24.225 996.766C24.525 996.466 24.975 996.391 25.275 996.691L28.725 1000.14C29.025 1000.44 29.025 1000.89 28.725 1001.19L25.275 1004.64ZM20.775 1004.64C20.475 1004.94 20.025 1004.94 19.725 1004.64C19.425 1004.34 19.425 1003.82 19.725 1003.59L22.65 1000.67L19.725 997.741C19.5 997.516 19.5 997.066 19.725 996.766C20.025 996.466 20.475 996.391 20.775 996.691L24.225 1000.14C24.525 1000.44 24.525 1000.89 24.225 1001.19L20.775 1004.64Z" fill="white" fill-opacity="0.64"/>
<path d="M17.6536 17.7511L20.5292 24.2048C20.5415 24.2365 20.5556 24.2646 20.5767 24.2946L23.4417 30.7324C23.0917 30.782 22.7386 30.8067 22.3851 30.8064C19.2769 30.8062 16.5014 28.8598 15.4423 25.9376C14.3832 23.0153 15.2672 19.7427 17.6536 17.7511Z" fill="#F8F9FA"/>
<path d="M19.654 12.3293C20.5483 12.1094 21.466 11.9988 22.3869 12C27.4045 11.9953 31.8376 15.266 33.3135 20.0616C34.7894 24.8572 32.9626 30.0545 28.8106 32.8719L27.1272 29.0913C29.5134 27.0999 30.3975 23.8277 29.3389 20.9056C28.2802 17.9835 25.5054 16.0369 22.3975 16.036C22.044 16.0358 21.6909 16.0605 21.3409 16.1099L19.654 12.3293Z" fill="#F8F9FA"/>
<rect x="47" width="1" height="1024" fill="white" fill-opacity="0.15"/>
</svg>
