<svg width="230" height="138" viewBox="0 0 230 138" fill="none" xmlns="http://www.w3.org/2000/svg">
<circle cx="114" cy="74" r="5" fill="#6BE398" fill-opacity="0.83"/>
<path d="M30.2271 93.2109V99H29.0527V92.1318H30.1953L30.2271 93.2109ZM32.3726 92.0938L32.3662 93.1855C32.2689 93.1644 32.1758 93.1517 32.0869 93.1475C32.0023 93.139 31.9049 93.1348 31.7949 93.1348C31.5241 93.1348 31.285 93.1771 31.0776 93.2617C30.8703 93.3464 30.6947 93.4648 30.5508 93.6172C30.4069 93.7695 30.2926 93.9515 30.208 94.1631C30.1276 94.3704 30.0747 94.599 30.0493 94.8486L29.7192 95.0391C29.7192 94.6243 29.7594 94.235 29.8398 93.8711C29.9245 93.5072 30.0535 93.1855 30.2271 92.9062C30.4006 92.6227 30.6206 92.4027 30.8872 92.2461C31.158 92.0853 31.4797 92.0049 31.8521 92.0049C31.9367 92.0049 32.034 92.0155 32.144 92.0366C32.2541 92.0535 32.3302 92.0726 32.3726 92.0938ZM36.1812 99.127C35.703 99.127 35.2692 99.0465 34.8799 98.8857C34.4948 98.7207 34.1626 98.4901 33.8833 98.1938C33.6082 97.8976 33.3966 97.5464 33.2485 97.1401C33.1004 96.7339 33.0264 96.2896 33.0264 95.8071V95.5405C33.0264 94.9819 33.1089 94.4847 33.2739 94.0488C33.439 93.6087 33.6632 93.2363 33.9468 92.9316C34.2303 92.627 34.5519 92.3963 34.9116 92.2397C35.2713 92.0832 35.6437 92.0049 36.0288 92.0049C36.5197 92.0049 36.9429 92.0895 37.2983 92.2588C37.658 92.4281 37.9521 92.665 38.1807 92.9697C38.4092 93.2702 38.5785 93.6257 38.6885 94.0361C38.7985 94.4424 38.8535 94.8867 38.8535 95.3691V95.896H33.7246V94.9375H37.6792V94.8486C37.6623 94.5439 37.5988 94.2477 37.4888 93.96C37.383 93.6722 37.2137 93.4352 36.981 93.249C36.7482 93.0628 36.4308 92.9697 36.0288 92.9697C35.7622 92.9697 35.5168 93.0269 35.2925 93.1411C35.0682 93.2511 34.8757 93.4162 34.7148 93.6362C34.554 93.8563 34.4292 94.125 34.3403 94.4424C34.2515 94.7598 34.207 95.1258 34.207 95.5405V95.8071C34.207 96.133 34.2515 96.4398 34.3403 96.7275C34.4334 97.0111 34.5667 97.2607 34.7402 97.4766C34.918 97.6924 35.1317 97.8617 35.3813 97.9844C35.6353 98.1071 35.923 98.1685 36.2446 98.1685C36.6593 98.1685 37.0106 98.0838 37.2983 97.9146C37.5861 97.7453 37.8379 97.5189 38.0537 97.2354L38.7646 97.8003C38.6165 98.0246 38.4282 98.2383 38.1997 98.4414C37.9712 98.6445 37.6898 98.8096 37.3555 98.9365C37.0254 99.0635 36.634 99.127 36.1812 99.127ZM42.9731 98.1621C43.2524 98.1621 43.5106 98.105 43.7476 97.9907C43.9845 97.8765 44.1792 97.7199 44.3315 97.521C44.4839 97.3179 44.5706 97.0872 44.5918 96.8291H45.709C45.6878 97.2354 45.5503 97.6141 45.2964 97.9653C45.0467 98.3123 44.7188 98.5938 44.3125 98.8096C43.9062 99.0212 43.4598 99.127 42.9731 99.127C42.4569 99.127 42.0062 99.036 41.6211 98.854C41.2402 98.672 40.9229 98.4224 40.6689 98.105C40.4193 97.7876 40.231 97.4237 40.104 97.0132C39.9813 96.5985 39.9199 96.1605 39.9199 95.6992V95.4326C39.9199 94.9714 39.9813 94.5355 40.104 94.125C40.231 93.7103 40.4193 93.3442 40.6689 93.0269C40.9229 92.7095 41.2402 92.4598 41.6211 92.2778C42.0062 92.0959 42.4569 92.0049 42.9731 92.0049C43.5106 92.0049 43.9803 92.1149 44.3823 92.335C44.7843 92.5508 45.0996 92.847 45.3281 93.2236C45.5609 93.596 45.6878 94.0192 45.709 94.4932H44.5918C44.5706 94.2096 44.4902 93.9536 44.3506 93.7251C44.2152 93.4966 44.029 93.3146 43.792 93.1792C43.5592 93.0396 43.2863 92.9697 42.9731 92.9697C42.6134 92.9697 42.3109 93.0417 42.0654 93.1855C41.8242 93.3252 41.6317 93.5156 41.4878 93.7568C41.3481 93.9938 41.2466 94.2583 41.1831 94.5503C41.1239 94.8381 41.0942 95.1322 41.0942 95.4326V95.6992C41.0942 95.9997 41.1239 96.2959 41.1831 96.5879C41.2424 96.8799 41.3418 97.1444 41.4814 97.3813C41.6253 97.6183 41.8179 97.8088 42.0591 97.9526C42.3045 98.0923 42.6092 98.1621 42.9731 98.1621ZM51.0283 97.1782C51.0283 97.009 50.9902 96.8524 50.9141 96.7085C50.8421 96.5604 50.6919 96.4271 50.4634 96.3086C50.2391 96.1859 49.9006 96.0801 49.4478 95.9912C49.0669 95.9108 48.722 95.8156 48.4131 95.7056C48.1084 95.5955 47.8481 95.4622 47.6323 95.3057C47.4207 95.1491 47.2578 94.965 47.1436 94.7534C47.0293 94.5418 46.9722 94.2943 46.9722 94.0107C46.9722 93.7399 47.0314 93.4839 47.1499 93.2427C47.2726 93.0015 47.444 92.7878 47.6641 92.6016C47.8883 92.4154 48.1571 92.2694 48.4702 92.1636C48.7834 92.0578 49.1325 92.0049 49.5176 92.0049C50.0677 92.0049 50.5374 92.1022 50.9268 92.2969C51.3161 92.4915 51.6144 92.7518 51.8218 93.0776C52.0291 93.3993 52.1328 93.7568 52.1328 94.1504H50.9585C50.9585 93.96 50.9014 93.7759 50.7871 93.5981C50.6771 93.4162 50.5142 93.266 50.2983 93.1475C50.0868 93.029 49.8265 92.9697 49.5176 92.9697C49.1917 92.9697 48.9272 93.0205 48.7241 93.1221C48.5252 93.2194 48.3792 93.3442 48.2861 93.4966C48.1973 93.6489 48.1528 93.8097 48.1528 93.979C48.1528 94.106 48.174 94.2202 48.2163 94.3218C48.2629 94.4191 48.3433 94.5101 48.4575 94.5947C48.5718 94.6751 48.7326 94.7513 48.9399 94.8232C49.1473 94.8952 49.4118 94.9671 49.7334 95.0391C50.2962 95.166 50.7596 95.3184 51.1235 95.4961C51.4875 95.6738 51.7583 95.8918 51.936 96.1499C52.1138 96.408 52.2026 96.7212 52.2026 97.0894C52.2026 97.3898 52.1392 97.6649 52.0122 97.9146C51.8895 98.1642 51.7096 98.38 51.4727 98.562C51.2399 98.7397 50.9606 98.8794 50.6348 98.981C50.3132 99.0783 49.9513 99.127 49.5493 99.127C48.9442 99.127 48.4321 99.019 48.0132 98.8032C47.5942 98.5874 47.2769 98.3081 47.061 97.9653C46.8452 97.6226 46.7373 97.2607 46.7373 96.8799H47.918C47.9349 97.2015 48.028 97.4575 48.1973 97.6479C48.3665 97.8341 48.5739 97.9674 48.8193 98.0479C49.0648 98.124 49.3081 98.1621 49.5493 98.1621C49.8709 98.1621 50.1396 98.1198 50.3555 98.0352C50.5755 97.9505 50.7427 97.8341 50.8569 97.686C50.9712 97.5379 51.0283 97.3687 51.0283 97.1782ZM56.5952 99.127C56.117 99.127 55.6833 99.0465 55.2939 98.8857C54.9089 98.7207 54.5767 98.4901 54.2974 98.1938C54.0223 97.8976 53.8107 97.5464 53.6626 97.1401C53.5145 96.7339 53.4404 96.2896 53.4404 95.8071V95.5405C53.4404 94.9819 53.5229 94.4847 53.688 94.0488C53.853 93.6087 54.0773 93.2363 54.3608 92.9316C54.6444 92.627 54.966 92.3963 55.3257 92.2397C55.6854 92.0832 56.0578 92.0049 56.4429 92.0049C56.9338 92.0049 57.3569 92.0895 57.7124 92.2588C58.0721 92.4281 58.3662 92.665 58.5947 92.9697C58.8232 93.2702 58.9925 93.6257 59.1025 94.0361C59.2126 94.4424 59.2676 94.8867 59.2676 95.3691V95.896H54.1387V94.9375H58.0933V94.8486C58.0763 94.5439 58.0129 94.2477 57.9028 93.96C57.797 93.6722 57.6278 93.4352 57.395 93.249C57.1623 93.0628 56.8449 92.9697 56.4429 92.9697C56.1763 92.9697 55.9308 93.0269 55.7065 93.1411C55.4823 93.2511 55.2897 93.4162 55.1289 93.6362C54.9681 93.8563 54.8433 94.125 54.7544 94.4424C54.6655 94.7598 54.6211 95.1258 54.6211 95.5405V95.8071C54.6211 96.133 54.6655 96.4398 54.7544 96.7275C54.8475 97.0111 54.9808 97.2607 55.1543 97.4766C55.332 97.6924 55.5457 97.8617 55.7954 97.9844C56.0493 98.1071 56.3371 98.1685 56.6587 98.1685C57.0734 98.1685 57.4246 98.0838 57.7124 97.9146C58.0002 97.7453 58.252 97.5189 58.4678 97.2354L59.1787 97.8003C59.0306 98.0246 58.8423 98.2383 58.6138 98.4414C58.3853 98.6445 58.1038 98.8096 57.7695 98.9365C57.4395 99.0635 57.048 99.127 56.5952 99.127ZM61.813 93.2109V99H60.6387V92.1318H61.7812L61.813 93.2109ZM63.9585 92.0938L63.9521 93.1855C63.8548 93.1644 63.7617 93.1517 63.6729 93.1475C63.5882 93.139 63.4909 93.1348 63.3809 93.1348C63.11 93.1348 62.8709 93.1771 62.6636 93.2617C62.4562 93.3464 62.2806 93.4648 62.1367 93.6172C61.9928 93.7695 61.8786 93.9515 61.7939 94.1631C61.7135 94.3704 61.6606 94.599 61.6353 94.8486L61.3052 95.0391C61.3052 94.6243 61.3454 94.235 61.4258 93.8711C61.5104 93.5072 61.6395 93.1855 61.813 92.9062C61.9865 92.6227 62.2065 92.4027 62.4731 92.2461C62.744 92.0853 63.0656 92.0049 63.438 92.0049C63.5226 92.0049 63.62 92.0155 63.73 92.0366C63.84 92.0535 63.9162 92.0726 63.9585 92.0938ZM67.2466 97.9399L69.1255 92.1318H70.3252L67.856 99H67.0688L67.2466 97.9399ZM65.6787 92.1318L67.6147 97.9717L67.748 99H66.9609L64.4727 92.1318H65.6787ZM72.731 92.1318V99H71.5503V92.1318H72.731ZM71.4614 90.3101C71.4614 90.1196 71.5186 89.9588 71.6328 89.8276C71.7513 89.6965 71.9248 89.6309 72.1533 89.6309C72.3776 89.6309 72.549 89.6965 72.6675 89.8276C72.7902 89.9588 72.8516 90.1196 72.8516 90.3101C72.8516 90.492 72.7902 90.6486 72.6675 90.7798C72.549 90.9067 72.3776 90.9702 72.1533 90.9702C71.9248 90.9702 71.7513 90.9067 71.6328 90.7798C71.5186 90.6486 71.4614 90.492 71.4614 90.3101ZM77.3647 98.1621C77.644 98.1621 77.9022 98.105 78.1392 97.9907C78.3761 97.8765 78.5708 97.7199 78.7231 97.521C78.8755 97.3179 78.9622 97.0872 78.9834 96.8291H80.1006C80.0794 97.2354 79.9419 97.6141 79.688 97.9653C79.4383 98.3123 79.1104 98.5938 78.7041 98.8096C78.2979 99.0212 77.8514 99.127 77.3647 99.127C76.8485 99.127 76.3978 99.036 76.0127 98.854C75.6318 98.672 75.3145 98.4224 75.0605 98.105C74.8109 97.7876 74.6226 97.4237 74.4956 97.0132C74.3729 96.5985 74.3115 96.1605 74.3115 95.6992V95.4326C74.3115 94.9714 74.3729 94.5355 74.4956 94.125C74.6226 93.7103 74.8109 93.3442 75.0605 93.0269C75.3145 92.7095 75.6318 92.4598 76.0127 92.2778C76.3978 92.0959 76.8485 92.0049 77.3647 92.0049C77.9022 92.0049 78.3719 92.1149 78.7739 92.335C79.1759 92.5508 79.4912 92.847 79.7197 93.2236C79.9525 93.596 80.0794 94.0192 80.1006 94.4932H78.9834C78.9622 94.2096 78.8818 93.9536 78.7422 93.7251C78.6068 93.4966 78.4206 93.3146 78.1836 93.1792C77.9508 93.0396 77.6779 92.9697 77.3647 92.9697C77.005 92.9697 76.7025 93.0417 76.457 93.1855C76.2158 93.3252 76.0233 93.5156 75.8794 93.7568C75.7397 93.9938 75.6382 94.2583 75.5747 94.5503C75.5155 94.8381 75.4858 95.1322 75.4858 95.4326V95.6992C75.4858 95.9997 75.5155 96.2959 75.5747 96.5879C75.634 96.8799 75.7334 97.1444 75.873 97.3813C76.0169 97.6183 76.2095 97.8088 76.4507 97.9526C76.6961 98.0923 77.0008 98.1621 77.3647 98.1621ZM84.271 99.127C83.7928 99.127 83.359 99.0465 82.9697 98.8857C82.5846 98.7207 82.2524 98.4901 81.9731 98.1938C81.6981 97.8976 81.4865 97.5464 81.3384 97.1401C81.1903 96.7339 81.1162 96.2896 81.1162 95.8071V95.5405C81.1162 94.9819 81.1987 94.4847 81.3638 94.0488C81.5288 93.6087 81.7531 93.2363 82.0366 92.9316C82.3201 92.627 82.6418 92.3963 83.0015 92.2397C83.3612 92.0832 83.7336 92.0049 84.1187 92.0049C84.6095 92.0049 85.0327 92.0895 85.3882 92.2588C85.7479 92.4281 86.042 92.665 86.2705 92.9697C86.499 93.2702 86.6683 93.6257 86.7783 94.0361C86.8883 94.4424 86.9434 94.8867 86.9434 95.3691V95.896H81.8145V94.9375H85.769V94.8486C85.7521 94.5439 85.6886 94.2477 85.5786 93.96C85.4728 93.6722 85.3035 93.4352 85.0708 93.249C84.8381 93.0628 84.5207 92.9697 84.1187 92.9697C83.8521 92.9697 83.6066 93.0269 83.3823 93.1411C83.158 93.2511 82.9655 93.4162 82.8047 93.6362C82.6439 93.8563 82.519 94.125 82.4302 94.4424C82.3413 94.7598 82.2969 95.1258 82.2969 95.5405V95.8071C82.2969 96.133 82.3413 96.4398 82.4302 96.7275C82.5233 97.0111 82.6566 97.2607 82.8301 97.4766C83.0078 97.6924 83.2215 97.8617 83.4712 97.9844C83.7251 98.1071 84.0129 98.1685 84.3345 98.1685C84.7492 98.1685 85.1004 98.0838 85.3882 97.9146C85.6759 97.7453 85.9277 97.5189 86.1436 97.2354L86.8545 97.8003C86.7064 98.0246 86.5181 98.2383 86.2896 98.4414C86.061 98.6445 85.7796 98.8096 85.4453 98.9365C85.1152 99.0635 84.7238 99.127 84.271 99.127ZM90.7583 94.5884V95.5532H87.6606V94.5884H90.7583ZM93.0815 93.2109V99H91.9072V92.1318H93.0498L93.0815 93.2109ZM95.2271 92.0938L95.2207 93.1855C95.1234 93.1644 95.0303 93.1517 94.9414 93.1475C94.8568 93.139 94.7594 93.1348 94.6494 93.1348C94.3786 93.1348 94.1395 93.1771 93.9321 93.2617C93.7248 93.3464 93.5492 93.4648 93.4053 93.6172C93.2614 93.7695 93.1471 93.9515 93.0625 94.1631C92.9821 94.3704 92.9292 94.599 92.9038 94.8486L92.5737 95.0391C92.5737 94.6243 92.6139 94.235 92.6943 93.8711C92.779 93.5072 92.908 93.1855 93.0815 92.9062C93.255 92.6227 93.4751 92.4027 93.7417 92.2461C94.0125 92.0853 94.3341 92.0049 94.7065 92.0049C94.7912 92.0049 94.8885 92.0155 94.9985 92.0366C95.1086 92.0535 95.1847 92.0726 95.2271 92.0938ZM99.0356 99.127C98.5575 99.127 98.1237 99.0465 97.7344 98.8857C97.3493 98.7207 97.0171 98.4901 96.7378 98.1938C96.4627 97.8976 96.2511 97.5464 96.103 97.1401C95.9549 96.7339 95.8809 96.2896 95.8809 95.8071V95.5405C95.8809 94.9819 95.9634 94.4847 96.1284 94.0488C96.2935 93.6087 96.5177 93.2363 96.8013 92.9316C97.0848 92.627 97.4064 92.3963 97.7661 92.2397C98.1258 92.0832 98.4982 92.0049 98.8833 92.0049C99.3742 92.0049 99.7974 92.0895 100.153 92.2588C100.513 92.4281 100.807 92.665 101.035 92.9697C101.264 93.2702 101.433 93.6257 101.543 94.0361C101.653 94.4424 101.708 94.8867 101.708 95.3691V95.896H96.5791V94.9375H100.534V94.8486C100.517 94.5439 100.453 94.2477 100.343 93.96C100.237 93.6722 100.068 93.4352 99.8354 93.249C99.6027 93.0628 99.2853 92.9697 98.8833 92.9697C98.6167 92.9697 98.3713 93.0269 98.147 93.1411C97.9227 93.2511 97.7301 93.4162 97.5693 93.6362C97.4085 93.8563 97.2837 94.125 97.1948 94.4424C97.106 94.7598 97.0615 95.1258 97.0615 95.5405V95.8071C97.0615 96.133 97.106 96.4398 97.1948 96.7275C97.2879 97.0111 97.4212 97.2607 97.5947 97.4766C97.7725 97.6924 97.9862 97.8617 98.2358 97.9844C98.4897 98.1071 98.7775 98.1685 99.0991 98.1685C99.5138 98.1685 99.8651 98.0838 100.153 97.9146C100.441 97.7453 100.692 97.5189 100.908 97.2354L101.619 97.8003C101.471 98.0246 101.283 98.2383 101.054 98.4414C100.826 98.6445 100.544 98.8096 100.21 98.9365C99.8799 99.0635 99.4884 99.127 99.0356 99.127ZM105.828 98.1621C106.107 98.1621 106.365 98.105 106.602 97.9907C106.839 97.8765 107.034 97.7199 107.186 97.521C107.338 97.3179 107.425 97.0872 107.446 96.8291H108.563C108.542 97.2354 108.405 97.6141 108.151 97.9653C107.901 98.3123 107.573 98.5938 107.167 98.8096C106.761 99.0212 106.314 99.127 105.828 99.127C105.311 99.127 104.861 99.036 104.476 98.854C104.095 98.672 103.777 98.4224 103.523 98.105C103.274 97.7876 103.085 97.4237 102.958 97.0132C102.836 96.5985 102.774 96.1605 102.774 95.6992V95.4326C102.774 94.9714 102.836 94.5355 102.958 94.125C103.085 93.7103 103.274 93.3442 103.523 93.0269C103.777 92.7095 104.095 92.4598 104.476 92.2778C104.861 92.0959 105.311 92.0049 105.828 92.0049C106.365 92.0049 106.835 92.1149 107.237 92.335C107.639 92.5508 107.954 92.847 108.183 93.2236C108.415 93.596 108.542 94.0192 108.563 94.4932H107.446C107.425 94.2096 107.345 93.9536 107.205 93.7251C107.07 93.4966 106.883 93.3146 106.646 93.1792C106.414 93.0396 106.141 92.9697 105.828 92.9697C105.468 92.9697 105.165 93.0417 104.92 93.1855C104.679 93.3252 104.486 93.5156 104.342 93.7568C104.203 93.9938 104.101 94.2583 104.038 94.5503C103.978 94.8381 103.949 95.1322 103.949 95.4326V95.6992C103.949 95.9997 103.978 96.2959 104.038 96.5879C104.097 96.8799 104.196 97.1444 104.336 97.3813C104.48 97.6183 104.672 97.8088 104.914 97.9526C105.159 98.0923 105.464 98.1621 105.828 98.1621ZM112.734 99.127C112.256 99.127 111.822 99.0465 111.433 98.8857C111.048 98.7207 110.715 98.4901 110.436 98.1938C110.161 97.8976 109.949 97.5464 109.801 97.1401C109.653 96.7339 109.579 96.2896 109.579 95.8071V95.5405C109.579 94.9819 109.662 94.4847 109.827 94.0488C109.992 93.6087 110.216 93.2363 110.5 92.9316C110.783 92.627 111.105 92.3963 111.464 92.2397C111.824 92.0832 112.196 92.0049 112.582 92.0049C113.072 92.0049 113.496 92.0895 113.851 92.2588C114.211 92.4281 114.505 92.665 114.733 92.9697C114.962 93.2702 115.131 93.6257 115.241 94.0361C115.351 94.4424 115.406 94.8867 115.406 95.3691V95.896H110.277V94.9375H114.232V94.8486C114.215 94.5439 114.152 94.2477 114.042 93.96C113.936 93.6722 113.766 93.4352 113.534 93.249C113.301 93.0628 112.984 92.9697 112.582 92.9697C112.315 92.9697 112.069 93.0269 111.845 93.1411C111.621 93.2511 111.428 93.4162 111.268 93.6362C111.107 93.8563 110.982 94.125 110.893 94.4424C110.804 94.7598 110.76 95.1258 110.76 95.5405V95.8071C110.76 96.133 110.804 96.4398 110.893 96.7275C110.986 97.0111 111.119 97.2607 111.293 97.4766C111.471 97.6924 111.684 97.8617 111.934 97.9844C112.188 98.1071 112.476 98.1685 112.797 98.1685C113.212 98.1685 113.563 98.0838 113.851 97.9146C114.139 97.7453 114.391 97.5189 114.606 97.2354L115.317 97.8003C115.169 98.0246 114.981 98.2383 114.752 98.4414C114.524 98.6445 114.243 98.8096 113.908 98.9365C113.578 99.0635 113.187 99.127 112.734 99.127ZM117.952 93.5981V99H116.777V92.1318H117.888L117.952 93.5981ZM117.672 95.3057L117.184 95.2866C117.188 94.8169 117.258 94.3831 117.393 93.9854C117.528 93.5833 117.719 93.2342 117.964 92.938C118.21 92.6418 118.502 92.4132 118.84 92.2524C119.183 92.0874 119.562 92.0049 119.977 92.0049C120.315 92.0049 120.62 92.0514 120.891 92.1445C121.161 92.2334 121.392 92.3773 121.583 92.5762C121.777 92.7751 121.925 93.0332 122.027 93.3506C122.128 93.6637 122.179 94.0467 122.179 94.4995V99H120.999V94.4868C120.999 94.1271 120.946 93.8394 120.84 93.6235C120.734 93.4035 120.58 93.2448 120.376 93.1475C120.173 93.0459 119.924 92.9951 119.627 92.9951C119.335 92.9951 119.069 93.0565 118.828 93.1792C118.591 93.3019 118.385 93.4712 118.212 93.687C118.043 93.9028 117.909 94.1504 117.812 94.4297C117.719 94.7048 117.672 94.9967 117.672 95.3057ZM126.838 92.1318V93.0332H123.125V92.1318H126.838ZM124.382 90.4624H125.556V97.2988C125.556 97.5316 125.592 97.7072 125.664 97.8257C125.736 97.9442 125.829 98.0225 125.943 98.0605C126.058 98.0986 126.18 98.1177 126.312 98.1177C126.409 98.1177 126.51 98.1092 126.616 98.0923C126.726 98.0711 126.809 98.0542 126.864 98.0415L126.87 99C126.777 99.0296 126.654 99.0571 126.502 99.0825C126.354 99.1121 126.174 99.127 125.962 99.127C125.675 99.127 125.41 99.0698 125.169 98.9556C124.928 98.8413 124.735 98.6509 124.591 98.3843C124.452 98.1134 124.382 97.7495 124.382 97.2925V90.4624ZM129.39 93.4521V101.641H128.209V92.1318H129.289L129.39 93.4521ZM134.018 95.5088V95.6421C134.018 96.1414 133.958 96.6048 133.84 97.0322C133.721 97.4554 133.548 97.8236 133.319 98.1367C133.095 98.4499 132.818 98.6932 132.488 98.8667C132.158 99.0402 131.779 99.127 131.352 99.127C130.916 99.127 130.531 99.055 130.196 98.9111C129.862 98.7673 129.578 98.5578 129.346 98.2827C129.113 98.0076 128.927 97.6776 128.787 97.2925C128.652 96.9074 128.559 96.4736 128.508 95.9912V95.2803C128.559 94.7725 128.654 94.3175 128.793 93.9155C128.933 93.5135 129.117 93.1707 129.346 92.8872C129.578 92.5994 129.86 92.3815 130.19 92.2334C130.52 92.0811 130.901 92.0049 131.333 92.0049C131.764 92.0049 132.147 92.0895 132.481 92.2588C132.816 92.4238 133.097 92.6608 133.326 92.9697C133.554 93.2786 133.726 93.6489 133.84 94.0806C133.958 94.508 134.018 94.984 134.018 95.5088ZM132.837 95.6421V95.5088C132.837 95.166 132.801 94.8444 132.729 94.5439C132.657 94.2393 132.545 93.9727 132.393 93.7441C132.244 93.5114 132.054 93.3294 131.821 93.1982C131.589 93.0628 131.311 92.9951 130.99 92.9951C130.694 92.9951 130.435 93.0459 130.215 93.1475C130 93.249 129.815 93.3866 129.663 93.5601C129.511 93.7293 129.386 93.924 129.289 94.144C129.195 94.3599 129.126 94.5841 129.079 94.8169V96.4609C129.164 96.7572 129.282 97.0365 129.435 97.2988C129.587 97.557 129.79 97.7664 130.044 97.9272C130.298 98.0838 130.617 98.1621 131.002 98.1621C131.32 98.1621 131.593 98.0965 131.821 97.9653C132.054 97.8299 132.244 97.6458 132.393 97.4131C132.545 97.1803 132.657 96.9137 132.729 96.6133C132.801 96.3086 132.837 95.9849 132.837 95.6421ZM139.718 97.4131V92.1318H140.898V99H139.775L139.718 97.4131ZM139.94 95.9658L140.429 95.9531C140.429 96.4102 140.38 96.8333 140.283 97.2227C140.19 97.6077 140.037 97.9421 139.826 98.2256C139.614 98.5091 139.337 98.7313 138.994 98.8921C138.651 99.0487 138.235 99.127 137.744 99.127C137.409 99.127 137.103 99.0783 136.823 98.981C136.548 98.8836 136.311 98.7334 136.112 98.5303C135.913 98.3271 135.759 98.0627 135.649 97.7368C135.543 97.411 135.49 97.0195 135.49 96.5625V92.1318H136.665V96.5752C136.665 96.8841 136.698 97.1401 136.766 97.3433C136.838 97.5422 136.933 97.7008 137.052 97.8193C137.174 97.9336 137.31 98.014 137.458 98.0605C137.61 98.1071 137.767 98.1304 137.928 98.1304C138.427 98.1304 138.823 98.0352 139.115 97.8447C139.407 97.6501 139.616 97.3898 139.743 97.064C139.874 96.7339 139.94 96.3678 139.94 95.9658ZM143.863 93.2109V99H142.688V92.1318H143.831L143.863 93.2109ZM146.008 92.0938L146.002 93.1855C145.905 93.1644 145.812 93.1517 145.723 93.1475C145.638 93.139 145.541 93.1348 145.431 93.1348C145.16 93.1348 144.921 93.1771 144.713 93.2617C144.506 93.3464 144.33 93.4648 144.187 93.6172C144.043 93.7695 143.928 93.9515 143.844 94.1631C143.763 94.3704 143.71 94.599 143.685 94.8486L143.355 95.0391C143.355 94.6243 143.395 94.235 143.476 93.8711C143.56 93.5072 143.689 93.1855 143.863 92.9062C144.036 92.6227 144.256 92.4027 144.523 92.2461C144.794 92.0853 145.115 92.0049 145.488 92.0049C145.572 92.0049 145.67 92.0155 145.78 92.0366C145.89 92.0535 145.966 92.0726 146.008 92.0938ZM149.715 98.1621C149.995 98.1621 150.253 98.105 150.49 97.9907C150.727 97.8765 150.921 97.7199 151.074 97.521C151.226 97.3179 151.313 97.0872 151.334 96.8291H152.451C152.43 97.2354 152.292 97.6141 152.039 97.9653C151.789 98.3123 151.461 98.5938 151.055 98.8096C150.648 99.0212 150.202 99.127 149.715 99.127C149.199 99.127 148.748 99.036 148.363 98.854C147.982 98.672 147.665 98.4224 147.411 98.105C147.161 97.7876 146.973 97.4237 146.846 97.0132C146.723 96.5985 146.662 96.1605 146.662 95.6992V95.4326C146.662 94.9714 146.723 94.5355 146.846 94.125C146.973 93.7103 147.161 93.3442 147.411 93.0269C147.665 92.7095 147.982 92.4598 148.363 92.2778C148.748 92.0959 149.199 92.0049 149.715 92.0049C150.253 92.0049 150.722 92.1149 151.125 92.335C151.527 92.5508 151.842 92.847 152.07 93.2236C152.303 93.596 152.43 94.0192 152.451 94.4932H151.334C151.313 94.2096 151.232 93.9536 151.093 93.7251C150.957 93.4966 150.771 93.3146 150.534 93.1792C150.301 93.0396 150.028 92.9697 149.715 92.9697C149.356 92.9697 149.053 93.0417 148.808 93.1855C148.566 93.3252 148.374 93.5156 148.23 93.7568C148.09 93.9938 147.989 94.2583 147.925 94.5503C147.866 94.8381 147.836 95.1322 147.836 95.4326V95.6992C147.836 95.9997 147.866 96.2959 147.925 96.5879C147.985 96.8799 148.084 97.1444 148.224 97.3813C148.368 97.6183 148.56 97.8088 148.801 97.9526C149.047 98.0923 149.351 98.1621 149.715 98.1621ZM154.946 89.25V99H153.771V89.25H154.946ZM154.667 95.3057L154.178 95.2866C154.182 94.8169 154.252 94.3831 154.387 93.9854C154.523 93.5833 154.713 93.2342 154.958 92.938C155.204 92.6418 155.496 92.4132 155.834 92.2524C156.177 92.0874 156.556 92.0049 156.971 92.0049C157.309 92.0049 157.614 92.0514 157.885 92.1445C158.156 92.2334 158.386 92.3773 158.577 92.5762C158.771 92.7751 158.919 93.0332 159.021 93.3506C159.123 93.6637 159.173 94.0467 159.173 94.4995V99H157.993V94.4868C157.993 94.1271 157.94 93.8394 157.834 93.6235C157.728 93.4035 157.574 93.2448 157.371 93.1475C157.167 93.0459 156.918 92.9951 156.622 92.9951C156.33 92.9951 156.063 93.0565 155.822 93.1792C155.585 93.3019 155.38 93.4712 155.206 93.687C155.037 93.9028 154.903 94.1504 154.806 94.4297C154.713 94.7048 154.667 94.9967 154.667 95.3057ZM164.981 97.8257V94.29C164.981 94.0192 164.926 93.7843 164.816 93.5854C164.711 93.3823 164.55 93.2257 164.334 93.1157C164.118 93.0057 163.852 92.9507 163.534 92.9507C163.238 92.9507 162.978 93.0015 162.753 93.103C162.533 93.2046 162.36 93.3379 162.233 93.5029C162.11 93.668 162.049 93.8457 162.049 94.0361H160.875C160.875 93.7907 160.938 93.5474 161.065 93.3062C161.192 93.0649 161.374 92.847 161.611 92.6523C161.852 92.4535 162.14 92.2969 162.474 92.1826C162.813 92.0641 163.189 92.0049 163.604 92.0049C164.103 92.0049 164.543 92.0895 164.924 92.2588C165.309 92.4281 165.61 92.6841 165.826 93.0269C166.046 93.3654 166.156 93.7907 166.156 94.3027V97.502C166.156 97.7305 166.175 97.9738 166.213 98.2319C166.255 98.4901 166.317 98.7122 166.397 98.8984V99H165.172C165.113 98.8646 165.066 98.6847 165.032 98.4604C164.998 98.2319 164.981 98.0203 164.981 97.8257ZM165.185 94.8359L165.197 95.6611H164.01C163.676 95.6611 163.378 95.6886 163.115 95.7437C162.853 95.7944 162.633 95.8727 162.455 95.9785C162.277 96.0843 162.142 96.2176 162.049 96.3784C161.956 96.535 161.909 96.7191 161.909 96.9307C161.909 97.1465 161.958 97.3433 162.055 97.521C162.153 97.6987 162.299 97.8405 162.493 97.9463C162.692 98.0479 162.935 98.0986 163.223 98.0986C163.583 98.0986 163.9 98.0225 164.175 97.8701C164.45 97.7178 164.668 97.5316 164.829 97.3115C164.994 97.0915 165.083 96.8778 165.096 96.6704L165.597 97.2354C165.568 97.4131 165.487 97.6099 165.356 97.8257C165.225 98.0415 165.049 98.2489 164.829 98.4478C164.613 98.6424 164.355 98.8053 164.055 98.9365C163.758 99.0635 163.424 99.127 163.052 99.127C162.586 99.127 162.178 99.036 161.827 98.854C161.48 98.672 161.209 98.4287 161.014 98.124C160.824 97.8151 160.729 97.4702 160.729 97.0894C160.729 96.7212 160.8 96.3975 160.944 96.1182C161.088 95.8346 161.296 95.5998 161.566 95.4136C161.837 95.2231 162.163 95.0793 162.544 94.9819C162.925 94.8846 163.35 94.8359 163.82 94.8359H165.185ZM172.002 97.1782C172.002 97.009 171.964 96.8524 171.888 96.7085C171.816 96.5604 171.666 96.4271 171.437 96.3086C171.213 96.1859 170.874 96.0801 170.421 95.9912C170.041 95.9108 169.696 95.8156 169.387 95.7056C169.082 95.5955 168.822 95.4622 168.606 95.3057C168.394 95.1491 168.231 94.965 168.117 94.7534C168.003 94.5418 167.946 94.2943 167.946 94.0107C167.946 93.7399 168.005 93.4839 168.124 93.2427C168.246 93.0015 168.418 92.7878 168.638 92.6016C168.862 92.4154 169.131 92.2694 169.444 92.1636C169.757 92.0578 170.106 92.0049 170.491 92.0049C171.041 92.0049 171.511 92.1022 171.9 92.2969C172.29 92.4915 172.588 92.7518 172.795 93.0776C173.003 93.3993 173.106 93.7568 173.106 94.1504H171.932C171.932 93.96 171.875 93.7759 171.761 93.5981C171.651 93.4162 171.488 93.266 171.272 93.1475C171.06 93.029 170.8 92.9697 170.491 92.9697C170.165 92.9697 169.901 93.0205 169.698 93.1221C169.499 93.2194 169.353 93.3442 169.26 93.4966C169.171 93.6489 169.126 93.8097 169.126 93.979C169.126 94.106 169.148 94.2202 169.19 94.3218C169.236 94.4191 169.317 94.5101 169.431 94.5947C169.545 94.6751 169.706 94.7513 169.914 94.8232C170.121 94.8952 170.385 94.9671 170.707 95.0391C171.27 95.166 171.733 95.3184 172.097 95.4961C172.461 95.6738 172.732 95.8918 172.91 96.1499C173.087 96.408 173.176 96.7212 173.176 97.0894C173.176 97.3898 173.113 97.6649 172.986 97.9146C172.863 98.1642 172.683 98.38 172.446 98.562C172.214 98.7397 171.934 98.8794 171.608 98.981C171.287 99.0783 170.925 99.127 170.523 99.127C169.918 99.127 169.406 99.019 168.987 98.8032C168.568 98.5874 168.25 98.3081 168.035 97.9653C167.819 97.6226 167.711 97.2607 167.711 96.8799H168.892C168.909 97.2015 169.002 97.4575 169.171 97.6479C169.34 97.8341 169.548 97.9674 169.793 98.0479C170.038 98.124 170.282 98.1621 170.523 98.1621C170.845 98.1621 171.113 98.1198 171.329 98.0352C171.549 97.9505 171.716 97.8341 171.831 97.686C171.945 97.5379 172.002 97.3687 172.002 97.1782ZM177.569 99.127C177.091 99.127 176.657 99.0465 176.268 98.8857C175.882 98.7207 175.55 98.4901 175.271 98.1938C174.996 97.8976 174.784 97.5464 174.636 97.1401C174.488 96.7339 174.414 96.2896 174.414 95.8071V95.5405C174.414 94.9819 174.497 94.4847 174.662 94.0488C174.827 93.6087 175.051 93.2363 175.334 92.9316C175.618 92.627 175.94 92.3963 176.299 92.2397C176.659 92.0832 177.031 92.0049 177.417 92.0049C177.907 92.0049 178.331 92.0895 178.686 92.2588C179.046 92.4281 179.34 92.665 179.568 92.9697C179.797 93.2702 179.966 93.6257 180.076 94.0361C180.186 94.4424 180.241 94.8867 180.241 95.3691V95.896H175.112V94.9375H179.067V94.8486C179.05 94.5439 178.986 94.2477 178.876 93.96C178.771 93.6722 178.601 93.4352 178.369 93.249C178.136 93.0628 177.819 92.9697 177.417 92.9697C177.15 92.9697 176.904 93.0269 176.68 93.1411C176.456 93.2511 176.263 93.4162 176.103 93.6362C175.942 93.8563 175.817 94.125 175.728 94.4424C175.639 94.7598 175.595 95.1258 175.595 95.5405V95.8071C175.595 96.133 175.639 96.4398 175.728 96.7275C175.821 97.0111 175.954 97.2607 176.128 97.4766C176.306 97.6924 176.519 97.8617 176.769 97.9844C177.023 98.1071 177.311 98.1685 177.632 98.1685C178.047 98.1685 178.398 98.0838 178.686 97.9146C178.974 97.7453 179.226 97.5189 179.441 97.2354L180.152 97.8003C180.004 98.0246 179.816 98.2383 179.587 98.4414C179.359 98.6445 179.077 98.8096 178.743 98.9365C178.413 99.0635 178.022 99.127 177.569 99.127ZM184.056 94.5884V95.5532H180.958V94.5884H184.056ZM189.255 97.8257V94.29C189.255 94.0192 189.2 93.7843 189.09 93.5854C188.984 93.3823 188.823 93.2257 188.607 93.1157C188.392 93.0057 188.125 92.9507 187.808 92.9507C187.511 92.9507 187.251 93.0015 187.027 93.103C186.807 93.2046 186.633 93.3379 186.506 93.5029C186.384 93.668 186.322 93.8457 186.322 94.0361H185.148C185.148 93.7907 185.211 93.5474 185.338 93.3062C185.465 93.0649 185.647 92.847 185.884 92.6523C186.125 92.4535 186.413 92.2969 186.748 92.1826C187.086 92.0641 187.463 92.0049 187.877 92.0049C188.377 92.0049 188.817 92.0895 189.198 92.2588C189.583 92.4281 189.883 92.6841 190.099 93.0269C190.319 93.3654 190.429 93.7907 190.429 94.3027V97.502C190.429 97.7305 190.448 97.9738 190.486 98.2319C190.529 98.4901 190.59 98.7122 190.67 98.8984V99H189.445C189.386 98.8646 189.34 98.6847 189.306 98.4604C189.272 98.2319 189.255 98.0203 189.255 97.8257ZM189.458 94.8359L189.471 95.6611H188.284C187.949 95.6611 187.651 95.6886 187.389 95.7437C187.126 95.7944 186.906 95.8727 186.729 95.9785C186.551 96.0843 186.415 96.2176 186.322 96.3784C186.229 96.535 186.183 96.7191 186.183 96.9307C186.183 97.1465 186.231 97.3433 186.329 97.521C186.426 97.6987 186.572 97.8405 186.767 97.9463C186.965 98.0479 187.209 98.0986 187.497 98.0986C187.856 98.0986 188.174 98.0225 188.449 97.8701C188.724 97.7178 188.942 97.5316 189.103 97.3115C189.268 97.0915 189.356 96.8778 189.369 96.6704L189.871 97.2354C189.841 97.4131 189.761 97.6099 189.629 97.8257C189.498 98.0415 189.323 98.2489 189.103 98.4478C188.887 98.6424 188.629 98.8053 188.328 98.9365C188.032 99.0635 187.698 99.127 187.325 99.127C186.86 99.127 186.451 99.036 186.1 98.854C185.753 98.672 185.482 98.4287 185.288 98.124C185.097 97.8151 185.002 97.4702 185.002 97.0894C185.002 96.7212 185.074 96.3975 185.218 96.1182C185.362 95.8346 185.569 95.5998 185.84 95.4136C186.111 95.2231 186.437 95.0793 186.817 94.9819C187.198 94.8846 187.624 94.8359 188.093 94.8359H189.458ZM193.451 93.4521V101.641H192.27V92.1318H193.349L193.451 93.4521ZM198.078 95.5088V95.6421C198.078 96.1414 198.019 96.6048 197.9 97.0322C197.782 97.4554 197.608 97.8236 197.38 98.1367C197.156 98.4499 196.878 98.6932 196.548 98.8667C196.218 99.0402 195.84 99.127 195.412 99.127C194.976 99.127 194.591 99.055 194.257 98.9111C193.923 98.7673 193.639 98.5578 193.406 98.2827C193.174 98.0076 192.987 97.6776 192.848 97.2925C192.712 96.9074 192.619 96.4736 192.568 95.9912V95.2803C192.619 94.7725 192.714 94.3175 192.854 93.9155C192.994 93.5135 193.178 93.1707 193.406 92.8872C193.639 92.5994 193.92 92.3815 194.25 92.2334C194.581 92.0811 194.961 92.0049 195.393 92.0049C195.825 92.0049 196.208 92.0895 196.542 92.2588C196.876 92.4238 197.158 92.6608 197.386 92.9697C197.615 93.2786 197.786 93.6489 197.9 94.0806C198.019 94.508 198.078 94.984 198.078 95.5088ZM196.897 95.6421V95.5088C196.897 95.166 196.861 94.8444 196.79 94.5439C196.718 94.2393 196.605 93.9727 196.453 93.7441C196.305 93.5114 196.115 93.3294 195.882 93.1982C195.649 93.0628 195.372 92.9951 195.05 92.9951C194.754 92.9951 194.496 93.0459 194.276 93.1475C194.06 93.249 193.876 93.3866 193.724 93.5601C193.571 93.7293 193.446 93.924 193.349 94.144C193.256 94.3599 193.186 94.5841 193.14 94.8169V96.4609C193.224 96.7572 193.343 97.0365 193.495 97.2988C193.647 97.557 193.851 97.7664 194.104 97.9272C194.358 98.0838 194.678 98.1621 195.063 98.1621C195.38 98.1621 195.653 98.0965 195.882 97.9653C196.115 97.8299 196.305 97.6458 196.453 97.4131C196.605 97.1803 196.718 96.9137 196.79 96.6133C196.861 96.3086 196.897 95.9849 196.897 95.6421ZM200.852 92.1318V99H199.671V92.1318H200.852ZM199.583 90.3101C199.583 90.1196 199.64 89.9588 199.754 89.8276C199.872 89.6965 200.046 89.6309 200.274 89.6309C200.499 89.6309 200.67 89.6965 200.789 89.8276C200.911 89.9588 200.973 90.1196 200.973 90.3101C200.973 90.492 200.911 90.6486 200.789 90.7798C200.67 90.9067 200.499 90.9702 200.274 90.9702C200.046 90.9702 199.872 90.9067 199.754 90.7798C199.64 90.6486 199.583 90.492 199.583 90.3101Z" fill="white" fill-opacity="0.94"/>
</svg>
