<svg width="230" height="138" viewBox="0 0 230 138" fill="none" xmlns="http://www.w3.org/2000/svg">
<circle cx="114" cy="88" r="17.5" stroke="#9E7EFF" stroke-width="3"/>
<circle cx="114" cy="88" r="13" fill="#F9585C"/>
<circle cx="114" cy="88" r="11.5" stroke="white" stroke-opacity="0.01" stroke-width="3"/>
<path d="M113.592 92.3636H108.333V91.4667L110.938 88.6254C111.314 88.2064 111.581 87.8573 111.739 87.578C111.9 87.2951 111.98 87.0122 111.98 86.7294C111.98 86.357 111.875 86.0562 111.664 85.827C111.456 85.5979 111.175 85.4833 110.82 85.4833C110.398 85.4833 110.07 85.6122 109.837 85.87C109.605 86.1278 109.488 86.4805 109.488 86.9281H108.183C108.183 86.4519 108.291 86.024 108.505 85.6444C108.724 85.2613 109.034 84.9641 109.435 84.7528C109.839 84.5415 110.305 84.4359 110.831 84.4359C111.59 84.4359 112.188 84.6275 112.625 85.0106C113.065 85.3902 113.286 85.9165 113.286 86.5897C113.286 86.98 113.175 87.39 112.953 87.8197C112.734 88.2458 112.374 88.731 111.873 89.2753L109.961 91.3217H113.592V92.3636ZM118.12 92.3636H116.82V86.0848L114.902 86.7401V85.639L117.953 84.5165H118.12V92.3636Z" fill="#19212B"/>
</svg>
