<svg width="230" height="974" viewBox="0 0 230 974" fill="none" xmlns="http://www.w3.org/2000/svg">
<rect width="230" height="974" fill="#262939"/>
<path d="M23.6685 19.9868H22.1538V23H20.7949V15.1797H23.5449C24.4473 15.1797 25.1437 15.382 25.6343 15.7866C26.1248 16.1912 26.3701 16.7767 26.3701 17.543C26.3701 18.0658 26.243 18.5044 25.9888 18.8589C25.7381 19.2098 25.3872 19.4801 24.936 19.6699L26.6924 22.9302V23H25.2368L23.6685 19.9868ZM22.1538 18.8965H23.5503C24.0086 18.8965 24.3667 18.7819 24.6245 18.5527C24.8823 18.32 25.0112 18.0031 25.0112 17.6021C25.0112 17.1831 24.8913 16.859 24.6514 16.6299C24.415 16.4007 24.0605 16.2826 23.5879 16.2754H22.1538V18.8965ZM32.23 19.5088H29.0181V21.915H32.7725V23H27.6592V15.1797H32.7349V16.2754H29.0181V18.4346H32.23V19.5088ZM35.2378 21.915H38.7881V23H33.8789V15.1797H35.2378V21.915ZM44.3149 21.1792H41.2856L40.6519 23H39.2393L42.1934 15.1797H43.4126L46.3721 23H44.9541L44.3149 21.1792ZM41.667 20.0835H43.9336L42.8003 16.8394L41.667 20.0835ZM52.2695 16.2754H49.8311V23H48.4829V16.2754H46.0659V15.1797H52.2695V16.2754ZM54.7349 23H53.3813V15.1797H54.7349V23ZM62.6465 19.2939C62.6465 20.0602 62.514 20.7334 62.249 21.3135C61.984 21.89 61.6045 22.334 61.1104 22.6455C60.6198 22.9535 60.054 23.1074 59.4131 23.1074C58.7793 23.1074 58.2135 22.9535 57.7158 22.6455C57.2217 22.334 56.8385 21.8918 56.5664 21.3188C56.2979 20.7459 56.1618 20.0853 56.1582 19.3369V18.8965C56.1582 18.1338 56.2925 17.4606 56.561 16.877C56.8332 16.2933 57.2145 15.8475 57.7051 15.5396C58.1992 15.228 58.765 15.0723 59.4023 15.0723C60.0397 15.0723 60.6037 15.2262 61.0942 15.5342C61.5884 15.8385 61.9697 16.279 62.2383 16.8555C62.5068 17.4284 62.6429 18.0962 62.6465 18.8589V19.2939ZM61.2876 18.8857C61.2876 18.0192 61.1229 17.355 60.7935 16.8931C60.4676 16.4312 60.0039 16.2002 59.4023 16.2002C58.8151 16.2002 58.355 16.4312 58.022 16.8931C57.6925 17.3514 57.5243 18.0013 57.5171 18.8428V19.2939C57.5171 20.1533 57.6836 20.8175 58.0166 21.2866C58.3532 21.7557 58.8187 21.9902 59.4131 21.9902C60.0146 21.9902 60.4766 21.7611 60.7988 21.3027C61.1247 20.8444 61.2876 20.1748 61.2876 19.2939V18.8857ZM70.2036 23H68.8447L65.3589 17.4517V23H64V15.1797H65.3589L68.8555 20.7495V15.1797H70.2036V23ZM75.897 20.9858C75.897 20.6421 75.7752 20.3771 75.5317 20.1909C75.2918 20.0047 74.8568 19.8167 74.2266 19.627C73.5964 19.4372 73.0951 19.2259 72.7227 18.9932C72.0101 18.5456 71.6538 17.9619 71.6538 17.2422C71.6538 16.612 71.9098 16.0928 72.4219 15.6846C72.9375 15.2764 73.6053 15.0723 74.4253 15.0723C74.9696 15.0723 75.4548 15.1725 75.8809 15.373C76.307 15.5736 76.6418 15.86 76.8853 16.2324C77.1287 16.6012 77.2505 17.0112 77.2505 17.4624H75.897C75.897 17.0542 75.7681 16.7355 75.5103 16.5063C75.256 16.2736 74.8908 16.1572 74.4146 16.1572C73.9705 16.1572 73.625 16.2521 73.3779 16.4419C73.1344 16.6317 73.0127 16.8966 73.0127 17.2368C73.0127 17.5233 73.1452 17.7632 73.4102 17.9565C73.6751 18.1463 74.112 18.3325 74.7207 18.5151C75.3294 18.6942 75.8182 18.9001 76.187 19.1328C76.5558 19.362 76.8262 19.627 76.998 19.9277C77.1699 20.2249 77.2559 20.5741 77.2559 20.9751C77.2559 21.6268 77.0052 22.146 76.5039 22.5327C76.0062 22.9159 75.3294 23.1074 74.4736 23.1074C73.9079 23.1074 73.3869 23.0036 72.9106 22.7959C72.438 22.5846 72.0692 22.2946 71.8042 21.9258C71.5428 21.557 71.4121 21.1273 71.4121 20.6367H72.771C72.771 21.0807 72.9178 21.4245 73.2114 21.668C73.505 21.9115 73.9258 22.0332 74.4736 22.0332C74.9463 22.0332 75.3008 21.9383 75.5371 21.7485C75.777 21.5552 75.897 21.3009 75.897 20.9858ZM84.6572 23H83.3037V19.5249H79.8071V23H78.4482V15.1797H79.8071V18.4346H83.3037V15.1797H84.6572V23ZM87.7026 23H86.3491V15.1797H87.7026V23ZM90.7319 20.0942V23H89.373V15.1797H92.3647C93.2384 15.1797 93.9313 15.4071 94.4434 15.8618C94.959 16.3166 95.2168 16.9181 95.2168 17.6665C95.2168 18.4328 94.9644 19.029 94.4595 19.4551C93.9582 19.8812 93.2546 20.0942 92.3486 20.0942H90.7319ZM90.7319 19.0039H92.3647C92.8481 19.0039 93.217 18.8911 93.4712 18.6655C93.7254 18.4364 93.8525 18.1069 93.8525 17.6772C93.8525 17.2547 93.7236 16.9181 93.4658 16.6675C93.208 16.4132 92.8535 16.2826 92.4023 16.2754H90.7319V19.0039ZM100.497 20.9858C100.497 20.6421 100.375 20.3771 100.131 20.1909C99.8914 20.0047 99.4564 19.8167 98.8262 19.627C98.196 19.4372 97.6947 19.2259 97.3223 18.9932C96.6097 18.5456 96.2534 17.9619 96.2534 17.2422C96.2534 16.612 96.5094 16.0928 97.0215 15.6846C97.5371 15.2764 98.2049 15.0723 99.0249 15.0723C99.5692 15.0723 100.054 15.1725 100.48 15.373C100.907 15.5736 101.241 15.86 101.485 16.2324C101.728 16.6012 101.85 17.0112 101.85 17.4624H100.497C100.497 17.0542 100.368 16.7355 100.11 16.5063C99.8556 16.2736 99.4904 16.1572 99.0142 16.1572C98.5701 16.1572 98.2246 16.2521 97.9775 16.4419C97.734 16.6317 97.6123 16.8966 97.6123 17.2368C97.6123 17.5233 97.7448 17.7632 98.0098 17.9565C98.2747 18.1463 98.7116 18.3325 99.3203 18.5151C99.929 18.6942 100.418 18.9001 100.787 19.1328C101.155 19.362 101.426 19.627 101.598 19.9277C101.77 20.2249 101.855 20.5741 101.855 20.9751C101.855 21.6268 101.605 22.146 101.104 22.5327C100.606 22.9159 99.929 23.1074 99.0732 23.1074C98.5075 23.1074 97.9865 23.0036 97.5103 22.7959C97.0376 22.5846 96.6688 22.2946 96.4038 21.9258C96.1424 21.557 96.0117 21.1273 96.0117 20.6367H97.3706C97.3706 21.0807 97.5174 21.4245 97.811 21.668C98.1047 21.9115 98.5254 22.0332 99.0732 22.0332C99.5459 22.0332 99.9004 21.9383 100.137 21.7485C100.377 21.5552 100.497 21.3009 100.497 20.9858Z" fill="white" fill-opacity="0.64"/>
<path d="M209.081 17.3713C208.801 17.6409 208.801 18.0779 209.081 18.3475L212.385 21.5237C212.666 21.7941 213.122 21.7941 213.403 21.5237L216.706 18.3475C216.987 18.0779 216.987 17.6409 216.706 17.3713C216.426 17.1017 215.971 17.1015 215.69 17.3708L212.894 20.054L210.097 17.3708C209.816 17.1015 209.362 17.1017 209.081 17.3713Z" fill="white" fill-opacity="0.64"/>
<path d="M26.2969 57.228H22.2915V60.5034H26.9443V61.5H21.0728V52.2578H26.8809V53.2607H22.2915V56.2314H26.2969V57.228ZM29.3882 54.6318L29.4263 55.4951C29.951 54.835 30.6366 54.5049 31.4829 54.5049C32.9344 54.5049 33.6665 55.3237 33.6792 56.9614V61.5H32.5049V56.9551C32.5007 56.46 32.3864 56.0939 32.1621 55.8569C31.9421 55.62 31.5972 55.5015 31.1274 55.5015C30.7466 55.5015 30.4123 55.603 30.1245 55.8062C29.8368 56.0093 29.6125 56.2759 29.4517 56.606V61.5H28.2773V54.6318H29.3882ZM37.0435 52.9688V54.6318H38.3257V55.5396H37.0435V59.7988C37.0435 60.0739 37.1006 60.2812 37.2148 60.4209C37.3291 60.5563 37.5238 60.624 37.7988 60.624C37.9342 60.624 38.1204 60.5986 38.3574 60.5479V61.5C38.0485 61.5846 37.748 61.627 37.4561 61.627C36.9313 61.627 36.5356 61.4683 36.269 61.1509C36.0024 60.8335 35.8691 60.3828 35.8691 59.7988V55.5396H34.6187V54.6318H35.8691V52.9688H37.0435ZM40.979 61.5H39.8047V54.6318H40.979V61.5ZM39.7095 52.8101C39.7095 52.6196 39.7666 52.4588 39.8809 52.3276C39.9993 52.1965 40.1729 52.1309 40.4014 52.1309C40.6299 52.1309 40.8034 52.1965 40.9219 52.3276C41.0404 52.4588 41.0996 52.6196 41.0996 52.8101C41.0996 53.0005 41.0404 53.1592 40.9219 53.2861C40.8034 53.4131 40.6299 53.4766 40.4014 53.4766C40.1729 53.4766 39.9993 53.4131 39.8809 53.2861C39.7666 53.1592 39.7095 53.0005 39.7095 52.8101ZM44.4575 52.9688V54.6318H45.7397V55.5396H44.4575V59.7988C44.4575 60.0739 44.5146 60.2812 44.6289 60.4209C44.7432 60.5563 44.9378 60.624 45.2129 60.624C45.3483 60.624 45.5345 60.5986 45.7715 60.5479V61.5C45.4626 61.5846 45.1621 61.627 44.8701 61.627C44.3454 61.627 43.9497 61.4683 43.6831 61.1509C43.4165 60.8335 43.2832 60.3828 43.2832 59.7988V55.5396H42.0327V54.6318H43.2832V52.9688H44.4575ZM49.3643 59.7798L50.9639 54.6318H52.2207L49.4595 62.5601C49.0321 63.7026 48.3529 64.2739 47.4219 64.2739L47.1997 64.2549L46.7617 64.1724V63.2202L47.0791 63.2456C47.4769 63.2456 47.7858 63.1652 48.0059 63.0044C48.2301 62.8436 48.4142 62.5495 48.5581 62.1221L48.8184 61.4238L46.3682 54.6318H47.6504L49.3643 59.7798Z" fill="white" fill-opacity="0.94"/>
<path d="M59.9876 60.9712C59.7072 60.6791 59.7069 60.2056 59.9871 59.9131L62.7776 57L59.9871 54.0868C59.7069 53.7944 59.7072 53.3208 59.9876 53.0287C60.268 52.7367 60.7225 52.7367 61.0028 53.0287L64.3061 56.4696C64.5873 56.7625 64.5873 57.2374 64.3061 57.5303L61.0028 60.9712C60.7225 61.2632 60.268 61.2632 59.9876 60.9712Z" fill="white" fill-opacity="0.94"/>
<path d="M204.028 62H202.847V54.1733L200.479 55.043V53.9766L203.844 52.7134H204.028V62ZM213.264 58.0581C213.264 59.4334 213.029 60.4554 212.559 61.124C212.089 61.7926 211.355 62.127 210.356 62.127C209.37 62.127 208.64 61.8011 208.167 61.1494C207.693 60.4935 207.447 59.516 207.43 58.2168V56.6489C207.43 55.2905 207.665 54.2812 208.135 53.6211C208.604 52.9609 209.341 52.6309 210.344 52.6309C211.338 52.6309 212.07 52.9504 212.54 53.5894C213.01 54.2241 213.251 55.2059 213.264 56.5347V58.0581ZM212.089 56.4521C212.089 55.4577 211.95 54.734 211.67 54.2812C211.391 53.8242 210.949 53.5957 210.344 53.5957C209.743 53.5957 209.305 53.8221 209.03 54.2749C208.755 54.7277 208.613 55.4238 208.604 56.3633V58.2422C208.604 59.2409 208.748 59.9793 209.036 60.4575C209.328 60.9315 209.768 61.1685 210.356 61.1685C210.936 61.1685 211.366 60.9442 211.645 60.4956C211.929 60.047 212.077 59.3403 212.089 58.3755V56.4521Z" fill="white" fill-opacity="0.64"/>
<rect x="20" y="216" width="210" height="1" fill="white" fill-opacity="0.15"/>
<circle r="16" transform="matrix(-1 0 0 1 81.1875 147)" fill="#ED5A5F"/>
<path d="M79.7812 147.494H80.5762C80.9772 147.49 81.2941 147.386 81.5269 147.182C81.7632 146.978 81.8813 146.683 81.8813 146.296C81.8813 145.924 81.7829 145.635 81.5859 145.431C81.3926 145.223 81.0954 145.12 80.6943 145.12C80.3434 145.12 80.0552 145.222 79.8296 145.426C79.604 145.626 79.4912 145.889 79.4912 146.215H78.186C78.186 145.814 78.2917 145.449 78.5029 145.12C78.7178 144.79 79.015 144.534 79.3945 144.352C79.7777 144.165 80.2056 144.072 80.6782 144.072C81.4588 144.072 82.0711 144.269 82.5151 144.663C82.9627 145.053 83.1865 145.598 83.1865 146.296C83.1865 146.647 83.0737 146.978 82.8481 147.29C82.6261 147.597 82.3379 147.83 81.9834 147.988C82.4131 148.135 82.7389 148.366 82.9609 148.681C83.1865 148.996 83.2993 149.372 83.2993 149.809C83.2993 150.51 83.0576 151.069 82.5742 151.484C82.0944 151.9 81.4624 152.107 80.6782 152.107C79.9263 152.107 79.3104 151.907 78.8306 151.506C78.3507 151.105 78.1108 150.571 78.1108 149.905H79.416C79.416 150.249 79.5306 150.528 79.7598 150.743C79.9925 150.958 80.304 151.065 80.6943 151.065C81.099 151.065 81.4176 150.958 81.6504 150.743C81.8831 150.528 81.9995 150.217 81.9995 149.809C81.9995 149.397 81.8778 149.08 81.6343 148.858C81.3908 148.636 81.0291 148.525 80.5493 148.525H79.7812V147.494Z" fill="black"/>
<ellipse rx="29.8252" ry="30" transform="matrix(-1 0 0 1 135.362 147)" fill="#40BF73"/>
<path d="M132.88 153.625H131.581V147.346L129.663 148.001V146.9L132.714 145.778H132.88V153.625ZM140.695 150.333C140.695 151.457 140.484 152.306 140.062 152.878C139.643 153.448 139.003 153.732 138.144 153.732C137.299 153.732 136.662 153.455 136.232 152.9C135.806 152.341 135.587 151.516 135.577 150.424V149.07C135.577 147.946 135.786 147.103 136.205 146.541C136.628 145.978 137.27 145.697 138.133 145.697C138.989 145.697 139.627 145.971 140.045 146.519C140.468 147.067 140.685 147.887 140.695 148.979V150.333ZM139.39 148.872C139.39 148.138 139.29 147.6 139.089 147.26C138.889 146.917 138.57 146.745 138.133 146.745C137.707 146.745 137.394 146.908 137.193 147.233C136.993 147.556 136.887 148.061 136.877 148.748V150.521C136.877 151.251 136.979 151.795 137.183 152.153C137.387 152.511 137.707 152.69 138.144 152.69C138.563 152.69 138.873 152.526 139.073 152.196C139.274 151.863 139.379 151.344 139.39 150.639V148.872Z" fill="black"/>
<path d="M26.2969 236.228H22.2915V239.503H26.9443V240.5H21.0728V231.258H26.8809V232.261H22.2915V235.231H26.2969V236.228ZM29.3882 233.632L29.4263 234.495C29.951 233.835 30.6366 233.505 31.4829 233.505C32.9344 233.505 33.6665 234.324 33.6792 235.961V240.5H32.5049V235.955C32.5007 235.46 32.3864 235.094 32.1621 234.857C31.9421 234.62 31.5972 234.501 31.1274 234.501C30.7466 234.501 30.4123 234.603 30.1245 234.806C29.8368 235.009 29.6125 235.276 29.4517 235.606V240.5H28.2773V233.632H29.3882ZM37.0435 231.969V233.632H38.3257V234.54H37.0435V238.799C37.0435 239.074 37.1006 239.281 37.2148 239.421C37.3291 239.556 37.5238 239.624 37.7988 239.624C37.9342 239.624 38.1204 239.599 38.3574 239.548V240.5C38.0485 240.585 37.748 240.627 37.4561 240.627C36.9313 240.627 36.5356 240.468 36.269 240.151C36.0024 239.833 35.8691 239.383 35.8691 238.799V234.54H34.6187V233.632H35.8691V231.969H37.0435ZM40.979 240.5H39.8047V233.632H40.979V240.5ZM39.7095 231.81C39.7095 231.62 39.7666 231.459 39.8809 231.328C39.9993 231.196 40.1729 231.131 40.4014 231.131C40.6299 231.131 40.8034 231.196 40.9219 231.328C41.0404 231.459 41.0996 231.62 41.0996 231.81C41.0996 232 41.0404 232.159 40.9219 232.286C40.8034 232.413 40.6299 232.477 40.4014 232.477C40.1729 232.477 39.9993 232.413 39.8809 232.286C39.7666 232.159 39.7095 232 39.7095 231.81ZM44.4575 231.969V233.632H45.7397V234.54H44.4575V238.799C44.4575 239.074 44.5146 239.281 44.6289 239.421C44.7432 239.556 44.9378 239.624 45.2129 239.624C45.3483 239.624 45.5345 239.599 45.7715 239.548V240.5C45.4626 240.585 45.1621 240.627 44.8701 240.627C44.3454 240.627 43.9497 240.468 43.6831 240.151C43.4165 239.833 43.2832 239.383 43.2832 238.799V234.54H42.0327V233.632H43.2832V231.969H44.4575ZM49.3643 238.78L50.9639 233.632H52.2207L49.4595 241.56C49.0321 242.703 48.3529 243.274 47.4219 243.274L47.1997 243.255L46.7617 243.172V242.22L47.0791 242.246C47.4769 242.246 47.7858 242.165 48.0059 242.004C48.2301 241.844 48.4142 241.549 48.5581 241.122L48.8184 240.424L46.3682 233.632H47.6504L49.3643 238.78Z" fill="white" fill-opacity="0.94"/>
<path d="M59.9876 239.971C59.7072 239.679 59.7069 239.206 59.9871 238.913L62.7776 236L59.9871 233.087C59.7069 232.794 59.7072 232.321 59.9876 232.029C60.268 231.737 60.7225 231.737 61.0028 232.029L64.3061 235.47C64.5873 235.763 64.5873 236.237 64.3061 236.53L61.0028 239.971C60.7225 240.263 60.268 240.263 59.9876 239.971Z" fill="white" fill-opacity="0.94"/>
<path d="M204.028 241H202.847V233.173L200.479 234.043V232.977L203.844 231.713H204.028V241ZM213.264 237.058C213.264 238.433 213.029 239.455 212.559 240.124C212.089 240.793 211.355 241.127 210.356 241.127C209.37 241.127 208.64 240.801 208.167 240.149C207.693 239.493 207.447 238.516 207.43 237.217V235.649C207.43 234.291 207.665 233.281 208.135 232.621C208.604 231.961 209.341 231.631 210.344 231.631C211.338 231.631 212.07 231.95 212.54 232.589C213.01 233.224 213.251 234.206 213.264 235.535V237.058ZM212.089 235.452C212.089 234.458 211.95 233.734 211.67 233.281C211.391 232.824 210.949 232.596 210.344 232.596C209.743 232.596 209.305 232.822 209.03 233.275C208.755 233.728 208.613 234.424 208.604 235.363V237.242C208.604 238.241 208.748 238.979 209.036 239.458C209.328 239.931 209.768 240.168 210.356 240.168C210.936 240.168 211.366 239.944 211.645 239.496C211.929 239.047 212.077 238.34 212.089 237.375V235.452Z" fill="white" fill-opacity="0.64"/>
<rect x="20" y="395" width="210" height="1" fill="white" fill-opacity="0.15"/>
<circle r="16" transform="matrix(-1 0 0 1 81.1875 326)" fill="#ED5A5F"/>
<path d="M79.7812 326.494H80.5762C80.9772 326.49 81.2941 326.386 81.5269 326.182C81.7632 325.978 81.8813 325.683 81.8813 325.296C81.8813 324.924 81.7829 324.635 81.5859 324.431C81.3926 324.223 81.0954 324.12 80.6943 324.12C80.3434 324.12 80.0552 324.222 79.8296 324.426C79.604 324.626 79.4912 324.889 79.4912 325.215H78.186C78.186 324.814 78.2917 324.449 78.5029 324.12C78.7178 323.79 79.015 323.534 79.3945 323.352C79.7777 323.165 80.2056 323.072 80.6782 323.072C81.4588 323.072 82.0711 323.269 82.5151 323.663C82.9627 324.053 83.1865 324.598 83.1865 325.296C83.1865 325.647 83.0737 325.978 82.8481 326.29C82.6261 326.597 82.3379 326.83 81.9834 326.988C82.4131 327.135 82.7389 327.366 82.9609 327.681C83.1865 327.996 83.2993 328.372 83.2993 328.809C83.2993 329.51 83.0576 330.069 82.5742 330.484C82.0944 330.9 81.4624 331.107 80.6782 331.107C79.9263 331.107 79.3104 330.907 78.8306 330.506C78.3507 330.105 78.1108 329.571 78.1108 328.905H79.416C79.416 329.249 79.5306 329.528 79.7598 329.743C79.9925 329.958 80.304 330.065 80.6943 330.065C81.099 330.065 81.4176 329.958 81.6504 329.743C81.8831 329.528 81.9995 329.217 81.9995 328.809C81.9995 328.397 81.8778 328.08 81.6343 327.858C81.3908 327.636 81.0291 327.525 80.5493 327.525H79.7812V326.494Z" fill="black"/>
<ellipse rx="29.8252" ry="30" transform="matrix(-1 0 0 1 135.362 326)" fill="#40BF73"/>
<path d="M132.88 332.625H131.581V326.346L129.663 327.001V325.9L132.714 324.778H132.88V332.625ZM140.695 329.333C140.695 330.457 140.484 331.306 140.062 331.878C139.643 332.448 139.003 332.732 138.144 332.732C137.299 332.732 136.662 332.455 136.232 331.9C135.806 331.341 135.587 330.516 135.577 329.424V328.07C135.577 326.946 135.786 326.103 136.205 325.541C136.628 324.978 137.27 324.697 138.133 324.697C138.989 324.697 139.627 324.971 140.045 325.519C140.468 326.067 140.685 326.887 140.695 327.979V329.333ZM139.39 327.872C139.39 327.138 139.29 326.6 139.089 326.26C138.889 325.917 138.57 325.745 138.133 325.745C137.707 325.745 137.394 325.908 137.193 326.233C136.993 326.556 136.887 327.061 136.877 327.748V329.521C136.877 330.251 136.979 330.795 137.183 331.153C137.387 331.511 137.707 331.69 138.144 331.69C138.563 331.69 138.873 331.526 139.073 331.196C139.274 330.863 139.379 330.344 139.39 329.639V327.872Z" fill="black"/>
<path d="M26.2969 415.228H22.2915V418.503H26.9443V419.5H21.0728V410.258H26.8809V411.261H22.2915V414.231H26.2969V415.228ZM29.3882 412.632L29.4263 413.495C29.951 412.835 30.6366 412.505 31.4829 412.505C32.9344 412.505 33.6665 413.324 33.6792 414.961V419.5H32.5049V414.955C32.5007 414.46 32.3864 414.094 32.1621 413.857C31.9421 413.62 31.5972 413.501 31.1274 413.501C30.7466 413.501 30.4123 413.603 30.1245 413.806C29.8368 414.009 29.6125 414.276 29.4517 414.606V419.5H28.2773V412.632H29.3882ZM37.0435 410.969V412.632H38.3257V413.54H37.0435V417.799C37.0435 418.074 37.1006 418.281 37.2148 418.421C37.3291 418.556 37.5238 418.624 37.7988 418.624C37.9342 418.624 38.1204 418.599 38.3574 418.548V419.5C38.0485 419.585 37.748 419.627 37.4561 419.627C36.9313 419.627 36.5356 419.468 36.269 419.151C36.0024 418.833 35.8691 418.383 35.8691 417.799V413.54H34.6187V412.632H35.8691V410.969H37.0435ZM40.979 419.5H39.8047V412.632H40.979V419.5ZM39.7095 410.81C39.7095 410.62 39.7666 410.459 39.8809 410.328C39.9993 410.196 40.1729 410.131 40.4014 410.131C40.6299 410.131 40.8034 410.196 40.9219 410.328C41.0404 410.459 41.0996 410.62 41.0996 410.81C41.0996 411 41.0404 411.159 40.9219 411.286C40.8034 411.413 40.6299 411.477 40.4014 411.477C40.1729 411.477 39.9993 411.413 39.8809 411.286C39.7666 411.159 39.7095 411 39.7095 410.81ZM44.4575 410.969V412.632H45.7397V413.54H44.4575V417.799C44.4575 418.074 44.5146 418.281 44.6289 418.421C44.7432 418.556 44.9378 418.624 45.2129 418.624C45.3483 418.624 45.5345 418.599 45.7715 418.548V419.5C45.4626 419.585 45.1621 419.627 44.8701 419.627C44.3454 419.627 43.9497 419.468 43.6831 419.151C43.4165 418.833 43.2832 418.383 43.2832 417.799V413.54H42.0327V412.632H43.2832V410.969H44.4575ZM49.3643 417.78L50.9639 412.632H52.2207L49.4595 420.56C49.0321 421.703 48.3529 422.274 47.4219 422.274L47.1997 422.255L46.7617 422.172V421.22L47.0791 421.246C47.4769 421.246 47.7858 421.165 48.0059 421.004C48.2301 420.844 48.4142 420.549 48.5581 420.122L48.8184 419.424L46.3682 412.632H47.6504L49.3643 417.78Z" fill="white" fill-opacity="0.94"/>
<path d="M59.9876 418.971C59.7072 418.679 59.7069 418.206 59.9871 417.913L62.7776 415L59.9871 412.087C59.7069 411.794 59.7072 411.321 59.9876 411.029C60.268 410.737 60.7225 410.737 61.0028 411.029L64.3061 414.47C64.5873 414.763 64.5873 415.238 64.3061 415.53L61.0028 418.971C60.7225 419.263 60.268 419.263 59.9876 418.971Z" fill="white" fill-opacity="0.94"/>
<path d="M204.028 420H202.847V412.173L200.479 413.043V411.977L203.844 410.713H204.028V420ZM213.264 416.058C213.264 417.433 213.029 418.455 212.559 419.124C212.089 419.793 211.355 420.127 210.356 420.127C209.37 420.127 208.64 419.801 208.167 419.149C207.693 418.493 207.447 417.516 207.43 416.217V414.649C207.43 413.291 207.665 412.281 208.135 411.621C208.604 410.961 209.341 410.631 210.344 410.631C211.338 410.631 212.07 410.95 212.54 411.589C213.01 412.224 213.251 413.206 213.264 414.535V416.058ZM212.089 414.452C212.089 413.458 211.95 412.734 211.67 412.281C211.391 411.824 210.949 411.596 210.344 411.596C209.743 411.596 209.305 411.822 209.03 412.275C208.755 412.728 208.613 413.424 208.604 414.363V416.242C208.604 417.241 208.748 417.979 209.036 418.458C209.328 418.931 209.768 419.168 210.356 419.168C210.936 419.168 211.366 418.944 211.645 418.496C211.929 418.047 212.077 417.34 212.089 416.375V414.452Z" fill="white" fill-opacity="0.64"/>
<rect x="20" y="574" width="210" height="1" fill="white" fill-opacity="0.15"/>
<circle r="16" transform="matrix(-1 0 0 1 81.1875 505)" fill="#ED5A5F"/>
<path d="M79.7812 505.494H80.5762C80.9772 505.49 81.2941 505.386 81.5269 505.182C81.7632 504.978 81.8813 504.683 81.8813 504.296C81.8813 503.924 81.7829 503.635 81.5859 503.431C81.3926 503.223 81.0954 503.12 80.6943 503.12C80.3434 503.12 80.0552 503.222 79.8296 503.426C79.604 503.626 79.4912 503.889 79.4912 504.215H78.186C78.186 503.814 78.2917 503.449 78.5029 503.12C78.7178 502.79 79.015 502.534 79.3945 502.352C79.7777 502.165 80.2056 502.072 80.6782 502.072C81.4588 502.072 82.0711 502.269 82.5151 502.663C82.9627 503.053 83.1865 503.598 83.1865 504.296C83.1865 504.647 83.0737 504.978 82.8481 505.29C82.6261 505.597 82.3379 505.83 81.9834 505.988C82.4131 506.135 82.7389 506.366 82.9609 506.681C83.1865 506.996 83.2993 507.372 83.2993 507.809C83.2993 508.51 83.0576 509.069 82.5742 509.484C82.0944 509.9 81.4624 510.107 80.6782 510.107C79.9263 510.107 79.3104 509.907 78.8306 509.506C78.3507 509.105 78.1108 508.571 78.1108 507.905H79.416C79.416 508.249 79.5306 508.528 79.7598 508.743C79.9925 508.958 80.304 509.065 80.6943 509.065C81.099 509.065 81.4176 508.958 81.6504 508.743C81.8831 508.528 81.9995 508.217 81.9995 507.809C81.9995 507.397 81.8778 507.08 81.6343 506.858C81.3908 506.636 81.0291 506.525 80.5493 506.525H79.7812V505.494Z" fill="black"/>
<ellipse rx="29.8252" ry="30" transform="matrix(-1 0 0 1 135.362 505)" fill="#40BF73"/>
<path d="M132.88 511.625H131.581V505.346L129.663 506.001V504.9L132.714 503.778H132.88V511.625ZM140.695 508.333C140.695 509.457 140.484 510.306 140.062 510.878C139.643 511.448 139.003 511.732 138.144 511.732C137.299 511.732 136.662 511.455 136.232 510.9C135.806 510.341 135.587 509.516 135.577 508.424V507.07C135.577 505.946 135.786 505.103 136.205 504.541C136.628 503.978 137.27 503.697 138.133 503.697C138.989 503.697 139.627 503.971 140.045 504.519C140.468 505.067 140.685 505.887 140.695 506.979V508.333ZM139.39 506.872C139.39 506.138 139.29 505.6 139.089 505.26C138.889 504.917 138.57 504.745 138.133 504.745C137.707 504.745 137.394 504.908 137.193 505.233C136.993 505.556 136.887 506.061 136.877 506.748V508.521C136.877 509.251 136.979 509.795 137.183 510.153C137.387 510.511 137.707 510.69 138.144 510.69C138.563 510.69 138.873 510.526 139.073 510.196C139.274 509.863 139.379 509.344 139.39 508.639V506.872Z" fill="black"/>
<path d="M26.2969 594.228H22.2915V597.503H26.9443V598.5H21.0728V589.258H26.8809V590.261H22.2915V593.231H26.2969V594.228ZM29.3882 591.632L29.4263 592.495C29.951 591.835 30.6366 591.505 31.4829 591.505C32.9344 591.505 33.6665 592.324 33.6792 593.961V598.5H32.5049V593.955C32.5007 593.46 32.3864 593.094 32.1621 592.857C31.9421 592.62 31.5972 592.501 31.1274 592.501C30.7466 592.501 30.4123 592.603 30.1245 592.806C29.8368 593.009 29.6125 593.276 29.4517 593.606V598.5H28.2773V591.632H29.3882ZM37.0435 589.969V591.632H38.3257V592.54H37.0435V596.799C37.0435 597.074 37.1006 597.281 37.2148 597.421C37.3291 597.556 37.5238 597.624 37.7988 597.624C37.9342 597.624 38.1204 597.599 38.3574 597.548V598.5C38.0485 598.585 37.748 598.627 37.4561 598.627C36.9313 598.627 36.5356 598.468 36.269 598.151C36.0024 597.833 35.8691 597.383 35.8691 596.799V592.54H34.6187V591.632H35.8691V589.969H37.0435ZM40.979 598.5H39.8047V591.632H40.979V598.5ZM39.7095 589.81C39.7095 589.62 39.7666 589.459 39.8809 589.328C39.9993 589.196 40.1729 589.131 40.4014 589.131C40.6299 589.131 40.8034 589.196 40.9219 589.328C41.0404 589.459 41.0996 589.62 41.0996 589.81C41.0996 590 41.0404 590.159 40.9219 590.286C40.8034 590.413 40.6299 590.477 40.4014 590.477C40.1729 590.477 39.9993 590.413 39.8809 590.286C39.7666 590.159 39.7095 590 39.7095 589.81ZM44.4575 589.969V591.632H45.7397V592.54H44.4575V596.799C44.4575 597.074 44.5146 597.281 44.6289 597.421C44.7432 597.556 44.9378 597.624 45.2129 597.624C45.3483 597.624 45.5345 597.599 45.7715 597.548V598.5C45.4626 598.585 45.1621 598.627 44.8701 598.627C44.3454 598.627 43.9497 598.468 43.6831 598.151C43.4165 597.833 43.2832 597.383 43.2832 596.799V592.54H42.0327V591.632H43.2832V589.969H44.4575ZM49.3643 596.78L50.9639 591.632H52.2207L49.4595 599.56C49.0321 600.703 48.3529 601.274 47.4219 601.274L47.1997 601.255L46.7617 601.172V600.22L47.0791 600.246C47.4769 600.246 47.7858 600.165 48.0059 600.004C48.2301 599.844 48.4142 599.549 48.5581 599.122L48.8184 598.424L46.3682 591.632H47.6504L49.3643 596.78Z" fill="white" fill-opacity="0.94"/>
<path d="M59.9876 597.971C59.7072 597.679 59.7069 597.206 59.9871 596.913L62.7776 594L59.9871 591.087C59.7069 590.794 59.7072 590.321 59.9876 590.029C60.268 589.737 60.7225 589.737 61.0028 590.029L64.3061 593.47C64.5873 593.763 64.5873 594.238 64.3061 594.53L61.0028 597.971C60.7225 598.263 60.268 598.263 59.9876 597.971Z" fill="white" fill-opacity="0.94"/>
<path d="M204.028 599H202.847V591.173L200.479 592.043V590.977L203.844 589.713H204.028V599ZM213.264 595.058C213.264 596.433 213.029 597.455 212.559 598.124C212.089 598.793 211.355 599.127 210.356 599.127C209.37 599.127 208.64 598.801 208.167 598.149C207.693 597.493 207.447 596.516 207.43 595.217V593.649C207.43 592.291 207.665 591.281 208.135 590.621C208.604 589.961 209.341 589.631 210.344 589.631C211.338 589.631 212.07 589.95 212.54 590.589C213.01 591.224 213.251 592.206 213.264 593.535V595.058ZM212.089 593.452C212.089 592.458 211.95 591.734 211.67 591.281C211.391 590.824 210.949 590.596 210.344 590.596C209.743 590.596 209.305 590.822 209.03 591.275C208.755 591.728 208.613 592.424 208.604 593.363V595.242C208.604 596.241 208.748 596.979 209.036 597.458C209.328 597.931 209.768 598.168 210.356 598.168C210.936 598.168 211.366 597.944 211.645 597.496C211.929 597.047 212.077 596.34 212.089 595.375V593.452Z" fill="white" fill-opacity="0.64"/>
<rect x="20" y="753" width="210" height="1" fill="white" fill-opacity="0.15"/>
<circle r="16" transform="matrix(-1 0 0 1 81.1875 684)" fill="#ED5A5F"/>
<path d="M79.7812 684.494H80.5762C80.9772 684.49 81.2941 684.386 81.5269 684.182C81.7632 683.978 81.8813 683.683 81.8813 683.296C81.8813 682.924 81.7829 682.635 81.5859 682.431C81.3926 682.223 81.0954 682.12 80.6943 682.12C80.3434 682.12 80.0552 682.222 79.8296 682.426C79.604 682.626 79.4912 682.889 79.4912 683.215H78.186C78.186 682.814 78.2917 682.449 78.5029 682.12C78.7178 681.79 79.015 681.534 79.3945 681.352C79.7777 681.165 80.2056 681.072 80.6782 681.072C81.4588 681.072 82.0711 681.269 82.5151 681.663C82.9627 682.053 83.1865 682.598 83.1865 683.296C83.1865 683.647 83.0737 683.978 82.8481 684.29C82.6261 684.597 82.3379 684.83 81.9834 684.988C82.4131 685.135 82.7389 685.366 82.9609 685.681C83.1865 685.996 83.2993 686.372 83.2993 686.809C83.2993 687.51 83.0576 688.069 82.5742 688.484C82.0944 688.9 81.4624 689.107 80.6782 689.107C79.9263 689.107 79.3104 688.907 78.8306 688.506C78.3507 688.105 78.1108 687.571 78.1108 686.905H79.416C79.416 687.249 79.5306 687.528 79.7598 687.743C79.9925 687.958 80.304 688.065 80.6943 688.065C81.099 688.065 81.4176 687.958 81.6504 687.743C81.8831 687.528 81.9995 687.217 81.9995 686.809C81.9995 686.397 81.8778 686.08 81.6343 685.858C81.3908 685.636 81.0291 685.525 80.5493 685.525H79.7812V684.494Z" fill="black"/>
<ellipse rx="29.8252" ry="30" transform="matrix(-1 0 0 1 135.362 684)" fill="#40BF73"/>
<path d="M132.88 690.625H131.581V684.346L129.663 685.001V683.9L132.714 682.778H132.88V690.625ZM140.695 687.333C140.695 688.457 140.484 689.306 140.062 689.878C139.643 690.448 139.003 690.732 138.144 690.732C137.299 690.732 136.662 690.455 136.232 689.9C135.806 689.341 135.587 688.516 135.577 687.424V686.07C135.577 684.946 135.786 684.103 136.205 683.541C136.628 682.978 137.27 682.697 138.133 682.697C138.989 682.697 139.627 682.971 140.045 683.519C140.468 684.067 140.685 684.887 140.695 685.979V687.333ZM139.39 685.872C139.39 685.138 139.29 684.6 139.089 684.26C138.889 683.917 138.57 683.745 138.133 683.745C137.707 683.745 137.394 683.908 137.193 684.233C136.993 684.556 136.887 685.061 136.877 685.748V687.521C136.877 688.251 136.979 688.795 137.183 689.153C137.387 689.511 137.707 689.69 138.144 689.69C138.563 689.69 138.873 689.526 139.073 689.196C139.274 688.863 139.379 688.344 139.39 687.639V685.872Z" fill="black"/>
<path d="M26.2969 773.228H22.2915V776.503H26.9443V777.5H21.0728V768.258H26.8809V769.261H22.2915V772.231H26.2969V773.228ZM29.3882 770.632L29.4263 771.495C29.951 770.835 30.6366 770.505 31.4829 770.505C32.9344 770.505 33.6665 771.324 33.6792 772.961V777.5H32.5049V772.955C32.5007 772.46 32.3864 772.094 32.1621 771.857C31.9421 771.62 31.5972 771.501 31.1274 771.501C30.7466 771.501 30.4123 771.603 30.1245 771.806C29.8368 772.009 29.6125 772.276 29.4517 772.606V777.5H28.2773V770.632H29.3882ZM37.0435 768.969V770.632H38.3257V771.54H37.0435V775.799C37.0435 776.074 37.1006 776.281 37.2148 776.421C37.3291 776.556 37.5238 776.624 37.7988 776.624C37.9342 776.624 38.1204 776.599 38.3574 776.548V777.5C38.0485 777.585 37.748 777.627 37.4561 777.627C36.9313 777.627 36.5356 777.468 36.269 777.151C36.0024 776.833 35.8691 776.383 35.8691 775.799V771.54H34.6187V770.632H35.8691V768.969H37.0435ZM40.979 777.5H39.8047V770.632H40.979V777.5ZM39.7095 768.81C39.7095 768.62 39.7666 768.459 39.8809 768.328C39.9993 768.196 40.1729 768.131 40.4014 768.131C40.6299 768.131 40.8034 768.196 40.9219 768.328C41.0404 768.459 41.0996 768.62 41.0996 768.81C41.0996 769 41.0404 769.159 40.9219 769.286C40.8034 769.413 40.6299 769.477 40.4014 769.477C40.1729 769.477 39.9993 769.413 39.8809 769.286C39.7666 769.159 39.7095 769 39.7095 768.81ZM44.4575 768.969V770.632H45.7397V771.54H44.4575V775.799C44.4575 776.074 44.5146 776.281 44.6289 776.421C44.7432 776.556 44.9378 776.624 45.2129 776.624C45.3483 776.624 45.5345 776.599 45.7715 776.548V777.5C45.4626 777.585 45.1621 777.627 44.8701 777.627C44.3454 777.627 43.9497 777.468 43.6831 777.151C43.4165 776.833 43.2832 776.383 43.2832 775.799V771.54H42.0327V770.632H43.2832V768.969H44.4575ZM49.3643 775.78L50.9639 770.632H52.2207L49.4595 778.56C49.0321 779.703 48.3529 780.274 47.4219 780.274L47.1997 780.255L46.7617 780.172V779.22L47.0791 779.246C47.4769 779.246 47.7858 779.165 48.0059 779.004C48.2301 778.844 48.4142 778.549 48.5581 778.122L48.8184 777.424L46.3682 770.632H47.6504L49.3643 775.78Z" fill="white" fill-opacity="0.94"/>
<path d="M59.9876 776.971C59.7072 776.679 59.7069 776.206 59.9871 775.913L62.7776 773L59.9871 770.087C59.7069 769.794 59.7072 769.321 59.9876 769.029C60.268 768.737 60.7225 768.737 61.0028 769.029L64.3061 772.47C64.5873 772.763 64.5873 773.238 64.3061 773.53L61.0028 776.971C60.7225 777.263 60.268 777.263 59.9876 776.971Z" fill="white" fill-opacity="0.94"/>
<path d="M204.028 778H202.847V770.173L200.479 771.043V769.977L203.844 768.713H204.028V778ZM213.264 774.058C213.264 775.433 213.029 776.455 212.559 777.124C212.089 777.793 211.355 778.127 210.356 778.127C209.37 778.127 208.64 777.801 208.167 777.149C207.693 776.493 207.447 775.516 207.43 774.217V772.649C207.43 771.291 207.665 770.281 208.135 769.621C208.604 768.961 209.341 768.631 210.344 768.631C211.338 768.631 212.07 768.95 212.54 769.589C213.01 770.224 213.251 771.206 213.264 772.535V774.058ZM212.089 772.452C212.089 771.458 211.95 770.734 211.67 770.281C211.391 769.824 210.949 769.596 210.344 769.596C209.743 769.596 209.305 769.822 209.03 770.275C208.755 770.728 208.613 771.424 208.604 772.363V774.242C208.604 775.241 208.748 775.979 209.036 776.458C209.328 776.931 209.768 777.168 210.356 777.168C210.936 777.168 211.366 776.944 211.645 776.496C211.929 776.047 212.077 775.34 212.089 774.375V772.452Z" fill="white" fill-opacity="0.64"/>
<rect x="20" y="932" width="210" height="1" fill="white" fill-opacity="0.15"/>
<circle r="16" transform="matrix(-1 0 0 1 81.1875 863)" fill="#ED5A5F"/>
<path d="M79.7812 863.494H80.5762C80.9772 863.49 81.2941 863.386 81.5269 863.182C81.7632 862.978 81.8813 862.683 81.8813 862.296C81.8813 861.924 81.7829 861.635 81.5859 861.431C81.3926 861.223 81.0954 861.12 80.6943 861.12C80.3434 861.12 80.0552 861.222 79.8296 861.426C79.604 861.626 79.4912 861.889 79.4912 862.215H78.186C78.186 861.814 78.2917 861.449 78.5029 861.12C78.7178 860.79 79.015 860.534 79.3945 860.352C79.7777 860.165 80.2056 860.072 80.6782 860.072C81.4588 860.072 82.0711 860.269 82.5151 860.663C82.9627 861.053 83.1865 861.598 83.1865 862.296C83.1865 862.647 83.0737 862.978 82.8481 863.29C82.6261 863.597 82.3379 863.83 81.9834 863.988C82.4131 864.135 82.7389 864.366 82.9609 864.681C83.1865 864.996 83.2993 865.372 83.2993 865.809C83.2993 866.51 83.0576 867.069 82.5742 867.484C82.0944 867.9 81.4624 868.107 80.6782 868.107C79.9263 868.107 79.3104 867.907 78.8306 867.506C78.3507 867.105 78.1108 866.571 78.1108 865.905H79.416C79.416 866.249 79.5306 866.528 79.7598 866.743C79.9925 866.958 80.304 867.065 80.6943 867.065C81.099 867.065 81.4176 866.958 81.6504 866.743C81.8831 866.528 81.9995 866.217 81.9995 865.809C81.9995 865.397 81.8778 865.08 81.6343 864.858C81.3908 864.636 81.0291 864.525 80.5493 864.525H79.7812V863.494Z" fill="black"/>
<ellipse rx="29.8252" ry="30" transform="matrix(-1 0 0 1 135.362 863)" fill="#40BF73"/>
<path d="M132.88 869.625H131.581V863.346L129.663 864.001V862.9L132.714 861.778H132.88V869.625ZM140.695 866.333C140.695 867.457 140.484 868.306 140.062 868.878C139.643 869.448 139.003 869.732 138.144 869.732C137.299 869.732 136.662 869.455 136.232 868.9C135.806 868.341 135.587 867.516 135.577 866.424V865.07C135.577 863.946 135.786 863.103 136.205 862.541C136.628 861.978 137.27 861.697 138.133 861.697C138.989 861.697 139.627 861.971 140.045 862.519C140.468 863.067 140.685 863.887 140.695 864.979V866.333ZM139.39 864.872C139.39 864.138 139.29 863.6 139.089 863.26C138.889 862.917 138.57 862.745 138.133 862.745C137.707 862.745 137.394 862.908 137.193 863.233C136.993 863.556 136.887 864.061 136.877 864.748V866.521C136.877 867.251 136.979 867.795 137.183 868.153C137.387 868.511 137.707 868.69 138.144 868.69C138.563 868.69 138.873 868.526 139.073 868.196C139.274 867.863 139.379 867.344 139.39 866.639V864.872Z" fill="black"/>
</svg>
