<svg width="1440" height="1024" viewBox="0 0 1440 1024" fill="none" xmlns="http://www.w3.org/2000/svg">
<g clip-path="url(#clip0_890_28386)">
<rect width="1440" height="1024" fill="#16192A"/>
<rect width="1392" height="48" transform="translate(48)" fill="#262939"/>
<path d="M76.1821 24.1772C76.1821 25.0828 76.0298 25.8742 75.7251 26.5513C75.4204 27.2241 74.9888 27.7383 74.4302 28.0938C73.8716 28.4492 73.2199 28.627 72.4751 28.627C71.7472 28.627 71.1019 28.4492 70.5391 28.0938C69.9762 27.734 69.5382 27.2241 69.2251 26.564C68.9162 25.8996 68.7575 25.1315 68.749 24.2598V23.5933C68.749 22.7046 68.9035 21.9196 69.2124 21.2383C69.5213 20.557 69.9572 20.0365 70.52 19.6768C71.0871 19.3128 71.7345 19.1309 72.4624 19.1309C73.203 19.1309 73.8547 19.3107 74.4175 19.6704C74.9845 20.0259 75.4204 20.5443 75.7251 21.2256C76.0298 21.9027 76.1821 22.6919 76.1821 23.5933V24.1772ZM74.9697 23.5806C74.9697 22.4845 74.7497 21.6445 74.3096 21.0605C73.8695 20.4723 73.2537 20.1782 72.4624 20.1782C71.6922 20.1782 71.085 20.4723 70.6406 21.0605C70.2005 21.6445 69.9741 22.457 69.9614 23.498V24.1772C69.9614 25.2394 70.1836 26.0752 70.6279 26.6846C71.0765 27.2897 71.6922 27.5923 72.4751 27.5923C73.2622 27.5923 73.8716 27.3066 74.3032 26.7354C74.7349 26.1598 74.957 25.3368 74.9697 24.2661V23.5806ZM83.6406 25.1421C83.6406 26.1916 83.3994 27.0358 82.917 27.6748C82.4346 28.3096 81.7871 28.627 80.9746 28.627C80.1071 28.627 79.4364 28.3201 78.9624 27.7065L78.9053 28.5H77.8262V18.75H79.0005V22.3872C79.4744 21.799 80.1283 21.5049 80.9619 21.5049C81.7956 21.5049 82.4494 21.8201 82.9233 22.4507C83.4015 23.0812 83.6406 23.9445 83.6406 25.0405V25.1421ZM82.4663 25.0088C82.4663 24.209 82.3118 23.5911 82.0029 23.1553C81.694 22.7194 81.2497 22.5015 80.6699 22.5015C79.8955 22.5015 79.339 22.8612 79.0005 23.5806V26.5513C79.3602 27.2707 79.9209 27.6304 80.6826 27.6304C81.2454 27.6304 81.6834 27.4124 81.9966 26.9766C82.3097 26.5407 82.4663 25.8848 82.4663 25.0088ZM89.125 26.6782C89.125 26.3608 89.0044 26.1154 88.7632 25.9419C88.5262 25.7642 88.1094 25.6118 87.5127 25.4849C86.9202 25.3579 86.4484 25.2056 86.0972 25.0278C85.7502 24.8501 85.492 24.6385 85.3228 24.3931C85.1577 24.1476 85.0752 23.8556 85.0752 23.5171C85.0752 22.9543 85.3122 22.4782 85.7861 22.0889C86.2643 21.6995 86.8737 21.5049 87.6143 21.5049C88.3929 21.5049 89.0234 21.7059 89.5059 22.1079C89.9925 22.5099 90.2358 23.0241 90.2358 23.6504H89.0552C89.0552 23.3288 88.9176 23.0516 88.6426 22.8188C88.3717 22.5861 88.029 22.4697 87.6143 22.4697C87.1868 22.4697 86.8525 22.5628 86.6113 22.749C86.3701 22.9352 86.2495 23.1785 86.2495 23.479C86.2495 23.7625 86.3617 23.9762 86.5859 24.1201C86.8102 24.264 87.2144 24.4015 87.7983 24.5327C88.3866 24.6639 88.8626 24.8205 89.2266 25.0024C89.5905 25.1844 89.8592 25.4045 90.0327 25.6626C90.2104 25.9165 90.2993 26.2275 90.2993 26.5957C90.2993 27.2093 90.0539 27.7023 89.563 28.0747C89.0721 28.4429 88.4352 28.627 87.6523 28.627C87.1022 28.627 86.6156 28.5296 86.1924 28.335C85.7692 28.1403 85.437 27.8695 85.1958 27.5225C84.9588 27.1712 84.8403 26.7925 84.8403 26.3862H86.0146C86.0358 26.7798 86.1924 27.0929 86.4844 27.3257C86.7806 27.5542 87.1699 27.6685 87.6523 27.6685C88.0967 27.6685 88.4521 27.5796 88.7188 27.4019C88.9896 27.2199 89.125 26.9787 89.125 26.6782ZM94.6792 28.627C93.7482 28.627 92.9907 28.3223 92.4067 27.7129C91.8228 27.0993 91.5308 26.2804 91.5308 25.2563V25.0405C91.5308 24.3592 91.6598 23.752 91.918 23.2188C92.1803 22.6813 92.5443 22.2624 93.0098 21.9619C93.4795 21.6572 93.9873 21.5049 94.5332 21.5049C95.4261 21.5049 96.1201 21.799 96.6152 22.3872C97.1104 22.9754 97.3579 23.8175 97.3579 24.9136V25.4023H92.7051C92.722 26.0794 92.9188 26.6274 93.2954 27.0464C93.6763 27.4611 94.1587 27.6685 94.7427 27.6685C95.1574 27.6685 95.5086 27.5838 95.7964 27.4146C96.0841 27.2453 96.3359 27.021 96.5518 26.7417L97.269 27.3003C96.6935 28.1847 95.8302 28.627 94.6792 28.627ZM94.5332 22.4697C94.0592 22.4697 93.6615 22.6432 93.3398 22.9902C93.0182 23.333 92.8193 23.8154 92.7432 24.4375H96.1836V24.3486C96.1497 23.752 95.9889 23.2907 95.7012 22.9648C95.4134 22.6348 95.0241 22.4697 94.5332 22.4697ZM102.042 22.6855C101.865 22.6559 101.672 22.6411 101.465 22.6411C100.695 22.6411 100.172 22.9691 99.897 23.625V28.5H98.7227V21.6318H99.8652L99.8843 22.4253C100.269 21.8117 100.815 21.5049 101.522 21.5049C101.75 21.5049 101.924 21.5345 102.042 21.5938V22.6855ZM105.508 26.9067L107.209 21.6318H108.409L105.946 28.5H105.051L102.563 21.6318H103.763L105.508 26.9067ZM112.3 28.627C111.369 28.627 110.612 28.3223 110.028 27.7129C109.444 27.0993 109.152 26.2804 109.152 25.2563V25.0405C109.152 24.3592 109.281 23.752 109.539 23.2188C109.801 22.6813 110.165 22.2624 110.631 21.9619C111.101 21.6572 111.608 21.5049 112.154 21.5049C113.047 21.5049 113.741 21.799 114.236 22.3872C114.731 22.9754 114.979 23.8175 114.979 24.9136V25.4023H110.326C110.343 26.0794 110.54 26.6274 110.917 27.0464C111.297 27.4611 111.78 27.6685 112.364 27.6685C112.778 27.6685 113.13 27.5838 113.417 27.4146C113.705 27.2453 113.957 27.021 114.173 26.7417L114.89 27.3003C114.315 28.1847 113.451 28.627 112.3 28.627ZM112.154 22.4697C111.68 22.4697 111.283 22.6432 110.961 22.9902C110.639 23.333 110.44 23.8154 110.364 24.4375H113.805V24.3486C113.771 23.752 113.61 23.2907 113.322 22.9648C113.035 22.6348 112.645 22.4697 112.154 22.4697Z" fill="white" fill-opacity="0.64"/>
<path d="M126.988 27.9712C126.707 27.6791 126.707 27.2056 126.987 26.9132L129.778 24L126.987 21.0868C126.707 20.7944 126.707 20.3209 126.988 20.0287C127.268 19.7367 127.722 19.7367 128.003 20.0287L131.306 23.4697C131.587 23.7626 131.587 24.2374 131.306 24.5303L128.003 27.9712C127.722 28.2633 127.268 28.2633 126.988 27.9712Z" fill="white" fill-opacity="0.64"/>
<path d="M150.284 24.1201C150.284 24.9961 150.144 25.7557 149.865 26.3989C149.59 27.0379 149.202 27.5457 148.703 27.9224L150.29 29.1602L149.249 30.0996L147.281 28.5444C147.023 28.5994 146.746 28.627 146.45 28.627C145.705 28.627 145.038 28.445 144.45 28.0811C143.866 27.7129 143.413 27.1903 143.092 26.5132C142.774 25.8361 142.614 25.0553 142.609 24.1709V23.6504C142.609 22.749 142.768 21.9535 143.085 21.2637C143.407 20.5739 143.858 20.047 144.438 19.6831C145.021 19.3149 145.688 19.1309 146.437 19.1309C147.199 19.1309 147.869 19.3128 148.449 19.6768C149.033 20.0365 149.484 20.557 149.801 21.2383C150.119 21.9154 150.279 22.7046 150.284 23.606V24.1201ZM148.671 23.6377C148.671 22.5967 148.477 21.8075 148.087 21.27C147.698 20.7326 147.148 20.4639 146.437 20.4639C145.747 20.4639 145.206 20.7368 144.812 21.2827C144.423 21.8244 144.224 22.5903 144.215 23.5806V24.1201C144.215 25.1188 144.41 25.8996 144.799 26.4624C145.193 27.0252 145.743 27.3066 146.45 27.3066C147.165 27.3066 147.713 27.0358 148.094 26.4941C148.479 25.9525 148.671 25.1611 148.671 24.1201V23.6377ZM155.927 27.8271C155.474 28.3604 154.831 28.627 153.997 28.627C153.252 28.627 152.687 28.409 152.302 27.9731C151.921 27.5373 151.731 26.9067 151.731 26.0815V21.6318H153.273V26.0625C153.273 26.9342 153.635 27.3701 154.359 27.3701C155.108 27.3701 155.614 27.1014 155.876 26.564V21.6318H157.418V28.5H155.965L155.927 27.8271ZM158.701 25.0024C158.701 24.3296 158.834 23.7244 159.101 23.187C159.367 22.6453 159.742 22.2306 160.224 21.9429C160.707 21.6509 161.261 21.5049 161.887 21.5049C162.814 21.5049 163.565 21.8032 164.141 22.3999C164.72 22.9966 165.034 23.7879 165.08 24.7739L165.086 25.1357C165.086 25.8128 164.955 26.418 164.693 26.9512C164.435 27.4844 164.062 27.897 163.576 28.189C163.093 28.481 162.535 28.627 161.9 28.627C160.931 28.627 160.154 28.3053 159.57 27.6621C158.991 27.0146 158.701 26.1535 158.701 25.0786V25.0024ZM160.243 25.1357C160.243 25.8424 160.389 26.3968 160.681 26.7988C160.973 27.1966 161.379 27.3955 161.9 27.3955C162.42 27.3955 162.825 27.1924 163.112 26.7861C163.404 26.3799 163.55 25.7853 163.55 25.0024C163.55 24.3084 163.4 23.7583 163.1 23.3521C162.803 22.9458 162.399 22.7427 161.887 22.7427C161.384 22.7427 160.984 22.9437 160.688 23.3457C160.391 23.7435 160.243 24.3402 160.243 25.1357ZM168.324 19.9624V21.6318H169.536V22.7744H168.324V26.6084C168.324 26.8708 168.375 27.0612 168.476 27.1797C168.582 27.2939 168.768 27.3511 169.035 27.3511C169.212 27.3511 169.392 27.3299 169.574 27.2876V28.481C169.223 28.5783 168.884 28.627 168.559 28.627C167.374 28.627 166.781 27.9731 166.781 26.6655V22.7744H165.651V21.6318H166.781V19.9624H168.324ZM172.361 28.5H170.818V21.6318H172.361V28.5ZM170.723 19.8481C170.723 19.6112 170.797 19.4144 170.945 19.2578C171.098 19.1012 171.313 19.0229 171.593 19.0229C171.872 19.0229 172.088 19.1012 172.24 19.2578C172.393 19.4144 172.469 19.6112 172.469 19.8481C172.469 20.0809 172.393 20.2756 172.24 20.4321C172.088 20.5845 171.872 20.6606 171.593 20.6606C171.313 20.6606 171.098 20.5845 170.945 20.4321C170.797 20.2756 170.723 20.0809 170.723 19.8481ZM175.478 21.6318L175.522 22.4253C176.03 21.8117 176.696 21.5049 177.521 21.5049C178.952 21.5049 179.68 22.3237 179.705 23.9614V28.5H178.163V24.0503C178.163 23.6144 178.067 23.2928 177.877 23.0854C177.691 22.8739 177.384 22.7681 176.957 22.7681C176.334 22.7681 175.871 23.0495 175.566 23.6123V28.5H174.024V21.6318H175.478ZM181.013 25.0151C181.013 23.9487 181.262 23.0981 181.762 22.4634C182.265 21.8244 182.932 21.5049 183.761 21.5049C184.544 21.5049 185.16 21.7778 185.608 22.3237L185.678 21.6318H187.068V28.2905C187.068 29.1919 186.787 29.9028 186.224 30.4233C185.666 30.9438 184.91 31.2041 183.958 31.2041C183.454 31.2041 182.961 31.0983 182.479 30.8867C182.001 30.6794 181.637 30.4064 181.387 30.0679L182.117 29.1411C182.591 29.7039 183.175 29.9854 183.869 29.9854C184.381 29.9854 184.785 29.8457 185.082 29.5664C185.378 29.2913 185.526 28.8851 185.526 28.3477V27.8843C185.082 28.3794 184.489 28.627 183.749 28.627C182.944 28.627 182.286 28.3075 181.774 27.6685C181.267 27.0295 181.013 26.145 181.013 25.0151ZM182.549 25.1484C182.549 25.8382 182.688 26.382 182.968 26.7798C183.251 27.1733 183.643 27.3701 184.142 27.3701C184.764 27.3701 185.225 27.1035 185.526 26.5703V23.5488C185.234 23.0283 184.777 22.7681 184.155 22.7681C183.647 22.7681 183.251 22.9691 182.968 23.3711C182.688 23.7731 182.549 24.3656 182.549 25.1484ZM188.808 28.5V19.2578H191.975C193.02 19.2578 193.816 19.4673 194.362 19.8862C194.908 20.3052 195.181 20.9294 195.181 21.7588C195.181 22.182 195.066 22.5628 194.838 22.9014C194.609 23.2399 194.275 23.5023 193.835 23.6885C194.334 23.8239 194.719 24.0799 194.99 24.4565C195.265 24.8289 195.403 25.2775 195.403 25.8022C195.403 26.6698 195.124 27.3363 194.565 27.8018C194.011 28.2673 193.215 28.5 192.178 28.5H188.808ZM190.414 24.3296V27.2178H192.197C192.701 27.2178 193.094 27.0929 193.378 26.8433C193.661 26.5936 193.803 26.2466 193.803 25.8022C193.803 24.8416 193.312 24.3507 192.331 24.3296H190.414ZM190.414 23.1489H191.988C192.487 23.1489 192.876 23.0368 193.156 22.8125C193.439 22.584 193.581 22.2624 193.581 21.8477C193.581 21.3906 193.45 21.0605 193.188 20.8574C192.929 20.6543 192.525 20.5527 191.975 20.5527H190.414V23.1489ZM198.5 28.5H196.958V21.6318H198.5V28.5ZM196.863 19.8481C196.863 19.6112 196.937 19.4144 197.085 19.2578C197.237 19.1012 197.453 19.0229 197.732 19.0229C198.012 19.0229 198.228 19.1012 198.38 19.2578C198.532 19.4144 198.608 19.6112 198.608 19.8481C198.608 20.0809 198.532 20.2756 198.38 20.4321C198.228 20.5845 198.012 20.6606 197.732 20.6606C197.453 20.6606 197.237 20.5845 197.085 20.4321C196.937 20.2756 196.863 20.0809 196.863 19.8481ZM201.617 21.6318L201.662 22.4253C202.169 21.8117 202.836 21.5049 203.661 21.5049C205.091 21.5049 205.819 22.3237 205.845 23.9614V28.5H204.302V24.0503C204.302 23.6144 204.207 23.2928 204.017 23.0854C203.83 22.8739 203.524 22.7681 203.096 22.7681C202.474 22.7681 202.011 23.0495 201.706 23.6123V28.5H200.164V21.6318H201.617ZM207.133 25.0151C207.133 23.9572 207.379 23.1087 207.87 22.4697C208.361 21.8265 209.019 21.5049 209.844 21.5049C210.572 21.5049 211.16 21.7588 211.608 22.2666V18.75H213.151V28.5H211.754L211.678 27.7891C211.217 28.3477 210.601 28.627 209.831 28.627C209.027 28.627 208.375 28.3032 207.876 27.6558C207.381 27.0083 207.133 26.1281 207.133 25.0151ZM208.676 25.1484C208.676 25.8467 208.809 26.3926 209.076 26.7861C209.347 27.1755 209.729 27.3701 210.225 27.3701C210.855 27.3701 211.316 27.0887 211.608 26.5259V23.5933C211.325 23.0431 210.868 22.7681 210.237 22.7681C209.738 22.7681 209.353 22.967 209.082 23.3647C208.811 23.7583 208.676 24.3529 208.676 25.1484Z" fill="#CBADFF"/>
<path fill-rule="evenodd" clip-rule="evenodd" d="M1154.45 27.7743L1157.08 30.3752C1157.49 30.7836 1157.49 31.4462 1157.08 31.8547C1156.66 32.2631 1155.99 32.2631 1155.58 31.8547L1152.77 29.0738L1151 27.3233L1150.27 26.6004C1148.72 27.6972 1146.71 28.1788 1144.55 27.529C1142.33 26.8556 1140.6 24.9885 1140.14 22.7337C1139.2 18.143 1143.21 14.1764 1147.85 15.102C1150.13 15.557 1152.02 17.2718 1152.7 19.4712C1153.36 21.5984 1152.87 23.5921 1151.76 25.12L1152.5 25.8449L1154.45 27.7743ZM1146.5 16.9444C1144.01 16.9444 1142 18.9322 1142 21.3947C1142 23.8571 1144.01 25.8449 1146.5 25.8449C1148.99 25.8449 1151 23.8571 1151 21.3947C1151 18.9322 1148.99 16.9444 1146.5 16.9444Z" fill="white" fill-opacity="0.94"/>
<path d="M1197.63 22.7092C1197.25 22.322 1196.62 22.3181 1196.22 22.7012L1194.92 23.9715C1194.92 23.9419 1194.93 23.913 1194.93 23.8834C1194.94 21.5153 1194.02 19.2832 1192.34 17.5998C1190.66 15.9154 1188.41 14.9806 1186.02 14.9668C1183.59 14.9668 1181.35 15.875 1179.66 17.5279C1177.96 19.1926 1177.01 21.4129 1177 23.781C1176.99 26.149 1177.91 28.3811 1179.59 30.0646C1181.27 31.749 1183.52 32.6838 1185.91 32.6975C1188.34 32.6975 1190.58 31.7893 1192.27 30.1366L1190.87 28.7357C1189.55 30.0212 1187.81 30.7275 1185.97 30.7275C1184.06 30.7166 1182.32 29.9897 1181.01 28.6795C1179.7 27.3695 1178.98 25.6348 1178.99 23.7928C1179 21.9507 1179.74 20.223 1181.06 18.9286C1182.38 17.6431 1184.12 16.9369 1185.96 16.9369C1187.87 16.9477 1189.61 17.6747 1190.92 18.9848C1192.23 20.2949 1192.95 22.0296 1192.94 23.8716C1192.94 23.8988 1192.93 23.9254 1192.93 23.9526L1191.66 22.6756C1191.27 22.2885 1190.64 22.2846 1190.25 22.6677C1189.86 23.0499 1189.85 23.6735 1190.24 24.0606L1190.51 24.3327L1192.47 26.295L1193.21 27.0325C1193.4 27.2186 1193.65 27.324 1193.91 27.3251C1194.03 27.3251 1194.13 27.2974 1194.24 27.2631C1194.29 27.2444 1194.34 27.2171 1194.39 27.1889C1194.47 27.1455 1194.55 27.1046 1194.62 27.0403L1197.62 24.102C1198.02 23.7198 1198.02 23.0962 1197.63 22.7092Z" fill="white" fill-opacity="0.94"/>
<path fill-rule="evenodd" clip-rule="evenodd" d="M1237.99 14C1243.51 14.004 1247.99 18.4773 1248 24C1247.99 29.5227 1243.51 33.996 1237.99 34C1232.47 33.9919 1228 29.5191 1228 24.0018C1228 18.4831 1232.47 14.0081 1237.99 14ZM1238.02 31.7524C1242.29 31.7481 1245.75 28.2906 1245.75 24.0242C1245.75 19.7585 1242.29 16.3022 1238.02 16.2979C1233.76 16.3022 1230.3 19.7585 1230.3 24.0242C1230.3 28.2906 1233.76 31.7481 1238.02 31.7524ZM1241.99 28.1473L1243.12 26.3104L1239.08 23.9141V19.2093H1236.88V25.0766L1241.99 28.1473Z" fill="white" fill-opacity="0.94"/>
<path d="M1257 27.6191H1261.52V29H1255.27V19.0469H1257V27.6191ZM1267.1 29C1267.03 28.8587 1266.96 28.6286 1266.91 28.3096C1266.38 28.861 1265.73 29.1367 1264.97 29.1367C1264.23 29.1367 1263.62 28.9248 1263.15 28.501C1262.68 28.0771 1262.45 27.5531 1262.45 26.9287C1262.45 26.1403 1262.74 25.5365 1263.32 25.1172C1263.91 24.6934 1264.75 24.4814 1265.84 24.4814H1266.86V23.9961C1266.86 23.6133 1266.75 23.3079 1266.53 23.0801C1266.32 22.8477 1265.99 22.7314 1265.56 22.7314C1265.18 22.7314 1264.87 22.8271 1264.63 23.0186C1264.39 23.2054 1264.26 23.4447 1264.26 23.7363H1262.6C1262.6 23.3307 1262.74 22.9525 1263.01 22.6016C1263.28 22.2461 1263.64 21.9681 1264.1 21.7676C1264.57 21.5671 1265.08 21.4668 1265.65 21.4668C1266.52 21.4668 1267.21 21.6855 1267.72 22.123C1268.24 22.556 1268.5 23.1667 1268.52 23.9551V27.291C1268.52 27.9564 1268.61 28.4873 1268.8 28.8838V29H1267.1ZM1265.28 27.8037C1265.6 27.8037 1265.91 27.724 1266.2 27.5645C1266.49 27.4049 1266.71 27.1908 1266.86 26.9219V25.5273H1265.96C1265.34 25.5273 1264.88 25.6344 1264.57 25.8486C1264.26 26.0628 1264.11 26.3659 1264.11 26.7578C1264.11 27.0768 1264.21 27.332 1264.42 27.5234C1264.64 27.7103 1264.92 27.8037 1265.28 27.8037ZM1274.4 26.9902C1274.4 26.694 1274.28 26.4684 1274.03 26.3135C1273.79 26.1585 1273.39 26.0218 1272.82 25.9033C1272.26 25.7848 1271.79 25.6344 1271.41 25.4521C1270.58 25.0511 1270.16 24.4701 1270.16 23.709C1270.16 23.071 1270.43 22.5378 1270.97 22.1094C1271.51 21.681 1272.19 21.4668 1273.02 21.4668C1273.91 21.4668 1274.62 21.6855 1275.16 22.123C1275.71 22.5605 1275.98 23.1279 1275.98 23.8252H1274.32C1274.32 23.5062 1274.2 23.2419 1273.96 23.0322C1273.73 22.818 1273.41 22.7109 1273.02 22.7109C1272.66 22.7109 1272.36 22.7952 1272.13 22.9639C1271.9 23.1325 1271.78 23.3581 1271.78 23.6406C1271.78 23.8958 1271.89 24.0941 1272.11 24.2354C1272.32 24.3766 1272.75 24.5202 1273.4 24.666C1274.06 24.8073 1274.57 24.9782 1274.94 25.1787C1275.31 25.3747 1275.58 25.6117 1275.76 25.8896C1275.94 26.1676 1276.04 26.5049 1276.04 26.9014C1276.04 27.5667 1275.76 28.1068 1275.21 28.5215C1274.66 28.9316 1273.94 29.1367 1273.04 29.1367C1272.44 29.1367 1271.9 29.0273 1271.42 28.8086C1270.95 28.5898 1270.58 28.2891 1270.31 27.9062C1270.05 27.5234 1269.92 27.111 1269.92 26.6689H1271.53C1271.55 27.0609 1271.7 27.3639 1271.98 27.5781C1272.25 27.7878 1272.61 27.8926 1273.06 27.8926C1273.5 27.8926 1273.83 27.8105 1274.06 27.6465C1274.29 27.4779 1274.4 27.2591 1274.4 26.9902ZM1279.57 19.8057V21.6035H1280.88V22.834H1279.57V26.9629C1279.57 27.2454 1279.62 27.4505 1279.73 27.5781C1279.85 27.7012 1280.05 27.7627 1280.34 27.7627C1280.53 27.7627 1280.72 27.7399 1280.92 27.6943V28.9795C1280.54 29.0843 1280.17 29.1367 1279.82 29.1367C1278.55 29.1367 1277.91 28.4326 1277.91 27.0244V22.834H1276.69V21.6035H1277.91V19.8057H1279.57ZM1287.45 23.2646H1288.46C1288.97 23.2601 1289.38 23.1279 1289.67 22.8682C1289.97 22.6084 1290.12 22.2324 1290.12 21.7402C1290.12 21.2663 1290 20.8994 1289.75 20.6396C1289.5 20.3753 1289.12 20.2432 1288.61 20.2432C1288.17 20.2432 1287.8 20.373 1287.51 20.6328C1287.23 20.888 1287.08 21.223 1287.08 21.6377H1285.42C1285.42 21.1273 1285.56 20.6624 1285.83 20.2432C1286.1 19.8239 1286.48 19.498 1286.96 19.2656C1287.45 19.0286 1287.99 18.9102 1288.59 18.9102C1289.59 18.9102 1290.37 19.1608 1290.93 19.6621C1291.5 20.1589 1291.79 20.8516 1291.79 21.7402C1291.79 22.1868 1291.64 22.6084 1291.36 23.0049C1291.07 23.3968 1290.71 23.693 1290.25 23.8936C1290.8 24.0804 1291.22 24.3743 1291.5 24.7754C1291.79 25.1764 1291.93 25.6549 1291.93 26.2109C1291.93 27.1042 1291.62 27.8151 1291.01 28.3438C1290.4 28.8724 1289.59 29.1367 1288.59 29.1367C1287.64 29.1367 1286.85 28.8815 1286.24 28.3711C1285.63 27.8607 1285.33 27.1816 1285.33 26.334H1286.99C1286.99 26.7715 1287.13 27.127 1287.42 27.4004C1287.72 27.6738 1288.12 27.8105 1288.61 27.8105C1289.13 27.8105 1289.53 27.6738 1289.83 27.4004C1290.13 27.127 1290.28 26.7305 1290.28 26.2109C1290.28 25.6868 1290.12 25.2835 1289.81 25.001C1289.5 24.7184 1289.04 24.5771 1288.43 24.5771H1287.45V23.2646ZM1299.98 24.8096C1299.98 26.2406 1299.71 27.3206 1299.17 28.0498C1298.64 28.7744 1297.82 29.1367 1296.73 29.1367C1295.65 29.1367 1294.84 28.7835 1294.29 28.0771C1293.75 27.3662 1293.47 26.3158 1293.46 24.9258V23.2031C1293.46 21.7721 1293.73 20.6989 1294.26 19.9834C1294.8 19.2679 1295.62 18.9102 1296.71 18.9102C1297.8 18.9102 1298.62 19.2588 1299.15 19.9561C1299.69 20.6533 1299.96 21.6969 1299.98 23.0869V24.8096ZM1298.31 22.9502C1298.31 22.016 1298.19 21.3324 1297.93 20.8994C1297.68 20.4619 1297.27 20.2432 1296.71 20.2432C1296.17 20.2432 1295.77 20.4505 1295.52 20.8652C1295.26 21.2754 1295.13 21.918 1295.12 22.793V25.0488C1295.12 25.9785 1295.25 26.6712 1295.5 27.127C1295.76 27.5827 1296.17 27.8105 1296.73 27.8105C1297.26 27.8105 1297.66 27.6009 1297.91 27.1816C1298.17 26.7578 1298.3 26.097 1298.31 25.1992V22.9502ZM1306.6 21.6035L1306.65 22.376C1307.17 21.7699 1307.88 21.4668 1308.78 21.4668C1309.77 21.4668 1310.45 21.8451 1310.81 22.6016C1311.35 21.8451 1312.1 21.4668 1313.08 21.4668C1313.9 21.4668 1314.5 21.6924 1314.9 22.1436C1315.3 22.5947 1315.5 23.2601 1315.51 24.1396V29H1313.85V24.1875C1313.85 23.7181 1313.75 23.374 1313.54 23.1553C1313.34 22.9365 1313 22.8271 1312.53 22.8271C1312.15 22.8271 1311.84 22.9297 1311.6 23.1348C1311.36 23.3353 1311.19 23.5996 1311.1 23.9277L1311.1 29H1309.44V24.1328C1309.42 23.2624 1308.98 22.8271 1308.11 22.8271C1307.44 22.8271 1306.97 23.0983 1306.7 23.6406V29H1305.03V21.6035H1306.6ZM1318.99 29H1317.33V21.6035H1318.99V29ZM1317.22 19.6826C1317.22 19.4274 1317.3 19.2155 1317.46 19.0469C1317.63 18.8783 1317.86 18.7939 1318.16 18.7939C1318.46 18.7939 1318.69 18.8783 1318.86 19.0469C1319.02 19.2155 1319.1 19.4274 1319.1 19.6826C1319.1 19.9333 1319.02 20.1429 1318.86 20.3115C1318.69 20.4756 1318.46 20.5576 1318.16 20.5576C1317.86 20.5576 1317.63 20.4756 1317.46 20.3115C1317.3 20.1429 1317.22 19.9333 1317.22 19.6826ZM1322.34 21.6035L1322.39 22.458C1322.94 21.7972 1323.66 21.4668 1324.54 21.4668C1326.08 21.4668 1326.87 22.3486 1326.9 24.1123V29H1325.23V24.208C1325.23 23.7386 1325.13 23.3923 1324.93 23.1689C1324.73 22.9411 1324.4 22.8271 1323.94 22.8271C1323.27 22.8271 1322.77 23.1302 1322.44 23.7363V29H1320.78V21.6035H1322.34Z" fill="white" fill-opacity="0.94"/>
<path fill-rule="evenodd" clip-rule="evenodd" d="M1357 24C1357 18.48 1361.48 14 1367 14C1372.52 14 1377 18.48 1377 24C1377 29.52 1372.52 34 1367 34C1361.48 34 1357 29.52 1357 24ZM1368 28V30H1366V28H1368ZM1367 32C1362.59 32 1359 28.41 1359 24C1359 19.5901 1362.59 16.0001 1367 16.0001C1371.41 16.0001 1375 19.5901 1375 24C1375 28.41 1371.41 32 1367 32ZM1363 22C1363 19.79 1364.79 18 1367 18C1369.21 18 1371 19.79 1371 22C1371 23.2829 1370.21 23.9733 1369.44 24.6456C1368.71 25.2833 1368 25.9047 1368 27H1366C1366 25.1788 1366.94 24.4566 1367.77 23.8217C1368.42 23.3236 1369 22.8792 1369 22C1369 20.9 1368.1 20 1367 20C1365.9 20 1365 20.9 1365 22H1363Z" fill="white" fill-opacity="0.94"/>
<path fill-rule="evenodd" clip-rule="evenodd" d="M1410 20.5C1410 23.2613 1407.76 25.5 1405 25.5C1402.24 25.5 1400 23.2613 1400 20.5C1400 17.7387 1402.24 15.5 1405 15.5C1407.76 15.5 1410 17.7387 1410 20.5ZM1408 20.5C1408 18.8433 1406.66 17.5 1405 17.5C1403.34 17.5 1402 18.8433 1402 20.5C1402 22.1567 1403.34 23.5 1405 23.5C1406.66 23.5 1408 22.1567 1408 20.5ZM1413 31.5C1413 29.2894 1411.14 27.5 1408.89 27.5H1401.11C1398.86 27.5 1397 29.2894 1397 31.5H1399C1399 30.4106 1399.94 29.5 1401.11 29.5H1408.89C1410.06 29.5 1411 30.4106 1411 31.5H1413Z" fill="white" fill-opacity="0.94"/>
<rect width="48" height="1024" fill="#16192A"/>
<path d="M9 61C9 58.7909 10.7909 57 13 57H35C37.2091 57 39 58.7909 39 61V83C39 85.2091 37.2091 87 35 87H13C10.7909 87 9 85.2091 9 83V61Z" fill="#8A5FFF" fill-opacity="0.6"/>
<path d="M24 67.5C25.3791 67.4954 26.7314 67.8801 27.9016 68.6098C29.0718 69.3395 30.0123 70.3846 30.615 71.625C30.009 72.863 29.0678 73.906 27.8984 74.6356C26.729 75.3652 25.3783 75.7519 24 75.7519C22.6217 75.7519 21.271 75.3652 20.1016 74.6356C18.9322 73.906 17.991 72.863 17.385 71.625C17.9877 70.3846 18.9282 69.3395 20.0984 68.6098C21.2686 67.8801 22.6209 67.4954 24 67.5ZM24 66C22.2192 66.0014 20.48 66.5386 19.0086 67.5418C17.5372 68.545 16.4018 69.9678 15.75 71.625C16.4016 73.282 17.5371 74.7044 19.0086 75.707C20.4802 76.7095 22.2194 77.2457 24 77.2457C25.7806 77.2457 27.5198 76.7095 28.9914 75.707C30.4629 74.7044 31.5984 73.282 32.25 71.625C31.5982 69.9678 30.4628 68.545 28.9914 67.5418C27.52 66.5386 25.7808 66.0014 24 66ZM24 69.75C24.3708 69.75 24.7334 69.86 25.0417 70.066C25.35 70.272 25.5904 70.5649 25.7323 70.9075C25.8742 71.2501 25.9113 71.6271 25.839 71.9908C25.7666 72.3545 25.588 72.6886 25.3258 72.9508C25.0636 73.213 24.7295 73.3916 24.3658 73.464C24.0021 73.5363 23.6251 73.4992 23.2825 73.3573C22.9399 73.2154 22.647 72.975 22.441 72.6667C22.235 72.3584 22.125 71.9958 22.125 71.625C22.125 71.1277 22.3225 70.6508 22.6742 70.2992C23.0258 69.9475 23.5027 69.75 24 69.75ZM24 68.25C23.3325 68.25 22.68 68.4479 22.125 68.8188C21.5699 69.1896 21.1374 69.7167 20.8819 70.3334C20.6265 70.9501 20.5596 71.6287 20.6898 72.2834C20.8201 72.9381 21.1415 73.5395 21.6135 74.0115C22.0855 74.4835 22.6869 74.8049 23.3416 74.9352C23.9963 75.0654 24.6749 74.9985 25.2916 74.7431C25.9083 74.4876 26.4354 74.0551 26.8062 73.5C27.1771 72.945 27.375 72.2925 27.375 71.625C27.373 70.7305 27.0168 69.8732 26.3843 69.2407C25.7518 68.6082 24.8945 68.252 24 68.25Z" fill="white" fill-opacity="0.94"/>
<path fill-rule="evenodd" clip-rule="evenodd" d="M24 98.4792C23.733 98.4792 23.466 98.6112 23.3132 98.8752L15.9598 111.576C15.6535 112.106 16.0353 112.768 16.6467 112.768H31.3533C31.9647 112.768 32.3465 112.106 32.0402 111.576L24.6868 98.8752C24.534 98.6112 24.267 98.4792 24 98.4792ZM24 100.683L30.1282 111.268H17.8718L24 100.683ZM23.25 104.322H24.75V107.08H23.25V104.322ZM23.25 108.58H24.75V110.08H23.25V108.58Z" fill="white" fill-opacity="0.64"/>
<path fill-rule="evenodd" clip-rule="evenodd" d="M30.9578 142.533C31.2083 142.055 31.1044 141.475 30.7046 141.146L29.6771 140.309C29.6835 140.205 29.6867 140.103 29.6867 140C29.6867 139.897 29.6835 139.795 29.6771 139.691L30.702 138.856C31.1044 138.525 31.2083 137.946 30.9666 137.484L29.6914 135.185C29.4512 134.726 28.9059 134.533 28.4357 134.711L27.2015 135.227C27.0361 135.114 26.8663 135.011 26.6918 134.918L26.5068 133.574C26.4439 133.049 26.0008 132.654 25.4838 132.654H22.9508C22.4338 132.654 21.9907 133.049 21.926 133.588L21.7426 134.919C21.5712 135.011 21.4025 135.114 21.2358 135.228L20.0212 134.72C19.5328 134.521 18.9846 134.724 18.7345 135.202L17.4767 137.468C17.2144 137.93 17.3269 138.523 17.7299 138.854L18.7576 139.691C18.7512 139.797 18.7479 139.899 18.7479 140C18.7479 140.102 18.7512 140.204 18.7576 140.309L17.7325 141.144C17.3302 141.475 17.2262 142.055 17.468 142.516L18.7432 144.815C18.9834 145.274 19.5287 145.468 19.9989 145.289L21.2331 144.774C21.3985 144.887 21.5683 144.99 21.7428 145.082L21.9278 146.426C21.9906 146.951 22.4338 147.347 22.9508 147.347H25.4838C26.0008 147.347 26.4439 146.951 26.5085 146.413L26.6919 145.081C26.8634 144.989 27.032 144.886 27.1988 144.772L28.4134 145.281C28.9018 145.48 29.45 145.276 29.7001 144.799L30.9578 142.533ZM28.1573 140.976L29.5357 142.098L28.6189 143.75L27.3732 143.229L26.9971 143.072L26.6729 143.325C26.3679 143.563 26.0673 143.747 25.7617 143.877L25.3805 144.04L25.1318 145.847H23.3027L23.1126 144.465L23.0541 144.04L22.6729 143.877C22.3543 143.741 22.0547 143.56 21.7686 143.331L21.4428 143.069L19.8155 143.75L18.899 142.098L19.9557 141.237L20.2773 140.976L20.2267 140.554C20.2008 140.338 20.1879 140.162 20.1879 140C20.1879 139.839 20.2008 139.662 20.2267 139.447L20.2773 139.025L18.899 137.902L19.8157 136.25L21.0613 136.771L21.4374 136.929L21.7617 136.675C22.0667 136.437 22.3673 136.253 22.6729 136.123L23.0541 135.96L23.3027 134.154H25.1319L25.322 135.535L25.3805 135.96L25.7617 136.123C26.0802 136.259 26.3798 136.441 26.6659 136.67L26.9918 136.931L28.6191 136.25L29.5356 137.902L28.4788 138.763L28.1573 139.025L28.2079 139.447C28.2343 139.666 28.2467 139.834 28.2467 140C28.2467 140.166 28.2343 140.334 28.2079 140.554L28.1573 140.976ZM24.2173 140.955C24.7222 140.955 25.1341 140.526 25.1341 140C25.1341 139.474 24.7222 139.045 24.2173 139.045C23.7123 139.045 23.3005 139.474 23.3005 140C23.3005 140.526 23.7123 140.955 24.2173 140.955ZM21.8605 140C21.8605 141.355 22.9171 142.455 24.2173 142.455C25.5175 142.455 26.5741 141.355 26.5741 140C26.5741 138.646 25.5175 137.545 24.2173 137.545C22.917 137.545 21.8605 138.646 21.8605 140Z" fill="white" fill-opacity="0.64"/>
<path fill-rule="evenodd" clip-rule="evenodd" d="M25.275 1004.64C24.975 1004.94 24.525 1004.94 24.225 1004.64C23.925 1004.34 23.925 1003.82 24.225 1003.59L27.15 1000.67L24.225 997.741C24 997.516 24 997.066 24.225 996.766C24.525 996.466 24.975 996.391 25.275 996.691L28.725 1000.14C29.025 1000.44 29.025 1000.89 28.725 1001.19L25.275 1004.64ZM20.775 1004.64C20.475 1004.94 20.025 1004.94 19.725 1004.64C19.425 1004.34 19.425 1003.82 19.725 1003.59L22.65 1000.67L19.725 997.741C19.5 997.516 19.5 997.066 19.725 996.766C20.025 996.466 20.475 996.391 20.775 996.691L24.225 1000.14C24.525 1000.44 24.525 1000.89 24.225 1001.19L20.775 1004.64Z" fill="white" fill-opacity="0.64"/>
<path d="M17.6536 17.7511L20.5292 24.2048C20.5415 24.2365 20.5556 24.2646 20.5767 24.2946L23.4417 30.7324C23.0917 30.782 22.7386 30.8067 22.3851 30.8064C19.2769 30.8062 16.5014 28.8598 15.4423 25.9376C14.3832 23.0153 15.2672 19.7427 17.6536 17.7511Z" fill="white" fill-opacity="0.94"/>
<path d="M19.654 12.3293C20.5483 12.1094 21.466 11.9988 22.3869 12C27.4045 11.9953 31.8376 15.266 33.3135 20.0616C34.7894 24.8572 32.9626 30.0545 28.8106 32.8719L27.1272 29.0913C29.5134 27.0999 30.3975 23.8277 29.3389 20.9056C28.2802 17.9835 25.5054 16.0369 22.3975 16.036C22.044 16.0358 21.6909 16.0605 21.3409 16.1099L19.654 12.3293Z" fill="white" fill-opacity="0.94"/>
<rect width="230" height="974" transform="translate(1210 50)" fill="#262939"/>
<rect x="1230" y="180" width="210" height="1" fill="white" fill-opacity="0.15"/>
<path d="M1235.17 71.1792H1232.14L1231.51 73H1230.1L1233.05 65.1797H1234.27L1237.23 73H1235.81L1235.17 71.1792ZM1232.52 70.0835H1234.79L1233.66 66.8394L1232.52 70.0835ZM1243.97 70.4541C1243.89 71.2884 1243.58 71.9401 1243.05 72.4092C1242.51 72.8747 1241.79 73.1074 1240.9 73.1074C1240.28 73.1074 1239.73 72.9606 1239.25 72.667C1238.78 72.3698 1238.42 71.9491 1238.16 71.4048C1237.9 70.8605 1237.77 70.2285 1237.76 69.5088V68.7783C1237.76 68.0407 1237.89 67.3908 1238.15 66.8286C1238.41 66.2664 1238.78 65.8332 1239.27 65.5288C1239.76 65.2244 1240.33 65.0723 1240.97 65.0723C1241.83 65.0723 1242.53 65.3068 1243.05 65.7759C1243.58 66.245 1243.88 66.9074 1243.97 67.7632H1242.62C1242.55 67.201 1242.39 66.7964 1242.12 66.5493C1241.86 66.2987 1241.48 66.1733 1240.97 66.1733C1240.38 66.1733 1239.92 66.39 1239.6 66.8232C1239.29 67.2529 1239.13 67.8849 1239.12 68.7192V69.4121C1239.12 70.2572 1239.27 70.9017 1239.57 71.3457C1239.88 71.7897 1240.32 72.0117 1240.9 72.0117C1241.44 72.0117 1241.84 71.8918 1242.11 71.6519C1242.38 71.4119 1242.55 71.0127 1242.62 70.4541H1243.97ZM1250.68 66.2754H1248.24V73H1246.89V66.2754H1244.48V65.1797H1250.68V66.2754ZM1253.14 73H1251.79V65.1797H1253.14V73ZM1261.06 69.2939C1261.06 70.0602 1260.92 70.7334 1260.66 71.3135C1260.39 71.89 1260.01 72.334 1259.52 72.6455C1259.03 72.9535 1258.46 73.1074 1257.82 73.1074C1257.19 73.1074 1256.62 72.9535 1256.12 72.6455C1255.63 72.334 1255.25 71.8918 1254.98 71.3188C1254.71 70.7459 1254.57 70.0853 1254.57 69.3369V68.8965C1254.57 68.1338 1254.7 67.4606 1254.97 66.877C1255.24 66.2933 1255.62 65.8475 1256.11 65.5396C1256.61 65.228 1257.17 65.0723 1257.81 65.0723C1258.45 65.0723 1259.01 65.2262 1259.5 65.5342C1260 65.8385 1260.38 66.279 1260.65 66.8555C1260.92 67.4284 1261.05 68.0962 1261.06 68.8589V69.2939ZM1259.7 68.8857C1259.7 68.0192 1259.53 67.355 1259.2 66.8931C1258.88 66.4312 1258.41 66.2002 1257.81 66.2002C1257.22 66.2002 1256.76 66.4312 1256.43 66.8931C1256.1 67.3514 1255.93 68.0013 1255.93 68.8428V69.2939C1255.93 70.1533 1256.09 70.8175 1256.43 71.2866C1256.76 71.7557 1257.23 71.9902 1257.82 71.9902C1258.42 71.9902 1258.89 71.7611 1259.21 71.3027C1259.53 70.8444 1259.7 70.1748 1259.7 69.2939V68.8857ZM1268.61 73H1267.25L1263.77 67.4517V73H1262.41V65.1797H1263.77L1267.26 70.7495V65.1797H1268.61V73ZM1274.31 70.9858C1274.31 70.6421 1274.18 70.3771 1273.94 70.1909C1273.7 70.0047 1273.27 69.8167 1272.64 69.627C1272.01 69.4372 1271.5 69.2259 1271.13 68.9932C1270.42 68.5456 1270.06 67.9619 1270.06 67.2422C1270.06 66.612 1270.32 66.0928 1270.83 65.6846C1271.35 65.2764 1272.01 65.0723 1272.83 65.0723C1273.38 65.0723 1273.86 65.1725 1274.29 65.373C1274.72 65.5736 1275.05 65.86 1275.29 66.2324C1275.54 66.6012 1275.66 67.0112 1275.66 67.4624H1274.31C1274.31 67.0542 1274.18 66.7355 1273.92 66.5063C1273.67 66.2736 1273.3 66.1572 1272.82 66.1572C1272.38 66.1572 1272.03 66.2521 1271.79 66.4419C1271.54 66.6317 1271.42 66.8966 1271.42 67.2368C1271.42 67.5233 1271.55 67.7632 1271.82 67.9565C1272.08 68.1463 1272.52 68.3325 1273.13 68.5151C1273.74 68.6942 1274.23 68.9001 1274.6 69.1328C1274.97 69.362 1275.24 69.627 1275.41 69.9277C1275.58 70.2249 1275.67 70.5741 1275.67 70.9751C1275.67 71.6268 1275.41 72.146 1274.91 72.5327C1274.42 72.9159 1273.74 73.1074 1272.88 73.1074C1272.32 73.1074 1271.8 73.0036 1271.32 72.7959C1270.85 72.5846 1270.48 72.2946 1270.21 71.9258C1269.95 71.557 1269.82 71.1273 1269.82 70.6367H1271.18C1271.18 71.0807 1271.33 71.4245 1271.62 71.668C1271.91 71.9115 1272.33 72.0332 1272.88 72.0332C1273.36 72.0332 1273.71 71.9383 1273.95 71.7485C1274.19 71.5552 1274.31 71.3009 1274.31 70.9858Z" fill="white" fill-opacity="0.64"/>
<path d="M1419.08 67.3714C1418.8 67.6409 1418.8 68.0779 1419.08 68.3475L1422.38 71.5237C1422.67 71.7941 1423.12 71.7941 1423.4 71.5237L1426.71 68.3475C1426.99 68.0779 1426.99 67.6409 1426.71 67.3714C1426.43 67.1017 1425.97 67.1015 1425.69 67.3708L1422.89 70.054L1420.1 67.3708C1419.82 67.1015 1419.36 67.1017 1419.08 67.3714Z" fill="white" fill-opacity="0.64"/>
<path d="M1230 91C1230 89.3431 1231.34 88 1233 88H1417C1418.66 88 1420 89.3431 1420 91V115C1420 116.657 1418.66 118 1417 118H1233C1231.34 118 1230 116.657 1230 115V91Z" fill="white" fill-opacity="0.1"/>
<path d="M1268.36 105.683H1264.5L1263.7 108H1261.9L1265.66 98.0469H1267.21L1270.98 108H1269.17L1268.36 105.683ZM1264.99 104.288H1267.87L1266.43 100.159L1264.99 104.288ZM1273.16 100.604L1273.21 101.458C1273.76 100.797 1274.48 100.467 1275.36 100.467C1276.9 100.467 1277.69 101.349 1277.72 103.112V108H1276.05V103.208C1276.05 102.739 1275.95 102.392 1275.75 102.169C1275.55 101.941 1275.22 101.827 1274.76 101.827C1274.09 101.827 1273.59 102.13 1273.26 102.736V108H1271.6V100.604H1273.16ZM1279.1 104.233C1279.1 103.509 1279.25 102.857 1279.53 102.278C1279.82 101.695 1280.22 101.248 1280.74 100.938C1281.26 100.624 1281.86 100.467 1282.54 100.467C1283.53 100.467 1284.34 100.788 1284.96 101.431C1285.59 102.073 1285.92 102.925 1285.97 103.987L1285.98 104.377C1285.98 105.106 1285.84 105.758 1285.56 106.332C1285.28 106.906 1284.88 107.351 1284.35 107.665C1283.83 107.979 1283.23 108.137 1282.55 108.137C1281.51 108.137 1280.67 107.79 1280.04 107.098C1279.42 106.4 1279.1 105.473 1279.1 104.315V104.233ZM1280.76 104.377C1280.76 105.138 1280.92 105.735 1281.24 106.168C1281.55 106.596 1281.99 106.811 1282.55 106.811C1283.11 106.811 1283.54 106.592 1283.85 106.154C1284.17 105.717 1284.33 105.076 1284.33 104.233C1284.33 103.486 1284.16 102.894 1283.84 102.456C1283.52 102.019 1283.09 101.8 1282.54 101.8C1281.99 101.8 1281.56 102.016 1281.24 102.449C1280.92 102.878 1280.76 103.52 1280.76 104.377ZM1288.95 100.604L1289 101.376C1289.51 100.77 1290.23 100.467 1291.13 100.467C1292.12 100.467 1292.79 100.845 1293.16 101.602C1293.7 100.845 1294.45 100.467 1295.43 100.467C1296.24 100.467 1296.85 100.692 1297.25 101.144C1297.65 101.595 1297.85 102.26 1297.86 103.14V108H1296.2V103.188C1296.2 102.718 1296.1 102.374 1295.89 102.155C1295.69 101.937 1295.35 101.827 1294.87 101.827C1294.5 101.827 1294.19 101.93 1293.94 102.135C1293.71 102.335 1293.54 102.6 1293.45 102.928L1293.45 108H1291.79V103.133C1291.77 102.262 1291.32 101.827 1290.46 101.827C1289.79 101.827 1289.32 102.098 1289.04 102.641V108H1287.38V100.604H1288.95ZM1299.26 104.233C1299.26 103.509 1299.4 102.857 1299.69 102.278C1299.97 101.695 1300.38 101.248 1300.9 100.938C1301.42 100.624 1302.01 100.467 1302.69 100.467C1303.69 100.467 1304.49 100.788 1305.11 101.431C1305.74 102.073 1306.08 102.925 1306.13 103.987L1306.13 104.377C1306.13 105.106 1305.99 105.758 1305.71 106.332C1305.43 106.906 1305.03 107.351 1304.51 107.665C1303.99 107.979 1303.38 108.137 1302.7 108.137C1301.66 108.137 1300.82 107.79 1300.19 107.098C1299.57 106.4 1299.26 105.473 1299.26 104.315V104.233ZM1300.92 104.377C1300.92 105.138 1301.07 105.735 1301.39 106.168C1301.7 106.596 1302.14 106.811 1302.7 106.811C1303.26 106.811 1303.7 106.592 1304.01 106.154C1304.32 105.717 1304.48 105.076 1304.48 104.233C1304.48 103.486 1304.32 102.894 1303.99 102.456C1303.67 102.019 1303.24 101.8 1302.69 101.8C1302.15 101.8 1301.71 102.016 1301.4 102.449C1301.08 102.878 1300.92 103.52 1300.92 104.377ZM1309.3 108H1307.64V97.5H1309.3V108ZM1315.54 108C1315.47 107.859 1315.4 107.629 1315.35 107.31C1314.82 107.861 1314.17 108.137 1313.41 108.137C1312.66 108.137 1312.06 107.925 1311.59 107.501C1311.12 107.077 1310.88 106.553 1310.88 105.929C1310.88 105.14 1311.18 104.536 1311.76 104.117C1312.35 103.693 1313.19 103.481 1314.27 103.481H1315.29V102.996C1315.29 102.613 1315.19 102.308 1314.97 102.08C1314.76 101.848 1314.43 101.731 1313.99 101.731C1313.62 101.731 1313.31 101.827 1313.06 102.019C1312.82 102.205 1312.7 102.445 1312.7 102.736H1311.04C1311.04 102.331 1311.18 101.952 1311.44 101.602C1311.71 101.246 1312.08 100.968 1312.54 100.768C1313 100.567 1313.52 100.467 1314.09 100.467C1314.96 100.467 1315.65 100.686 1316.16 101.123C1316.68 101.556 1316.94 102.167 1316.95 102.955V106.291C1316.95 106.956 1317.05 107.487 1317.23 107.884V108H1315.54ZM1313.71 106.804C1314.04 106.804 1314.35 106.724 1314.64 106.564C1314.93 106.405 1315.15 106.191 1315.29 105.922V104.527H1314.4C1313.78 104.527 1313.32 104.634 1313.01 104.849C1312.7 105.063 1312.54 105.366 1312.54 105.758C1312.54 106.077 1312.65 106.332 1312.86 106.523C1313.07 106.71 1313.36 106.804 1313.71 106.804ZM1321.17 105.621L1322.68 100.604H1324.45L1321.51 109.121C1321.06 110.365 1320.29 110.987 1319.21 110.987C1318.97 110.987 1318.7 110.946 1318.41 110.864V109.579L1318.72 109.6C1319.14 109.6 1319.46 109.522 1319.67 109.367C1319.88 109.217 1320.05 108.962 1320.17 108.602L1320.41 107.966L1317.82 100.604H1319.61L1321.17 105.621ZM1329.05 108V98.0469H1331.99C1332.87 98.0469 1333.65 98.2428 1334.33 98.6348C1335.01 99.0267 1335.54 99.5827 1335.92 100.303C1336.29 101.023 1336.48 101.848 1336.48 102.777V103.276C1336.48 104.22 1336.29 105.049 1335.91 105.765C1335.54 106.48 1335 107.032 1334.3 107.419C1333.61 107.806 1332.82 108 1331.92 108H1329.05ZM1330.78 99.4414V106.619H1331.91C1332.82 106.619 1333.51 106.337 1334 105.771C1334.48 105.202 1334.73 104.386 1334.74 103.324V102.771C1334.74 101.69 1334.51 100.866 1334.04 100.296C1333.57 99.7262 1332.89 99.4414 1331.99 99.4414H1330.78ZM1341.3 108.137C1340.24 108.137 1339.39 107.806 1338.73 107.146C1338.08 106.48 1337.76 105.596 1337.76 104.493V104.288C1337.76 103.55 1337.9 102.891 1338.18 102.312C1338.47 101.729 1338.87 101.276 1339.38 100.952C1339.9 100.629 1340.47 100.467 1341.11 100.467C1342.11 100.467 1342.89 100.788 1343.44 101.431C1343.99 102.073 1344.26 102.982 1344.26 104.158V104.828H1339.43C1339.48 105.439 1339.68 105.922 1340.04 106.277C1340.4 106.633 1340.85 106.811 1341.39 106.811C1342.15 106.811 1342.77 106.503 1343.25 105.888L1344.15 106.742C1343.85 107.184 1343.45 107.528 1342.96 107.774C1342.47 108.016 1341.91 108.137 1341.3 108.137ZM1341.1 101.8C1340.64 101.8 1340.27 101.959 1339.99 102.278C1339.71 102.597 1339.54 103.042 1339.46 103.611H1342.62V103.488C1342.59 102.932 1342.44 102.513 1342.18 102.23C1341.92 101.943 1341.56 101.8 1341.1 101.8ZM1347.64 98.8057V100.604H1348.95V101.834H1347.64V105.963C1347.64 106.245 1347.7 106.451 1347.8 106.578C1347.92 106.701 1348.12 106.763 1348.41 106.763C1348.6 106.763 1348.79 106.74 1348.99 106.694V107.979C1348.61 108.084 1348.24 108.137 1347.89 108.137C1346.62 108.137 1345.98 107.433 1345.98 106.024V101.834H1344.76V100.604H1345.98V98.8057H1347.64ZM1353.48 108.137C1352.43 108.137 1351.57 107.806 1350.92 107.146C1350.26 106.48 1349.94 105.596 1349.94 104.493V104.288C1349.94 103.55 1350.08 102.891 1350.36 102.312C1350.65 101.729 1351.05 101.276 1351.56 100.952C1352.08 100.629 1352.65 100.467 1353.29 100.467C1354.29 100.467 1355.07 100.788 1355.62 101.431C1356.17 102.073 1356.45 102.982 1356.45 104.158V104.828H1351.61C1351.66 105.439 1351.87 105.922 1352.22 106.277C1352.58 106.633 1353.03 106.811 1353.57 106.811C1354.34 106.811 1354.96 106.503 1355.43 105.888L1356.33 106.742C1356.03 107.184 1355.64 107.528 1355.14 107.774C1354.65 108.016 1354.09 108.137 1353.48 108.137ZM1353.28 101.8C1352.82 101.8 1352.46 101.959 1352.17 102.278C1351.89 102.597 1351.72 103.042 1351.64 103.611H1354.8V103.488C1354.77 102.932 1354.62 102.513 1354.36 102.23C1354.1 101.943 1353.74 101.8 1353.28 101.8ZM1360.78 106.811C1361.19 106.811 1361.54 106.69 1361.81 106.448C1362.08 106.207 1362.23 105.908 1362.25 105.553H1363.81C1363.8 106.013 1363.65 106.444 1363.38 106.845C1363.11 107.241 1362.75 107.556 1362.29 107.788C1361.83 108.021 1361.33 108.137 1360.8 108.137C1359.77 108.137 1358.94 107.802 1358.34 107.132C1357.73 106.462 1357.43 105.537 1357.43 104.356V104.186C1357.43 103.06 1357.73 102.16 1358.33 101.485C1358.93 100.806 1359.75 100.467 1360.79 100.467C1361.67 100.467 1362.39 100.724 1362.94 101.239C1363.5 101.75 1363.79 102.422 1363.81 103.256H1362.25C1362.23 102.832 1362.08 102.483 1361.81 102.21C1361.54 101.937 1361.2 101.8 1360.78 101.8C1360.24 101.8 1359.83 101.996 1359.54 102.388C1359.24 102.775 1359.1 103.365 1359.09 104.158V104.425C1359.09 105.227 1359.23 105.826 1359.52 106.223C1359.81 106.615 1360.23 106.811 1360.78 106.811ZM1367.15 98.8057V100.604H1368.46V101.834H1367.15V105.963C1367.15 106.245 1367.21 106.451 1367.31 106.578C1367.43 106.701 1367.63 106.763 1367.92 106.763C1368.11 106.763 1368.3 106.74 1368.5 106.694V107.979C1368.12 108.084 1367.75 108.137 1367.4 108.137C1366.13 108.137 1365.49 107.433 1365.49 106.024V101.834H1364.27V100.604H1365.49V98.8057H1367.15ZM1371.5 108H1369.84V100.604H1371.5V108ZM1369.73 98.6826C1369.73 98.4274 1369.81 98.2155 1369.97 98.0469C1370.14 97.8783 1370.37 97.7939 1370.67 97.7939C1370.97 97.7939 1371.2 97.8783 1371.37 98.0469C1371.53 98.2155 1371.61 98.4274 1371.61 98.6826C1371.61 98.9333 1371.53 99.1429 1371.37 99.3115C1371.2 99.4756 1370.97 99.5576 1370.67 99.5576C1370.37 99.5576 1370.14 99.4756 1369.97 99.3115C1369.81 99.1429 1369.73 98.9333 1369.73 98.6826ZM1373 104.233C1373 103.509 1373.15 102.857 1373.43 102.278C1373.72 101.695 1374.12 101.248 1374.64 100.938C1375.16 100.624 1375.76 100.467 1376.43 100.467C1377.43 100.467 1378.24 100.788 1378.86 101.431C1379.48 102.073 1379.82 102.925 1379.87 103.987L1379.88 104.377C1379.88 105.106 1379.74 105.758 1379.46 106.332C1379.18 106.906 1378.78 107.351 1378.25 107.665C1377.73 107.979 1377.13 108.137 1376.45 108.137C1375.4 108.137 1374.57 107.79 1373.94 107.098C1373.31 106.4 1373 105.473 1373 104.315V104.233ZM1374.66 104.377C1374.66 105.138 1374.82 105.735 1375.13 106.168C1375.45 106.596 1375.89 106.811 1376.45 106.811C1377.01 106.811 1377.44 106.592 1377.75 106.154C1378.07 105.717 1378.22 105.076 1378.22 104.233C1378.22 103.486 1378.06 102.894 1377.74 102.456C1377.42 102.019 1376.99 101.8 1376.43 101.8C1375.89 101.8 1375.46 102.016 1375.14 102.449C1374.82 102.878 1374.66 103.52 1374.66 104.377ZM1382.83 100.604L1382.87 101.458C1383.42 100.797 1384.14 100.467 1385.03 100.467C1386.57 100.467 1387.35 101.349 1387.38 103.112V108H1385.72V103.208C1385.72 102.739 1385.61 102.392 1385.41 102.169C1385.21 101.941 1384.88 101.827 1384.42 101.827C1383.75 101.827 1383.25 102.13 1382.92 102.736V108H1381.26V100.604H1382.83Z" fill="white" fill-opacity="0.94"/>
<path d="M1230 133C1230 131.343 1231.34 130 1233 130H1417C1418.66 130 1420 131.343 1420 133V157C1420 158.657 1418.66 160 1417 160H1233C1231.34 160 1230 158.657 1230 157V133Z" fill="white" fill-opacity="0.1"/>
<path d="M1294.21 150H1292.49V145.577H1288.04V150H1286.31V140.047H1288.04V144.189H1292.49V140.047H1294.21V150ZM1299.36 150.137C1298.31 150.137 1297.45 149.806 1296.79 149.146C1296.14 148.48 1295.82 147.596 1295.82 146.493V146.288C1295.82 145.55 1295.96 144.891 1296.24 144.312C1296.53 143.729 1296.93 143.276 1297.44 142.952C1297.96 142.629 1298.53 142.467 1299.17 142.467C1300.17 142.467 1300.95 142.788 1301.5 143.431C1302.05 144.073 1302.33 144.982 1302.33 146.158V146.828H1297.49C1297.54 147.439 1297.75 147.922 1298.1 148.277C1298.46 148.633 1298.91 148.811 1299.45 148.811C1300.22 148.811 1300.83 148.503 1301.31 147.888L1302.21 148.742C1301.91 149.184 1301.52 149.528 1301.02 149.774C1300.53 150.016 1299.97 150.137 1299.36 150.137ZM1299.16 143.8C1298.7 143.8 1298.34 143.959 1298.05 144.278C1297.77 144.597 1297.6 145.042 1297.52 145.611H1300.68V145.488C1300.65 144.932 1300.5 144.513 1300.24 144.23C1299.98 143.943 1299.62 143.8 1299.16 143.8ZM1308.04 150C1307.97 149.859 1307.9 149.629 1307.85 149.31C1307.32 149.861 1306.67 150.137 1305.91 150.137C1305.16 150.137 1304.56 149.925 1304.09 149.501C1303.62 149.077 1303.38 148.553 1303.38 147.929C1303.38 147.14 1303.68 146.536 1304.26 146.117C1304.85 145.693 1305.69 145.481 1306.78 145.481H1307.79V144.996C1307.79 144.613 1307.69 144.308 1307.47 144.08C1307.26 143.848 1306.93 143.731 1306.5 143.731C1306.12 143.731 1305.81 143.827 1305.57 144.019C1305.32 144.205 1305.2 144.445 1305.2 144.736H1303.54C1303.54 144.331 1303.68 143.952 1303.95 143.602C1304.21 143.246 1304.58 142.968 1305.04 142.768C1305.5 142.567 1306.02 142.467 1306.59 142.467C1307.46 142.467 1308.15 142.686 1308.66 143.123C1309.18 143.556 1309.44 144.167 1309.46 144.955V148.291C1309.46 148.956 1309.55 149.487 1309.74 149.884V150H1308.04ZM1306.21 148.804C1306.54 148.804 1306.85 148.724 1307.14 148.564C1307.43 148.405 1307.65 148.191 1307.79 147.922V146.527H1306.9C1306.28 146.527 1305.82 146.634 1305.51 146.849C1305.2 147.063 1305.05 147.366 1305.05 147.758C1305.05 148.077 1305.15 148.332 1305.36 148.523C1305.57 148.71 1305.86 148.804 1306.21 148.804ZM1312.96 150H1311.3V139.5H1312.96V150ZM1316.86 140.806V142.604H1318.16V143.834H1316.86V147.963C1316.86 148.245 1316.91 148.451 1317.02 148.578C1317.14 148.701 1317.34 148.763 1317.62 148.763C1317.82 148.763 1318.01 148.74 1318.21 148.694V149.979C1317.83 150.084 1317.46 150.137 1317.11 150.137C1315.84 150.137 1315.2 149.433 1315.2 148.024V143.834H1313.98V142.604H1315.2V140.806H1316.86ZM1321.08 143.41C1321.62 142.781 1322.3 142.467 1323.13 142.467C1324.71 142.467 1325.51 143.367 1325.53 145.167V150H1323.87V145.229C1323.87 144.718 1323.76 144.358 1323.54 144.148C1323.32 143.934 1322.99 143.827 1322.57 143.827C1321.9 143.827 1321.4 144.123 1321.08 144.716V150H1319.42V139.5H1321.08V143.41ZM1334.52 146.165H1332.59V150H1330.87V140.047H1334.37C1335.51 140.047 1336.4 140.304 1337.02 140.819C1337.65 141.334 1337.96 142.079 1337.96 143.055C1337.96 143.72 1337.8 144.278 1337.48 144.729C1337.16 145.176 1336.71 145.52 1336.14 145.762L1338.37 149.911V150H1336.52L1334.52 146.165ZM1332.59 144.777H1334.37C1334.96 144.777 1335.41 144.632 1335.74 144.34C1336.07 144.044 1336.23 143.64 1336.23 143.13C1336.23 142.597 1336.08 142.184 1335.77 141.893C1335.47 141.601 1335.02 141.451 1334.42 141.441H1332.59V144.777ZM1343.92 149.275C1343.43 149.85 1342.74 150.137 1341.84 150.137C1341.04 150.137 1340.43 149.902 1340.02 149.433C1339.61 148.963 1339.4 148.284 1339.4 147.396V142.604H1341.06V147.375C1341.06 148.314 1341.45 148.783 1342.23 148.783C1343.04 148.783 1343.58 148.494 1343.87 147.915V142.604H1345.53V150H1343.96L1343.92 149.275ZM1348.99 150H1347.33V139.5H1348.99V150ZM1354.06 150.137C1353.01 150.137 1352.15 149.806 1351.5 149.146C1350.84 148.48 1350.52 147.596 1350.52 146.493V146.288C1350.52 145.55 1350.66 144.891 1350.94 144.312C1351.23 143.729 1351.63 143.276 1352.15 142.952C1352.66 142.629 1353.23 142.467 1353.87 142.467C1354.88 142.467 1355.65 142.788 1356.2 143.431C1356.75 144.073 1357.03 144.982 1357.03 146.158V146.828H1352.19C1352.24 147.439 1352.45 147.922 1352.8 148.277C1353.16 148.633 1353.61 148.811 1354.16 148.811C1354.92 148.811 1355.54 148.503 1356.01 147.888L1356.91 148.742C1356.61 149.184 1356.22 149.528 1355.72 149.774C1355.23 150.016 1354.67 150.137 1354.06 150.137ZM1353.86 143.8C1353.41 143.8 1353.04 143.959 1352.75 144.278C1352.48 144.597 1352.3 145.042 1352.22 145.611H1355.39V145.488C1355.35 144.932 1355.2 144.513 1354.94 144.23C1354.68 143.943 1354.32 143.8 1353.86 143.8ZM1362.47 147.99C1362.47 147.694 1362.34 147.468 1362.1 147.313C1361.86 147.159 1361.45 147.022 1360.89 146.903C1360.32 146.785 1359.85 146.634 1359.47 146.452C1358.64 146.051 1358.23 145.47 1358.23 144.709C1358.23 144.071 1358.5 143.538 1359.04 143.109C1359.57 142.681 1360.26 142.467 1361.09 142.467C1361.97 142.467 1362.68 142.686 1363.23 143.123C1363.77 143.561 1364.05 144.128 1364.05 144.825H1362.39C1362.39 144.506 1362.27 144.242 1362.03 144.032C1361.79 143.818 1361.48 143.711 1361.09 143.711C1360.72 143.711 1360.42 143.795 1360.19 143.964C1359.96 144.132 1359.85 144.358 1359.85 144.641C1359.85 144.896 1359.96 145.094 1360.17 145.235C1360.39 145.377 1360.82 145.52 1361.47 145.666C1362.12 145.807 1362.63 145.978 1363 146.179C1363.37 146.375 1363.65 146.612 1363.83 146.89C1364.01 147.168 1364.1 147.505 1364.1 147.901C1364.1 148.567 1363.83 149.107 1363.27 149.521C1362.72 149.932 1362 150.137 1361.11 150.137C1360.5 150.137 1359.96 150.027 1359.49 149.809C1359.01 149.59 1358.64 149.289 1358.38 148.906C1358.12 148.523 1357.98 148.111 1357.98 147.669H1359.6C1359.62 148.061 1359.77 148.364 1360.04 148.578C1360.31 148.788 1360.68 148.893 1361.13 148.893C1361.57 148.893 1361.9 148.811 1362.13 148.646C1362.35 148.478 1362.47 148.259 1362.47 147.99Z" fill="white" fill-opacity="0.94"/>
<rect width="230" height="1080" transform="translate(48 50)" fill="#262939"/>
<path d="M71.6685 69.9868H70.1538V73H68.7949V65.1797H71.5449C72.4473 65.1797 73.1437 65.382 73.6343 65.7866C74.1248 66.1912 74.3701 66.7767 74.3701 67.543C74.3701 68.0658 74.243 68.5044 73.9888 68.8589C73.7381 69.2098 73.3872 69.4801 72.936 69.6699L74.6924 72.9302V73H73.2368L71.6685 69.9868ZM70.1538 68.8965H71.5503C72.0086 68.8965 72.3667 68.7819 72.6245 68.5527C72.8823 68.32 73.0112 68.0031 73.0112 67.6021C73.0112 67.1831 72.8913 66.859 72.6514 66.6299C72.415 66.4007 72.0605 66.2826 71.5879 66.2754H70.1538V68.8965ZM80.23 69.5088H77.0181V71.915H80.7725V73H75.6592V65.1797H80.7349V66.2754H77.0181V68.4346H80.23V69.5088ZM83.2378 71.915H86.7881V73H81.8789V65.1797H83.2378V71.915ZM92.3149 71.1792H89.2856L88.6519 73H87.2393L90.1934 65.1797H91.4126L94.3721 73H92.9541L92.3149 71.1792ZM89.667 70.0835H91.9336L90.8003 66.8394L89.667 70.0835ZM100.27 66.2754H97.8311V73H96.4829V66.2754H94.0659V65.1797H100.27V66.2754ZM102.735 73H101.381V65.1797H102.735V73ZM110.646 69.2939C110.646 70.0602 110.514 70.7334 110.249 71.3135C109.984 71.89 109.604 72.334 109.11 72.6455C108.62 72.9535 108.054 73.1074 107.413 73.1074C106.779 73.1074 106.214 72.9535 105.716 72.6455C105.222 72.334 104.839 71.8918 104.566 71.3188C104.298 70.7459 104.162 70.0853 104.158 69.3369V68.8965C104.158 68.1338 104.292 67.4606 104.561 66.877C104.833 66.2933 105.215 65.8475 105.705 65.5396C106.199 65.228 106.765 65.0723 107.402 65.0723C108.04 65.0723 108.604 65.2262 109.094 65.5342C109.588 65.8385 109.97 66.279 110.238 66.8555C110.507 67.4284 110.643 68.0962 110.646 68.8589V69.2939ZM109.288 68.8857C109.288 68.0192 109.123 67.355 108.793 66.8931C108.468 66.4312 108.004 66.2002 107.402 66.2002C106.815 66.2002 106.355 66.4312 106.022 66.8931C105.693 67.3514 105.524 68.0013 105.517 68.8428V69.2939C105.517 70.1533 105.684 70.8175 106.017 71.2866C106.353 71.7557 106.819 71.9902 107.413 71.9902C108.015 71.9902 108.477 71.7611 108.799 71.3027C109.125 70.8444 109.288 70.1748 109.288 69.2939V68.8857ZM118.204 73H116.845L113.359 67.4517V73H112V65.1797H113.359L116.855 70.7495V65.1797H118.204V73ZM123.897 70.9858C123.897 70.6421 123.775 70.3771 123.532 70.1909C123.292 70.0047 122.857 69.8167 122.227 69.627C121.596 69.4372 121.095 69.2259 120.723 68.9932C120.01 68.5456 119.654 67.9619 119.654 67.2422C119.654 66.612 119.91 66.0928 120.422 65.6846C120.938 65.2764 121.605 65.0723 122.425 65.0723C122.97 65.0723 123.455 65.1725 123.881 65.373C124.307 65.5736 124.642 65.86 124.885 66.2324C125.129 66.6012 125.25 67.0112 125.25 67.4624H123.897C123.897 67.0542 123.768 66.7355 123.51 66.5063C123.256 66.2736 122.891 66.1572 122.415 66.1572C121.971 66.1572 121.625 66.2521 121.378 66.4419C121.134 66.6317 121.013 66.8966 121.013 67.2368C121.013 67.5233 121.145 67.7632 121.41 67.9565C121.675 68.1463 122.112 68.3325 122.721 68.5151C123.329 68.6942 123.818 68.9001 124.187 69.1328C124.556 69.362 124.826 69.627 124.998 69.9277C125.17 70.2249 125.256 70.5741 125.256 70.9751C125.256 71.6268 125.005 72.146 124.504 72.5327C124.006 72.9159 123.329 73.1074 122.474 73.1074C121.908 73.1074 121.387 73.0036 120.911 72.7959C120.438 72.5846 120.069 72.2946 119.804 71.9258C119.543 71.557 119.412 71.1273 119.412 70.6367H120.771C120.771 71.0807 120.918 71.4245 121.211 71.668C121.505 71.9115 121.926 72.0332 122.474 72.0332C122.946 72.0332 123.301 71.9383 123.537 71.7485C123.777 71.5552 123.897 71.3009 123.897 70.9858ZM132.657 73H131.304V69.5249H127.807V73H126.448V65.1797H127.807V68.4346H131.304V65.1797H132.657V73ZM135.703 73H134.349V65.1797H135.703V73ZM138.732 70.0942V73H137.373V65.1797H140.365C141.238 65.1797 141.931 65.4071 142.443 65.8618C142.959 66.3166 143.217 66.9181 143.217 67.6665C143.217 68.4328 142.964 69.029 142.459 69.4551C141.958 69.8812 141.255 70.0942 140.349 70.0942H138.732ZM138.732 69.0039H140.365C140.848 69.0039 141.217 68.8911 141.471 68.6655C141.725 68.4364 141.853 68.1069 141.853 67.6772C141.853 67.2547 141.724 66.9181 141.466 66.6675C141.208 66.4132 140.854 66.2826 140.402 66.2754H138.732V69.0039ZM148.497 70.9858C148.497 70.6421 148.375 70.3771 148.131 70.1909C147.891 70.0047 147.456 69.8167 146.826 69.627C146.196 69.4372 145.695 69.2259 145.322 68.9932C144.61 68.5456 144.253 67.9619 144.253 67.2422C144.253 66.612 144.509 66.0928 145.021 65.6846C145.537 65.2764 146.205 65.0723 147.025 65.0723C147.569 65.0723 148.054 65.1725 148.48 65.373C148.907 65.5736 149.241 65.86 149.485 66.2324C149.728 66.6012 149.85 67.0112 149.85 67.4624H148.497C148.497 67.0542 148.368 66.7355 148.11 66.5063C147.856 66.2736 147.49 66.1572 147.014 66.1572C146.57 66.1572 146.225 66.2521 145.978 66.4419C145.734 66.6317 145.612 66.8966 145.612 67.2368C145.612 67.5233 145.745 67.7632 146.01 67.9565C146.275 68.1463 146.712 68.3325 147.32 68.5151C147.929 68.6942 148.418 68.9001 148.787 69.1328C149.155 69.362 149.426 69.627 149.598 69.9277C149.77 70.2249 149.855 70.5741 149.855 70.9751C149.855 71.6268 149.605 72.146 149.104 72.5327C148.606 72.9159 147.929 73.1074 147.073 73.1074C146.507 73.1074 145.986 73.0036 145.51 72.7959C145.038 72.5846 144.669 72.2946 144.404 71.9258C144.142 71.557 144.012 71.1273 144.012 70.6367H145.371C145.371 71.0807 145.517 71.4245 145.811 71.668C146.105 71.9115 146.525 72.0332 147.073 72.0332C147.546 72.0332 147.9 71.9383 148.137 71.7485C148.377 71.5552 148.497 71.3009 148.497 70.9858Z" fill="white" fill-opacity="0.64"/>
<path d="M257.081 67.3714C256.801 67.6409 256.801 68.0779 257.081 68.3475L260.385 71.5237C260.666 71.7941 261.122 71.7941 261.403 71.5237L264.706 68.3475C264.987 68.0779 264.987 67.6409 264.706 67.3714C264.426 67.1017 263.971 67.1015 263.69 67.3708L260.894 70.054L258.097 67.3708C257.816 67.1015 257.362 67.1017 257.081 67.3714Z" fill="white" fill-opacity="0.64"/>
</g>
<defs>
<clipPath id="clip0_890_28386">
<rect width="1440" height="1024" fill="white"/>
</clipPath>
</defs>
</svg>
