<svg width="24" height="24" viewBox="0 0 24 24" fill="none" xmlns="http://www.w3.org/2000/svg">
<path fill-rule="evenodd" clip-rule="evenodd" d="M13.5 7.5C13.5 8.325 12.825 9 12 9C11.175 9 10.5 8.325 10.5 7.5C10.5 6.675 11.175 6 12 6C12.825 6 13.5 6.675 13.5 7.5ZM13.5 16.5C13.5 17.325 12.825 18 12 18C11.175 18 10.5 17.325 10.5 16.5C10.5 15.675 11.175 15 12 15C12.825 15 13.5 15.675 13.5 16.5ZM12 13.5C12.825 13.5 13.5 12.825 13.5 12C13.5 11.175 12.825 10.5 12 10.5C11.175 10.5 10.5 11.175 10.5 12C10.5 12.825 11.175 13.5 12 13.5Z" fill="white" fill-opacity="0.64"/>
</svg>
