<svg width="286" height="30" viewBox="0 0 286 30" fill="none" xmlns="http://www.w3.org/2000/svg">
<path fill-rule="evenodd" clip-rule="evenodd" d="M20.4467 18.7743L23.0767 21.3752C23.4897 21.7836 23.4897 22.4462 23.0767 22.8546C22.6627 23.2631 21.9937 23.2631 21.5797 22.8546L18.7687 20.0737L16.9987 18.3233L16.2667 17.6004C14.7207 18.6971 12.7057 19.1787 10.5547 18.529C8.33072 17.8555 6.59672 15.9884 6.13672 13.7337C5.20072 9.143 9.21172 5.17636 13.8537 6.10201C16.1337 6.55692 18.0217 8.27174 18.7027 10.4711C19.3597 12.5983 18.8727 14.592 17.7627 16.12L18.4997 16.8449L20.4467 18.7743ZM12.4997 7.94441C10.0097 7.94441 7.99972 9.93217 7.99972 12.3946C7.99972 14.8571 10.0097 16.8449 12.4997 16.8449C14.9897 16.8449 16.9997 14.8571 16.9997 12.3946C16.9997 9.93217 14.9897 7.94441 12.4997 7.94441Z" fill="white" fill-opacity="0.94"/>
<path d="M63.6328 13.7091C63.2464 13.322 62.6159 13.318 62.2234 13.7012L60.9244 14.9714C60.9248 14.9418 60.9291 14.913 60.9292 14.8834C60.9432 12.5153 60.0238 10.2832 58.3395 8.59976C56.6562 6.91535 54.4101 5.98055 52.0165 5.9668C49.5881 5.9668 47.3529 6.87497 45.6626 8.52787C43.9594 10.1926 43.0141 12.4129 43.0002 14.7809C42.9862 17.149 43.9056 19.3811 45.5899 21.0645C47.2733 22.7489 49.5194 23.6837 51.9129 23.6975C54.3413 23.6975 56.5764 22.7893 58.2667 21.1365L56.8664 19.7356C55.5525 21.0212 53.8124 21.7275 51.9657 21.7275C50.0622 21.7166 48.3161 20.9896 47.0053 19.6795C45.6965 18.3695 44.9814 16.6348 44.9923 14.7928C45.0033 12.9507 45.7384 11.2229 47.0631 9.92859C48.3769 8.64309 50.117 7.93682 51.9637 7.93682C53.8672 7.94769 55.6133 8.67466 56.9231 9.98478C58.2329 11.2948 58.9481 13.0295 58.9372 14.8715C58.937 14.8988 58.9332 14.9254 58.9327 14.9526L57.6565 13.6756C57.2701 13.2885 56.6395 13.2845 56.2471 13.6677C55.8566 14.0499 55.8526 14.6734 56.2401 15.0606L56.512 15.3326L58.4732 17.2949L59.2104 18.0325C59.3966 18.2186 59.6486 18.324 59.9146 18.325C60.0282 18.325 60.1333 18.2973 60.2354 18.2631C60.2912 18.2444 60.3403 18.2171 60.392 18.1889C60.4715 18.1455 60.5531 18.1045 60.6188 18.0403L63.6249 15.1019C64.0154 14.7197 64.0193 14.0962 63.6328 13.7091Z" fill="white" fill-opacity="0.94"/>
<path fill-rule="evenodd" clip-rule="evenodd" d="M103.991 5C109.514 5.00402 113.991 9.47735 114 15C113.991 20.5227 109.514 24.996 103.991 25C98.4735 24.9919 94.004 20.5191 94 15.0018C94.002 9.48309 98.4721 5.00807 103.991 5ZM104.023 22.7524C108.289 22.7481 111.746 19.2906 111.751 15.0242C111.745 10.7585 108.288 7.30222 104.023 7.29788C99.7582 7.30222 96.3014 10.7585 96.296 15.0242C96.3003 19.2906 99.7574 22.7481 104.023 22.7524ZM107.994 19.1473L109.116 17.3104L105.077 14.9141V10.2093H102.876V16.0766L107.994 19.1473Z" fill="#F8F9FA"/>
<path d="M122.998 18.6191H127.517V20H121.269V10.0469H122.998V18.6191ZM133.102 20C133.029 19.8587 132.965 19.6286 132.91 19.3096C132.382 19.861 131.734 20.1367 130.969 20.1367C130.226 20.1367 129.62 19.9248 129.15 19.501C128.681 19.0771 128.446 18.5531 128.446 17.9287C128.446 17.1403 128.738 16.5365 129.321 16.1172C129.909 15.6934 130.748 15.4814 131.837 15.4814H132.855V14.9961C132.855 14.6133 132.748 14.3079 132.534 14.0801C132.32 13.8477 131.994 13.7314 131.557 13.7314C131.178 13.7314 130.868 13.8271 130.627 14.0186C130.385 14.2054 130.265 14.4447 130.265 14.7363H128.604C128.604 14.3307 128.738 13.9525 129.007 13.6016C129.276 13.2461 129.64 12.9681 130.101 12.7676C130.565 12.5671 131.083 12.4668 131.652 12.4668C132.518 12.4668 133.209 12.6855 133.724 13.123C134.239 13.556 134.503 14.1667 134.517 14.9551V18.291C134.517 18.9564 134.61 19.4873 134.797 19.8838V20H133.102ZM131.276 18.8037C131.604 18.8037 131.912 18.724 132.199 18.5645C132.491 18.4049 132.71 18.1908 132.855 17.9219V16.5273H131.96C131.345 16.5273 130.882 16.6344 130.572 16.8486C130.262 17.0628 130.107 17.3659 130.107 17.7578C130.107 18.0768 130.212 18.332 130.422 18.5234C130.636 18.7103 130.921 18.8037 131.276 18.8037ZM140.402 17.9902C140.402 17.694 140.279 17.4684 140.033 17.3135C139.792 17.1585 139.388 17.0218 138.823 16.9033C138.258 16.7848 137.786 16.6344 137.408 16.4521C136.579 16.0511 136.164 15.4701 136.164 14.709C136.164 14.071 136.433 13.5378 136.971 13.1094C137.508 12.681 138.192 12.4668 139.021 12.4668C139.906 12.4668 140.619 12.6855 141.161 13.123C141.708 13.5605 141.981 14.1279 141.981 14.8252H140.32C140.32 14.5062 140.202 14.2419 139.965 14.0322C139.728 13.818 139.413 13.7109 139.021 13.7109C138.657 13.7109 138.358 13.7952 138.126 13.9639C137.898 14.1325 137.784 14.3581 137.784 14.6406C137.784 14.8958 137.891 15.0941 138.105 15.2354C138.32 15.3766 138.753 15.5202 139.404 15.666C140.056 15.8073 140.566 15.9782 140.936 16.1787C141.309 16.3747 141.585 16.6117 141.763 16.8896C141.945 17.1676 142.036 17.5049 142.036 17.9014C142.036 18.5667 141.76 19.1068 141.209 19.5215C140.658 19.9316 139.935 20.1367 139.042 20.1367C138.436 20.1367 137.896 20.0273 137.422 19.8086C136.948 19.5898 136.579 19.2891 136.314 18.9062C136.05 18.5234 135.918 18.111 135.918 17.6689H137.531C137.554 18.0609 137.702 18.3639 137.976 18.5781C138.249 18.7878 138.611 18.8926 139.062 18.8926C139.5 18.8926 139.833 18.8105 140.061 18.6465C140.288 18.4779 140.402 18.2591 140.402 17.9902ZM145.57 10.8057V12.6035H146.876V13.834H145.57V17.9629C145.57 18.2454 145.625 18.4505 145.734 18.5781C145.848 18.7012 146.049 18.7627 146.336 18.7627C146.527 18.7627 146.721 18.7399 146.917 18.6943V19.9795C146.539 20.0843 146.174 20.1367 145.823 20.1367C144.547 20.1367 143.909 19.4326 143.909 18.0244V13.834H142.692V12.6035H143.909V10.8057H145.57ZM153.452 14.2646H154.464C154.974 14.2601 155.378 14.1279 155.674 13.8682C155.975 13.6084 156.125 13.2324 156.125 12.7402C156.125 12.2663 156 11.8994 155.749 11.6396C155.503 11.3753 155.125 11.2432 154.614 11.2432C154.168 11.2432 153.801 11.373 153.514 11.6328C153.227 11.888 153.083 12.223 153.083 12.6377H151.422C151.422 12.1273 151.556 11.6624 151.825 11.2432C152.099 10.8239 152.477 10.498 152.96 10.2656C153.448 10.0286 153.992 9.91016 154.594 9.91016C155.587 9.91016 156.367 10.1608 156.932 10.6621C157.501 11.1589 157.786 11.8516 157.786 12.7402C157.786 13.1868 157.643 13.6084 157.355 14.0049C157.073 14.3968 156.706 14.693 156.255 14.8936C156.802 15.0804 157.216 15.3743 157.499 15.7754C157.786 16.1764 157.93 16.6549 157.93 17.2109C157.93 18.1042 157.622 18.8151 157.007 19.3438C156.396 19.8724 155.592 20.1367 154.594 20.1367C153.637 20.1367 152.853 19.8815 152.242 19.3711C151.632 18.8607 151.326 18.1816 151.326 17.334H152.987C152.987 17.7715 153.133 18.127 153.425 18.4004C153.721 18.6738 154.118 18.8105 154.614 18.8105C155.129 18.8105 155.535 18.6738 155.831 18.4004C156.127 18.127 156.275 17.7305 156.275 17.2109C156.275 16.6868 156.12 16.2835 155.811 16.001C155.501 15.7184 155.04 15.5771 154.43 15.5771H153.452V14.2646ZM165.976 15.8096C165.976 17.2406 165.707 18.3206 165.169 19.0498C164.636 19.7744 163.822 20.1367 162.729 20.1367C161.653 20.1367 160.842 19.7835 160.295 19.0771C159.753 18.3662 159.475 17.3158 159.461 15.9258V14.2031C159.461 12.7721 159.728 11.6989 160.261 10.9834C160.799 10.2679 161.617 9.91016 162.715 9.91016C163.804 9.91016 164.615 10.2588 165.148 10.9561C165.686 11.6533 165.962 12.6969 165.976 14.0869V15.8096ZM164.314 13.9502C164.314 13.016 164.187 12.3324 163.932 11.8994C163.676 11.4619 163.271 11.2432 162.715 11.2432C162.173 11.2432 161.774 11.4505 161.519 11.8652C161.263 12.2754 161.129 12.918 161.115 13.793V16.0488C161.115 16.9785 161.245 17.6712 161.505 18.127C161.765 18.5827 162.173 18.8105 162.729 18.8105C163.262 18.8105 163.656 18.6009 163.911 18.1816C164.166 17.7578 164.301 17.097 164.314 16.1992V13.9502ZM172.6 12.6035L172.647 13.376C173.167 12.7699 173.878 12.4668 174.78 12.4668C175.769 12.4668 176.446 12.8451 176.811 13.6016C177.348 12.8451 178.105 12.4668 179.08 12.4668C179.896 12.4668 180.502 12.6924 180.898 13.1436C181.299 13.5947 181.505 14.2601 181.514 15.1396V20H179.853V15.1875C179.853 14.7181 179.75 14.374 179.545 14.1553C179.34 13.9365 179 13.8271 178.526 13.8271C178.148 13.8271 177.838 13.9297 177.597 14.1348C177.36 14.3353 177.193 14.5996 177.098 14.9277L177.104 20H175.443V15.1328C175.421 14.2624 174.976 13.8271 174.11 13.8271C173.445 13.8271 172.973 14.0983 172.695 14.6406V20H171.034V12.6035H172.6ZM184.986 20H183.325V12.6035H184.986V20ZM183.223 10.6826C183.223 10.4274 183.302 10.2155 183.462 10.0469C183.626 9.87826 183.858 9.79395 184.159 9.79395C184.46 9.79395 184.692 9.87826 184.856 10.0469C185.021 10.2155 185.103 10.4274 185.103 10.6826C185.103 10.9333 185.021 11.1429 184.856 11.3115C184.692 11.4756 184.46 11.5576 184.159 11.5576C183.858 11.5576 183.626 11.4756 183.462 11.3115C183.302 11.1429 183.223 10.9333 183.223 10.6826ZM188.343 12.6035L188.391 13.458C188.938 12.7972 189.655 12.4668 190.544 12.4668C192.084 12.4668 192.868 13.3486 192.896 15.1123V20H191.234V15.208C191.234 14.7386 191.132 14.3923 190.927 14.1689C190.726 13.9411 190.396 13.8271 189.936 13.8271C189.266 13.8271 188.767 14.1302 188.438 14.7363V20H186.777V12.6035H188.343Z" fill="white" fill-opacity="0.94"/>
<path fill-rule="evenodd" clip-rule="evenodd" d="M223 15C223 9.48 227.48 5 233 5C238.52 5 243 9.48 243 15C243 20.52 238.52 25 233 25C227.48 25 223 20.52 223 15ZM234 19V21H232V19H234ZM233 23C228.59 23 225 19.41 225 15C225 10.59 228.59 7.00002 233 7.00002C237.41 7.00002 241 10.59 241 15C241 19.41 237.41 23 233 23ZM229 13C229 10.79 230.79 9 233 9C235.21 9 237 10.79 237 13C237 14.2829 236.21 14.9733 235.441 15.6455C234.711 16.2833 234 16.9046 234 18H232C232 16.1787 232.942 15.4566 233.77 14.8217C234.42 14.3236 235 13.8792 235 13C235 11.9 234.1 11 233 11C231.9 11 231 11.9 231 13H229Z" fill="white" fill-opacity="0.94"/>
<path fill-rule="evenodd" clip-rule="evenodd" d="M276 11.5C276 14.2613 273.761 16.5 271 16.5C268.239 16.5 266 14.2613 266 11.5C266 8.73872 268.239 6.5 271 6.5C273.761 6.5 276 8.73872 276 11.5ZM274 11.5C274 9.84328 272.657 8.5 271 8.5C269.343 8.5 268 9.84328 268 11.5C268 13.1567 269.343 14.5 271 14.5C272.657 14.5 274 13.1567 274 11.5ZM279 22.5C279 20.2894 277.144 18.5 274.889 18.5H267.111C264.856 18.5 263 20.2894 263 22.5H265C265 21.4106 265.944 20.5 267.111 20.5H274.889C276.056 20.5 277 21.4106 277 22.5H279Z" fill="white" fill-opacity="0.94"/>
</svg>
