<svg width="483" height="27" viewBox="0 0 483 27" fill="none" xmlns="http://www.w3.org/2000/svg">
<circle cx="13" cy="13.5" r="5" fill="#7EE7A8"/>
<path d="M32.918 17H31.8813L27.9443 10.9736V17H26.9077V9.17969H27.9443L31.8921 15.2329V9.17969H32.918V17ZM34.3306 14.0405C34.3306 13.4712 34.4416 12.9591 34.6636 12.5044C34.8892 12.0496 35.2007 11.6987 35.5981 11.4517C35.9992 11.2046 36.4557 11.0811 36.9678 11.0811C37.7591 11.0811 38.3983 11.355 38.8853 11.9028C39.3758 12.4507 39.6211 13.1794 39.6211 14.0889V14.1587C39.6211 14.7244 39.5119 15.2329 39.2935 15.6841C39.0786 16.1317 38.7689 16.4808 38.3643 16.7314C37.9632 16.9821 37.5013 17.1074 36.9785 17.1074C36.1908 17.1074 35.5516 16.8335 35.061 16.2856C34.5741 15.7378 34.3306 15.0127 34.3306 14.1104V14.0405ZM35.3296 14.1587C35.3296 14.8032 35.4782 15.3206 35.7754 15.7109C36.0762 16.1012 36.4772 16.2964 36.9785 16.2964C37.4834 16.2964 37.8844 16.0994 38.1816 15.7056C38.4788 15.3081 38.6274 14.7531 38.6274 14.0405C38.6274 13.4032 38.4753 12.8875 38.1709 12.4937C37.8701 12.0962 37.4691 11.8975 36.9678 11.8975C36.4772 11.8975 36.0815 12.0926 35.7808 12.4829C35.48 12.8732 35.3296 13.4318 35.3296 14.1587ZM43.6763 12.0801C43.5259 12.055 43.363 12.0425 43.1875 12.0425C42.5358 12.0425 42.0936 12.32 41.8608 12.875V17H40.8672V11.1885H41.834L41.8501 11.8599C42.1759 11.3407 42.6379 11.0811 43.2358 11.0811C43.4292 11.0811 43.576 11.1061 43.6763 11.1562V12.0801ZM45.5293 11.1885L45.5562 11.833C45.9823 11.3317 46.557 11.0811 47.2803 11.0811C48.0931 11.0811 48.6463 11.3926 48.9399 12.0156C49.1333 11.7363 49.384 11.5107 49.6919 11.3389C50.0034 11.167 50.3704 11.0811 50.793 11.0811C52.0677 11.0811 52.7158 11.756 52.7373 13.106V17H51.7437V13.165C51.7437 12.7497 51.6488 12.4399 51.459 12.2358C51.2692 12.0282 50.9505 11.9243 50.5029 11.9243C50.1341 11.9243 49.828 12.0353 49.5845 12.2573C49.341 12.4757 49.1995 12.7712 49.1602 13.1436V17H48.1611V13.1919C48.1611 12.3468 47.7476 11.9243 46.9204 11.9243C46.2687 11.9243 45.8229 12.2018 45.583 12.7568V17H44.5894V11.1885H45.5293ZM57.8291 17C57.7718 16.8854 57.7253 16.6813 57.6895 16.3877C57.2275 16.8675 56.6761 17.1074 56.0352 17.1074C55.4622 17.1074 54.9914 16.9463 54.6226 16.624C54.2573 16.2982 54.0747 15.8864 54.0747 15.3887C54.0747 14.7835 54.3039 14.3145 54.7622 13.9814C55.2241 13.6449 55.8722 13.4766 56.7065 13.4766H57.6733V13.02C57.6733 12.6727 57.5695 12.397 57.3618 12.1929C57.1541 11.9852 56.848 11.8813 56.4434 11.8813C56.0889 11.8813 55.7917 11.9709 55.5518 12.1499C55.3118 12.3289 55.1919 12.5456 55.1919 12.7998H54.1929C54.1929 12.5098 54.2949 12.2305 54.499 11.9619C54.7067 11.6898 54.986 11.4749 55.3369 11.3174C55.6914 11.1598 56.0799 11.0811 56.5024 11.0811C57.172 11.0811 57.6966 11.2493 58.0762 11.5859C58.4557 11.9189 58.6527 12.3791 58.667 12.9663V15.6411C58.667 16.1746 58.735 16.599 58.8711 16.9141V17H57.8291ZM56.1802 16.2427C56.4917 16.2427 56.7871 16.1621 57.0664 16.001C57.3457 15.8398 57.548 15.6304 57.6733 15.3726V14.1802H56.8945C55.6771 14.1802 55.0684 14.5365 55.0684 15.249C55.0684 15.5605 55.1722 15.804 55.3799 15.9795C55.5876 16.1549 55.8543 16.2427 56.1802 16.2427ZM61.3042 17H60.3105V8.75H61.3042V17Z" fill="white" fill-opacity="0.64"/>
<circle cx="92" cy="13.5" r="5" fill="#ED5A5F"/>
<path d="M111.66 14.5186C111.563 15.3457 111.257 15.9849 110.742 16.436C110.23 16.8836 109.548 17.1074 108.695 17.1074C107.771 17.1074 107.03 16.7762 106.472 16.1138C105.917 15.4513 105.639 14.5651 105.639 13.4551V12.7031C105.639 11.9762 105.768 11.3371 106.026 10.7856C106.287 10.2342 106.656 9.81169 107.132 9.51807C107.609 9.22087 108.16 9.07227 108.787 9.07227C109.617 9.07227 110.283 9.30501 110.785 9.77051C111.286 10.2324 111.578 10.8734 111.66 11.6934H110.624C110.534 11.0703 110.339 10.6191 110.038 10.3398C109.741 10.0605 109.324 9.9209 108.787 9.9209C108.128 9.9209 107.61 10.1644 107.234 10.6514C106.862 11.1383 106.676 11.8312 106.676 12.73V13.4873C106.676 14.3359 106.853 15.0109 107.208 15.5122C107.562 16.0135 108.058 16.2642 108.695 16.2642C109.268 16.2642 109.707 16.1353 110.011 15.8774C110.319 15.616 110.523 15.1631 110.624 14.5186H111.66ZM115.726 12.0801C115.576 12.055 115.413 12.0425 115.237 12.0425C114.586 12.0425 114.143 12.32 113.911 12.875V17H112.917V11.1885H113.884L113.9 11.8599C114.226 11.3407 114.688 11.0811 115.286 11.0811C115.479 11.0811 115.626 11.1061 115.726 11.1562V12.0801ZM117.724 17H116.73V11.1885H117.724V17ZM116.65 9.64697C116.65 9.48584 116.698 9.34977 116.795 9.23877C116.895 9.12777 117.042 9.07227 117.235 9.07227C117.429 9.07227 117.576 9.12777 117.676 9.23877C117.776 9.34977 117.826 9.48584 117.826 9.64697C117.826 9.80811 117.776 9.94238 117.676 10.0498C117.576 10.1572 117.429 10.2109 117.235 10.2109C117.042 10.2109 116.895 10.1572 116.795 10.0498C116.698 9.94238 116.65 9.80811 116.65 9.64697ZM120.667 9.78125V11.1885H121.752V11.9565H120.667V15.5605C120.667 15.7933 120.716 15.9688 120.812 16.0869C120.909 16.2015 121.074 16.2588 121.307 16.2588C121.421 16.2588 121.579 16.2373 121.779 16.1943V17C121.518 17.0716 121.264 17.1074 121.017 17.1074C120.573 17.1074 120.238 16.9731 120.012 16.7046C119.787 16.436 119.674 16.0547 119.674 15.5605V11.9565H118.616V11.1885H119.674V9.78125H120.667ZM123.998 17H123.004V11.1885H123.998V17ZM122.923 9.64697C122.923 9.48584 122.972 9.34977 123.068 9.23877C123.169 9.12777 123.315 9.07227 123.509 9.07227C123.702 9.07227 123.849 9.12777 123.949 9.23877C124.049 9.34977 124.1 9.48584 124.1 9.64697C124.1 9.80811 124.049 9.94238 123.949 10.0498C123.849 10.1572 123.702 10.2109 123.509 10.2109C123.315 10.2109 123.169 10.1572 123.068 10.0498C122.972 9.94238 122.923 9.80811 122.923 9.64697ZM127.924 16.2964C128.278 16.2964 128.588 16.189 128.853 15.9741C129.118 15.7593 129.265 15.4907 129.293 15.1685H130.233C130.215 15.5015 130.101 15.8184 129.89 16.1191C129.678 16.4199 129.396 16.6598 129.041 16.8389C128.69 17.0179 128.318 17.1074 127.924 17.1074C127.132 17.1074 126.502 16.8442 126.033 16.3179C125.568 15.7879 125.335 15.0646 125.335 14.1479V13.9814C125.335 13.4157 125.439 12.9126 125.646 12.4722C125.854 12.0317 126.151 11.6898 126.538 11.4463C126.928 11.2028 127.389 11.0811 127.918 11.0811C128.57 11.0811 129.111 11.2762 129.541 11.6665C129.974 12.0568 130.205 12.5635 130.233 13.1865H129.293C129.265 12.8105 129.122 12.5026 128.864 12.2627C128.61 12.0192 128.294 11.8975 127.918 11.8975C127.414 11.8975 127.021 12.0801 126.742 12.4453C126.466 12.807 126.329 13.3315 126.329 14.019V14.207C126.329 14.8766 126.466 15.3923 126.742 15.7539C127.018 16.1156 127.412 16.2964 127.924 16.2964ZM134.938 17C134.881 16.8854 134.835 16.6813 134.799 16.3877C134.337 16.8675 133.785 17.1074 133.145 17.1074C132.572 17.1074 132.101 16.9463 131.732 16.624C131.367 16.2982 131.184 15.8864 131.184 15.3887C131.184 14.7835 131.413 14.3145 131.872 13.9814C132.333 13.6449 132.982 13.4766 133.816 13.4766H134.783V13.02C134.783 12.6727 134.679 12.397 134.471 12.1929C134.264 11.9852 133.957 11.8813 133.553 11.8813C133.198 11.8813 132.901 11.9709 132.661 12.1499C132.421 12.3289 132.301 12.5456 132.301 12.7998H131.302C131.302 12.5098 131.404 12.2305 131.608 11.9619C131.816 11.6898 132.095 11.4749 132.446 11.3174C132.801 11.1598 133.189 11.0811 133.612 11.0811C134.281 11.0811 134.806 11.2493 135.186 11.5859C135.565 11.9189 135.762 12.3791 135.776 12.9663V15.6411C135.776 16.1746 135.844 16.599 135.98 16.9141V17H134.938ZM133.29 16.2427C133.601 16.2427 133.896 16.1621 134.176 16.001C134.455 15.8398 134.657 15.6304 134.783 15.3726V14.1802H134.004C132.786 14.1802 132.178 14.5365 132.178 15.249C132.178 15.5605 132.282 15.804 132.489 15.9795C132.697 16.1549 132.964 16.2427 133.29 16.2427ZM138.414 17H137.42V8.75H138.414V17Z" fill="white" fill-opacity="0.64"/>
<circle cx="169" cy="13.5" r="5" fill="#FFD666"/>
<path d="M184.594 14.5347L184.745 15.5659L184.965 14.6367L186.512 9.17969H187.382L188.891 14.6367L189.106 15.582L189.272 14.5293L190.486 9.17969H191.523L189.627 17H188.687L187.076 11.3013L186.952 10.7051L186.829 11.3013L185.158 17H184.218L182.328 9.17969H183.359L184.594 14.5347ZM195.922 17C195.865 16.8854 195.818 16.6813 195.782 16.3877C195.32 16.8675 194.769 17.1074 194.128 17.1074C193.555 17.1074 193.084 16.9463 192.715 16.624C192.35 16.2982 192.167 15.8864 192.167 15.3887C192.167 14.7835 192.397 14.3145 192.855 13.9814C193.317 13.6449 193.965 13.4766 194.799 13.4766H195.766V13.02C195.766 12.6727 195.662 12.397 195.455 12.1929C195.247 11.9852 194.941 11.8813 194.536 11.8813C194.182 11.8813 193.884 11.9709 193.645 12.1499C193.405 12.3289 193.285 12.5456 193.285 12.7998H192.286C192.286 12.5098 192.388 12.2305 192.592 11.9619C192.799 11.6898 193.079 11.4749 193.43 11.3174C193.784 11.1598 194.173 11.0811 194.595 11.0811C195.265 11.0811 195.789 11.2493 196.169 11.5859C196.549 11.9189 196.745 12.3791 196.76 12.9663V15.6411C196.76 16.1746 196.828 16.599 196.964 16.9141V17H195.922ZM194.273 16.2427C194.584 16.2427 194.88 16.1621 195.159 16.001C195.438 15.8398 195.641 15.6304 195.766 15.3726V14.1802H194.987C193.77 14.1802 193.161 14.5365 193.161 15.249C193.161 15.5605 193.265 15.804 193.473 15.9795C193.68 16.1549 193.947 16.2427 194.273 16.2427ZM201.126 12.0801C200.976 12.055 200.813 12.0425 200.638 12.0425C199.986 12.0425 199.544 12.32 199.311 12.875V17H198.317V11.1885H199.284L199.3 11.8599C199.626 11.3407 200.088 11.0811 200.686 11.0811C200.879 11.0811 201.026 11.1061 201.126 11.1562V12.0801ZM202.985 11.1885L203.017 11.9189C203.461 11.3604 204.041 11.0811 204.757 11.0811C205.986 11.0811 206.605 11.7739 206.616 13.1597V17H205.622V13.1543C205.618 12.7354 205.522 12.4256 205.332 12.2251C205.146 12.0246 204.854 11.9243 204.457 11.9243C204.134 11.9243 203.851 12.0103 203.608 12.1821C203.364 12.354 203.175 12.5796 203.039 12.8589V17H202.045V11.1885H202.985ZM209.194 17H208.2V11.1885H209.194V17ZM208.12 9.64697C208.12 9.48584 208.168 9.34977 208.265 9.23877C208.365 9.12777 208.512 9.07227 208.705 9.07227C208.898 9.07227 209.045 9.12777 209.146 9.23877C209.246 9.34977 209.296 9.48584 209.296 9.64697C209.296 9.80811 209.246 9.94238 209.146 10.0498C209.045 10.1572 208.898 10.2109 208.705 10.2109C208.512 10.2109 208.365 10.1572 208.265 10.0498C208.168 9.94238 208.12 9.80811 208.12 9.64697ZM211.729 11.1885L211.761 11.9189C212.205 11.3604 212.785 11.0811 213.501 11.0811C214.73 11.0811 215.349 11.7739 215.36 13.1597V17H214.366V13.1543C214.363 12.7354 214.266 12.4256 214.076 12.2251C213.89 12.0246 213.598 11.9243 213.201 11.9243C212.878 11.9243 212.596 12.0103 212.352 12.1821C212.109 12.354 211.919 12.5796 211.783 12.8589V17H210.789V11.1885H211.729ZM216.622 14.0459C216.622 13.14 216.832 12.4202 217.25 11.8867C217.669 11.3496 218.224 11.0811 218.916 11.0811C219.625 11.0811 220.178 11.3317 220.575 11.833L220.624 11.1885H221.531V16.8604C221.531 17.6123 221.307 18.2049 220.86 18.6382C220.416 19.0715 219.818 19.2881 219.066 19.2881C218.647 19.2881 218.237 19.1986 217.836 19.0195C217.435 18.8405 217.129 18.5952 216.917 18.2837L217.433 17.6875C217.859 18.2139 218.38 18.4771 218.996 18.4771C219.479 18.4771 219.855 18.341 220.124 18.0688C220.396 17.7967 220.532 17.4136 220.532 16.9194V16.4199C220.135 16.8783 219.592 17.1074 218.905 17.1074C218.224 17.1074 217.673 16.8335 217.25 16.2856C216.832 15.7378 216.622 14.9912 216.622 14.0459ZM217.621 14.1587C217.621 14.814 217.755 15.3296 218.024 15.7056C218.292 16.078 218.668 16.2642 219.152 16.2642C219.778 16.2642 220.239 15.9795 220.532 15.4102V12.7568C220.228 12.2018 219.771 11.9243 219.163 11.9243C218.679 11.9243 218.301 12.1123 218.029 12.4883C217.757 12.8643 217.621 13.4211 217.621 14.1587Z" fill="white" fill-opacity="0.64"/>
<circle cx="252" cy="13.5" r="5" fill="#64A1FF"/>
<path d="M270.226 14.959H266.95L266.214 17H265.15L268.137 9.17969H269.039L272.031 17H270.973L270.226 14.959ZM267.261 14.1104H269.92L268.588 10.4526L267.261 14.1104ZM275.259 16.2964C275.613 16.2964 275.923 16.189 276.188 15.9741C276.453 15.7593 276.6 15.4907 276.628 15.1685H277.568C277.55 15.5015 277.436 15.8184 277.225 16.1191C277.013 16.4199 276.73 16.6598 276.376 16.8389C276.025 17.0179 275.653 17.1074 275.259 17.1074C274.467 17.1074 273.837 16.8442 273.368 16.3179C272.903 15.7879 272.67 15.0646 272.67 14.1479V13.9814C272.67 13.4157 272.774 12.9126 272.981 12.4722C273.189 12.0317 273.486 11.6898 273.873 11.4463C274.263 11.2028 274.723 11.0811 275.253 11.0811C275.905 11.0811 276.446 11.2762 276.875 11.6665C277.309 12.0568 277.54 12.5635 277.568 13.1865H276.628C276.6 12.8105 276.457 12.5026 276.199 12.2627C275.944 12.0192 275.629 11.8975 275.253 11.8975C274.749 11.8975 274.356 12.0801 274.077 12.4453C273.801 12.807 273.664 13.3315 273.664 14.019V14.207C273.664 14.8766 273.801 15.3923 274.077 15.7539C274.353 16.1156 274.747 16.2964 275.259 16.2964ZM280.034 9.78125V11.1885H281.119V11.9565H280.034V15.5605C280.034 15.7933 280.082 15.9688 280.179 16.0869C280.275 16.2015 280.44 16.2588 280.673 16.2588C280.787 16.2588 280.945 16.2373 281.146 16.1943V17C280.884 17.0716 280.63 17.1074 280.383 17.1074C279.939 17.1074 279.604 16.9731 279.378 16.7046C279.153 16.436 279.04 16.0547 279.04 15.5605V11.9565H277.982V11.1885H279.04V9.78125H280.034ZM283.364 17H282.37V11.1885H283.364V17ZM282.29 9.64697C282.29 9.48584 282.338 9.34977 282.435 9.23877C282.535 9.12777 282.682 9.07227 282.875 9.07227C283.068 9.07227 283.215 9.12777 283.315 9.23877C283.416 9.34977 283.466 9.48584 283.466 9.64697C283.466 9.80811 283.416 9.94238 283.315 10.0498C283.215 10.1572 283.068 10.2109 282.875 10.2109C282.682 10.2109 282.535 10.1572 282.435 10.0498C282.338 9.94238 282.29 9.80811 282.29 9.64697ZM286.876 15.6519L288.316 11.1885H289.331L287.247 17H286.49L284.384 11.1885H285.399L286.876 15.6519ZM292.624 17.1074C291.836 17.1074 291.195 16.8496 290.701 16.334C290.207 15.8148 289.959 15.1219 289.959 14.2554V14.0728C289.959 13.4963 290.069 12.9824 290.287 12.5312C290.509 12.0765 290.817 11.722 291.211 11.4678C291.608 11.21 292.038 11.0811 292.5 11.0811C293.256 11.0811 293.843 11.3299 294.262 11.8276C294.681 12.3254 294.89 13.0379 294.89 13.9653V14.3789H290.953C290.967 14.9518 291.134 15.4155 291.453 15.77C291.775 16.1209 292.183 16.2964 292.677 16.2964C293.028 16.2964 293.325 16.2248 293.569 16.0815C293.812 15.9383 294.025 15.7485 294.208 15.5122L294.815 15.9849C294.328 16.7332 293.597 17.1074 292.624 17.1074ZM292.5 11.8975C292.099 11.8975 291.762 12.0443 291.49 12.3379C291.218 12.6279 291.05 13.0361 290.985 13.5625H293.896V13.4873C293.868 12.9824 293.732 12.5921 293.488 12.3164C293.245 12.0371 292.915 11.8975 292.5 11.8975Z" fill="white" fill-opacity="0.64"/>
<circle cx="325" cy="13.5" r="5" fill="#6C7085"/>
<path d="M340.014 17H338.983V9.17969H340.014V17ZM342.689 11.1885L342.721 11.9189C343.165 11.3604 343.745 11.0811 344.461 11.0811C345.69 11.0811 346.309 11.7739 346.32 13.1597V17H345.326V13.1543C345.323 12.7354 345.226 12.4256 345.036 12.2251C344.85 12.0246 344.558 11.9243 344.161 11.9243C343.838 11.9243 343.556 12.0103 343.312 12.1821C343.069 12.354 342.879 12.5796 342.743 12.8589V17H341.749V11.1885H342.689ZM351.406 17C351.349 16.8854 351.302 16.6813 351.267 16.3877C350.805 16.8675 350.253 17.1074 349.612 17.1074C349.039 17.1074 348.569 16.9463 348.2 16.624C347.834 16.2982 347.652 15.8864 347.652 15.3887C347.652 14.7835 347.881 14.3145 348.339 13.9814C348.801 13.6449 349.449 13.4766 350.284 13.4766H351.25V13.02C351.25 12.6727 351.147 12.397 350.939 12.1929C350.731 11.9852 350.425 11.8813 350.021 11.8813C349.666 11.8813 349.369 11.9709 349.129 12.1499C348.889 12.3289 348.769 12.5456 348.769 12.7998H347.77C347.77 12.5098 347.872 12.2305 348.076 11.9619C348.284 11.6898 348.563 11.4749 348.914 11.3174C349.269 11.1598 349.657 11.0811 350.08 11.0811C350.749 11.0811 351.274 11.2493 351.653 11.5859C352.033 11.9189 352.23 12.3791 352.244 12.9663V15.6411C352.244 16.1746 352.312 16.599 352.448 16.9141V17H351.406ZM349.757 16.2427C350.069 16.2427 350.364 16.1621 350.644 16.001C350.923 15.8398 351.125 15.6304 351.25 15.3726V14.1802H350.472C349.254 14.1802 348.646 14.5365 348.646 15.249C348.646 15.5605 348.749 15.804 348.957 15.9795C349.165 16.1549 349.431 16.2427 349.757 16.2427ZM356.133 16.2964C356.487 16.2964 356.797 16.189 357.062 15.9741C357.327 15.7593 357.474 15.4907 357.502 15.1685H358.442C358.424 15.5015 358.31 15.8184 358.099 16.1191C357.887 16.4199 357.604 16.6598 357.25 16.8389C356.899 17.0179 356.527 17.1074 356.133 17.1074C355.341 17.1074 354.711 16.8442 354.242 16.3179C353.777 15.7879 353.544 15.0646 353.544 14.1479V13.9814C353.544 13.4157 353.648 12.9126 353.855 12.4722C354.063 12.0317 354.36 11.6898 354.747 11.4463C355.137 11.2028 355.597 11.0811 356.127 11.0811C356.779 11.0811 357.32 11.2762 357.75 11.6665C358.183 12.0568 358.414 12.5635 358.442 13.1865H357.502C357.474 12.8105 357.331 12.5026 357.073 12.2627C356.819 12.0192 356.503 11.8975 356.127 11.8975C355.623 11.8975 355.23 12.0801 354.951 12.4453C354.675 12.807 354.538 13.3315 354.538 14.019V14.207C354.538 14.8766 354.675 15.3923 354.951 15.7539C355.227 16.1156 355.621 16.2964 356.133 16.2964ZM360.908 9.78125V11.1885H361.993V11.9565H360.908V15.5605C360.908 15.7933 360.956 15.9688 361.053 16.0869C361.149 16.2015 361.314 16.2588 361.547 16.2588C361.661 16.2588 361.819 16.2373 362.02 16.1943V17C361.758 17.0716 361.504 17.1074 361.257 17.1074C360.813 17.1074 360.478 16.9731 360.252 16.7046C360.027 16.436 359.914 16.0547 359.914 15.5605V11.9565H358.856V11.1885H359.914V9.78125H360.908ZM364.238 17H363.244V11.1885H364.238V17ZM363.164 9.64697C363.164 9.48584 363.212 9.34977 363.309 9.23877C363.409 9.12777 363.556 9.07227 363.749 9.07227C363.942 9.07227 364.089 9.12777 364.189 9.23877C364.29 9.34977 364.34 9.48584 364.34 9.64697C364.34 9.80811 364.29 9.94238 364.189 10.0498C364.089 10.1572 363.942 10.2109 363.749 10.2109C363.556 10.2109 363.409 10.1572 363.309 10.0498C363.212 9.94238 363.164 9.80811 363.164 9.64697ZM367.75 15.6519L369.19 11.1885H370.205L368.121 17H367.364L365.258 11.1885H366.273L367.75 15.6519ZM373.498 17.1074C372.71 17.1074 372.069 16.8496 371.575 16.334C371.081 15.8148 370.833 15.1219 370.833 14.2554V14.0728C370.833 13.4963 370.943 12.9824 371.161 12.5312C371.383 12.0765 371.691 11.722 372.085 11.4678C372.482 11.21 372.912 11.0811 373.374 11.0811C374.13 11.0811 374.717 11.3299 375.136 11.8276C375.555 12.3254 375.764 13.0379 375.764 13.9653V14.3789H371.827C371.841 14.9518 372.008 15.4155 372.327 15.77C372.649 16.1209 373.057 16.2964 373.551 16.2964C373.902 16.2964 374.199 16.2248 374.443 16.0815C374.686 15.9383 374.899 15.7485 375.082 15.5122L375.689 15.9849C375.202 16.7332 374.472 17.1074 373.498 17.1074ZM373.374 11.8975C372.973 11.8975 372.636 12.0443 372.364 12.3379C372.092 12.6279 371.924 13.0361 371.859 13.5625H374.771V13.4873C374.742 12.9824 374.606 12.5921 374.362 12.3164C374.119 12.0371 373.789 11.8975 373.374 11.8975Z" fill="white" fill-opacity="0.64"/>
<circle cx="406" cy="13.5" r="5" fill="#FDBBD2"/>
<path d="M425.311 10.0283H422.797V17H421.771V10.0283H419.263V9.17969H425.311V10.0283ZM428.19 17.1074C427.402 17.1074 426.761 16.8496 426.267 16.334C425.773 15.8148 425.526 15.1219 425.526 14.2554V14.0728C425.526 13.4963 425.635 12.9824 425.854 12.5312C426.076 12.0765 426.383 11.722 426.777 11.4678C427.175 11.21 427.604 11.0811 428.066 11.0811C428.822 11.0811 429.409 11.3299 429.828 11.8276C430.247 12.3254 430.457 13.0379 430.457 13.9653V14.3789H426.52C426.534 14.9518 426.7 15.4155 427.019 15.77C427.341 16.1209 427.75 16.2964 428.244 16.2964C428.595 16.2964 428.892 16.2248 429.135 16.0815C429.379 15.9383 429.592 15.7485 429.774 15.5122L430.381 15.9849C429.894 16.7332 429.164 17.1074 428.19 17.1074ZM428.066 11.8975C427.665 11.8975 427.329 12.0443 427.057 12.3379C426.785 12.6279 426.616 13.0361 426.552 13.5625H429.463V13.4873C429.434 12.9824 429.298 12.5921 429.055 12.3164C428.811 12.0371 428.482 11.8975 428.066 11.8975ZM434.42 12.0801C434.27 12.055 434.107 12.0425 433.932 12.0425C433.28 12.0425 432.838 12.32 432.605 12.875V17H431.611V11.1885H432.578L432.594 11.8599C432.92 11.3407 433.382 11.0811 433.98 11.0811C434.173 11.0811 434.32 11.1061 434.42 11.1562V12.0801ZM436.273 11.1885L436.3 11.833C436.726 11.3317 437.301 11.0811 438.024 11.0811C438.837 11.0811 439.39 11.3926 439.684 12.0156C439.877 11.7363 440.128 11.5107 440.436 11.3389C440.748 11.167 441.115 11.0811 441.537 11.0811C442.812 11.0811 443.46 11.756 443.481 13.106V17H442.488V13.165C442.488 12.7497 442.393 12.4399 442.203 12.2358C442.013 12.0282 441.695 11.9243 441.247 11.9243C440.878 11.9243 440.572 12.0353 440.329 12.2573C440.085 12.4757 439.944 12.7712 439.904 13.1436V17H438.905V13.1919C438.905 12.3468 438.492 11.9243 437.665 11.9243C437.013 11.9243 436.567 12.2018 436.327 12.7568V17H435.333V11.1885H436.273ZM446.065 17H445.071V11.1885H446.065V17ZM444.991 9.64697C444.991 9.48584 445.039 9.34977 445.136 9.23877C445.236 9.12777 445.383 9.07227 445.576 9.07227C445.77 9.07227 445.916 9.12777 446.017 9.23877C446.117 9.34977 446.167 9.48584 446.167 9.64697C446.167 9.80811 446.117 9.94238 446.017 10.0498C445.916 10.1572 445.77 10.2109 445.576 10.2109C445.383 10.2109 445.236 10.1572 445.136 10.0498C445.039 9.94238 444.991 9.80811 444.991 9.64697ZM448.6 11.1885L448.632 11.9189C449.076 11.3604 449.656 11.0811 450.373 11.0811C451.601 11.0811 452.22 11.7739 452.231 13.1597V17H451.237V13.1543C451.234 12.7354 451.137 12.4256 450.947 12.2251C450.761 12.0246 450.469 11.9243 450.072 11.9243C449.75 11.9243 449.467 12.0103 449.223 12.1821C448.98 12.354 448.79 12.5796 448.654 12.8589V17H447.66V11.1885H448.6ZM457.317 17C457.26 16.8854 457.214 16.6813 457.178 16.3877C456.716 16.8675 456.164 17.1074 455.523 17.1074C454.951 17.1074 454.48 16.9463 454.111 16.624C453.746 16.2982 453.563 15.8864 453.563 15.3887C453.563 14.7835 453.792 14.3145 454.25 13.9814C454.712 13.6449 455.361 13.4766 456.195 13.4766H457.162V13.02C457.162 12.6727 457.058 12.397 456.85 12.1929C456.642 11.9852 456.336 11.8813 455.932 11.8813C455.577 11.8813 455.28 11.9709 455.04 12.1499C454.8 12.3289 454.68 12.5456 454.68 12.7998H453.681C453.681 12.5098 453.783 12.2305 453.987 11.9619C454.195 11.6898 454.474 11.4749 454.825 11.3174C455.18 11.1598 455.568 11.0811 455.991 11.0811C456.66 11.0811 457.185 11.2493 457.564 11.5859C457.944 11.9189 458.141 12.3791 458.155 12.9663V15.6411C458.155 16.1746 458.223 16.599 458.359 16.9141V17H457.317ZM455.668 16.2427C455.98 16.2427 456.275 16.1621 456.555 16.001C456.834 15.8398 457.036 15.6304 457.162 15.3726V14.1802H456.383C455.165 14.1802 454.557 14.5365 454.557 15.249C454.557 15.5605 454.66 15.804 454.868 15.9795C455.076 16.1549 455.343 16.2427 455.668 16.2427ZM461.061 9.78125V11.1885H462.146V11.9565H461.061V15.5605C461.061 15.7933 461.109 15.9688 461.206 16.0869C461.303 16.2015 461.467 16.2588 461.7 16.2588C461.815 16.2588 461.972 16.2373 462.173 16.1943V17C461.911 17.0716 461.657 17.1074 461.41 17.1074C460.966 17.1074 460.631 16.9731 460.406 16.7046C460.18 16.436 460.067 16.0547 460.067 15.5605V11.9565H459.009V11.1885H460.067V9.78125H461.061ZM465.723 17.1074C464.935 17.1074 464.294 16.8496 463.8 16.334C463.306 15.8148 463.059 15.1219 463.059 14.2554V14.0728C463.059 13.4963 463.168 12.9824 463.387 12.5312C463.609 12.0765 463.917 11.722 464.311 11.4678C464.708 11.21 465.138 11.0811 465.6 11.0811C466.355 11.0811 466.942 11.3299 467.361 11.8276C467.78 12.3254 467.99 13.0379 467.99 13.9653V14.3789H464.053C464.067 14.9518 464.234 15.4155 464.552 15.77C464.875 16.1209 465.283 16.2964 465.777 16.2964C466.128 16.2964 466.425 16.2248 466.668 16.0815C466.912 15.9383 467.125 15.7485 467.308 15.5122L467.915 15.9849C467.428 16.7332 466.697 17.1074 465.723 17.1074ZM465.6 11.8975C465.199 11.8975 464.862 12.0443 464.59 12.3379C464.318 12.6279 464.149 13.0361 464.085 13.5625H466.996V13.4873C466.967 12.9824 466.831 12.5921 466.588 12.3164C466.344 12.0371 466.015 11.8975 465.6 11.8975ZM468.903 14.0459C468.903 13.1543 469.114 12.4382 469.537 11.8975C469.959 11.3532 470.512 11.0811 471.196 11.0811C471.877 11.0811 472.416 11.3138 472.813 11.7793V8.75H473.807V17H472.894L472.845 16.377C472.448 16.8639 471.895 17.1074 471.186 17.1074C470.512 17.1074 469.963 16.8317 469.537 16.2803C469.114 15.7288 468.903 15.0091 468.903 14.1211V14.0459ZM469.896 14.1587C469.896 14.8175 470.033 15.3332 470.305 15.7056C470.577 16.078 470.953 16.2642 471.433 16.2642C472.063 16.2642 472.523 15.9813 472.813 15.4155V12.7461C472.516 12.1982 472.059 11.9243 471.443 11.9243C470.956 11.9243 470.577 12.1123 470.305 12.4883C470.033 12.8643 469.896 13.4211 469.896 14.1587Z" fill="white" fill-opacity="0.64"/>
</svg>
