<svg width="65" height="30" viewBox="0 0 65 30" fill="none" xmlns="http://www.w3.org/2000/svg">
<rect width="65" height="30" rx="3" fill="white" fill-opacity="0.1"/>
<path d="M24.7344 16.7598C24.6341 17.8216 24.2422 18.651 23.5586 19.248C22.875 19.8405 21.9658 20.1367 20.8311 20.1367C20.0381 20.1367 19.3385 19.9499 18.7324 19.5762C18.1309 19.1979 17.666 18.6624 17.3379 17.9697C17.0098 17.277 16.8389 16.4727 16.8252 15.5566V14.627C16.8252 13.6882 16.9915 12.861 17.3242 12.1455C17.6569 11.43 18.1331 10.8786 18.7529 10.4912C19.3773 10.1038 20.0973 9.91016 20.9131 9.91016C22.0114 9.91016 22.8955 10.2087 23.5654 10.8057C24.2354 11.4027 24.625 12.2458 24.7344 13.335H23.0117C22.9297 12.6195 22.7201 12.1045 22.3828 11.79C22.0501 11.471 21.5602 11.3115 20.9131 11.3115C20.1611 11.3115 19.5824 11.5872 19.1768 12.1387C18.7757 12.6855 18.5706 13.4899 18.5615 14.5518V15.4336C18.5615 16.5091 18.7529 17.3294 19.1357 17.8945C19.5231 18.4596 20.0882 18.7422 20.8311 18.7422C21.5101 18.7422 22.0205 18.5895 22.3623 18.2842C22.7041 17.9788 22.9206 17.4707 23.0117 16.7598H24.7344ZM27.8926 20H26.2314V9.5H27.8926V20ZM32.9648 20.1367C31.9121 20.1367 31.0576 19.8063 30.4014 19.1455C29.7497 18.4801 29.4238 17.596 29.4238 16.4932V16.2881C29.4238 15.5498 29.5651 14.8913 29.8477 14.3125C30.1348 13.7292 30.5358 13.2757 31.0508 12.9521C31.5658 12.6286 32.14 12.4668 32.7734 12.4668C33.7806 12.4668 34.5576 12.7881 35.1045 13.4307C35.6559 14.0732 35.9316 14.9824 35.9316 16.1582V16.8281H31.0986C31.1488 17.4388 31.3516 17.9219 31.707 18.2773C32.0671 18.6328 32.5182 18.8105 33.0605 18.8105C33.8216 18.8105 34.4414 18.5029 34.9199 17.8877L35.8154 18.7422C35.5192 19.1842 35.1227 19.5283 34.626 19.7744C34.1338 20.016 33.5801 20.1367 32.9648 20.1367ZM32.7666 13.7998C32.3109 13.7998 31.9417 13.9593 31.6592 14.2783C31.3812 14.5973 31.2035 15.0417 31.126 15.6113H34.291V15.4883C34.2546 14.9323 34.1064 14.513 33.8467 14.2305C33.5869 13.9434 33.2269 13.7998 32.7666 13.7998ZM41.6465 20C41.5736 19.8587 41.5098 19.6286 41.4551 19.3096C40.9264 19.861 40.2793 20.1367 39.5137 20.1367C38.7708 20.1367 38.1647 19.9248 37.6953 19.501C37.2259 19.0771 36.9912 18.5531 36.9912 17.9287C36.9912 17.1403 37.2829 16.5365 37.8662 16.1172C38.4541 15.6934 39.2926 15.4814 40.3818 15.4814H41.4004V14.9961C41.4004 14.6133 41.2933 14.3079 41.0791 14.0801C40.8649 13.8477 40.5391 13.7314 40.1016 13.7314C39.7233 13.7314 39.4134 13.8271 39.1719 14.0186C38.9303 14.2054 38.8096 14.4447 38.8096 14.7363H37.1484C37.1484 14.3307 37.2829 13.9525 37.5518 13.6016C37.8206 13.2461 38.1852 12.9681 38.6455 12.7676C39.1104 12.5671 39.6276 12.4668 40.1973 12.4668C41.0632 12.4668 41.7536 12.6855 42.2686 13.123C42.7835 13.556 43.0479 14.1667 43.0615 14.9551V18.291C43.0615 18.9564 43.1549 19.4873 43.3418 19.8838V20H41.6465ZM39.8213 18.8037C40.1494 18.8037 40.457 18.724 40.7441 18.5645C41.0358 18.4049 41.2546 18.1908 41.4004 17.9219V16.5273H40.5049C39.8896 16.5273 39.4271 16.6344 39.1172 16.8486C38.8073 17.0628 38.6523 17.3659 38.6523 17.7578C38.6523 18.0768 38.7572 18.332 38.9668 18.5234C39.181 18.7103 39.4658 18.8037 39.8213 18.8037ZM48.6738 14.1211C48.4551 14.0846 48.2295 14.0664 47.9971 14.0664C47.236 14.0664 46.7233 14.3581 46.459 14.9414V20H44.7979V12.6035H46.3838L46.4248 13.4307C46.8258 12.7881 47.3818 12.4668 48.0928 12.4668C48.3298 12.4668 48.5257 12.4987 48.6807 12.5625L48.6738 14.1211Z" fill="white" fill-opacity="0.94"/>
</svg>
