<svg width="230" height="130" viewBox="0 0 230 130" fill="none" xmlns="http://www.w3.org/2000/svg">
<path d="M27.0039 23H25.6504V19.5249H22.1538V23H20.7949V15.1797H22.1538V18.4346H25.6504V15.1797H27.0039V23ZM33.186 19.5088H29.9741V21.915H33.7285V23H28.6152V15.1797H33.6909V16.2754H29.9741V18.4346H33.186V19.5088ZM39.2124 21.1792H36.1831L35.5493 23H34.1367L37.0908 15.1797H38.3101L41.2695 23H39.8516L39.2124 21.1792ZM36.5645 20.0835H38.8311L37.6978 16.8394L36.5645 20.0835ZM43.52 21.915H47.0703V23H42.1611V15.1797H43.52V21.915ZM52.6562 16.2754H50.2178V23H48.8696V16.2754H46.4526V15.1797H52.6562V16.2754ZM59.8965 23H58.543V19.5249H55.0464V23H53.6875V15.1797H55.0464V18.4346H58.543V15.1797H59.8965V23ZM68.6245 21.1792H65.5952L64.9614 23H63.5488L66.5029 15.1797H67.7222L70.6816 23H69.2637L68.6245 21.1792ZM65.9766 20.0835H68.2432L67.1099 16.8394L65.9766 20.0835ZM77.7769 23H76.418L72.9321 17.4517V23H71.5732V15.1797H72.9321L76.4287 20.7495V15.1797H77.7769V23ZM79.3828 23V15.1797H81.6924C82.3835 15.1797 82.9958 15.3337 83.5293 15.6416C84.0664 15.9495 84.4818 16.3864 84.7754 16.9521C85.069 17.5179 85.2158 18.166 85.2158 18.8965V19.2886C85.2158 20.0298 85.0672 20.6815 84.77 21.2437C84.4764 21.8058 84.0557 22.2391 83.5078 22.5435C82.9635 22.8478 82.3387 23 81.6333 23H79.3828ZM80.7417 16.2754V21.915H81.6279C82.3405 21.915 82.8866 21.693 83.2661 21.249C83.6493 20.8014 83.8444 20.1605 83.8516 19.3262V18.8911C83.8516 18.0425 83.6672 17.3944 83.2983 16.9468C82.9295 16.4992 82.3942 16.2754 81.6924 16.2754H80.7417ZM93.686 21.1792H90.6567L90.0229 23H88.6104L91.5645 15.1797H92.7837L95.7432 23H94.3252L93.686 21.1792ZM91.0381 20.0835H93.3047L92.1714 16.8394L91.0381 20.0835ZM97.9937 21.915H101.544V23H96.6348V15.1797H97.9937V21.915ZM107.157 19.5088H103.945V21.915H107.699V23H102.586V15.1797H107.662V16.2754H103.945V18.4346H107.157V19.5088ZM111.679 19.9868H110.165V23H108.806V15.1797H111.556C112.458 15.1797 113.154 15.382 113.645 15.7866C114.136 16.1912 114.381 16.7767 114.381 17.543C114.381 18.0658 114.254 18.5044 114 18.8589C113.749 19.2098 113.398 19.4801 112.947 19.6699L114.703 22.9302V23H113.248L111.679 19.9868ZM110.165 18.8965H111.561C112.019 18.8965 112.377 18.7819 112.635 18.5527C112.893 18.32 113.022 18.0031 113.022 17.6021C113.022 17.1831 112.902 16.859 112.662 16.6299C112.426 16.4007 112.071 16.2826 111.599 16.2754H110.165V18.8965ZM121.052 16.2754H118.613V23H117.265V16.2754H114.848V15.1797H121.052V16.2754ZM123.517 23H122.164V15.1797H123.517V23ZM131.391 23H130.032L126.546 17.4517V23H125.188V15.1797H126.546L130.043 20.7495V15.1797H131.391V23ZM138.991 21.9849C138.708 22.3537 138.316 22.633 137.815 22.8228C137.314 23.0125 136.744 23.1074 136.107 23.1074C135.452 23.1074 134.872 22.9588 134.367 22.6616C133.862 22.3644 133.472 21.9401 133.196 21.3887C132.924 20.8337 132.782 20.1873 132.771 19.4497V18.8374C132.771 17.6558 133.054 16.7337 133.62 16.0713C134.186 15.4053 134.975 15.0723 135.989 15.0723C136.859 15.0723 137.55 15.2871 138.062 15.7168C138.574 16.1465 138.882 16.766 138.986 17.5752H137.654C137.503 16.6335 136.957 16.1626 136.016 16.1626C135.407 16.1626 134.943 16.3828 134.625 16.8232C134.309 17.2601 134.146 17.9028 134.136 18.7515V19.353C134.136 20.1981 134.313 20.8551 134.667 21.3242C135.026 21.7897 135.521 22.0225 136.155 22.0225C136.85 22.0225 137.344 21.8649 137.638 21.5498V20.019H136.026V18.9878H138.991V21.9849Z" fill="white" fill-opacity="0.64"/>
<path d="M209.081 17.3713C208.801 17.6409 208.801 18.0779 209.081 18.3475L212.385 21.5237C212.666 21.7941 213.122 21.7941 213.403 21.5237L216.706 18.3475C216.986 18.0779 216.986 17.6409 216.706 17.3713C216.426 17.1017 215.971 17.1015 215.69 17.3708L212.894 20.054L210.097 17.3708C209.816 17.1015 209.362 17.1017 209.081 17.3713Z" fill="white" fill-opacity="0.64"/>
<rect x="20" y="38" width="190" height="30" rx="3" fill="white" fill-opacity="0.1"/>
<path d="M84.2109 58H82.4883V53.5771H78.0381V58H76.3086V48.0469H78.0381V52.1895H82.4883V48.0469H84.2109V58ZM89.3584 58.1367C88.3057 58.1367 87.4512 57.8063 86.7949 57.1455C86.1432 56.4801 85.8174 55.596 85.8174 54.4932V54.2881C85.8174 53.5498 85.9587 52.8913 86.2412 52.3125C86.5283 51.7292 86.9294 51.2757 87.4443 50.9521C87.9593 50.6286 88.5335 50.4668 89.167 50.4668C90.1742 50.4668 90.9512 50.7881 91.498 51.4307C92.0495 52.0732 92.3252 52.9824 92.3252 54.1582V54.8281H87.4922C87.5423 55.4388 87.7451 55.9219 88.1006 56.2773C88.4606 56.6328 88.9118 56.8105 89.4541 56.8105C90.2152 56.8105 90.835 56.5029 91.3135 55.8877L92.209 56.7422C91.9128 57.1842 91.5163 57.5283 91.0195 57.7744C90.5273 58.016 89.9736 58.1367 89.3584 58.1367ZM89.1602 51.7998C88.7044 51.7998 88.3353 51.9593 88.0527 52.2783C87.7747 52.5973 87.597 53.0417 87.5195 53.6113H90.6846V53.4883C90.6481 52.9323 90.5 52.513 90.2402 52.2305C89.9805 51.9434 89.6204 51.7998 89.1602 51.7998ZM98.04 58C97.9671 57.8587 97.9033 57.6286 97.8486 57.3096C97.32 57.861 96.6729 58.1367 95.9072 58.1367C95.1644 58.1367 94.5583 57.9248 94.0889 57.501C93.6195 57.0771 93.3848 56.5531 93.3848 55.9287C93.3848 55.1403 93.6764 54.5365 94.2598 54.1172C94.8477 53.6934 95.6862 53.4814 96.7754 53.4814H97.7939V52.9961C97.7939 52.6133 97.6868 52.3079 97.4727 52.0801C97.2585 51.8477 96.9326 51.7314 96.4951 51.7314C96.1169 51.7314 95.807 51.8271 95.5654 52.0186C95.3239 52.2054 95.2031 52.4447 95.2031 52.7363H93.542C93.542 52.3307 93.6764 51.9525 93.9453 51.6016C94.2142 51.2461 94.5788 50.9681 95.0391 50.7676C95.5039 50.5671 96.0212 50.4668 96.5908 50.4668C97.4567 50.4668 98.1471 50.6855 98.6621 51.123C99.1771 51.556 99.4414 52.1667 99.4551 52.9551V56.291C99.4551 56.9564 99.5485 57.4873 99.7354 57.8838V58H98.04ZM96.2148 56.8037C96.543 56.8037 96.8506 56.724 97.1377 56.5645C97.4294 56.4049 97.6481 56.1908 97.7939 55.9219V54.5273H96.8984C96.2832 54.5273 95.8206 54.6344 95.5107 54.8486C95.2008 55.0628 95.0459 55.3659 95.0459 55.7578C95.0459 56.0768 95.1507 56.332 95.3604 56.5234C95.5745 56.7103 95.8594 56.8037 96.2148 56.8037ZM102.962 58H101.301V47.5H102.962V58ZM106.858 48.8057V50.6035H108.164V51.834H106.858V55.9629C106.858 56.2454 106.913 56.4505 107.022 56.5781C107.136 56.7012 107.337 56.7627 107.624 56.7627C107.815 56.7627 108.009 56.7399 108.205 56.6943V57.9795C107.827 58.0843 107.462 58.1367 107.111 58.1367C105.835 58.1367 105.197 57.4326 105.197 56.0244V51.834H103.98V50.6035H105.197V48.8057H106.858ZM111.076 51.4102C111.618 50.7812 112.304 50.4668 113.134 50.4668C114.711 50.4668 115.51 51.3669 115.533 53.167V58H113.872V53.2285C113.872 52.7181 113.76 52.3581 113.537 52.1484C113.318 51.9342 112.995 51.8271 112.566 51.8271C111.901 51.8271 111.404 52.1234 111.076 52.7158V58H109.415V47.5H111.076V51.4102ZM124.522 54.165H122.595V58H120.865V48.0469H124.365C125.514 48.0469 126.4 48.3044 127.024 48.8193C127.649 49.3343 127.961 50.0794 127.961 51.0547C127.961 51.7201 127.799 52.2783 127.476 52.7295C127.157 53.1761 126.71 53.5202 126.136 53.7617L128.371 57.9111V58H126.519L124.522 54.165ZM122.595 52.7773H124.372C124.955 52.7773 125.411 52.6315 125.739 52.3398C126.067 52.0436 126.231 51.6403 126.231 51.1299C126.231 50.5967 126.079 50.1842 125.773 49.8926C125.473 49.6009 125.021 49.4505 124.42 49.4414H122.595V52.7773ZM133.922 57.2754C133.434 57.8496 132.742 58.1367 131.844 58.1367C131.042 58.1367 130.433 57.902 130.019 57.4326C129.608 56.9632 129.403 56.2842 129.403 55.3955V50.6035H131.064V55.375C131.064 56.3138 131.454 56.7832 132.233 56.7832C133.04 56.7832 133.585 56.4938 133.867 55.915V50.6035H135.528V58H133.963L133.922 57.2754ZM138.987 58H137.326V47.5H138.987V58ZM144.06 58.1367C143.007 58.1367 142.152 57.8063 141.496 57.1455C140.844 56.4801 140.519 55.596 140.519 54.4932V54.2881C140.519 53.5498 140.66 52.8913 140.942 52.3125C141.229 51.7292 141.631 51.2757 142.146 50.9521C142.66 50.6286 143.235 50.4668 143.868 50.4668C144.875 50.4668 145.652 50.7881 146.199 51.4307C146.751 52.0732 147.026 52.9824 147.026 54.1582V54.8281H142.193C142.243 55.4388 142.446 55.9219 142.802 56.2773C143.162 56.6328 143.613 56.8105 144.155 56.8105C144.916 56.8105 145.536 56.5029 146.015 55.8877L146.91 56.7422C146.614 57.1842 146.217 57.5283 145.721 57.7744C145.229 58.016 144.675 58.1367 144.06 58.1367ZM143.861 51.7998C143.406 51.7998 143.036 51.9593 142.754 52.2783C142.476 52.5973 142.298 53.0417 142.221 53.6113H145.386V53.4883C145.349 52.9323 145.201 52.513 144.941 52.2305C144.682 51.9434 144.322 51.7998 143.861 51.7998ZM152.468 55.9902C152.468 55.694 152.345 55.4684 152.099 55.3135C151.857 55.1585 151.454 55.0218 150.889 54.9033C150.324 54.7848 149.852 54.6344 149.474 54.4521C148.644 54.0511 148.229 53.4701 148.229 52.709C148.229 52.071 148.498 51.5378 149.036 51.1094C149.574 50.681 150.257 50.4668 151.087 50.4668C151.971 50.4668 152.684 50.6855 153.227 51.123C153.773 51.5605 154.047 52.1279 154.047 52.8252H152.386C152.386 52.5062 152.267 52.2419 152.03 52.0322C151.793 51.818 151.479 51.7109 151.087 51.7109C150.722 51.7109 150.424 51.7952 150.191 51.9639C149.964 52.1325 149.85 52.3581 149.85 52.6406C149.85 52.8958 149.957 53.0941 150.171 53.2354C150.385 53.3766 150.818 53.5202 151.47 53.666C152.121 53.8073 152.632 53.9782 153.001 54.1787C153.375 54.3747 153.65 54.6117 153.828 54.8896C154.01 55.1676 154.102 55.5049 154.102 55.9014C154.102 56.5667 153.826 57.1068 153.274 57.5215C152.723 57.9316 152.001 58.1367 151.107 58.1367C150.501 58.1367 149.961 58.0273 149.487 57.8086C149.013 57.5898 148.644 57.2891 148.38 56.9062C148.116 56.5234 147.983 56.111 147.983 55.6689H149.597C149.619 56.0609 149.768 56.3639 150.041 56.5781C150.314 56.7878 150.677 56.8926 151.128 56.8926C151.565 56.8926 151.898 56.8105 152.126 56.6465C152.354 56.4779 152.468 56.2591 152.468 55.9902Z" fill="white" fill-opacity="0.94"/>
<rect x="20" y="80" width="190" height="30" rx="3" fill="white" fill-opacity="0.1"/>
<path d="M65.1729 96.7598C65.0726 97.8216 64.6807 98.651 63.9971 99.248C63.3135 99.8405 62.4043 100.137 61.2695 100.137C60.4766 100.137 59.777 99.9499 59.1709 99.5762C58.5693 99.1979 58.1045 98.6624 57.7764 97.9697C57.4482 97.277 57.2773 96.4727 57.2637 95.5566V94.627C57.2637 93.6882 57.43 92.861 57.7627 92.1455C58.0954 91.43 58.5716 90.8786 59.1914 90.4912C59.8158 90.1038 60.5358 89.9102 61.3516 89.9102C62.4499 89.9102 63.334 90.2087 64.0039 90.8057C64.6738 91.4027 65.0635 92.2458 65.1729 93.335H63.4502C63.3682 92.6195 63.1585 92.1045 62.8213 91.79C62.4886 91.471 61.9987 91.3115 61.3516 91.3115C60.5996 91.3115 60.0208 91.5872 59.6152 92.1387C59.2142 92.6855 59.0091 93.4899 59 94.5518V95.4336C59 96.5091 59.1914 97.3294 59.5742 97.8945C59.9616 98.4596 60.5267 98.7422 61.2695 98.7422C61.9486 98.7422 62.459 98.5895 62.8008 98.2842C63.1426 97.9788 63.359 97.4707 63.4502 96.7598H65.1729ZM70.4365 94.1211C70.2178 94.0846 69.9922 94.0664 69.7598 94.0664C68.9987 94.0664 68.486 94.3581 68.2217 94.9414V100H66.5605V92.6035H68.1465L68.1875 93.4307C68.5885 92.7881 69.1445 92.4668 69.8555 92.4668C70.0924 92.4668 70.2884 92.4987 70.4434 92.5625L70.4365 94.1211ZM74.6064 100.137C73.5537 100.137 72.6992 99.8063 72.043 99.1455C71.3913 98.4801 71.0654 97.596 71.0654 96.4932V96.2881C71.0654 95.5498 71.2067 94.8913 71.4893 94.3125C71.7764 93.7292 72.1774 93.2757 72.6924 92.9521C73.2074 92.6286 73.7816 92.4668 74.415 92.4668C75.4222 92.4668 76.1992 92.7881 76.7461 93.4307C77.2975 94.0732 77.5732 94.9824 77.5732 96.1582V96.8281H72.7402C72.7904 97.4388 72.9932 97.9219 73.3486 98.2773C73.7087 98.6328 74.1598 98.8105 74.7021 98.8105C75.4632 98.8105 76.083 98.5029 76.5615 97.8877L77.457 98.7422C77.1608 99.1842 76.7643 99.5283 76.2676 99.7744C75.7754 100.016 75.2217 100.137 74.6064 100.137ZM74.4082 93.7998C73.9525 93.7998 73.5833 93.9593 73.3008 94.2783C73.0228 94.5973 72.8451 95.0417 72.7676 95.6113H75.9326V95.4883C75.8962 94.9323 75.748 94.513 75.4883 94.2305C75.2285 93.9434 74.8685 93.7998 74.4082 93.7998ZM83.2881 100C83.2152 99.8587 83.1514 99.6286 83.0967 99.3096C82.568 99.861 81.9209 100.137 81.1553 100.137C80.4124 100.137 79.8063 99.9248 79.3369 99.501C78.8675 99.0771 78.6328 98.5531 78.6328 97.9287C78.6328 97.1403 78.9245 96.5365 79.5078 96.1172C80.0957 95.6934 80.9342 95.4814 82.0234 95.4814H83.042V94.9961C83.042 94.6133 82.9349 94.3079 82.7207 94.0801C82.5065 93.8477 82.1807 93.7314 81.7432 93.7314C81.3649 93.7314 81.055 93.8271 80.8135 94.0186C80.5719 94.2054 80.4512 94.4447 80.4512 94.7363H78.79C78.79 94.3307 78.9245 93.9525 79.1934 93.6016C79.4622 93.2461 79.8268 92.9681 80.2871 92.7676C80.752 92.5671 81.2692 92.4668 81.8389 92.4668C82.7048 92.4668 83.3952 92.6855 83.9102 93.123C84.4251 93.556 84.6895 94.1667 84.7031 94.9551V98.291C84.7031 98.9564 84.7965 99.4873 84.9834 99.8838V100H83.2881ZM81.4629 98.8037C81.791 98.8037 82.0986 98.724 82.3857 98.5645C82.6774 98.4049 82.8962 98.1908 83.042 97.9219V96.5273H82.1465C81.5312 96.5273 81.0687 96.6344 80.7588 96.8486C80.4489 97.0628 80.2939 97.3659 80.2939 97.7578C80.2939 98.0768 80.3988 98.332 80.6084 98.5234C80.8226 98.7103 81.1074 98.8037 81.4629 98.8037ZM88.5244 90.8057V92.6035H89.8301V93.834H88.5244V97.9629C88.5244 98.2454 88.5791 98.4505 88.6885 98.5781C88.8024 98.7012 89.0029 98.7627 89.29 98.7627C89.4814 98.7627 89.6751 98.7399 89.8711 98.6943V99.9795C89.4928 100.084 89.1283 100.137 88.7773 100.137C87.5013 100.137 86.8633 99.4326 86.8633 98.0244V93.834H85.6465V92.6035H86.8633V90.8057H88.5244ZM94.3623 100.137C93.3096 100.137 92.4551 99.8063 91.7988 99.1455C91.1471 98.4801 90.8213 97.596 90.8213 96.4932V96.2881C90.8213 95.5498 90.9626 94.8913 91.2451 94.3125C91.5322 93.7292 91.9333 93.2757 92.4482 92.9521C92.9632 92.6286 93.5374 92.4668 94.1709 92.4668C95.1781 92.4668 95.9551 92.7881 96.502 93.4307C97.0534 94.0732 97.3291 94.9824 97.3291 96.1582V96.8281H92.4961C92.5462 97.4388 92.749 97.9219 93.1045 98.2773C93.4645 98.6328 93.9157 98.8105 94.458 98.8105C95.2191 98.8105 95.8389 98.5029 96.3174 97.8877L97.2129 98.7422C96.9167 99.1842 96.5202 99.5283 96.0234 99.7744C95.5312 100.016 94.9775 100.137 94.3623 100.137ZM94.1641 93.7998C93.7083 93.7998 93.3392 93.9593 93.0566 94.2783C92.7786 94.5973 92.6009 95.0417 92.5234 95.6113H95.6885V95.4883C95.652 94.9323 95.5039 94.513 95.2441 94.2305C94.9844 93.9434 94.6243 93.7998 94.1641 93.7998ZM110.174 100H108.451V95.5771H104.001V100H102.271V90.0469H104.001V94.1895H108.451V90.0469H110.174V100ZM115.321 100.137C114.269 100.137 113.414 99.8063 112.758 99.1455C112.106 98.4801 111.78 97.596 111.78 96.4932V96.2881C111.78 95.5498 111.922 94.8913 112.204 94.3125C112.491 93.7292 112.892 93.2757 113.407 92.9521C113.922 92.6286 114.496 92.4668 115.13 92.4668C116.137 92.4668 116.914 92.7881 117.461 93.4307C118.012 94.0732 118.288 94.9824 118.288 96.1582V96.8281H113.455C113.505 97.4388 113.708 97.9219 114.063 98.2773C114.424 98.6328 114.875 98.8105 115.417 98.8105C116.178 98.8105 116.798 98.5029 117.276 97.8877L118.172 98.7422C117.876 99.1842 117.479 99.5283 116.982 99.7744C116.49 100.016 115.937 100.137 115.321 100.137ZM115.123 93.7998C114.667 93.7998 114.298 93.9593 114.016 94.2783C113.738 94.5973 113.56 95.0417 113.482 95.6113H116.647V95.4883C116.611 94.9323 116.463 94.513 116.203 94.2305C115.943 93.9434 115.583 93.7998 115.123 93.7998ZM124.003 100C123.93 99.8587 123.866 99.6286 123.812 99.3096C123.283 99.861 122.636 100.137 121.87 100.137C121.127 100.137 120.521 99.9248 120.052 99.501C119.582 99.0771 119.348 98.5531 119.348 97.9287C119.348 97.1403 119.639 96.5365 120.223 96.1172C120.811 95.6934 121.649 95.4814 122.738 95.4814H123.757V94.9961C123.757 94.6133 123.65 94.3079 123.436 94.0801C123.221 93.8477 122.896 93.7314 122.458 93.7314C122.08 93.7314 121.77 93.8271 121.528 94.0186C121.287 94.2054 121.166 94.4447 121.166 94.7363H119.505C119.505 94.3307 119.639 93.9525 119.908 93.6016C120.177 93.2461 120.542 92.9681 121.002 92.7676C121.467 92.5671 121.984 92.4668 122.554 92.4668C123.42 92.4668 124.11 92.6855 124.625 93.123C125.14 93.556 125.404 94.1667 125.418 94.9551V98.291C125.418 98.9564 125.511 99.4873 125.698 99.8838V100H124.003ZM122.178 98.8037C122.506 98.8037 122.813 98.724 123.101 98.5645C123.392 98.4049 123.611 98.1908 123.757 97.9219V96.5273H122.861C122.246 96.5273 121.784 96.6344 121.474 96.8486C121.164 97.0628 121.009 97.3659 121.009 97.7578C121.009 98.0768 121.114 98.332 121.323 98.5234C121.537 98.7103 121.822 98.8037 122.178 98.8037ZM128.925 100H127.264V89.5H128.925V100ZM132.821 90.8057V92.6035H134.127V93.834H132.821V97.9629C132.821 98.2454 132.876 98.4505 132.985 98.5781C133.099 98.7012 133.3 98.7627 133.587 98.7627C133.778 98.7627 133.972 98.7399 134.168 98.6943V99.9795C133.79 100.084 133.425 100.137 133.074 100.137C131.798 100.137 131.16 99.4326 131.16 98.0244V93.834H129.943V92.6035H131.16V90.8057H132.821ZM137.039 93.4102C137.581 92.7812 138.267 92.4668 139.097 92.4668C140.674 92.4668 141.473 93.3669 141.496 95.167V100H139.835V95.2285C139.835 94.7181 139.723 94.3581 139.5 94.1484C139.281 93.9342 138.958 93.8271 138.529 93.8271C137.864 93.8271 137.367 94.1234 137.039 94.7158V100H135.378V89.5H137.039V93.4102ZM150.485 96.165H148.558V100H146.828V90.0469H150.328C151.477 90.0469 152.363 90.3044 152.987 90.8193C153.612 91.3343 153.924 92.0794 153.924 93.0547C153.924 93.7201 153.762 94.2783 153.438 94.7295C153.119 95.1761 152.673 95.5202 152.099 95.7617L154.334 99.9111V100H152.481L150.485 96.165ZM148.558 94.7773H150.335C150.918 94.7773 151.374 94.6315 151.702 94.3398C152.03 94.0436 152.194 93.6403 152.194 93.1299C152.194 92.5967 152.042 92.1842 151.736 91.8926C151.436 91.6009 150.984 91.4505 150.383 91.4414H148.558V94.7773ZM159.885 99.2754C159.397 99.8496 158.704 100.137 157.807 100.137C157.005 100.137 156.396 99.902 155.981 99.4326C155.571 98.9632 155.366 98.2842 155.366 97.3955V92.6035H157.027V97.375C157.027 98.3138 157.417 98.7832 158.196 98.7832C159.003 98.7832 159.548 98.4938 159.83 97.915V92.6035H161.491V100H159.926L159.885 99.2754ZM164.95 100H163.289V89.5H164.95V100ZM170.022 100.137C168.97 100.137 168.115 99.8063 167.459 99.1455C166.807 98.4801 166.481 97.596 166.481 96.4932V96.2881C166.481 95.5498 166.623 94.8913 166.905 94.3125C167.192 93.7292 167.593 93.2757 168.108 92.9521C168.623 92.6286 169.198 92.4668 169.831 92.4668C170.838 92.4668 171.615 92.7881 172.162 93.4307C172.714 94.0732 172.989 94.9824 172.989 96.1582V96.8281H168.156C168.206 97.4388 168.409 97.9219 168.765 98.2773C169.125 98.6328 169.576 98.8105 170.118 98.8105C170.879 98.8105 171.499 98.5029 171.978 97.8877L172.873 98.7422C172.577 99.1842 172.18 99.5283 171.684 99.7744C171.191 100.016 170.638 100.137 170.022 100.137ZM169.824 93.7998C169.368 93.7998 168.999 93.9593 168.717 94.2783C168.439 94.5973 168.261 95.0417 168.184 95.6113H171.349V95.4883C171.312 94.9323 171.164 94.513 170.904 94.2305C170.645 93.9434 170.285 93.7998 169.824 93.7998Z" fill="white" fill-opacity="0.94"/>
<g opacity="0.9" clip-path="url(#clip0_1438_403522)">
<line x1="4.37114e-08" y1="129.5" x2="230" y2="129.5" stroke="white" stroke-opacity="0.15"/>
</g>
<defs>
<clipPath id="clip0_1438_403522">
<rect width="230" height="20" fill="white" transform="translate(0 110)"/>
</clipPath>
</defs>
</svg>
