<svg width="869" height="187" viewBox="0 0 869 187" fill="none" xmlns="http://www.w3.org/2000/svg">
<rect width="15" height="114" transform="translate(53 12)" fill="#B1B5CA"/>
<rect x="53" y="12" width="15" height="38" fill="#F9585C"/>
<rect x="53" y="50" width="15" height="38" fill="#FFD769"/>
<rect x="53" y="88" width="15" height="38" fill="#B1B5CA"/>
<rect width="15" height="58" transform="translate(71.6512 68)" fill="#B1B5CA"/>
<rect x="71.6512" y="68" width="15" height="19.3333" fill="#F9585C"/>
<rect x="71.6512" y="87.3333" width="15" height="19.3333" fill="#FFD769"/>
<rect x="71.6512" y="106.667" width="15" height="19.3333" fill="#B1B5CA"/>
<rect width="15" height="29" transform="translate(90.3023 97)" fill="#B1B5CA"/>
<rect x="90.3023" y="97" width="15" height="9.66667" fill="#F9585C"/>
<rect x="90.3023" y="106.667" width="15" height="9.66667" fill="#FFD769"/>
<rect x="90.3023" y="116.333" width="15" height="9.66667" fill="#B1B5CA"/>
<rect width="15" height="61" transform="translate(108.953 65)" fill="#B1B5CA"/>
<rect x="108.953" y="65" width="15" height="20.3333" fill="#F9585C"/>
<rect x="108.953" y="85.3333" width="15" height="20.3333" fill="#FFD769"/>
<rect x="108.953" y="105.667" width="15" height="20.3333" fill="#B1B5CA"/>
<rect width="15" height="43" transform="translate(127.605 83)" fill="#B1B5CA"/>
<rect x="127.605" y="83" width="15" height="14.3333" fill="#F9585C"/>
<rect x="127.605" y="97.3333" width="15" height="14.3333" fill="#FFD769"/>
<rect x="127.605" y="111.667" width="15" height="14.3333" fill="#B1B5CA"/>
<rect width="15" height="61" transform="translate(146.256 65)" fill="#B1B5CA"/>
<rect x="146.256" y="65" width="15" height="20.3333" fill="#F9585C"/>
<rect x="146.256" y="85.3333" width="15" height="20.3333" fill="#FFD769"/>
<rect x="146.256" y="105.667" width="15" height="20.3333" fill="#B1B5CA"/>
<rect width="15" height="49" transform="translate(164.907 77)" fill="#B1B5CA"/>
<rect x="164.907" y="77" width="15" height="16.3333" fill="#F9585C"/>
<rect x="164.907" y="93.3333" width="15" height="16.3333" fill="#FFD769"/>
<rect x="164.907" y="109.667" width="15" height="16.3333" fill="#B1B5CA"/>
<rect width="15" height="34" transform="translate(183.558 92)" fill="#B1B5CA"/>
<rect x="183.558" y="92" width="15" height="11.3333" fill="#F9585C"/>
<rect x="183.558" y="103.333" width="15" height="11.3333" fill="#FFD769"/>
<rect x="183.558" y="114.667" width="15" height="11.3333" fill="#B1B5CA"/>
<rect width="15" height="57" transform="translate(202.209 69)" fill="#B1B5CA"/>
<rect x="202.209" y="69" width="15" height="19" fill="#F9585C"/>
<rect x="202.209" y="88" width="15" height="19" fill="#FFD769"/>
<rect x="202.209" y="107" width="15" height="19" fill="#B1B5CA"/>
<rect width="15" height="49" transform="translate(220.86 77)" fill="#B1B5CA"/>
<rect x="220.86" y="77" width="15" height="16.3333" fill="#F9585C"/>
<rect x="220.86" y="93.3333" width="15" height="16.3333" fill="#FFD769"/>
<rect x="220.86" y="109.667" width="15" height="16.3333" fill="#B1B5CA"/>
<rect width="15" height="58" transform="translate(239.512 68)" fill="#B1B5CA"/>
<rect x="239.512" y="68" width="15" height="19.3333" fill="#F9585C"/>
<rect x="239.512" y="87.3333" width="15" height="19.3333" fill="#FFD769"/>
<rect x="239.512" y="106.667" width="15" height="19.3333" fill="#B1B5CA"/>
<rect width="15" height="69" transform="translate(258.163 57)" fill="#B1B5CA"/>
<rect x="258.163" y="57" width="15" height="23" fill="#F9585C"/>
<rect x="258.163" y="80" width="15" height="23" fill="#FFD769"/>
<rect x="258.163" y="103" width="15" height="23" fill="#B1B5CA"/>
<rect width="15" height="15" transform="translate(276.814 111)" fill="#B1B5CA"/>
<rect x="276.814" y="111" width="15" height="5" fill="#F9585C"/>
<rect x="276.814" y="116" width="15" height="5" fill="#FFD769"/>
<rect x="276.814" y="121" width="15" height="5" fill="#B1B5CA"/>
<rect width="15" height="58" transform="translate(295.465 68)" fill="#B1B5CA"/>
<rect x="295.465" y="68" width="15" height="19.3333" fill="#F9585C"/>
<rect x="295.465" y="87.3333" width="15" height="19.3333" fill="#FFD769"/>
<rect x="295.465" y="106.667" width="15" height="19.3333" fill="#B1B5CA"/>
<rect width="15" height="43" transform="translate(314.116 83)" fill="#B1B5CA"/>
<rect x="314.116" y="83" width="15" height="14.3333" fill="#F9585C"/>
<rect x="314.116" y="97.3333" width="15" height="14.3333" fill="#FFD769"/>
<rect x="314.116" y="111.667" width="15" height="14.3333" fill="#B1B5CA"/>
<rect width="15" height="44" transform="translate(332.767 82)" fill="#B1B5CA"/>
<rect x="332.767" y="82" width="15" height="14.6667" fill="#F9585C"/>
<rect x="332.767" y="96.6667" width="15" height="14.6667" fill="#FFD769"/>
<rect x="332.767" y="111.333" width="15" height="14.6667" fill="#B1B5CA"/>
<rect width="15" height="46" transform="translate(351.419 80)" fill="#B1B5CA"/>
<rect x="351.419" y="80" width="15" height="15.3333" fill="#F9585C"/>
<rect x="351.419" y="95.3333" width="15" height="15.3333" fill="#FFD769"/>
<rect x="351.419" y="110.667" width="15" height="15.3333" fill="#B1B5CA"/>
<rect width="15" height="61" transform="translate(370.07 65)" fill="#B1B5CA"/>
<rect x="370.07" y="65" width="15" height="20.3333" fill="#F9585C"/>
<rect x="370.07" y="85.3333" width="15" height="20.3333" fill="#FFD769"/>
<rect x="370.07" y="105.667" width="15" height="20.3333" fill="#B1B5CA"/>
<rect width="15" height="38" transform="translate(388.721 88)" fill="#B1B5CA"/>
<rect x="388.721" y="88" width="15" height="12.6667" fill="#F9585C"/>
<rect x="388.721" y="100.667" width="15" height="12.6667" fill="#FFD769"/>
<rect x="388.721" y="113.333" width="15" height="12.6667" fill="#B1B5CA"/>
<rect width="15" height="66" transform="translate(407.372 60)" fill="#B1B5CA"/>
<rect x="407.372" y="60" width="15" height="22" fill="#F9585C"/>
<rect x="407.372" y="82" width="15" height="22" fill="#FFD769"/>
<rect x="407.372" y="104" width="15" height="22" fill="#B1B5CA"/>
<rect width="15" height="46" transform="translate(426.023 80)" fill="#B1B5CA"/>
<rect x="426.023" y="80" width="15" height="15.3333" fill="#F9585C"/>
<rect x="426.023" y="95.3333" width="15" height="15.3333" fill="#FFD769"/>
<rect x="426.023" y="110.667" width="15" height="15.3333" fill="#B1B5CA"/>
<rect width="15" height="66" transform="translate(444.674 60)" fill="#B1B5CA"/>
<rect x="444.674" y="60" width="15" height="22" fill="#F9585C"/>
<rect x="444.674" y="82" width="15" height="22" fill="#FFD769"/>
<rect x="444.674" y="104" width="15" height="22" fill="#B1B5CA"/>
<rect width="15" height="57" transform="translate(463.326 69)" fill="#B1B5CA"/>
<rect x="463.326" y="69" width="15" height="19" fill="#F9585C"/>
<rect x="463.326" y="88" width="15" height="19" fill="#FFD769"/>
<rect x="463.326" y="107" width="15" height="19" fill="#B1B5CA"/>
<rect width="15" height="25" transform="translate(481.977 101)" fill="#B1B5CA"/>
<rect x="481.977" y="101" width="15" height="8.33333" fill="#F9585C"/>
<rect x="481.977" y="109.333" width="15" height="8.33333" fill="#FFD769"/>
<rect x="481.977" y="117.667" width="15" height="8.33333" fill="#B1B5CA"/>
<rect width="15" height="73" transform="translate(500.628 53)" fill="#B1B5CA"/>
<rect x="500.628" y="53" width="15" height="24.3333" fill="#F9585C"/>
<rect x="500.628" y="77.3333" width="15" height="24.3333" fill="#FFD769"/>
<rect x="500.628" y="101.667" width="15" height="24.3333" fill="#B1B5CA"/>
<rect width="15" height="69" transform="translate(519.279 57)" fill="#B1B5CA"/>
<rect x="519.279" y="57" width="15" height="23" fill="#F9585C"/>
<rect x="519.279" y="80" width="15" height="23" fill="#FFD769"/>
<rect x="519.279" y="103" width="15" height="23" fill="#B1B5CA"/>
<rect width="15" height="41" transform="translate(537.93 85)" fill="#B1B5CA"/>
<rect x="537.93" y="85" width="15" height="13.6667" fill="#F9585C"/>
<rect x="537.93" y="98.6667" width="15" height="13.6667" fill="#FFD769"/>
<rect x="537.93" y="112.333" width="15" height="13.6667" fill="#B1B5CA"/>
<rect width="15" height="73" transform="translate(556.581 53)" fill="#B1B5CA"/>
<rect x="556.581" y="53" width="15" height="24.3333" fill="#F9585C"/>
<rect x="556.581" y="77.3333" width="15" height="24.3333" fill="#FFD769"/>
<rect x="556.581" y="101.667" width="15" height="24.3333" fill="#B1B5CA"/>
<rect width="15" height="41" transform="translate(575.232 85)" fill="#B1B5CA"/>
<rect x="575.232" y="85" width="15" height="13.6667" fill="#F9585C"/>
<rect x="575.232" y="98.6667" width="15" height="13.6667" fill="#FFD769"/>
<rect x="575.232" y="112.333" width="15" height="13.6667" fill="#B1B5CA"/>
<rect width="15" height="76" transform="translate(593.884 50)" fill="#B1B5CA"/>
<rect x="593.884" y="50" width="15" height="25.3333" fill="#F9585C"/>
<rect x="593.884" y="75.3333" width="15" height="25.3333" fill="#FFD769"/>
<rect x="593.884" y="100.667" width="15" height="25.3333" fill="#B1B5CA"/>
<rect width="15" height="48" transform="translate(612.535 78)" fill="#B1B5CA"/>
<rect x="612.535" y="78" width="15" height="16" fill="#F9585C"/>
<rect x="612.535" y="94" width="15" height="16" fill="#FFD769"/>
<rect x="612.535" y="110" width="15" height="16" fill="#B1B5CA"/>
<rect width="15" height="81" transform="translate(631.186 45)" fill="#B1B5CA"/>
<rect x="631.186" y="45" width="15" height="27" fill="#F9585C"/>
<rect x="631.186" y="72" width="15" height="27" fill="#FFD769"/>
<rect x="631.186" y="99" width="15" height="27" fill="#B1B5CA"/>
<rect width="15" height="76" transform="translate(649.837 50)" fill="#B1B5CA"/>
<rect x="649.837" y="50" width="15" height="25.3333" fill="#F9585C"/>
<rect x="649.837" y="75.3333" width="15" height="25.3333" fill="#FFD769"/>
<rect x="649.837" y="100.667" width="15" height="25.3333" fill="#B1B5CA"/>
<rect width="15" height="38" transform="translate(668.488 88)" fill="#B1B5CA"/>
<rect x="668.488" y="88" width="15" height="12.6667" fill="#F9585C"/>
<rect x="668.488" y="100.667" width="15" height="12.6667" fill="#FFD769"/>
<rect x="668.488" y="113.333" width="15" height="12.6667" fill="#B1B5CA"/>
<rect width="15" height="20" transform="translate(687.14 106)" fill="#B1B5CA"/>
<rect x="687.14" y="106" width="15" height="6.66667" fill="#F9585C"/>
<rect x="687.14" y="112.667" width="15" height="6.66667" fill="#FFD769"/>
<rect x="687.14" y="119.333" width="15" height="6.66667" fill="#B1B5CA"/>
<rect width="15" height="54" transform="translate(705.791 72)" fill="#B1B5CA"/>
<rect x="705.791" y="72" width="15" height="18" fill="#F9585C"/>
<rect x="705.791" y="90" width="15" height="18" fill="#FFD769"/>
<rect x="705.791" y="108" width="15" height="18" fill="#B1B5CA"/>
<rect width="15" height="69" transform="translate(724.442 57)" fill="#B1B5CA"/>
<rect x="724.442" y="57" width="15" height="23" fill="#F9585C"/>
<rect x="724.442" y="80" width="15" height="23" fill="#FFD769"/>
<rect x="724.442" y="103" width="15" height="23" fill="#B1B5CA"/>
<rect width="15" height="34" transform="translate(743.093 92)" fill="#B1B5CA"/>
<rect x="743.093" y="92" width="15" height="11.3333" fill="#F9585C"/>
<rect x="743.093" y="103.333" width="15" height="11.3333" fill="#FFD769"/>
<rect x="743.093" y="114.667" width="15" height="11.3333" fill="#B1B5CA"/>
<rect width="15" height="73" transform="translate(761.744 53)" fill="#B1B5CA"/>
<rect x="761.744" y="53" width="15" height="24.3333" fill="#F9585C"/>
<rect x="761.744" y="77.3333" width="15" height="24.3333" fill="#FFD769"/>
<rect x="761.744" y="101.667" width="15" height="24.3333" fill="#B1B5CA"/>
<rect width="15" height="81" transform="translate(780.396 45)" fill="#B1B5CA"/>
<rect x="780.396" y="45" width="15" height="27" fill="#F9585C"/>
<rect x="780.396" y="72" width="15" height="27" fill="#FFD769"/>
<rect x="780.396" y="99" width="15" height="27" fill="#B1B5CA"/>
<rect width="15" height="36" transform="translate(799.047 90)" fill="#B1B5CA"/>
<rect x="799.047" y="90" width="15" height="12" fill="#F9585C"/>
<rect x="799.047" y="102" width="15" height="12" fill="#FFD769"/>
<rect x="799.047" y="114" width="15" height="12" fill="#B1B5CA"/>
<rect width="15" height="66" transform="translate(817.698 60)" fill="#B1B5CA"/>
<rect x="817.698" y="60" width="15" height="22" fill="#F9585C"/>
<rect x="817.698" y="82" width="15" height="22" fill="#FFD769"/>
<rect x="817.698" y="104" width="15" height="22" fill="#B1B5CA"/>
<rect width="15" height="88" transform="translate(836.349 38)" fill="#B1B5CA"/>
<rect x="836.349" y="38" width="15" height="29.3333" fill="#F9585C"/>
<rect x="836.349" y="67.3333" width="15" height="29.3333" fill="#FFD769"/>
<rect x="836.349" y="96.6667" width="15" height="29.3333" fill="#B1B5CA"/>
<rect width="14" height="51" transform="translate(855 75)" fill="#B1B5CA"/>
<rect x="855" y="75" width="14" height="17" fill="#F9585C"/>
<rect x="855" y="92" width="14" height="17" fill="#FFD769"/>
<rect x="855" y="109" width="14" height="17" fill="#B1B5CA"/>
<path d="M10.7178 123.213V119.018H12V124.819H2.75781V123.213H10.7178ZM12.127 114.911C12.127 115.888 11.8201 116.682 11.2065 117.291C10.5887 117.896 9.76774 118.199 8.74365 118.199H8.55322C7.86768 118.199 7.25618 118.068 6.71875 117.805C6.17708 117.539 5.75602 117.166 5.45557 116.688C5.15511 116.21 5.00488 115.677 5.00488 115.088C5.00488 114.153 5.30322 113.432 5.8999 112.924C6.49658 112.412 7.34082 112.156 8.43262 112.156H9.05469V116.644C9.62174 116.597 10.0703 116.409 10.4004 116.079C10.7305 115.744 10.8955 115.325 10.8955 114.822C10.8955 114.115 10.6099 113.54 10.0386 113.095L10.832 112.264C11.2425 112.539 11.562 112.907 11.7905 113.368C12.0148 113.825 12.127 114.339 12.127 114.911ZM6.24268 115.095C6.24268 115.518 6.39079 115.861 6.68701 116.123C6.98324 116.381 7.39583 116.546 7.9248 116.618V113.679H7.81055C7.29427 113.713 6.90495 113.851 6.64258 114.092C6.37598 114.333 6.24268 114.667 6.24268 115.095ZM12 110.41H6.27441V111.458H5.13184V110.41H4.50342C3.7417 110.41 3.15348 110.199 2.73877 109.775C2.32406 109.352 2.1167 108.76 2.1167 107.998C2.1167 107.727 2.15479 107.439 2.23096 107.135L3.43701 107.173C3.40316 107.342 3.38623 107.539 3.38623 107.763C3.38623 108.5 3.76497 108.868 4.52246 108.868H5.13184V107.471H6.27441V108.868H12L12 110.41ZM3.4624 104.412H5.13184V103.199H6.27441V104.412H10.1084C10.3708 104.412 10.5612 104.361 10.6797 104.259C10.7939 104.153 10.8511 103.967 10.8511 103.701C10.8511 103.523 10.8299 103.343 10.7876 103.161H11.981C12.0783 103.512 12.127 103.851 12.127 104.177C12.127 105.362 11.4731 105.954 10.1655 105.954H6.27441V107.084H5.13184V105.954H3.4624L3.4624 104.412ZM12 94.6743C11.8688 94.742 11.6551 94.8013 11.3589 94.8521C11.8709 95.3429 12.127 95.9438 12.127 96.6548C12.127 97.3446 11.9302 97.9074 11.5366 98.3433C11.1431 98.7791 10.6564 98.9971 10.0767 98.9971C9.34456 98.9971 8.78385 98.7262 8.39453 98.1846C8.00098 97.6387 7.8042 96.86 7.8042 95.8486V94.9028H7.35352C6.99805 94.9028 6.71452 95.0023 6.50293 95.2012C6.28711 95.4001 6.1792 95.7026 6.1792 96.1089C6.1792 96.4601 6.26807 96.7479 6.4458 96.9722C6.6193 97.1965 6.84147 97.3086 7.1123 97.3086V98.8511C6.73568 98.8511 6.38444 98.7262 6.05859 98.4766C5.72852 98.2269 5.47038 97.8883 5.28418 97.4609C5.09798 97.0293 5.00488 96.549 5.00488 96.02C5.00488 95.216 5.20801 94.5749 5.61426 94.0967C6.01628 93.6185 6.58333 93.373 7.31543 93.3604H10.4131C11.0309 93.3604 11.5239 93.2736 11.8921 93.1001H12V94.6743ZM10.8892 96.3691C10.8892 96.0645 10.8151 95.7788 10.667 95.5122C10.5189 95.2414 10.32 95.0382 10.0703 94.9028H8.77539V95.7344C8.77539 96.3057 8.87484 96.7352 9.07373 97.0229C9.27262 97.3107 9.55404 97.4546 9.91797 97.4546C10.2142 97.4546 10.4512 97.3573 10.6289 97.1626C10.8024 96.9637 10.8892 96.6992 10.8892 96.3691ZM7.3916 89.2788L5.13184 87.9712V86.2573L8.51514 88.3584L12 86.1875V87.8887L9.65137 89.2598L12 90.6245V92.3384L8.51514 90.1675L5.13184 92.2622V90.561L7.3916 89.2788ZM12 83.5659V85.1084H5.13184L5.13184 83.5659H12ZM3.34814 85.2036C3.11117 85.2036 2.91439 85.1296 2.75781 84.9814C2.60124 84.8291 2.52295 84.6133 2.52295 84.334C2.52295 84.0547 2.60124 83.8389 2.75781 83.6865C2.91439 83.5342 3.11117 83.458 3.34814 83.458C3.58089 83.458 3.77555 83.5342 3.93213 83.6865C4.08447 83.8389 4.16064 84.0547 4.16064 84.334C4.16064 84.6133 4.08447 84.8291 3.93213 84.9814C3.77555 85.1296 3.58089 85.2036 3.34814 85.2036ZM10.1338 78.0308C9.85872 78.0308 9.64925 78.145 9.50537 78.3735C9.36149 78.5978 9.23454 78.9723 9.12451 79.4971C9.01449 80.0218 8.87484 80.4598 8.70557 80.811C8.33317 81.5812 7.79362 81.9663 7.08691 81.9663C6.49447 81.9663 5.99935 81.7166 5.60156 81.2173C5.20378 80.7179 5.00488 80.0832 5.00488 79.313C5.00488 78.492 5.20801 77.8298 5.61426 77.3262C6.02051 76.8184 6.54736 76.5645 7.19482 76.5645V78.1069C6.8986 78.1069 6.65316 78.217 6.4585 78.437C6.2596 78.6571 6.16016 78.9491 6.16016 79.313C6.16016 79.6515 6.23844 79.9287 6.39502 80.1445C6.5516 80.3561 6.76107 80.4619 7.02344 80.4619C7.26042 80.4619 7.4445 80.3625 7.57568 80.1636C7.70687 79.9647 7.84017 79.5627 7.97559 78.9575C8.10677 78.3524 8.26546 77.8784 8.45166 77.5356C8.63363 77.1886 8.85368 76.9326 9.11182 76.7676C9.36995 76.5983 9.68311 76.5137 10.0513 76.5137C10.6691 76.5137 11.1706 76.7697 11.5557 77.2817C11.9365 77.7938 12.127 78.4645 12.127 79.2939C12.127 79.8568 12.0254 80.3582 11.8223 80.7983C11.6191 81.2384 11.3398 81.5812 10.9844 81.8267C10.6289 82.0721 10.2459 82.1948 9.83545 82.1948V80.6968C10.1994 80.6756 10.4808 80.5381 10.6797 80.2842C10.8743 80.0303 10.9717 79.6938 10.9717 79.2749C10.9717 78.8687 10.8955 78.5597 10.7432 78.3481C10.5866 78.1366 10.3835 78.0308 10.1338 78.0308ZM3.4624 69.9946H5.13184V68.7822H6.27441V69.9946H10.1084C10.3708 69.9946 10.5612 69.9438 10.6797 69.8423C10.7939 69.7365 10.8511 69.5503 10.8511 69.2837C10.8511 69.106 10.8299 68.9261 10.7876 68.7441H11.981C12.0783 69.0954 12.127 69.4339 12.127 69.7598C12.127 70.9447 11.4731 71.5371 10.1655 71.5371H6.27441V72.667H5.13184V71.5371H3.4624V69.9946ZM12 65.9575V67.5H5.13184L5.13184 65.9575H12ZM3.34814 67.5952C3.11117 67.5952 2.91439 67.5212 2.75781 67.373C2.60124 67.2207 2.52295 67.0049 2.52295 66.7256C2.52295 66.4463 2.60124 66.2305 2.75781 66.0781C2.91439 65.9258 3.11117 65.8496 3.34814 65.8496C3.58089 65.8496 3.77555 65.9258 3.93213 66.0781C4.08447 66.2305 4.16064 66.4463 4.16064 66.7256C4.16064 67.0049 4.08447 67.2207 3.93213 67.373C3.77555 67.5212 3.58089 67.5952 3.34814 67.5952ZM3.4624 62.3394H5.13184V61.127H6.27441V62.3394H10.1084C10.3708 62.3394 10.5612 62.2886 10.6797 62.187C10.7939 62.0812 10.8511 61.895 10.8511 61.6284C10.8511 61.4507 10.8299 61.2708 10.7876 61.0889H11.981C12.0783 61.4401 12.127 61.7786 12.127 62.1045C12.127 63.2894 11.4731 63.8818 10.1655 63.8818H6.27441V65.0117H5.13184V63.8818H3.4624L3.4624 62.3394ZM12 58.3022V59.8447H2.25V58.3022H12ZM12.127 53.5923C12.127 54.5698 11.8201 55.3633 11.2065 55.9727C10.5887 56.5778 9.76774 56.8804 8.74365 56.8804H8.55322C7.86768 56.8804 7.25618 56.7492 6.71875 56.4868C6.17708 56.2202 5.75602 55.8478 5.45557 55.3696C5.15511 54.8914 5.00488 54.3582 5.00488 53.77C5.00488 52.8348 5.30322 52.1133 5.8999 51.6055C6.49658 51.0934 7.34082 50.8374 8.43262 50.8374H9.05469V55.3252C9.62174 55.2786 10.0703 55.0903 10.4004 54.7603C10.7305 54.4259 10.8955 54.007 10.8955 53.5034C10.8955 52.7967 10.6099 52.2212 10.0386 51.7769L10.832 50.9453C11.2425 51.2204 11.562 51.5885 11.7905 52.0498C12.0148 52.5068 12.127 53.021 12.127 53.5923ZM6.24268 53.7764C6.24268 54.1995 6.39079 54.5423 6.68701 54.8047C6.98324 55.0628 7.39583 55.2279 7.9248 55.2998V52.3608H7.81055C7.29427 52.3947 6.90495 52.5322 6.64258 52.7734C6.37598 53.0146 6.24268 53.349 6.24268 53.7764ZM8.24219 46.375C7.26465 46.375 6.33789 46.2438 5.46191 45.9814C4.58171 45.7191 3.79671 45.334 3.10693 44.8262C2.41292 44.3184 1.92627 43.7809 1.64697 43.2139L2.54834 42.9092C3.00114 43.5059 3.69303 43.9904 4.62402 44.3628C5.55078 44.731 6.61296 44.932 7.81055 44.9658L8.35645 44.9722C9.63867 44.9722 10.7834 44.7923 11.7905 44.4326C12.7935 44.0687 13.5573 43.5609 14.082 42.9092L14.939 43.2139C14.6597 43.7809 14.1709 44.3205 13.4727 44.8325C12.7786 45.3403 11.9958 45.7254 11.124 45.9878C10.248 46.2459 9.28743 46.375 8.24219 46.375ZM11.3271 37.7041C11.8604 38.1569 12.127 38.8001 12.127 39.6338C12.127 40.3786 11.909 40.9435 11.4731 41.3286C11.0373 41.7095 10.4067 41.8999 9.58154 41.8999H5.13184V40.3574H9.5625C10.4342 40.3574 10.8701 39.9956 10.8701 39.272C10.8701 38.5229 10.6014 38.0173 10.064 37.7549H5.13184V36.2124H12V37.666L11.3271 37.7041ZM5.13184 33.21L5.92529 33.1655C5.31169 32.6577 5.00488 31.9912 5.00488 31.166C5.00488 29.7357 5.82373 29.0078 7.46143 28.9824H12V30.5249H7.55029C7.11442 30.5249 6.79281 30.6201 6.58545 30.8105C6.37386 30.9967 6.26807 31.3035 6.26807 31.731C6.26807 32.353 6.54948 32.8164 7.1123 33.1211H12V34.6636H5.13184L5.13184 33.21ZM12 25.7642V27.3066H5.13184V25.7642H12ZM3.34814 27.4019C3.11117 27.4019 2.91439 27.3278 2.75781 27.1797C2.60124 27.0273 2.52295 26.8115 2.52295 26.5322C2.52295 26.2529 2.60124 26.0371 2.75781 25.8848C2.91439 25.7324 3.11117 25.6562 3.34814 25.6562C3.58089 25.6562 3.77555 25.7324 3.93213 25.8848C4.08447 26.0371 4.16064 26.2529 4.16064 26.5322C4.16064 26.8115 4.08447 27.0273 3.93213 27.1797C3.77555 27.3278 3.58089 27.4019 3.34814 27.4019ZM3.4624 22.146H5.13184V20.9336H6.27441V22.146H10.1084C10.3708 22.146 10.5612 22.0952 10.6797 21.9937C10.7939 21.8879 10.8511 21.7017 10.8511 21.4351C10.8511 21.2573 10.8299 21.0775 10.7876 20.8955H11.981C12.0783 21.2467 12.127 21.5853 12.127 21.9111C12.127 23.096 11.4731 23.6885 10.1655 23.6885H6.27441V24.8184H5.13184V23.6885H3.4624V22.146ZM10.1338 15.8999C9.85872 15.8999 9.64925 16.0142 9.50537 16.2427C9.36149 16.467 9.23454 16.8415 9.12451 17.3662C9.01449 17.891 8.87484 18.3289 8.70557 18.6802C8.33317 19.4504 7.79362 19.8354 7.08691 19.8354C6.49447 19.8354 5.99935 19.5858 5.60156 19.0864C5.20378 18.5871 5.00488 17.9523 5.00488 17.1821C5.00488 16.3612 5.20801 15.6989 5.61426 15.1953C6.02051 14.6875 6.54736 14.4336 7.19482 14.4336V15.9761C6.8986 15.9761 6.65316 16.0861 6.4585 16.3062C6.2596 16.5262 6.16016 16.8182 6.16016 17.1821C6.16016 17.5207 6.23844 17.7979 6.39502 18.0137C6.5516 18.2253 6.76107 18.3311 7.02344 18.3311C7.26042 18.3311 7.4445 18.2316 7.57568 18.0327C7.70687 17.8338 7.84017 17.4318 7.97559 16.8267C8.10677 16.2215 8.26546 15.7476 8.45166 15.4048C8.63363 15.0578 8.85368 14.8018 9.11182 14.6367C9.36995 14.4674 9.68311 14.3828 10.0513 14.3828C10.6691 14.3828 11.1706 14.6388 11.5557 15.1509C11.9365 15.6629 12.127 16.3337 12.127 17.1631C12.127 17.7259 12.0254 18.2274 11.8223 18.6675C11.6191 19.1076 11.3398 19.4504 10.9844 19.6958C10.6289 19.9412 10.2459 20.064 9.83545 20.064V18.5659C10.1994 18.5448 10.4808 18.4072 10.6797 18.1533C10.8743 17.8994 10.9717 17.563 10.9717 17.144C10.9717 16.7378 10.8955 16.4289 10.7432 16.2173C10.5866 16.0057 10.3835 15.8999 10.1338 15.8999ZM8.34375 10.0601C9.2832 10.0601 10.1909 10.1891 11.0669 10.4473C11.9386 10.7054 12.7321 11.0968 13.4473 11.6216C14.1667 12.1463 14.6639 12.6943 14.939 13.2656L14.082 13.5703C13.5911 12.9355 12.8421 12.4341 11.835 12.0659C10.8236 11.6935 9.67041 11.5073 8.37549 11.5073H8.22949C7.05306 11.5073 5.98242 11.6681 5.01758 11.9897C4.0485 12.3114 3.27197 12.7726 2.68799 13.3735L2.51025 13.5703L1.64697 13.2656C1.90934 12.724 2.37484 12.1992 3.04346 11.6914C3.71208 11.1836 4.4611 10.7943 5.29053 10.5234C6.11572 10.2526 6.96842 10.1003 7.84863 10.0664L8.34375 10.0601Z" fill="white" fill-opacity="0.64"/>
<path d="M27.728 12H26.5474V4.17334L24.1797 5.04297V3.97656L27.5439 2.71338H27.728V12ZM36.9639 8.05811C36.9639 9.43343 36.729 10.4554 36.2593 11.124C35.7896 11.7926 35.0553 12.127 34.0566 12.127C33.0706 12.127 32.3407 11.8011 31.8667 11.1494C31.3927 10.4935 31.1473 9.51595 31.1304 8.2168V6.64893C31.1304 5.29053 31.3652 4.28125 31.835 3.62109C32.3047 2.96094 33.041 2.63086 34.0439 2.63086C35.0384 2.63086 35.7705 2.95036 36.2402 3.58936C36.71 4.22412 36.9512 5.20589 36.9639 6.53467V8.05811ZM35.7896 6.45215C35.7896 5.45768 35.6499 4.73405 35.3706 4.28125C35.0913 3.82422 34.6491 3.5957 34.0439 3.5957C33.443 3.5957 33.005 3.8221 32.73 4.2749C32.4549 4.7277 32.3132 5.42383 32.3047 6.36328V8.24219C32.3047 9.24089 32.4486 9.97933 32.7363 10.4575C33.0283 10.9315 33.4684 11.1685 34.0566 11.1685C34.6364 11.1685 35.0659 10.9442 35.3452 10.4956C35.6287 10.047 35.7769 9.34033 35.7896 8.37549V6.45215ZM44.2637 8.05811C44.2637 9.43343 44.0288 10.4554 43.5591 11.124C43.0894 11.7926 42.3551 12.127 41.3564 12.127C40.3704 12.127 39.6405 11.8011 39.1665 11.1494C38.6925 10.4935 38.4471 9.51595 38.4302 8.2168V6.64893C38.4302 5.29053 38.665 4.28125 39.1348 3.62109C39.6045 2.96094 40.3408 2.63086 41.3438 2.63086C42.3382 2.63086 43.0703 2.95036 43.54 3.58936C44.0098 4.22412 44.251 5.20589 44.2637 6.53467V8.05811ZM43.0894 6.45215C43.0894 5.45768 42.9497 4.73405 42.6704 4.28125C42.3911 3.82422 41.9489 3.5957 41.3438 3.5957C40.7428 3.5957 40.3049 3.8221 40.0298 4.2749C39.7547 4.7277 39.613 5.42383 39.6045 6.36328V8.24219C39.6045 9.24089 39.7484 9.97933 40.0361 10.4575C40.3281 10.9315 40.7682 11.1685 41.3564 11.1685C41.9362 11.1685 42.3657 10.9442 42.645 10.4956C42.9285 10.047 43.0767 9.34033 43.0894 8.37549V6.45215Z" fill="white" fill-opacity="0.64"/>
<path d="M37.1353 33.418L33.3076 42H32.0762L35.8911 33.7227H30.8892V32.7578H37.1353V33.418ZM39.0078 37.3662L39.4775 32.7578H44.2129V33.8433H40.4741L40.1948 36.3633C40.6476 36.0967 41.1618 35.9634 41.7373 35.9634C42.5794 35.9634 43.248 36.2427 43.7432 36.8013C44.2383 37.3556 44.4858 38.1068 44.4858 39.0547C44.4858 40.0068 44.2277 40.758 43.7114 41.3081C43.1994 41.854 42.4821 42.127 41.5596 42.127C40.7428 42.127 40.0763 41.9006 39.5601 41.4478C39.0438 40.995 38.7497 40.3687 38.6777 39.5688H39.7886C39.8605 40.0978 40.0488 40.4977 40.3535 40.7686C40.6582 41.0352 41.0602 41.1685 41.5596 41.1685C42.1055 41.1685 42.5329 40.9823 42.8418 40.6099C43.1549 40.2375 43.3115 39.7233 43.3115 39.0674C43.3115 38.4495 43.1423 37.9544 42.8037 37.582C42.4694 37.2054 42.0229 37.0171 41.4644 37.0171C40.9523 37.0171 40.5503 37.1292 40.2583 37.3535L39.9473 37.6074L39.0078 37.3662Z" fill="white" fill-opacity="0.64"/>
<path d="M31.708 67.3662L32.1777 62.7578H36.9131V63.8433H33.1743L32.895 66.3633C33.3478 66.0967 33.862 65.9634 34.4375 65.9634C35.2796 65.9634 35.9482 66.2427 36.4434 66.8013C36.9385 67.3556 37.186 68.1068 37.186 69.0547C37.186 70.0068 36.9279 70.758 36.4116 71.3081C35.8996 71.854 35.1823 72.127 34.2598 72.127C33.443 72.127 32.7765 71.9006 32.2603 71.4478C31.744 70.995 31.4499 70.3687 31.3779 69.5688H32.4888C32.5607 70.0978 32.749 70.4977 33.0537 70.7686C33.3584 71.0352 33.7604 71.1685 34.2598 71.1685C34.8057 71.1685 35.2331 70.9823 35.542 70.6099C35.8551 70.2375 36.0117 69.7233 36.0117 69.0674C36.0117 68.4495 35.8424 67.9544 35.5039 67.582C35.1696 67.2054 34.7231 67.0171 34.1646 67.0171C33.6525 67.0171 33.2505 67.1292 32.9585 67.3535L32.6475 67.6074L31.708 67.3662ZM44.2637 68.0581C44.2637 69.4334 44.0288 70.4554 43.5591 71.124C43.0894 71.7926 42.3551 72.127 41.3564 72.127C40.3704 72.127 39.6405 71.8011 39.1665 71.1494C38.6925 70.4935 38.4471 69.516 38.4302 68.2168V66.6489C38.4302 65.2905 38.665 64.2812 39.1348 63.6211C39.6045 62.9609 40.3408 62.6309 41.3438 62.6309C42.3382 62.6309 43.0703 62.9504 43.54 63.5894C44.0098 64.2241 44.251 65.2059 44.2637 66.5347V68.0581ZM43.0894 66.4521C43.0894 65.4577 42.9497 64.734 42.6704 64.2812C42.3911 63.8242 41.9489 63.5957 41.3438 63.5957C40.7428 63.5957 40.3049 63.8221 40.0298 64.2749C39.7547 64.7277 39.613 65.4238 39.6045 66.3633V68.2422C39.6045 69.2409 39.7484 69.9793 40.0361 70.4575C40.3281 70.9315 40.7682 71.1685 41.3564 71.1685C41.9362 71.1685 42.3657 70.9442 42.645 70.4956C42.9285 70.047 43.0767 69.3403 43.0894 68.3755V66.4521Z" fill="white" fill-opacity="0.64"/>
<path d="M37.2241 102H31.1685V101.156L34.3677 97.6011C34.8416 97.0636 35.1675 96.6278 35.3452 96.2935C35.5272 95.9549 35.6182 95.6058 35.6182 95.2461C35.6182 94.7637 35.4722 94.368 35.1802 94.0591C34.8882 93.7502 34.4989 93.5957 34.0122 93.5957C33.4282 93.5957 32.9733 93.7629 32.6475 94.0972C32.3258 94.4272 32.165 94.8885 32.165 95.481H30.9907C30.9907 94.6304 31.2637 93.9427 31.8096 93.418C32.3597 92.8932 33.0939 92.6309 34.0122 92.6309C34.8713 92.6309 35.5505 92.8573 36.0498 93.3101C36.5492 93.7586 36.7988 94.3574 36.7988 95.1064C36.7988 96.0163 36.2191 97.0996 35.0596 98.3564L32.584 101.042H37.2241V102ZM39.0078 97.3662L39.4775 92.7578H44.2129V93.8433H40.4741L40.1948 96.3633C40.6476 96.0967 41.1618 95.9634 41.7373 95.9634C42.5794 95.9634 43.248 96.2427 43.7432 96.8013C44.2383 97.3556 44.4858 98.1068 44.4858 99.0547C44.4858 100.007 44.2277 100.758 43.7114 101.308C43.1994 101.854 42.4821 102.127 41.5596 102.127C40.7428 102.127 40.0763 101.901 39.5601 101.448C39.0438 100.995 38.7497 100.369 38.6777 99.5688H39.7886C39.8605 100.098 40.0488 100.498 40.3535 100.769C40.6582 101.035 41.0602 101.168 41.5596 101.168C42.1055 101.168 42.5329 100.982 42.8418 100.61C43.1549 100.237 43.3115 99.7233 43.3115 99.0674C43.3115 98.4495 43.1423 97.9544 42.8037 97.582C42.4694 97.2054 42.0229 97.0171 41.4644 97.0171C40.9523 97.0171 40.5503 97.1292 40.2583 97.3535L39.9473 97.6074L39.0078 97.3662Z" fill="white" fill-opacity="0.64"/>
<path d="M44.2637 128.058C44.2637 129.433 44.0288 130.455 43.5591 131.124C43.0894 131.793 42.3551 132.127 41.3564 132.127C40.3704 132.127 39.6405 131.801 39.1665 131.149C38.6925 130.493 38.4471 129.516 38.4302 128.217V126.649C38.4302 125.291 38.665 124.281 39.1348 123.621C39.6045 122.961 40.3408 122.631 41.3438 122.631C42.3382 122.631 43.0703 122.95 43.54 123.589C44.0098 124.224 44.251 125.206 44.2637 126.535V128.058ZM43.0894 126.452C43.0894 125.458 42.9497 124.734 42.6704 124.281C42.3911 123.824 41.9489 123.596 41.3438 123.596C40.7428 123.596 40.3049 123.822 40.0298 124.275C39.7547 124.728 39.613 125.424 39.6045 126.363V128.242C39.6045 129.241 39.7484 129.979 40.0361 130.458C40.3281 130.931 40.7682 131.168 41.3564 131.168C41.9362 131.168 42.3657 130.944 42.645 130.496C42.9285 130.047 43.0767 129.34 43.0894 128.375V126.452Z" fill="white" fill-opacity="0.64"/>
<rect x="53" y="126" width="816" height="1" fill="white" fill-opacity="0.38"/>
<rect x="77" y="127" width="1" height="8" fill="white" fill-opacity="0.38"/>
<path d="M58.8252 137.751V138.748H58.6094C57.6953 138.765 56.9674 139.036 56.4258 139.561C55.8841 140.085 55.571 140.824 55.4863 141.776C55.973 141.217 56.6374 140.938 57.4795 140.938C58.2835 140.938 58.9246 141.222 59.4028 141.789C59.8853 142.356 60.1265 143.088 60.1265 143.985C60.1265 144.937 59.8662 145.699 59.3457 146.27C58.8294 146.841 58.1354 147.127 57.2637 147.127C56.3792 147.127 55.6619 146.788 55.1118 146.111C54.5617 145.43 54.2866 144.554 54.2866 143.483V143.033C54.2866 141.332 54.6484 140.032 55.3721 139.135C56.0999 138.234 57.1812 137.773 58.6157 137.751H58.8252ZM57.2827 141.916C56.8807 141.916 56.5104 142.036 56.1719 142.277C55.8333 142.519 55.5985 142.821 55.4673 143.185V143.617C55.4673 144.378 55.6387 144.992 55.9814 145.458C56.3242 145.923 56.7516 146.156 57.2637 146.156C57.7926 146.156 58.2074 145.961 58.5078 145.572C58.8125 145.182 58.9648 144.673 58.9648 144.042C58.9648 143.407 58.8104 142.895 58.5015 142.506C58.1968 142.112 57.7905 141.916 57.2827 141.916ZM61.5991 146.384C61.5991 146.181 61.6584 146.012 61.7769 145.876C61.8996 145.741 62.0815 145.673 62.3228 145.673C62.564 145.673 62.7459 145.741 62.8687 145.876C62.9956 146.012 63.0591 146.181 63.0591 146.384C63.0591 146.579 62.9956 146.742 62.8687 146.873C62.7459 147.004 62.564 147.07 62.3228 147.07C62.0815 147.07 61.8996 147.004 61.7769 146.873C61.6584 146.742 61.5991 146.579 61.5991 146.384ZM61.6055 140.779C61.6055 140.576 61.6647 140.407 61.7832 140.271C61.9059 140.136 62.0879 140.068 62.3291 140.068C62.5703 140.068 62.7523 140.136 62.875 140.271C63.002 140.407 63.0654 140.576 63.0654 140.779C63.0654 140.974 63.002 141.137 62.875 141.268C62.7523 141.399 62.5703 141.465 62.3291 141.465C62.0879 141.465 61.9059 141.399 61.7832 141.268C61.6647 141.137 61.6055 140.974 61.6055 140.779ZM70.4604 143.058C70.4604 144.433 70.2256 145.455 69.7559 146.124C69.2861 146.793 68.5519 147.127 67.5532 147.127C66.5672 147.127 65.8372 146.801 65.3633 146.149C64.8893 145.493 64.6439 144.516 64.627 143.217V141.649C64.627 140.291 64.8618 139.281 65.3315 138.621C65.8013 137.961 66.5376 137.631 67.5405 137.631C68.535 137.631 69.2671 137.95 69.7368 138.589C70.2065 139.224 70.4478 140.206 70.4604 141.535V143.058ZM69.2861 141.452C69.2861 140.458 69.1465 139.734 68.8672 139.281C68.5879 138.824 68.1457 138.596 67.5405 138.596C66.9396 138.596 66.5016 138.822 66.2266 139.275C65.9515 139.728 65.8097 140.424 65.8013 141.363V143.242C65.8013 144.241 65.9451 144.979 66.2329 145.458C66.5249 145.931 66.965 146.168 67.5532 146.168C68.133 146.168 68.5625 145.944 68.8418 145.496C69.1253 145.047 69.2734 144.34 69.2861 143.375V141.452ZM77.7603 143.058C77.7603 144.433 77.5254 145.455 77.0557 146.124C76.5859 146.793 75.8517 147.127 74.853 147.127C73.867 147.127 73.137 146.801 72.6631 146.149C72.1891 145.493 71.9437 144.516 71.9268 143.217V141.649C71.9268 140.291 72.1616 139.281 72.6313 138.621C73.1011 137.961 73.8374 137.631 74.8403 137.631C75.8348 137.631 76.5669 137.95 77.0366 138.589C77.5063 139.224 77.7476 140.206 77.7603 141.535V143.058ZM76.5859 141.452C76.5859 140.458 76.4463 139.734 76.167 139.281C75.8877 138.824 75.4455 138.596 74.8403 138.596C74.2394 138.596 73.8014 138.822 73.5264 139.275C73.2513 139.728 73.1095 140.424 73.1011 141.363V143.242C73.1011 144.241 73.245 144.979 73.5327 145.458C73.8247 145.931 74.2648 146.168 74.853 146.168C75.4328 146.168 75.8623 145.944 76.1416 145.496C76.4251 145.047 76.5732 144.34 76.5859 143.375V141.452ZM87.8975 144.588H84.0254L83.1558 147H81.8989L85.4282 137.758H86.4946L90.0303 147H88.7798L87.8975 144.588ZM84.3936 143.585H87.5356L85.9614 139.262L84.3936 143.585ZM92.8486 137.758L95.8701 145.299L98.8916 137.758H100.472V147H99.2534V143.401L99.3677 139.516L96.3335 147H95.4004L92.3726 139.535L92.4932 143.401V147H91.2744V137.758H92.8486Z" fill="white" fill-opacity="0.64"/>
<rect x="285.338" y="127" width="1" height="8" fill="white" fill-opacity="0.38"/>
<path d="M267.056 142.938C266.81 143.229 266.516 143.464 266.173 143.642C265.835 143.82 265.462 143.909 265.056 143.909C264.523 143.909 264.057 143.778 263.66 143.515C263.266 143.253 262.961 142.885 262.745 142.411C262.53 141.932 262.422 141.406 262.422 140.83C262.422 140.212 262.538 139.656 262.771 139.161C263.008 138.666 263.342 138.287 263.774 138.024C264.205 137.762 264.709 137.631 265.285 137.631C266.199 137.631 266.918 137.974 267.443 138.659C267.972 139.34 268.236 140.271 268.236 141.452V141.795C268.236 143.593 267.881 144.907 267.17 145.737C266.459 146.562 265.386 146.985 263.952 147.006H263.723V146.016H263.971C264.94 145.999 265.684 145.747 266.205 145.261C266.725 144.77 267.009 143.995 267.056 142.938ZM265.246 142.938C265.64 142.938 266.002 142.817 266.332 142.576C266.666 142.334 266.91 142.036 267.062 141.681V141.211C267.062 140.441 266.895 139.814 266.56 139.332C266.226 138.85 265.803 138.608 265.291 138.608C264.775 138.608 264.36 138.807 264.047 139.205C263.734 139.599 263.577 140.119 263.577 140.767C263.577 141.397 263.727 141.918 264.028 142.328C264.332 142.734 264.739 142.938 265.246 142.938ZM269.937 146.384C269.937 146.181 269.997 146.012 270.115 145.876C270.238 145.741 270.42 145.673 270.661 145.673C270.902 145.673 271.084 145.741 271.207 145.876C271.334 146.012 271.397 146.181 271.397 146.384C271.397 146.579 271.334 146.742 271.207 146.873C271.084 147.004 270.902 147.07 270.661 147.07C270.42 147.07 270.238 147.004 270.115 146.873C269.997 146.742 269.937 146.579 269.937 146.384ZM269.944 140.779C269.944 140.576 270.003 140.407 270.121 140.271C270.244 140.136 270.426 140.068 270.667 140.068C270.909 140.068 271.091 140.136 271.213 140.271C271.34 140.407 271.404 140.576 271.404 140.779C271.404 140.974 271.34 141.137 271.213 141.268C271.091 141.399 270.909 141.465 270.667 141.465C270.426 141.465 270.244 141.399 270.121 141.268C270.003 141.137 269.944 140.974 269.944 140.779ZM278.799 143.058C278.799 144.433 278.564 145.455 278.094 146.124C277.624 146.793 276.89 147.127 275.891 147.127C274.905 147.127 274.175 146.801 273.702 146.149C273.228 145.493 272.982 144.516 272.965 143.217V141.649C272.965 140.291 273.2 139.281 273.67 138.621C274.14 137.961 274.876 137.631 275.879 137.631C276.873 137.631 277.605 137.95 278.075 138.589C278.545 139.224 278.786 140.206 278.799 141.535V143.058ZM277.624 141.452C277.624 140.458 277.485 139.734 277.205 139.281C276.926 138.824 276.484 138.596 275.879 138.596C275.278 138.596 274.84 138.822 274.565 139.275C274.29 139.728 274.148 140.424 274.14 141.363V143.242C274.14 144.241 274.283 144.979 274.571 145.458C274.863 145.931 275.303 146.168 275.891 146.168C276.471 146.168 276.901 145.944 277.18 145.496C277.464 145.047 277.612 144.34 277.624 143.375V141.452ZM286.099 143.058C286.099 144.433 285.864 145.455 285.394 146.124C284.924 146.793 284.19 147.127 283.191 147.127C282.205 147.127 281.475 146.801 281.001 146.149C280.527 145.493 280.282 144.516 280.265 143.217V141.649C280.265 140.291 280.5 139.281 280.97 138.621C281.439 137.961 282.176 137.631 283.179 137.631C284.173 137.631 284.905 137.95 285.375 138.589C285.845 139.224 286.086 140.206 286.099 141.535V143.058ZM284.924 141.452C284.924 140.458 284.785 139.734 284.505 139.281C284.226 138.824 283.784 138.596 283.179 138.596C282.578 138.596 282.14 138.822 281.865 139.275C281.59 139.728 281.448 140.424 281.439 141.363V143.242C281.439 144.241 281.583 144.979 281.871 145.458C282.163 145.931 282.603 146.168 283.191 146.168C283.771 146.168 284.201 145.944 284.48 145.496C284.763 145.047 284.911 144.34 284.924 143.375V141.452ZM296.236 144.588H292.364L291.494 147H290.237L293.766 137.758H294.833L298.369 147H297.118L296.236 144.588ZM292.732 143.585H295.874L294.3 139.262L292.732 143.585ZM301.187 137.758L304.208 145.299L307.23 137.758H308.81V147H307.592V143.401L307.706 139.516L304.672 147H303.739L300.711 139.535L300.831 143.401V147H299.613V137.758H301.187Z" fill="white" fill-opacity="0.64"/>
<rect x="459.677" y="127" width="1" height="8" fill="white" fill-opacity="0.38"/>
<path d="M436.603 147H435.422V139.173L433.055 140.043V138.977L436.419 137.713H436.603V147ZM446.099 147H440.043V146.156L443.242 142.601C443.716 142.064 444.042 141.628 444.22 141.293C444.402 140.955 444.493 140.606 444.493 140.246C444.493 139.764 444.347 139.368 444.055 139.059C443.763 138.75 443.374 138.596 442.887 138.596C442.303 138.596 441.848 138.763 441.522 139.097C441.201 139.427 441.04 139.889 441.04 140.481H439.866C439.866 139.63 440.138 138.943 440.684 138.418C441.235 137.893 441.969 137.631 442.887 137.631C443.746 137.631 444.425 137.857 444.925 138.31C445.424 138.759 445.674 139.357 445.674 140.106C445.674 141.016 445.094 142.1 443.934 143.356L441.459 146.042H446.099V147ZM447.426 146.384C447.426 146.181 447.485 146.012 447.603 145.876C447.726 145.741 447.908 145.673 448.149 145.673C448.39 145.673 448.572 145.741 448.695 145.876C448.822 146.012 448.886 146.181 448.886 146.384C448.886 146.579 448.822 146.742 448.695 146.873C448.572 147.004 448.39 147.07 448.149 147.07C447.908 147.07 447.726 147.004 447.603 146.873C447.485 146.742 447.426 146.579 447.426 146.384ZM447.432 140.779C447.432 140.576 447.491 140.407 447.61 140.271C447.732 140.136 447.914 140.068 448.156 140.068C448.397 140.068 448.579 140.136 448.701 140.271C448.828 140.407 448.892 140.576 448.892 140.779C448.892 140.974 448.828 141.137 448.701 141.268C448.579 141.399 448.397 141.465 448.156 141.465C447.914 141.465 447.732 141.399 447.61 141.268C447.491 141.137 447.432 140.974 447.432 140.779ZM456.287 143.058C456.287 144.433 456.052 145.455 455.582 146.124C455.113 146.793 454.378 147.127 453.38 147.127C452.394 147.127 451.664 146.801 451.19 146.149C450.716 145.493 450.47 144.516 450.453 143.217V141.649C450.453 140.291 450.688 139.281 451.158 138.621C451.628 137.961 452.364 137.631 453.367 137.631C454.361 137.631 455.094 137.95 455.563 138.589C456.033 139.224 456.274 140.206 456.287 141.535V143.058ZM455.113 141.452C455.113 140.458 454.973 139.734 454.694 139.281C454.414 138.824 453.972 138.596 453.367 138.596C452.766 138.596 452.328 138.822 452.053 139.275C451.778 139.728 451.636 140.424 451.628 141.363V143.242C451.628 144.241 451.772 144.979 452.059 145.458C452.351 145.931 452.791 146.168 453.38 146.168C453.959 146.168 454.389 145.944 454.668 145.496C454.952 145.047 455.1 144.34 455.113 143.375V141.452ZM463.587 143.058C463.587 144.433 463.352 145.455 462.882 146.124C462.412 146.793 461.678 147.127 460.68 147.127C459.694 147.127 458.964 146.801 458.49 146.149C458.016 145.493 457.77 144.516 457.753 143.217V141.649C457.753 140.291 457.988 139.281 458.458 138.621C458.928 137.961 459.664 137.631 460.667 137.631C461.661 137.631 462.393 137.95 462.863 138.589C463.333 139.224 463.574 140.206 463.587 141.535V143.058ZM462.412 141.452C462.412 140.458 462.273 139.734 461.993 139.281C461.714 138.824 461.272 138.596 460.667 138.596C460.066 138.596 459.628 138.822 459.353 139.275C459.078 139.728 458.936 140.424 458.928 141.363V143.242C458.928 144.241 459.071 144.979 459.359 145.458C459.651 145.931 460.091 146.168 460.68 146.168C461.259 146.168 461.689 145.944 461.968 145.496C462.252 145.047 462.4 144.34 462.412 143.375V141.452ZM473.724 144.588H469.852L468.982 147H467.725L471.255 137.758H472.321L475.857 147H474.606L473.724 144.588ZM470.22 143.585H473.362L471.788 139.262L470.22 143.585ZM478.675 137.758L481.697 145.299L484.718 137.758H486.299V147H485.08V143.401L485.194 139.516L482.16 147H481.227L478.199 139.535L478.32 143.401V147H477.101V137.758H478.675Z" fill="white" fill-opacity="0.64"/>
<rect x="634.015" y="127" width="1" height="8" fill="white" fill-opacity="0.38"/>
<path d="M612.579 141.808H613.461C614.015 141.799 614.451 141.653 614.769 141.37C615.086 141.086 615.245 140.703 615.245 140.221C615.245 139.137 614.705 138.596 613.626 138.596C613.118 138.596 612.712 138.742 612.407 139.034C612.107 139.321 611.957 139.704 611.957 140.183H610.782C610.782 139.451 611.049 138.843 611.582 138.361C612.12 137.874 612.801 137.631 613.626 137.631C614.498 137.631 615.181 137.861 615.676 138.323C616.172 138.784 616.419 139.425 616.419 140.246C616.419 140.648 616.288 141.037 616.026 141.414C615.767 141.791 615.414 142.072 614.966 142.258C615.473 142.419 615.865 142.686 616.14 143.058C616.419 143.431 616.559 143.885 616.559 144.423C616.559 145.252 616.288 145.91 615.746 146.397C615.205 146.884 614.5 147.127 613.633 147.127C612.765 147.127 612.058 146.892 611.512 146.422C610.971 145.953 610.7 145.333 610.7 144.562H611.881C611.881 145.049 612.039 145.438 612.357 145.73C612.674 146.022 613.099 146.168 613.633 146.168C614.2 146.168 614.633 146.02 614.934 145.724C615.234 145.428 615.384 145.003 615.384 144.448C615.384 143.911 615.219 143.498 614.889 143.21C614.559 142.923 614.083 142.775 613.461 142.766H612.579V141.808ZM618.254 146.384C618.254 146.181 618.313 146.012 618.431 145.876C618.554 145.741 618.736 145.673 618.977 145.673C619.218 145.673 619.4 145.741 619.523 145.876C619.65 146.012 619.714 146.181 619.714 146.384C619.714 146.579 619.65 146.742 619.523 146.873C619.4 147.004 619.218 147.07 618.977 147.07C618.736 147.07 618.554 147.004 618.431 146.873C618.313 146.742 618.254 146.579 618.254 146.384ZM618.26 140.779C618.26 140.576 618.319 140.407 618.438 140.271C618.56 140.136 618.742 140.068 618.984 140.068C619.225 140.068 619.407 140.136 619.529 140.271C619.656 140.407 619.72 140.576 619.72 140.779C619.72 140.974 619.656 141.137 619.529 141.268C619.407 141.399 619.225 141.465 618.984 141.465C618.742 141.465 618.56 141.399 618.438 141.268C618.319 141.137 618.26 140.974 618.26 140.779ZM627.115 143.058C627.115 144.433 626.88 145.455 626.41 146.124C625.941 146.793 625.206 147.127 624.208 147.127C623.222 147.127 622.492 146.801 622.018 146.149C621.544 145.493 621.298 144.516 621.281 143.217V141.649C621.281 140.291 621.516 139.281 621.986 138.621C622.456 137.961 623.192 137.631 624.195 137.631C625.189 137.631 625.922 137.95 626.391 138.589C626.861 139.224 627.102 140.206 627.115 141.535V143.058ZM625.941 141.452C625.941 140.458 625.801 139.734 625.522 139.281C625.242 138.824 624.8 138.596 624.195 138.596C623.594 138.596 623.156 138.822 622.881 139.275C622.606 139.728 622.464 140.424 622.456 141.363V143.242C622.456 144.241 622.6 144.979 622.887 145.458C623.179 145.931 623.619 146.168 624.208 146.168C624.787 146.168 625.217 145.944 625.496 145.496C625.78 145.047 625.928 144.34 625.941 143.375V141.452ZM634.415 143.058C634.415 144.433 634.18 145.455 633.71 146.124C633.24 146.793 632.506 147.127 631.508 147.127C630.522 147.127 629.792 146.801 629.318 146.149C628.844 145.493 628.598 144.516 628.581 143.217V141.649C628.581 140.291 628.816 139.281 629.286 138.621C629.756 137.961 630.492 137.631 631.495 137.631C632.489 137.631 633.221 137.95 633.691 138.589C634.161 139.224 634.402 140.206 634.415 141.535V143.058ZM633.24 141.452C633.24 140.458 633.101 139.734 632.821 139.281C632.542 138.824 632.1 138.596 631.495 138.596C630.894 138.596 630.456 138.822 630.181 139.275C629.906 139.728 629.764 140.424 629.756 141.363V143.242C629.756 144.241 629.899 144.979 630.187 145.458C630.479 145.931 630.919 146.168 631.508 146.168C632.087 146.168 632.517 145.944 632.796 145.496C633.08 145.047 633.228 144.34 633.24 143.375V141.452ZM640.667 143.382V147H639.448V137.758H642.857C643.869 137.758 644.66 138.016 645.231 138.532C645.807 139.049 646.094 139.732 646.094 140.583C646.094 141.48 645.813 142.172 645.25 142.658C644.692 143.141 643.89 143.382 642.844 143.382H640.667ZM640.667 142.385H642.857C643.509 142.385 644.008 142.233 644.355 141.928C644.702 141.619 644.876 141.175 644.876 140.595C644.876 140.045 644.702 139.605 644.355 139.275C644.008 138.945 643.532 138.773 642.927 138.761H640.667V142.385ZM649.224 137.758L652.245 145.299L655.267 137.758H656.847V147H655.629V143.401L655.743 139.516L652.709 147H651.776L648.748 139.535L648.868 143.401V147H647.65V137.758H649.224Z" fill="white" fill-opacity="0.64"/>
<rect x="844" y="127" width="1" height="8" fill="white" fill-opacity="0.38"/>
<path d="M825.465 137.751V138.748H825.249C824.335 138.765 823.607 139.036 823.065 139.561C822.524 140.085 822.211 140.824 822.126 141.776C822.613 141.217 823.277 140.938 824.119 140.938C824.923 140.938 825.564 141.222 826.042 141.789C826.525 142.356 826.766 143.088 826.766 143.985C826.766 144.937 826.506 145.699 825.985 146.27C825.469 146.841 824.775 147.127 823.903 147.127C823.019 147.127 822.302 146.788 821.751 146.111C821.201 145.43 820.926 144.554 820.926 143.483V143.033C820.926 141.332 821.288 140.032 822.012 139.135C822.74 138.234 823.821 137.773 825.255 137.751H825.465ZM823.922 141.916C823.52 141.916 823.15 142.036 822.812 142.277C822.473 142.519 822.238 142.821 822.107 143.185V143.617C822.107 144.378 822.278 144.992 822.621 145.458C822.964 145.923 823.391 146.156 823.903 146.156C824.432 146.156 824.847 145.961 825.147 145.572C825.452 145.182 825.604 144.673 825.604 144.042C825.604 143.407 825.45 142.895 825.141 142.506C824.836 142.112 824.43 141.916 823.922 141.916ZM828.239 146.384C828.239 146.181 828.298 146.012 828.417 145.876C828.539 145.741 828.721 145.673 828.962 145.673C829.204 145.673 829.386 145.741 829.508 145.876C829.635 146.012 829.699 146.181 829.699 146.384C829.699 146.579 829.635 146.742 829.508 146.873C829.386 147.004 829.204 147.07 828.962 147.07C828.721 147.07 828.539 147.004 828.417 146.873C828.298 146.742 828.239 146.579 828.239 146.384ZM828.245 140.779C828.245 140.576 828.304 140.407 828.423 140.271C828.546 140.136 828.728 140.068 828.969 140.068C829.21 140.068 829.392 140.136 829.515 140.271C829.642 140.407 829.705 140.576 829.705 140.779C829.705 140.974 829.642 141.137 829.515 141.268C829.392 141.399 829.21 141.465 828.969 141.465C828.728 141.465 828.546 141.399 828.423 141.268C828.304 141.137 828.245 140.974 828.245 140.779ZM837.1 143.058C837.1 144.433 836.865 145.455 836.396 146.124C835.926 146.793 835.192 147.127 834.193 147.127C833.207 147.127 832.477 146.801 832.003 146.149C831.529 145.493 831.284 144.516 831.267 143.217V141.649C831.267 140.291 831.501 139.281 831.971 138.621C832.441 137.961 833.177 137.631 834.18 137.631C835.175 137.631 835.907 137.95 836.376 138.589C836.846 139.224 837.087 140.206 837.1 141.535V143.058ZM835.926 141.452C835.926 140.458 835.786 139.734 835.507 139.281C835.228 138.824 834.785 138.596 834.18 138.596C833.579 138.596 833.141 138.822 832.866 139.275C832.591 139.728 832.449 140.424 832.441 141.363V143.242C832.441 144.241 832.585 144.979 832.873 145.458C833.165 145.931 833.605 146.168 834.193 146.168C834.773 146.168 835.202 145.944 835.481 145.496C835.765 145.047 835.913 144.34 835.926 143.375V141.452ZM844.4 143.058C844.4 144.433 844.165 145.455 843.695 146.124C843.226 146.793 842.491 147.127 841.493 147.127C840.507 147.127 839.777 146.801 839.303 146.149C838.829 145.493 838.583 144.516 838.566 143.217V141.649C838.566 140.291 838.801 139.281 839.271 138.621C839.741 137.961 840.477 137.631 841.48 137.631C842.474 137.631 843.207 137.95 843.676 138.589C844.146 139.224 844.387 140.206 844.4 141.535V143.058ZM843.226 141.452C843.226 140.458 843.086 139.734 842.807 139.281C842.527 138.824 842.085 138.596 841.48 138.596C840.879 138.596 840.441 138.822 840.166 139.275C839.891 139.728 839.749 140.424 839.741 141.363V143.242C839.741 144.241 839.885 144.979 840.172 145.458C840.464 145.931 840.904 146.168 841.493 146.168C842.072 146.168 842.502 145.944 842.781 145.496C843.065 145.047 843.213 144.34 843.226 143.375V141.452ZM850.652 143.382V147H849.434V137.758H852.842C853.854 137.758 854.645 138.016 855.216 138.532C855.792 139.049 856.08 139.732 856.08 140.583C856.08 141.48 855.798 142.172 855.235 142.658C854.677 143.141 853.875 143.382 852.83 143.382H850.652ZM850.652 142.385H852.842C853.494 142.385 853.993 142.233 854.34 141.928C854.687 141.619 854.861 141.175 854.861 140.595C854.861 140.045 854.687 139.605 854.34 139.275C853.993 138.945 853.517 138.773 852.912 138.761H850.652V142.385ZM859.209 137.758L862.23 145.299L865.252 137.758H866.833V147H865.614V143.401L865.728 139.516L862.694 147H861.761L858.733 139.535L858.854 143.401V147H857.635V137.758H859.209Z" fill="white" fill-opacity="0.64"/>
<rect x="53" y="7" width="816" height="1" fill="white" fill-opacity="0.38"/>
<rect x="53" y="38" width="816" height="1" fill="white" fill-opacity="0.38"/>
<rect x="53" y="69" width="816" height="1" fill="white" fill-opacity="0.38"/>
<rect x="53" y="100" width="816" height="1" fill="white" fill-opacity="0.38"/>
<circle cx="36" cy="173.5" r="5" fill="#F9585C"/>
<path d="M55.6602 174.519C55.5635 175.346 55.2573 175.985 54.7417 176.436C54.2297 176.884 53.5475 177.107 52.6953 177.107C51.7715 177.107 51.0303 176.776 50.4717 176.114C49.9167 175.451 49.6392 174.565 49.6392 173.455V172.703C49.6392 171.976 49.7681 171.337 50.0259 170.786C50.2873 170.234 50.6561 169.812 51.1323 169.518C51.6086 169.221 52.16 169.072 52.7866 169.072C53.6174 169.072 54.2834 169.305 54.7847 169.771C55.286 170.232 55.5778 170.873 55.6602 171.693H54.6235C54.534 171.07 54.3389 170.619 54.0381 170.34C53.7409 170.061 53.3237 169.921 52.7866 169.921C52.1278 169.921 51.6104 170.164 51.2344 170.651C50.862 171.138 50.6758 171.831 50.6758 172.73V173.487C50.6758 174.336 50.853 175.011 51.2075 175.512C51.562 176.014 52.0579 176.264 52.6953 176.264C53.2682 176.264 53.7069 176.135 54.0112 175.877C54.3192 175.616 54.5233 175.163 54.6235 174.519H55.6602ZM59.7261 172.08C59.5757 172.055 59.4128 172.042 59.2373 172.042C58.5856 172.042 58.1434 172.32 57.9106 172.875V177H56.917V171.188H57.8838L57.8999 171.86C58.2257 171.341 58.6877 171.081 59.2856 171.081C59.479 171.081 59.6258 171.106 59.7261 171.156V172.08ZM61.7241 177H60.7305V171.188H61.7241V177ZM60.6499 169.647C60.6499 169.486 60.6982 169.35 60.7949 169.239C60.8952 169.128 61.042 169.072 61.2354 169.072C61.4287 169.072 61.5755 169.128 61.6758 169.239C61.776 169.35 61.8262 169.486 61.8262 169.647C61.8262 169.808 61.776 169.942 61.6758 170.05C61.5755 170.157 61.4287 170.211 61.2354 170.211C61.042 170.211 60.8952 170.157 60.7949 170.05C60.6982 169.942 60.6499 169.808 60.6499 169.647ZM64.6675 169.781V171.188H65.7524V171.957H64.6675V175.561C64.6675 175.793 64.7158 175.969 64.8125 176.087C64.9092 176.201 65.0739 176.259 65.3066 176.259C65.4212 176.259 65.5788 176.237 65.7793 176.194V177C65.5179 177.072 65.2637 177.107 65.0166 177.107C64.5726 177.107 64.2378 176.973 64.0122 176.705C63.7866 176.436 63.6738 176.055 63.6738 175.561V171.957H62.6157V171.188H63.6738V169.781H64.6675ZM67.9976 177H67.0039V171.188H67.9976V177ZM66.9233 169.647C66.9233 169.486 66.9717 169.35 67.0684 169.239C67.1686 169.128 67.3154 169.072 67.5088 169.072C67.7021 169.072 67.849 169.128 67.9492 169.239C68.0495 169.35 68.0996 169.486 68.0996 169.647C68.0996 169.808 68.0495 169.942 67.9492 170.05C67.849 170.157 67.7021 170.211 67.5088 170.211C67.3154 170.211 67.1686 170.157 67.0684 170.05C66.9717 169.942 66.9233 169.808 66.9233 169.647ZM71.9238 176.296C72.2783 176.296 72.5881 176.189 72.853 175.974C73.118 175.759 73.2648 175.491 73.2935 175.168H74.2334C74.2155 175.501 74.1009 175.818 73.8896 176.119C73.6784 176.42 73.3955 176.66 73.041 176.839C72.6901 177.018 72.3177 177.107 71.9238 177.107C71.1325 177.107 70.5023 176.844 70.0332 176.318C69.5677 175.788 69.335 175.065 69.335 174.148V173.981C69.335 173.416 69.4388 172.913 69.6465 172.472C69.8542 172.032 70.1514 171.69 70.5381 171.446C70.9284 171.203 71.3885 171.081 71.9185 171.081C72.5701 171.081 73.1108 171.276 73.5405 171.667C73.9738 172.057 74.2048 172.563 74.2334 173.187H73.2935C73.2648 172.811 73.1216 172.503 72.8638 172.263C72.6095 172.019 72.2944 171.897 71.9185 171.897C71.4136 171.897 71.0215 172.08 70.7422 172.445C70.4665 172.807 70.3286 173.332 70.3286 174.019V174.207C70.3286 174.877 70.4665 175.392 70.7422 175.754C71.0179 176.116 71.4118 176.296 71.9238 176.296ZM78.9385 177C78.8812 176.885 78.8346 176.681 78.7988 176.388C78.3369 176.868 77.7855 177.107 77.1445 177.107C76.5716 177.107 76.1007 176.946 75.7319 176.624C75.3667 176.298 75.1841 175.886 75.1841 175.389C75.1841 174.784 75.4132 174.314 75.8716 173.981C76.3335 173.645 76.9816 173.477 77.8159 173.477H78.7827V173.02C78.7827 172.673 78.6789 172.397 78.4712 172.193C78.2635 171.985 77.9574 171.881 77.5527 171.881C77.1982 171.881 76.901 171.971 76.6611 172.15C76.4212 172.329 76.3013 172.546 76.3013 172.8H75.3022C75.3022 172.51 75.4043 172.23 75.6084 171.962C75.8161 171.69 76.0954 171.475 76.4463 171.317C76.8008 171.16 77.1893 171.081 77.6118 171.081C78.2814 171.081 78.806 171.249 79.1855 171.586C79.5651 171.919 79.762 172.379 79.7764 172.966V175.641C79.7764 176.175 79.8444 176.599 79.9805 176.914V177H78.9385ZM77.2896 176.243C77.6011 176.243 77.8965 176.162 78.1758 176.001C78.4551 175.84 78.6574 175.63 78.7827 175.373V174.18H78.0039C76.7865 174.18 76.1777 174.536 76.1777 175.249C76.1777 175.561 76.2816 175.804 76.4893 175.979C76.6969 176.155 76.9637 176.243 77.2896 176.243ZM82.4136 177H81.4199V168.75H82.4136V177Z" fill="white" fill-opacity="0.94"/>
<circle cx="113" cy="173.5" r="5" fill="#FFD769"/>
<path d="M131.328 173.385H127.939V176.157H131.876V177H126.908V169.18H131.822V170.028H127.939V172.542H131.328V173.385ZM135.813 172.08C135.663 172.055 135.5 172.042 135.324 172.042C134.673 172.042 134.23 172.32 133.998 172.875V177H133.004V171.188H133.971L133.987 171.86C134.313 171.341 134.775 171.081 135.373 171.081C135.566 171.081 135.713 171.106 135.813 171.156V172.08ZM139.541 172.08C139.39 172.055 139.227 172.042 139.052 172.042C138.4 172.042 137.958 172.32 137.725 172.875V177H136.731V171.188H137.698L137.714 171.86C138.04 171.341 138.502 171.081 139.1 171.081C139.293 171.081 139.44 171.106 139.541 171.156V172.08ZM140.088 174.041C140.088 173.471 140.199 172.959 140.421 172.504C140.647 172.05 140.958 171.699 141.356 171.452C141.757 171.205 142.214 171.081 142.726 171.081C143.517 171.081 144.156 171.355 144.643 171.903C145.134 172.451 145.379 173.179 145.379 174.089V174.159C145.379 174.724 145.27 175.233 145.051 175.684C144.836 176.132 144.527 176.481 144.122 176.731C143.721 176.982 143.259 177.107 142.736 177.107C141.949 177.107 141.309 176.833 140.819 176.286C140.332 175.738 140.088 175.013 140.088 174.11V174.041ZM141.087 174.159C141.087 174.803 141.236 175.321 141.533 175.711C141.834 176.101 142.235 176.296 142.736 176.296C143.241 176.296 143.642 176.099 143.939 175.706C144.237 175.308 144.385 174.753 144.385 174.041C144.385 173.403 144.233 172.888 143.929 172.494C143.628 172.096 143.227 171.897 142.726 171.897C142.235 171.897 141.839 172.093 141.539 172.483C141.238 172.873 141.087 173.432 141.087 174.159ZM149.434 172.08C149.284 172.055 149.121 172.042 148.945 172.042C148.294 172.042 147.851 172.32 147.619 172.875V177H146.625V171.188H147.592L147.608 171.86C147.934 171.341 148.396 171.081 148.994 171.081C149.187 171.081 149.334 171.106 149.434 171.156V172.08Z" fill="white" fill-opacity="0.94"/>
<circle cx="179" cy="173.5" r="5" fill="#B1B5CA"/>
<path d="M198.923 173.342C198.923 174.109 198.794 174.778 198.537 175.351C198.279 175.92 197.914 176.355 197.441 176.656C196.968 176.957 196.417 177.107 195.787 177.107C195.171 177.107 194.625 176.957 194.148 176.656C193.672 176.352 193.302 175.92 193.037 175.362C192.775 174.8 192.641 174.15 192.634 173.412V172.848C192.634 172.096 192.764 171.432 193.026 170.855C193.287 170.279 193.656 169.839 194.132 169.534C194.612 169.226 195.16 169.072 195.776 169.072C196.403 169.072 196.954 169.224 197.43 169.529C197.91 169.83 198.279 170.268 198.537 170.845C198.794 171.418 198.923 172.085 198.923 172.848V173.342ZM197.897 172.837C197.897 171.91 197.711 171.199 197.339 170.705C196.966 170.207 196.445 169.958 195.776 169.958C195.124 169.958 194.61 170.207 194.234 170.705C193.862 171.199 193.67 171.887 193.66 172.768V173.342C193.66 174.241 193.848 174.948 194.224 175.464C194.603 175.976 195.124 176.232 195.787 176.232C196.453 176.232 196.968 175.99 197.333 175.507C197.699 175.02 197.887 174.323 197.897 173.417V172.837ZM201.663 169.781V171.188H202.748V171.957H201.663V175.561C201.663 175.793 201.711 175.969 201.808 176.087C201.904 176.201 202.069 176.259 202.302 176.259C202.416 176.259 202.574 176.237 202.774 176.194V177C202.513 177.072 202.259 177.107 202.012 177.107C201.568 177.107 201.233 176.973 201.007 176.705C200.782 176.436 200.669 176.055 200.669 175.561V171.957H199.611V171.188H200.669V169.781H201.663ZM204.907 171.892C205.347 171.351 205.92 171.081 206.625 171.081C207.854 171.081 208.473 171.774 208.484 173.16V177H207.49V173.154C207.487 172.735 207.39 172.426 207.2 172.225C207.014 172.025 206.722 171.924 206.325 171.924C206.002 171.924 205.72 172.01 205.476 172.182C205.233 172.354 205.043 172.58 204.907 172.859V177H203.913V168.75H204.907V171.892ZM212.383 177.107C211.596 177.107 210.955 176.85 210.46 176.334C209.966 175.815 209.719 175.122 209.719 174.255V174.073C209.719 173.496 209.828 172.982 210.047 172.531C210.269 172.076 210.577 171.722 210.971 171.468C211.368 171.21 211.798 171.081 212.26 171.081C213.015 171.081 213.603 171.33 214.021 171.828C214.44 172.325 214.65 173.038 214.65 173.965V174.379H210.713C210.727 174.952 210.894 175.416 211.212 175.77C211.535 176.121 211.943 176.296 212.437 176.296C212.788 176.296 213.085 176.225 213.329 176.082C213.572 175.938 213.785 175.749 213.968 175.512L214.575 175.985C214.088 176.733 213.357 177.107 212.383 177.107ZM212.26 171.897C211.859 171.897 211.522 172.044 211.25 172.338C210.978 172.628 210.81 173.036 210.745 173.562H213.656V173.487C213.628 172.982 213.492 172.592 213.248 172.316C213.005 172.037 212.675 171.897 212.26 171.897ZM218.614 172.08C218.463 172.055 218.3 172.042 218.125 172.042C217.473 172.042 217.031 172.32 216.798 172.875V177H215.805V171.188H216.771L216.788 171.86C217.113 171.341 217.575 171.081 218.173 171.081C218.367 171.081 218.514 171.106 218.614 171.156V172.08Z" fill="white" fill-opacity="0.94"/>
</svg>
