<svg width="449" height="189" viewBox="0 0 449 189" fill="none" xmlns="http://www.w3.org/2000/svg">
<path d="M10.7178 123.213V119.018H12V124.819H2.75781V123.213H10.7178ZM12.127 114.911C12.127 115.888 11.8201 116.682 11.2065 117.291C10.5887 117.896 9.76774 118.199 8.74365 118.199H8.55322C7.86768 118.199 7.25618 118.068 6.71875 117.805C6.17708 117.539 5.75602 117.166 5.45557 116.688C5.15511 116.21 5.00488 115.677 5.00488 115.088C5.00488 114.153 5.30322 113.432 5.8999 112.924C6.49658 112.412 7.34082 112.156 8.43262 112.156H9.05469V116.644C9.62174 116.597 10.0703 116.409 10.4004 116.079C10.7305 115.744 10.8955 115.325 10.8955 114.822C10.8955 114.115 10.6099 113.54 10.0386 113.095L10.832 112.264C11.2425 112.539 11.562 112.907 11.7905 113.368C12.0148 113.825 12.127 114.339 12.127 114.911ZM6.24268 115.095C6.24268 115.518 6.39079 115.861 6.68701 116.123C6.98324 116.381 7.39583 116.546 7.9248 116.618V113.679H7.81055C7.29427 113.713 6.90495 113.851 6.64258 114.092C6.37598 114.333 6.24268 114.667 6.24268 115.095ZM12 110.41H6.27441V111.458H5.13184V110.41H4.50342C3.7417 110.41 3.15348 110.199 2.73877 109.775C2.32406 109.352 2.1167 108.76 2.1167 107.998C2.1167 107.727 2.15479 107.439 2.23096 107.135L3.43701 107.173C3.40316 107.342 3.38623 107.539 3.38623 107.763C3.38623 108.5 3.76497 108.868 4.52246 108.868H5.13184V107.471H6.27441V108.868H12L12 110.41ZM3.4624 104.412H5.13184V103.199H6.27441V104.412H10.1084C10.3708 104.412 10.5612 104.361 10.6797 104.259C10.7939 104.153 10.8511 103.967 10.8511 103.701C10.8511 103.523 10.8299 103.343 10.7876 103.161H11.981C12.0783 103.512 12.127 103.851 12.127 104.177C12.127 105.362 11.4731 105.954 10.1655 105.954H6.27441V107.084H5.13184V105.954H3.4624L3.4624 104.412ZM12 94.6743C11.8688 94.742 11.6551 94.8013 11.3589 94.8521C11.8709 95.3429 12.127 95.9438 12.127 96.6548C12.127 97.3446 11.9302 97.9074 11.5366 98.3433C11.1431 98.7791 10.6564 98.9971 10.0767 98.9971C9.34456 98.9971 8.78385 98.7262 8.39453 98.1846C8.00098 97.6387 7.8042 96.86 7.8042 95.8486V94.9028H7.35352C6.99805 94.9028 6.71452 95.0023 6.50293 95.2012C6.28711 95.4001 6.1792 95.7026 6.1792 96.1089C6.1792 96.4601 6.26807 96.7479 6.4458 96.9722C6.6193 97.1965 6.84147 97.3086 7.1123 97.3086V98.8511C6.73568 98.8511 6.38444 98.7262 6.05859 98.4766C5.72852 98.2269 5.47038 97.8883 5.28418 97.4609C5.09798 97.0293 5.00488 96.549 5.00488 96.02C5.00488 95.216 5.20801 94.5749 5.61426 94.0967C6.01628 93.6185 6.58333 93.373 7.31543 93.3604H10.4131C11.0309 93.3604 11.5239 93.2736 11.8921 93.1001H12V94.6743ZM10.8892 96.3691C10.8892 96.0645 10.8151 95.7788 10.667 95.5122C10.5189 95.2414 10.32 95.0382 10.0703 94.9028H8.77539V95.7344C8.77539 96.3057 8.87484 96.7352 9.07373 97.0229C9.27262 97.3107 9.55404 97.4546 9.91797 97.4546C10.2142 97.4546 10.4512 97.3573 10.6289 97.1626C10.8024 96.9637 10.8892 96.6992 10.8892 96.3691ZM7.3916 89.2788L5.13184 87.9712V86.2573L8.51514 88.3584L12 86.1875V87.8887L9.65137 89.2598L12 90.6245V92.3384L8.51514 90.1675L5.13184 92.2622V90.561L7.3916 89.2788ZM12 83.5659V85.1084H5.13184L5.13184 83.5659H12ZM3.34814 85.2036C3.11117 85.2036 2.91439 85.1296 2.75781 84.9814C2.60124 84.8291 2.52295 84.6133 2.52295 84.334C2.52295 84.0547 2.60124 83.8389 2.75781 83.6865C2.91439 83.5342 3.11117 83.458 3.34814 83.458C3.58089 83.458 3.77555 83.5342 3.93213 83.6865C4.08447 83.8389 4.16064 84.0547 4.16064 84.334C4.16064 84.6133 4.08447 84.8291 3.93213 84.9814C3.77555 85.1296 3.58089 85.2036 3.34814 85.2036ZM10.1338 78.0308C9.85872 78.0308 9.64925 78.145 9.50537 78.3735C9.36149 78.5978 9.23454 78.9723 9.12451 79.4971C9.01449 80.0218 8.87484 80.4598 8.70557 80.811C8.33317 81.5812 7.79362 81.9663 7.08691 81.9663C6.49447 81.9663 5.99935 81.7166 5.60156 81.2173C5.20378 80.7179 5.00488 80.0832 5.00488 79.313C5.00488 78.492 5.20801 77.8298 5.61426 77.3262C6.02051 76.8184 6.54736 76.5645 7.19482 76.5645V78.1069C6.8986 78.1069 6.65316 78.217 6.4585 78.437C6.2596 78.6571 6.16016 78.9491 6.16016 79.313C6.16016 79.6515 6.23844 79.9287 6.39502 80.1445C6.5516 80.3561 6.76107 80.4619 7.02344 80.4619C7.26042 80.4619 7.4445 80.3625 7.57568 80.1636C7.70687 79.9647 7.84017 79.5627 7.97559 78.9575C8.10677 78.3524 8.26546 77.8784 8.45166 77.5356C8.63363 77.1886 8.85368 76.9326 9.11182 76.7676C9.36995 76.5983 9.68311 76.5137 10.0513 76.5137C10.6691 76.5137 11.1706 76.7697 11.5557 77.2817C11.9365 77.7938 12.127 78.4645 12.127 79.2939C12.127 79.8568 12.0254 80.3582 11.8223 80.7983C11.6191 81.2384 11.3398 81.5812 10.9844 81.8267C10.6289 82.0721 10.2459 82.1948 9.83545 82.1948V80.6968C10.1994 80.6756 10.4808 80.5381 10.6797 80.2842C10.8743 80.0303 10.9717 79.6938 10.9717 79.2749C10.9717 78.8687 10.8955 78.5597 10.7432 78.3481C10.5866 78.1366 10.3835 78.0308 10.1338 78.0308ZM3.4624 69.9946H5.13184V68.7822H6.27441V69.9946H10.1084C10.3708 69.9946 10.5612 69.9438 10.6797 69.8423C10.7939 69.7365 10.8511 69.5503 10.8511 69.2837C10.8511 69.106 10.8299 68.9261 10.7876 68.7441H11.981C12.0783 69.0954 12.127 69.4339 12.127 69.7598C12.127 70.9447 11.4731 71.5371 10.1655 71.5371H6.27441V72.667H5.13184V71.5371H3.4624V69.9946ZM12 65.9575V67.5H5.13184L5.13184 65.9575H12ZM3.34814 67.5952C3.11117 67.5952 2.91439 67.5212 2.75781 67.373C2.60124 67.2207 2.52295 67.0049 2.52295 66.7256C2.52295 66.4463 2.60124 66.2305 2.75781 66.0781C2.91439 65.9258 3.11117 65.8496 3.34814 65.8496C3.58089 65.8496 3.77555 65.9258 3.93213 66.0781C4.08447 66.2305 4.16064 66.4463 4.16064 66.7256C4.16064 67.0049 4.08447 67.2207 3.93213 67.373C3.77555 67.5212 3.58089 67.5952 3.34814 67.5952ZM3.4624 62.3394H5.13184V61.127H6.27441V62.3394H10.1084C10.3708 62.3394 10.5612 62.2886 10.6797 62.187C10.7939 62.0812 10.8511 61.895 10.8511 61.6284C10.8511 61.4507 10.8299 61.2708 10.7876 61.0889H11.981C12.0783 61.4401 12.127 61.7786 12.127 62.1045C12.127 63.2894 11.4731 63.8818 10.1655 63.8818H6.27441V65.0117H5.13184V63.8818H3.4624L3.4624 62.3394ZM12 58.3022V59.8447H2.25V58.3022H12ZM12.127 53.5923C12.127 54.5698 11.8201 55.3633 11.2065 55.9727C10.5887 56.5778 9.76774 56.8804 8.74365 56.8804H8.55322C7.86768 56.8804 7.25618 56.7492 6.71875 56.4868C6.17708 56.2202 5.75602 55.8478 5.45557 55.3696C5.15511 54.8914 5.00488 54.3582 5.00488 53.77C5.00488 52.8348 5.30322 52.1133 5.8999 51.6055C6.49658 51.0934 7.34082 50.8374 8.43262 50.8374H9.05469V55.3252C9.62174 55.2786 10.0703 55.0903 10.4004 54.7603C10.7305 54.4259 10.8955 54.007 10.8955 53.5034C10.8955 52.7967 10.6099 52.2212 10.0386 51.7769L10.832 50.9453C11.2425 51.2204 11.562 51.5885 11.7905 52.0498C12.0148 52.5068 12.127 53.021 12.127 53.5923ZM6.24268 53.7764C6.24268 54.1995 6.39079 54.5423 6.68701 54.8047C6.98324 55.0628 7.39583 55.2279 7.9248 55.2998V52.3608H7.81055C7.29427 52.3947 6.90495 52.5322 6.64258 52.7734C6.37598 53.0146 6.24268 53.349 6.24268 53.7764ZM8.24219 46.375C7.26465 46.375 6.33789 46.2438 5.46191 45.9814C4.58171 45.7191 3.79671 45.334 3.10693 44.8262C2.41292 44.3184 1.92627 43.7809 1.64697 43.2139L2.54834 42.9092C3.00114 43.5059 3.69303 43.9904 4.62402 44.3628C5.55078 44.731 6.61296 44.932 7.81055 44.9658L8.35645 44.9722C9.63867 44.9722 10.7834 44.7923 11.7905 44.4326C12.7935 44.0687 13.5573 43.5609 14.082 42.9092L14.939 43.2139C14.6597 43.7809 14.1709 44.3205 13.4727 44.8325C12.7786 45.3403 11.9958 45.7254 11.124 45.9878C10.248 46.2459 9.28743 46.375 8.24219 46.375ZM11.3271 37.7041C11.8604 38.1569 12.127 38.8001 12.127 39.6338C12.127 40.3786 11.909 40.9435 11.4731 41.3286C11.0373 41.7095 10.4067 41.8999 9.58154 41.8999H5.13184V40.3574H9.5625C10.4342 40.3574 10.8701 39.9956 10.8701 39.272C10.8701 38.5229 10.6014 38.0173 10.064 37.7549H5.13184V36.2124H12V37.666L11.3271 37.7041ZM5.13184 33.21L5.92529 33.1655C5.31169 32.6577 5.00488 31.9912 5.00488 31.166C5.00488 29.7357 5.82373 29.0078 7.46143 28.9824H12V30.5249H7.55029C7.11442 30.5249 6.79281 30.6201 6.58545 30.8105C6.37386 30.9967 6.26807 31.3035 6.26807 31.731C6.26807 32.353 6.54948 32.8164 7.1123 33.1211H12V34.6636H5.13184L5.13184 33.21ZM12 25.7642V27.3066H5.13184V25.7642H12ZM3.34814 27.4019C3.11117 27.4019 2.91439 27.3278 2.75781 27.1797C2.60124 27.0273 2.52295 26.8115 2.52295 26.5322C2.52295 26.2529 2.60124 26.0371 2.75781 25.8848C2.91439 25.7324 3.11117 25.6562 3.34814 25.6562C3.58089 25.6562 3.77555 25.7324 3.93213 25.8848C4.08447 26.0371 4.16064 26.2529 4.16064 26.5322C4.16064 26.8115 4.08447 27.0273 3.93213 27.1797C3.77555 27.3278 3.58089 27.4019 3.34814 27.4019ZM3.4624 22.146H5.13184V20.9336H6.27441V22.146H10.1084C10.3708 22.146 10.5612 22.0952 10.6797 21.9937C10.7939 21.8879 10.8511 21.7017 10.8511 21.4351C10.8511 21.2573 10.8299 21.0775 10.7876 20.8955H11.981C12.0783 21.2467 12.127 21.5853 12.127 21.9111C12.127 23.096 11.4731 23.6885 10.1655 23.6885H6.27441V24.8184H5.13184V23.6885H3.4624V22.146ZM10.1338 15.8999C9.85872 15.8999 9.64925 16.0142 9.50537 16.2427C9.36149 16.467 9.23454 16.8415 9.12451 17.3662C9.01449 17.891 8.87484 18.3289 8.70557 18.6802C8.33317 19.4504 7.79362 19.8354 7.08691 19.8354C6.49447 19.8354 5.99935 19.5858 5.60156 19.0864C5.20378 18.5871 5.00488 17.9523 5.00488 17.1821C5.00488 16.3612 5.20801 15.6989 5.61426 15.1953C6.02051 14.6875 6.54736 14.4336 7.19482 14.4336V15.9761C6.8986 15.9761 6.65316 16.0861 6.4585 16.3062C6.2596 16.5262 6.16016 16.8182 6.16016 17.1821C6.16016 17.5207 6.23844 17.7979 6.39502 18.0137C6.5516 18.2253 6.76107 18.3311 7.02344 18.3311C7.26042 18.3311 7.4445 18.2316 7.57568 18.0327C7.70687 17.8338 7.84017 17.4318 7.97559 16.8267C8.10677 16.2215 8.26546 15.7476 8.45166 15.4048C8.63363 15.0578 8.85368 14.8018 9.11182 14.6367C9.36995 14.4674 9.68311 14.3828 10.0513 14.3828C10.6691 14.3828 11.1706 14.6388 11.5557 15.1509C11.9365 15.6629 12.127 16.3337 12.127 17.1631C12.127 17.7259 12.0254 18.2274 11.8223 18.6675C11.6191 19.1076 11.3398 19.4504 10.9844 19.6958C10.6289 19.9412 10.2459 20.064 9.83545 20.064V18.5659C10.1994 18.5448 10.4808 18.4072 10.6797 18.1533C10.8743 17.8994 10.9717 17.563 10.9717 17.144C10.9717 16.7378 10.8955 16.4289 10.7432 16.2173C10.5866 16.0057 10.3835 15.8999 10.1338 15.8999ZM8.34375 10.0601C9.2832 10.0601 10.1909 10.1891 11.0669 10.4473C11.9386 10.7054 12.7321 11.0968 13.4473 11.6216C14.1667 12.1463 14.6639 12.6943 14.939 13.2656L14.082 13.5703C13.5911 12.9355 12.8421 12.4341 11.835 12.0659C10.8236 11.6935 9.67041 11.5073 8.37549 11.5073H8.22949C7.05306 11.5073 5.98242 11.6681 5.01758 11.9897C4.0485 12.3114 3.27197 12.7726 2.68799 13.3735L2.51025 13.5703L1.64697 13.2656C1.90934 12.724 2.37484 12.1992 3.04346 11.6914C3.71208 11.1836 4.4611 10.7943 5.29053 10.5234C6.11572 10.2526 6.96842 10.1003 7.84863 10.0664L8.34375 10.0601Z" fill="white" fill-opacity="0.64"/>
<path d="M27.728 12H26.5474V4.17334L24.1797 5.04297V3.97656L27.5439 2.71338H27.728V12ZM36.9639 8.05811C36.9639 9.43343 36.729 10.4554 36.2593 11.124C35.7896 11.7926 35.0553 12.127 34.0566 12.127C33.0706 12.127 32.3407 11.8011 31.8667 11.1494C31.3927 10.4935 31.1473 9.51595 31.1304 8.2168V6.64893C31.1304 5.29053 31.3652 4.28125 31.835 3.62109C32.3047 2.96094 33.041 2.63086 34.0439 2.63086C35.0384 2.63086 35.7705 2.95036 36.2402 3.58936C36.71 4.22412 36.9512 5.20589 36.9639 6.53467V8.05811ZM35.7896 6.45215C35.7896 5.45768 35.6499 4.73405 35.3706 4.28125C35.0913 3.82422 34.6491 3.5957 34.0439 3.5957C33.443 3.5957 33.005 3.8221 32.73 4.2749C32.4549 4.7277 32.3132 5.42383 32.3047 6.36328V8.24219C32.3047 9.24089 32.4486 9.97933 32.7363 10.4575C33.0283 10.9315 33.4684 11.1685 34.0566 11.1685C34.6364 11.1685 35.0659 10.9442 35.3452 10.4956C35.6287 10.047 35.7769 9.34033 35.7896 8.37549V6.45215ZM44.2637 8.05811C44.2637 9.43343 44.0288 10.4554 43.5591 11.124C43.0894 11.7926 42.3551 12.127 41.3564 12.127C40.3704 12.127 39.6405 11.8011 39.1665 11.1494C38.6925 10.4935 38.4471 9.51595 38.4302 8.2168V6.64893C38.4302 5.29053 38.665 4.28125 39.1348 3.62109C39.6045 2.96094 40.3408 2.63086 41.3438 2.63086C42.3382 2.63086 43.0703 2.95036 43.54 3.58936C44.0098 4.22412 44.251 5.20589 44.2637 6.53467V8.05811ZM43.0894 6.45215C43.0894 5.45768 42.9497 4.73405 42.6704 4.28125C42.3911 3.82422 41.9489 3.5957 41.3438 3.5957C40.7428 3.5957 40.3049 3.8221 40.0298 4.2749C39.7547 4.7277 39.613 5.42383 39.6045 6.36328V8.24219C39.6045 9.24089 39.7484 9.97933 40.0361 10.4575C40.3281 10.9315 40.7682 11.1685 41.3564 11.1685C41.9362 11.1685 42.3657 10.9442 42.645 10.4956C42.9285 10.047 43.0767 9.34033 43.0894 8.37549V6.45215Z" fill="white" fill-opacity="0.64"/>
<path d="M37.1353 33.418L33.3076 42H32.0762L35.8911 33.7227H30.8892V32.7578H37.1353V33.418ZM39.0078 37.3662L39.4775 32.7578H44.2129V33.8433H40.4741L40.1948 36.3633C40.6476 36.0967 41.1618 35.9634 41.7373 35.9634C42.5794 35.9634 43.248 36.2427 43.7432 36.8013C44.2383 37.3556 44.4858 38.1068 44.4858 39.0547C44.4858 40.0068 44.2277 40.758 43.7114 41.3081C43.1994 41.854 42.4821 42.127 41.5596 42.127C40.7428 42.127 40.0763 41.9006 39.5601 41.4478C39.0438 40.995 38.7497 40.3687 38.6777 39.5688H39.7886C39.8605 40.0978 40.0488 40.4977 40.3535 40.7686C40.6582 41.0352 41.0602 41.1685 41.5596 41.1685C42.1055 41.1685 42.5329 40.9823 42.8418 40.6099C43.1549 40.2375 43.3115 39.7233 43.3115 39.0674C43.3115 38.4495 43.1423 37.9544 42.8037 37.582C42.4694 37.2054 42.0229 37.0171 41.4644 37.0171C40.9523 37.0171 40.5503 37.1292 40.2583 37.3535L39.9473 37.6074L39.0078 37.3662Z" fill="white" fill-opacity="0.64"/>
<path d="M31.708 67.3662L32.1777 62.7578H36.9131V63.8433H33.1743L32.895 66.3633C33.3478 66.0967 33.862 65.9634 34.4375 65.9634C35.2796 65.9634 35.9482 66.2427 36.4434 66.8013C36.9385 67.3556 37.186 68.1068 37.186 69.0547C37.186 70.0068 36.9279 70.758 36.4116 71.3081C35.8996 71.854 35.1823 72.127 34.2598 72.127C33.443 72.127 32.7765 71.9006 32.2603 71.4478C31.744 70.995 31.4499 70.3687 31.3779 69.5688H32.4888C32.5607 70.0978 32.749 70.4977 33.0537 70.7686C33.3584 71.0352 33.7604 71.1685 34.2598 71.1685C34.8057 71.1685 35.2331 70.9823 35.542 70.6099C35.8551 70.2375 36.0117 69.7233 36.0117 69.0674C36.0117 68.4495 35.8424 67.9544 35.5039 67.582C35.1696 67.2054 34.7231 67.0171 34.1646 67.0171C33.6525 67.0171 33.2505 67.1292 32.9585 67.3535L32.6475 67.6074L31.708 67.3662ZM44.2637 68.0581C44.2637 69.4334 44.0288 70.4554 43.5591 71.124C43.0894 71.7926 42.3551 72.127 41.3564 72.127C40.3704 72.127 39.6405 71.8011 39.1665 71.1494C38.6925 70.4935 38.4471 69.516 38.4302 68.2168V66.6489C38.4302 65.2905 38.665 64.2812 39.1348 63.6211C39.6045 62.9609 40.3408 62.6309 41.3438 62.6309C42.3382 62.6309 43.0703 62.9504 43.54 63.5894C44.0098 64.2241 44.251 65.2059 44.2637 66.5347V68.0581ZM43.0894 66.4521C43.0894 65.4577 42.9497 64.734 42.6704 64.2812C42.3911 63.8242 41.9489 63.5957 41.3438 63.5957C40.7428 63.5957 40.3049 63.8221 40.0298 64.2749C39.7547 64.7277 39.613 65.4238 39.6045 66.3633V68.2422C39.6045 69.2409 39.7484 69.9793 40.0361 70.4575C40.3281 70.9315 40.7682 71.1685 41.3564 71.1685C41.9362 71.1685 42.3657 70.9442 42.645 70.4956C42.9285 70.047 43.0767 69.3403 43.0894 68.3755V66.4521Z" fill="white" fill-opacity="0.64"/>
<path d="M37.2241 102H31.1685V101.156L34.3677 97.6011C34.8416 97.0636 35.1675 96.6278 35.3452 96.2935C35.5272 95.9549 35.6182 95.6058 35.6182 95.2461C35.6182 94.7637 35.4722 94.368 35.1802 94.0591C34.8882 93.7502 34.4989 93.5957 34.0122 93.5957C33.4282 93.5957 32.9733 93.7629 32.6475 94.0972C32.3258 94.4272 32.165 94.8885 32.165 95.481H30.9907C30.9907 94.6304 31.2637 93.9427 31.8096 93.418C32.3597 92.8932 33.0939 92.6309 34.0122 92.6309C34.8713 92.6309 35.5505 92.8573 36.0498 93.3101C36.5492 93.7586 36.7988 94.3574 36.7988 95.1064C36.7988 96.0163 36.2191 97.0996 35.0596 98.3564L32.584 101.042H37.2241V102ZM39.0078 97.3662L39.4775 92.7578H44.2129V93.8433H40.4741L40.1948 96.3633C40.6476 96.0967 41.1618 95.9634 41.7373 95.9634C42.5794 95.9634 43.248 96.2427 43.7432 96.8013C44.2383 97.3556 44.4858 98.1068 44.4858 99.0547C44.4858 100.007 44.2277 100.758 43.7114 101.308C43.1994 101.854 42.4821 102.127 41.5596 102.127C40.7428 102.127 40.0763 101.901 39.5601 101.448C39.0438 100.995 38.7497 100.369 38.6777 99.5688H39.7886C39.8605 100.098 40.0488 100.498 40.3535 100.769C40.6582 101.035 41.0602 101.168 41.5596 101.168C42.1055 101.168 42.5329 100.982 42.8418 100.61C43.1549 100.237 43.3115 99.7233 43.3115 99.0674C43.3115 98.4495 43.1423 97.9544 42.8037 97.582C42.4694 97.2054 42.0229 97.0171 41.4644 97.0171C40.9523 97.0171 40.5503 97.1292 40.2583 97.3535L39.9473 97.6074L39.0078 97.3662Z" fill="white" fill-opacity="0.64"/>
<path d="M44.2637 128.058C44.2637 129.433 44.0288 130.455 43.5591 131.124C43.0894 131.793 42.3551 132.127 41.3564 132.127C40.3704 132.127 39.6405 131.801 39.1665 131.149C38.6925 130.493 38.4471 129.516 38.4302 128.217V126.649C38.4302 125.291 38.665 124.281 39.1348 123.621C39.6045 122.961 40.3408 122.631 41.3438 122.631C42.3382 122.631 43.0703 122.95 43.54 123.589C44.0098 124.224 44.251 125.206 44.2637 126.535V128.058ZM43.0894 126.452C43.0894 125.458 42.9497 124.734 42.6704 124.281C42.3911 123.824 41.9489 123.596 41.3438 123.596C40.7428 123.596 40.3049 123.822 40.0298 124.275C39.7547 124.728 39.613 125.424 39.6045 126.363V128.242C39.6045 129.241 39.7484 129.979 40.0361 130.458C40.3281 130.931 40.7682 131.168 41.3564 131.168C41.9362 131.168 42.3657 130.944 42.645 130.496C42.9285 130.047 43.0767 129.34 43.0894 128.375V126.452Z" fill="white" fill-opacity="0.64"/>
<rect x="53" y="126" width="365" height="1" fill="white" fill-opacity="0.38"/>
<rect x="77" y="127" width="1" height="8" fill="white" fill-opacity="0.38"/>
<path d="M58.8252 137.751V138.748H58.6094C57.6953 138.765 56.9674 139.036 56.4258 139.561C55.8841 140.085 55.571 140.824 55.4863 141.776C55.973 141.217 56.6374 140.938 57.4795 140.938C58.2835 140.938 58.9246 141.222 59.4028 141.789C59.8853 142.356 60.1265 143.088 60.1265 143.985C60.1265 144.937 59.8662 145.699 59.3457 146.27C58.8294 146.841 58.1354 147.127 57.2637 147.127C56.3792 147.127 55.6619 146.788 55.1118 146.111C54.5617 145.43 54.2866 144.554 54.2866 143.483V143.033C54.2866 141.332 54.6484 140.032 55.3721 139.135C56.0999 138.234 57.1812 137.773 58.6157 137.751H58.8252ZM57.2827 141.916C56.8807 141.916 56.5104 142.036 56.1719 142.277C55.8333 142.519 55.5985 142.821 55.4673 143.185V143.617C55.4673 144.378 55.6387 144.992 55.9814 145.458C56.3242 145.923 56.7516 146.156 57.2637 146.156C57.7926 146.156 58.2074 145.961 58.5078 145.572C58.8125 145.182 58.9648 144.673 58.9648 144.042C58.9648 143.407 58.8104 142.895 58.5015 142.506C58.1968 142.112 57.7905 141.916 57.2827 141.916ZM61.5991 146.384C61.5991 146.181 61.6584 146.012 61.7769 145.876C61.8996 145.741 62.0815 145.673 62.3228 145.673C62.564 145.673 62.7459 145.741 62.8687 145.876C62.9956 146.012 63.0591 146.181 63.0591 146.384C63.0591 146.579 62.9956 146.742 62.8687 146.873C62.7459 147.004 62.564 147.07 62.3228 147.07C62.0815 147.07 61.8996 147.004 61.7769 146.873C61.6584 146.742 61.5991 146.579 61.5991 146.384ZM61.6055 140.779C61.6055 140.576 61.6647 140.407 61.7832 140.271C61.9059 140.136 62.0879 140.068 62.3291 140.068C62.5703 140.068 62.7523 140.136 62.875 140.271C63.002 140.407 63.0654 140.576 63.0654 140.779C63.0654 140.974 63.002 141.137 62.875 141.268C62.7523 141.399 62.5703 141.465 62.3291 141.465C62.0879 141.465 61.9059 141.399 61.7832 141.268C61.6647 141.137 61.6055 140.974 61.6055 140.779ZM70.4604 143.058C70.4604 144.433 70.2256 145.455 69.7559 146.124C69.2861 146.793 68.5519 147.127 67.5532 147.127C66.5672 147.127 65.8372 146.801 65.3633 146.149C64.8893 145.493 64.6439 144.516 64.627 143.217V141.649C64.627 140.291 64.8618 139.281 65.3315 138.621C65.8013 137.961 66.5376 137.631 67.5405 137.631C68.535 137.631 69.2671 137.95 69.7368 138.589C70.2065 139.224 70.4478 140.206 70.4604 141.535V143.058ZM69.2861 141.452C69.2861 140.458 69.1465 139.734 68.8672 139.281C68.5879 138.824 68.1457 138.596 67.5405 138.596C66.9396 138.596 66.5016 138.822 66.2266 139.275C65.9515 139.728 65.8097 140.424 65.8013 141.363V143.242C65.8013 144.241 65.9451 144.979 66.2329 145.458C66.5249 145.931 66.965 146.168 67.5532 146.168C68.133 146.168 68.5625 145.944 68.8418 145.496C69.1253 145.047 69.2734 144.34 69.2861 143.375V141.452ZM77.7603 143.058C77.7603 144.433 77.5254 145.455 77.0557 146.124C76.5859 146.793 75.8517 147.127 74.853 147.127C73.867 147.127 73.137 146.801 72.6631 146.149C72.1891 145.493 71.9437 144.516 71.9268 143.217V141.649C71.9268 140.291 72.1616 139.281 72.6313 138.621C73.1011 137.961 73.8374 137.631 74.8403 137.631C75.8348 137.631 76.5669 137.95 77.0366 138.589C77.5063 139.224 77.7476 140.206 77.7603 141.535V143.058ZM76.5859 141.452C76.5859 140.458 76.4463 139.734 76.167 139.281C75.8877 138.824 75.4455 138.596 74.8403 138.596C74.2394 138.596 73.8014 138.822 73.5264 139.275C73.2513 139.728 73.1095 140.424 73.1011 141.363V143.242C73.1011 144.241 73.245 144.979 73.5327 145.458C73.8247 145.931 74.2648 146.168 74.853 146.168C75.4328 146.168 75.8623 145.944 76.1416 145.496C76.4251 145.047 76.5732 144.34 76.5859 143.375V141.452ZM87.8975 144.588H84.0254L83.1558 147H81.8989L85.4282 137.758H86.4946L90.0303 147H88.7798L87.8975 144.588ZM84.3936 143.585H87.5356L85.9614 139.262L84.3936 143.585ZM92.8486 137.758L95.8701 145.299L98.8916 137.758H100.472V147H99.2534V143.401L99.3677 139.516L96.3335 147H95.4004L92.3726 139.535L92.4932 143.401V147H91.2744V137.758H92.8486Z" fill="white" fill-opacity="0.64"/>
<rect x="156.982" y="127" width="1" height="8" fill="white" fill-opacity="0.38"/>
<path d="M138.699 142.938C138.454 143.229 138.16 143.464 137.817 143.642C137.479 143.82 137.106 143.909 136.7 143.909C136.167 143.909 135.701 143.778 135.303 143.515C134.91 143.253 134.605 142.885 134.389 142.411C134.174 141.932 134.066 141.406 134.066 140.83C134.066 140.212 134.182 139.656 134.415 139.161C134.652 138.666 134.986 138.287 135.418 138.024C135.849 137.762 136.353 137.631 136.928 137.631C137.843 137.631 138.562 137.974 139.087 138.659C139.616 139.34 139.88 140.271 139.88 141.452V141.795C139.88 143.593 139.525 144.907 138.814 145.737C138.103 146.562 137.03 146.985 135.595 147.006H135.367V146.016H135.615C136.584 145.999 137.328 145.747 137.849 145.261C138.369 144.77 138.653 143.995 138.699 142.938ZM136.89 142.938C137.284 142.938 137.646 142.817 137.976 142.576C138.31 142.334 138.553 142.036 138.706 141.681V141.211C138.706 140.441 138.539 139.814 138.204 139.332C137.87 138.85 137.447 138.608 136.935 138.608C136.419 138.608 136.004 138.807 135.691 139.205C135.378 139.599 135.221 140.119 135.221 140.767C135.221 141.397 135.371 141.918 135.672 142.328C135.976 142.734 136.383 142.938 136.89 142.938ZM141.581 146.384C141.581 146.181 141.641 146.012 141.759 145.876C141.882 145.741 142.064 145.673 142.305 145.673C142.546 145.673 142.728 145.741 142.851 145.876C142.978 146.012 143.041 146.181 143.041 146.384C143.041 146.579 142.978 146.742 142.851 146.873C142.728 147.004 142.546 147.07 142.305 147.07C142.064 147.07 141.882 147.004 141.759 146.873C141.641 146.742 141.581 146.579 141.581 146.384ZM141.588 140.779C141.588 140.576 141.647 140.407 141.765 140.271C141.888 140.136 142.07 140.068 142.311 140.068C142.552 140.068 142.734 140.136 142.857 140.271C142.984 140.407 143.048 140.576 143.048 140.779C143.048 140.974 142.984 141.137 142.857 141.268C142.734 141.399 142.552 141.465 142.311 141.465C142.07 141.465 141.888 141.399 141.765 141.268C141.647 141.137 141.588 140.974 141.588 140.779ZM150.443 143.058C150.443 144.433 150.208 145.455 149.738 146.124C149.268 146.793 148.534 147.127 147.535 147.127C146.549 147.127 145.819 146.801 145.345 146.149C144.872 145.493 144.626 144.516 144.609 143.217V141.649C144.609 140.291 144.844 139.281 145.314 138.621C145.783 137.961 146.52 137.631 147.523 137.631C148.517 137.631 149.249 137.95 149.719 138.589C150.189 139.224 150.43 140.206 150.443 141.535V143.058ZM149.268 141.452C149.268 140.458 149.129 139.734 148.849 139.281C148.57 138.824 148.128 138.596 147.523 138.596C146.922 138.596 146.484 138.822 146.209 139.275C145.934 139.728 145.792 140.424 145.783 141.363V143.242C145.783 144.241 145.927 144.979 146.215 145.458C146.507 145.931 146.947 146.168 147.535 146.168C148.115 146.168 148.545 145.944 148.824 145.496C149.108 145.047 149.256 144.34 149.268 143.375V141.452ZM157.742 143.058C157.742 144.433 157.508 145.455 157.038 146.124C156.568 146.793 155.834 147.127 154.835 147.127C153.849 147.127 153.119 146.801 152.645 146.149C152.171 145.493 151.926 144.516 151.909 143.217V141.649C151.909 140.291 152.144 139.281 152.614 138.621C153.083 137.961 153.82 137.631 154.823 137.631C155.817 137.631 156.549 137.95 157.019 138.589C157.489 139.224 157.73 140.206 157.742 141.535V143.058ZM156.568 141.452C156.568 140.458 156.428 139.734 156.149 139.281C155.87 138.824 155.428 138.596 154.823 138.596C154.222 138.596 153.784 138.822 153.509 139.275C153.233 139.728 153.092 140.424 153.083 141.363V143.242C153.083 144.241 153.227 144.979 153.515 145.458C153.807 145.931 154.247 146.168 154.835 146.168C155.415 146.168 155.844 145.944 156.124 145.496C156.407 145.047 156.555 144.34 156.568 143.375V141.452ZM167.88 144.588H164.008L163.138 147H161.881L165.41 137.758H166.477L170.012 147H168.762L167.88 144.588ZM164.376 143.585H167.518L165.944 139.262L164.376 143.585ZM172.831 137.758L175.852 145.299L178.874 137.758H180.454V147H179.236V143.401L179.35 139.516L176.316 147H175.383L172.355 139.535L172.475 143.401V147H171.257V137.758H172.831Z" fill="white" fill-opacity="0.64"/>
<rect x="234.964" y="127" width="1" height="8" fill="white" fill-opacity="0.38"/>
<path d="M211.891 147H210.71V139.173L208.342 140.043V138.977L211.707 137.713H211.891V147ZM221.387 147H215.331V146.156L218.53 142.601C219.004 142.064 219.33 141.628 219.508 141.293C219.69 140.955 219.781 140.606 219.781 140.246C219.781 139.764 219.635 139.368 219.343 139.059C219.051 138.75 218.661 138.596 218.175 138.596C217.591 138.596 217.136 138.763 216.81 139.097C216.488 139.427 216.328 139.889 216.328 140.481H215.153C215.153 139.63 215.426 138.943 215.972 138.418C216.522 137.893 217.257 137.631 218.175 137.631C219.034 137.631 219.713 137.857 220.212 138.31C220.712 138.759 220.961 139.357 220.961 140.106C220.961 141.016 220.382 142.1 219.222 143.356L216.747 146.042H221.387V147ZM222.713 146.384C222.713 146.181 222.773 146.012 222.891 145.876C223.014 145.741 223.196 145.673 223.437 145.673C223.678 145.673 223.86 145.741 223.983 145.876C224.11 146.012 224.173 146.181 224.173 146.384C224.173 146.579 224.11 146.742 223.983 146.873C223.86 147.004 223.678 147.07 223.437 147.07C223.196 147.07 223.014 147.004 222.891 146.873C222.773 146.742 222.713 146.579 222.713 146.384ZM222.72 140.779C222.72 140.576 222.779 140.407 222.897 140.271C223.02 140.136 223.202 140.068 223.443 140.068C223.685 140.068 223.867 140.136 223.989 140.271C224.116 140.407 224.18 140.576 224.18 140.779C224.18 140.974 224.116 141.137 223.989 141.268C223.867 141.399 223.685 141.465 223.443 141.465C223.202 141.465 223.02 141.399 222.897 141.268C222.779 141.137 222.72 140.974 222.72 140.779ZM231.575 143.058C231.575 144.433 231.34 145.455 230.87 146.124C230.4 146.793 229.666 147.127 228.667 147.127C227.681 147.127 226.951 146.801 226.478 146.149C226.004 145.493 225.758 144.516 225.741 143.217V141.649C225.741 140.291 225.976 139.281 226.446 138.621C226.916 137.961 227.652 137.631 228.655 137.631C229.649 137.631 230.381 137.95 230.851 138.589C231.321 139.224 231.562 140.206 231.575 141.535V143.058ZM230.4 141.452C230.4 140.458 230.261 139.734 229.981 139.281C229.702 138.824 229.26 138.596 228.655 138.596C228.054 138.596 227.616 138.822 227.341 139.275C227.066 139.728 226.924 140.424 226.916 141.363V143.242C226.916 144.241 227.059 144.979 227.347 145.458C227.639 145.931 228.079 146.168 228.667 146.168C229.247 146.168 229.677 145.944 229.956 145.496C230.24 145.047 230.388 144.34 230.4 143.375V141.452ZM238.875 143.058C238.875 144.433 238.64 145.455 238.17 146.124C237.7 146.793 236.966 147.127 235.967 147.127C234.981 147.127 234.251 146.801 233.777 146.149C233.303 145.493 233.058 144.516 233.041 143.217V141.649C233.041 140.291 233.276 139.281 233.746 138.621C234.215 137.961 234.952 137.631 235.955 137.631C236.949 137.631 237.681 137.95 238.151 138.589C238.621 139.224 238.862 140.206 238.875 141.535V143.058ZM237.7 141.452C237.7 140.458 237.561 139.734 237.281 139.281C237.002 138.824 236.56 138.596 235.955 138.596C235.354 138.596 234.916 138.822 234.641 139.275C234.366 139.728 234.224 140.424 234.215 141.363V143.242C234.215 144.241 234.359 144.979 234.647 145.458C234.939 145.931 235.379 146.168 235.967 146.168C236.547 146.168 236.977 145.944 237.256 145.496C237.539 145.047 237.688 144.34 237.7 143.375V141.452ZM249.012 144.588H245.14L244.27 147H243.013L246.542 137.758H247.609L251.145 147H249.894L249.012 144.588ZM245.508 143.585H248.65L247.076 139.262L245.508 143.585ZM253.963 137.758L256.984 145.299L260.006 137.758H261.586V147H260.368V143.401L260.482 139.516L257.448 147H256.515L253.487 139.535L253.607 143.401V147H252.389V137.758H253.963Z" fill="white" fill-opacity="0.64"/>
<rect x="312.947" y="127" width="1" height="8" fill="white" fill-opacity="0.38"/>
<path d="M291.51 141.808H292.393C292.947 141.799 293.383 141.653 293.7 141.37C294.018 141.086 294.177 140.703 294.177 140.221C294.177 139.137 293.637 138.596 292.558 138.596C292.05 138.596 291.644 138.742 291.339 139.034C291.039 139.321 290.888 139.704 290.888 140.183H289.714C289.714 139.451 289.981 138.843 290.514 138.361C291.051 137.874 291.733 137.631 292.558 137.631C293.43 137.631 294.113 137.861 294.608 138.323C295.103 138.784 295.351 139.425 295.351 140.246C295.351 140.648 295.22 141.037 294.957 141.414C294.699 141.791 294.346 142.072 293.897 142.258C294.405 142.419 294.796 142.686 295.072 143.058C295.351 143.431 295.49 143.885 295.49 144.423C295.49 145.252 295.22 145.91 294.678 146.397C294.136 146.884 293.432 147.127 292.564 147.127C291.697 147.127 290.99 146.892 290.444 146.422C289.902 145.953 289.632 145.333 289.632 144.562H290.812C290.812 145.049 290.971 145.438 291.288 145.73C291.606 146.022 292.031 146.168 292.564 146.168C293.131 146.168 293.565 146.02 293.865 145.724C294.166 145.428 294.316 145.003 294.316 144.448C294.316 143.911 294.151 143.498 293.821 143.21C293.491 142.923 293.015 142.775 292.393 142.766H291.51V141.808ZM297.185 146.384C297.185 146.181 297.245 146.012 297.363 145.876C297.486 145.741 297.668 145.673 297.909 145.673C298.15 145.673 298.332 145.741 298.455 145.876C298.582 146.012 298.645 146.181 298.645 146.384C298.645 146.579 298.582 146.742 298.455 146.873C298.332 147.004 298.15 147.07 297.909 147.07C297.668 147.07 297.486 147.004 297.363 146.873C297.245 146.742 297.185 146.579 297.185 146.384ZM297.192 140.779C297.192 140.576 297.251 140.407 297.369 140.271C297.492 140.136 297.674 140.068 297.915 140.068C298.156 140.068 298.338 140.136 298.461 140.271C298.588 140.407 298.652 140.576 298.652 140.779C298.652 140.974 298.588 141.137 298.461 141.268C298.338 141.399 298.156 141.465 297.915 141.465C297.674 141.465 297.492 141.399 297.369 141.268C297.251 141.137 297.192 140.974 297.192 140.779ZM306.047 143.058C306.047 144.433 305.812 145.455 305.342 146.124C304.872 146.793 304.138 147.127 303.139 147.127C302.153 147.127 301.423 146.801 300.949 146.149C300.476 145.493 300.23 144.516 300.213 143.217V141.649C300.213 140.291 300.448 139.281 300.918 138.621C301.387 137.961 302.124 137.631 303.127 137.631C304.121 137.631 304.853 137.95 305.323 138.589C305.793 139.224 306.034 140.206 306.047 141.535V143.058ZM304.872 141.452C304.872 140.458 304.733 139.734 304.453 139.281C304.174 138.824 303.732 138.596 303.127 138.596C302.526 138.596 302.088 138.822 301.813 139.275C301.538 139.728 301.396 140.424 301.387 141.363V143.242C301.387 144.241 301.531 144.979 301.819 145.458C302.111 145.931 302.551 146.168 303.139 146.168C303.719 146.168 304.149 145.944 304.428 145.496C304.712 145.047 304.86 144.34 304.872 143.375V141.452ZM313.346 143.058C313.346 144.433 313.112 145.455 312.642 146.124C312.172 146.793 311.438 147.127 310.439 147.127C309.453 147.127 308.723 146.801 308.249 146.149C307.775 145.493 307.53 144.516 307.513 143.217V141.649C307.513 140.291 307.748 139.281 308.218 138.621C308.687 137.961 309.424 137.631 310.427 137.631C311.421 137.631 312.153 137.95 312.623 138.589C313.093 139.224 313.334 140.206 313.346 141.535V143.058ZM312.172 141.452C312.172 140.458 312.032 139.734 311.753 139.281C311.474 138.824 311.032 138.596 310.427 138.596C309.826 138.596 309.388 138.822 309.113 139.275C308.837 139.728 308.696 140.424 308.687 141.363V143.242C308.687 144.241 308.831 144.979 309.119 145.458C309.411 145.931 309.851 146.168 310.439 146.168C311.019 146.168 311.448 145.944 311.728 145.496C312.011 145.047 312.159 144.34 312.172 143.375V141.452ZM319.599 143.382V147H318.38V137.758H321.789C322.8 137.758 323.592 138.016 324.163 138.532C324.738 139.049 325.026 139.732 325.026 140.583C325.026 141.48 324.745 142.172 324.182 142.658C323.623 143.141 322.821 143.382 321.776 143.382H319.599ZM319.599 142.385H321.789C322.441 142.385 322.94 142.233 323.287 141.928C323.634 141.619 323.807 141.175 323.807 140.595C323.807 140.045 323.634 139.605 323.287 139.275C322.94 138.945 322.464 138.773 321.859 138.761H319.599V142.385ZM328.156 137.758L331.177 145.299L334.198 137.758H335.779V147H334.56V143.401L334.675 139.516L331.64 147H330.707L327.679 139.535L327.8 143.401V147H326.581V137.758H328.156Z" fill="white" fill-opacity="0.64"/>
<rect x="393" y="127" width="1" height="8" fill="white" fill-opacity="0.38"/>
<path d="M374.465 137.751V138.748H374.249C373.335 138.765 372.607 139.036 372.065 139.561C371.524 140.085 371.211 140.824 371.126 141.776C371.613 141.217 372.277 140.938 373.119 140.938C373.923 140.938 374.564 141.222 375.042 141.789C375.525 142.356 375.766 143.088 375.766 143.985C375.766 144.937 375.506 145.699 374.985 146.27C374.469 146.841 373.775 147.127 372.903 147.127C372.019 147.127 371.302 146.788 370.751 146.111C370.201 145.43 369.926 144.554 369.926 143.483V143.033C369.926 141.332 370.288 140.032 371.012 139.135C371.74 138.234 372.821 137.773 374.255 137.751H374.465ZM372.922 141.916C372.52 141.916 372.15 142.036 371.812 142.277C371.473 142.519 371.238 142.821 371.107 143.185V143.617C371.107 144.378 371.278 144.992 371.621 145.458C371.964 145.923 372.391 146.156 372.903 146.156C373.432 146.156 373.847 145.961 374.147 145.572C374.452 145.182 374.604 144.673 374.604 144.042C374.604 143.407 374.45 142.895 374.141 142.506C373.836 142.112 373.43 141.916 372.922 141.916ZM377.239 146.384C377.239 146.181 377.298 146.012 377.417 145.876C377.539 145.741 377.721 145.673 377.962 145.673C378.204 145.673 378.386 145.741 378.508 145.876C378.635 146.012 378.699 146.181 378.699 146.384C378.699 146.579 378.635 146.742 378.508 146.873C378.386 147.004 378.204 147.07 377.962 147.07C377.721 147.07 377.539 147.004 377.417 146.873C377.298 146.742 377.239 146.579 377.239 146.384ZM377.245 140.779C377.245 140.576 377.304 140.407 377.423 140.271C377.546 140.136 377.728 140.068 377.969 140.068C378.21 140.068 378.392 140.136 378.515 140.271C378.642 140.407 378.705 140.576 378.705 140.779C378.705 140.974 378.642 141.137 378.515 141.268C378.392 141.399 378.21 141.465 377.969 141.465C377.728 141.465 377.546 141.399 377.423 141.268C377.304 141.137 377.245 140.974 377.245 140.779ZM386.1 143.058C386.1 144.433 385.865 145.455 385.396 146.124C384.926 146.793 384.192 147.127 383.193 147.127C382.207 147.127 381.477 146.801 381.003 146.149C380.529 145.493 380.284 144.516 380.267 143.217V141.649C380.267 140.291 380.501 139.281 380.971 138.621C381.441 137.961 382.177 137.631 383.18 137.631C384.175 137.631 384.907 137.95 385.376 138.589C385.846 139.224 386.087 140.206 386.1 141.535V143.058ZM384.926 141.452C384.926 140.458 384.786 139.734 384.507 139.281C384.228 138.824 383.785 138.596 383.18 138.596C382.579 138.596 382.141 138.822 381.866 139.275C381.591 139.728 381.449 140.424 381.441 141.363V143.242C381.441 144.241 381.585 144.979 381.873 145.458C382.165 145.931 382.605 146.168 383.193 146.168C383.773 146.168 384.202 145.944 384.481 145.496C384.765 145.047 384.913 144.34 384.926 143.375V141.452ZM393.4 143.058C393.4 144.433 393.165 145.455 392.695 146.124C392.226 146.793 391.491 147.127 390.493 147.127C389.507 147.127 388.777 146.801 388.303 146.149C387.829 145.493 387.583 144.516 387.566 143.217V141.649C387.566 140.291 387.801 139.281 388.271 138.621C388.741 137.961 389.477 137.631 390.48 137.631C391.474 137.631 392.207 137.95 392.676 138.589C393.146 139.224 393.387 140.206 393.4 141.535V143.058ZM392.226 141.452C392.226 140.458 392.086 139.734 391.807 139.281C391.527 138.824 391.085 138.596 390.48 138.596C389.879 138.596 389.441 138.822 389.166 139.275C388.891 139.728 388.749 140.424 388.741 141.363V143.242C388.741 144.241 388.885 144.979 389.172 145.458C389.464 145.931 389.904 146.168 390.493 146.168C391.072 146.168 391.502 145.944 391.781 145.496C392.065 145.047 392.213 144.34 392.226 143.375V141.452ZM399.652 143.382V147H398.434V137.758H401.842C402.854 137.758 403.645 138.016 404.216 138.532C404.792 139.049 405.08 139.732 405.08 140.583C405.08 141.48 404.798 142.172 404.235 142.658C403.677 143.141 402.875 143.382 401.83 143.382H399.652ZM399.652 142.385H401.842C402.494 142.385 402.993 142.233 403.34 141.928C403.687 141.619 403.861 141.175 403.861 140.595C403.861 140.045 403.687 139.605 403.34 139.275C402.993 138.945 402.517 138.773 401.912 138.761H399.652V142.385ZM408.209 137.758L411.23 145.299L414.252 137.758H415.833V147H414.614V143.401L414.728 139.516L411.694 147H410.761L407.733 139.535L407.854 143.401V147H406.635V137.758H408.209Z" fill="white" fill-opacity="0.64"/>
<rect x="53" y="7" width="365" height="1" fill="white" fill-opacity="0.38"/>
<rect x="53" y="38" width="365" height="1" fill="white" fill-opacity="0.38"/>
<rect x="53" y="69" width="365" height="1" fill="white" fill-opacity="0.38"/>
<rect x="53" y="100" width="365" height="1" fill="white" fill-opacity="0.38"/>
<rect width="15" height="114" transform="translate(53 12)" fill="#B1B5CA"/>
<rect x="53" y="12" width="15" height="38" fill="#F9585C"/>
<rect x="53" y="50" width="15" height="38" fill="#FFD769"/>
<rect x="53" y="88" width="15" height="38" fill="#B1B5CA"/>
<rect width="15" height="58" transform="translate(87.8999 68)" fill="#B1B5CA"/>
<rect x="87.8999" y="68" width="15" height="19.3333" fill="#F9585C"/>
<rect x="87.8999" y="87.3333" width="15" height="19.3333" fill="#FFD769"/>
<rect x="87.8999" y="106.667" width="15" height="19.3333" fill="#B1B5CA"/>
<rect width="15" height="29" transform="translate(122.8 97)" fill="#B1B5CA"/>
<rect x="122.8" y="97" width="15" height="9.66667" fill="#F9585C"/>
<rect x="122.8" y="106.667" width="15" height="9.66667" fill="#FFD769"/>
<rect x="122.8" y="116.333" width="15" height="9.66667" fill="#B1B5CA"/>
<rect width="15" height="61" transform="translate(157.7 65)" fill="#B1B5CA"/>
<rect x="157.7" y="65" width="15" height="20.3333" fill="#F9585C"/>
<rect x="157.7" y="85.3333" width="15" height="20.3333" fill="#FFD769"/>
<rect x="157.7" y="105.667" width="15" height="20.3333" fill="#B1B5CA"/>
<rect width="15" height="43" transform="translate(192.6 83)" fill="#B1B5CA"/>
<rect x="192.6" y="83" width="15" height="14.3333" fill="#F9585C"/>
<rect x="192.6" y="97.3333" width="15" height="14.3333" fill="#FFD769"/>
<rect x="192.6" y="111.667" width="15" height="14.3333" fill="#B1B5CA"/>
<rect width="15" height="61" transform="translate(227.5 65)" fill="#B1B5CA"/>
<rect x="227.5" y="65" width="15" height="20.3333" fill="#F9585C"/>
<rect x="227.5" y="85.3333" width="15" height="20.3333" fill="#FFD769"/>
<rect x="227.5" y="105.667" width="15" height="20.3333" fill="#B1B5CA"/>
<rect width="15" height="49" transform="translate(262.4 77)" fill="#B1B5CA"/>
<rect x="262.4" y="77" width="15" height="16.3333" fill="#F9585C"/>
<rect x="262.4" y="93.3333" width="15" height="16.3333" fill="#FFD769"/>
<rect x="262.4" y="109.667" width="15" height="16.3333" fill="#B1B5CA"/>
<rect width="15" height="34" transform="translate(297.3 92)" fill="#B1B5CA"/>
<rect x="297.3" y="92" width="15" height="11.3333" fill="#F9585C"/>
<rect x="297.3" y="103.333" width="15" height="11.3333" fill="#FFD769"/>
<rect x="297.3" y="114.667" width="15" height="11.3333" fill="#B1B5CA"/>
<rect width="15" height="57" transform="translate(332.2 69)" fill="#B1B5CA"/>
<rect x="332.2" y="69" width="15" height="19" fill="#F9585C"/>
<rect x="332.2" y="88" width="15" height="19" fill="#FFD769"/>
<rect x="332.2" y="107" width="15" height="19" fill="#B1B5CA"/>
<rect width="15" height="49" transform="translate(367.1 77)" fill="#B1B5CA"/>
<rect x="367.1" y="77" width="15" height="16.3333" fill="#F9585C"/>
<rect x="367.1" y="93.3333" width="15" height="16.3333" fill="#FFD769"/>
<rect x="367.1" y="109.667" width="15" height="16.3333" fill="#B1B5CA"/>
<rect width="15" height="58" transform="translate(402 68)" fill="#B1B5CA"/>
<rect x="402" y="68" width="15" height="19.3333" fill="#F9585C"/>
<rect x="402" y="87.3333" width="15" height="19.3333" fill="#FFD769"/>
<rect x="402" y="106.667" width="15" height="19.3333" fill="#B1B5CA"/>
<circle cx="44" cy="175.5" r="5" fill="#F9585C"/>
<path d="M63.6602 176.519C63.5635 177.346 63.2573 177.985 62.7417 178.436C62.2297 178.884 61.5475 179.107 60.6953 179.107C59.7715 179.107 59.0303 178.776 58.4717 178.114C57.9167 177.451 57.6392 176.565 57.6392 175.455V174.703C57.6392 173.976 57.7681 173.337 58.0259 172.786C58.2873 172.234 58.6561 171.812 59.1323 171.518C59.6086 171.221 60.16 171.072 60.7866 171.072C61.6174 171.072 62.2834 171.305 62.7847 171.771C63.286 172.232 63.5778 172.873 63.6602 173.693H62.6235C62.534 173.07 62.3389 172.619 62.0381 172.34C61.7409 172.061 61.3237 171.921 60.7866 171.921C60.1278 171.921 59.6104 172.164 59.2344 172.651C58.862 173.138 58.6758 173.831 58.6758 174.73V175.487C58.6758 176.336 58.853 177.011 59.2075 177.512C59.562 178.014 60.0579 178.264 60.6953 178.264C61.2682 178.264 61.7069 178.135 62.0112 177.877C62.3192 177.616 62.5233 177.163 62.6235 176.519H63.6602ZM67.7261 174.08C67.5757 174.055 67.4128 174.042 67.2373 174.042C66.5856 174.042 66.1434 174.32 65.9106 174.875V179H64.917V173.188H65.8838L65.8999 173.86C66.2257 173.341 66.6877 173.081 67.2856 173.081C67.479 173.081 67.6258 173.106 67.7261 173.156V174.08ZM69.7241 179H68.7305V173.188H69.7241V179ZM68.6499 171.647C68.6499 171.486 68.6982 171.35 68.7949 171.239C68.8952 171.128 69.042 171.072 69.2354 171.072C69.4287 171.072 69.5755 171.128 69.6758 171.239C69.776 171.35 69.8262 171.486 69.8262 171.647C69.8262 171.808 69.776 171.942 69.6758 172.05C69.5755 172.157 69.4287 172.211 69.2354 172.211C69.042 172.211 68.8952 172.157 68.7949 172.05C68.6982 171.942 68.6499 171.808 68.6499 171.647ZM72.6675 171.781V173.188H73.7524V173.957H72.6675V177.561C72.6675 177.793 72.7158 177.969 72.8125 178.087C72.9092 178.201 73.0739 178.259 73.3066 178.259C73.4212 178.259 73.5788 178.237 73.7793 178.194V179C73.5179 179.072 73.2637 179.107 73.0166 179.107C72.5726 179.107 72.2378 178.973 72.0122 178.705C71.7866 178.436 71.6738 178.055 71.6738 177.561V173.957H70.6157V173.188H71.6738V171.781H72.6675ZM75.9976 179H75.0039V173.188H75.9976V179ZM74.9233 171.647C74.9233 171.486 74.9717 171.35 75.0684 171.239C75.1686 171.128 75.3154 171.072 75.5088 171.072C75.7021 171.072 75.849 171.128 75.9492 171.239C76.0495 171.35 76.0996 171.486 76.0996 171.647C76.0996 171.808 76.0495 171.942 75.9492 172.05C75.849 172.157 75.7021 172.211 75.5088 172.211C75.3154 172.211 75.1686 172.157 75.0684 172.05C74.9717 171.942 74.9233 171.808 74.9233 171.647ZM79.9238 178.296C80.2783 178.296 80.5881 178.189 80.853 177.974C81.118 177.759 81.2648 177.491 81.2935 177.168H82.2334C82.2155 177.501 82.1009 177.818 81.8896 178.119C81.6784 178.42 81.3955 178.66 81.041 178.839C80.6901 179.018 80.3177 179.107 79.9238 179.107C79.1325 179.107 78.5023 178.844 78.0332 178.318C77.5677 177.788 77.335 177.065 77.335 176.148V175.981C77.335 175.416 77.4388 174.913 77.6465 174.472C77.8542 174.032 78.1514 173.69 78.5381 173.446C78.9284 173.203 79.3885 173.081 79.9185 173.081C80.5701 173.081 81.1108 173.276 81.5405 173.667C81.9738 174.057 82.2048 174.563 82.2334 175.187H81.2935C81.2648 174.811 81.1216 174.503 80.8638 174.263C80.6095 174.019 80.2944 173.897 79.9185 173.897C79.4136 173.897 79.0215 174.08 78.7422 174.445C78.4665 174.807 78.3286 175.332 78.3286 176.019V176.207C78.3286 176.877 78.4665 177.392 78.7422 177.754C79.0179 178.116 79.4118 178.296 79.9238 178.296ZM86.9385 179C86.8812 178.885 86.8346 178.681 86.7988 178.388C86.3369 178.868 85.7855 179.107 85.1445 179.107C84.5716 179.107 84.1007 178.946 83.7319 178.624C83.3667 178.298 83.1841 177.886 83.1841 177.389C83.1841 176.784 83.4132 176.314 83.8716 175.981C84.3335 175.645 84.9816 175.477 85.8159 175.477H86.7827V175.02C86.7827 174.673 86.6789 174.397 86.4712 174.193C86.2635 173.985 85.9574 173.881 85.5527 173.881C85.1982 173.881 84.901 173.971 84.6611 174.15C84.4212 174.329 84.3013 174.546 84.3013 174.8H83.3022C83.3022 174.51 83.4043 174.23 83.6084 173.962C83.8161 173.69 84.0954 173.475 84.4463 173.317C84.8008 173.16 85.1893 173.081 85.6118 173.081C86.2814 173.081 86.806 173.249 87.1855 173.586C87.5651 173.919 87.762 174.379 87.7764 174.966V177.641C87.7764 178.175 87.8444 178.599 87.9805 178.914V179H86.9385ZM85.2896 178.243C85.6011 178.243 85.8965 178.162 86.1758 178.001C86.4551 177.84 86.6574 177.63 86.7827 177.373V176.18H86.0039C84.7865 176.18 84.1777 176.536 84.1777 177.249C84.1777 177.561 84.2816 177.804 84.4893 177.979C84.6969 178.155 84.9637 178.243 85.2896 178.243ZM90.4136 179H89.4199V170.75H90.4136V179Z" fill="white" fill-opacity="0.94"/>
<circle cx="121" cy="175.5" r="5" fill="#FFD769"/>
<path d="M139.328 175.385H135.939V178.157H139.876V179H134.908V171.18H139.822V172.028H135.939V174.542H139.328V175.385ZM143.813 174.08C143.663 174.055 143.5 174.042 143.324 174.042C142.673 174.042 142.23 174.32 141.998 174.875V179H141.004V173.188H141.971L141.987 173.86C142.313 173.341 142.775 173.081 143.373 173.081C143.566 173.081 143.713 173.106 143.813 173.156V174.08ZM147.541 174.08C147.39 174.055 147.227 174.042 147.052 174.042C146.4 174.042 145.958 174.32 145.725 174.875V179H144.731V173.188H145.698L145.714 173.86C146.04 173.341 146.502 173.081 147.1 173.081C147.293 173.081 147.44 173.106 147.541 173.156V174.08ZM148.088 176.041C148.088 175.471 148.199 174.959 148.421 174.504C148.647 174.05 148.958 173.699 149.356 173.452C149.757 173.205 150.214 173.081 150.726 173.081C151.517 173.081 152.156 173.355 152.643 173.903C153.134 174.451 153.379 175.179 153.379 176.089V176.159C153.379 176.724 153.27 177.233 153.051 177.684C152.836 178.132 152.527 178.481 152.122 178.731C151.721 178.982 151.259 179.107 150.736 179.107C149.949 179.107 149.309 178.833 148.819 178.286C148.332 177.738 148.088 177.013 148.088 176.11V176.041ZM149.087 176.159C149.087 176.803 149.236 177.321 149.533 177.711C149.834 178.101 150.235 178.296 150.736 178.296C151.241 178.296 151.642 178.099 151.939 177.706C152.237 177.308 152.385 176.753 152.385 176.041C152.385 175.403 152.233 174.888 151.929 174.494C151.628 174.096 151.227 173.897 150.726 173.897C150.235 173.897 149.839 174.093 149.539 174.483C149.238 174.873 149.087 175.432 149.087 176.159ZM157.434 174.08C157.284 174.055 157.121 174.042 156.945 174.042C156.294 174.042 155.851 174.32 155.619 174.875V179H154.625V173.188H155.592L155.608 173.86C155.934 173.341 156.396 173.081 156.994 173.081C157.187 173.081 157.334 173.106 157.434 173.156V174.08Z" fill="white" fill-opacity="0.94"/>
<circle cx="187" cy="175.5" r="5" fill="#B1B5CA"/>
<path d="M206.923 175.342C206.923 176.109 206.794 176.778 206.537 177.351C206.279 177.92 205.914 178.355 205.441 178.656C204.968 178.957 204.417 179.107 203.787 179.107C203.171 179.107 202.625 178.957 202.148 178.656C201.672 178.352 201.302 177.92 201.037 177.362C200.775 176.8 200.641 176.15 200.634 175.412V174.848C200.634 174.096 200.764 173.432 201.026 172.855C201.287 172.279 201.656 171.839 202.132 171.534C202.612 171.226 203.16 171.072 203.776 171.072C204.403 171.072 204.954 171.224 205.43 171.529C205.91 171.83 206.279 172.268 206.537 172.845C206.794 173.418 206.923 174.085 206.923 174.848V175.342ZM205.897 174.837C205.897 173.91 205.711 173.199 205.339 172.705C204.966 172.207 204.445 171.958 203.776 171.958C203.124 171.958 202.61 172.207 202.234 172.705C201.862 173.199 201.67 173.887 201.66 174.768V175.342C201.66 176.241 201.848 176.948 202.224 177.464C202.603 177.976 203.124 178.232 203.787 178.232C204.453 178.232 204.968 177.99 205.333 177.507C205.699 177.02 205.887 176.323 205.897 175.417V174.837ZM209.663 171.781V173.188H210.748V173.957H209.663V177.561C209.663 177.793 209.711 177.969 209.808 178.087C209.904 178.201 210.069 178.259 210.302 178.259C210.416 178.259 210.574 178.237 210.774 178.194V179C210.513 179.072 210.259 179.107 210.012 179.107C209.568 179.107 209.233 178.973 209.007 178.705C208.782 178.436 208.669 178.055 208.669 177.561V173.957H207.611V173.188H208.669V171.781H209.663ZM212.907 173.892C213.347 173.351 213.92 173.081 214.625 173.081C215.854 173.081 216.473 173.774 216.484 175.16V179H215.49V175.154C215.487 174.735 215.39 174.426 215.2 174.225C215.014 174.025 214.722 173.924 214.325 173.924C214.002 173.924 213.72 174.01 213.476 174.182C213.233 174.354 213.043 174.58 212.907 174.859V179H211.913V170.75H212.907V173.892ZM220.383 179.107C219.596 179.107 218.955 178.85 218.46 178.334C217.966 177.815 217.719 177.122 217.719 176.255V176.073C217.719 175.496 217.828 174.982 218.047 174.531C218.269 174.076 218.577 173.722 218.971 173.468C219.368 173.21 219.798 173.081 220.26 173.081C221.015 173.081 221.603 173.33 222.021 173.828C222.44 174.325 222.65 175.038 222.65 175.965V176.379H218.713C218.727 176.952 218.894 177.416 219.212 177.77C219.535 178.121 219.943 178.296 220.437 178.296C220.788 178.296 221.085 178.225 221.329 178.082C221.572 177.938 221.785 177.749 221.968 177.512L222.575 177.985C222.088 178.733 221.357 179.107 220.383 179.107ZM220.26 173.897C219.859 173.897 219.522 174.044 219.25 174.338C218.978 174.628 218.81 175.036 218.745 175.562H221.656V175.487C221.628 174.982 221.492 174.592 221.248 174.316C221.005 174.037 220.675 173.897 220.26 173.897ZM226.614 174.08C226.463 174.055 226.3 174.042 226.125 174.042C225.473 174.042 225.031 174.32 224.798 174.875V179H223.805V173.188H224.771L224.788 173.86C225.113 173.341 225.575 173.081 226.173 173.081C226.367 173.081 226.514 173.106 226.614 173.156V174.08Z" fill="white" fill-opacity="0.94"/>
</svg>
