<svg width="672" height="171" viewBox="0 0 672 171" fill="none" xmlns="http://www.w3.org/2000/svg">
<circle r="9" transform="matrix(-1 0 0 1 54 9)" fill="#6BE398"/>
<path d="M51.8086 10.1221L52.2329 6.17969H56.4331V7.30762H53.3179L53.103 9.17676C53.4647 8.96908 53.8729 8.86523 54.3276 8.86523C55.0724 8.86523 55.6507 9.10335 56.0625 9.57959C56.4779 10.0558 56.6855 10.6968 56.6855 11.5024C56.6855 12.2974 56.4564 12.9312 55.998 13.4038C55.5397 13.8729 54.9113 14.1074 54.1128 14.1074C53.3966 14.1074 52.8022 13.9051 52.3296 13.5005C51.8605 13.0923 51.6063 12.5552 51.5669 11.8892H52.8291C52.8792 12.2687 53.0153 12.5605 53.2373 12.7646C53.4593 12.9652 53.7493 13.0654 54.1074 13.0654C54.5085 13.0654 54.82 12.9222 55.042 12.6357C55.2676 12.3493 55.3804 11.959 55.3804 11.4648C55.3804 10.9886 55.2568 10.6126 55.0098 10.3369C54.7627 10.0576 54.4225 9.91797 53.9893 9.91797C53.7529 9.91797 53.5524 9.9502 53.3877 10.0146C53.223 10.0755 53.0439 10.1973 52.8506 10.3799L51.8086 10.1221Z" fill="#19212B"/>
<path fill-rule="evenodd" clip-rule="evenodd" d="M15.625 23.5C16.2438 23.5 16.75 24.0062 16.75 24.625V37.375C16.75 37.9938 16.2438 38.5 15.625 38.5H10.375C9.75624 38.5 9.25 37.9938 9.25 37.375V24.625C9.25 24.0062 9.75624 23.5 10.375 23.5H15.625ZM15.25 37V25H10.75V37H15.25ZM19.75 25.75C19.75 25.336 19.4147 25 19 25C18.5853 25 18.25 25.336 18.25 25.75V36.25C18.25 36.664 18.5853 37 19 37C19.4147 37 19.75 36.664 19.75 36.25V25.75ZM7 25C7.41473 25 7.75 25.336 7.75 25.75V36.25C7.75 36.664 7.41473 37 7 37C6.58526 37 6.25 36.664 6.25 36.25V25.75C6.25 25.336 6.58526 25 7 25ZM11.3125 27.25C11.3125 27.5605 11.5645 27.8125 11.875 27.8125H14.125C14.4355 27.8125 14.6875 27.5605 14.6875 27.25C14.6875 26.9395 14.4355 26.6875 14.125 26.6875H11.875C11.5645 26.6875 11.3125 26.9395 11.3125 27.25ZM11.875 30.0625C11.5645 30.0625 11.3125 29.8105 11.3125 29.5C11.3125 29.1895 11.5645 28.9375 11.875 28.9375H14.125C14.4355 28.9375 14.6875 29.1895 14.6875 29.5C14.6875 29.8105 14.4355 30.0625 14.125 30.0625H11.875ZM12.25 34.75C12.25 35.1642 12.5858 35.5 13 35.5C13.4142 35.5 13.75 35.1642 13.75 34.75C13.75 34.3358 13.4142 34 13 34C12.5858 34 12.25 34.3358 12.25 34.75Z" fill="white" fill-opacity="0.94"/>
<path d="M29.2817 32.5864L29.4595 33.8052L29.7197 32.707L31.5479 26.2578H32.5762L34.3599 32.707L34.6138 33.8242L34.8105 32.5801L36.2451 26.2578H37.4702L35.2295 35.5H34.1187L32.2144 28.7651L32.0684 28.0605L31.9224 28.7651L29.9482 35.5H28.8374L26.603 26.2578H27.8218L29.2817 32.5864ZM41.2915 35.627C40.3605 35.627 39.603 35.3223 39.019 34.7129C38.4351 34.0993 38.1431 33.2804 38.1431 32.2563V32.0405C38.1431 31.3592 38.2721 30.752 38.5303 30.2188C38.7926 29.6813 39.1566 29.2624 39.6221 28.9619C40.0918 28.6572 40.5996 28.5049 41.1455 28.5049C42.0384 28.5049 42.7324 28.799 43.2275 29.3872C43.7227 29.9754 43.9702 30.8175 43.9702 31.9136V32.4023H39.3174C39.3343 33.0794 39.5311 33.6274 39.9077 34.0464C40.2886 34.4611 40.771 34.6685 41.355 34.6685C41.7697 34.6685 42.1209 34.5838 42.4087 34.4146C42.6965 34.2453 42.9482 34.021 43.1641 33.7417L43.8813 34.3003C43.3058 35.1847 42.4425 35.627 41.2915 35.627ZM41.1455 29.4697C40.6715 29.4697 40.2738 29.6432 39.9521 29.9902C39.6305 30.333 39.4316 30.8154 39.3555 31.4375H42.7959V31.3486C42.762 30.752 42.6012 30.2907 42.3135 29.9648C42.0257 29.6348 41.6364 29.4697 41.1455 29.4697ZM51.1494 32.1421C51.1494 33.1916 50.9082 34.0358 50.4258 34.6748C49.9434 35.3096 49.2959 35.627 48.4834 35.627C47.6159 35.627 46.9451 35.3201 46.4712 34.7065L46.4141 35.5H45.335V25.75H46.5093V29.3872C46.9832 28.799 47.637 28.5049 48.4707 28.5049C49.3044 28.5049 49.9582 28.8201 50.4321 29.4507C50.9103 30.0812 51.1494 30.9445 51.1494 32.0405V32.1421ZM49.9751 32.0088C49.9751 31.209 49.8206 30.5911 49.5117 30.1553C49.2028 29.7194 48.7585 29.5015 48.1787 29.5015C47.4043 29.5015 46.8478 29.8612 46.5093 30.5806V33.5513C46.869 34.2707 47.4297 34.6304 48.1914 34.6304C48.7542 34.6304 49.1922 34.4124 49.5054 33.9766C49.8185 33.5407 49.9751 32.8848 49.9751 32.0088ZM57.916 31.4185H54.0376V35.5H52.8188V26.2578H58.5444V27.2607H54.0376V30.4219H57.916V31.4185ZM62.9751 29.6855C62.7974 29.6559 62.6048 29.6411 62.3975 29.6411C61.6273 29.6411 61.1047 29.9691 60.8296 30.625V35.5H59.6553V28.6318H60.7979L60.8169 29.4253C61.202 28.8117 61.7479 28.5049 62.4546 28.5049C62.6831 28.5049 62.8566 28.5345 62.9751 28.5938V29.6855ZM63.6226 32.0024C63.6226 31.3296 63.7537 30.7244 64.0161 30.187C64.2827 29.6496 64.6509 29.2349 65.1206 28.9429C65.5946 28.6509 66.1341 28.5049 66.7393 28.5049C67.6745 28.5049 68.4299 28.8286 69.0054 29.4761C69.5851 30.1235 69.875 30.9847 69.875 32.0596V32.1421C69.875 32.8107 69.7459 33.4116 69.4878 33.9448C69.2339 34.4738 68.8678 34.8864 68.3896 35.1826C67.9157 35.4788 67.3698 35.627 66.752 35.627C65.821 35.627 65.0656 35.3032 64.4858 34.6558C63.9103 34.0083 63.6226 33.1514 63.6226 32.085V32.0024ZM64.8032 32.1421C64.8032 32.9038 64.9788 33.5153 65.3301 33.9766C65.6855 34.4378 66.1595 34.6685 66.752 34.6685C67.3486 34.6685 67.8226 34.4357 68.1738 33.9702C68.5251 33.5005 68.7007 32.8446 68.7007 32.0024C68.7007 31.2492 68.5208 30.6398 68.1611 30.1743C67.8057 29.7046 67.3317 29.4697 66.7393 29.4697C66.1595 29.4697 65.6919 29.7004 65.3364 30.1616C64.981 30.6229 64.8032 31.283 64.8032 32.1421ZM72.4585 28.6318L72.4966 29.4951C73.0213 28.835 73.7069 28.5049 74.5532 28.5049C76.0047 28.5049 76.7368 29.3237 76.7495 30.9614V35.5H75.5752V30.9551C75.571 30.46 75.4567 30.0939 75.2324 29.8569C75.0124 29.62 74.6675 29.5015 74.1978 29.5015C73.8169 29.5015 73.4826 29.603 73.1948 29.8062C72.9071 30.0093 72.6828 30.2759 72.522 30.606V35.5H71.3477V28.6318H72.4585ZM80.1138 26.9688V28.6318H81.396V29.5396H80.1138V33.7988C80.1138 34.0739 80.1709 34.2812 80.2852 34.4209C80.3994 34.5563 80.5941 34.624 80.8691 34.624C81.0046 34.624 81.1908 34.5986 81.4277 34.5479V35.5C81.1188 35.5846 80.8184 35.627 80.5264 35.627C80.0016 35.627 79.606 35.4683 79.3394 35.1509C79.0728 34.8335 78.9395 34.3828 78.9395 33.7988V29.5396H77.689V28.6318H78.9395V26.9688H80.1138ZM88.1816 31.228H84.1763V34.5034H88.8291V35.5H82.9575V26.2578H88.7656V27.2607H84.1763V30.2314H88.1816V31.228ZM91.2729 28.6318L91.311 29.4951C91.8358 28.835 92.5213 28.5049 93.3677 28.5049C94.8192 28.5049 95.5513 29.3237 95.564 30.9614V35.5H94.3896V30.9551C94.3854 30.46 94.2712 30.0939 94.0469 29.8569C93.8268 29.62 93.4819 29.5015 93.0122 29.5015C92.6313 29.5015 92.297 29.603 92.0093 29.8062C91.7215 30.0093 91.4972 30.2759 91.3364 30.606V35.5H90.1621V28.6318H91.2729ZM97.0493 32.0088C97.0493 30.9551 97.299 30.1087 97.7983 29.4697C98.2977 28.8265 98.9515 28.5049 99.7598 28.5049C100.564 28.5049 101.201 28.7799 101.67 29.3301V25.75H102.845V35.5H101.766L101.708 34.7637C101.239 35.3392 100.585 35.627 99.7471 35.627C98.9515 35.627 98.3019 35.3011 97.7983 34.6494C97.299 33.9977 97.0493 33.1471 97.0493 32.0977V32.0088ZM98.2236 32.1421C98.2236 32.9207 98.3844 33.5301 98.7061 33.9702C99.0277 34.4103 99.472 34.6304 100.039 34.6304C100.784 34.6304 101.328 34.2961 101.67 33.6274V30.4727C101.319 29.8252 100.78 29.5015 100.052 29.5015C99.4762 29.5015 99.0277 29.7236 98.7061 30.168C98.3844 30.6123 98.2236 31.2703 98.2236 32.1421Z" fill="white" fill-opacity="0.94"/>
<circle r="9" transform="matrix(-1 0 0 1 313 73)" fill="#6BE398"/>
<path d="M310.809 74.1221L311.233 70.1797H315.433V71.3076H312.318L312.103 73.1768C312.465 72.9691 312.873 72.8652 313.328 72.8652C314.072 72.8652 314.651 73.1034 315.062 73.5796C315.478 74.0558 315.686 74.6968 315.686 75.5024C315.686 76.2974 315.456 76.9312 314.998 77.4038C314.54 77.8729 313.911 78.1074 313.113 78.1074C312.397 78.1074 311.802 77.9051 311.33 77.5005C310.861 77.0923 310.606 76.5552 310.567 75.8892H311.829C311.879 76.2687 312.015 76.5605 312.237 76.7646C312.459 76.9652 312.749 77.0654 313.107 77.0654C313.508 77.0654 313.82 76.9222 314.042 76.6357C314.268 76.3493 314.38 75.959 314.38 75.4648C314.38 74.9886 314.257 74.6126 314.01 74.3369C313.763 74.0576 313.423 73.918 312.989 73.918C312.753 73.918 312.552 73.9502 312.388 74.0146C312.223 74.0755 312.044 74.1973 311.851 74.3799L310.809 74.1221Z" fill="#19212B"/>
<path fill-rule="evenodd" clip-rule="evenodd" d="M274.625 87.5C275.244 87.5 275.75 88.0062 275.75 88.625V101.375C275.75 101.994 275.244 102.5 274.625 102.5H269.375C268.756 102.5 268.25 101.994 268.25 101.375V88.625C268.25 88.0062 268.756 87.5 269.375 87.5H274.625ZM274.25 101V89H269.75V101H274.25ZM278.75 89.75C278.75 89.336 278.415 89 278 89C277.585 89 277.25 89.336 277.25 89.75V100.25C277.25 100.664 277.585 101 278 101C278.415 101 278.75 100.664 278.75 100.25V89.75ZM266 89C266.415 89 266.75 89.336 266.75 89.75V100.25C266.75 100.664 266.415 101 266 101C265.585 101 265.25 100.664 265.25 100.25V89.75C265.25 89.336 265.585 89 266 89ZM270.312 91.25C270.312 91.5605 270.564 91.8125 270.875 91.8125H273.125C273.436 91.8125 273.688 91.5605 273.688 91.25C273.688 90.9395 273.436 90.6875 273.125 90.6875H270.875C270.564 90.6875 270.312 90.9395 270.312 91.25ZM270.875 94.0625C270.564 94.0625 270.312 93.8105 270.312 93.5C270.312 93.1895 270.564 92.9375 270.875 92.9375H273.125C273.436 92.9375 273.688 93.1895 273.688 93.5C273.688 93.8105 273.436 94.0625 273.125 94.0625H270.875ZM271.25 98.75C271.25 99.1642 271.586 99.5 272 99.5C272.414 99.5 272.75 99.1642 272.75 98.75C272.75 98.3358 272.414 98 272 98C271.586 98 271.25 98.3358 271.25 98.75Z" fill="white" fill-opacity="0.94"/>
<path d="M288.282 96.5864L288.459 97.8052L288.72 96.707L290.548 90.2578H291.576L293.36 96.707L293.614 97.8242L293.811 96.5801L295.245 90.2578H296.47L294.229 99.5H293.119L291.214 92.7651L291.068 92.0605L290.922 92.7651L288.948 99.5H287.837L285.603 90.2578H286.822L288.282 96.5864ZM300.292 99.627C299.361 99.627 298.603 99.3223 298.019 98.7129C297.435 98.0993 297.143 97.2804 297.143 96.2563V96.0405C297.143 95.3592 297.272 94.752 297.53 94.2188C297.793 93.6813 298.157 93.2624 298.622 92.9619C299.092 92.6572 299.6 92.5049 300.146 92.5049C301.038 92.5049 301.732 92.799 302.228 93.3872C302.723 93.9754 302.97 94.8175 302.97 95.9136V96.4023H298.317C298.334 97.0794 298.531 97.6274 298.908 98.0464C299.289 98.4611 299.771 98.6685 300.355 98.6685C300.77 98.6685 301.121 98.5838 301.409 98.4146C301.696 98.2453 301.948 98.021 302.164 97.7417L302.881 98.3003C302.306 99.1847 301.443 99.627 300.292 99.627ZM300.146 93.4697C299.672 93.4697 299.274 93.6432 298.952 93.9902C298.631 94.333 298.432 94.8154 298.355 95.4375H301.796V95.3486C301.762 94.752 301.601 94.2907 301.313 93.9648C301.026 93.6348 300.636 93.4697 300.146 93.4697ZM310.149 96.1421C310.149 97.1916 309.908 98.0358 309.426 98.6748C308.943 99.3096 308.296 99.627 307.483 99.627C306.616 99.627 305.945 99.3201 305.471 98.7065L305.414 99.5H304.335V89.75H305.509V93.3872C305.983 92.799 306.637 92.5049 307.471 92.5049C308.304 92.5049 308.958 92.8201 309.432 93.4507C309.91 94.0812 310.149 94.9445 310.149 96.0405V96.1421ZM308.975 96.0088C308.975 95.209 308.821 94.5911 308.512 94.1553C308.203 93.7194 307.758 93.5015 307.179 93.5015C306.404 93.5015 305.848 93.8612 305.509 94.5806V97.5513C305.869 98.2707 306.43 98.6304 307.191 98.6304C307.754 98.6304 308.192 98.4124 308.505 97.9766C308.819 97.5407 308.975 96.8848 308.975 96.0088ZM316.916 95.4185H313.038V99.5H311.819V90.2578H317.544V91.2607H313.038V94.4219H316.916V95.4185ZM321.975 93.6855C321.797 93.6559 321.605 93.6411 321.397 93.6411C320.627 93.6411 320.105 93.9691 319.83 94.625V99.5H318.655V92.6318H319.798L319.817 93.4253C320.202 92.8117 320.748 92.5049 321.455 92.5049C321.683 92.5049 321.857 92.5345 321.975 92.5938V93.6855ZM322.623 96.0024C322.623 95.3296 322.754 94.7244 323.016 94.187C323.283 93.6496 323.651 93.2349 324.121 92.9429C324.595 92.6509 325.134 92.5049 325.739 92.5049C326.674 92.5049 327.43 92.8286 328.005 93.4761C328.585 94.1235 328.875 94.9847 328.875 96.0596V96.1421C328.875 96.8107 328.746 97.4116 328.488 97.9448C328.234 98.4738 327.868 98.8864 327.39 99.1826C326.916 99.4788 326.37 99.627 325.752 99.627C324.821 99.627 324.066 99.3032 323.486 98.6558C322.91 98.0083 322.623 97.1514 322.623 96.085V96.0024ZM323.803 96.1421C323.803 96.9038 323.979 97.5153 324.33 97.9766C324.686 98.4378 325.16 98.6685 325.752 98.6685C326.349 98.6685 326.823 98.4357 327.174 97.9702C327.525 97.5005 327.701 96.8446 327.701 96.0024C327.701 95.2492 327.521 94.6398 327.161 94.1743C326.806 93.7046 326.332 93.4697 325.739 93.4697C325.16 93.4697 324.692 93.7004 324.336 94.1616C323.981 94.6229 323.803 95.283 323.803 96.1421ZM331.458 92.6318L331.497 93.4951C332.021 92.835 332.707 92.5049 333.553 92.5049C335.005 92.5049 335.737 93.3237 335.75 94.9614V99.5H334.575V94.9551C334.571 94.46 334.457 94.0939 334.232 93.8569C334.012 93.62 333.667 93.5015 333.198 93.5015C332.817 93.5015 332.483 93.603 332.195 93.8062C331.907 94.0093 331.683 94.2759 331.522 94.606V99.5H330.348V92.6318H331.458ZM339.114 90.9688V92.6318H340.396V93.5396H339.114V97.7988C339.114 98.0739 339.171 98.2812 339.285 98.4209C339.399 98.5563 339.594 98.624 339.869 98.624C340.005 98.624 340.191 98.5986 340.428 98.5479V99.5C340.119 99.5846 339.818 99.627 339.526 99.627C339.002 99.627 338.606 99.4683 338.339 99.1509C338.073 98.8335 337.939 98.3828 337.939 97.7988V93.5396H336.689V92.6318H337.939V90.9688H339.114ZM347.182 95.228H343.176V98.5034H347.829V99.5H341.958V90.2578H347.766V91.2607H343.176V94.2314H347.182V95.228ZM350.273 92.6318L350.311 93.4951C350.836 92.835 351.521 92.5049 352.368 92.5049C353.819 92.5049 354.551 93.3237 354.564 94.9614V99.5H353.39V94.9551C353.385 94.46 353.271 94.0939 353.047 93.8569C352.827 93.62 352.482 93.5015 352.012 93.5015C351.631 93.5015 351.297 93.603 351.009 93.8062C350.722 94.0093 350.497 94.2759 350.336 94.606V99.5H349.162V92.6318H350.273ZM356.049 96.0088C356.049 94.9551 356.299 94.1087 356.798 93.4697C357.298 92.8265 357.951 92.5049 358.76 92.5049C359.564 92.5049 360.201 92.7799 360.67 93.3301V89.75H361.845V99.5H360.766L360.708 98.7637C360.239 99.3392 359.585 99.627 358.747 99.627C357.951 99.627 357.302 99.3011 356.798 98.6494C356.299 97.9977 356.049 97.1471 356.049 96.0977V96.0088ZM357.224 96.1421C357.224 96.9207 357.384 97.5301 357.706 97.9702C358.028 98.4103 358.472 98.6304 359.039 98.6304C359.784 98.6304 360.328 98.2961 360.67 97.6274V94.4727C360.319 93.8252 359.78 93.5015 359.052 93.5015C358.476 93.5015 358.028 93.7236 357.706 94.168C357.384 94.6123 357.224 95.2703 357.224 96.1421Z" fill="white" fill-opacity="0.94"/>
<circle r="9" transform="matrix(-1 0 0 1 582 10)" fill="#6BE398"/>
<path d="M579.809 11.1221L580.233 7.17969H584.433V8.30762H581.318L581.103 10.1768C581.465 9.96908 581.873 9.86523 582.328 9.86523C583.072 9.86523 583.651 10.1034 584.062 10.5796C584.478 11.0558 584.686 11.6968 584.686 12.5024C584.686 13.2974 584.456 13.9312 583.998 14.4038C583.54 14.8729 582.911 15.1074 582.113 15.1074C581.397 15.1074 580.802 14.9051 580.33 14.5005C579.861 14.0923 579.606 13.5552 579.567 12.8892H580.829C580.879 13.2687 581.015 13.5605 581.237 13.7646C581.459 13.9652 581.749 14.0654 582.107 14.0654C582.508 14.0654 582.82 13.9222 583.042 13.6357C583.268 13.3493 583.38 12.959 583.38 12.4648C583.38 11.9886 583.257 11.6126 583.01 11.3369C582.763 11.0576 582.423 10.918 581.989 10.918C581.753 10.918 581.552 10.9502 581.388 11.0146C581.223 11.0755 581.044 11.1973 580.851 11.3799L579.809 11.1221Z" fill="#19212B"/>
<path fill-rule="evenodd" clip-rule="evenodd" d="M527.625 24.5C528.244 24.5 528.75 25.0062 528.75 25.625V38.375C528.75 38.9938 528.244 39.5 527.625 39.5H522.375C521.756 39.5 521.25 38.9938 521.25 38.375V25.625C521.25 25.0062 521.756 24.5 522.375 24.5H527.625ZM527.25 38V26H522.75V38H527.25ZM531.75 26.75C531.75 26.336 531.415 26 531 26C530.585 26 530.25 26.336 530.25 26.75V37.25C530.25 37.664 530.585 38 531 38C531.415 38 531.75 37.664 531.75 37.25V26.75ZM519 26C519.415 26 519.75 26.336 519.75 26.75V37.25C519.75 37.664 519.415 38 519 38C518.585 38 518.25 37.664 518.25 37.25V26.75C518.25 26.336 518.585 26 519 26ZM523.312 28.25C523.312 28.5605 523.564 28.8125 523.875 28.8125H526.125C526.436 28.8125 526.688 28.5605 526.688 28.25C526.688 27.9395 526.436 27.6875 526.125 27.6875H523.875C523.564 27.6875 523.312 27.9395 523.312 28.25ZM523.875 31.0625C523.564 31.0625 523.312 30.8105 523.312 30.5C523.312 30.1895 523.564 29.9375 523.875 29.9375H526.125C526.436 29.9375 526.688 30.1895 526.688 30.5C526.688 30.8105 526.436 31.0625 526.125 31.0625H523.875ZM524.25 35.75C524.25 36.1642 524.586 36.5 525 36.5C525.414 36.5 525.75 36.1642 525.75 35.75C525.75 35.3358 525.414 35 525 35C524.586 35 524.25 35.3358 524.25 35.75Z" fill="white" fill-opacity="0.94"/>
<path d="M544.282 32.4185H540.403V36.5H539.185V27.2578H544.91V28.2607H540.403V31.4219H544.282V32.4185ZM550.287 35.8208C549.83 36.3582 549.159 36.627 548.274 36.627C547.542 36.627 546.984 36.4154 546.599 35.9922C546.218 35.5648 546.025 34.9342 546.021 34.1006V29.6318H547.195V34.0688C547.195 35.1099 547.618 35.6304 548.465 35.6304C549.362 35.6304 549.959 35.2961 550.255 34.6274V29.6318H551.429V36.5H550.312L550.287 35.8208ZM554.495 36.5H553.321V26.75H554.495V36.5ZM557.656 36.5H556.482V26.75H557.656V36.5ZM560.119 36.5V30.5396H559.034V29.6318H560.119V28.9272C560.119 28.1909 560.316 27.6217 560.709 27.2197C561.103 26.8177 561.66 26.6167 562.379 26.6167C562.65 26.6167 562.918 26.6527 563.185 26.7246L563.122 27.6768C562.923 27.6387 562.711 27.6196 562.487 27.6196C562.106 27.6196 561.812 27.7318 561.604 27.9561C561.397 28.1761 561.293 28.4935 561.293 28.9082V29.6318H562.76V30.5396H561.293V36.5H560.119ZM565.337 36.5H564.163V29.6318H565.337V36.5ZM564.067 27.8101C564.067 27.6196 564.125 27.4588 564.239 27.3276C564.357 27.1965 564.531 27.1309 564.759 27.1309C564.988 27.1309 565.161 27.1965 565.28 27.3276C565.398 27.4588 565.458 27.6196 565.458 27.8101C565.458 28.0005 565.398 28.1592 565.28 28.2861C565.161 28.4131 564.988 28.4766 564.759 28.4766C564.531 28.4766 564.357 28.4131 564.239 28.2861C564.125 28.1592 564.067 28.0005 564.067 27.8101ZM568.498 36.5H567.324V26.75H568.498V36.5ZM571.659 36.5H570.485V26.75H571.659V36.5ZM574.649 29.6318L574.681 30.3936C575.184 29.8011 575.863 29.5049 576.718 29.5049C577.679 29.5049 578.333 29.873 578.68 30.6094C578.908 30.2793 579.204 30.0127 579.568 29.8096C579.937 29.6064 580.37 29.5049 580.87 29.5049C582.376 29.5049 583.142 30.3026 583.167 31.8979V36.5H581.993V31.9678C581.993 31.4769 581.881 31.1108 581.657 30.8696C581.432 30.6242 581.056 30.5015 580.527 30.5015C580.091 30.5015 579.729 30.6326 579.441 30.895C579.154 31.1532 578.986 31.5023 578.94 31.9424V36.5H577.759V31.9995C577.759 31.0008 577.271 30.5015 576.293 30.5015C575.523 30.5015 574.996 30.8294 574.712 31.4854V36.5H573.538V29.6318H574.649ZM587.795 36.627C586.864 36.627 586.106 36.3223 585.522 35.7129C584.938 35.0993 584.646 34.2804 584.646 33.2563V33.0405C584.646 32.3592 584.776 31.752 585.034 31.2188C585.296 30.6813 585.66 30.2624 586.125 29.9619C586.595 29.6572 587.103 29.5049 587.649 29.5049C588.542 29.5049 589.236 29.799 589.731 30.3872C590.226 30.9754 590.474 31.8175 590.474 32.9136V33.4023H585.821C585.838 34.0794 586.035 34.6274 586.411 35.0464C586.792 35.4611 587.274 35.6685 587.858 35.6685C588.273 35.6685 588.624 35.5838 588.912 35.4146C589.2 35.2453 589.452 35.021 589.667 34.7417L590.385 35.3003C589.809 36.1847 588.946 36.627 587.795 36.627ZM587.649 30.4697C587.175 30.4697 586.777 30.6432 586.456 30.9902C586.134 31.333 585.935 31.8154 585.859 32.4375H589.299V32.3486C589.265 31.752 589.105 31.2907 588.817 30.9648C588.529 30.6348 588.14 30.4697 587.649 30.4697ZM592.949 29.6318L592.987 30.4951C593.512 29.835 594.198 29.5049 595.044 29.5049C596.495 29.5049 597.228 30.3237 597.24 31.9614V36.5H596.066V31.9551C596.062 31.46 595.947 31.0939 595.723 30.8569C595.503 30.62 595.158 30.5015 594.688 30.5015C594.308 30.5015 593.973 30.603 593.686 30.8062C593.398 31.0093 593.174 31.2759 593.013 31.606V36.5H591.838V29.6318H592.949ZM600.604 27.9688V29.6318H601.887V30.5396H600.604V34.7988C600.604 35.0739 600.662 35.2812 600.776 35.4209C600.89 35.5563 601.085 35.624 601.36 35.624C601.495 35.624 601.681 35.5986 601.918 35.5479V36.5C601.61 36.5846 601.309 36.627 601.017 36.627C600.492 36.627 600.097 36.4683 599.83 36.1509C599.563 35.8335 599.43 35.3828 599.43 34.7988V30.5396H598.18V29.6318H599.43V27.9688H600.604ZM609.396 32.3804C608.351 32.0799 607.589 31.7118 607.111 31.2759C606.637 30.8358 606.4 30.2941 606.4 29.6509C606.4 28.923 606.69 28.3221 607.27 27.8481C607.854 27.37 608.611 27.1309 609.542 27.1309C610.177 27.1309 610.742 27.2536 611.237 27.499C611.736 27.7445 612.121 28.083 612.392 28.5146C612.667 28.9463 612.805 29.4181 612.805 29.9302H611.58C611.58 29.3716 611.402 28.9336 611.046 28.6162C610.691 28.2946 610.189 28.1338 609.542 28.1338C608.941 28.1338 608.471 28.2671 608.133 28.5337C607.799 28.7961 607.631 29.1621 607.631 29.6318C607.631 30.0085 607.79 30.328 608.107 30.5903C608.429 30.8485 608.973 31.0854 609.739 31.3013C610.509 31.5171 611.11 31.7562 611.542 32.0186C611.977 32.2767 612.299 32.5793 612.506 32.9263C612.718 33.2733 612.824 33.6816 612.824 34.1514C612.824 34.9004 612.532 35.5013 611.948 35.9541C611.364 36.4027 610.583 36.627 609.605 36.627C608.971 36.627 608.378 36.5063 607.828 36.2651C607.278 36.0197 606.853 35.6854 606.552 35.2622C606.256 34.839 606.108 34.3587 606.108 33.8213H607.333C607.333 34.3799 607.538 34.8221 607.949 35.1479C608.363 35.4696 608.916 35.6304 609.605 35.6304C610.249 35.6304 610.742 35.4992 611.084 35.2368C611.427 34.9744 611.599 34.6169 611.599 34.1641C611.599 33.7113 611.44 33.3621 611.123 33.1167C610.805 32.867 610.23 32.6216 609.396 32.3804ZM617.058 36.627C616.127 36.627 615.369 36.3223 614.785 35.7129C614.201 35.0993 613.909 34.2804 613.909 33.2563V33.0405C613.909 32.3592 614.038 31.752 614.296 31.2188C614.559 30.6813 614.923 30.2624 615.388 29.9619C615.858 29.6572 616.366 29.5049 616.912 29.5049C617.805 29.5049 618.499 29.799 618.994 30.3872C619.489 30.9754 619.736 31.8175 619.736 32.9136V33.4023H615.083C615.1 34.0794 615.297 34.6274 615.674 35.0464C616.055 35.4611 616.537 35.6685 617.121 35.6685C617.536 35.6685 617.887 35.5838 618.175 35.4146C618.463 35.2453 618.714 35.021 618.93 34.7417L619.647 35.3003C619.072 36.1847 618.209 36.627 617.058 36.627ZM616.912 30.4697C616.438 30.4697 616.04 30.6432 615.718 30.9902C615.397 31.333 615.198 31.8154 615.122 32.4375H618.562V32.3486C618.528 31.752 618.367 31.2907 618.08 30.9648C617.792 30.6348 617.403 30.4697 616.912 30.4697ZM624.421 30.6855C624.243 30.6559 624.051 30.6411 623.843 30.6411C623.073 30.6411 622.55 30.9691 622.275 31.625V36.5H621.101V29.6318H622.244L622.263 30.4253C622.648 29.8117 623.194 29.5049 623.9 29.5049C624.129 29.5049 624.302 29.5345 624.421 29.5938V30.6855ZM627.887 34.9067L629.588 29.6318H630.788L628.325 36.5H627.43L624.941 29.6318H626.141L627.887 34.9067ZM633.193 36.5H632.019V29.6318H633.193V36.5ZM631.924 27.8101C631.924 27.6196 631.981 27.4588 632.095 27.3276C632.214 27.1965 632.387 27.1309 632.616 27.1309C632.844 27.1309 633.018 27.1965 633.136 27.3276C633.255 27.4588 633.314 27.6196 633.314 27.8101C633.314 28.0005 633.255 28.1592 633.136 28.2861C633.018 28.4131 632.844 28.4766 632.616 28.4766C632.387 28.4766 632.214 28.4131 632.095 28.2861C631.981 28.1592 631.924 28.0005 631.924 27.8101ZM637.833 35.6685C638.252 35.6685 638.618 35.5415 638.932 35.2876C639.245 35.0337 639.418 34.7163 639.452 34.3354H640.563C640.542 34.729 640.406 35.1035 640.157 35.459C639.907 35.8145 639.573 36.098 639.154 36.3096C638.739 36.5212 638.299 36.627 637.833 36.627C636.898 36.627 636.153 36.3159 635.599 35.6938C635.049 35.0675 634.774 34.2127 634.774 33.1294V32.9326C634.774 32.264 634.897 31.6694 635.142 31.1489C635.388 30.6284 635.739 30.2243 636.196 29.9365C636.657 29.6488 637.201 29.5049 637.827 29.5049C638.597 29.5049 639.236 29.7355 639.744 30.1968C640.256 30.658 640.529 31.2568 640.563 31.9932H639.452C639.418 31.5488 639.249 31.1849 638.944 30.9014C638.644 30.6136 638.271 30.4697 637.827 30.4697C637.23 30.4697 636.767 30.6855 636.437 31.1172C636.111 31.5446 635.948 32.1646 635.948 32.9771V33.1992C635.948 33.9906 636.111 34.5999 636.437 35.0273C636.763 35.4548 637.228 35.6685 637.833 35.6685ZM644.733 36.627C643.802 36.627 643.045 36.3223 642.461 35.7129C641.877 35.0993 641.585 34.2804 641.585 33.2563V33.0405C641.585 32.3592 641.714 31.752 641.972 31.2188C642.235 30.6813 642.598 30.2624 643.064 29.9619C643.534 29.6572 644.042 29.5049 644.587 29.5049C645.48 29.5049 646.174 29.799 646.669 30.3872C647.165 30.9754 647.412 31.8175 647.412 32.9136V33.4023H642.759C642.776 34.0794 642.973 34.6274 643.35 35.0464C643.73 35.4611 644.213 35.6685 644.797 35.6685C645.212 35.6685 645.563 35.5838 645.851 35.4146C646.138 35.2453 646.39 35.021 646.606 34.7417L647.323 35.3003C646.748 36.1847 645.884 36.627 644.733 36.627ZM644.587 30.4697C644.113 30.4697 643.716 30.6432 643.394 30.9902C643.072 31.333 642.874 31.8154 642.797 32.4375H646.238V32.3486C646.204 31.752 646.043 31.2907 645.755 30.9648C645.468 30.6348 645.078 30.4697 644.587 30.4697Z" fill="white" fill-opacity="0.94"/>
<circle r="9" transform="matrix(-1 0 0 1 50 137)" fill="#6BE398"/>
<path d="M47.8086 138.122L48.2329 134.18H52.4331V135.308H49.3179L49.103 137.177C49.4647 136.969 49.8729 136.865 50.3276 136.865C51.0724 136.865 51.6507 137.103 52.0625 137.58C52.4779 138.056 52.6855 138.697 52.6855 139.502C52.6855 140.297 52.4564 140.931 51.998 141.404C51.5397 141.873 50.9113 142.107 50.1128 142.107C49.3966 142.107 48.8022 141.905 48.3296 141.5C47.8605 141.092 47.6063 140.555 47.5669 139.889H48.8291C48.8792 140.269 49.0153 140.561 49.2373 140.765C49.4593 140.965 49.7493 141.065 50.1074 141.065C50.5085 141.065 50.82 140.922 51.042 140.636C51.2676 140.349 51.3804 139.959 51.3804 139.465C51.3804 138.989 51.2568 138.613 51.0098 138.337C50.7627 138.058 50.4225 137.918 49.9893 137.918C49.7529 137.918 49.5524 137.95 49.3877 138.015C49.223 138.076 49.0439 138.197 48.8506 138.38L47.8086 138.122Z" fill="#19212B"/>
<path fill-rule="evenodd" clip-rule="evenodd" d="M11.625 151.5C12.2438 151.5 12.75 152.006 12.75 152.625V165.375C12.75 165.994 12.2438 166.5 11.625 166.5H6.375C5.75624 166.5 5.25 165.994 5.25 165.375V152.625C5.25 152.006 5.75624 151.5 6.375 151.5H11.625ZM11.25 165V153H6.75V165H11.25ZM15.75 153.75C15.75 153.336 15.4147 153 15 153C14.5853 153 14.25 153.336 14.25 153.75V164.25C14.25 164.664 14.5853 165 15 165C15.4147 165 15.75 164.664 15.75 164.25V153.75ZM3 153C3.41473 153 3.75 153.336 3.75 153.75V164.25C3.75 164.664 3.41473 165 3 165C2.58526 165 2.25 164.664 2.25 164.25V153.75C2.25 153.336 2.58526 153 3 153ZM7.3125 155.25C7.3125 155.561 7.5645 155.812 7.875 155.812H10.125C10.4355 155.812 10.6875 155.561 10.6875 155.25C10.6875 154.94 10.4355 154.688 10.125 154.688H7.875C7.5645 154.688 7.3125 154.94 7.3125 155.25ZM7.875 158.062C7.5645 158.062 7.3125 157.811 7.3125 157.5C7.3125 157.189 7.5645 156.938 7.875 156.938H10.125C10.4355 156.938 10.6875 157.189 10.6875 157.5C10.6875 157.811 10.4355 158.062 10.125 158.062H7.875ZM8.25 162.75C8.25 163.164 8.58579 163.5 9 163.5C9.41421 163.5 9.75 163.164 9.75 162.75C9.75 162.336 9.41421 162 9 162C8.58579 162 8.25 162.336 8.25 162.75Z" fill="white" fill-opacity="0.94"/>
<path d="M24.7422 159.882V163.5H23.5234V154.258H26.9321C27.9435 154.258 28.7349 154.516 29.3062 155.032C29.8817 155.549 30.1694 156.232 30.1694 157.083C30.1694 157.98 29.888 158.672 29.3252 159.158C28.7666 159.641 27.9647 159.882 26.9194 159.882H24.7422ZM24.7422 158.885H26.9321C27.5838 158.885 28.0832 158.733 28.4302 158.428C28.7772 158.119 28.9507 157.675 28.9507 157.095C28.9507 156.545 28.7772 156.105 28.4302 155.775C28.0832 155.445 27.6071 155.273 27.002 155.261H24.7422V158.885ZM31.1406 160.002C31.1406 159.33 31.2718 158.724 31.5342 158.187C31.8008 157.65 32.1689 157.235 32.6387 156.943C33.1126 156.651 33.6522 156.505 34.2573 156.505C35.1925 156.505 35.9479 156.829 36.5234 157.476C37.1032 158.124 37.3931 158.985 37.3931 160.06V160.142C37.3931 160.811 37.264 161.412 37.0059 161.945C36.752 162.474 36.3859 162.886 35.9077 163.183C35.4338 163.479 34.8879 163.627 34.27 163.627C33.339 163.627 32.5837 163.303 32.0039 162.656C31.4284 162.008 31.1406 161.151 31.1406 160.085V160.002ZM32.3213 160.142C32.3213 160.904 32.4969 161.515 32.8481 161.977C33.2036 162.438 33.6776 162.668 34.27 162.668C34.8667 162.668 35.3407 162.436 35.6919 161.97C36.0431 161.5 36.2188 160.845 36.2188 160.002C36.2188 159.249 36.0389 158.64 35.6792 158.174C35.3237 157.705 34.8498 157.47 34.2573 157.47C33.6776 157.47 33.21 157.7 32.8545 158.162C32.499 158.623 32.3213 159.283 32.3213 160.142ZM40.1416 163.5H38.9673V153.75H40.1416V163.5ZM43.3027 163.5H42.1284V156.632H43.3027V163.5ZM42.0332 154.81C42.0332 154.62 42.0903 154.459 42.2046 154.328C42.3231 154.196 42.4966 154.131 42.7251 154.131C42.9536 154.131 43.1271 154.196 43.2456 154.328C43.3641 154.459 43.4233 154.62 43.4233 154.81C43.4233 155 43.3641 155.159 43.2456 155.286C43.1271 155.413 42.9536 155.477 42.7251 155.477C42.4966 155.477 42.3231 155.413 42.2046 155.286C42.0903 155.159 42.0332 155 42.0332 154.81ZM47.9429 162.668C48.3618 162.668 48.7279 162.542 49.041 162.288C49.3542 162.034 49.5277 161.716 49.5615 161.335H50.6724C50.6512 161.729 50.5158 162.104 50.2661 162.459C50.0164 162.814 49.6821 163.098 49.2632 163.31C48.8485 163.521 48.4084 163.627 47.9429 163.627C47.0076 163.627 46.2629 163.316 45.7085 162.694C45.1584 162.068 44.8833 161.213 44.8833 160.129V159.933C44.8833 159.264 45.006 158.669 45.2515 158.149C45.4969 157.628 45.8481 157.224 46.3052 156.937C46.7664 156.649 47.3102 156.505 47.9365 156.505C48.7067 156.505 49.3457 156.736 49.8535 157.197C50.3656 157.658 50.6385 158.257 50.6724 158.993H49.5615C49.5277 158.549 49.3584 158.185 49.0537 157.901C48.7533 157.614 48.3809 157.47 47.9365 157.47C47.3398 157.47 46.8765 157.686 46.5464 158.117C46.2205 158.545 46.0576 159.165 46.0576 159.977V160.199C46.0576 160.991 46.2205 161.6 46.5464 162.027C46.8722 162.455 47.3377 162.668 47.9429 162.668ZM54.2397 161.78L55.8394 156.632H57.0962L54.335 164.56C53.9076 165.703 53.2284 166.274 52.2974 166.274L52.0752 166.255L51.6372 166.172V165.22L51.9546 165.246C52.3524 165.246 52.6613 165.165 52.8813 165.004C53.1056 164.844 53.2897 164.549 53.4336 164.122L53.6938 163.424L51.2437 156.632H52.5259L54.2397 161.78ZM61.0571 159.38C60.0119 159.08 59.2502 158.712 58.772 158.276C58.298 157.836 58.061 157.294 58.061 156.651C58.061 155.923 58.3509 155.322 58.9307 154.848C59.5146 154.37 60.2721 154.131 61.2031 154.131C61.8379 154.131 62.4028 154.254 62.8979 154.499C63.3973 154.744 63.7824 155.083 64.0532 155.515C64.3283 155.946 64.4658 156.418 64.4658 156.93H63.2407C63.2407 156.372 63.063 155.934 62.7075 155.616C62.3521 155.295 61.8506 155.134 61.2031 155.134C60.6022 155.134 60.1325 155.267 59.7939 155.534C59.4596 155.796 59.2925 156.162 59.2925 156.632C59.2925 157.008 59.4512 157.328 59.7686 157.59C60.0902 157.848 60.634 158.085 61.3999 158.301C62.1701 158.517 62.771 158.756 63.2026 159.019C63.6385 159.277 63.9601 159.579 64.1675 159.926C64.3791 160.273 64.4849 160.682 64.4849 161.151C64.4849 161.9 64.1929 162.501 63.6089 162.954C63.0249 163.403 62.2441 163.627 61.2666 163.627C60.6318 163.627 60.0394 163.506 59.4893 163.265C58.9391 163.02 58.5138 162.685 58.2134 162.262C57.9172 161.839 57.769 161.359 57.769 160.821H58.9941C58.9941 161.38 59.1994 161.822 59.6099 162.148C60.0246 162.47 60.5768 162.63 61.2666 162.63C61.9098 162.63 62.4028 162.499 62.7456 162.237C63.0884 161.974 63.2598 161.617 63.2598 161.164C63.2598 160.711 63.1011 160.362 62.7837 160.117C62.4663 159.867 61.8908 159.622 61.0571 159.38ZM68.7188 163.627C67.7878 163.627 67.0303 163.322 66.4463 162.713C65.8623 162.099 65.5703 161.28 65.5703 160.256V160.041C65.5703 159.359 65.6994 158.752 65.9575 158.219C66.2199 157.681 66.5838 157.262 67.0493 156.962C67.519 156.657 68.0269 156.505 68.5728 156.505C69.4657 156.505 70.1597 156.799 70.6548 157.387C71.1499 157.975 71.3975 158.818 71.3975 159.914V160.402H66.7446C66.7616 161.079 66.9583 161.627 67.335 162.046C67.7158 162.461 68.1982 162.668 68.7822 162.668C69.1969 162.668 69.5482 162.584 69.8359 162.415C70.1237 162.245 70.3755 162.021 70.5913 161.742L71.3086 162.3C70.7331 163.185 69.8698 163.627 68.7188 163.627ZM68.5728 157.47C68.0988 157.47 67.701 157.643 67.3794 157.99C67.0578 158.333 66.8589 158.815 66.7827 159.438H70.2231V159.349C70.1893 158.752 70.0285 158.291 69.7407 157.965C69.453 157.635 69.0636 157.47 68.5728 157.47ZM76.082 157.686C75.9043 157.656 75.7118 157.641 75.5044 157.641C74.7342 157.641 74.2116 157.969 73.9365 158.625V163.5H72.7622V156.632H73.9048L73.9238 157.425C74.3089 156.812 74.8548 156.505 75.5615 156.505C75.79 156.505 75.9635 156.535 76.082 156.594V157.686ZM79.5479 161.907L81.249 156.632H82.4487L79.9858 163.5H79.0908L76.6025 156.632H77.8022L79.5479 161.907ZM84.8545 163.5H83.6802V156.632H84.8545V163.5ZM83.585 154.81C83.585 154.62 83.6421 154.459 83.7563 154.328C83.8748 154.196 84.0483 154.131 84.2769 154.131C84.5054 154.131 84.6789 154.196 84.7974 154.328C84.9159 154.459 84.9751 154.62 84.9751 154.81C84.9751 155 84.9159 155.159 84.7974 155.286C84.6789 155.413 84.5054 155.477 84.2769 155.477C84.0483 155.477 83.8748 155.413 83.7563 155.286C83.6421 155.159 83.585 155 83.585 154.81ZM89.4946 162.668C89.9136 162.668 90.2796 162.542 90.5928 162.288C90.9059 162.034 91.0794 161.716 91.1133 161.335H92.2241C92.203 161.729 92.0675 162.104 91.8179 162.459C91.5682 162.814 91.2339 163.098 90.8149 163.31C90.4002 163.521 89.9601 163.627 89.4946 163.627C88.5594 163.627 87.8146 163.316 87.2603 162.694C86.7101 162.068 86.4351 161.213 86.4351 160.129V159.933C86.4351 159.264 86.5578 158.669 86.8032 158.149C87.0487 157.628 87.3999 157.224 87.8569 156.937C88.3182 156.649 88.862 156.505 89.4883 156.505C90.2585 156.505 90.8975 156.736 91.4053 157.197C91.9173 157.658 92.1903 158.257 92.2241 158.993H91.1133C91.0794 158.549 90.9102 158.185 90.6055 157.901C90.305 157.614 89.9326 157.47 89.4883 157.47C88.8916 157.47 88.4282 157.686 88.0981 158.117C87.7723 158.545 87.6094 159.165 87.6094 159.977V160.199C87.6094 160.991 87.7723 161.6 88.0981 162.027C88.424 162.455 88.8895 162.668 89.4946 162.668ZM96.3945 163.627C95.4635 163.627 94.7061 163.322 94.1221 162.713C93.5381 162.099 93.2461 161.28 93.2461 160.256V160.041C93.2461 159.359 93.3752 158.752 93.6333 158.219C93.8957 157.681 94.2596 157.262 94.7251 156.962C95.1948 156.657 95.7026 156.505 96.2485 156.505C97.1414 156.505 97.8354 156.799 98.3306 157.387C98.8257 157.975 99.0732 158.818 99.0732 159.914V160.402H94.4204C94.4373 161.079 94.6341 161.627 95.0107 162.046C95.3916 162.461 95.874 162.668 96.458 162.668C96.8727 162.668 97.224 162.584 97.5117 162.415C97.7995 162.245 98.0513 162.021 98.2671 161.742L98.9844 162.3C98.4089 163.185 97.5456 163.627 96.3945 163.627ZM96.2485 157.47C95.7746 157.47 95.3768 157.643 95.0552 157.99C94.7336 158.333 94.5347 158.815 94.4585 159.438H97.8989V159.349C97.8651 158.752 97.7043 158.291 97.4165 157.965C97.1287 157.635 96.7394 157.47 96.2485 157.47Z" fill="white" fill-opacity="0.94"/>
<circle r="9" transform="matrix(-1 0 0 1 583 140)" fill="#6BE398"/>
<path d="M580.809 141.122L581.233 137.18H585.433V138.308H582.318L582.103 140.177C582.465 139.969 582.873 139.865 583.328 139.865C584.072 139.865 584.651 140.103 585.062 140.58C585.478 141.056 585.686 141.697 585.686 142.502C585.686 143.297 585.456 143.931 584.998 144.404C584.54 144.873 583.911 145.107 583.113 145.107C582.397 145.107 581.802 144.905 581.33 144.5C580.861 144.092 580.606 143.555 580.567 142.889H581.829C581.879 143.269 582.015 143.561 582.237 143.765C582.459 143.965 582.749 144.065 583.107 144.065C583.508 144.065 583.82 143.922 584.042 143.636C584.268 143.349 584.38 142.959 584.38 142.465C584.38 141.989 584.257 141.613 584.01 141.337C583.763 141.058 583.423 140.918 582.989 140.918C582.753 140.918 582.552 140.95 582.388 141.015C582.223 141.076 582.044 141.197 581.851 141.38L580.809 141.122Z" fill="#19212B"/>
<path fill-rule="evenodd" clip-rule="evenodd" d="M505.625 154.5C506.244 154.5 506.75 155.006 506.75 155.625V168.375C506.75 168.994 506.244 169.5 505.625 169.5H500.375C499.756 169.5 499.25 168.994 499.25 168.375V155.625C499.25 155.006 499.756 154.5 500.375 154.5H505.625ZM505.25 168V156H500.75V168H505.25ZM509.75 156.75C509.75 156.336 509.415 156 509 156C508.585 156 508.25 156.336 508.25 156.75V167.25C508.25 167.664 508.585 168 509 168C509.415 168 509.75 167.664 509.75 167.25V156.75ZM497 156C497.415 156 497.75 156.336 497.75 156.75V167.25C497.75 167.664 497.415 168 497 168C496.585 168 496.25 167.664 496.25 167.25V156.75C496.25 156.336 496.585 156 497 156ZM501.312 158.25C501.312 158.561 501.564 158.812 501.875 158.812H504.125C504.436 158.812 504.688 158.561 504.688 158.25C504.688 157.94 504.436 157.688 504.125 157.688H501.875C501.564 157.688 501.312 157.94 501.312 158.25ZM501.875 161.062C501.564 161.062 501.312 160.811 501.312 160.5C501.312 160.189 501.564 159.938 501.875 159.938H504.125C504.436 159.938 504.688 160.189 504.688 160.5C504.688 160.811 504.436 161.062 504.125 161.062H501.875ZM502.25 165.75C502.25 166.164 502.586 166.5 503 166.5C503.414 166.5 503.75 166.164 503.75 165.75C503.75 165.336 503.414 165 503 165C502.586 165 502.25 165.336 502.25 165.75Z" fill="white" fill-opacity="0.94"/>
<path d="M523.947 163.567C523.833 164.545 523.471 165.3 522.862 165.833C522.257 166.362 521.451 166.627 520.443 166.627C519.352 166.627 518.476 166.236 517.815 165.453C517.16 164.67 516.832 163.622 516.832 162.311V161.422C516.832 160.563 516.984 159.807 517.289 159.156C517.597 158.504 518.033 158.005 518.596 157.658C519.159 157.306 519.811 157.131 520.551 157.131C521.533 157.131 522.32 157.406 522.913 157.956C523.505 158.502 523.85 159.259 523.947 160.229H522.722C522.616 159.492 522.386 158.959 522.03 158.629C521.679 158.299 521.186 158.134 520.551 158.134C519.773 158.134 519.161 158.422 518.717 158.997C518.277 159.573 518.057 160.391 518.057 161.454V162.349C518.057 163.352 518.266 164.149 518.685 164.742C519.104 165.334 519.69 165.63 520.443 165.63C521.12 165.63 521.639 165.478 521.999 165.173C522.362 164.864 522.604 164.329 522.722 163.567H523.947ZM529.673 165.821C529.216 166.358 528.545 166.627 527.661 166.627C526.929 166.627 526.37 166.415 525.985 165.992C525.604 165.565 525.411 164.934 525.407 164.101V159.632H526.582V164.069C526.582 165.11 527.005 165.63 527.851 165.63C528.748 165.63 529.345 165.296 529.641 164.627V159.632H530.815V166.5H529.698L529.673 165.821ZM536.604 164.678C536.604 164.361 536.484 164.115 536.243 163.942C536.006 163.764 535.589 163.612 534.992 163.485C534.4 163.358 533.928 163.206 533.577 163.028C533.23 162.85 532.972 162.639 532.802 162.393C532.637 162.148 532.555 161.856 532.555 161.517C532.555 160.954 532.792 160.478 533.266 160.089C533.744 159.7 534.353 159.505 535.094 159.505C535.872 159.505 536.503 159.706 536.985 160.108C537.472 160.51 537.715 161.024 537.715 161.65H536.535C536.535 161.329 536.397 161.052 536.122 160.819C535.851 160.586 535.508 160.47 535.094 160.47C534.666 160.47 534.332 160.563 534.091 160.749C533.85 160.935 533.729 161.179 533.729 161.479C533.729 161.763 533.841 161.976 534.065 162.12C534.29 162.264 534.694 162.402 535.278 162.533C535.866 162.664 536.342 162.82 536.706 163.002C537.07 163.184 537.339 163.404 537.512 163.663C537.69 163.917 537.779 164.228 537.779 164.596C537.779 165.209 537.533 165.702 537.042 166.075C536.552 166.443 535.915 166.627 535.132 166.627C534.582 166.627 534.095 166.53 533.672 166.335C533.249 166.14 532.917 165.869 532.675 165.522C532.438 165.171 532.32 164.792 532.32 164.386H533.494C533.515 164.78 533.672 165.093 533.964 165.326C534.26 165.554 534.649 165.668 535.132 165.668C535.576 165.668 535.932 165.58 536.198 165.402C536.469 165.22 536.604 164.979 536.604 164.678ZM540.902 157.969V159.632H542.184V160.54H540.902V164.799C540.902 165.074 540.959 165.281 541.073 165.421C541.188 165.556 541.382 165.624 541.657 165.624C541.793 165.624 541.979 165.599 542.216 165.548V166.5C541.907 166.585 541.606 166.627 541.314 166.627C540.79 166.627 540.394 166.468 540.127 166.151C539.861 165.833 539.728 165.383 539.728 164.799V160.54H538.477V159.632H539.728V157.969H540.902ZM543.124 163.002C543.124 162.33 543.255 161.724 543.517 161.187C543.784 160.65 544.152 160.235 544.622 159.943C545.096 159.651 545.635 159.505 546.24 159.505C547.175 159.505 547.931 159.829 548.506 160.476C549.086 161.124 549.376 161.985 549.376 163.06V163.142C549.376 163.811 549.247 164.412 548.989 164.945C548.735 165.474 548.369 165.886 547.891 166.183C547.417 166.479 546.871 166.627 546.253 166.627C545.322 166.627 544.567 166.303 543.987 165.656C543.411 165.008 543.124 164.151 543.124 163.085V163.002ZM544.304 163.142C544.304 163.904 544.48 164.515 544.831 164.977C545.187 165.438 545.66 165.668 546.253 165.668C546.85 165.668 547.324 165.436 547.675 164.97C548.026 164.5 548.202 163.845 548.202 163.002C548.202 162.249 548.022 161.64 547.662 161.174C547.307 160.705 546.833 160.47 546.24 160.47C545.66 160.47 545.193 160.7 544.837 161.162C544.482 161.623 544.304 162.283 544.304 163.142ZM551.953 159.632L551.985 160.394C552.488 159.801 553.168 159.505 554.022 159.505C554.983 159.505 555.637 159.873 555.984 160.609C556.212 160.279 556.509 160.013 556.873 159.81C557.241 159.606 557.674 159.505 558.174 159.505C559.68 159.505 560.446 160.303 560.472 161.898V166.5H559.297V161.968C559.297 161.477 559.185 161.111 558.961 160.87C558.737 160.624 558.36 160.501 557.831 160.501C557.395 160.501 557.033 160.633 556.746 160.895C556.458 161.153 556.291 161.502 556.244 161.942V166.5H555.063V162C555.063 161.001 554.575 160.501 553.597 160.501C552.827 160.501 552.3 160.829 552.017 161.485V166.5H550.842V159.632H551.953ZM565.099 166.627C564.168 166.627 563.411 166.322 562.827 165.713C562.243 165.099 561.951 164.28 561.951 163.256V163.041C561.951 162.359 562.08 161.752 562.338 161.219C562.6 160.681 562.964 160.262 563.43 159.962C563.899 159.657 564.407 159.505 564.953 159.505C565.846 159.505 566.54 159.799 567.035 160.387C567.53 160.975 567.778 161.818 567.778 162.914V163.402H563.125C563.142 164.079 563.339 164.627 563.715 165.046C564.096 165.461 564.579 165.668 565.163 165.668C565.577 165.668 565.929 165.584 566.216 165.415C566.504 165.245 566.756 165.021 566.972 164.742L567.689 165.3C567.113 166.185 566.25 166.627 565.099 166.627ZM564.953 160.47C564.479 160.47 564.081 160.643 563.76 160.99C563.438 161.333 563.239 161.815 563.163 162.438H566.604V162.349C566.57 161.752 566.409 161.291 566.121 160.965C565.833 160.635 565.444 160.47 564.953 160.47ZM572.462 160.686C572.285 160.656 572.092 160.641 571.885 160.641C571.115 160.641 570.592 160.969 570.317 161.625V166.5H569.143V159.632H570.285L570.304 160.425C570.689 159.812 571.235 159.505 571.942 159.505C572.17 159.505 572.344 159.535 572.462 159.594V160.686ZM575.04 166.5H573.821V157.258H575.04V166.5ZM578.201 159.632L578.239 160.495C578.764 159.835 579.449 159.505 580.295 159.505C581.747 159.505 582.479 160.324 582.492 161.961V166.5H581.317V161.955C581.313 161.46 581.199 161.094 580.975 160.857C580.755 160.62 580.41 160.501 579.94 160.501C579.559 160.501 579.225 160.603 578.937 160.806C578.649 161.009 578.425 161.276 578.264 161.606V166.5H577.09V159.632H578.201ZM584.84 166.5V160.54H583.755V159.632H584.84V158.927C584.84 158.191 585.037 157.622 585.431 157.22C585.824 156.818 586.381 156.617 587.1 156.617C587.371 156.617 587.64 156.653 587.906 156.725L587.843 157.677C587.644 157.639 587.432 157.62 587.208 157.62C586.827 157.62 586.533 157.732 586.326 157.956C586.118 158.176 586.015 158.493 586.015 158.908V159.632H587.481V160.54H586.015V166.5H584.84ZM588.471 163.002C588.471 162.33 588.602 161.724 588.865 161.187C589.131 160.65 589.5 160.235 589.969 159.943C590.443 159.651 590.983 159.505 591.588 159.505C592.523 159.505 593.278 159.829 593.854 160.476C594.434 161.124 594.724 161.985 594.724 163.06V163.142C594.724 163.811 594.595 164.412 594.336 164.945C594.083 165.474 593.716 165.886 593.238 166.183C592.764 166.479 592.218 166.627 591.601 166.627C590.67 166.627 589.914 166.303 589.334 165.656C588.759 165.008 588.471 164.151 588.471 163.085V163.002ZM589.652 163.142C589.652 163.904 589.827 164.515 590.179 164.977C590.534 165.438 591.008 165.668 591.601 165.668C592.197 165.668 592.671 165.436 593.022 164.97C593.374 164.5 593.549 163.845 593.549 163.002C593.549 162.249 593.369 161.64 593.01 161.174C592.654 160.705 592.18 160.47 591.588 160.47C591.008 160.47 590.541 160.7 590.185 161.162C589.83 161.623 589.652 162.283 589.652 163.142ZM599.516 160.686C599.338 160.656 599.146 160.641 598.938 160.641C598.168 160.641 597.646 160.969 597.371 161.625V166.5H596.196V159.632H597.339L597.358 160.425C597.743 159.812 598.289 159.505 598.996 159.505C599.224 159.505 599.398 159.535 599.516 159.594V160.686ZM601.706 159.632L601.738 160.394C602.241 159.801 602.921 159.505 603.775 159.505C604.736 159.505 605.39 159.873 605.737 160.609C605.965 160.279 606.262 160.013 606.625 159.81C606.994 159.606 607.427 159.505 607.927 159.505C609.433 159.505 610.199 160.303 610.225 161.898V166.5H609.05V161.968C609.05 161.477 608.938 161.111 608.714 160.87C608.49 160.624 608.113 160.501 607.584 160.501C607.148 160.501 606.786 160.633 606.499 160.895C606.211 161.153 606.044 161.502 605.997 161.942V166.5H604.816V162C604.816 161.001 604.328 160.501 603.35 160.501C602.58 160.501 602.053 160.829 601.77 161.485V166.5H600.595V159.632H601.706ZM616.242 166.5C616.174 166.365 616.119 166.123 616.077 165.776C615.531 166.343 614.88 166.627 614.122 166.627C613.445 166.627 612.889 166.437 612.453 166.056C612.021 165.671 611.805 165.184 611.805 164.596C611.805 163.881 612.076 163.326 612.618 162.933C613.164 162.535 613.93 162.336 614.916 162.336H616.058V161.796C616.058 161.386 615.935 161.06 615.69 160.819C615.444 160.573 615.083 160.451 614.604 160.451C614.186 160.451 613.834 160.556 613.551 160.768C613.267 160.98 613.125 161.236 613.125 161.536H611.945C611.945 161.193 612.065 160.863 612.307 160.546C612.552 160.224 612.882 159.97 613.297 159.784C613.716 159.598 614.175 159.505 614.674 159.505C615.466 159.505 616.086 159.704 616.534 160.102C616.983 160.495 617.215 161.039 617.232 161.733V164.894C617.232 165.525 617.313 166.026 617.474 166.398V166.5H616.242ZM614.293 165.605C614.662 165.605 615.011 165.51 615.341 165.319C615.671 165.129 615.91 164.881 616.058 164.577V163.167H615.138C613.699 163.167 612.979 163.589 612.979 164.431C612.979 164.799 613.102 165.087 613.348 165.294C613.593 165.501 613.908 165.605 614.293 165.605ZM620.667 157.969V159.632H621.949V160.54H620.667V164.799C620.667 165.074 620.724 165.281 620.838 165.421C620.952 165.556 621.147 165.624 621.422 165.624C621.557 165.624 621.743 165.599 621.98 165.548V166.5C621.672 166.585 621.371 166.627 621.079 166.627C620.554 166.627 620.159 166.468 619.892 166.151C619.625 165.833 619.492 165.383 619.492 164.799V160.54H618.242V159.632H619.492V157.969H620.667ZM624.602 166.5H623.428V159.632H624.602V166.5ZM623.333 157.81C623.333 157.62 623.39 157.459 623.504 157.328C623.622 157.196 623.796 157.131 624.024 157.131C624.253 157.131 624.426 157.196 624.545 157.328C624.663 157.459 624.723 157.62 624.723 157.81C624.723 158 624.663 158.159 624.545 158.286C624.426 158.413 624.253 158.477 624.024 158.477C623.796 158.477 623.622 158.413 623.504 158.286C623.39 158.159 623.333 158 623.333 157.81ZM626.176 163.002C626.176 162.33 626.307 161.724 626.57 161.187C626.836 160.65 627.205 160.235 627.674 159.943C628.148 159.651 628.688 159.505 629.293 159.505C630.228 159.505 630.984 159.829 631.559 160.476C632.139 161.124 632.429 161.985 632.429 163.06V163.142C632.429 163.811 632.3 164.412 632.042 164.945C631.788 165.474 631.422 165.886 630.943 166.183C630.469 166.479 629.924 166.627 629.306 166.627C628.375 166.627 627.619 166.303 627.04 165.656C626.464 165.008 626.176 164.151 626.176 163.085V163.002ZM627.357 163.142C627.357 163.904 627.533 164.515 627.884 164.977C628.239 165.438 628.713 165.668 629.306 165.668C629.902 165.668 630.376 165.436 630.728 164.97C631.079 164.5 631.254 163.845 631.254 163.002C631.254 162.249 631.075 161.64 630.715 161.174C630.359 160.705 629.885 160.47 629.293 160.47C628.713 160.47 628.246 160.7 627.89 161.162C627.535 161.623 627.357 162.283 627.357 163.142ZM635.012 159.632L635.05 160.495C635.575 159.835 636.261 159.505 637.107 159.505C638.558 159.505 639.291 160.324 639.303 161.961V166.5H638.129V161.955C638.125 161.46 638.01 161.094 637.786 160.857C637.566 160.62 637.221 160.501 636.751 160.501C636.371 160.501 636.036 160.603 635.749 160.806C635.461 161.009 635.236 161.276 635.076 161.606V166.5H633.901V159.632H635.012ZM647.206 162.38C646.161 162.08 645.399 161.712 644.921 161.276C644.447 160.836 644.21 160.294 644.21 159.651C644.21 158.923 644.5 158.322 645.08 157.848C645.664 157.37 646.421 157.131 647.352 157.131C647.987 157.131 648.552 157.254 649.047 157.499C649.546 157.744 649.931 158.083 650.202 158.515C650.477 158.946 650.615 159.418 650.615 159.93H649.39C649.39 159.372 649.212 158.934 648.856 158.616C648.501 158.295 648 158.134 647.352 158.134C646.751 158.134 646.281 158.267 645.943 158.534C645.609 158.796 645.441 159.162 645.441 159.632C645.441 160.008 645.6 160.328 645.917 160.59C646.239 160.848 646.783 161.085 647.549 161.301C648.319 161.517 648.92 161.756 649.352 162.019C649.787 162.277 650.109 162.579 650.316 162.926C650.528 163.273 650.634 163.682 650.634 164.151C650.634 164.9 650.342 165.501 649.758 165.954C649.174 166.403 648.393 166.627 647.416 166.627C646.781 166.627 646.188 166.506 645.638 166.265C645.088 166.02 644.663 165.685 644.362 165.262C644.066 164.839 643.918 164.359 643.918 163.821H645.143C645.143 164.38 645.348 164.822 645.759 165.148C646.174 165.47 646.726 165.63 647.416 165.63C648.059 165.63 648.552 165.499 648.895 165.237C649.237 164.974 649.409 164.617 649.409 164.164C649.409 163.711 649.25 163.362 648.933 163.117C648.615 162.867 648.04 162.622 647.206 162.38ZM654.868 166.627C653.937 166.627 653.179 166.322 652.595 165.713C652.011 165.099 651.719 164.28 651.719 163.256V163.041C651.719 162.359 651.848 161.752 652.106 161.219C652.369 160.681 652.733 160.262 653.198 159.962C653.668 159.657 654.176 159.505 654.722 159.505C655.615 159.505 656.309 159.799 656.804 160.387C657.299 160.975 657.546 161.818 657.546 162.914V163.402H652.894C652.91 164.079 653.107 164.627 653.484 165.046C653.865 165.461 654.347 165.668 654.931 165.668C655.346 165.668 655.697 165.584 655.985 165.415C656.273 165.245 656.524 165.021 656.74 164.742L657.458 165.3C656.882 166.185 656.019 166.627 654.868 166.627ZM654.722 160.47C654.248 160.47 653.85 160.643 653.528 160.99C653.207 161.333 653.008 161.815 652.932 162.438H656.372V162.349C656.338 161.752 656.177 161.291 655.89 160.965C655.602 160.635 655.213 160.47 654.722 160.47ZM662.231 160.686C662.053 160.656 661.861 160.641 661.653 160.641C660.883 160.641 660.361 160.969 660.085 161.625V166.5H658.911V159.632H660.054L660.073 160.425C660.458 159.812 661.004 159.505 661.71 159.505C661.939 159.505 662.112 159.535 662.231 159.594V160.686ZM662.555 165.884C662.555 165.681 662.614 165.512 662.732 165.376C662.855 165.241 663.037 165.173 663.278 165.173C663.52 165.173 663.701 165.241 663.824 165.376C663.951 165.512 664.015 165.681 664.015 165.884C664.015 166.079 663.951 166.242 663.824 166.373C663.701 166.504 663.52 166.57 663.278 166.57C663.037 166.57 662.855 166.504 662.732 166.373C662.614 166.242 662.555 166.079 662.555 165.884ZM665.982 165.884C665.982 165.681 666.042 165.512 666.16 165.376C666.283 165.241 666.465 165.173 666.706 165.173C666.947 165.173 667.129 165.241 667.252 165.376C667.379 165.512 667.442 165.681 667.442 165.884C667.442 166.079 667.379 166.242 667.252 166.373C667.129 166.504 666.947 166.57 666.706 166.57C666.465 166.57 666.283 166.504 666.16 166.373C666.042 166.242 665.982 166.079 665.982 165.884ZM669.41 165.884C669.41 165.681 669.469 165.512 669.588 165.376C669.711 165.241 669.893 165.173 670.134 165.173C670.375 165.173 670.557 165.241 670.68 165.376C670.807 165.512 670.87 165.681 670.87 165.884C670.87 166.079 670.807 166.242 670.68 166.373C670.557 166.504 670.375 166.57 670.134 166.57C669.893 166.57 669.711 166.504 669.588 166.373C669.469 166.242 669.41 166.079 669.41 165.884Z" fill="white" fill-opacity="0.94"/>
<path d="M170 42.6465L170.41 42.3604L170 42.6465ZM291 74L286.006 71.1029L285.994 76.8764L291 74ZM69 10.5C102.579 10.5 123.242 12.2 137.757 17.1C152.222 21.9834 160.606 30.0554 169.59 42.9326L170.41 42.3604C161.353 29.3789 152.813 21.1277 138.076 16.1525C123.389 11.1939 102.572 9.5 69 9.5V10.5ZM169.59 42.9326C178.756 56.0712 193.697 63.8909 213.455 68.4617C233.21 73.0319 257.849 74.3695 286.497 74.4907L286.501 73.4907C257.864 73.3696 233.32 72.0308 213.68 67.4874C194.043 62.9446 179.377 55.2134 170.41 42.3604L169.59 42.9326Z" fill="white" fill-opacity="0.38"/>
<path d="M556 10L551.007 12.8986L550.993 7.12509L556 10ZM455 42.6465L454.59 42.3604L455 42.6465ZM551.507 10.5106C519.819 10.6644 500.178 12.508 486.265 17.4383C472.398 22.3528 464.191 30.3464 455.41 42.9326L454.59 42.3604C463.44 29.6751 471.798 21.5045 485.931 16.4958C500.02 11.5029 519.816 9.66436 551.502 9.51065L551.507 10.5106ZM455.41 42.9326C446.005 56.4128 430.522 64.294 409.993 68.8118C389.466 73.3293 363.821 74.5 334 74.5V73.5C363.814 73.5 389.366 72.3276 409.779 67.8352C430.19 63.3432 445.39 55.5476 454.59 42.3604L455.41 42.9326Z" fill="white" fill-opacity="0.38"/>
<path d="M170 106.354L170.41 106.64L170 106.354ZM291 75L286.006 77.8971L285.994 72.1236L291 75ZM69 138.5C102.579 138.5 123.242 136.8 137.757 131.9C152.222 127.017 160.606 118.945 169.59 106.067L170.41 106.64C161.353 119.621 152.813 127.872 138.076 132.847C123.389 137.806 102.572 139.5 69 139.5V138.5ZM169.59 106.067C178.756 92.9288 193.697 85.1091 213.455 80.5383C233.21 75.9681 257.849 74.6305 286.497 74.5093L286.501 75.5093C257.864 75.6304 233.32 76.9692 213.68 81.5126C194.043 86.0554 179.377 93.7866 170.41 106.64L169.59 106.067Z" fill="white" fill-opacity="0.38"/>
<path d="M556 139L551.007 136.101L550.993 141.875L556 139ZM455 106.354L454.59 106.64L455 106.354ZM551.507 138.489C519.819 138.336 500.178 136.492 486.265 131.562C472.398 126.647 464.191 118.654 455.41 106.067L454.59 106.64C463.44 119.325 471.798 127.496 485.931 132.504C500.02 137.497 519.816 139.336 551.502 139.489L551.507 138.489ZM455.41 106.067C446.005 92.5872 430.522 84.706 409.993 80.1882C389.466 75.6707 363.821 74.5 334 74.5V75.5C363.814 75.5 389.366 76.6724 409.779 81.1648C430.19 85.6568 445.39 93.4524 454.59 106.64L455.41 106.067Z" fill="white" fill-opacity="0.38"/>
</svg>
