<svg width="24" height="24" viewBox="0 0 24 24" fill="none" xmlns="http://www.w3.org/2000/svg">
<path fill-rule="evenodd" clip-rule="evenodd" d="M10.9 6.3C11.3 5.9 11.9 5.9 12.3 6.3C12.7 6.7 12.7 7.4 12.3 7.7L8.4 11.6L12.3 15.5C12.6 15.8 12.6 16.4 12.3 16.8C11.9 17.2 11.3 17.3 10.9 16.9L6.3 12.3C5.9 11.9 5.9 11.3 6.3 10.9L10.9 6.3ZM16.9 6.3C17.3 5.9 17.9 5.9 18.3 6.3C18.7 6.7 18.7 7.4 18.3 7.7L14.4 11.6L18.3 15.5C18.6 15.8 18.6 16.4 18.3 16.8C17.9 17.2 17.3 17.3 16.9 16.9L12.3 12.3C11.9 11.9 11.9 11.3 12.3 10.9L16.9 6.3Z" fill="white" fill-opacity="0.94"/>
</svg>
