<svg width="24" height="24" viewBox="0 0 24 24" fill="none" xmlns="http://www.w3.org/2000/svg">
<path fill-rule="evenodd" clip-rule="evenodd" d="M13.7 16.8543C13.3 17.2543 12.7 17.2543 12.3 16.8543C11.9 16.4543 11.9 15.7543 12.3 15.4543L16.2 11.5543L12.3 7.6543C12 7.3543 12 6.7543 12.3 6.3543C12.7 5.9543 13.3 5.8543 13.7 6.2543L18.3 10.8543C18.7 11.2543 18.7 11.8543 18.3 12.2543L13.7 16.8543ZM7.69998 16.8543C7.29998 17.2543 6.69998 17.2543 6.29998 16.8543C5.89997 16.4543 5.89997 15.7543 6.29998 15.4543L10.2 11.5543L6.29998 7.6543C5.99998 7.3543 5.99998 6.7543 6.29998 6.3543C6.69998 5.9543 7.29998 5.8543 7.69998 6.2543L12.3 10.8543C12.7 11.2543 12.7 11.8543 12.3 12.2543L7.69998 16.8543Z" fill="white" fill-opacity="0.94"/>
</svg>
