<?xml version="1.0" encoding="utf-8"?>
<!-- Generator: Adobe Illustrator 26.2.1, SVG Export Plug-In . SVG Version: 6.00 Build 0)  -->
<svg version="1.1" id="Layer_1" xmlns="http://www.w3.org/2000/svg" xmlns:xlink="http://www.w3.org/1999/xlink" x="0px" y="0px"
	 viewBox="0 0 610.1034546 154.1724091" style="enable-background:new 0 0 610.1034546 154.1724091;" xml:space="preserve">
<style type="text/css">
	.st0{fill:none;}
	.st1{fill:#010101;}
</style>
<g>
	<path class="st0" d="M363.3862305,73.8154297c-2.2001953,0-4.0405273,0.6298828-5.5200195,1.890625
		c-1.4804688,1.2597656-2.4404297,2.9902344-2.8798828,5.1894531H371.90625
		c-0.4003906-2.2392578-1.3203125-3.9794922-2.7602539-5.2197266
		C367.7060547,74.4365234,365.7861328,73.8154297,363.3862305,73.8154297z"/>
	<path class="st0" d="M418.0654297,65.8955078c-2.1601562-1.2392578-4.5595703-1.8603516-7.2001953-1.8603516h-6.7197266v28.0800781
		h6.7197266c2.640625,0,5.0400391-0.6191406,7.2001953-1.859375c2.1601562-1.2392578,3.859375-2.9296875,5.0996094-5.0703125
		c1.2402344-2.1396484,1.8613281-4.5097656,1.8613281-7.1103516c0-2.5996094-0.6210938-4.9697266-1.8613281-7.109375
		S420.2255859,67.1357422,418.0654297,65.8955078z"/>
	<path class="st0" d="M222.5288086,86.2958984c-1.1201172,0.8007812-1.6796875,1.9199219-1.6796875,3.359375
		c0,1.4013672,0.5292969,2.5009766,1.5898438,3.3007812c1.059082,0.7998047,2.4897461,1.1992188,4.2900391,1.1992188
		c2.0400391,0,3.7397461-0.5791016,5.1000977-1.7392578c1.359375-1.1601562,2.0400391-2.8398438,2.0400391-5.0400391v-2.2802734
		h-6.4804688C225.2680664,85.0957031,223.6484375,85.4960938,222.5288086,86.2958984z"/>
	<path class="st0" d="M202.5493164,65.6552734c-1.5600586-1.2392578-3.4604492-1.859375-5.7001953-1.859375h-9.1201172v14.7597656
		h9.1201172c2.2397461,0,4.1401367-0.6201172,5.7001953-1.8603516c1.5600586-1.2392578,2.3398438-3.0791016,2.3398438-5.5195312
		C204.8891602,68.7363281,204.109375,66.8955078,202.5493164,65.6552734z"/>
	<path class="st0" d="M451.4248047,73.8154297c-2.2001953,0-4.0410156,0.6298828-5.5205078,1.890625
		c-1.4794922,1.2597656-2.4394531,2.9902344-2.8798828,5.1894531h16.9199219
		c-0.4003906-2.2392578-1.3193359-3.9794922-2.7597656-5.2197266
		C455.7451172,74.4365234,453.8242188,73.8154297,451.4248047,73.8154297z"/>
	<path class="st0" d="M83.3873291,72.5771484c0.0144043-0.0080566,0.0280762-0.0175781,0.0422363-0.0256348
		c0.2543945-0.1437988,0.5019531-0.2993164,0.7426758-0.4663086c0.0673828-0.046875,0.1308594-0.098877,0.1970215-0.1474609
		c0.182373-0.1337891,0.3625488-0.2709961,0.5356445-0.4177246c0.0895996-0.076416,0.1745605-0.157959,0.2614746-0.2375488
		c0.1435547-0.1313477,0.2858887-0.2646484,0.4216309-0.4052734c0.092041-0.0952148,0.1794434-0.1948242,0.267334-0.2939453
		c0.119873-0.1347656,0.2375488-0.2712402,0.348877-0.4111328c0.0949707-0.1201172,0.1860352-0.2434082,0.2751465-0.3679199
		c0.0878906-0.1220703,0.1733398-0.2456055,0.2548828-0.3708496c0.097168-0.1503906,0.1904297-0.3032227,0.2792969-0.4592285
		c0.060791-0.1066895,0.1193848-0.2143555,0.1760254-0.322998c0.0910645-0.1748047,0.1772461-0.3525391,0.2575684-0.5336914
		c0.0441895-0.0998535,0.0859375-0.2006836,0.1264648-0.3022461c0.0761719-0.1889648,0.1469727-0.380127,0.2109375-0.574707
		c0.034668-0.1064453,0.0661621-0.213623,0.097168-0.3210449c0.0549316-0.1904297,0.1054688-0.3825684,0.1486816-0.5776367
		c0.0273438-0.1237793,0.0500488-0.248291,0.0720215-0.373291c0.0327148-0.1813965,0.0620117-0.3640137,0.0839844-0.5488281
		c0.017334-0.1455078,0.0285645-0.2922363,0.0390625-0.439209c0.0124512-0.170166,0.0227051-0.3405762,0.0258789-0.5131836
		c0.0029297-0.161377-0.0009766-0.3239746-0.0063477-0.4865723c-0.005127-0.1645508-0.0112305-0.3288574-0.0246582-0.4912109
		c-0.0129395-0.1547852-0.0322266-0.3076172-0.0527344-0.4599609c-0.0197754-0.1484375-0.0412598-0.2961426-0.067627-0.4423828
		c-0.0361328-0.1938477-0.078125-0.3859863-0.1262207-0.5756836c-0.0197754-0.079834-0.0397949-0.1594238-0.0615234-0.2385254
		c-1.1445312-4.0407715-5.0109863-6.9882812-9.5480957-6.9882812H58.0994873v19.0039062H78.758667
		C80.387085,73.7885742,81.9822998,73.3618164,83.3873291,72.5771484z"/>
	<path class="st0" d="M48.039917,98.9116211c-1.5136719,0-2.9980469,0.3212891-4.3613281,0.9208984
		c-0.0351562,0.0153809-0.0686035,0.0341797-0.1035156,0.0500488c-0.2939453,0.1328125-0.5827637,0.2775879-0.8642578,0.4362793
		c-0.0737305,0.041748-0.144043,0.0883789-0.2167969,0.1318359c-0.234375,0.1394043-0.465332,0.2849121-0.689209,0.4421387
		c-0.1000977,0.0703125-0.1962891,0.1462402-0.2939453,0.2199707c-0.1872559,0.1408691-0.3718262,0.2858887-0.550293,0.439209
		c-0.1113281,0.0961914-0.21875,0.1962891-0.3261719,0.2966309c-0.1560059,0.1455078-0.3088379,0.2946777-0.456543,0.4499512
		c-0.1101074,0.1157227-0.2175293,0.2341309-0.3225098,0.3544922c-0.1328125,0.1523438-0.2602539,0.3081055-0.3835449,0.4660645
		c-0.1081543,0.138916-0.2148438,0.2785645-0.3161621,0.4226074c-0.0981445,0.1386719-0.1894531,0.2807617-0.2802734,0.4228516
		c-0.1108398,0.1740723-0.2207031,0.3483887-0.3217773,0.5288086c-0.0639648,0.1142578-0.121582,0.2314453-0.1813965,0.3476562
		c-0.1081543,0.2109375-0.2145996,0.4223633-0.309082,0.640625c-0.0412598,0.0952148-0.0759277,0.1928711-0.1142578,0.2893066
		c-0.0952148,0.2387695-0.1877441,0.4790039-0.2661133,0.7258301c-0.0297852,0.0942383-0.0522461,0.1906738-0.0795898,0.2858887
		c-0.0715332,0.2490234-0.1408691,0.4992676-0.1945801,0.755127c-0.0253906,0.1206055-0.0405273,0.2438965-0.0615234,0.3654785
		c-0.0407715,0.2329102-0.0820312,0.4655762-0.107666,0.7033691c-0.0183105,0.1713867-0.0224609,0.3457031-0.0324707,0.5187988
		c-0.0117188,0.1936035-0.0283203,0.3859863-0.0297852,0.5822754c-0.0009766,0.2207031,0.0146484,0.4438477,0.0268555,0.6665039
		c0.0083008,0.1547852,0.0085449,0.3117676,0.0234375,0.4648438c0.0144043,0.1491699,0.0419922,0.2941895,0.0627441,0.4414062
		c0.0275879,0.1992188,0.0524902,0.3994141,0.0910645,0.5949707c0.0541992,0.2705078,0.121582,0.5366211,0.1967773,0.7995605
		c0.0129395,0.0466309,0.0227051,0.0942383,0.0361328,0.140625c1.3615723,4.5219727,5.7519531,7.8283691,10.7988281,7.8283691
		h2.8066406h0.4082031V98.9116211h-0.4082031H48.039917z"/>
	<path class="st0" d="M525.1044922,74.2958984c-2.4404297,0-4.4306641,0.8095703-5.9697266,2.4296875
		c-1.5410156,1.6201172-2.3105469,3.6503906-2.3105469,6.0898438c0,2.4003906,0.7695312,4.4208984,2.3105469,6.0605469
		c1.5390625,1.640625,3.5292969,2.4599609,5.9697266,2.4599609c2.4394531,0,4.4394531-0.8193359,6-2.4599609
		c1.5595703-1.6396484,2.3398438-3.6601562,2.3398438-6.0605469c0-2.4394531-0.7802734-4.4697266-2.3398438-6.0898438
		C529.5439453,75.1054688,527.5439453,74.2958984,525.1044922,74.2958984z"/>
	<path class="st1" d="M204.9492188,59.4453125c-2.1206055-1.1787109-4.5-1.7695312-7.1401367-1.7695312H180.769043v40.7998047
		h6.9599609V84.7353516h10.0800781c2.6401367,0,5.0297852-0.5898438,7.1699219-1.7695312
		c2.1396484-1.1796875,3.8100586-2.7998047,5.0102539-4.8603516c1.199707-2.0595703,1.7998047-4.3691406,1.7998047-6.9296875
		c0-2.5595703-0.6103516-4.8603516-1.8300781-6.9003906C208.7387695,62.2353516,207.0688477,60.6259766,204.9492188,59.4453125z
		 M202.5493164,76.6953125c-1.5600586,1.2402344-3.4604492,1.8603516-5.7001953,1.8603516h-9.1201172V63.7958984h9.1201172
		c2.2397461,0,4.1401367,0.6201172,5.7001953,1.859375c1.5600586,1.2402344,2.3398438,3.0810547,2.3398438,5.5205078
		C204.8891602,73.6162109,204.109375,75.4560547,202.5493164,76.6953125z"/>
	<path class="st1" d="M234.3491211,69.5253906c-1.8808594-0.8994141-4.0605469-1.3496094-6.5400391-1.3496094
		c-2.800293,0-5.2602539,0.5908203-7.3803711,1.7695312c-2.1206055,1.1806641-3.7797852,2.7109375-4.9799805,4.5898438
		l5.340332,2.4003906c0.6796875-0.8789062,1.5898438-1.6289062,2.7299805-2.25
		c1.1396484-0.6201172,2.4897461-0.9296875,4.0498047-0.9296875c1.8798828,0,3.3994141,0.4794922,4.5600586,1.4394531
		c1.159668,0.9599609,1.7402344,2.2207031,1.7402344,3.7802734v1.5h-7.2001953
		c-3.8398438,0-6.8305664,0.8603516-8.9702148,2.5800781c-2.1401367,1.7207031-3.2099609,4-3.2099609,6.8398438
		c0,2.8007812,0.9902344,5.0703125,2.9702148,6.8105469c1.9799805,1.7392578,4.6293945,2.609375,7.949707,2.609375
		c1.9594727,0,3.6904297-0.3505859,5.1904297-1.0498047s2.7089844-1.6503906,3.6298828-2.8496094l1.3198242,3.0595703h4.6801758
		V78.4355469c0-1.9589844-0.5102539-3.7099609-1.5302734-5.25
		C237.6787109,71.6464844,236.2285156,70.4257812,234.3491211,69.5253906z M233.8691406,87.3759766
		c0,2.2001953-0.6806641,3.8798828-2.0400391,5.0400391c-1.3603516,1.1601562-3.0600586,1.7392578-5.1000977,1.7392578
		c-1.800293,0-3.230957-0.3994141-4.2900391-1.1992188c-1.0605469-0.7998047-1.5898438-1.8994141-1.5898438-3.3007812
		c0-1.4394531,0.5595703-2.5585938,1.6796875-3.359375c1.1196289-0.7998047,2.7392578-1.2001953,4.8598633-1.2001953h6.4804688
		V87.3759766z"/>
	<path class="st1" d="M255.1679688,69.8251953c-1.3603516,0.7802734-2.3999023,1.8300781-3.1201172,3.1503906l-1.7397461-3.8398438
		h-4.6801758v29.3398438h6.3598633V84.4355469c0-2.7597656,0.609375-4.9892578,1.8300781-6.6904297
		c1.2197266-1.6992188,3.1699219-2.5498047,5.8500977-2.5498047c1.0395508,0,2.0195312,0.140625,2.9399414,0.4199219v-6.6591797
		c-0.6000977-0.2001953-1.4604492-0.3007812-2.5800781-0.3007812
		C258.1474609,68.6552734,256.5273438,69.0458984,255.1679688,69.8251953z"/>
	<path class="st1" d="M279.1674805,62.1152344h-4.0200195l-3.0595703,7.0205078h-4.2001953v5.3994141h4.9199219v15.0605469
		c0,6.3203125,3.1396484,9.4794922,9.4199219,9.4794922c0.7597656,0,1.5200195-0.0595703,2.2802734-0.1796875
		c0.7592773-0.1201172,1.3198242-0.2802734,1.6796875-0.4794922v-5.640625
		c-0.5200195,0.2402344-1.4003906,0.3603516-2.6396484,0.3603516c-2.9204102,0-4.3803711-1.4404297-4.3803711-4.3203125V74.5351562
		H286.1875v-5.3994141h-7.0200195V62.1152344z"/>
	<rect x="292.4277344" y="69.1357422" class="st1" width="6.3598633" height="29.3398438"/>
	<path class="st1" d="M295.6074219,56.3554688c-1.1201172,0-2.0698242,0.3896484-2.8496094,1.1699219
		c-0.7802734,0.7802734-1.1699219,1.7099609-1.1699219,2.7900391s0.3896484,2.0097656,1.1699219,2.7900391
		c0.7797852,0.7802734,1.7294922,1.1699219,2.8496094,1.1699219c1.1196289,0,2.0703125-0.3896484,2.8500977-1.1699219
		c0.7802734-0.7802734,1.1699219-1.7099609,1.1699219-2.7900391s-0.3896484-2.0097656-1.1699219-2.7900391
		C297.6777344,56.7451172,296.7270508,56.3554688,295.6074219,56.3554688z"/>
	<path class="st1" d="M314.4477539,75.5556641c1.3994141-0.8398438,2.9594727-1.2597656,4.6796875-1.2597656
		c1.5600586,0,2.9794922,0.3398438,4.2602539,1.0195312c1.2792969,0.6806641,2.3398438,1.6005859,3.1796875,2.7597656
		l5.8803711-2.5800781c-1.4008789-2.1992188-3.2700195-3.9599609-5.6103516-5.2792969
		c-2.3398438-1.3203125-4.9106445-1.9804688-7.7099609-1.9804688c-2.8798828,0-5.5107422,0.6904297-7.8901367,2.0703125
		c-2.3798828,1.3798828-4.2597656,3.2607422-5.6396484,5.6396484c-1.3798828,2.3808594-2.0703125,4.9902344-2.0703125,7.8300781
		c0,2.8798828,0.6904297,5.5107422,2.0703125,7.890625s3.2597656,4.2597656,5.6396484,5.6396484
		c2.3793945,1.3798828,5.0102539,2.0703125,7.8901367,2.0703125c2.8398438,0,5.4301758-0.6513672,7.7700195-1.9501953
		c2.3398438-1.2998047,4.1899414-3.0693359,5.550293-5.3105469l-5.8803711-2.6396484
		c-0.8398438,1.2001953-1.9003906,2.1298828-3.1796875,2.7900391c-1.2807617,0.6601562-2.7001953,0.9902344-4.2602539,0.9902344
		c-1.7202148,0-3.2802734-0.4199219-4.6796875-1.2607422c-1.4008789-0.8398438-2.5004883-1.9794922-3.300293-3.4199219
		c-0.8007812-1.4394531-1.199707-3.0390625-1.199707-4.7998047c0-1.7597656,0.3989258-3.359375,1.199707-4.7998047
		C311.9472656,77.5351562,313.046875,76.3955078,314.4477539,75.5556641z"/>
	<rect x="337.5268555" y="55.8759766" class="st1" width="6.3598633" height="42.5996094"/>
	<path class="st1" d="M371.1259766,70.1259766c-2.2407227-1.2607422-4.8203125-1.890625-7.7397461-1.890625
		c-2.8408203,0-5.390625,0.6904297-7.6499023,2.0703125c-2.2607422,1.3798828-4.0200195,3.2607422-5.2802734,5.6396484
		c-1.2597656,2.3808594-1.8901367,5.0107422-1.8901367,7.890625c0,2.9199219,0.6694336,5.5703125,2.0102539,7.9492188
		c1.3398438,2.3808594,3.1694336,4.2412109,5.4897461,5.5800781c2.3193359,1.3398438,4.9204102,2.0107422,7.800293,2.0107422
		c2.8393555,0,5.3896484-0.5810547,7.6499023-1.7402344c2.2592773-1.1601562,4.1298828-2.8798828,5.6098633-5.1601562
		l-5.699707-2.5195312c-1.840332,2.3994141-4.3603516,3.5996094-7.5600586,3.5996094c-2.3608398,0-4.3603516-0.7294922-6-2.1904297
		c-1.640625-1.4589844-2.6401367-3.4091797-3-5.8496094h23.159668c0.1201172-0.4394531,0.1801758-1.1601562,0.1801758-2.1601562
		c0-2.9599609-0.6206055-5.5888672-1.8598633-7.8896484C375.105957,73.1660156,373.3657227,71.3857422,371.1259766,70.1259766z
		 M354.9863281,80.8955078c0.4394531-2.1992188,1.3994141-3.9296875,2.8798828-5.1894531
		c1.4794922-1.2607422,3.3198242-1.890625,5.5200195-1.890625c2.3999023,0,4.3198242,0.6210938,5.7597656,1.8603516
		c1.4399414,1.2402344,2.3598633,2.9804688,2.7602539,5.2197266H354.9863281z"/>
	<path class="st1" d="M421.4257812,60.2558594c-3.2402344-1.7197266-6.7607422-2.5800781-10.5605469-2.5800781h-13.6796875
		v40.7998047h13.6796875c3.7998047,0,7.3203125-0.859375,10.5605469-2.5800781
		c3.2392578-1.7197266,5.8193359-4.1396484,7.7392578-7.2597656s2.8808594-6.6396484,2.8808594-10.5605469
		c0-3.9189453-0.9609375-7.4394531-2.8808594-10.5595703S424.6650391,61.9755859,421.4257812,60.2558594z M423.1650391,85.1855469
		c-1.2402344,2.140625-2.9394531,3.8310547-5.0996094,5.0703125c-2.1601562,1.2402344-4.5595703,1.859375-7.2001953,1.859375
		h-6.7197266V64.0351562h6.7197266c2.640625,0,5.0400391,0.6210938,7.2001953,1.8603516
		c2.1601562,1.2402344,3.859375,2.9306641,5.0996094,5.0703125s1.8613281,4.5097656,1.8613281,7.109375
		C425.0263672,80.6757812,424.4052734,83.0458984,423.1650391,85.1855469z"/>
	<path class="st1" d="M459.1650391,70.1259766c-2.2412109-1.2607422-4.8212891-1.890625-7.7402344-1.890625
		c-2.8408203,0-5.390625,0.6904297-7.6503906,2.0703125s-4.0195312,3.2607422-5.2792969,5.6396484
		c-1.2607422,2.3808594-1.890625,5.0107422-1.890625,7.890625c0,2.9199219,0.6699219,5.5703125,2.0097656,7.9492188
		c1.3398438,2.3808594,3.1699219,4.2412109,5.4902344,5.5800781c2.3193359,1.3398438,4.9199219,2.0107422,7.7998047,2.0107422
		c2.8398438,0,5.3896484-0.5810547,7.6503906-1.7402344c2.2597656-1.1601562,4.1298828-2.8798828,5.6103516-5.1601562
		l-5.7001953-2.5195312c-1.8408203,2.3994141-4.3603516,3.5996094-7.5605469,3.5996094
		c-2.3603516,0-4.3603516-0.7294922-6-2.1904297c-1.640625-1.4589844-2.6396484-3.4091797-3-5.8496094h23.1601562
		c0.1201172-0.4394531,0.1806641-1.1601562,0.1806641-2.1601562c0-2.9599609-0.6210938-5.5888672-1.8603516-7.8896484
		C463.1445312,73.1660156,461.4042969,71.3857422,459.1650391,70.1259766z M443.0244141,80.8955078
		c0.4404297-2.1992188,1.4003906-3.9296875,2.8798828-5.1894531c1.4794922-1.2607422,3.3203125-1.890625,5.5205078-1.890625
		c2.3994141,0,4.3203125,0.6210938,5.7597656,1.8603516c1.4404297,1.2402344,2.359375,2.9804688,2.7597656,5.2197266H443.0244141z"
		/>
	<path class="st1" d="M490.5751953,83.8955078c-1.6601562-1.4394531-4.0302734-2.4990234-7.1103516-3.1796875l-2.0996094-0.4804688
		c-1.5205078-0.359375-2.6503906-0.7998047-3.390625-1.3193359s-1.109375-1.2197266-1.109375-2.1005859
		c0-0.9599609,0.4287109-1.7597656,1.2900391-2.3994141c0.859375-0.6396484,1.9892578-0.9599609,3.3896484-0.9599609
		c1.1601562,0,2.2197266,0.2304688,3.1796875,0.6894531c0.9599609,0.4599609,1.7197266,1.1308594,2.2802734,2.0097656
		l5.4599609-2.3994141c-0.9599609-1.7998047-2.3798828-3.1806641-4.2597656-4.140625
		c-1.8808594-0.9599609-4.0605469-1.4394531-6.5400391-1.4394531c-2.0800781,0-3.9404297,0.4003906-5.5800781,1.2001953
		c-1.640625,0.7998047-2.9306641,1.8798828-3.8701172,3.2392578c-0.9404297,1.3603516-1.4101562,2.8408203-1.4101562,4.4404297
		c0,2.3603516,0.7597656,4.2294922,2.2802734,5.6103516c1.5195312,1.3798828,3.8789062,2.4501953,7.0800781,3.2099609
		l2.2197266,0.5400391c1.5996094,0.3994141,2.7597656,0.8691406,3.4804688,1.4091797
		c0.7197266,0.5400391,1.0800781,1.3105469,1.0800781,2.3105469c0,1.1201172-0.4501953,2.0302734-1.3505859,2.7294922
		c-0.8994141,0.7001953-2.1503906,1.0507812-3.75,1.0507812c-1.4804688,0-2.8300781-0.3300781-4.0498047-0.9902344
		c-1.2207031-0.6601562-2.1503906-1.5693359-2.7900391-2.7304688l-5.3398438,2.3398438
		c0.8398438,2.0009766,2.2890625,3.640625,4.3496094,4.9208984c2.0595703,1.2792969,4.6699219,1.9199219,7.8300781,1.9199219
		c2.1601562,0,4.0996094-0.4111328,5.8203125-1.2304688c1.7197266-0.8193359,3.0498047-1.9501953,3.9902344-3.3896484
		c0.9394531-1.4404297,1.4101562-3.0400391,1.4101562-4.7998047
		C493.0654297,87.3554688,492.234375,85.3359375,490.5751953,83.8955078z"/>
	<rect x="499.1845703" y="69.1357422" class="st1" width="6.3603516" height="29.3398438"/>
	<path class="st1" d="M502.3642578,56.3554688c-1.1201172,0-2.0693359,0.3896484-2.8496094,1.1699219
		s-1.1699219,1.7099609-1.1699219,2.7900391s0.3896484,2.0097656,1.1699219,2.7900391s1.7294922,1.1699219,2.8496094,1.1699219
		c1.1191406,0,2.0703125-0.3896484,2.8505859-1.1699219c0.7792969-0.7802734,1.1699219-1.7099609,1.1699219-2.7900391
		s-0.390625-2.0097656-1.1699219-2.7900391C504.4345703,56.7451172,503.4833984,56.3554688,502.3642578,56.3554688z"/>
	<path class="st1" d="M533.2646484,72.3759766c-1.1201172-1.2802734-2.4707031-2.2597656-4.0498047-2.9404297
		c-1.5810547-0.6796875-3.3105469-1.0195312-5.1904297-1.0195312c-2.6806641,0-5.0507812,0.6396484-7.1103516,1.9199219
		c-2.0605469,1.2802734-3.6699219,3.0097656-4.8300781,5.1894531c-1.1601562,2.1806641-1.7392578,4.6103516-1.7392578,7.2900391
		c0,2.640625,0.5693359,5.0507812,1.7099609,7.2304688c1.1396484,2.1806641,2.7490234,3.8994141,4.8300781,5.1601562
		c2.0791016,1.2597656,4.4394531,1.8896484,7.0800781,1.8896484c1.8388672,0,3.5595703-0.3496094,5.1591797-1.0498047
		c1.5996094-0.6992188,2.9003906-1.6894531,3.9003906-2.9707031v3.3603516c0,2.2802734-0.7197266,4.0595703-2.1601562,5.3398438
		c-1.4394531,1.2802734-3.4199219,1.9199219-5.9394531,1.9199219c-1.9208984,0-3.6005859-0.359375-5.0400391-1.0800781
		c-1.4404297-0.7197266-2.5205078-1.5996094-3.2402344-2.6396484l-5.640625,2.4599609
		c1.2802734,2.3193359,3.140625,4.0693359,5.5800781,5.25c2.4394531,1.1796875,5.1796875,1.7705078,8.2207031,1.7705078
		c2.7197266,0,5.1894531-0.5107422,7.4101562-1.5302734c2.2197266-1.0205078,3.96875-2.5205078,5.25-4.5
		c1.2792969-1.9804688,1.9199219-4.3505859,1.9199219-7.1103516V69.1357422h-4.6806641L533.2646484,72.3759766z
		 M531.1044922,88.8759766c-1.5605469,1.640625-3.5605469,2.4599609-6,2.4599609
		c-2.4404297,0-4.4306641-0.8193359-5.9697266-2.4599609c-1.5410156-1.6396484-2.3105469-3.6601562-2.3105469-6.0605469
		c0-2.4394531,0.7695312-4.4697266,2.3105469-6.0898438c1.5390625-1.6201172,3.5292969-2.4296875,5.9697266-2.4296875
		c2.4394531,0,4.4394531,0.8095703,6,2.4296875c1.5595703,1.6201172,2.3398438,3.6503906,2.3398438,6.0898438
		C533.4443359,85.2158203,532.6640625,87.2363281,531.1044922,88.8759766z"/>
	<path class="st1" d="M569.8945312,73.6953125c-1.0205078-1.6796875-2.4003906-2.9892578-4.1396484-3.9296875
		c-1.7402344-0.9394531-3.6708984-1.4101562-5.7900391-1.4101562c-1.8808594,0-3.5703125,0.3603516-5.0703125,1.0800781
		s-2.7304688,1.7402344-3.6904297,3.0595703l-1.5-3.359375h-4.6796875v29.3398438h6.3603516V81.5556641
		c0-2.1601562,0.6601562-3.9091797,1.9794922-5.25c1.3203125-1.3398438,3-2.0097656,5.0400391-2.0097656
		c2.1201172,0,3.7597656,0.6298828,4.9199219,1.8896484s1.7402344,3.0107422,1.7402344,5.25v17.0400391h6.3603516V79.3955078
		C571.4248047,77.2763672,570.9140625,75.3759766,569.8945312,73.6953125z"/>
	<path class="st1" d="M79.8035889,29.206543H48.6363525c-9.9047852,0-17.9343262,8.029541-17.9343262,17.9343262v33.1331177
		h6.4716797V47.317627c0-6.4282227,5.2111816-11.6394043,11.6394043-11.6394043h31.7541504
		c6.7780762,0,13.0063477,2.3918457,17.892334,6.3718262c0.0612793,0.0500488,0.1240234,0.0976562,0.1848145,0.1481934
		c0.2248535,0.1862793,0.442627,0.3803711,0.6616211,0.5732422c0.1445312,0.1276855,0.2910156,0.2531738,0.4333496,0.3842773
		c0.1662598,0.1525879,0.3273926,0.3105469,0.4897461,0.467041c0.1818848,0.175293,0.3640137,0.3500977,0.5419922,0.5307617
		c0.1481934,0.1501465,0.2919922,0.3044434,0.4367676,0.4580078c0.1730957,0.1835938,0.345459,0.3674316,0.5129395,0.5544434
		c0.1618652,0.1809082,0.3198242,0.3654785,0.4770508,0.5505371c0.1330566,0.1564941,0.2658691,0.3132324,0.3952637,0.472168
		c0.1870117,0.2299805,0.3701172,0.4633789,0.5498047,0.6992188c0.0861816,0.1123047,0.171875,0.2250977,0.2561035,0.338623
		c0.2126465,0.2873535,0.4204102,0.5786133,0.6223145,0.8742676c0.0415039,0.0610352,0.083252,0.1220703,0.1245117,0.1831055
		c0.2316895,0.3452148,0.4572754,0.6948242,0.6740723,1.0507812c0.0078125,0.0126953,0.015625,0.0253906,0.0234375,0.0383301
		c1.4121094,2.3256836,2.4992676,4.8696289,3.1989746,7.5681152c0.0078125,0.0305176,0.0153809,0.0615234,0.0231934,0.0922852
		c0.1032715,0.4038086,0.1970215,0.8112793,0.2824707,1.2216797c0.0170898,0.0825195,0.032959,0.1655273,0.0493164,0.248291
		c0.0717773,0.3591309,0.1364746,0.7207031,0.1943359,1.0847168c0.0214844,0.1367188,0.0410156,0.2739258,0.0605469,0.4111328
		c0.045166,0.3144531,0.0859375,0.630127,0.1206055,0.9477539c0.0200195,0.1835938,0.0368652,0.3681641,0.0532227,0.5527344
		c0.0249023,0.2763672,0.0466309,0.5537109,0.0634766,0.8325195c0.0131836,0.2189941,0.0224609,0.4387207,0.0305176,0.6586914
		c0.0095215,0.2529297,0.0166016,0.5063477,0.0192871,0.7607422c0.0024414,0.2375488,0.0009766,0.4758301-0.0024414,0.7143555
		c-0.003418,0.2412109-0.0090332,0.4819336-0.0183105,0.7219238c-0.0100098,0.2548828-0.0241699,0.5087891-0.0412598,0.7619629
		c-0.0131836,0.1987305-0.0283203,0.3969727-0.0454102,0.5944824c-0.0302734,0.3352051-0.0644531,0.6694336-0.1064453,1.0014648
		c-0.0100098,0.0808105-0.0205078,0.1616211-0.0310059,0.2421875
		c-1.8859863,13.8344727-14.2160645,24.6518555-28.7834473,24.6518555H58.0994873V80.2602539h20.1689453h0.4902344
		c6.8837891,0,12.7475586-4.3859863,14.9882812-10.503418c0.0314941-0.0847168,0.0629883-0.1691895,0.0932617-0.2546387
		c0.1196289-0.3447266,0.2255859-0.6943359,0.3217773-1.0490723c0.0510254-0.1855469,0.0998535-0.3713379,0.144043-0.5595703
		c0.0666504-0.286377,0.123291-0.5756836,0.1740723-0.8679199c0.0432129-0.2451172,0.0817871-0.4912109,0.1132812-0.7402344
		c0.0334473-0.267334,0.0583496-0.536377,0.0786133-0.807373c0.0107422-0.1442871,0.0349121-0.2844238,0.041748-0.4296875
		c0.0058594-0.1257324-0.0041504-0.2487793-0.0009766-0.3742676c0.0029297-0.1298828,0.0195312-0.2565918,0.0195312-0.3874512
		c0-0.1467285-0.0180664-0.2888184-0.0219727-0.4348145c-0.0073242-0.2822266-0.0209961-0.5629883-0.0427246-0.8427734
		c-0.0197754-0.2473145-0.0456543-0.4921875-0.0766602-0.7363281c-0.0378418-0.3032227-0.083252-0.6040039-0.1381836-0.902832
		c-0.0388184-0.2102051-0.0827637-0.4179688-0.1298828-0.6252441c-0.072998-0.3232422-0.154541-0.6430664-0.2473145-0.9602051
		c-0.0522461-0.1774902-0.1088867-0.3525391-0.1669922-0.5273438c-0.109375-0.329834-0.2275391-0.6560059-0.3586426-0.9780273
		c-0.0654297-0.1601562-0.135498-0.3178711-0.2058105-0.4755859c-0.1411133-0.315918-0.2893066-0.628418-0.451416-0.9353027
		c-0.0876465-0.1660156-0.1811523-0.3273926-0.2741699-0.4899902c-0.1608887-0.2800293-0.3251953-0.5576172-0.5039062-0.8286133
		c-0.125-0.1901855-0.2585449-0.3735352-0.3911133-0.5581055c-0.1660156-0.2299805-0.331543-0.4594727-0.5107422-0.6821289
		c-0.1713867-0.2138672-0.354248-0.4169922-0.5366211-0.621582c-0.1237793-0.1391602-0.2346191-0.2861328-0.3637695-0.4216309
		c-0.0449219-0.0471191-0.0952148-0.0869141-0.140625-0.1333008c-0.1918945-0.1965332-0.3952637-0.380127-0.597168-0.5664062
		c-0.1940918-0.1799316-0.3847656-0.3640137-0.5859375-0.532959c-0.1523438-0.1271973-0.3139648-0.2426758-0.4709473-0.3642578
		c-0.2692871-0.2097168-0.5371094-0.4208984-0.8171387-0.6115723c-0.0507812-0.0344238-0.1049805-0.0634766-0.15625-0.0974121
		c-2.5842285-1.7158203-5.6032715-2.6472168-8.7856445-2.6472168H52.1727295h-0.5449219v0.0439453v37.0703125v7.0126953h-0.4082031
		h-3.3408203c-0.7963867,0-1.574707,0.0629883-2.3413086,0.1599121c-0.3671875,0.050293-0.734375,0.0981445-1.097168,0.1726074
		c-0.0627441,0.0119629-0.1245117,0.0253906-0.1870117,0.0378418c-1.1286621,0.2443848-2.2363281,0.6003418-3.3139648,1.074707
		l-0.1513672,0.0737305c-0.4985352,0.2265625-0.9609375,0.4599609-1.388916,0.7001953l-0.3359375,0.2060547
		c-0.380127,0.2265625-0.7502441,0.4589844-1.107666,0.7094727c-0.0854492,0.0603027-0.1743164,0.128418-0.2629395,0.1967773
		l-0.204834,0.1560059c-0.2905273,0.2185059-0.5854492,0.4484863-0.869873,0.6933594
		c-0.1572266,0.1364746-0.3188477,0.2868652-0.4804688,0.4372559c-0.2824707,0.2641602-0.5283203,0.5031738-0.763916,0.75
		c-0.168457,0.1789551-0.3415527,0.3691406-0.5100098,0.5615234c-0.2116699,0.2436523-0.416748,0.4929199-0.6135254,0.7456055
		c-0.1674805,0.2150879-0.3393555,0.4394531-0.5021973,0.6704102c-0.1569824,0.2231445-0.2993164,0.4453125-0.4416504,0.6694336
		c-0.1765137,0.2768555-0.3518066,0.5510254-0.5112305,0.8356934c-0.0693359,0.1242676-0.1264648,0.2380371-0.1845703,0.3530273
		l-0.1113281,0.2172852c-0.1640625,0.3200684-0.3349609,0.6523438-0.4829102,0.9985352l-0.1809082,0.4611816
		c-0.1535645,0.3835449-0.3017578,0.7648926-0.427002,1.1564941l-0.1228027,0.4509277
		c-0.112793,0.3925781-0.2253418,0.7888184-0.3098145,1.1943359c-0.0170898,0.0805664-0.029541,0.171875-0.0444336,0.2629395
		l-0.0488281,0.307373c-0.0761719,0.4382324-0.138916,0.7797852-0.1765137,1.1281738
		c-0.0019531,0.019043-0.0019531,0.0412598-0.0036621,0.060791v1.8513184c0,9.6003418,7.7824707,17.3828125,17.3828125,17.3828125
		l10.0146484-0.0449219V98.9116211h22.4667969c18.3691406,0,33.6484375-14.3505859,34.7851562-32.6708984
		c0.5957031-9.6035156-2.7089844-18.7578125-9.3066406-25.7773438C99.321167,33.309082,89.7567139,29.206543,79.8035889,29.206543z
		 M58.0994873,54.784668h20.2646484c4.5371094,0,8.4035645,2.9475098,9.5480957,6.9882812
		c0.0217285,0.0791016,0.041748,0.1586914,0.0615234,0.2385254c0.0480957,0.1896973,0.0900879,0.3818359,0.1262207,0.5756836
		c0.0263672,0.1462402,0.0478516,0.2939453,0.067627,0.4423828c0.0205078,0.1523438,0.0397949,0.3051758,0.0527344,0.4599609
		c0.0134277,0.1623535,0.0195312,0.3266602,0.0246582,0.4912109c0.0053711,0.1625977,0.0092773,0.3251953,0.0063477,0.4865723
		c-0.0031738,0.1726074-0.0134277,0.3430176-0.0258789,0.5131836c-0.010498,0.1469727-0.0217285,0.2937012-0.0390625,0.439209
		c-0.0219727,0.1848145-0.0512695,0.3674316-0.0839844,0.5488281c-0.0219727,0.125-0.0446777,0.2495117-0.0720215,0.373291
		c-0.0432129,0.1950684-0.09375,0.387207-0.1486816,0.5776367c-0.0310059,0.1074219-0.0625,0.2145996-0.097168,0.3210449
		c-0.0639648,0.1945801-0.1347656,0.3857422-0.2109375,0.574707c-0.0405273,0.1015625-0.0822754,0.2023926-0.1264648,0.3022461
		c-0.0803223,0.1811523-0.1665039,0.3588867-0.2575684,0.5336914c-0.0566406,0.1086426-0.1152344,0.2163086-0.1760254,0.322998
		c-0.0888672,0.1560059-0.1821289,0.3088379-0.2792969,0.4592285c-0.081543,0.1252441-0.1669922,0.2487793-0.2548828,0.3708496
		c-0.0891113,0.1245117-0.1801758,0.2478027-0.2751465,0.3679199c-0.1113281,0.1398926-0.2290039,0.2763672-0.348877,0.4111328
		c-0.0878906,0.0991211-0.175293,0.1987305-0.267334,0.2939453c-0.1357422,0.140625-0.2780762,0.2739258-0.4216309,0.4052734
		c-0.0869141,0.0795898-0.171875,0.1611328-0.2614746,0.2375488c-0.1730957,0.1467285-0.3532715,0.2839355-0.5356445,0.4177246
		c-0.0661621,0.048584-0.1296387,0.1005859-0.1970215,0.1474609c-0.2407227,0.1669922-0.4882812,0.3225098-0.7426758,0.4663086
		c-0.0141602,0.0080566-0.027832,0.0175781-0.0422363,0.0256348c-1.4050293,0.784668-3.0002441,1.2114258-4.6286621,1.2114258
		H58.0994873V54.784668z M51.6278076,120.644043h-0.4082031h-2.8066406c-5.046875,0-9.4372559-3.3063965-10.7988281-7.8283691
		c-0.0134277-0.0463867-0.0231934-0.0939941-0.0361328-0.140625c-0.0751953-0.2629395-0.1425781-0.5290527-0.1967773-0.7995605
		c-0.0385742-0.1955566-0.0634766-0.395752-0.0910645-0.5949707c-0.020752-0.1472168-0.0483398-0.2922363-0.0627441-0.4414062
		c-0.0148926-0.1530762-0.0151367-0.3100586-0.0234375-0.4648438c-0.012207-0.2226562-0.027832-0.4458008-0.0268555-0.6665039
		c0.0014648-0.1962891,0.0180664-0.3886719,0.0297852-0.5822754c0.0100098-0.1730957,0.0141602-0.3474121,0.0324707-0.5187988
		c0.0256348-0.237793,0.0668945-0.470459,0.107666-0.7033691c0.0209961-0.121582,0.0361328-0.244873,0.0615234-0.3654785
		c0.0537109-0.2558594,0.1230469-0.5061035,0.1945801-0.755127c0.0273438-0.0952148,0.0498047-0.1916504,0.0795898-0.2858887
		c0.0783691-0.2468262,0.1708984-0.4870605,0.2661133-0.7258301c0.0383301-0.0964355,0.072998-0.1940918,0.1142578-0.2893066
		c0.0944824-0.2182617,0.2009277-0.4296875,0.309082-0.640625c0.0598145-0.1162109,0.1174316-0.2333984,0.1813965-0.3476562
		c0.1010742-0.1804199,0.2109375-0.3547363,0.3217773-0.5288086c0.0908203-0.1420898,0.1821289-0.2841797,0.2802734-0.4228516
		c0.1013184-0.144043,0.2080078-0.2836914,0.3161621-0.4226074c0.123291-0.157959,0.2507324-0.3137207,0.3835449-0.4660645
		c0.1049805-0.1203613,0.2124023-0.2387695,0.3225098-0.3544922c0.1477051-0.1552734,0.3005371-0.3044434,0.456543-0.4499512
		c0.1074219-0.1003418,0.2148438-0.2004395,0.3261719-0.2966309c0.1784668-0.1533203,0.3630371-0.2983398,0.550293-0.439209
		c0.0976562-0.0737305,0.1938477-0.1496582,0.2939453-0.2199707c0.223877-0.1572266,0.454834-0.3027344,0.689209-0.4421387
		c0.0727539-0.043457,0.1430664-0.0900879,0.2167969-0.1318359c0.2814941-0.1586914,0.5703125-0.3034668,0.8642578-0.4362793
		c0.0349121-0.0158691,0.0683594-0.034668,0.1035156-0.0500488c1.3632812-0.5996094,2.8476562-0.9208984,4.3613281-0.9208984
		h3.1796875h0.4082031V120.644043z"/>
</g>
</svg>
