<svg width="58" height="71" viewBox="0 0 58 71" fill="none" xmlns="http://www.w3.org/2000/svg">
<path fill-rule="evenodd" clip-rule="evenodd" d="M29.2641 0C22.989 0 17.2763 2.40832 13 6.3511L18.6639 12.015C21.4865 9.51661 25.1982 8 29.2641 8C37.4234 8 44.1562 14.1074 45.1404 22H53.182C52.1657 9.68094 41.8455 0 29.2641 0Z" fill="#9E7EFF"/>
<path d="M2.54541 66.7178H6.74121V68H0.939453V58.7578H2.54541V66.7178ZM7.53467 64.5024C7.53467 63.8296 7.66797 63.2244 7.93457 62.687C8.20117 62.1453 8.57568 61.7306 9.05811 61.4429C9.54053 61.1509 10.0949 61.0049 10.7212 61.0049C11.6479 61.0049 12.3991 61.3032 12.9746 61.8999C13.5544 62.4966 13.8675 63.2879 13.9141 64.2739L13.9204 64.6357C13.9204 65.3128 13.7892 65.918 13.5269 66.4512C13.2687 66.9844 12.8963 67.397 12.4097 67.689C11.9272 67.981 11.3687 68.127 10.7339 68.127C9.76481 68.127 8.98828 67.8053 8.4043 67.1621C7.82454 66.5146 7.53467 65.6535 7.53467 64.5786V64.5024ZM9.07715 64.6357C9.07715 65.3424 9.22314 65.8968 9.51514 66.2988C9.80713 66.6966 10.2134 66.8955 10.7339 66.8955C11.2544 66.8955 11.6585 66.6924 11.9463 66.2861C12.2383 65.8799 12.3843 65.2853 12.3843 64.5024C12.3843 63.8084 12.234 63.2583 11.9336 62.8521C11.6374 62.4458 11.2332 62.2427 10.7212 62.2427C10.2176 62.2427 9.81771 62.4437 9.52148 62.8457C9.22526 63.2435 9.07715 63.8402 9.07715 64.6357ZM19.3286 68C19.2609 67.8688 19.2017 67.6551 19.1509 67.3589C18.66 67.8709 18.0591 68.127 17.3481 68.127C16.6584 68.127 16.0955 67.9302 15.6597 67.5366C15.2238 67.1431 15.0059 66.6564 15.0059 66.0767C15.0059 65.3446 15.2767 64.7839 15.8184 64.3945C16.3643 64.001 17.1429 63.8042 18.1543 63.8042H19.1001V63.3535C19.1001 62.998 19.0007 62.7145 18.8018 62.5029C18.6029 62.2871 18.3003 62.1792 17.894 62.1792C17.5428 62.1792 17.255 62.2681 17.0308 62.4458C16.8065 62.6193 16.6943 62.8415 16.6943 63.1123H15.1519C15.1519 62.7357 15.2767 62.3844 15.5264 62.0586C15.776 61.7285 16.1146 61.4704 16.542 61.2842C16.9736 61.098 17.4539 61.0049 17.9829 61.0049C18.7869 61.0049 19.4281 61.208 19.9062 61.6143C20.3844 62.0163 20.6299 62.5833 20.6426 63.3154V66.4131C20.6426 67.0309 20.7293 67.5239 20.9028 67.8921V68H19.3286ZM17.6338 66.8892C17.9385 66.8892 18.2241 66.8151 18.4907 66.667C18.7616 66.5189 18.9647 66.32 19.1001 66.0703V64.7754H18.2686C17.6973 64.7754 17.2677 64.8748 16.98 65.0737C16.6922 65.2726 16.5483 65.554 16.5483 65.918C16.5483 66.2142 16.6457 66.4512 16.8403 66.6289C17.0392 66.8024 17.3037 66.8892 17.6338 66.8892ZM21.9692 64.5151C21.9692 63.4572 22.2147 62.6087 22.7056 61.9697C23.1965 61.3265 23.8545 61.0049 24.6797 61.0049C25.4076 61.0049 25.9958 61.2588 26.4443 61.7666V58.25H27.9868V68H26.5903L26.5142 67.2891C26.0529 67.8477 25.4372 68.127 24.667 68.127C23.863 68.127 23.2113 67.8032 22.7119 67.1558C22.2168 66.5083 21.9692 65.6281 21.9692 64.5151ZM23.5117 64.6484C23.5117 65.3467 23.645 65.8926 23.9116 66.2861C24.1825 66.6755 24.5654 66.8701 25.0605 66.8701C25.6911 66.8701 26.1523 66.5887 26.4443 66.0259V63.0933C26.1608 62.5431 25.7038 62.2681 25.0732 62.2681C24.5739 62.2681 24.1888 62.467 23.918 62.8647C23.6471 63.2583 23.5117 63.8529 23.5117 64.6484ZM31.2368 68H29.6943V61.1318H31.2368V68ZM29.5991 59.3481C29.5991 59.1112 29.6732 58.9144 29.8213 58.7578C29.9736 58.6012 30.1895 58.5229 30.4688 58.5229C30.748 58.5229 30.9639 58.6012 31.1162 58.7578C31.2686 58.9144 31.3447 59.1112 31.3447 59.3481C31.3447 59.5809 31.2686 59.7756 31.1162 59.9321C30.9639 60.0845 30.748 60.1606 30.4688 60.1606C30.1895 60.1606 29.9736 60.0845 29.8213 59.9321C29.6732 59.7756 29.5991 59.5809 29.5991 59.3481ZM34.3535 61.1318L34.3979 61.9253C34.9058 61.3117 35.5723 61.0049 36.3975 61.0049C37.8278 61.0049 38.5557 61.8237 38.5811 63.4614V68H37.0386V63.5503C37.0386 63.1144 36.9434 62.7928 36.7529 62.5854C36.5667 62.3739 36.2599 62.2681 35.8325 62.2681C35.2104 62.2681 34.7471 62.5495 34.4424 63.1123V68H32.8999V61.1318H34.3535ZM39.8887 64.5151C39.8887 63.4487 40.1383 62.5981 40.6377 61.9634C41.1413 61.3244 41.8078 61.0049 42.6372 61.0049C43.4201 61.0049 44.0358 61.2778 44.4844 61.8237L44.5542 61.1318H45.9443V67.7905C45.9443 68.6919 45.6629 69.4028 45.1001 69.9233C44.5415 70.4438 43.7861 70.7041 42.834 70.7041C42.3304 70.7041 41.8374 70.5983 41.355 70.3867C40.8768 70.1794 40.5129 69.9064 40.2632 69.5679L40.9932 68.6411C41.4671 69.2039 42.0511 69.4854 42.7451 69.4854C43.2572 69.4854 43.6613 69.3457 43.9575 69.0664C44.2537 68.7913 44.4019 68.3851 44.4019 67.8477V67.3843C43.9575 67.8794 43.3651 68.127 42.6245 68.127C41.8205 68.127 41.1624 67.8075 40.6504 67.1685C40.1426 66.5295 39.8887 65.645 39.8887 64.5151ZM41.4248 64.6484C41.4248 65.3382 41.5645 65.882 41.8438 66.2798C42.1273 66.6733 42.5187 66.8701 43.0181 66.8701C43.6401 66.8701 44.1014 66.6035 44.4019 66.0703V63.0488C44.1099 62.5283 43.6528 62.2681 43.0308 62.2681C42.5229 62.2681 42.1273 62.4691 41.8438 62.8711C41.5645 63.2731 41.4248 63.8656 41.4248 64.6484ZM48.4961 66.375C48.7839 66.375 49.006 66.4575 49.1626 66.6226C49.3192 66.7834 49.3975 66.9865 49.3975 67.2319C49.3975 67.4731 49.3192 67.6742 49.1626 67.835C49.006 67.9915 48.7839 68.0698 48.4961 68.0698C48.221 68.0698 48.0031 67.9915 47.8423 67.835C47.6815 67.6784 47.6011 67.4774 47.6011 67.2319C47.6011 66.9865 47.6794 66.7834 47.8359 66.6226C47.9925 66.4575 48.2126 66.375 48.4961 66.375ZM52.127 66.375C52.4147 66.375 52.6369 66.4575 52.7935 66.6226C52.95 66.7834 53.0283 66.9865 53.0283 67.2319C53.0283 67.4731 52.95 67.6742 52.7935 67.835C52.6369 67.9915 52.4147 68.0698 52.127 68.0698C51.8519 68.0698 51.634 67.9915 51.4731 67.835C51.3123 67.6784 51.2319 67.4774 51.2319 67.2319C51.2319 66.9865 51.3102 66.7834 51.4668 66.6226C51.6234 66.4575 51.8434 66.375 52.127 66.375ZM55.7578 66.375C56.0456 66.375 56.2677 66.4575 56.4243 66.6226C56.5809 66.7834 56.6592 66.9865 56.6592 67.2319C56.6592 67.4731 56.5809 67.6742 56.4243 67.835C56.2677 67.9915 56.0456 68.0698 55.7578 68.0698C55.4827 68.0698 55.2648 67.9915 55.104 67.835C54.9432 67.6784 54.8628 67.4774 54.8628 67.2319C54.8628 66.9865 54.9411 66.7834 55.0977 66.6226C55.2542 66.4575 55.4743 66.375 55.7578 66.375Z" fill="white" fill-opacity="0.64"/>
</svg>
