<svg width="461" height="250" viewBox="0 0 461 250" fill="none" xmlns="http://www.w3.org/2000/svg">
<rect width="461" height="250" rx="6" fill="#323443"/>
<path d="M27.9917 24.9912C27.8986 25.9772 27.5347 26.7474 26.8999 27.3018C26.2651 27.8519 25.4209 28.127 24.3672 28.127C23.6309 28.127 22.9813 27.9535 22.4185 27.6064C21.8599 27.2552 21.4282 26.758 21.1235 26.1147C20.8188 25.4715 20.6602 24.7246 20.6475 23.874V23.0107C20.6475 22.139 20.8019 21.3709 21.1108 20.7065C21.4198 20.0422 21.862 19.5301 22.4375 19.1704C23.0173 18.8107 23.6859 18.6309 24.4434 18.6309C25.4632 18.6309 26.2842 18.908 26.9062 19.4624C27.5283 20.0168 27.8901 20.7996 27.9917 21.811H26.3921C26.3159 21.1466 26.1213 20.6685 25.8081 20.3765C25.4992 20.0802 25.0443 19.9321 24.4434 19.9321C23.7451 19.9321 23.2077 20.1882 22.8311 20.7002C22.4587 21.208 22.2682 21.9549 22.2598 22.9409V23.7598C22.2598 24.7585 22.4375 25.5202 22.793 26.0449C23.1527 26.5697 23.6774 26.832 24.3672 26.832C24.9977 26.832 25.4717 26.6903 25.7891 26.4067C26.1064 26.1232 26.3075 25.6514 26.3921 24.9912H27.9917ZM36.7705 28H35.1709V23.8931H31.0386V28H29.4326V18.7578H31.0386V22.6045H35.1709V18.7578H36.7705V28ZM43.9624 25.8481H40.3823L39.6333 28H37.9639L41.4551 18.7578H42.896L46.3936 28H44.7178L43.9624 25.8481ZM40.833 24.5532H43.5117L42.1724 20.7192L40.833 24.5532ZM50.8433 24.439H49.0532V28H47.4473V18.7578H50.6973C51.7637 18.7578 52.5868 18.9969 53.1665 19.4751C53.7463 19.9533 54.0361 20.6452 54.0361 21.5508C54.0361 22.1686 53.8859 22.687 53.5854 23.106C53.2892 23.5207 52.8745 23.8402 52.3413 24.0645L54.417 27.9175V28H52.6968L50.8433 24.439ZM49.0532 23.1504H50.7036C51.2453 23.1504 51.6685 23.015 51.9731 22.7441C52.2778 22.4691 52.4302 22.0946 52.4302 21.6206C52.4302 21.1255 52.2884 20.7425 52.0049 20.4717C51.7256 20.2008 51.3066 20.0612 50.748 20.0527H49.0532V23.1504ZM61.9199 20.0527H59.0381V28H57.4448V20.0527H54.5884V18.7578H61.9199V20.0527Z" fill="white" fill-opacity="0.94"/>
<path fill-rule="evenodd" clip-rule="evenodd" d="M442.5 18.5C442.5 19.325 441.825 20 441 20C440.175 20 439.5 19.325 439.5 18.5C439.5 17.675 440.175 17 441 17C441.825 17 442.5 17.675 442.5 18.5ZM442.5 27.5C442.5 28.325 441.825 29 441 29C440.175 29 439.5 28.325 439.5 27.5C439.5 26.675 440.175 26 441 26C441.825 26 442.5 26.675 442.5 27.5ZM441 24.5C441.825 24.5 442.5 23.825 442.5 23C442.5 22.175 441.825 21.5 441 21.5C440.175 21.5 439.5 22.175 439.5 23C439.5 23.825 440.175 24.5 441 24.5Z" fill="white" fill-opacity="0.64"/>
</svg>
