<svg width="230" height="138" viewBox="0 0 230 138" fill="none" xmlns="http://www.w3.org/2000/svg">
<circle cx="115" cy="74" r="5" fill="#6BE398" fill-opacity="0.83"/>
<path d="M63.3081 97.3208C62.8511 97.8582 62.1803 98.127 61.2959 98.127C60.5638 98.127 60.0052 97.9154 59.6201 97.4922C59.2393 97.0648 59.0467 96.4342 59.0425 95.6006V91.1318H60.2168V95.5688C60.2168 96.6099 60.64 97.1304 61.4863 97.1304C62.3835 97.1304 62.9801 96.7961 63.2764 96.1274V91.1318H64.4507V98H63.3335L63.3081 97.3208ZM70.2397 96.1782C70.2397 95.8608 70.1191 95.6154 69.8779 95.4419C69.641 95.2642 69.2241 95.1118 68.6274 94.9849C68.035 94.8579 67.5632 94.7056 67.2119 94.5278C66.8649 94.3501 66.6068 94.1385 66.4375 93.8931C66.2725 93.6476 66.1899 93.3556 66.1899 93.0171C66.1899 92.4543 66.4269 91.9782 66.9009 91.5889C67.3791 91.1995 67.9884 91.0049 68.729 91.0049C69.5076 91.0049 70.1382 91.2059 70.6206 91.6079C71.1073 92.0099 71.3506 92.5241 71.3506 93.1504H70.1699C70.1699 92.8288 70.0324 92.5516 69.7573 92.3188C69.4865 92.0861 69.1437 91.9697 68.729 91.9697C68.3016 91.9697 67.9673 92.0628 67.7261 92.249C67.4849 92.4352 67.3643 92.6785 67.3643 92.979C67.3643 93.2625 67.4764 93.4762 67.7007 93.6201C67.925 93.764 68.3291 93.9015 68.9131 94.0327C69.5013 94.1639 69.9774 94.3205 70.3413 94.5024C70.7052 94.6844 70.974 94.9045 71.1475 95.1626C71.3252 95.4165 71.4141 95.7275 71.4141 96.0957C71.4141 96.7093 71.1686 97.2023 70.6777 97.5747C70.1868 97.9429 69.55 98.127 68.7671 98.127C68.217 98.127 67.7303 98.0296 67.3071 97.835C66.884 97.6403 66.5518 97.3695 66.3105 97.0225C66.0736 96.6712 65.9551 96.2925 65.9551 95.8862H67.1294C67.1506 96.2798 67.3071 96.5929 67.5991 96.8257C67.8953 97.0542 68.2847 97.1685 68.7671 97.1685C69.2114 97.1685 69.5669 97.0796 69.8335 96.9019C70.1043 96.7199 70.2397 96.4787 70.2397 96.1782ZM75.7939 98.127C74.863 98.127 74.1055 97.8223 73.5215 97.2129C72.9375 96.5993 72.6455 95.7804 72.6455 94.7563V94.5405C72.6455 93.8592 72.7746 93.252 73.0327 92.7188C73.2951 92.1813 73.659 91.7624 74.1245 91.4619C74.5942 91.1572 75.1021 91.0049 75.6479 91.0049C76.5409 91.0049 77.2349 91.299 77.73 91.8872C78.2251 92.4754 78.4727 93.3175 78.4727 94.4136V94.9023H73.8198C73.8368 95.5794 74.0335 96.1274 74.4102 96.5464C74.791 96.9611 75.2734 97.1685 75.8574 97.1685C76.2721 97.1685 76.6234 97.0838 76.9111 96.9146C77.1989 96.7453 77.4507 96.521 77.6665 96.2417L78.3838 96.8003C77.8083 97.6847 76.945 98.127 75.7939 98.127ZM75.6479 91.9697C75.174 91.9697 74.7762 92.1432 74.4546 92.4902C74.133 92.833 73.9341 93.3154 73.8579 93.9375H77.2983V93.8486C77.2645 93.252 77.1037 92.7907 76.8159 92.4648C76.5282 92.1348 76.1388 91.9697 75.6479 91.9697ZM84.0776 98C84.0099 97.8646 83.9549 97.6234 83.9126 97.2764C83.3667 97.8434 82.715 98.127 81.9575 98.127C81.2804 98.127 80.724 97.9365 80.2881 97.5557C79.8564 97.1706 79.6406 96.6839 79.6406 96.0957C79.6406 95.3805 79.9115 94.8262 80.4531 94.4326C80.999 94.0348 81.765 93.8359 82.751 93.8359H83.8936V93.2964C83.8936 92.8859 83.7708 92.5601 83.5254 92.3188C83.2799 92.0734 82.9181 91.9507 82.4399 91.9507C82.021 91.9507 81.6698 92.0565 81.3862 92.2681C81.1027 92.4797 80.9609 92.7357 80.9609 93.0361H79.7803C79.7803 92.6934 79.9009 92.3633 80.1421 92.0459C80.3875 91.7243 80.7176 91.4704 81.1323 91.2842C81.5513 91.098 82.0104 91.0049 82.5098 91.0049C83.3011 91.0049 83.9211 91.2038 84.3696 91.6016C84.8182 91.9951 85.0509 92.5389 85.0679 93.2329V96.394C85.0679 97.0246 85.1483 97.526 85.3091 97.8984V98H84.0776ZM82.1289 97.105C82.4971 97.105 82.8462 97.0098 83.1763 96.8193C83.5063 96.6289 83.7454 96.3813 83.8936 96.0767V94.6675H82.9731C81.5343 94.6675 80.8149 95.0885 80.8149 95.9307C80.8149 96.2988 80.9377 96.5866 81.1831 96.7939C81.4285 97.0013 81.7438 97.105 82.1289 97.105ZM90.9077 96.1782C90.9077 95.8608 90.7871 95.6154 90.5459 95.4419C90.3089 95.2642 89.8921 95.1118 89.2954 94.9849C88.703 94.8579 88.2311 94.7056 87.8799 94.5278C87.5329 94.3501 87.2747 94.1385 87.1055 93.8931C86.9404 93.6476 86.8579 93.3556 86.8579 93.0171C86.8579 92.4543 87.0949 91.9782 87.5688 91.5889C88.047 91.1995 88.6564 91.0049 89.397 91.0049C90.1756 91.0049 90.8062 91.2059 91.2886 91.6079C91.7752 92.0099 92.0186 92.5241 92.0186 93.1504H90.8379C90.8379 92.8288 90.7004 92.5516 90.4253 92.3188C90.1545 92.0861 89.8117 91.9697 89.397 91.9697C88.9696 91.9697 88.6353 92.0628 88.394 92.249C88.1528 92.4352 88.0322 92.6785 88.0322 92.979C88.0322 93.2625 88.1444 93.4762 88.3687 93.6201C88.5929 93.764 88.9971 93.9015 89.5811 94.0327C90.1693 94.1639 90.6453 94.3205 91.0093 94.5024C91.3732 94.6844 91.6419 94.9045 91.8154 95.1626C91.9932 95.4165 92.082 95.7275 92.082 96.0957C92.082 96.7093 91.8366 97.2023 91.3457 97.5747C90.8548 97.9429 90.2179 98.127 89.4351 98.127C88.8849 98.127 88.3983 98.0296 87.9751 97.835C87.5519 97.6403 87.2197 97.3695 86.9785 97.0225C86.7415 96.6712 86.623 96.2925 86.623 95.8862H87.7974C87.8185 96.2798 87.9751 96.5929 88.2671 96.8257C88.5633 97.0542 88.9526 97.1685 89.4351 97.1685C89.8794 97.1685 90.2349 97.0796 90.5015 96.9019C90.7723 96.7199 90.9077 96.4787 90.9077 96.1782ZM95.2051 89.4688V91.1318H96.4873V92.0396H95.2051V96.2988C95.2051 96.5739 95.2622 96.7812 95.3765 96.9209C95.4907 97.0563 95.6854 97.124 95.9604 97.124C96.0959 97.124 96.2821 97.0986 96.519 97.0479V98C96.2101 98.0846 95.9097 98.127 95.6177 98.127C95.0929 98.127 94.6973 97.9683 94.4307 97.6509C94.1641 97.3335 94.0308 96.8828 94.0308 96.2988V92.0396H92.7803V91.1318H94.0308V89.4688H95.2051ZM101.604 98H100.423V90.1733L98.0552 91.043V89.9766L101.419 88.7134H101.604V98ZM107.608 94.5532H104.511V93.5947H107.608V94.5532ZM112.077 92.1855C111.899 92.1559 111.707 92.1411 111.5 92.1411C110.729 92.1411 110.207 92.4691 109.932 93.125V98H108.757V91.1318H109.9L109.919 91.9253C110.304 91.3117 110.85 91.0049 111.557 91.0049C111.785 91.0049 111.959 91.0345 112.077 91.0938V92.1855ZM115.886 98.127C114.955 98.127 114.197 97.8223 113.613 97.2129C113.029 96.5993 112.737 95.7804 112.737 94.7563V94.5405C112.737 93.8592 112.866 93.252 113.125 92.7188C113.387 92.1813 113.751 91.7624 114.216 91.4619C114.686 91.1572 115.194 91.0049 115.74 91.0049C116.633 91.0049 117.327 91.299 117.822 91.8872C118.317 92.4754 118.564 93.3175 118.564 94.4136V94.9023H113.912C113.929 95.5794 114.125 96.1274 114.502 96.5464C114.883 96.9611 115.365 97.1685 115.949 97.1685C116.364 97.1685 116.715 97.0838 117.003 96.9146C117.291 96.7453 117.542 96.521 117.758 96.2417L118.476 96.8003C117.9 97.6847 117.037 98.127 115.886 98.127ZM115.74 91.9697C115.266 91.9697 114.868 92.1432 114.546 92.4902C114.225 92.833 114.026 93.3154 113.95 93.9375H117.39V93.8486C117.356 93.252 117.195 92.7907 116.908 92.4648C116.62 92.1348 116.231 91.9697 115.74 91.9697ZM122.684 97.1685C123.103 97.1685 123.469 97.0415 123.782 96.7876C124.095 96.5337 124.269 96.2163 124.303 95.8354H125.414C125.392 96.229 125.257 96.6035 125.007 96.959C124.758 97.3145 124.423 97.598 124.004 97.8096C123.59 98.0212 123.15 98.127 122.684 98.127C121.749 98.127 121.004 97.8159 120.45 97.1938C119.9 96.5675 119.625 95.7127 119.625 94.6294V94.4326C119.625 93.764 119.747 93.1694 119.993 92.6489C120.238 92.1284 120.589 91.7243 121.046 91.4365C121.508 91.1488 122.051 91.0049 122.678 91.0049C123.448 91.0049 124.087 91.2355 124.595 91.6968C125.107 92.158 125.38 92.7568 125.414 93.4932H124.303C124.269 93.0488 124.1 92.6849 123.795 92.4014C123.494 92.1136 123.122 91.9697 122.678 91.9697C122.081 91.9697 121.618 92.1855 121.288 92.6172C120.962 93.0446 120.799 93.6646 120.799 94.4771V94.6992C120.799 95.4906 120.962 96.0999 121.288 96.5273C121.613 96.9548 122.079 97.1685 122.684 97.1685ZM130.733 96.1782C130.733 95.8608 130.612 95.6154 130.371 95.4419C130.134 95.2642 129.717 95.1118 129.121 94.9849C128.528 94.8579 128.056 94.7056 127.705 94.5278C127.358 94.3501 127.1 94.1385 126.931 93.8931C126.766 93.6476 126.683 93.3556 126.683 93.0171C126.683 92.4543 126.92 91.9782 127.394 91.5889C127.872 91.1995 128.482 91.0049 129.222 91.0049C130.001 91.0049 130.631 91.2059 131.114 91.6079C131.6 92.0099 131.844 92.5241 131.844 93.1504H130.663C130.663 92.8288 130.526 92.5516 130.25 92.3188C129.98 92.0861 129.637 91.9697 129.222 91.9697C128.795 91.9697 128.46 92.0628 128.219 92.249C127.978 92.4352 127.857 92.6785 127.857 92.979C127.857 93.2625 127.97 93.4762 128.194 93.6201C128.418 93.764 128.822 93.9015 129.406 94.0327C129.994 94.1639 130.471 94.3205 130.834 94.5024C131.198 94.6844 131.467 94.9045 131.641 95.1626C131.818 95.4165 131.907 95.7275 131.907 96.0957C131.907 96.7093 131.662 97.2023 131.171 97.5747C130.68 97.9429 130.043 98.127 129.26 98.127C128.71 98.127 128.223 98.0296 127.8 97.835C127.377 97.6403 127.045 97.3695 126.804 97.0225C126.567 96.6712 126.448 96.2925 126.448 95.8862H127.623C127.644 96.2798 127.8 96.5929 128.092 96.8257C128.389 97.0542 128.778 97.1685 129.26 97.1685C129.705 97.1685 130.06 97.0796 130.327 96.9019C130.597 96.7199 130.733 96.4787 130.733 96.1782ZM136.287 98.127C135.356 98.127 134.599 97.8223 134.015 97.2129C133.431 96.5993 133.139 95.7804 133.139 94.7563V94.5405C133.139 93.8592 133.268 93.252 133.526 92.7188C133.788 92.1813 134.152 91.7624 134.618 91.4619C135.087 91.1572 135.595 91.0049 136.141 91.0049C137.034 91.0049 137.728 91.299 138.223 91.8872C138.718 92.4754 138.966 93.3175 138.966 94.4136V94.9023H134.313C134.33 95.5794 134.527 96.1274 134.903 96.5464C135.284 96.9611 135.767 97.1685 136.351 97.1685C136.765 97.1685 137.117 97.0838 137.404 96.9146C137.692 96.7453 137.944 96.521 138.16 96.2417L138.877 96.8003C138.301 97.6847 137.438 98.127 136.287 98.127ZM136.141 91.9697C135.667 91.9697 135.269 92.1432 134.948 92.4902C134.626 92.833 134.427 93.3154 134.351 93.9375H137.792V93.8486C137.758 93.252 137.597 92.7907 137.309 92.4648C137.021 92.1348 136.632 91.9697 136.141 91.9697ZM143.65 92.1855C143.473 92.1559 143.28 92.1411 143.073 92.1411C142.303 92.1411 141.78 92.4691 141.505 93.125V98H140.331V91.1318H141.473L141.492 91.9253C141.877 91.3117 142.423 91.0049 143.13 91.0049C143.358 91.0049 143.532 91.0345 143.65 91.0938V92.1855ZM147.116 96.4067L148.817 91.1318H150.017L147.554 98H146.659L144.171 91.1318H145.371L147.116 96.4067ZM152.423 98H151.249V91.1318H152.423V98ZM151.153 89.3101C151.153 89.1196 151.21 88.9588 151.325 88.8276C151.443 88.6965 151.617 88.6309 151.845 88.6309C152.074 88.6309 152.247 88.6965 152.366 88.8276C152.484 88.9588 152.543 89.1196 152.543 89.3101C152.543 89.5005 152.484 89.6592 152.366 89.7861C152.247 89.9131 152.074 89.9766 151.845 89.9766C151.617 89.9766 151.443 89.9131 151.325 89.7861C151.21 89.6592 151.153 89.5005 151.153 89.3101ZM157.063 97.1685C157.482 97.1685 157.848 97.0415 158.161 96.7876C158.474 96.5337 158.648 96.2163 158.682 95.8354H159.792C159.771 96.229 159.636 96.6035 159.386 96.959C159.137 97.3145 158.802 97.598 158.383 97.8096C157.969 98.0212 157.528 98.127 157.063 98.127C156.128 98.127 155.383 97.8159 154.829 97.1938C154.278 96.5675 154.003 95.7127 154.003 94.6294V94.4326C154.003 93.764 154.126 93.1694 154.372 92.6489C154.617 92.1284 154.968 91.7243 155.425 91.4365C155.887 91.1488 156.43 91.0049 157.057 91.0049C157.827 91.0049 158.466 91.2355 158.974 91.6968C159.486 92.158 159.759 92.7568 159.792 93.4932H158.682C158.648 93.0488 158.479 92.6849 158.174 92.4014C157.873 92.1136 157.501 91.9697 157.057 91.9697C156.46 91.9697 155.997 92.1855 155.667 92.6172C155.341 93.0446 155.178 93.6646 155.178 94.4771V94.6992C155.178 95.4906 155.341 96.0999 155.667 96.5273C155.992 96.9548 156.458 97.1685 157.063 97.1685ZM163.963 98.127C163.032 98.127 162.274 97.8223 161.69 97.2129C161.106 96.5993 160.814 95.7804 160.814 94.7563V94.5405C160.814 93.8592 160.944 93.252 161.202 92.7188C161.464 92.1813 161.828 91.7624 162.293 91.4619C162.763 91.1572 163.271 91.0049 163.817 91.0049C164.71 91.0049 165.404 91.299 165.899 91.8872C166.394 92.4754 166.642 93.3175 166.642 94.4136V94.9023H161.989C162.006 95.5794 162.202 96.1274 162.579 96.5464C162.96 96.9611 163.442 97.1685 164.026 97.1685C164.441 97.1685 164.792 97.0838 165.08 96.9146C165.368 96.7453 165.62 96.521 165.835 96.2417L166.553 96.8003C165.977 97.6847 165.114 98.127 163.963 98.127ZM163.817 91.9697C163.343 91.9697 162.945 92.1432 162.624 92.4902C162.302 92.833 162.103 93.3154 162.027 93.9375H165.467V93.8486C165.433 93.252 165.273 92.7907 164.985 92.4648C164.697 92.1348 164.308 91.9697 163.817 91.9697ZM172.005 96.1782C172.005 95.8608 171.885 95.6154 171.644 95.4419C171.407 95.2642 170.99 95.1118 170.393 94.9849C169.801 94.8579 169.329 94.7056 168.978 94.5278C168.631 94.3501 168.372 94.1385 168.203 93.8931C168.038 93.6476 167.956 93.3556 167.956 93.0171C167.956 92.4543 168.193 91.9782 168.667 91.5889C169.145 91.1995 169.754 91.0049 170.495 91.0049C171.273 91.0049 171.904 91.2059 172.386 91.6079C172.873 92.0099 173.116 92.5241 173.116 93.1504H171.936C171.936 92.8288 171.798 92.5516 171.523 92.3188C171.252 92.0861 170.909 91.9697 170.495 91.9697C170.067 91.9697 169.733 92.0628 169.492 92.249C169.25 92.4352 169.13 92.6785 169.13 92.979C169.13 93.2625 169.242 93.4762 169.466 93.6201C169.691 93.764 170.095 93.9015 170.679 94.0327C171.267 94.1639 171.743 94.3205 172.107 94.5024C172.471 94.6844 172.74 94.9045 172.913 95.1626C173.091 95.4165 173.18 95.7275 173.18 96.0957C173.18 96.7093 172.934 97.2023 172.443 97.5747C171.952 97.9429 171.316 98.127 170.533 98.127C169.983 98.127 169.496 98.0296 169.073 97.835C168.65 97.6403 168.317 97.3695 168.076 97.0225C167.839 96.6712 167.721 96.2925 167.721 95.8862H168.895C168.916 96.2798 169.073 96.5929 169.365 96.8257C169.661 97.0542 170.05 97.1685 170.533 97.1685C170.977 97.1685 171.333 97.0796 171.599 96.9019C171.87 96.7199 172.005 96.4787 172.005 96.1782Z" fill="white" fill-opacity="0.94"/>
</svg>
