<svg width="230" height="138" viewBox="0 0 230 138" fill="none" xmlns="http://www.w3.org/2000/svg">
<circle cx="114" cy="74" r="5" fill="#6BE398" fill-opacity="0.83"/>
<path d="M51.3555 98.667V90.25H52.5361V100H51.457L51.3555 98.667ZM46.7344 96.6421V96.5088C46.7344 95.984 46.7979 95.508 46.9248 95.0806C47.056 94.6489 47.2401 94.2786 47.4771 93.9697C47.7183 93.6608 48.0039 93.4238 48.334 93.2588C48.6683 93.0895 49.0407 93.0049 49.4512 93.0049C49.8828 93.0049 50.2594 93.0811 50.5811 93.2334C50.9069 93.3815 51.182 93.5994 51.4062 93.8872C51.6348 94.1707 51.8146 94.5135 51.9458 94.9155C52.077 95.3175 52.168 95.7725 52.2188 96.2803V96.8643C52.1722 97.3678 52.0812 97.8206 51.9458 98.2227C51.8146 98.6247 51.6348 98.9674 51.4062 99.251C51.182 99.5345 50.9069 99.7524 50.5811 99.9048C50.2552 100.053 49.8743 100.127 49.4385 100.127C49.0365 100.127 48.6683 100.04 48.334 99.8667C48.0039 99.6932 47.7183 99.4499 47.4771 99.1367C47.2401 98.8236 47.056 98.4554 46.9248 98.0322C46.7979 97.6048 46.7344 97.1414 46.7344 96.6421ZM47.915 96.5088V96.6421C47.915 96.9849 47.9489 97.3065 48.0166 97.6069C48.0885 97.9074 48.1986 98.1719 48.3467 98.4004C48.4948 98.6289 48.6831 98.8088 48.9116 98.9399C49.1401 99.0669 49.4131 99.1304 49.7305 99.1304C50.1198 99.1304 50.4393 99.0479 50.689 98.8828C50.9429 98.7178 51.146 98.4998 51.2983 98.229C51.4507 97.9582 51.5692 97.6641 51.6538 97.3467V95.8169C51.603 95.5841 51.529 95.3599 51.4316 95.144C51.3385 94.924 51.2158 94.7293 51.0635 94.5601C50.9154 94.3866 50.7313 94.249 50.5112 94.1475C50.2954 94.0459 50.0394 93.9951 49.7432 93.9951C49.4215 93.9951 49.1444 94.0628 48.9116 94.1982C48.6831 94.3294 48.4948 94.5114 48.3467 94.7441C48.1986 94.9727 48.0885 95.2393 48.0166 95.5439C47.9489 95.8444 47.915 96.166 47.915 96.5088ZM57.2144 100.127C56.7362 100.127 56.3024 100.047 55.9131 99.8857C55.528 99.7207 55.1958 99.4901 54.9165 99.1938C54.6414 98.8976 54.4299 98.5464 54.2817 98.1401C54.1336 97.7339 54.0596 97.2896 54.0596 96.8071V96.5405C54.0596 95.9819 54.1421 95.4847 54.3071 95.0488C54.4722 94.6087 54.6965 94.2363 54.98 93.9316C55.2635 93.627 55.5851 93.3963 55.9448 93.2397C56.3045 93.0832 56.6769 93.0049 57.062 93.0049C57.5529 93.0049 57.9761 93.0895 58.3315 93.2588C58.6912 93.4281 58.9854 93.665 59.2139 93.9697C59.4424 94.2702 59.6117 94.6257 59.7217 95.0361C59.8317 95.4424 59.8867 95.8867 59.8867 96.3691V96.896H54.7578V95.9375H58.7124V95.8486C58.6955 95.5439 58.632 95.2477 58.522 94.96C58.4162 94.6722 58.2469 94.4352 58.0142 94.249C57.7814 94.0628 57.464 93.9697 57.062 93.9697C56.7954 93.9697 56.55 94.0269 56.3257 94.1411C56.1014 94.2511 55.9089 94.4162 55.748 94.6362C55.5872 94.8563 55.4624 95.125 55.3735 95.4424C55.2847 95.7598 55.2402 96.1258 55.2402 96.5405V96.8071C55.2402 97.133 55.2847 97.4398 55.3735 97.7275C55.4666 98.0111 55.5999 98.2607 55.7734 98.4766C55.9512 98.6924 56.1649 98.8617 56.4146 98.9844C56.6685 99.1071 56.9562 99.1685 57.2778 99.1685C57.6925 99.1685 58.0438 99.0838 58.3315 98.9146C58.6193 98.7453 58.8711 98.5189 59.0869 98.2354L59.7979 98.8003C59.6497 99.0246 59.4614 99.2383 59.2329 99.4414C59.0044 99.6445 58.723 99.8096 58.3887 99.9365C58.0586 100.063 57.6672 100.127 57.2144 100.127ZM63.2573 98.9399L65.1362 93.1318H66.3359L63.8667 100H63.0796L63.2573 98.9399ZM61.6895 93.1318L63.6255 98.9717L63.7588 100H62.9717L60.4834 93.1318H61.6895ZM69.9097 95.5884V96.5532H66.812V95.5884H69.9097ZM75.2607 98.4131V93.1318H76.4414V100H75.3179L75.2607 98.4131ZM75.4829 96.9658L75.9717 96.9531C75.9717 97.4102 75.923 97.8333 75.8257 98.2227C75.7326 98.6077 75.5802 98.9421 75.3687 99.2256C75.1571 99.5091 74.8799 99.7313 74.5371 99.8921C74.1943 100.049 73.7775 100.127 73.2866 100.127C72.9523 100.127 72.6455 100.078 72.3662 99.981C72.0911 99.8836 71.8542 99.7334 71.6553 99.5303C71.4564 99.3271 71.3019 99.0627 71.1919 98.7368C71.0861 98.411 71.0332 98.0195 71.0332 97.5625V93.1318H72.2075V97.5752C72.2075 97.8841 72.2414 98.1401 72.3091 98.3433C72.381 98.5422 72.4762 98.7008 72.5947 98.8193C72.7174 98.9336 72.8529 99.014 73.001 99.0605C73.1533 99.1071 73.3099 99.1304 73.4707 99.1304C73.9701 99.1304 74.3657 99.0352 74.6577 98.8447C74.9497 98.6501 75.1592 98.3898 75.2861 98.064C75.4173 97.7339 75.4829 97.3678 75.4829 96.9658ZM82.2305 98.1782C82.2305 98.009 82.1924 97.8524 82.1162 97.7085C82.0443 97.5604 81.894 97.4271 81.6655 97.3086C81.4412 97.1859 81.1027 97.0801 80.6499 96.9912C80.269 96.9108 79.9242 96.8156 79.6152 96.7056C79.3105 96.5955 79.0503 96.4622 78.8345 96.3057C78.6229 96.1491 78.46 95.965 78.3457 95.7534C78.2314 95.5418 78.1743 95.2943 78.1743 95.0107C78.1743 94.7399 78.2336 94.4839 78.3521 94.2427C78.4748 94.0015 78.6462 93.7878 78.8662 93.6016C79.0905 93.4154 79.3592 93.2694 79.6724 93.1636C79.9855 93.0578 80.3346 93.0049 80.7197 93.0049C81.2699 93.0049 81.7396 93.1022 82.1289 93.2969C82.5182 93.4915 82.8166 93.7518 83.0239 94.0776C83.2313 94.3993 83.335 94.7568 83.335 95.1504H82.1606C82.1606 94.96 82.1035 94.7759 81.9893 94.5981C81.8792 94.4162 81.7163 94.266 81.5005 94.1475C81.2889 94.029 81.0286 93.9697 80.7197 93.9697C80.3939 93.9697 80.1294 94.0205 79.9263 94.1221C79.7274 94.2194 79.5814 94.3442 79.4883 94.4966C79.3994 94.6489 79.355 94.8097 79.355 94.979C79.355 95.106 79.3761 95.2202 79.4185 95.3218C79.465 95.4191 79.5454 95.5101 79.6597 95.5947C79.7739 95.6751 79.9347 95.7513 80.1421 95.8232C80.3494 95.8952 80.6139 95.9671 80.9355 96.0391C81.4984 96.166 81.9618 96.3184 82.3257 96.4961C82.6896 96.6738 82.9604 96.8918 83.1382 97.1499C83.3159 97.408 83.4048 97.7212 83.4048 98.0894C83.4048 98.3898 83.3413 98.6649 83.2144 98.9146C83.0916 99.1642 82.9118 99.38 82.6748 99.562C82.4421 99.7397 82.1628 99.8794 81.8369 99.981C81.5153 100.078 81.1535 100.127 80.7515 100.127C80.1463 100.127 79.6343 100.019 79.2153 99.8032C78.7964 99.5874 78.479 99.3081 78.2632 98.9653C78.0474 98.6226 77.9395 98.2607 77.9395 97.8799H79.1201C79.137 98.2015 79.2301 98.4575 79.3994 98.6479C79.5687 98.8341 79.776 98.9674 80.0215 99.0479C80.2669 99.124 80.5103 99.1621 80.7515 99.1621C81.0731 99.1621 81.3418 99.1198 81.5576 99.0352C81.7777 98.9505 81.9448 98.8341 82.0591 98.686C82.1733 98.5379 82.2305 98.3687 82.2305 98.1782ZM87.7974 100.127C87.3192 100.127 86.8854 100.047 86.4961 99.8857C86.111 99.7207 85.7788 99.4901 85.4995 99.1938C85.2244 98.8976 85.0129 98.5464 84.8647 98.1401C84.7166 97.7339 84.6426 97.2896 84.6426 96.8071V96.5405C84.6426 95.9819 84.7251 95.4847 84.8901 95.0488C85.0552 94.6087 85.2795 94.2363 85.563 93.9316C85.8465 93.627 86.1681 93.3963 86.5278 93.2397C86.8875 93.0832 87.2599 93.0049 87.645 93.0049C88.1359 93.0049 88.5591 93.0895 88.9146 93.2588C89.2743 93.4281 89.5684 93.665 89.7969 93.9697C90.0254 94.2702 90.1947 94.6257 90.3047 95.0361C90.4147 95.4424 90.4697 95.8867 90.4697 96.3691V96.896H85.3408V95.9375H89.2954V95.8486C89.2785 95.5439 89.215 95.2477 89.105 94.96C88.9992 94.6722 88.8299 94.4352 88.5972 94.249C88.3644 94.0628 88.047 93.9697 87.645 93.9697C87.3784 93.9697 87.133 94.0269 86.9087 94.1411C86.6844 94.2511 86.4919 94.4162 86.3311 94.6362C86.1702 94.8563 86.0454 95.125 85.9565 95.4424C85.8677 95.7598 85.8232 96.1258 85.8232 96.5405V96.8071C85.8232 97.133 85.8677 97.4398 85.9565 97.7275C86.0496 98.0111 86.1829 98.2607 86.3564 98.4766C86.5342 98.6924 86.7479 98.8617 86.9976 98.9844C87.2515 99.1071 87.5392 99.1685 87.8608 99.1685C88.2756 99.1685 88.6268 99.0838 88.9146 98.9146C89.2023 98.7453 89.4541 98.5189 89.6699 98.2354L90.3809 98.8003C90.2327 99.0246 90.0444 99.2383 89.8159 99.4414C89.5874 99.6445 89.306 99.8096 88.9717 99.9365C88.6416 100.063 88.2502 100.127 87.7974 100.127ZM95.8906 98.8257V95.29C95.8906 95.0192 95.8356 94.7843 95.7256 94.5854C95.6198 94.3823 95.459 94.2257 95.2432 94.1157C95.0273 94.0057 94.7607 93.9507 94.4434 93.9507C94.1471 93.9507 93.8869 94.0015 93.6626 94.103C93.4425 94.2046 93.269 94.3379 93.1421 94.5029C93.0194 94.668 92.958 94.8457 92.958 95.0361H91.7837C91.7837 94.7907 91.8472 94.5474 91.9741 94.3062C92.1011 94.0649 92.283 93.847 92.52 93.6523C92.7612 93.4535 93.049 93.2969 93.3833 93.1826C93.7218 93.0641 94.0985 93.0049 94.5132 93.0049C95.0125 93.0049 95.4526 93.0895 95.8335 93.2588C96.2186 93.4281 96.519 93.6841 96.7349 94.0269C96.9549 94.3654 97.0649 94.7907 97.0649 95.3027V98.502C97.0649 98.7305 97.084 98.9738 97.1221 99.2319C97.1644 99.4901 97.2257 99.7122 97.3062 99.8984V100H96.0811C96.0218 99.8646 95.9753 99.6847 95.9414 99.4604C95.9076 99.2319 95.8906 99.0203 95.8906 98.8257ZM96.0938 95.8359L96.1064 96.6611H94.9194C94.5851 96.6611 94.2868 96.6886 94.0244 96.7437C93.762 96.7944 93.542 96.8727 93.3643 96.9785C93.1865 97.0843 93.0511 97.2176 92.958 97.3784C92.8649 97.535 92.8184 97.7191 92.8184 97.9307C92.8184 98.1465 92.867 98.3433 92.9644 98.521C93.0617 98.6987 93.2077 98.8405 93.4023 98.9463C93.6012 99.0479 93.8446 99.0986 94.1323 99.0986C94.492 99.0986 94.8094 99.0225 95.0845 98.8701C95.3595 98.7178 95.5775 98.5316 95.7383 98.3115C95.9033 98.0915 95.9922 97.8778 96.0049 97.6704L96.5063 98.2354C96.4767 98.4131 96.3963 98.6099 96.2651 98.8257C96.134 99.0415 95.9583 99.2489 95.7383 99.4478C95.5225 99.6424 95.2643 99.8053 94.9639 99.9365C94.6676 100.063 94.3333 100.127 93.9609 100.127C93.4954 100.127 93.0871 100.036 92.7358 99.854C92.3888 99.672 92.118 99.4287 91.9233 99.124C91.7329 98.8151 91.6377 98.4702 91.6377 98.0894C91.6377 97.7212 91.7096 97.3975 91.8535 97.1182C91.9974 96.8346 92.2048 96.5998 92.4756 96.4136C92.7464 96.2231 93.0723 96.0793 93.4531 95.9819C93.834 95.8846 94.2593 95.8359 94.729 95.8359H96.0938ZM102.911 98.1782C102.911 98.009 102.873 97.8524 102.797 97.7085C102.725 97.5604 102.575 97.4271 102.346 97.3086C102.122 97.1859 101.783 97.0801 101.331 96.9912C100.95 96.9108 100.605 96.8156 100.296 96.7056C99.9912 96.5955 99.731 96.4622 99.5151 96.3057C99.3035 96.1491 99.1406 95.965 99.0264 95.7534C98.9121 95.5418 98.855 95.2943 98.855 95.0107C98.855 94.7399 98.9142 94.4839 99.0327 94.2427C99.1554 94.0015 99.3268 93.7878 99.5469 93.6016C99.7712 93.4154 100.04 93.2694 100.353 93.1636C100.666 93.0578 101.015 93.0049 101.4 93.0049C101.951 93.0049 102.42 93.1022 102.81 93.2969C103.199 93.4915 103.497 93.7518 103.705 94.0776C103.912 94.3993 104.016 94.7568 104.016 95.1504H102.841C102.841 94.96 102.784 94.7759 102.67 94.5981C102.56 94.4162 102.397 94.266 102.181 94.1475C101.97 94.029 101.709 93.9697 101.4 93.9697C101.075 93.9697 100.81 94.0205 100.607 94.1221C100.408 94.2194 100.262 94.3442 100.169 94.4966C100.08 94.6489 100.036 94.8097 100.036 94.979C100.036 95.106 100.057 95.2202 100.099 95.3218C100.146 95.4191 100.226 95.5101 100.34 95.5947C100.455 95.6751 100.615 95.7513 100.823 95.8232C101.03 95.8952 101.295 95.9671 101.616 96.0391C102.179 96.166 102.642 96.3184 103.006 96.4961C103.37 96.6738 103.641 96.8918 103.819 97.1499C103.997 97.408 104.085 97.7212 104.085 98.0894C104.085 98.3898 104.022 98.6649 103.895 98.9146C103.772 99.1642 103.592 99.38 103.355 99.562C103.123 99.7397 102.843 99.8794 102.518 99.981C102.196 100.078 101.834 100.127 101.432 100.127C100.827 100.127 100.315 100.019 99.896 99.8032C99.4771 99.5874 99.1597 99.3081 98.9438 98.9653C98.728 98.6226 98.6201 98.2607 98.6201 97.8799H99.8008C99.8177 98.2015 99.9108 98.4575 100.08 98.6479C100.249 98.8341 100.457 98.9674 100.702 99.0479C100.948 99.124 101.191 99.1621 101.432 99.1621C101.754 99.1621 102.022 99.1198 102.238 99.0352C102.458 98.9505 102.625 98.8341 102.74 98.686C102.854 98.5379 102.911 98.3687 102.911 98.1782ZM108.503 93.1318V94.0332H104.79V93.1318H108.503ZM106.047 91.4624H107.221V98.2988C107.221 98.5316 107.257 98.7072 107.329 98.8257C107.401 98.9442 107.494 99.0225 107.608 99.0605C107.723 99.0986 107.845 99.1177 107.977 99.1177C108.074 99.1177 108.175 99.1092 108.281 99.0923C108.391 99.0711 108.474 99.0542 108.529 99.0415L108.535 100C108.442 100.03 108.319 100.057 108.167 100.083C108.019 100.112 107.839 100.127 107.627 100.127C107.34 100.127 107.075 100.07 106.834 99.9556C106.593 99.8413 106.4 99.6509 106.256 99.3843C106.117 99.1134 106.047 98.7495 106.047 98.2925V91.4624ZM113.613 90.707V100H112.439V92.1733L110.071 93.0366V91.9766L113.429 90.707H113.613ZM119.637 95.5884V96.5532H116.54V95.5884H119.637ZM121.96 94.2109V100H120.786V93.1318H121.929L121.96 94.2109ZM124.106 93.0938L124.1 94.1855C124.002 94.1644 123.909 94.1517 123.82 94.1475C123.736 94.139 123.638 94.1348 123.528 94.1348C123.257 94.1348 123.018 94.1771 122.811 94.2617C122.604 94.3464 122.428 94.4648 122.284 94.6172C122.14 94.7695 122.026 94.9515 121.941 95.1631C121.861 95.3704 121.808 95.599 121.783 95.8486L121.453 96.0391C121.453 95.6243 121.493 95.235 121.573 94.8711C121.658 94.5072 121.787 94.1855 121.96 93.9062C122.134 93.6227 122.354 93.4027 122.621 93.2461C122.891 93.0853 123.213 93.0049 123.585 93.0049C123.67 93.0049 123.767 93.0155 123.877 93.0366C123.987 93.0535 124.064 93.0726 124.106 93.0938ZM127.915 100.127C127.436 100.127 127.003 100.047 126.613 99.8857C126.228 99.7207 125.896 99.4901 125.617 99.1938C125.342 98.8976 125.13 98.5464 124.982 98.1401C124.834 97.7339 124.76 97.2896 124.76 96.8071V96.5405C124.76 95.9819 124.842 95.4847 125.007 95.0488C125.172 94.6087 125.397 94.2363 125.68 93.9316C125.964 93.627 126.285 93.3963 126.645 93.2397C127.005 93.0832 127.377 93.0049 127.762 93.0049C128.253 93.0049 128.676 93.0895 129.032 93.2588C129.391 93.4281 129.686 93.665 129.914 93.9697C130.143 94.2702 130.312 94.6257 130.422 95.0361C130.532 95.4424 130.587 95.8867 130.587 96.3691V96.896H125.458V95.9375H129.413V95.8486C129.396 95.5439 129.332 95.2477 129.222 94.96C129.116 94.6722 128.947 94.4352 128.714 94.249C128.482 94.0628 128.164 93.9697 127.762 93.9697C127.496 93.9697 127.25 94.0269 127.026 94.1411C126.802 94.2511 126.609 94.4162 126.448 94.6362C126.287 94.8563 126.163 95.125 126.074 95.4424C125.985 95.7598 125.94 96.1258 125.94 96.5405V96.8071C125.94 97.133 125.985 97.4398 126.074 97.7275C126.167 98.0111 126.3 98.2607 126.474 98.4766C126.651 98.6924 126.865 98.8617 127.115 98.9844C127.369 99.1071 127.656 99.1685 127.978 99.1685C128.393 99.1685 128.744 99.0838 129.032 98.9146C129.319 98.7453 129.571 98.5189 129.787 98.2354L130.498 98.8003C130.35 99.0246 130.162 99.2383 129.933 99.4414C129.705 99.6445 129.423 99.8096 129.089 99.9365C128.759 100.063 128.367 100.127 127.915 100.127ZM134.707 99.1621C134.986 99.1621 135.244 99.105 135.481 98.9907C135.718 98.8765 135.913 98.7199 136.065 98.521C136.217 98.3179 136.304 98.0872 136.325 97.8291H137.442C137.421 98.2354 137.284 98.6141 137.03 98.9653C136.78 99.3123 136.452 99.5938 136.046 99.8096C135.64 100.021 135.193 100.127 134.707 100.127C134.19 100.127 133.74 100.036 133.354 99.854C132.974 99.672 132.656 99.4224 132.402 99.105C132.153 98.7876 131.964 98.4237 131.837 98.0132C131.715 97.5985 131.653 97.1605 131.653 96.6992V96.4326C131.653 95.9714 131.715 95.5355 131.837 95.125C131.964 94.7103 132.153 94.3442 132.402 94.0269C132.656 93.7095 132.974 93.4598 133.354 93.2778C133.74 93.0959 134.19 93.0049 134.707 93.0049C135.244 93.0049 135.714 93.1149 136.116 93.335C136.518 93.5508 136.833 93.847 137.062 94.2236C137.294 94.596 137.421 95.0192 137.442 95.4932H136.325C136.304 95.2096 136.224 94.9536 136.084 94.7251C135.949 94.4966 135.762 94.3146 135.525 94.1792C135.293 94.0396 135.02 93.9697 134.707 93.9697C134.347 93.9697 134.044 94.0417 133.799 94.1855C133.558 94.3252 133.365 94.5156 133.221 94.7568C133.082 94.9938 132.98 95.2583 132.917 95.5503C132.857 95.8381 132.828 96.1322 132.828 96.4326V96.6992C132.828 96.9997 132.857 97.2959 132.917 97.5879C132.976 97.8799 133.075 98.1444 133.215 98.3813C133.359 98.6183 133.551 98.8088 133.792 98.9526C134.038 99.0923 134.343 99.1621 134.707 99.1621ZM142.762 98.1782C142.762 98.009 142.724 97.8524 142.647 97.7085C142.576 97.5604 142.425 97.4271 142.197 97.3086C141.972 97.1859 141.634 97.0801 141.181 96.9912C140.8 96.9108 140.455 96.8156 140.146 96.7056C139.842 96.5955 139.582 96.4622 139.366 96.3057C139.154 96.1491 138.991 95.965 138.877 95.7534C138.763 95.5418 138.706 95.2943 138.706 95.0107C138.706 94.7399 138.765 94.4839 138.883 94.2427C139.006 94.0015 139.177 93.7878 139.397 93.6016C139.622 93.4154 139.89 93.2694 140.204 93.1636C140.517 93.0578 140.866 93.0049 141.251 93.0049C141.801 93.0049 142.271 93.1022 142.66 93.2969C143.049 93.4915 143.348 93.7518 143.555 94.0776C143.763 94.3993 143.866 94.7568 143.866 95.1504H142.692C142.692 94.96 142.635 94.7759 142.521 94.5981C142.41 94.4162 142.248 94.266 142.032 94.1475C141.82 94.029 141.56 93.9697 141.251 93.9697C140.925 93.9697 140.661 94.0205 140.458 94.1221C140.259 94.2194 140.113 94.3442 140.02 94.4966C139.931 94.6489 139.886 94.8097 139.886 94.979C139.886 95.106 139.907 95.2202 139.95 95.3218C139.996 95.4191 140.077 95.5101 140.191 95.5947C140.305 95.6751 140.466 95.7513 140.673 95.8232C140.881 95.8952 141.145 95.9671 141.467 96.0391C142.03 96.166 142.493 96.3184 142.857 96.4961C143.221 96.6738 143.492 96.8918 143.669 97.1499C143.847 97.408 143.936 97.7212 143.936 98.0894C143.936 98.3898 143.873 98.6649 143.746 98.9146C143.623 99.1642 143.443 99.38 143.206 99.562C142.973 99.7397 142.694 99.8794 142.368 99.981C142.047 100.078 141.685 100.127 141.283 100.127C140.678 100.127 140.166 100.019 139.747 99.8032C139.328 99.5874 139.01 99.3081 138.794 98.9653C138.579 98.6226 138.471 98.2607 138.471 97.8799H139.651C139.668 98.2015 139.761 98.4575 139.931 98.6479C140.1 98.8341 140.307 98.9674 140.553 99.0479C140.798 99.124 141.042 99.1621 141.283 99.1621C141.604 99.1621 141.873 99.1198 142.089 99.0352C142.309 98.9505 142.476 98.8341 142.59 98.686C142.705 98.5379 142.762 98.3687 142.762 98.1782ZM148.329 100.127C147.85 100.127 147.417 100.047 147.027 99.8857C146.642 99.7207 146.31 99.4901 146.031 99.1938C145.756 98.8976 145.544 98.5464 145.396 98.1401C145.248 97.7339 145.174 97.2896 145.174 96.8071V96.5405C145.174 95.9819 145.256 95.4847 145.421 95.0488C145.586 94.6087 145.811 94.2363 146.094 93.9316C146.378 93.627 146.699 93.3963 147.059 93.2397C147.419 93.0832 147.791 93.0049 148.176 93.0049C148.667 93.0049 149.09 93.0895 149.446 93.2588C149.806 93.4281 150.1 93.665 150.328 93.9697C150.557 94.2702 150.726 94.6257 150.836 95.0361C150.946 95.4424 151.001 95.8867 151.001 96.3691V96.896H145.872V95.9375H149.827V95.8486C149.81 95.5439 149.746 95.2477 149.636 94.96C149.53 94.6722 149.361 94.4352 149.128 94.249C148.896 94.0628 148.578 93.9697 148.176 93.9697C147.91 93.9697 147.664 94.0269 147.44 94.1411C147.216 94.2511 147.023 94.4162 146.862 94.6362C146.701 94.8563 146.577 95.125 146.488 95.4424C146.399 95.7598 146.354 96.1258 146.354 96.5405V96.8071C146.354 97.133 146.399 97.4398 146.488 97.7275C146.581 98.0111 146.714 98.2607 146.888 98.4766C147.065 98.6924 147.279 98.8617 147.529 98.9844C147.783 99.1071 148.07 99.1685 148.392 99.1685C148.807 99.1685 149.158 99.0838 149.446 98.9146C149.734 98.7453 149.985 98.5189 150.201 98.2354L150.912 98.8003C150.764 99.0246 150.576 99.2383 150.347 99.4414C150.119 99.6445 149.837 99.8096 149.503 99.9365C149.173 100.063 148.781 100.127 148.329 100.127ZM153.546 94.2109V100H152.372V93.1318H153.515L153.546 94.2109ZM155.692 93.0938L155.686 94.1855C155.588 94.1644 155.495 94.1517 155.406 94.1475C155.322 94.139 155.224 94.1348 155.114 94.1348C154.843 94.1348 154.604 94.1771 154.397 94.2617C154.19 94.3464 154.014 94.4648 153.87 94.6172C153.726 94.7695 153.612 94.9515 153.527 95.1631C153.447 95.3704 153.394 95.599 153.369 95.8486L153.039 96.0391C153.039 95.6243 153.079 95.235 153.159 94.8711C153.244 94.5072 153.373 94.1855 153.546 93.9062C153.72 93.6227 153.94 93.4027 154.207 93.2461C154.477 93.0853 154.799 93.0049 155.171 93.0049C155.256 93.0049 155.353 93.0155 155.463 93.0366C155.573 93.0535 155.65 93.0726 155.692 93.0938ZM158.98 98.9399L160.859 93.1318H162.059L159.589 100H158.802L158.98 98.9399ZM157.412 93.1318L159.348 98.9717L159.481 100H158.694L156.206 93.1318H157.412ZM164.464 93.1318V100H163.284V93.1318H164.464ZM163.195 91.3101C163.195 91.1196 163.252 90.9588 163.366 90.8276C163.485 90.6965 163.658 90.6309 163.887 90.6309C164.111 90.6309 164.282 90.6965 164.401 90.8276C164.524 90.9588 164.585 91.1196 164.585 91.3101C164.585 91.492 164.524 91.6486 164.401 91.7798C164.282 91.9067 164.111 91.9702 163.887 91.9702C163.658 91.9702 163.485 91.9067 163.366 91.7798C163.252 91.6486 163.195 91.492 163.195 91.3101ZM169.098 99.1621C169.377 99.1621 169.636 99.105 169.873 98.9907C170.11 98.8765 170.304 98.7199 170.457 98.521C170.609 98.3179 170.696 98.0872 170.717 97.8291H171.834C171.813 98.2354 171.675 98.6141 171.421 98.9653C171.172 99.3123 170.844 99.5938 170.438 99.8096C170.031 100.021 169.585 100.127 169.098 100.127C168.582 100.127 168.131 100.036 167.746 99.854C167.365 99.672 167.048 99.4224 166.794 99.105C166.544 98.7876 166.356 98.4237 166.229 98.0132C166.106 97.5985 166.045 97.1605 166.045 96.6992V96.4326C166.045 95.9714 166.106 95.5355 166.229 95.125C166.356 94.7103 166.544 94.3442 166.794 94.0269C167.048 93.7095 167.365 93.4598 167.746 93.2778C168.131 93.0959 168.582 93.0049 169.098 93.0049C169.636 93.0049 170.105 93.1149 170.507 93.335C170.909 93.5508 171.225 93.847 171.453 94.2236C171.686 94.596 171.813 95.0192 171.834 95.4932H170.717C170.696 95.2096 170.615 94.9536 170.476 94.7251C170.34 94.4966 170.154 94.3146 169.917 94.1792C169.684 94.0396 169.411 93.9697 169.098 93.9697C168.738 93.9697 168.436 94.0417 168.19 94.1855C167.949 94.3252 167.757 94.5156 167.613 94.7568C167.473 94.9938 167.372 95.2583 167.308 95.5503C167.249 95.8381 167.219 96.1322 167.219 96.4326V96.6992C167.219 96.9997 167.249 97.2959 167.308 97.5879C167.367 97.8799 167.467 98.1444 167.606 98.3813C167.75 98.6183 167.943 98.8088 168.184 98.9526C168.43 99.0923 168.734 99.1621 169.098 99.1621ZM176.004 100.127C175.526 100.127 175.092 100.047 174.703 99.8857C174.318 99.7207 173.986 99.4901 173.707 99.1938C173.431 98.8976 173.22 98.5464 173.072 98.1401C172.924 97.7339 172.85 97.2896 172.85 96.8071V96.5405C172.85 95.9819 172.932 95.4847 173.097 95.0488C173.262 94.6087 173.486 94.2363 173.77 93.9316C174.054 93.627 174.375 93.3963 174.735 93.2397C175.095 93.0832 175.467 93.0049 175.852 93.0049C176.343 93.0049 176.766 93.0895 177.122 93.2588C177.481 93.4281 177.775 93.665 178.004 93.9697C178.232 94.2702 178.402 94.6257 178.512 95.0361C178.622 95.4424 178.677 95.8867 178.677 96.3691V96.896H173.548V95.9375H177.502V95.8486C177.486 95.5439 177.422 95.2477 177.312 94.96C177.206 94.6722 177.037 94.4352 176.804 94.249C176.571 94.0628 176.254 93.9697 175.852 93.9697C175.585 93.9697 175.34 94.0269 175.116 94.1411C174.891 94.2511 174.699 94.4162 174.538 94.6362C174.377 94.8563 174.252 95.125 174.164 95.4424C174.075 95.7598 174.03 96.1258 174.03 96.5405V96.8071C174.03 97.133 174.075 97.4398 174.164 97.7275C174.257 98.0111 174.39 98.2607 174.563 98.4766C174.741 98.6924 174.955 98.8617 175.205 98.9844C175.458 99.1071 175.746 99.1685 176.068 99.1685C176.483 99.1685 176.834 99.0838 177.122 98.9146C177.409 98.7453 177.661 98.5189 177.877 98.2354L178.588 98.8003C178.44 99.0246 178.251 99.2383 178.023 99.4414C177.794 99.6445 177.513 99.8096 177.179 99.9365C176.849 100.063 176.457 100.127 176.004 100.127ZM184.047 98.1782C184.047 98.009 184.009 97.8524 183.933 97.7085C183.861 97.5604 183.71 97.4271 183.482 97.3086C183.258 97.1859 182.919 97.0801 182.466 96.9912C182.085 96.9108 181.741 96.8156 181.432 96.7056C181.127 96.5955 180.867 96.4622 180.651 96.3057C180.439 96.1491 180.276 95.965 180.162 95.7534C180.048 95.5418 179.991 95.2943 179.991 95.0107C179.991 94.7399 180.05 94.4839 180.168 94.2427C180.291 94.0015 180.463 93.7878 180.683 93.6016C180.907 93.4154 181.176 93.2694 181.489 93.1636C181.802 93.0578 182.151 93.0049 182.536 93.0049C183.086 93.0049 183.556 93.1022 183.945 93.2969C184.335 93.4915 184.633 93.7518 184.84 94.0776C185.048 94.3993 185.151 94.7568 185.151 95.1504H183.977C183.977 94.96 183.92 94.7759 183.806 94.5981C183.696 94.4162 183.533 94.266 183.317 94.1475C183.105 94.029 182.845 93.9697 182.536 93.9697C182.21 93.9697 181.946 94.0205 181.743 94.1221C181.544 94.2194 181.398 94.3442 181.305 94.4966C181.216 94.6489 181.171 94.8097 181.171 94.979C181.171 95.106 181.193 95.2202 181.235 95.3218C181.281 95.4191 181.362 95.5101 181.476 95.5947C181.59 95.6751 181.751 95.7513 181.958 95.8232C182.166 95.8952 182.43 95.9671 182.752 96.0391C183.315 96.166 183.778 96.3184 184.142 96.4961C184.506 96.6738 184.777 96.8918 184.955 97.1499C185.132 97.408 185.221 97.7212 185.221 98.0894C185.221 98.3898 185.158 98.6649 185.031 98.9146C184.908 99.1642 184.728 99.38 184.491 99.562C184.258 99.7397 183.979 99.8794 183.653 99.981C183.332 100.078 182.97 100.127 182.568 100.127C181.963 100.127 181.451 100.019 181.032 99.8032C180.613 99.5874 180.295 99.3081 180.08 98.9653C179.864 98.6226 179.756 98.2607 179.756 97.8799H180.937C180.953 98.2015 181.047 98.4575 181.216 98.6479C181.385 98.8341 181.592 98.9674 181.838 99.0479C182.083 99.124 182.327 99.1621 182.568 99.1621C182.889 99.1621 183.158 99.1198 183.374 99.0352C183.594 98.9505 183.761 98.8341 183.875 98.686C183.99 98.5379 184.047 98.3687 184.047 98.1782Z" fill="white" fill-opacity="0.94"/>
</svg>
