<svg width="115" height="11" viewBox="0 0 115 11" fill="none" xmlns="http://www.w3.org/2000/svg">
<path d="M4.30811 9.3208C3.85107 9.85824 3.18034 10.127 2.2959 10.127C1.5638 10.127 1.00521 9.91536 0.620117 9.49219C0.239258 9.06478 0.0467122 8.43424 0.0424805 7.60059V3.13184H1.2168V7.56885C1.2168 8.60986 1.63997 9.13037 2.48633 9.13037C3.38346 9.13037 3.98014 8.79606 4.27637 8.12744V3.13184H5.45068V10H4.3335L4.30811 9.3208ZM11.2397 8.17822C11.2397 7.86084 11.1191 7.6154 10.8779 7.44189C10.641 7.26416 10.2241 7.11182 9.62744 6.98486C9.03499 6.85791 8.56315 6.70557 8.21191 6.52783C7.86491 6.3501 7.60677 6.13851 7.4375 5.89307C7.27246 5.64762 7.18994 5.35563 7.18994 5.01709C7.18994 4.45426 7.42692 3.97819 7.90088 3.58887C8.37907 3.19954 8.98844 3.00488 9.729 3.00488C10.5076 3.00488 11.1382 3.20589 11.6206 3.60791C12.1073 4.00993 12.3506 4.52409 12.3506 5.15039H11.1699C11.1699 4.82878 11.0324 4.5516 10.7573 4.31885C10.4865 4.0861 10.1437 3.96973 9.729 3.96973C9.3016 3.96973 8.96729 4.06283 8.72607 4.24902C8.48486 4.43522 8.36426 4.67855 8.36426 4.979C8.36426 5.26253 8.4764 5.47624 8.70068 5.62012C8.92497 5.764 9.3291 5.90153 9.91309 6.03271C10.5013 6.1639 10.9774 6.32048 11.3413 6.50244C11.7052 6.68441 11.974 6.90446 12.1475 7.1626C12.3252 7.4165 12.4141 7.72754 12.4141 8.0957C12.4141 8.70931 12.1686 9.20231 11.6777 9.57471C11.1868 9.94287 10.55 10.127 9.76709 10.127C9.21696 10.127 8.73031 10.0296 8.30713 9.83496C7.88395 9.6403 7.55176 9.36947 7.31055 9.02246C7.07357 8.67122 6.95508 8.29248 6.95508 7.88623H8.12939C8.15055 8.27979 8.30713 8.59294 8.59912 8.82568C8.89535 9.0542 9.28467 9.16846 9.76709 9.16846C10.2114 9.16846 10.5669 9.07959 10.8335 8.90186C11.1043 8.71989 11.2397 8.47868 11.2397 8.17822ZM16.7939 10.127C15.863 10.127 15.1055 9.82227 14.5215 9.21289C13.9375 8.59928 13.6455 7.78044 13.6455 6.75635V6.54053C13.6455 5.85921 13.7746 5.25195 14.0327 4.71875C14.2951 4.18132 14.659 3.76237 15.1245 3.46191C15.5942 3.15723 16.1021 3.00488 16.6479 3.00488C17.5409 3.00488 18.2349 3.29899 18.73 3.88721C19.2251 4.47542 19.4727 5.31755 19.4727 6.41357V6.90234H14.8198C14.8368 7.57943 15.0335 8.12744 15.4102 8.54639C15.791 8.9611 16.2734 9.16846 16.8574 9.16846C17.2721 9.16846 17.6234 9.08382 17.9111 8.91455C18.1989 8.74528 18.4507 8.521 18.6665 8.2417L19.3838 8.80029C18.8083 9.68473 17.945 10.127 16.7939 10.127ZM16.6479 3.96973C16.174 3.96973 15.7762 4.14323 15.4546 4.49023C15.133 4.83301 14.9341 5.31543 14.8579 5.9375H18.2983V5.84863C18.2645 5.25195 18.1037 4.79069 17.8159 4.46484C17.5282 4.13477 17.1388 3.96973 16.6479 3.96973ZM25.0776 10C25.0099 9.86458 24.9549 9.62337 24.9126 9.27637C24.3667 9.84342 23.715 10.127 22.9575 10.127C22.2804 10.127 21.724 9.93652 21.2881 9.55566C20.8564 9.17057 20.6406 8.68392 20.6406 8.0957C20.6406 7.38053 20.9115 6.82617 21.4531 6.43262C21.999 6.03483 22.765 5.83594 23.751 5.83594H24.8936V5.29639C24.8936 4.8859 24.7708 4.56006 24.5254 4.31885C24.2799 4.0734 23.9181 3.95068 23.4399 3.95068C23.021 3.95068 22.6698 4.05648 22.3862 4.26807C22.1027 4.47965 21.9609 4.73568 21.9609 5.03613H20.7803C20.7803 4.69336 20.9009 4.36328 21.1421 4.0459C21.3875 3.72428 21.7176 3.47038 22.1323 3.28418C22.5513 3.09798 23.0104 3.00488 23.5098 3.00488C24.3011 3.00488 24.9211 3.20378 25.3696 3.60156C25.8182 3.99512 26.0509 4.5389 26.0679 5.23291V8.39404C26.0679 9.02458 26.1483 9.52604 26.3091 9.89844V10H25.0776ZM23.1289 9.10498C23.4971 9.10498 23.8462 9.00977 24.1763 8.81934C24.5063 8.62891 24.7454 8.38135 24.8936 8.07666V6.66748H23.9731C22.5343 6.66748 21.8149 7.08854 21.8149 7.93066C21.8149 8.29883 21.9377 8.58659 22.1831 8.79395C22.4285 9.0013 22.7438 9.10498 23.1289 9.10498ZM31.9077 8.17822C31.9077 7.86084 31.7871 7.6154 31.5459 7.44189C31.3089 7.26416 30.8921 7.11182 30.2954 6.98486C29.703 6.85791 29.2311 6.70557 28.8799 6.52783C28.5329 6.3501 28.2747 6.13851 28.1055 5.89307C27.9404 5.64762 27.8579 5.35563 27.8579 5.01709C27.8579 4.45426 28.0949 3.97819 28.5688 3.58887C29.047 3.19954 29.6564 3.00488 30.397 3.00488C31.1756 3.00488 31.8062 3.20589 32.2886 3.60791C32.7752 4.00993 33.0186 4.52409 33.0186 5.15039H31.8379C31.8379 4.82878 31.7004 4.5516 31.4253 4.31885C31.1545 4.0861 30.8117 3.96973 30.397 3.96973C29.9696 3.96973 29.6353 4.06283 29.394 4.24902C29.1528 4.43522 29.0322 4.67855 29.0322 4.979C29.0322 5.26253 29.1444 5.47624 29.3687 5.62012C29.5929 5.764 29.9971 5.90153 30.5811 6.03271C31.1693 6.1639 31.6453 6.32048 32.0093 6.50244C32.3732 6.68441 32.6419 6.90446 32.8154 7.1626C32.9932 7.4165 33.082 7.72754 33.082 8.0957C33.082 8.70931 32.8366 9.20231 32.3457 9.57471C31.8548 9.94287 31.2179 10.127 30.4351 10.127C29.8849 10.127 29.3983 10.0296 28.9751 9.83496C28.5519 9.6403 28.2197 9.36947 27.9785 9.02246C27.7415 8.67122 27.623 8.29248 27.623 7.88623H28.7974C28.8185 8.27979 28.9751 8.59294 29.2671 8.82568C29.5633 9.0542 29.9526 9.16846 30.4351 9.16846C30.8794 9.16846 31.2349 9.07959 31.5015 8.90186C31.7723 8.71989 31.9077 8.47868 31.9077 8.17822ZM36.2051 1.46875V3.13184H37.4873V4.03955H36.2051V8.29883C36.2051 8.57389 36.2622 8.78125 36.3765 8.9209C36.4907 9.05632 36.6854 9.12402 36.9604 9.12402C37.0959 9.12402 37.2821 9.09863 37.519 9.04785V10C37.2101 10.0846 36.9097 10.127 36.6177 10.127C36.0929 10.127 35.6973 9.96826 35.4307 9.65088C35.1641 9.3335 35.0308 8.88281 35.0308 8.29883V4.03955H33.7803V3.13184H35.0308V1.46875H36.2051ZM42.6035 10H41.4229V2.17334L39.0552 3.04297V1.97656L42.4194 0.713379H42.6035V10ZM48.6084 6.55322H45.5107V5.59473H48.6084V6.55322ZM53.0771 4.18555C52.8994 4.15592 52.7069 4.14111 52.4995 4.14111C51.7293 4.14111 51.2067 4.46908 50.9316 5.125V10H49.7573V3.13184H50.8999L50.9189 3.92529C51.304 3.31169 51.8499 3.00488 52.5566 3.00488C52.7852 3.00488 52.9587 3.03451 53.0771 3.09375V4.18555ZM56.8857 10.127C55.9548 10.127 55.1973 9.82227 54.6133 9.21289C54.0293 8.59928 53.7373 7.78044 53.7373 6.75635V6.54053C53.7373 5.85921 53.8664 5.25195 54.1245 4.71875C54.3869 4.18132 54.7508 3.76237 55.2163 3.46191C55.686 3.15723 56.1938 3.00488 56.7397 3.00488C57.6326 3.00488 58.3267 3.29899 58.8218 3.88721C59.3169 4.47542 59.5645 5.31755 59.5645 6.41357V6.90234H54.9116C54.9285 7.57943 55.1253 8.12744 55.502 8.54639C55.8828 8.9611 56.3652 9.16846 56.9492 9.16846C57.3639 9.16846 57.7152 9.08382 58.0029 8.91455C58.2907 8.74528 58.5425 8.521 58.7583 8.2417L59.4756 8.80029C58.9001 9.68473 58.0368 10.127 56.8857 10.127ZM56.7397 3.96973C56.2658 3.96973 55.868 4.14323 55.5464 4.49023C55.2248 4.83301 55.0259 5.31543 54.9497 5.9375H58.3901V5.84863C58.3563 5.25195 58.1955 4.79069 57.9077 4.46484C57.62 4.13477 57.2306 3.96973 56.7397 3.96973ZM63.6841 9.16846C64.103 9.16846 64.4691 9.0415 64.7822 8.7876C65.0954 8.53369 65.2689 8.21631 65.3027 7.83545H66.4136C66.3924 8.229 66.257 8.60352 66.0073 8.95898C65.7576 9.31445 65.4233 9.59798 65.0044 9.80957C64.5897 10.0212 64.1496 10.127 63.6841 10.127C62.7489 10.127 62.0041 9.81592 61.4497 9.19385C60.8996 8.56755 60.6245 7.71273 60.6245 6.62939V6.43262C60.6245 5.764 60.7472 5.16943 60.9927 4.64893C61.2381 4.12842 61.5894 3.72428 62.0464 3.43652C62.5076 3.14876 63.0514 3.00488 63.6777 3.00488C64.4479 3.00488 65.0869 3.23551 65.5947 3.69678C66.1068 4.15804 66.3797 4.75684 66.4136 5.49316H65.3027C65.2689 5.04883 65.0996 4.6849 64.7949 4.40137C64.4945 4.11361 64.1221 3.96973 63.6777 3.96973C63.0811 3.96973 62.6177 4.18555 62.2876 4.61719C61.9618 5.0446 61.7988 5.66455 61.7988 6.47705V6.69922C61.7988 7.49056 61.9618 8.09993 62.2876 8.52734C62.6134 8.95475 63.0789 9.16846 63.6841 9.16846ZM71.7329 8.17822C71.7329 7.86084 71.6123 7.6154 71.3711 7.44189C71.1341 7.26416 70.7173 7.11182 70.1206 6.98486C69.5282 6.85791 69.0563 6.70557 68.7051 6.52783C68.3581 6.3501 68.0999 6.13851 67.9307 5.89307C67.7656 5.64762 67.6831 5.35563 67.6831 5.01709C67.6831 4.45426 67.9201 3.97819 68.394 3.58887C68.8722 3.19954 69.4816 3.00488 70.2222 3.00488C71.0008 3.00488 71.6313 3.20589 72.1138 3.60791C72.6004 4.00993 72.8438 4.52409 72.8438 5.15039H71.6631C71.6631 4.82878 71.5256 4.5516 71.2505 4.31885C70.9797 4.0861 70.6369 3.96973 70.2222 3.96973C69.7948 3.96973 69.4604 4.06283 69.2192 4.24902C68.978 4.43522 68.8574 4.67855 68.8574 4.979C68.8574 5.26253 68.9696 5.47624 69.1938 5.62012C69.4181 5.764 69.8223 5.90153 70.4062 6.03271C70.9945 6.1639 71.4705 6.32048 71.8345 6.50244C72.1984 6.68441 72.4671 6.90446 72.6406 7.1626C72.8184 7.4165 72.9072 7.72754 72.9072 8.0957C72.9072 8.70931 72.6618 9.20231 72.1709 9.57471C71.68 9.94287 71.0431 10.127 70.2603 10.127C69.7101 10.127 69.2235 10.0296 68.8003 9.83496C68.3771 9.6403 68.0449 9.36947 67.8037 9.02246C67.5667 8.67122 67.4482 8.29248 67.4482 7.88623H68.6226C68.6437 8.27979 68.8003 8.59294 69.0923 8.82568C69.3885 9.0542 69.7778 9.16846 70.2603 9.16846C70.7046 9.16846 71.0601 9.07959 71.3267 8.90186C71.5975 8.71989 71.7329 8.47868 71.7329 8.17822ZM77.2871 10.127C76.3561 10.127 75.5986 9.82227 75.0146 9.21289C74.4307 8.59928 74.1387 7.78044 74.1387 6.75635V6.54053C74.1387 5.85921 74.2677 5.25195 74.5259 4.71875C74.7882 4.18132 75.1522 3.76237 75.6177 3.46191C76.0874 3.15723 76.5952 3.00488 77.1411 3.00488C78.034 3.00488 78.728 3.29899 79.2231 3.88721C79.7183 4.47542 79.9658 5.31755 79.9658 6.41357V6.90234H75.313C75.3299 7.57943 75.5267 8.12744 75.9033 8.54639C76.2842 8.9611 76.7666 9.16846 77.3506 9.16846C77.7653 9.16846 78.1165 9.08382 78.4043 8.91455C78.6921 8.74528 78.9438 8.521 79.1597 8.2417L79.877 8.80029C79.3014 9.68473 78.4382 10.127 77.2871 10.127ZM77.1411 3.96973C76.6672 3.96973 76.2694 4.14323 75.9478 4.49023C75.6261 4.83301 75.4272 5.31543 75.3511 5.9375H78.7915V5.84863C78.7576 5.25195 78.5968 4.79069 78.3091 4.46484C78.0213 4.13477 77.632 3.96973 77.1411 3.96973ZM84.6504 4.18555C84.4727 4.15592 84.2801 4.14111 84.0728 4.14111C83.3026 4.14111 82.7799 4.46908 82.5049 5.125V10H81.3306V3.13184H82.4731L82.4922 3.92529C82.8773 3.31169 83.4232 3.00488 84.1299 3.00488C84.3584 3.00488 84.5319 3.03451 84.6504 3.09375V4.18555ZM88.1162 8.40674L89.8174 3.13184H91.0171L88.5542 10H87.6592L85.1709 3.13184H86.3706L88.1162 8.40674ZM93.4229 10H92.2485V3.13184H93.4229V10ZM92.1533 1.31006C92.1533 1.11963 92.2104 0.958822 92.3247 0.827637C92.4432 0.696452 92.6167 0.630859 92.8452 0.630859C93.0737 0.630859 93.2472 0.696452 93.3657 0.827637C93.4842 0.958822 93.5435 1.11963 93.5435 1.31006C93.5435 1.50049 93.4842 1.65918 93.3657 1.78613C93.2472 1.91309 93.0737 1.97656 92.8452 1.97656C92.6167 1.97656 92.4432 1.91309 92.3247 1.78613C92.2104 1.65918 92.1533 1.50049 92.1533 1.31006ZM98.063 9.16846C98.4819 9.16846 98.848 9.0415 99.1611 8.7876C99.4743 8.53369 99.6478 8.21631 99.6816 7.83545H100.792C100.771 8.229 100.636 8.60352 100.386 8.95898C100.137 9.31445 99.8022 9.59798 99.3833 9.80957C98.9686 10.0212 98.5285 10.127 98.063 10.127C97.1278 10.127 96.383 9.81592 95.8286 9.19385C95.2785 8.56755 95.0034 7.71273 95.0034 6.62939V6.43262C95.0034 5.764 95.1261 5.16943 95.3716 4.64893C95.617 4.12842 95.9683 3.72428 96.4253 3.43652C96.8866 3.14876 97.4303 3.00488 98.0566 3.00488C98.8268 3.00488 99.4658 3.23551 99.9736 3.69678C100.486 4.15804 100.759 4.75684 100.792 5.49316H99.6816C99.6478 5.04883 99.4785 4.6849 99.1738 4.40137C98.8734 4.11361 98.501 3.96973 98.0566 3.96973C97.46 3.96973 96.9966 4.18555 96.6665 4.61719C96.3407 5.0446 96.1777 5.66455 96.1777 6.47705V6.69922C96.1777 7.49056 96.3407 8.09993 96.6665 8.52734C96.9924 8.95475 97.4578 9.16846 98.063 9.16846ZM104.963 10.127C104.032 10.127 103.274 9.82227 102.69 9.21289C102.106 8.59928 101.814 7.78044 101.814 6.75635V6.54053C101.814 5.85921 101.944 5.25195 102.202 4.71875C102.464 4.18132 102.828 3.76237 103.293 3.46191C103.763 3.15723 104.271 3.00488 104.817 3.00488C105.71 3.00488 106.404 3.29899 106.899 3.88721C107.394 4.47542 107.642 5.31755 107.642 6.41357V6.90234H102.989C103.006 7.57943 103.202 8.12744 103.579 8.54639C103.96 8.9611 104.442 9.16846 105.026 9.16846C105.441 9.16846 105.792 9.08382 106.08 8.91455C106.368 8.74528 106.62 8.521 106.835 8.2417L107.553 8.80029C106.977 9.68473 106.114 10.127 104.963 10.127ZM104.817 3.96973C104.343 3.96973 103.945 4.14323 103.624 4.49023C103.302 4.83301 103.103 5.31543 103.027 5.9375H106.467V5.84863C106.433 5.25195 106.273 4.79069 105.985 4.46484C105.697 4.13477 105.308 3.96973 104.817 3.96973ZM113.005 8.17822C113.005 7.86084 112.885 7.6154 112.644 7.44189C112.407 7.26416 111.99 7.11182 111.393 6.98486C110.801 6.85791 110.329 6.70557 109.978 6.52783C109.631 6.3501 109.372 6.13851 109.203 5.89307C109.038 5.64762 108.956 5.35563 108.956 5.01709C108.956 4.45426 109.193 3.97819 109.667 3.58887C110.145 3.19954 110.754 3.00488 111.495 3.00488C112.273 3.00488 112.904 3.20589 113.386 3.60791C113.873 4.00993 114.116 4.52409 114.116 5.15039H112.936C112.936 4.82878 112.798 4.5516 112.523 4.31885C112.252 4.0861 111.909 3.96973 111.495 3.96973C111.067 3.96973 110.733 4.06283 110.492 4.24902C110.25 4.43522 110.13 4.67855 110.13 4.979C110.13 5.26253 110.242 5.47624 110.466 5.62012C110.691 5.764 111.095 5.90153 111.679 6.03271C112.267 6.1639 112.743 6.32048 113.107 6.50244C113.471 6.68441 113.74 6.90446 113.913 7.1626C114.091 7.4165 114.18 7.72754 114.18 8.0957C114.18 8.70931 113.934 9.20231 113.443 9.57471C112.952 9.94287 112.316 10.127 111.533 10.127C110.983 10.127 110.496 10.0296 110.073 9.83496C109.65 9.6403 109.317 9.36947 109.076 9.02246C108.839 8.67122 108.721 8.29248 108.721 7.88623H109.895C109.916 8.27979 110.073 8.59294 110.365 8.82568C110.661 9.0542 111.05 9.16846 111.533 9.16846C111.977 9.16846 112.333 9.07959 112.599 8.90186C112.87 8.71989 113.005 8.47868 113.005 8.17822Z" fill="white" fill-opacity="0.94"/>
</svg>
